<svg xmlns="http://www.w3.org/2000/svg" width="81.015" height="47.148" viewBox="0 0 81.015 47.148"><g transform="translate(-961.347 -2388.307)"><text transform="translate(973 2425.855)" fill="#fbaa68" font-size="15" font-family="SegoeUI, Segoe UI"><tspan x="0" y="0">Bitrix 24</tspan></text><path d="M24.13,57.365c-1.277-8.476,3.1-16.648,10.339-19.917,8.429-3.8,19.128-.215,23.943,8.707a15.3,15.3,0,0,1,15.781.109,15.707,15.707,0,0,1,6.856,11.1,12.271,12.271,0,0,1,2.5,24.378L25.11,81.632a12.287,12.287,0,0,1-.98-24.267Z" transform="translate(947.797 2353.062)" fill="none" stroke="#fbaa68" stroke-miterlimit="10" stroke-width="1.3"/><g transform="translate(1023.338 2394.491)"><circle cx="4" cy="4" r="4" transform="translate(7.662 6.364)" fill="none" stroke="#fbaa68" stroke-miterlimit="10" stroke-width="1"/><path d="M35.83,19.17V21.6h2.287" transform="translate(-24.063 -11.021)" fill="none" stroke="#fbaa68" stroke-miterlimit="10" stroke-width="1"/></g></g></svg>