<svg xmlns="http://www.w3.org/2000/svg" width="42.286" height="49.897" viewBox="0 0 42.286 49.897"><g transform="translate(-222 -2387.729)"><g transform="translate(206.641 2387.729)"><g transform="translate(30.53)"><path d="M89.68,6.166A7.189,7.189,0,0,0,76.756,2.952a.845.845,0,1,0,1.365,1A5.5,5.5,0,0,1,88.005,6.4a.847.847,0,0,0,.836.726.906.906,0,0,0,.12-.008A.846.846,0,0,0,89.68,6.166Z" transform="translate(-76.593)" fill="#fbaa68"/></g><g transform="translate(17.05 10.994)"><g transform="translate(0)"><path d="M60.967,49.011,58.43,44.783a.845.845,0,0,0-.725-.411H55.273a.846.846,0,0,0,0,1.691h1.953L58.748,48.6H24.524l1.522-2.537h.9a.846.846,0,1,0,0-1.691H25.568a.845.845,0,0,0-.725.411l-2.537,4.229a.846.846,0,0,0,.725,1.281H60.242a.846.846,0,0,0,.725-1.281Z" transform="translate(-22.185 -44.372)" fill="#fbaa68"/></g></g><g transform="translate(37.654 4.739)"><path d="M119.306,22.222a.844.844,0,0,0-.526-.378l-11.529-2.7a.845.845,0,0,0-1.016.631l-.869,3.716a.846.846,0,0,0,1.647.385l.677-2.893,9.882,2.311-1.553,6.639a.845.845,0,0,0,.631,1.016.855.855,0,0,0,.194.022.845.845,0,0,0,.822-.653l1.746-7.462A.842.842,0,0,0,119.306,22.222Z" transform="translate(-105.343 -19.126)" fill="#fbaa68"/></g><g transform="translate(20.347 2.57)"><g transform="translate(0)"><path d="M52.1,17.638l-.771-6.517a.846.846,0,0,0-.939-.741L36.24,12.051a.846.846,0,0,0-.74.939l1.285,10.87a.846.846,0,0,0,.839.747.924.924,0,0,0,.1-.006.846.846,0,0,0,.74-.939L37.279,13.631l12.465-1.473.671,5.678a.846.846,0,0,0,1.68-.2Z" transform="translate(-35.494 -10.374)" fill="#fbaa68"/></g></g><g transform="translate(26.666 8.119)"><g transform="translate(0)"><path d="M77.968,40.4l-1.679-6.981a.845.845,0,0,0-1.02-.624L61.645,36.069a.846.846,0,0,0-.625,1.02l.839,3.489a.846.846,0,1,0,1.644-.4l-.641-2.667,11.979-2.881,1.481,6.158a.846.846,0,0,0,1.645-.4Z" transform="translate(-60.997 -32.769)" fill="#fbaa68"/></g></g><g transform="translate(15.359 15.223)"><path d="M55.952,62.243a.846.846,0,0,0-.845-.8H17.9a.846.846,0,0,0-.845.8L15.36,95.226a.845.845,0,0,0,.845.889H56.8a.845.845,0,0,0,.845-.889ZM17.094,94.423l1.6-31.291H54.3l1.6,31.291Z" transform="translate(-15.359 -61.441)" fill="#fbaa68"/></g><g transform="translate(40.307 18.606)"><g transform="translate(0)"><path d="M118.589,75.093a2.537,2.537,0,1,0,2.537,2.537A2.54,2.54,0,0,0,118.589,75.093Zm0,3.383a.846.846,0,1,1,.846-.846A.846.846,0,0,1,118.589,78.476Z" transform="translate(-116.052 -75.093)" fill="#fbaa68"/></g></g><g transform="translate(27.621 18.606)"><g transform="translate(0)"><path d="M67.389,75.093a2.537,2.537,0,1,0,2.537,2.537A2.54,2.54,0,0,0,67.389,75.093Zm0,3.383a.846.846,0,1,1,.846-.846A.847.847,0,0,1,67.389,78.476Z" transform="translate(-64.852 -75.093)" fill="#fbaa68"/></g></g><g transform="translate(29.313 21.143)"><g transform="translate(0)"><path d="M85.21,85.333h-.065a.846.846,0,0,0-.846.846.836.836,0,0,0,.065.326V90.83a5.5,5.5,0,1,1-10.994,0V86.179a.846.846,0,0,0-1.691,0V90.83a7.188,7.188,0,1,0,14.377,0V86.179A.846.846,0,0,0,85.21,85.333Z" transform="translate(-71.679 -85.333)" fill="#fbaa68"/></g></g></g></g></svg>