<svg xmlns="http://www.w3.org/2000/svg" width="58.102" height="49.005" viewBox="0 0 58.102 49.005"><g transform="translate(-592 -2699.653)"><g transform="translate(592 2659.572)"><g transform="translate(0 40.081)"><path d="M54.522,40.081H3.58A3.584,3.584,0,0,0,0,43.661V78.229a3.584,3.584,0,0,0,3.58,3.58H20.809l-.7,5.575H17.225a.851.851,0,1,0,0,1.7H40.877a.851.851,0,0,0,0-1.7H37.99l-.7-5.575H54.522a3.584,3.584,0,0,0,3.58-3.58V43.661A3.584,3.584,0,0,0,54.522,40.081Zm-32.694,47.3.7-5.575h3.132l.307,1.229a3.181,3.181,0,0,0,6.173,0l.307-1.229h3.132l.7,5.575Zm5.584-5.575H30.69l-.2.816a1.479,1.479,0,0,1-2.87,0ZM56.4,78.229h0a1.88,1.88,0,0,1-1.878,1.878H3.58A1.88,1.88,0,0,1,1.7,78.229V43.661A1.88,1.88,0,0,1,3.58,41.783H54.522A1.88,1.88,0,0,1,56.4,43.661V78.229Z" transform="translate(0 -40.081)" fill="#fbaa68"/></g><g transform="translate(3.639 43.72)"><path d="M76.579,72.146H32.915a.851.851,0,0,0-.851.851v32.748a.851.851,0,0,0,.851.851h1.819a.851.851,0,0,0,0-1.7h-.968V73.848H76.579a.851.851,0,1,0,0-1.7Z" transform="translate(-32.064 -72.146)" fill="#fbaa68"/></g><g transform="translate(9.097 43.72)"><path d="M124.677,72.146h-1.819a.851.851,0,1,0,0,1.7h.968v31.046H81.013a.851.851,0,0,0,0,1.7h43.664a.851.851,0,0,0,.851-.851V73A.851.851,0,0,0,124.677,72.146Z" transform="translate(-80.162 -72.146)" fill="#fbaa68"/></g><g transform="translate(15.465 49.178)"><path d="M161.449,124.206a.851.851,0,0,0-.632-.326l-20.013-.91h-.047a1.763,1.763,0,0,0-.708-.952l-2.451-1.634a.851.851,0,0,0-.944,1.416l2.451,1.634a.059.059,0,0,1,.024.033l3.122,10.926a2.68,2.68,0,0,0,.463.911l-1.142,2.284a1.749,1.749,0,0,0,.077,1.713,1.767,1.767,0,0,0,.437.48,2.67,2.67,0,1,0,4.806.355h7.759a2.67,2.67,0,1,0,4.878-.221.85.85,0,0,0-.571-1.481H143.147a.059.059,0,0,1-.052-.085l1.052-2.1a2.671,2.671,0,0,0,.666.085,2.741,2.741,0,0,0,.318-.019L157.09,134.9a3.572,3.572,0,0,0,3.092-2.854l1.431-7.153A.851.851,0,0,0,161.449,124.206Zm-4.309,15.931a.968.968,0,1,1-.968.968A.969.969,0,0,1,157.14,140.137Zm-12.735,0a.968.968,0,1,1-.968.968A.969.969,0,0,1,144.4,140.137Zm-2.087-11.709-1.067-3.733,3.4.155.59,3.578Zm2.615,6.193a.964.964,0,0,1-1.044-.7L142.8,130.13h2.72l.715,4.337Zm4.989-.587-1.99.234-.682-4.138h2.672Zm0-5.606h-2.952l-.577-3.5,3.529.16Zm4.31,5.1-2.608.307v-3.7h2.915Zm.462-5.1h-3.07v-3.261l3.351.152Zm3.82,3.289a1.873,1.873,0,0,1-1.622,1.5l-.932.11.289-3.193h2.583Zm.658-3.289H156.4l.274-3.032,3.073.14Z" transform="translate(-136.276 -120.241)" fill="#fbaa68"/></g></g></g></svg>