<svg xmlns="http://www.w3.org/2000/svg" width="46.548" height="49.897" viewBox="0 0 46.548 49.897"><g transform="translate(-592 -2387.729)"><g transform="translate(574.817 2387.729)"><path d="M63,272.532a.732.732,0,0,0-.732.732v19.791a1.351,1.351,0,0,1-1.349,1.349H43.67a1.351,1.351,0,0,1-1.349-1.349v-1.946a.732.732,0,0,0-1.465,0v1.946A2.8,2.8,0,0,0,41.2,294.4H18.892a.244.244,0,0,1-.244-.244V276.492a.732.732,0,0,0-1.465,0v17.669a1.711,1.711,0,0,0,1.709,1.709H60.917a2.817,2.817,0,0,0,2.814-2.814V273.264a.732.732,0,0,0-.732-.732Z" transform="translate(0 -245.972)" fill="#fbaa68"/><path d="M60.918,15.727H53.839V9.807a.737.737,0,0,0-.215-.518L44.549.215A.737.737,0,0,0,44.031,0H18.893a1.711,1.711,0,0,0-1.709,1.709V27.59a.732.732,0,1,0,1.465,0V1.709a.244.244,0,0,1,.244-.244H43.3v6.39a2.688,2.688,0,0,0,2.685,2.685h6.39v5.188h-8.7a2.817,2.817,0,0,0-2.814,2.814v.115h-11.6a.732.732,0,1,0,0,1.465h11.6v4.975h-11.6a.732.732,0,0,0,0,1.465h11.6v4.975h-11.6a.732.732,0,0,0,0,1.465h11.6v4.975h-11.6a.732.732,0,0,0,0,1.465h11.6v2.769a.732.732,0,0,0,1.465,0V18.541a1.351,1.351,0,0,1,1.349-1.349H60.918a1.351,1.351,0,0,1,1.349,1.349v5.821a.732.732,0,0,0,1.465,0V18.541a2.817,2.817,0,0,0-2.814-2.814ZM44.764,7.854V2.5l6.575,6.575H45.984a1.222,1.222,0,0,1-1.221-1.221Z" transform="translate(-0.001 0)" fill="#fbaa68"/><path d="M313.771,197.738a1.711,1.711,0,0,0-1.709-1.709H299.9a1.711,1.711,0,0,0-1.709,1.709v4.135a1.711,1.711,0,0,0,1.709,1.709h12.16a1.711,1.711,0,0,0,1.709-1.709Zm-1.465,4.135a.244.244,0,0,1-.244.244H299.9a.244.244,0,0,1-.244-.244v-4.135a.244.244,0,0,1,.244-.244h12.16a.244.244,0,0,1,.244.244Z" transform="translate(-253.625 -176.925)" fill="#fbaa68"/><path d="M298.194,307.184a1.637,1.637,0,0,0,1.635,1.635h1.394a1.637,1.637,0,0,0,1.635-1.635v-1.394a1.637,1.637,0,0,0-1.635-1.635h-1.395a1.637,1.637,0,0,0-1.635,1.635Zm1.465-1.394a.171.171,0,0,1,.17-.17h1.394a.171.171,0,0,1,.17.17v1.394a.171.171,0,0,1-.17.17h-1.394a.171.171,0,0,1-.17-.17Z" transform="translate(-253.625 -274.513)" fill="#fbaa68"/><path d="M358.847,305.79a1.637,1.637,0,0,0-1.635-1.635h-1.394a1.637,1.637,0,0,0-1.635,1.635v1.395a1.637,1.637,0,0,0,1.635,1.635h1.394a1.637,1.637,0,0,0,1.635-1.635Zm-1.465,1.394a.171.171,0,0,1-.17.17h-1.394a.171.171,0,0,1-.17-.17V305.79a.171.171,0,0,1,.17-.17h1.394a.171.171,0,0,1,.17.17v1.394Z" transform="translate(-304.157 -274.514)" fill="#fbaa68"/><path d="M414.834,305.79a1.637,1.637,0,0,0-1.635-1.635H411.8a1.637,1.637,0,0,0-1.635,1.635v1.395a1.637,1.637,0,0,0,1.635,1.635H413.2a1.637,1.637,0,0,0,1.635-1.635Zm-1.465,1.394a.171.171,0,0,1-.17.17H411.8a.171.171,0,0,1-.17-.17V305.79a.171.171,0,0,1,.17-.17H413.2a.171.171,0,0,1,.17.17Z" transform="translate(-354.688 -274.514)" fill="#fbaa68"/><path d="M298.194,368.455a1.637,1.637,0,0,0,1.635,1.635h1.394a1.637,1.637,0,0,0,1.635-1.635V367.06a1.637,1.637,0,0,0-1.635-1.635h-1.395a1.637,1.637,0,0,0-1.635,1.635Zm1.465-1.394a.171.171,0,0,1,.17-.17h1.394a.171.171,0,0,1,.17.17v1.394a.171.171,0,0,1-.17.17h-1.394a.171.171,0,0,1-.17-.17Z" transform="translate(-253.625 -329.812)" fill="#fbaa68"/><path d="M358.847,367.06a1.637,1.637,0,0,0-1.635-1.635h-1.394a1.637,1.637,0,0,0-1.635,1.635v1.394a1.637,1.637,0,0,0,1.635,1.635h1.394a1.637,1.637,0,0,0,1.635-1.635Zm-1.465,1.394a.171.171,0,0,1-.17.17h-1.394a.171.171,0,0,1-.17-.17V367.06a.171.171,0,0,1,.17-.17h1.394a.171.171,0,0,1,.17.17v1.394Z" transform="translate(-304.157 -329.812)" fill="#fbaa68"/><path d="M298.194,429.725a1.637,1.637,0,0,0,1.635,1.635h1.394a1.637,1.637,0,0,0,1.635-1.635V428.33a1.637,1.637,0,0,0-1.635-1.635h-1.395a1.637,1.637,0,0,0-1.635,1.635Zm1.465-1.394a.171.171,0,0,1,.17-.17h1.394a.171.171,0,0,1,.17.17v1.395a.171.171,0,0,1-.17.17h-1.394a.171.171,0,0,1-.17-.17Z" transform="translate(-253.625 -385.111)" fill="#fbaa68"/><path d="M357.212,426.7h-1.394a1.637,1.637,0,0,0-1.635,1.635v1.395a1.637,1.637,0,0,0,1.635,1.635h1.394a1.637,1.637,0,0,0,1.635-1.635v-1.395A1.637,1.637,0,0,0,357.212,426.7Zm.17,3.03a.171.171,0,0,1-.17.17h-1.394a.171.171,0,0,1-.17-.17v-1.395a.171.171,0,0,1,.17-.17h1.394a.171.171,0,0,1,.17.17v1.395Z" transform="translate(-304.157 -385.112)" fill="#fbaa68"/><path d="M413.06,365.425h-1.118a1.775,1.775,0,0,0-1.773,1.773v7.089a1.775,1.775,0,0,0,1.773,1.773h1.118a1.775,1.775,0,0,0,1.773-1.773V367.2A1.775,1.775,0,0,0,413.06,365.425Zm.309,8.862a.309.309,0,0,1-.309.309h-1.118a.309.309,0,0,1-.309-.309V367.2a.309.309,0,0,1,.309-.309h1.118a.309.309,0,0,1,.309.309Z" transform="translate(-354.688 -329.812)" fill="#fbaa68"/><path d="M70.425,126.82h2.923a.732.732,0,0,0,0-1.465H70.425a.732.732,0,0,0,0,1.465Z" transform="translate(-47.393 -113.139)" fill="#fbaa68"/><path d="M134.239,126.82h14.095a.732.732,0,0,0,0-1.465H134.239a.732.732,0,0,0,0,1.465Z" transform="translate(-104.988 -113.139)" fill="#fbaa68"/><path d="M70.425,192.893h2.923a.732.732,0,1,0,0-1.465H70.425a.732.732,0,1,0,0,1.465Z" transform="translate(-47.393 -172.772)" fill="#fbaa68"/><path d="M70.425,258.967h2.923a.732.732,0,1,0,0-1.465H70.425a.732.732,0,0,0,0,1.465Z" transform="translate(-47.393 -232.407)" fill="#fbaa68"/><path d="M70.425,325.041h2.923a.732.732,0,1,0,0-1.465H70.425a.732.732,0,0,0,0,1.465Z" transform="translate(-47.393 -292.042)" fill="#fbaa68"/><path d="M70.425,391.115h2.923a.732.732,0,0,0,0-1.465H70.425a.732.732,0,0,0,0,1.465Z" transform="translate(-47.393 -351.677)" fill="#fbaa68"/></g></g></svg>