<svg xmlns="http://www.w3.org/2000/svg" width="48.968" height="48.968" viewBox="0 0 48.968 48.968"><g transform="translate(-222 -2700.672)"><g transform="translate(222 2700.672)"><path d="M63.985,192H51.456a.956.956,0,0,0,0,1.913H63.985a.956.956,0,0,0,0-1.913Z" transform="translate(-45.67 -173.637)" fill="#fbaa68"/><path d="M248.369,177.738a2.869,2.869,0,1,0-2.869-2.869A2.872,2.872,0,0,0,248.369,177.738Zm0-3.826a.956.956,0,1,1-.956.956A.957.957,0,0,1,248.369,173.913Z" transform="translate(-222.02 -155.55)" fill="#fbaa68"/><path d="M336.369,177.738a2.869,2.869,0,1,0-2.869-2.869A2.872,2.872,0,0,0,336.369,177.738Zm0-3.826a.956.956,0,1,1-.956.956A.957.957,0,0,1,336.369,173.913Z" transform="translate(-301.604 -155.55)" fill="#fbaa68"/><path d="M51.456,65.913H63.985a.956.956,0,0,0,0-1.913H51.456a.956.956,0,1,0,0,1.913Z" transform="translate(-45.67 -57.879)" fill="#fbaa68"/><path d="M248.369,49.738a2.869,2.869,0,1,0-2.869-2.869A2.872,2.872,0,0,0,248.369,49.738Zm0-3.826a.956.956,0,1,1-.956.956A.957.957,0,0,1,248.369,45.913Z" transform="translate(-222.02 -39.792)" fill="#fbaa68"/><path d="M336.369,49.738a2.869,2.869,0,1,0-2.869-2.869A2.872,2.872,0,0,0,336.369,49.738Zm0-3.826a.956.956,0,1,1-.956.956A.957.957,0,0,1,336.369,45.913Z" transform="translate(-301.604 -39.792)" fill="#fbaa68"/><path d="M63.985,320H51.456a.956.956,0,0,0,0,1.913H63.985a.956.956,0,0,0,0-1.913Z" transform="translate(-45.67 -289.395)" fill="#fbaa68"/><path d="M41.884,25.625c-.048-.064-.1-.127-.152-.186a2.857,2.857,0,0,0,.732-1.912V15.111a2.857,2.857,0,0,0-.733-1.913,2.857,2.857,0,0,0,.733-1.913V2.869A2.872,2.872,0,0,0,39.6,0H2.869A2.872,2.872,0,0,0,0,2.869v8.416A2.857,2.857,0,0,0,.733,13.2,2.857,2.857,0,0,0,0,15.111v8.416A2.857,2.857,0,0,0,.733,25.44,2.857,2.857,0,0,0,0,27.353v8.416a2.872,2.872,0,0,0,2.869,2.869H24.634a12.242,12.242,0,1,0,17.25-13.013Zm5.171,11.1A10.279,10.279,0,0,1,44.844,43.1a9.172,9.172,0,0,0-2.634-3.172,9.06,9.06,0,0,0-2.286-1.264,4.506,4.506,0,1,0-6.4,0,9.059,9.059,0,0,0-2.294,1.27A9.171,9.171,0,0,0,28.607,43.1a10.327,10.327,0,1,1,18.448-6.379ZM34.133,35.5a2.593,2.593,0,0,1,5.187,0h0a2.593,2.593,0,0,1-5.187,0ZM1.913,2.869a.957.957,0,0,1,.956-.956H39.6a.957.957,0,0,1,.956.956v8.416a.957.957,0,0,1-.956.956H25.4a.956.956,0,0,0,0,1.913H39.6a.957.957,0,0,1,.956.956v8.416a.957.957,0,0,1-.956.956H2.869a.957.957,0,0,1-.956-.956V15.111a.957.957,0,0,1,.956-.956H16.8a.956.956,0,1,0,0-1.913H2.869a.957.957,0,0,1-.956-.956Zm.956,33.857a.957.957,0,0,1-.956-.956V27.353a.957.957,0,0,1,.956-.956H30.162a12.243,12.243,0,0,0-5.678,10.329Zm27.166,7.863a7.174,7.174,0,0,1,13.381,0,10.307,10.307,0,0,1-13.381,0Z" fill="#fbaa68"/><path d="M211.565,129.913a.957.957,0,1,0-.676-.28A.963.963,0,0,0,211.565,129.913Z" transform="translate(-190.466 -115.758)" fill="#fbaa68"/></g></g></svg>