<svg xmlns="http://www.w3.org/2000/svg" width="18.329" height="18.329" viewBox="0 0 18.329 18.329"><g transform="translate(-789.345 -4006.687)"><g transform="translate(789.395 4006.737)"><g transform="translate(0 0)"><path d="M15.71-1H.519A1.5,1.5,0,0,0-1,.519V15.71A1.5,1.5,0,0,0,.519,17.229H15.71a1.5,1.5,0,0,0,1.519-1.519V.519A1.5,1.5,0,0,0,15.71-1Zm-7.6,17.622V10.545H5.684V8.115H8.115V5.988a3.364,3.364,0,0,1,3.038-3.342h2.734V5.076H11.457a.9.9,0,0,0-.911.911V8.115h3.038v2.431H10.545v6.076H8.115Zm8.507-.911a.9.9,0,0,1-.911.911H11.153V11.153h3.038V7.507H11.153V5.988a.287.287,0,0,1,.3-.3h3.038V2.038H11.123a3.988,3.988,0,0,0-3.615,3.95V7.507H5.076v3.646H7.507v5.469H.519a.9.9,0,0,1-.911-.911V.519A.9.9,0,0,1,.519-.392H15.71a.9.9,0,0,1,.911.911V15.71Z" transform="translate(1 1)" fill="#fbaa68" stroke="#fbaa68" stroke-width="0.1"/></g></g></g></svg>