<svg xmlns="http://www.w3.org/2000/svg" width="18.329" height="18.329" viewBox="0 0 18.329 18.329"><g transform="translate(-971.45 -4006.687)"><g transform="translate(971.5 4006.737)"><path d="M15.108,0H3.121A3.125,3.125,0,0,0,0,3.121V15.108a3.125,3.125,0,0,0,3.121,3.121H15.108a3.125,3.125,0,0,0,3.121-3.121V3.121A3.125,3.125,0,0,0,15.108,0ZM17.7,15.108A2.59,2.59,0,0,1,15.108,17.7H3.121A2.59,2.59,0,0,1,.534,15.108V3.121A2.59,2.59,0,0,1,3.121.534H15.108A2.59,2.59,0,0,1,17.7,3.121Z" transform="translate(0 0)" fill="#fbaa68" stroke="#fbaa68" stroke-width="0.1"/><path d="M117.345,112.226a5.119,5.119,0,1,0,5.119,5.119A5.125,5.125,0,0,0,117.345,112.226Zm0,9.7a4.585,4.585,0,1,1,4.585-4.585A4.59,4.59,0,0,1,117.345,121.93Z" transform="translate(-108.23 -108.23)" fill="#fbaa68" stroke="#fbaa68" stroke-width="0.1"/><path d="M370.151,64.129a1.409,1.409,0,1,0,1.409,1.409A1.41,1.41,0,0,0,370.151,64.129Zm0,2.283a.875.875,0,1,1,.875-.875A.876.876,0,0,1,370.151,66.412Z" transform="translate(-355.613 -61.846)" fill="#fbaa68" stroke="#fbaa68" stroke-width="0.1"/><path d="M153.822,153.823a3.145,3.145,0,0,1,4.06-.339.267.267,0,0,0,.31-.435,3.688,3.688,0,0,0-5.143,5.143.267.267,0,0,0,.435-.31A3.145,3.145,0,0,1,153.822,153.823Z" transform="translate(-146.94 -146.941)" fill="#fbaa68" stroke="#fbaa68" stroke-width="0.1"/><path d="M197.719,192.886a.267.267,0,0,0-.063.372,3.154,3.154,0,0,1-4.4,4.4.267.267,0,0,0-.31.435,3.7,3.7,0,0,0,2.143.683q.143,0,.286-.011a3.688,3.688,0,0,0,2.714-5.815A.267.267,0,0,0,197.719,192.886Z" transform="translate(-185.97 -185.971)" fill="#fbaa68" stroke="#fbaa68" stroke-width="0.1"/></g></g></svg>