<svg xmlns="http://www.w3.org/2000/svg" width="23.02" height="21.291" viewBox="0 0 23.02 21.291"><g transform="translate(-787 -3928.115)"><g transform="translate(787 3908.891)"><g transform="translate(0 19.224)"><g transform="translate(0 0)"><path d="M50.257,138.449l-3.666-3.243c-.038-.033-.077-.064-.117-.094v-.853a.92.92,0,0,0-.919-.919H44.25a.92.92,0,0,0-.919.919v.556h-2.7v-.556a.92.92,0,0,0-.919-.919H38.41a.92.92,0,0,0-.919.919v.853q-.06.044-.117.094l-3.666,3.243a5.34,5.34,0,0,0-1.8,4v3.624a1.966,1.966,0,0,0,1.755,1.952v.649a.83.83,0,0,0,.829.829H36.5a.83.83,0,0,0,.829-.829v-.638H46.64v.638a.83.83,0,0,0,.829.829h2.005a.83.83,0,0,0,.829-.829v-.649a1.966,1.966,0,0,0,1.755-1.952v-.924a.337.337,0,1,0-.674,0v.924A1.29,1.29,0,0,1,50.1,147.36H33.87a1.29,1.29,0,0,1-1.288-1.288v-3.624a4.665,4.665,0,0,1,1.573-3.492l3.666-3.243a.893.893,0,0,1,.584-.221h7.157a.893.893,0,0,1,.584.221l3.666,3.243a4.665,4.665,0,0,1,1.573,3.492v1.124a.337.337,0,1,0,.674,0v-1.124A5.34,5.34,0,0,0,50.257,138.449Zm-2.944,9.584h2.315v.638a.155.155,0,0,1-.155.155H47.469a.155.155,0,0,1-.155-.155Zm-12.978,0h2.315v.638a.155.155,0,0,1-.155.155H34.491a.155.155,0,0,1-.155-.155Zm5.624-13.218H38.4a1.556,1.556,0,0,0-.239.019v-.575a.245.245,0,0,1,.245-.245h1.306a.245.245,0,0,1,.245.245Zm5.84.019a1.557,1.557,0,0,0-.239-.019H44.005v-.556a.245.245,0,0,1,.245-.245h1.306a.245.245,0,0,1,.245.245Z" transform="translate(-30.472 -128.21)" fill="#fbaa68"/><path d="M20.2,20.4a29.714,29.714,0,0,0-8.695-1.172A29.707,29.707,0,0,0,2.815,20.4,4.076,4.076,0,0,0,.167,25.422c0,.014-.018-.053.318.957a1.561,1.561,0,0,0,1.906,1.012l2.876-.806a1.561,1.561,0,0,0,1.1-1.861l-.279-1.2a.482.482,0,0,1,.469-.593h9.9a.482.482,0,0,1,.468.6l-.278,1.195a1.561,1.561,0,0,0,1.1,1.86l2.876.806a1.562,1.562,0,0,0,1.906-1.012c.357-1.076.314-.943.318-.957A4.074,4.074,0,0,0,20.2,20.4Zm1.69,5.769a.888.888,0,0,1-1.084.576l-2.876-.806a.888.888,0,0,1-.626-1.058l.14-.6,4.642,1.3Zm.385-1.236L17.6,23.619a1.156,1.156,0,0,0-1.138-1.358h-9.9a1.156,1.156,0,0,0-1.138,1.358l-2.263.634a.337.337,0,0,0,.091.662c.087,0-.007.01,2.324-.638l.14.6a.888.888,0,0,1-.626,1.058l-2.876.806a.888.888,0,0,1-1.084-.576l-.2-.589.876-.246a.337.337,0,1,0-.182-.649L.74,24.93a3.4,3.4,0,0,1,2.284-3.892A29.1,29.1,0,0,1,11.507,19.9h.007A29.083,29.083,0,0,1,20,21.039,3.4,3.4,0,0,1,22.28,24.93Z" transform="translate(0 -19.224)" fill="#fbaa68"/><path d="M146.628,246.354a.7.7,0,0,0-.7-.7h-1.4a.7.7,0,0,0-.7.7v.6a.7.7,0,0,0,.7.7h1.4a.7.7,0,0,0,.7-.7Zm-.674.6a.025.025,0,0,1-.025.025h-1.4a.025.025,0,0,1-.025-.025v-.6a.025.025,0,0,1,.025-.025h1.4a.025.025,0,0,1,.025.025Z" transform="translate(-137.364 -235.474)" fill="#fbaa68"/><path d="M227.7,246.354a.7.7,0,0,0-.7-.7h-1.4a.7.7,0,0,0-.7.7v.6a.7.7,0,0,0,.7.7H227a.7.7,0,0,0,.7-.7Zm-.674.6a.025.025,0,0,1-.025.025h-1.4a.025.025,0,0,1-.025-.025v-.6a.025.025,0,0,1,.025-.025H227a.025.025,0,0,1,.025.025Z" transform="translate(-214.788 -235.474)" fill="#fbaa68"/><path d="M308.765,246.354a.7.7,0,0,0-.7-.7h-1.4a.7.7,0,0,0-.7.7v.6a.7.7,0,0,0,.7.7h1.4a.7.7,0,0,0,.7-.7Zm-.674.6a.025.025,0,0,1-.025.025h-1.4a.025.025,0,0,1-.025-.025v-.6a.025.025,0,0,1,.025-.025h1.4a.025.025,0,0,1,.025.025Z" transform="translate(-292.211 -235.474)" fill="#fbaa68"/><path d="M146.628,308.975a.7.7,0,0,0-.7-.7h-1.4a.7.7,0,0,0-.7.7v.6a.7.7,0,0,0,.7.7h1.4a.7.7,0,0,0,.7-.7Zm-.674.6a.025.025,0,0,1-.025.025h-1.4a.025.025,0,0,1-.025-.025v-.6a.025.025,0,0,1,.025-.025h1.4a.025.025,0,0,1,.025.025Z" transform="translate(-137.364 -295.28)" fill="#fbaa68"/><path d="M227.7,308.975a.7.7,0,0,0-.7-.7h-1.4a.7.7,0,0,0-.7.7v.6a.7.7,0,0,0,.7.7H227a.7.7,0,0,0,.7-.7Zm-.674.6a.025.025,0,0,1-.025.025h-1.4a.025.025,0,0,1-.025-.025v-.6a.025.025,0,0,1,.025-.025H227a.025.025,0,0,1,.025.025Z" transform="translate(-214.788 -295.28)" fill="#fbaa68"/><path d="M308.765,308.975a.7.7,0,0,0-.7-.7h-1.4a.7.7,0,0,0-.7.7v.6a.7.7,0,0,0,.7.7h1.4a.7.7,0,0,0,.7-.7Zm-.674.6a.025.025,0,0,1-.025.025h-1.4a.025.025,0,0,1-.025-.025v-.6a.025.025,0,0,1,.025-.025h1.4a.025.025,0,0,1,.025.025Z" transform="translate(-292.211 -295.28)" fill="#fbaa68"/><path d="M145.929,370.9h-1.4a.7.7,0,0,0-.7.7v.6a.7.7,0,0,0,.7.7h1.4a.7.7,0,0,0,.7-.7v-.6A.7.7,0,0,0,145.929,370.9Zm.025,1.3a.025.025,0,0,1-.025.025h-1.4a.025.025,0,0,1-.025-.025v-.6a.025.025,0,0,1,.025-.025h1.4a.025.025,0,0,1,.025.025Z" transform="translate(-137.364 -355.084)" fill="#fbaa68"/><path d="M227,370.9h-1.4a.7.7,0,0,0-.7.7v.6a.7.7,0,0,0,.7.7H227a.7.7,0,0,0,.7-.7v-.6A.7.7,0,0,0,227,370.9Zm.025,1.3a.025.025,0,0,1-.025.025h-1.4a.025.025,0,0,1-.025-.025v-.6a.025.025,0,0,1,.025-.025H227a.025.025,0,0,1,.025.025Z" transform="translate(-214.787 -355.084)" fill="#fbaa68"/><path d="M308.066,370.9h-1.4a.7.7,0,0,0-.7.7v.6a.7.7,0,0,0,.7.7h1.4a.7.7,0,0,0,.7-.7v-.6A.7.7,0,0,0,308.066,370.9Zm.025,1.3a.025.025,0,0,1-.025.025h-1.4a.025.025,0,0,1-.025-.025v-.6a.025.025,0,0,1,.025-.025h1.4a.025.025,0,0,1,.025.025Z" transform="translate(-292.211 -355.084)" fill="#fbaa68"/></g></g></g></g></svg>