<svg xmlns="http://www.w3.org/2000/svg" width="21.579" height="21.579" viewBox="0 0 21.579 21.579"><g transform="translate(-971.941 -3928.114)"><g transform="translate(971.941 3928.114)"><path d="M18.419,3.16A10.789,10.789,0,0,0,3.16,18.419,10.789,10.789,0,0,0,18.419,3.16Zm-.447,14.811A10.157,10.157,0,0,1,3.607,3.607,10.157,10.157,0,0,1,17.971,17.972Z" transform="translate(0)" fill="#fbaa68"/><path d="M152.838,150.494a.316.316,0,0,0-.316.316V151.9a.984.984,0,0,0-.125.052l-3.559-3.559a.316.316,0,0,0-.447.447l3.559,3.559a.991.991,0,0,0,.572,1.381v5.033a.316.316,0,1,0,.632,0v-5.032a.982.982,0,0,0,.125-.052l.792.792a.316.316,0,1,0,.447-.447l-.792-.792a.991.991,0,0,0-.572-1.381V150.81A.316.316,0,0,0,152.838,150.494Zm0,2.7a.36.36,0,1,1,.36-.36A.36.36,0,0,1,152.838,153.2Z" transform="translate(-142.049 -142.048)" fill="#fbaa68"/><path d="M47.279,120.195a8.815,8.815,0,0,1-1.073.793l-.514-.89a.316.316,0,1,0-.547.316l.514.891a8.772,8.772,0,0,1-3.81,1.02V121.3a.316.316,0,1,0-.632,0v1.028a8.774,8.774,0,0,1-3.811-1.018l.516-.893a.316.316,0,0,0-.547-.316l-.515.892a8.842,8.842,0,0,1-2.79-2.79l.892-.515a.316.316,0,0,0-.316-.547l-.893.516a8.773,8.773,0,0,1-1.018-3.811h1.028a.316.316,0,1,0,0-.632H32.734a8.773,8.773,0,0,1,1.02-3.81l.891.514a.316.316,0,0,0,.316-.548l-.89-.514a8.817,8.817,0,0,1,.793-1.073.316.316,0,1,0-.478-.413,9.435,9.435,0,0,0,6.82,15.59c.109,0,.218.006.327.006a9.4,9.4,0,0,0,6.16-2.289.316.316,0,0,0-.413-.479Z" transform="translate(-30.743 -102.736)" fill="#fbaa68"/><path d="M122.956,41.205a9.435,9.435,0,0,0-15.59-6.82.316.316,0,0,0,.413.478,8.8,8.8,0,0,1,1.073-.793l.514.89a.316.316,0,0,0,.547-.316l-.514-.891a8.778,8.778,0,0,1,3.81-1.02v1.028a.316.316,0,1,0,.632,0V32.735a8.773,8.773,0,0,1,3.811,1.018l-.516.893a.316.316,0,1,0,.547.316l.515-.892a8.842,8.842,0,0,1,2.79,2.79l-.892.515a.316.316,0,1,0,.316.547l.893-.516a8.774,8.774,0,0,1,1.018,3.811H121.3a.316.316,0,0,0,0,.632h1.028a8.773,8.773,0,0,1-1.02,3.81l-.891-.514a.316.316,0,1,0-.316.547l.89.514a8.818,8.818,0,0,1-.793,1.073.316.316,0,1,0,.478.413A9.4,9.4,0,0,0,122.956,41.205Z" transform="translate(-102.736 -30.744)" fill="#fbaa68"/></g></g></svg>