<svg width="186" height="186" viewBox="0 0 186 186" fill="none" xmlns="http://www.w3.org/2000/svg">
<g clip-path="url(#clip0_747_20848)">
<path d="M106.086 81.5825C109.669 83.4861 109.758 88.5872 106.245 90.6156L80.7467 105.337C77.3037 107.325 73 104.84 73 100.864V75.6469C73 70.3671 78.6225 66.9879 83.2848 69.4655L106.086 81.5825Z" fill="#FAFAFA"/>
<path d="M77.9021 112.377C77.6749 111.976 77.8163 111.466 78.218 111.239L111.752 92.2712C112.154 92.044 112.663 92.1854 112.891 92.5871C115.163 96.6038 113.748 101.702 109.731 103.974L89.2887 115.537C85.272 117.809 80.174 116.394 77.9021 112.377Z" fill="#FAFAFA"/>
</g>
<path d="M181.452 95.3151L181.066 98.0157L167.358 98.775L180.259 103.658L179.685 107.676L165.97 108.636L178.887 113.253L178.501 115.953L163.618 110.359L164.196 106.319L178.346 105.444L165.034 100.457L165.608 96.4391L181.452 95.3151Z" fill="white"/>
<path d="M162.697 114.092L174.843 125.248L173.215 129.111L156.815 128.051L157.883 125.517L161.463 125.76L164.279 119.076L161.629 116.626L162.697 114.092ZM163.978 125.96L172.637 126.6L166.182 120.728L163.978 125.96Z" fill="white"/>
<path d="M169.095 137.618L162.029 147.913L160.004 146.513L162.74 142.527L151.996 135.096L153.49 132.92L164.234 140.351L167.07 136.218L169.095 137.618Z" fill="white"/>
<path d="M156.123 151.502C156.085 153.69 155.278 155.543 153.7 157.059C152.559 158.156 151.24 158.818 149.742 159.048C148.234 159.287 146.756 159.108 145.307 158.511L146.641 156.245C147.572 156.601 148.51 156.695 149.453 156.527C150.395 156.38 151.234 155.953 151.97 155.246C153.058 154.201 153.602 152.95 153.602 151.494C153.602 150.058 153.071 148.784 152.01 147.671C150.969 146.58 149.729 145.998 148.29 145.924C146.851 145.872 145.588 146.368 144.5 147.413C143.754 148.131 143.277 148.937 143.07 149.834C142.862 150.751 142.92 151.68 143.244 152.619L140.93 153.889C140.398 152.432 140.285 150.952 140.589 149.45C140.892 147.969 141.615 146.68 142.755 145.584C144.333 144.068 146.207 143.333 148.377 143.38C150.557 143.438 152.403 144.259 153.913 145.843C155.423 147.426 156.16 149.313 156.123 151.502Z" fill="white"/>
<path d="M142.284 166.159L138.872 160.551L132.159 164.666L135.572 170.274L133.322 171.654L125.252 158.391L127.502 157.011L130.926 162.638L137.638 158.523L134.214 152.896L136.445 151.528L144.515 164.791L142.284 166.159Z" fill="white"/>
<path d="M122.51 176.358L110.474 179.681L109.823 177.307L114.484 176.02L111.032 163.421L113.576 162.719L117.028 175.318L121.86 173.984L122.51 176.358Z" fill="white"/>
<path d="M103.017 180.742L102.589 174.191L94.7324 174.709L95.161 181.26L92.5275 181.433L91.5138 165.941L94.1473 165.768L94.5774 172.341L102.434 171.823L102.004 165.25L104.615 165.077L105.629 180.569L103.017 180.742Z" fill="white"/>
<path d="M88.6504 165.571L87.399 181.046L84.7463 180.83L85.9977 165.355L88.6504 165.571Z" fill="white"/>
<path d="M78.9288 179.11C77.6282 179.677 76.1974 179.792 74.6364 179.456C72.5983 179.017 70.8775 178.049 69.4739 176.552L70.0442 173.884C70.7558 174.657 71.5644 175.331 72.47 175.904C73.3581 176.488 74.2502 176.877 75.1464 177.07C75.9992 177.254 76.775 177.232 77.4738 177.004C78.1695 176.791 78.5823 176.381 78.7121 175.774C78.7801 175.456 78.732 175.15 78.5677 174.858C78.4035 174.565 78.1577 174.301 77.8303 174.064C77.5029 173.827 77.1018 173.582 76.6268 173.328C76.1487 173.089 75.6562 172.847 75.1492 172.601C75.0511 172.565 74.9747 172.534 74.92 172.507C73.209 171.669 72.0668 170.788 71.4935 169.863C70.9202 168.938 70.7432 167.962 70.9627 166.935C71.1636 165.995 71.6258 165.248 72.3492 164.693C73.0552 164.149 73.8597 163.816 74.763 163.693C75.6632 163.584 76.5903 163.633 77.5442 163.838C77.5876 163.848 77.631 163.857 77.6743 163.866C79.9086 164.378 81.6749 165.522 82.9733 167.299L82.3984 169.988C80.8572 167.932 79.0532 166.682 76.9862 166.236C76.1334 166.053 75.3767 166.056 74.7161 166.246C74.0523 166.451 73.654 166.865 73.5211 167.486C73.4005 168.05 73.6093 168.594 74.1474 169.119C74.6855 169.643 75.6948 170.261 77.1755 170.973C78.806 171.763 79.9605 172.587 80.6391 173.444C81.3033 174.298 81.5225 175.252 81.2969 176.308C81.0187 177.609 80.2293 178.543 78.9288 179.11Z" fill="white"/>
<path d="M58.2659 174.409L55.7086 173.03L58.2767 158.692L47.7245 168.725L45.2063 167.367L57.1786 156.184L60.9657 158.227L58.2659 174.409Z" fill="white"/>
<path d="M50.9423 152.158L41.6498 164.595L39.5235 162.994L48.816 150.557L50.9423 152.158Z" fill="white"/>
<path d="M46.6521 149.142L35.7038 160.211L31.7919 156.313C30.2209 154.748 29.4159 152.891 29.3767 150.744C29.3376 148.597 30.0927 146.74 31.6419 145.174C31.6523 145.163 31.6679 145.147 31.6887 145.126C33.2171 143.581 35.0457 142.815 37.1746 142.828C39.2931 142.852 41.1483 143.657 42.7403 145.243L46.6521 149.142ZM43.0515 149.029L41.0092 146.994C39.8885 145.877 38.6238 145.326 37.2151 145.342C35.7959 145.368 34.5509 145.923 33.48 147.005C32.3883 148.109 31.8502 149.368 31.8658 150.782C31.8605 152.196 32.4129 153.457 33.5231 154.563L35.5654 156.598L43.0515 149.029Z" fill="white"/>
<path d="M17.3954 138.272L19.407 136.892L24.1511 143.857L27.5525 141.523L23.3078 135.291L25.2829 133.935L29.5275 140.168L32.929 137.834L28.1849 130.868L30.1965 129.488L36.4138 138.617L23.6126 147.401L17.3954 138.272Z" fill="white"/>
<path d="M16.1246 131.51C14.1151 130.686 12.6892 129.264 11.847 127.245C11.0162 125.252 11.0205 123.246 11.86 121.225C12.6995 119.204 13.6304 117.979 14.6527 117.55C15.6558 117.112 16.1709 116.888 16.1982 116.876C18.1884 116.04 20.1786 116.03 22.1688 116.846C24.1919 117.664 25.6246 119.082 26.4668 121.102C27.309 123.122 27.3104 125.142 26.4709 127.163C25.6314 129.183 24.2098 130.615 22.2059 131.457C20.1748 132.31 18.1477 132.328 16.1246 131.51ZM21.1902 129.021C22.5806 128.436 23.5759 127.481 24.1761 126.154C24.757 124.82 24.7572 123.456 24.1767 122.064C23.602 120.686 22.64 119.743 21.2909 119.235C19.9225 118.72 18.5431 118.754 17.1526 119.338C15.7486 119.928 14.7493 120.893 14.1548 122.234C13.5603 123.574 13.5476 124.926 14.1166 126.291C14.6914 127.669 15.663 128.616 17.0314 129.132C18.3999 129.648 19.7861 129.611 21.1902 129.021Z" fill="white"/>
<path d="M4.53911 93.776L4.8319 91.0637L18.5059 89.8293L5.44368 85.3967L5.8793 81.3615L19.5526 79.9262L6.48393 75.7606L6.77673 73.0484L21.8442 78.123L21.4062 82.1803L7.29428 83.5455L20.7706 88.0678L20.335 92.103L4.53911 93.776Z" fill="white"/>
<path d="M22.5561 74.6033L10.0011 63.9109L11.4835 59.99L27.9132 60.4341L26.9406 63.0066L23.3539 62.8981L20.789 69.6819L23.5287 72.0309L22.5561 74.6033ZM20.8331 62.7922L12.1556 62.477L18.8252 68.1031L20.8331 62.7922Z" fill="white"/>
<path d="M15.4044 51.0578L22.128 40.536L24.1979 41.8687L21.5944 45.9429L32.578 53.0147L31.1568 55.2387L20.1733 48.1669L17.4743 52.3905L15.4044 51.0578Z" fill="white"/>
<path d="M27.8621 36.7577C27.8278 34.5688 28.5744 32.6907 30.1018 31.1237C31.2061 29.9908 32.5029 29.2853 33.9923 29.0072C35.4919 28.7185 36.9753 28.849 38.4423 29.3986L37.1838 31.7065C36.241 31.3816 35.3011 31.3185 34.364 31.5172C33.4267 31.6951 32.602 32.1493 31.8899 32.8798C30.8372 33.9598 30.3344 35.2276 30.3816 36.6831C30.4285 38.1178 31.0005 39.3738 32.0976 40.4513C33.1736 41.5081 34.4319 42.0496 35.8723 42.0758C37.3126 42.081 38.559 41.5437 39.6117 40.4637C40.3342 39.7225 40.7844 38.9005 40.9624 37.9977C41.1402 37.0739 41.0518 36.1478 40.6973 35.2194L42.9682 33.8747C43.5474 35.314 43.7096 36.7893 43.4547 38.3005C43.1996 39.7908 42.5199 41.1024 41.4156 42.2353C39.8882 43.8023 38.0392 44.5977 35.8688 44.6213C33.6878 44.6346 31.8166 43.8746 30.2554 42.3413C28.6941 40.8079 27.8964 38.9467 27.8621 36.7577Z" fill="white"/>
<path d="M41.2558 21.5737L44.8513 27.0664L51.4239 22.7314L47.8284 17.2387L50.0316 15.7855L58.5346 28.7751L56.3314 30.2282L52.7237 24.7169L46.1511 29.0519L49.7588 34.5632L47.5741 36.0041L39.0711 23.0146L41.2558 21.5737Z" fill="white"/>
<path d="M60.3127 10.8087L72.2284 7.0761L72.9593 9.42695L68.3454 10.8722L72.2236 23.3466L69.705 24.1355L65.8268 11.6612L61.0436 13.1595L60.3127 10.8087Z" fill="white"/>
<path d="M79.8182 5.66309L80.4727 12.1953L88.3064 11.4044L87.6518 4.87218L90.2777 4.60706L91.8257 20.0548L89.1997 20.3199L88.543 13.7657L80.7093 14.5566L81.3661 21.1108L78.7623 21.3737L77.2143 5.92598L79.8182 5.66309Z" fill="white"/>
<path d="M94.6378 20.3043L95.3538 4.79566L98.0124 4.91932L97.2964 20.4279L94.6378 20.3043Z" fill="white"/>
<path d="M104.059 6.43511C105.339 5.82376 106.765 5.65918 108.337 5.94138C110.389 6.30981 112.142 7.21794 113.596 8.66579L113.117 11.3515C112.38 10.6031 111.549 9.95811 110.624 9.41652C109.716 8.86298 108.811 8.50521 107.909 8.3432C107.05 8.18904 106.276 8.23773 105.585 8.48929C104.897 8.72629 104.498 9.15047 104.39 9.76185C104.332 10.0821 104.391 10.3855 104.565 10.6722C104.739 10.9588 104.994 11.2149 105.329 11.4403C105.665 11.6658 106.074 11.897 106.558 12.134C107.044 12.3565 107.544 12.5816 108.059 12.8093C108.158 12.8421 108.236 12.871 108.292 12.8961C110.03 13.6739 111.202 14.5152 111.807 15.42C112.411 16.3248 112.622 17.2939 112.438 18.3274C112.269 19.2736 111.833 20.0365 111.129 20.6161C110.442 21.1838 109.649 21.5447 108.75 21.6989C107.854 21.8384 106.926 21.822 105.966 21.6495C105.922 21.6417 105.878 21.6339 105.835 21.626C103.584 21.1919 101.78 20.1093 100.421 18.3781L100.904 15.6706C102.514 17.6724 104.36 18.8601 106.441 19.2337C107.3 19.3879 108.056 19.3584 108.71 19.1453C109.366 18.9176 109.75 18.4908 109.862 17.8649C109.963 17.2972 109.736 16.7607 109.18 16.2553C108.624 15.7499 107.594 15.1669 106.09 14.5062C104.433 13.7731 103.251 12.99 102.543 12.1569C101.85 11.3264 101.599 10.3799 101.788 9.31727C102.021 8.00718 102.778 7.04646 104.059 6.43511Z" fill="white"/>
<path d="M124.477 10.2197L127.083 11.503L125.047 25.9261L135.222 15.5095L137.789 16.7732L126.237 28.3908L122.377 26.4904L124.477 10.2197Z" fill="white"/>
<path d="M132.75 32.2231L141.583 19.4554L143.766 20.9773L134.933 33.745L132.75 32.2231Z" fill="white"/>
<path d="M137.103 35.0061L147.642 23.5459L151.693 27.2994C153.319 28.8068 154.191 30.6327 154.308 32.777C154.426 34.9214 153.738 36.8044 152.247 38.426C152.237 38.4369 152.222 38.4532 152.202 38.475C150.731 40.0749 148.931 40.9069 146.803 40.971C144.685 41.0242 142.802 40.2871 141.153 38.7596L137.103 35.0061ZM140.705 34.9879L142.82 36.9475C143.98 38.0228 145.264 38.5271 146.671 38.4603C148.089 38.3827 149.313 37.7833 150.344 36.6624C151.395 35.5196 151.887 34.2419 151.82 32.8294C151.774 31.416 151.176 30.1767 150.026 29.1115L147.911 27.1518L140.705 34.9879Z" fill="white"/>
<path d="M166.809 44.8232L164.85 46.2762L159.854 39.4881L156.541 41.9451L161.01 48.0186L159.086 49.4453L154.616 43.3717L151.303 45.8286L156.298 52.6167L154.338 54.0698L147.792 45.1738L160.263 35.9272L166.809 44.8232Z" fill="white"/>
<path d="M168.502 51.783C170.538 52.5387 172.011 53.9117 172.92 55.9021C173.817 57.8657 173.88 59.8713 173.109 61.9192C172.337 63.967 171.448 65.2228 170.441 65.6865C169.453 66.1574 168.946 66.3991 168.919 66.4115C166.958 67.3141 164.969 67.3912 162.953 66.6428C160.904 65.8933 159.424 64.5234 158.515 62.5329C157.606 60.5425 157.537 58.5234 158.308 56.4756C159.079 54.4277 160.452 52.9494 162.426 52.0405C164.428 51.1193 166.453 51.0335 168.502 51.783ZM163.523 54.4411C162.153 55.0718 161.19 56.0602 160.635 57.4064C160.099 58.7599 160.145 60.1225 160.771 61.4943C161.392 62.8526 162.385 63.7628 163.75 64.2249C165.135 64.6943 166.512 64.6137 167.882 63.983C169.266 63.3462 170.232 62.348 170.781 60.9883C171.331 59.6287 171.298 58.2764 170.684 56.9315C170.063 55.5732 169.06 54.6594 167.676 54.19C166.291 53.7206 164.907 53.8043 163.523 54.4411Z" fill="white"/>
<path d="M15.6004 99.2116L17.273 103.749L21.7931 105.428L17.273 107.107L15.6004 111.644L13.9278 107.107L9.40771 105.428L13.9278 103.749L15.6004 99.2116Z" fill="white"/>
<path d="M170.417 76.6786L172.09 81.2157L176.61 82.8946L172.09 84.5735L170.417 89.1107L168.745 84.5735L164.225 82.8946L168.745 81.2157L170.417 76.6786Z" fill="white"/>
<defs>
<clipPath id="clip0_747_20848">
<rect width="50" height="50" fill="white" transform="translate(68 68)"/>
</clipPath>
</defs>
</svg>
