<svg width="162" height="44" viewBox="0 0 162 44" fill="none" xmlns="http://www.w3.org/2000/svg">
<path fill-rule="evenodd" clip-rule="evenodd" d="M34.7177 9.66927C34.7179 9.66275 34.7181 9.65622 34.7182 9.6497C34.7518 8.04995 34.7033 6.58401 34.563 5.40957C34.1348 6.13203 33.7023 7.15061 33.1679 8.47033C33.2031 8.49628 33.2382 8.52234 33.2733 8.54852C33.772 8.89869 34.254 9.27266 34.7177 9.66927ZM31.2453 25.0412C31.2785 25.0343 31.3133 25.0206 31.3498 25.0005C34.6602 23.6137 35.9284 13.6442 36.1709 10.8601C36.8309 1.87084 34.3105 -4.85669 29.7138 6.42341C29.27 6.21718 28.818 6.02683 28.3587 5.85291C25.631 4.82004 22.7098 4.39117 19.7987 4.59613C16.8875 4.8011 14.0561 5.63498 11.5017 7.03973C11.0596 7.28282 10.6277 7.54199 10.2067 7.81655C8.21642 -0.225366 5.1392 5.91087 4.99007 13.0208L4.98771 13.143C4.93719 15.7498 4.77979 23.871 7.81062 24.9888C7.8589 25.0193 7.90821 25.0468 7.95854 25.0713C7.915 25.0496 7.87249 25.0245 7.831 24.9962C7.9159 25.0265 8.00329 25.0513 8.09323 25.0704C8.06126 25.1443 8.02856 25.2202 7.99513 25.2979C7.23239 27.0701 6.08872 29.7273 4.52734 28.3603C6.04992 31.2517 7.9174 27.5652 10.2284 23.0032C11.8524 19.7973 13.6954 16.1591 15.7917 14.0674C16.7886 13.2048 17.8394 12.6803 18.9463 12.6803C21.6516 12.6803 24.5014 17.1065 27.2762 21.4164L27.2763 21.4165L27.2764 21.4166L27.2766 21.4169C27.9685 22.4917 28.6558 23.5592 29.3351 24.549L29.3285 24.5388C32.1322 28.7478 34.9125 31.5605 37.594 27.7792C34.663 30.5513 32.2195 26.8965 31.1246 25.0947C31.1376 25.0862 31.1506 25.0776 31.1636 25.0687C31.1909 25.0601 31.2182 25.051 31.2453 25.0412ZM8.14549 24.9502L8.09361 25.0695C7.92063 24.993 7.75857 24.8869 7.60699 24.7539C7.77552 24.8428 7.95479 24.9091 8.14549 24.9502ZM7.5587 9.8784C7.03797 10.359 6.54267 10.8672 6.07507 11.401C6.2688 9.94136 6.52773 8.612 6.8265 7.56646C7.16647 8.30349 7.4125 9.08017 7.5587 9.8784ZM30.9129 24.7434L30.9242 24.7395C30.9291 24.7563 30.9342 24.7723 30.9395 24.7876L30.9129 24.7434ZM135.204 28.4939V14.2257H137.327V28.4939H135.204ZM90.1356 16.8644C89.8735 17.125 89.5589 17.2553 89.192 17.2553C88.825 17.2553 88.5039 17.125 88.2287 16.8644C87.9666 16.5907 87.8355 16.2715 87.8355 15.9066C87.8355 15.5418 87.9666 15.2291 88.2287 14.9685C88.4908 14.6948 88.8119 14.558 89.192 14.558C89.5721 14.558 89.8931 14.6948 90.1553 14.9685C90.4174 15.2291 90.5484 15.5418 90.5484 15.9066C90.5484 16.2715 90.4108 16.5907 90.1356 16.8644ZM88.1304 28.4939V18.7212H90.2536V28.4939H88.1304ZM66.6657 25.738L67.629 28.4939H70.0667L65.093 14.8121H62.3801L57.3867 28.4939H59.8441L60.8074 25.738H66.6657ZM63.7365 17.4507L65.9187 23.6271H61.5544L63.7365 17.4507ZM84.8359 19.5421C84.1544 18.8254 83.2566 18.4671 82.1426 18.4671C80.7927 18.4671 79.7901 18.9818 79.1348 20.0112C78.5319 18.9818 77.6014 18.4671 76.3432 18.4671C75.0982 18.4671 74.1611 18.9427 73.532 19.8939V18.7212H71.4089V28.4939H73.532V23.0212C73.532 22.1742 73.7352 21.5357 74.1414 21.1057C74.5477 20.6627 75.072 20.4412 75.7141 20.4412C76.3039 20.4412 76.7561 20.6301 77.0706 21.008C77.3983 21.3729 77.5621 21.8941 77.5621 22.5717V28.4939H79.6852V23.0212C79.6852 22.1612 79.8753 21.5162 80.2553 21.0862C80.6485 20.6562 81.1728 20.4412 81.828 20.4412C82.4178 20.4412 82.8831 20.6301 83.2238 21.008C83.5646 21.3729 83.735 21.8941 83.735 22.5717V28.4939H85.8581V22.4348C85.8581 21.223 85.5174 20.2588 84.8359 19.5421ZM97.8694 18.5453C96.3884 18.5453 95.3792 19.1512 94.8419 20.363V18.7212H92.7187V28.4939H94.8419V23.5685C94.8419 22.5651 95.1433 21.8485 95.7462 21.4185C96.3491 20.9754 97.0568 20.78 97.8694 20.8321V18.5453ZM107.4 28.4939L103.507 14.8121H105.886L108.776 25.5035L111.902 14.8121H113.986L117.092 25.5035L119.982 14.8121H122.36L118.468 28.4939H115.853L112.944 18.5062L110.015 28.4939H107.4ZM132.729 18.7212H130.606V20.1089C129.807 19.0144 128.66 18.4671 127.166 18.4671C125.816 18.4671 124.663 18.9623 123.706 19.9526C122.749 20.9429 122.271 22.1612 122.271 23.6076C122.271 25.0409 122.749 26.2592 123.706 27.2626C124.663 28.2529 125.816 28.748 127.166 28.748C128.66 28.748 129.807 28.1942 130.606 27.0867V28.4939H132.729V18.7212ZM127.5 26.7348C126.609 26.7348 125.868 26.4417 125.279 25.8553C124.689 25.2559 124.394 24.5067 124.394 23.6076C124.394 22.7085 124.689 21.9657 125.279 21.3794C125.868 20.78 126.609 20.4803 127.5 20.4803C128.391 20.4803 129.132 20.78 129.722 21.3794C130.311 21.9657 130.606 22.7085 130.606 23.6076C130.606 24.5067 130.311 25.2559 129.722 25.8553C129.132 26.4417 128.391 26.7348 127.5 26.7348ZM139.792 14.2257V28.4939H141.916V14.2257H139.792ZM146.052 24.5067C146.209 25.2494 146.57 25.8227 147.133 26.2267C147.697 26.6176 148.385 26.813 149.197 26.813C150.324 26.813 151.17 26.4091 151.733 25.6012L153.483 26.6176C152.513 28.0379 151.078 28.748 149.178 28.748C147.579 28.748 146.288 28.2659 145.305 27.3017C144.322 26.3244 143.83 25.093 143.83 23.6076C143.83 22.1482 144.315 20.9298 145.285 19.9526C146.255 18.9623 147.5 18.4671 149.02 18.4671C150.462 18.4671 151.642 18.9688 152.559 19.9721C153.489 20.9754 153.955 22.1938 153.955 23.6271C153.955 23.8486 153.928 24.1418 153.876 24.5067H146.052ZM146.032 22.7866H151.812C151.668 21.9918 151.334 21.3924 150.809 20.9885C150.298 20.5845 149.695 20.3826 149.001 20.3826C148.214 20.3826 147.559 20.5976 147.035 21.0276C146.511 21.4576 146.176 22.0439 146.032 22.7866ZM158.563 20.7539H161.001V18.7212H158.563V15.9848L156.44 16.6103V18.7212H154.631V20.7539H156.44V25.4448C156.44 26.7218 156.794 27.6014 157.501 28.0835C158.209 28.5526 159.375 28.6894 161.001 28.4939V26.598C160.463 26.6241 160.011 26.6306 159.644 26.6176C159.29 26.5915 159.022 26.4938 158.838 26.3244C158.655 26.142 158.563 25.8488 158.563 25.4448V20.7539ZM21.2939 43.5001C32.4869 43.5001 41.5609 34.9096 41.5609 24.2958C41.5668 22.0085 41.1371 19.7408 40.2946 17.6128C40.273 18.9847 40.1924 20.3439 40.0549 21.6685C40.0288 21.4904 39.9998 21.312 39.9679 21.1334C39.1977 29.5563 36.1169 36.6458 31.3667 36.899C28.0078 37.0774 24.3794 31.6494 21.1808 26.8643C17.95 22.031 15.1576 17.8536 13.5242 20.772C13.4399 20.9106 13.3586 21.0671 13.2803 21.2422C14.6765 18.789 18.0977 24.0664 19.4914 26.9947C17.5163 26.571 15.9689 28.8266 14.3722 31.1543C12.8189 33.4186 11.2189 35.7509 9.13304 35.7509C5.74417 35.7509 3.25445 30.0769 2.35529 23.1424C2.33712 23.4468 2.32699 23.7497 2.32471 24.0511C2.07235 22.3451 1.91903 20.5511 1.87595 18.7376C1.29042 20.5406 0.994817 22.4243 1.00007 24.319C1.02515 34.9043 10.0741 43.5001 21.2939 43.5001Z" fill="black"/>
</svg>
