<svg width="74" height="74" viewBox="0 0 74 74" fill="none" xmlns="http://www.w3.org/2000/svg">
<path d="M33.6297 3.07554C35.5388 1.33336 38.4612 1.33336 40.3703 3.07554L44.5987 6.93411C45.6626 7.90494 47.0935 8.36985 48.5248 8.20976L54.2136 7.57351C56.7822 7.28623 59.1464 9.00393 59.6669 11.5356L60.8198 17.1426C61.1098 18.5534 61.9942 19.7705 63.2462 20.4823L68.2226 23.3114C70.4695 24.5888 71.3725 27.368 70.3056 29.7221L67.9425 34.9359C67.3479 36.2478 67.3479 37.7522 67.9425 39.0641L70.3056 44.2779C71.3725 46.632 70.4695 49.4112 68.2226 50.6886L63.2462 53.5177C61.9942 54.2295 61.1098 55.4467 60.8198 56.8574L59.6669 62.4644C59.1464 64.9961 56.7822 66.7138 54.2136 66.4265L48.5248 65.7902C47.0935 65.6301 45.6626 66.0951 44.5987 67.0659L40.3703 70.9245C38.4612 72.6666 35.5388 72.6666 33.6297 70.9245L29.4013 67.0659C28.3374 66.0951 26.9065 65.6301 25.4752 65.7902L19.7864 66.4265C17.2178 66.7138 14.8536 64.9961 14.3331 62.4644L13.1802 56.8574C12.8902 55.4466 12.0058 54.2295 10.7538 53.5177L5.77741 50.6886C3.53053 49.4112 2.62748 46.632 3.69444 44.2779L6.0575 39.0641C6.65206 37.7522 6.65206 36.2478 6.0575 34.9359L3.69444 29.7221C2.62749 27.368 3.53053 24.5888 5.77741 23.3114L10.7538 20.4823C12.0058 19.7705 12.8902 18.5534 13.1802 17.1426L14.3331 11.5356C14.8536 9.00393 17.2178 7.28623 19.7864 7.57351L25.4752 8.20976C26.9065 8.36985 28.3374 7.90494 29.4013 6.93411L33.6297 3.07554Z" fill="#9BD198"/>
<path d="M32.7479 23.6967L32.2377 26.6501C32.1371 27.233 32.3731 27.8093 32.8551 28.1581C33.3371 28.5052 33.9637 28.5505 34.4914 28.2754L37.1639 26.8816L39.8363 28.2754C40.0661 28.3957 40.3135 28.4537 40.5609 28.4537C40.8821 28.4537 41.2002 28.3539 41.4727 28.1586C41.9547 27.8115 42.1906 27.2334 42.09 26.6505L41.5799 23.6972L43.7422 21.6067C44.1689 21.1943 44.3187 20.5896 44.1359 20.0272C43.9518 19.4648 43.4715 19.0633 42.8822 18.9787L39.8926 18.5467L38.5554 15.8593C38.2923 15.3296 37.7584 15 37.1634 15C36.568 15 36.0342 15.3296 35.7714 15.8593L34.4343 18.5467L31.4455 18.9778C30.8567 19.0624 30.376 19.4653 30.1919 20.0264C30.0078 20.5888 30.1589 21.1935 30.5856 21.6059L32.7479 23.6967ZM31.4503 20.4308C31.4662 20.3807 31.5132 20.2935 31.6362 20.2747L34.9686 19.7934C35.1844 19.762 35.3702 19.6277 35.4665 19.4342L36.956 16.4372C37.0109 16.3265 37.1089 16.309 37.1625 16.309C37.2161 16.309 37.3137 16.326 37.369 16.4372L38.8586 19.4342C38.9548 19.6277 39.1407 19.7625 39.3564 19.7934L42.6888 20.2747C42.8119 20.2917 42.8589 20.3794 42.8747 20.4308C42.8918 20.4809 42.9063 20.579 42.8162 20.6654L40.4052 22.9982C40.2492 23.1482 40.1785 23.3671 40.2145 23.5794L40.7831 26.8732C40.8038 26.9953 40.7343 27.0655 40.6917 27.0969C40.6491 27.1283 40.5594 27.1719 40.4492 27.1139L37.4678 25.5592C37.3716 25.509 37.2661 25.4842 37.1607 25.4842C37.0552 25.4842 36.9498 25.509 36.8535 25.5592L33.8722 27.1139C33.7619 27.1719 33.6723 27.1278 33.6297 27.0969C33.587 27.0655 33.5163 26.9953 33.5383 26.8732L34.1068 23.5794C34.1429 23.3671 34.0721 23.1495 33.9161 22.9982L31.5051 20.6654C31.4185 20.5795 31.4344 20.481 31.4502 20.4308H31.4503Z" fill="white"/>
<path d="M24.4804 35.5088L23.9702 38.4621C23.8696 39.045 24.1056 39.6214 24.5876 39.9702C24.86 40.1673 25.1781 40.2654 25.4994 40.2654C25.7467 40.2654 25.9937 40.2061 26.2239 40.087L28.8964 38.6933L31.5688 40.087C31.7986 40.2074 32.046 40.2654 32.2934 40.2654C32.6146 40.2654 32.9327 40.1655 33.2052 39.9702C33.6872 39.6232 33.9231 39.0451 33.8225 38.4621L33.3124 35.5088L35.4747 33.4184C35.9014 33.0059 36.0512 32.4012 35.8684 31.8389C35.6843 31.2764 35.204 30.8749 34.6147 30.7903L31.626 30.3592L30.2888 27.6718C30.0256 27.1421 29.4918 26.8125 28.8968 26.8125C28.3014 26.8125 27.7676 27.1421 27.5048 27.6718L26.1677 30.3592L23.1789 30.7903C22.5901 30.8749 22.1094 31.2778 21.9253 31.8389C21.7411 32.4013 21.8923 33.006 22.319 33.4184L24.4804 35.5088ZM23.1829 32.2429C23.1987 32.1927 23.2457 32.1055 23.3687 32.0868L26.7011 31.6055C26.9169 31.5741 27.1027 31.4398 27.199 31.2462L28.6885 28.2493C28.7434 28.1386 28.8414 28.1211 28.895 28.1211C28.9486 28.1211 29.0462 28.1381 29.1015 28.2493L30.5911 31.2462C30.6873 31.4398 30.8732 31.5745 31.0889 31.6055L34.4213 32.0868C34.5444 32.1038 34.5914 32.1914 34.6072 32.2429C34.623 32.293 34.6388 32.3911 34.5488 32.4774L32.1377 34.8103C31.9817 34.9603 31.911 35.1792 31.947 35.3915L32.5156 38.6853C32.5363 38.8074 32.4668 38.8776 32.4242 38.909C32.3816 38.9403 32.292 38.9839 32.1817 38.926L29.2003 37.3712C29.1041 37.3211 28.9986 37.2962 28.8932 37.2962C28.7877 37.2962 28.6823 37.3211 28.586 37.3712L25.6047 38.926C25.4944 38.9839 25.4048 38.9399 25.3622 38.909C25.3195 38.8776 25.2488 38.8074 25.2708 38.6853L25.8394 35.3915C25.8754 35.1792 25.8046 34.9616 25.6487 34.8103L23.2376 32.4774C23.1511 32.3916 23.1669 32.293 23.1827 32.2429H23.1829Z" fill="white"/>
<path d="M42.7028 30.3572L39.7141 30.7884C39.1253 30.873 38.6446 31.2758 38.4604 31.8369C38.2763 32.3993 38.4275 33.004 38.8541 33.4164L41.0164 35.5069L40.5063 38.4602C40.4057 39.0431 40.6416 39.6195 41.1237 39.9682C41.3961 40.1653 41.7142 40.2634 42.0354 40.2634C42.2828 40.2634 42.5297 40.2041 42.76 40.0851L45.4324 38.6913L48.1049 40.0851C48.3347 40.2054 48.5821 40.2634 48.8295 40.2634C49.1507 40.2634 49.4688 40.1636 49.7412 39.9682C50.2232 39.6212 50.4592 39.0431 50.3586 38.4602L49.8484 35.5069L52.0107 33.4164C52.4374 33.004 52.5872 32.3993 52.4044 31.8369C52.2217 31.2745 51.7401 30.873 51.1508 30.7884L48.162 30.3572L46.8249 27.6699C46.5617 27.1401 46.0278 26.8105 45.4329 26.8105C44.8375 26.8105 44.3036 27.1401 44.0409 27.6699L42.7028 30.3572ZM45.2259 28.2528C45.2808 28.1421 45.3788 28.1246 45.4324 28.1246C45.486 28.1246 45.5836 28.1416 45.6389 28.2528L47.1285 31.2497C47.2247 31.4433 47.4106 31.578 47.6263 31.609L50.9587 32.0903C51.0818 32.1073 51.1288 32.1949 51.1446 32.2464C51.1617 32.2965 51.1762 32.3946 51.0861 32.4809L48.6751 34.8138C48.5191 34.9638 48.4484 35.1827 48.4844 35.395L49.053 38.6888C49.0737 38.8109 49.0042 38.8811 48.9616 38.9125C48.919 38.9438 48.8293 38.9874 48.7191 38.9295L45.7377 37.3747C45.5457 37.2749 45.3141 37.2749 45.1221 37.3747L42.1408 38.9295C42.0305 38.9874 41.9409 38.9434 41.8982 38.9125C41.8556 38.8811 41.7849 38.8109 41.8068 38.6888L42.3754 35.395C42.4115 35.1827 42.3407 34.9651 42.1847 34.8138L39.7737 32.4809C39.6841 32.3951 39.6981 32.2965 39.7153 32.2464C39.7311 32.1962 39.7781 32.1091 39.9011 32.0903L43.2335 31.609C43.4493 31.5776 43.6351 31.4433 43.7314 31.2497L45.2259 28.2528Z" fill="white"/>
<path d="M57.8057 34.7146C57.5474 34.4582 57.1286 34.4582 56.8702 34.7146L48.6306 42.8896H25.3684L17.1293 34.7146C16.8709 34.4582 16.4521 34.4582 16.1938 34.7146C15.9354 34.971 15.9354 35.3864 16.1938 35.6428L24.433 43.8178V56.3438C24.433 56.7061 24.7291 56.9999 25.0943 56.9999H48.9054C49.2705 56.9999 49.5667 56.7061 49.5667 56.3438V43.8189L57.8058 35.6439C58.0646 35.3871 58.0646 34.9716 57.8063 34.7153L57.8057 34.7146ZM25.755 44.2023H36.3375V55.687H25.755V44.2023ZM48.2433 55.687H37.6608V44.2023H48.2433V55.687Z" fill="white"/>
</svg>
