<svg width="213" height="213" viewBox="0 0 213 213" fill="none" xmlns="http://www.w3.org/2000/svg">
<path d="M106.222 135.107V80.835H93.5918L77.8599 107.509L89.967 158.244L106.222 135.107Z" fill="#FAFAFA"/>
<path d="M121.175 75.4502L108.973 54.7567L96.7715 75.4502H121.175Z" fill="#FAFAFA"/>
<path d="M111.725 135.107L127.979 158.244L140.087 107.509L124.355 80.835H111.725V135.107Z" fill="#FAFAFA"/>
<path fill-rule="evenodd" clip-rule="evenodd" d="M213 106.5C213 165.318 165.318 213 106.5 213C47.6817 213 0 165.318 0 106.5C0 47.6817 47.6817 0 106.5 0C165.318 0 213 47.6817 213 106.5ZM106.5 176.83C145.342 176.83 176.83 145.342 176.83 106.5C176.83 67.6577 145.342 36.1698 106.5 36.1698C67.6577 36.1698 36.1698 67.6577 36.1698 106.5C36.1698 145.342 67.6577 176.83 106.5 176.83Z" fill="#FAFAFA"/>
<path d="M23.2747 106.192L12.8604 101.706L13.0495 98.8314L23.9581 95.8047L23.834 97.6905L21.4503 98.3437L21.1231 103.317L23.3988 104.306L23.2747 106.192ZM19.769 98.7833L13.9913 100.329L19.5129 102.677L19.769 98.7833Z" fill="#464FFF"/>
<path d="M14.2064 89.6952L24.1335 88.7666L15.4652 83.8388L16.0994 80.8883L26.548 83.1267L26.1797 84.8404L17.179 82.9122L25.5711 87.6717L24.9946 90.354L15.4514 91.2401L24.3924 93.1555L24.024 94.8692L13.5754 92.6308L14.2064 89.6952Z" fill="#464FFF"/>
<path d="M27.2412 81.5755L17.0892 78.244L17.6612 76.5066L27.8133 79.8381L27.2412 81.5755Z" fill="#464FFF"/>
<path d="M28.3523 78.0114L18.51 73.8555L20.3595 69.49C20.76 68.5449 21.4164 67.8954 22.3288 67.5415C23.2318 67.1837 24.1286 67.1928 25.0191 67.5688C25.7034 67.8577 26.2294 68.3115 26.5972 68.9302C26.965 69.5488 27.1098 70.2112 27.0316 70.9173L31.6529 70.221L30.856 72.1019L26.4872 72.7891L25.5952 74.8946L29.054 76.3551L28.3523 78.0114ZM25.2509 71.6382C25.4611 71.1422 25.4781 70.6585 25.3022 70.1871C25.1168 69.7117 24.7757 69.3691 24.2789 69.1593C23.8009 68.9574 23.3324 68.9416 22.8735 69.1119C22.4146 69.2822 22.0781 69.62 21.864 70.1253L20.7162 72.8344L24.1329 74.2771L25.2509 71.6382Z" fill="#464FFF"/>
<path d="M24.9791 59.6872L26.0388 58.1396L34.7399 61.8255L28.253 54.9061L29.8296 52.6036L38.5957 56.1677L32.018 49.4079L33.0777 47.8603L40.573 55.8187L38.9877 58.1337L29.9782 54.3851L36.6874 61.4931L35.1107 63.7955L24.9791 59.6872Z" fill="#464FFF"/>
<path d="M42.5398 53.3417L37.3756 43.26L39.3557 41.1648L49.6954 45.7703L48.3963 47.1449L46.1421 46.1321L42.7162 49.7571L43.8389 51.9671L42.5398 53.3417ZM44.5657 45.4016L39.126 42.9181L41.8836 48.2395L44.5657 45.4016Z" fill="#464FFF"/>
<path d="M50.597 45.0827L43.7277 36.9103L45.1076 35.7543L50.8975 42.6425L55.0139 39.194L56.0934 40.4782L50.597 45.0827Z" fill="#464FFF"/>
<path d="M57.1574 39.7119L51.1588 30.8826L52.6497 29.8731L57.7056 37.3149L62.1529 34.3036L63.0955 35.691L57.1574 39.7119Z" fill="#464FFF"/>
<path d="M65.8798 22.055L66.6691 23.5347L61.5487 26.2569L62.8833 28.759L67.4648 26.3234L68.2397 27.7762L63.6583 30.2118L64.9929 32.714L70.1134 29.9918L70.9027 31.4716L64.1922 35.039L59.1693 25.6224L65.8798 22.055Z" fill="#464FFF"/>
<path d="M68.2622 20.9359L76.2631 17.8013L76.8822 19.3761L73.7841 20.5899L77.0689 28.9463L75.3778 29.6088L72.093 21.2524L68.8812 22.5107L68.2622 20.9359Z" fill="#464FFF"/>
<path d="M82.4906 15.9331L90.8942 14.1328L91.2498 15.7869L87.9958 16.484L89.8824 25.261L88.1061 25.6415L86.2195 16.8645L82.8461 17.5872L82.4906 15.9331Z" fill="#464FFF"/>
<path d="M94.6516 15.0941C95.6166 13.9516 96.8495 13.3167 98.3504 13.1893C99.8309 13.0635 101.144 13.4874 102.289 14.4609C103.434 15.4343 104.039 16.3007 104.104 17.06C104.178 17.8083 104.216 18.1926 104.217 18.2129C104.343 19.691 103.929 20.9957 102.973 22.1272C102.009 23.2798 100.776 23.9198 99.2754 24.0472C97.7746 24.1747 96.4515 23.7516 95.3063 22.7782C94.1611 21.8047 93.525 20.5739 93.3983 19.0857C93.2697 17.5772 93.6875 16.2467 94.6516 15.0941ZM95.2084 18.932C95.2964 19.9646 95.7112 20.8165 96.4527 21.4878C97.2035 22.148 98.0961 22.4342 99.1305 22.3464C100.155 22.2594 100.976 21.8277 101.594 21.0512C102.222 20.2637 102.491 19.3537 102.403 18.321C102.315 17.2782 101.894 16.4217 101.143 15.7513C100.391 15.0809 99.5081 14.7888 98.494 14.8749C97.4697 14.9619 96.6439 15.3991 96.0164 16.1866C95.3889 16.9741 95.1196 17.8892 95.2084 18.932Z" fill="#464FFF"/>
<path d="M106.112 23.5175L106.606 12.8604L108.421 12.9444L108.164 18.4861L113.347 13.1723L115.589 13.276L110.954 17.9743L115.231 23.9394L112.989 23.8357L109.702 19.2591L108.051 20.922L107.926 23.6015L106.112 23.5175Z" fill="#464FFF"/>
<path d="M125.605 14.8437L125.328 16.4972L119.607 15.543L119.139 18.3391L124.258 19.1928L123.987 20.8163L118.867 19.9626L118.399 22.7586L124.121 23.7128L123.844 25.3664L116.346 24.1159L118.106 13.5931L125.605 14.8437Z" fill="#464FFF"/>
<path d="M131.578 16.3542L133.11 26.4528L135.736 17.581L137.434 18.0821L134.405 28.3132L131.507 27.4579L129.958 17.1477L127.276 26.2095L125.577 25.7084L128.606 15.4773L131.578 16.3542Z" fill="#464FFF"/>
<path d="M146.328 33.6342L155.246 26.6377L157.686 28.1751L155.146 39.1899L153.545 38.1813L154.107 35.7782L149.886 33.1183L147.929 34.6429L146.328 33.6342ZM154.523 34.0934L155.919 28.2869L151.218 32.0111L154.523 34.0934Z" fill="#464FFF"/>
<path d="M165.22 33.6149L161.299 42.7664L169.774 37.5149L172.068 39.4798L165.11 47.5769L163.777 46.4357L169.772 39.4606L161.576 44.5502L159.49 42.7639L163.266 33.9695L157.312 40.8983L155.98 39.757L162.938 31.6599L165.22 33.6149Z" fill="#464FFF"/>
<path d="M166.105 48.9004L173.878 41.579L175.135 42.9093L167.362 50.2307L166.105 48.9004Z" fill="#464FFF"/>
<path d="M168.763 51.6294L177.121 44.9821L180.079 48.6895C180.72 49.4922 180.978 50.3781 180.853 51.3474C180.737 52.3104 180.301 53.0926 179.544 53.694C178.963 54.1561 178.313 54.4007 177.593 54.4278C176.873 54.4549 176.22 54.2655 175.636 53.8596L174.042 58.2454L172.767 56.6481L174.249 52.4881L172.822 50.7L169.885 53.0361L168.763 51.6294ZM175.853 51.9535C176.189 52.3747 176.606 52.6208 177.105 52.6916C177.612 52.7561 178.076 52.6206 178.498 52.2851C178.904 51.9622 179.142 51.5589 179.211 51.0751C179.281 50.5912 179.144 50.1347 178.802 49.7056L176.966 47.4049L174.064 49.7124L175.853 51.9535Z" fill="#464FFF"/>
<path d="M186.471 57.3446L187.329 59.0121L179.937 64.893L189.122 62.4963L190.398 64.9772L183.083 70.9731L192.17 68.4206L193.028 70.0881L182.448 72.8749L181.164 70.3804L188.759 64.2588L179.302 66.7607L178.026 64.2798L186.471 57.3446Z" fill="#464FFF"/>
<path d="M183.65 75.6526L194.99 75.9263L195.891 78.6627L186.907 85.5415L186.315 83.7462L188.282 82.2506L186.723 77.5161L184.242 77.448L183.65 75.6526ZM189.676 81.2154L194.456 77.6254L188.456 77.5089L189.676 81.2154Z" fill="#464FFF"/>
<path d="M187.127 86.7944L197.609 84.7155L197.96 86.4794L189.125 88.2316L190.172 93.4935L188.525 93.8202L187.127 86.7944Z" fill="#464FFF"/>
<path d="M188.679 94.9217L199.315 93.8948L199.489 95.6849L190.523 96.5504L191.041 101.89L189.369 102.052L188.679 94.9217Z" fill="#464FFF"/>
<path d="M200.022 111.559L198.343 111.534L198.433 105.743L195.593 105.699L195.513 110.88L193.865 110.855L193.945 105.674L191.106 105.63L191.016 111.421L189.337 111.395L189.454 103.806L200.14 103.97L200.022 111.559Z" fill="#464FFF"/>
<path d="M199.879 114.135L198.789 122.646L197.109 122.431L197.531 119.136L188.611 117.997L188.842 116.198L197.761 117.337L198.199 113.92L199.879 114.135Z" fill="#464FFF"/>
<path d="M197.501 128.819L195.065 137.048L193.44 136.568L194.383 133.382L185.76 130.838L186.275 129.098L194.898 131.643L195.876 128.34L197.501 128.819Z" fill="#464FFF"/>
<path d="M192.401 139.962C192.943 141.355 192.91 142.74 192.302 144.116C191.703 145.473 190.701 146.42 189.296 146.957C187.892 147.494 186.84 147.609 186.142 147.301C185.448 147.007 185.092 146.856 185.074 146.848C183.714 146.25 182.766 145.261 182.229 143.881C181.678 142.484 181.706 141.097 182.314 139.721C182.921 138.345 183.927 137.389 185.332 136.852C186.737 136.315 188.124 136.348 189.493 136.951C190.88 137.561 191.85 138.565 192.401 139.962ZM188.76 138.61C187.81 138.192 186.862 138.147 185.917 138.475C184.977 138.817 184.297 139.461 183.878 140.41C183.464 141.349 183.45 142.275 183.836 143.189C184.228 144.116 184.898 144.789 185.848 145.207C186.808 145.629 187.762 145.671 188.712 145.334C189.661 144.997 190.341 144.363 190.752 143.434C191.166 142.494 191.178 141.561 190.786 140.634C190.395 139.707 189.719 139.032 188.76 138.61Z" fill="#464FFF"/>
<path d="M179.819 145.419L188.96 150.946L188.019 152.498L183.266 149.624L185.464 156.708L184.301 158.625L182.382 152.315L175.09 153.215L176.252 151.298L181.85 150.603L181.176 148.36L178.878 146.97L179.819 145.419Z" fill="#464FFF"/>
<path d="M178.247 166.59L176.922 165.559L180.487 160.99L178.246 159.248L175.057 163.336L173.756 162.325L176.946 158.237L174.706 156.495L171.141 161.064L169.816 160.034L174.488 154.046L182.918 160.602L178.247 166.59Z" fill="#464FFF"/>
<path d="M174.121 171.114L164.49 167.668L171.067 174.186L169.819 175.441L162.235 167.924L164.365 165.783L174.19 169.314L167.473 162.657L168.721 161.402L176.305 168.919L174.121 171.114Z" fill="#464FFF"/>
<path d="M151.645 176.142L153.561 187.303L151.045 188.713L142.553 181.237L144.204 180.312L146.052 181.95L150.406 179.511L149.995 177.067L151.645 176.142ZM147.339 183.117L151.788 187.108L150.747 181.207L147.339 183.117Z" fill="#464FFF"/>
<path d="M142.543 192.824L136.371 185.007L136.934 194.949L134.108 196.02L130.316 186.045L131.957 185.423L135.224 194.016L134.669 184.396L137.238 183.423L143.166 190.941L139.922 182.406L141.563 181.784L145.355 191.759L142.543 192.824Z" fill="#464FFF"/>
<path d="M128.656 186.31L131.373 196.628L129.601 197.093L126.884 186.775L128.656 186.31Z" fill="#464FFF"/>
<path d="M124.965 187.342L126.806 197.851L122.13 198.668C121.117 198.845 120.214 198.647 119.422 198.073C118.631 197.51 118.152 196.753 117.985 195.802C117.857 195.072 117.954 194.384 118.275 193.74C118.596 193.096 119.075 192.615 119.712 192.298L116.619 188.8L118.634 188.448L121.582 191.739L123.838 191.345L123.191 187.652L124.965 187.342ZM121.284 193.4C120.753 193.493 120.336 193.741 120.035 194.145C119.736 194.558 119.632 195.03 119.725 195.56C119.815 196.071 120.056 196.472 120.448 196.765C120.84 197.057 121.307 197.156 121.848 197.062L124.751 196.555L124.111 192.907L121.284 193.4Z" fill="#464FFF"/>
<path d="M111.169 200.14L109.292 200.089L107.681 190.791L105.37 199.983L102.577 199.908L100.828 190.621L98.7012 199.803L96.8241 199.753L99.463 189.151L102.271 189.227L103.997 198.818L106.346 189.337L109.138 189.412L111.169 200.14Z" fill="#464FFF"/>
<path d="M96.2932 188.868L90.5944 198.659L87.7581 198.13L86.0435 186.957L87.9043 187.304L88.2709 189.745L93.1781 190.66L94.4323 188.521L96.2932 188.868ZM88.5084 191.463L89.3593 197.374L92.3501 192.18L88.5084 191.463Z" fill="#464FFF"/>
<path d="M85.1224 186.637L81.9389 196.821L80.2192 196.286L82.9025 187.702L77.7727 186.104L78.273 184.503L85.1224 186.637Z" fill="#464FFF"/>
<path d="M77.2505 184.135L73.0508 193.946L71.3943 193.239L74.934 184.97L69.9926 182.862L70.6526 181.32L77.2505 184.135Z" fill="#464FFF"/>
<path d="M57.6396 186.384L58.4615 184.922L63.5203 187.756L64.9102 185.284L60.3839 182.748L61.1909 181.313L65.7172 183.849L67.1071 181.377L62.0483 178.542L62.8702 177.08L69.4999 180.795L64.2693 190.099L57.6396 186.384Z" fill="#464FFF"/>
<path d="M55.2458 184.924L48.2768 179.902L49.2686 178.53L51.9671 180.475L57.23 173.196L58.703 174.257L53.4401 181.536L56.2376 183.552L55.2458 184.924Z" fill="#464FFF"/>
<path d="M43.3071 175.703L37.2295 169.635L38.4278 168.439L40.7811 170.788L47.1393 164.441L48.4239 165.723L42.0657 172.071L44.5053 174.507L43.3071 175.703Z" fill="#464FFF"/>
<path d="M36.1355 166.158C34.65 165.974 33.4445 165.288 32.5189 164.102C31.6058 162.932 31.2456 161.602 31.4383 160.113C31.631 158.623 32.0284 157.645 32.6306 157.176C33.2185 156.706 33.5205 156.465 33.5366 156.453C34.7089 155.541 36.0306 155.176 37.5018 155.359C38.9953 155.537 40.2049 156.219 41.1304 157.406C42.056 158.592 42.4225 159.93 42.2298 161.419C42.0371 162.908 41.3506 164.112 40.1703 165.03C38.9739 165.96 37.629 166.336 36.1355 166.158ZM39.054 163.599C39.873 162.962 40.362 162.15 40.5211 161.164C40.6659 160.175 40.4194 159.272 39.7815 158.455C39.1499 157.645 38.3395 157.193 37.3504 157.1C36.347 157.004 35.4358 157.275 34.6168 157.911C33.7898 158.555 33.2998 159.373 33.147 160.368C32.9941 161.363 33.2304 162.261 33.8558 163.062C34.4875 163.872 35.305 164.325 36.3084 164.42C37.3117 164.516 38.227 164.242 39.054 163.599Z" fill="#464FFF"/>
<path d="M37.0545 152.176L27.8336 157.568L26.9154 156.003L31.7102 153.199L24.423 151.755L23.2887 149.822L29.7603 151.142L32.4401 144.311L33.5744 146.245L31.5214 151.49L33.8179 151.966L36.1363 150.611L37.0545 152.176Z" fill="#464FFF"/>
<path d="M19.1027 140.562L20.642 139.892L22.9615 145.2L25.5642 144.067L23.4888 139.317L25.0001 138.659L27.0754 143.409L29.6781 142.275L27.3586 136.967L28.8978 136.296L31.9376 143.253L22.1426 147.519L19.1027 140.562Z" fill="#464FFF"/>
<path d="M17.1421 134.879L24.7742 128.077L15.8975 130.733L15.3892 129.039L25.6259 125.977L26.4936 128.867L18.6933 135.799L27.7601 133.087L28.2684 134.78L18.0317 137.843L17.1421 134.879Z" fill="#464FFF"/>
<path d="M156.615 176.434C156.615 175.159 157.651 174.125 158.929 174.125C160.206 174.125 161.242 175.159 161.242 176.434C161.242 177.71 160.206 178.743 158.929 178.743C157.651 178.743 156.615 177.71 156.615 176.434Z" fill="#464FFF"/>
<path d="M140.886 27.7212C140.886 26.4458 141.922 25.412 143.2 25.412C144.477 25.412 145.513 26.4458 145.513 27.7212C145.513 28.9965 144.477 30.0304 143.2 30.0304C141.922 30.0304 140.886 28.9965 140.886 27.7212Z" fill="#464FFF"/>
<path d="M16.9049 115.471C16.9049 114.196 17.9405 113.162 19.218 113.162C20.4955 113.162 21.5311 114.196 21.5311 115.471C21.5311 116.746 20.4955 117.78 19.218 117.78C17.9405 117.78 16.9049 116.746 16.9049 115.471Z" fill="#464FFF"/>
<path d="M152.09 72.1739L155.953 69.616C156.303 69.384 156.392 68.9235 156.153 68.5761L155.571 67.7301C155.332 67.3828 154.863 67.2911 154.513 67.5231L150.649 70.081C150.299 70.313 150.21 70.7735 150.449 71.1208L151.032 71.9669C151.271 72.3142 151.739 72.4059 152.09 72.1739Z" fill="white"/>
<path d="M154.481 75.3501L158.345 72.7922C158.695 72.5602 158.784 72.0997 158.545 71.7524L157.962 70.9063C157.723 70.559 157.255 70.4673 156.904 70.6993L153.041 73.2572C152.69 73.4892 152.602 73.9497 152.841 74.297L153.423 75.1431C153.662 75.4904 154.131 75.5821 154.481 75.3501Z" fill="white"/>
<path d="M144.393 74.4885L147.718 72.3178C148.019 72.1209 148.013 71.612 147.703 71.1686L146.95 70.0885C146.64 69.6451 146.155 69.4491 145.853 69.646L142.529 71.8166C142.227 72.0135 142.234 72.5225 142.543 72.9659L143.297 74.046C143.606 74.4894 144.092 74.6854 144.393 74.4885Z" fill="white"/>
<path d="M142.589 81.3265L148.894 77.2093C149.466 76.8359 149.674 76.1866 149.365 75.7432L148.611 74.6631C148.302 74.2197 147.601 74.164 147.029 74.5375L140.724 78.6546C140.152 79.028 139.944 79.6773 140.253 80.1207L141.007 81.2008C141.316 81.6443 142.017 81.6999 142.589 81.3265Z" fill="white"/>
<path d="M150.288 81.9782L153.612 79.8075C153.914 79.6107 153.907 79.1017 153.598 78.6583L152.844 77.5782C152.535 77.1348 152.049 76.9388 151.748 77.1357L148.423 79.3064C148.122 79.5032 148.128 80.0122 148.438 80.4556L149.191 81.5357C149.501 81.9791 149.986 82.1751 150.288 81.9782Z" fill="white"/>
<path d="M152.488 139.951L156.358 142.5C156.709 142.731 156.798 143.192 156.56 143.54L155.98 144.387C155.742 144.735 155.273 144.828 154.922 144.596L151.053 142.048C150.702 141.816 150.612 141.356 150.85 141.008L151.431 140.161C151.669 139.813 152.137 139.72 152.488 139.951Z" fill="white"/>
<path d="M154.872 136.77L158.742 139.319C159.093 139.55 159.182 140.01 158.944 140.358L158.364 141.205C158.126 141.553 157.657 141.646 157.306 141.415L153.437 138.866C153.086 138.635 152.996 138.174 153.234 137.826L153.815 136.979C154.053 136.631 154.521 136.538 154.872 136.77Z" fill="white"/>
<path d="M144.498 137.736L147.828 139.898C148.13 140.095 148.125 140.604 147.816 141.048L147.065 142.13C146.757 142.574 146.272 142.771 145.97 142.575L142.64 140.412C142.338 140.216 142.343 139.707 142.652 139.262L143.403 138.181C143.711 137.736 144.196 137.539 144.498 137.736Z" fill="white"/>
<path d="M142.677 130.902L148.992 135.005C149.565 135.377 149.775 136.025 149.467 136.47L148.716 137.551C148.407 137.996 147.707 138.053 147.134 137.681L140.819 133.578C140.246 133.206 140.036 132.557 140.344 132.113L141.095 131.031C141.404 130.587 142.104 130.53 142.677 130.902Z" fill="white"/>
<path d="M150.375 130.232L153.704 132.395C154.006 132.591 154.001 133.1 153.693 133.545L152.942 134.626C152.633 135.071 152.148 135.268 151.846 135.071L148.517 132.909C148.215 132.712 148.22 132.203 148.528 131.759L149.279 130.677C149.588 130.233 150.073 130.036 150.375 130.232Z" fill="white"/>
<path d="M65.8282 72.5415L61.9647 69.9836C61.6143 69.7516 61.5258 69.2911 61.7649 68.9438L62.3472 68.0977C62.5862 67.7504 63.0548 67.6587 63.4052 67.8907L67.2687 70.4486C67.6191 70.6806 67.7076 71.1411 67.4686 71.4884L66.8862 72.3345C66.6472 72.6818 66.1786 72.7735 65.8282 72.5415Z" fill="white"/>
<path d="M63.4369 75.7177L59.5734 73.1598C59.223 72.9278 59.1345 72.4673 59.3736 72.12L59.9559 71.2739C60.1949 70.9266 60.6635 70.8349 61.0139 71.0669L64.8774 73.6248C65.2278 73.8568 65.3163 74.3173 65.0773 74.6647L64.4949 75.5107C64.2559 75.858 63.7873 75.9497 63.4369 75.7177Z" fill="white"/>
<path d="M73.5534 74.4641L70.2291 72.2934C69.9276 72.0965 69.9339 71.5876 70.2434 71.1442L70.9971 70.0641C71.3065 69.6207 71.7921 69.4247 72.0936 69.6216L75.4179 71.7922C75.7194 71.9891 75.7131 72.4981 75.4036 72.9415L74.6499 74.0216C74.3405 74.465 73.8549 74.661 73.5534 74.4641Z" fill="white"/>
<path d="M75.3584 81.3023L69.0533 77.1852C68.4814 76.8118 68.2728 76.1625 68.5823 75.7191L69.336 74.639C69.6454 74.1955 70.3459 74.1399 70.9178 74.5133L77.2229 78.6305C77.7948 79.0039 78.0034 79.6532 77.694 80.0966L76.9402 81.1767C76.6308 81.6201 75.9303 81.6758 75.3584 81.3023Z" fill="white"/>
<path d="M67.6589 81.9538L64.3346 79.7831C64.0331 79.5863 64.0394 79.0773 64.3489 78.6339L65.1026 77.5538C65.412 77.1104 65.8976 76.9144 66.1991 77.1113L69.5234 79.282C69.8249 79.4788 69.8186 79.9878 69.5091 80.4312L68.7554 81.5113C68.446 81.9547 67.9604 82.1507 67.6589 81.9538Z" fill="white"/>
<path d="M65.3442 139.413L61.4869 141.979C61.137 142.212 61.0496 142.673 61.2895 143.02L61.8739 143.864C62.1138 144.211 62.5826 144.302 62.9324 144.069L66.7898 141.502C67.1396 141.269 67.227 140.809 66.9871 140.462L66.4027 139.617C66.1628 139.27 65.6941 139.18 65.3442 139.413Z" fill="white"/>
<path d="M62.9453 136.242L59.088 138.809C58.7381 139.041 58.6507 139.502 58.8906 139.849L59.475 140.694C59.7149 141.04 60.1837 141.131 60.5335 140.898L64.3908 138.331C64.7407 138.099 64.8281 137.638 64.5882 137.291L64.0038 136.446C63.7639 136.1 63.2951 136.009 62.9453 136.242Z" fill="white"/>
<path d="M72.9497 137.219L69.6307 139.398C69.3297 139.595 69.3372 140.104 69.6477 140.547L70.404 141.625C70.7145 142.068 71.2006 142.263 71.5017 142.065L74.8206 139.887C75.1217 139.689 75.1141 139.18 74.8036 138.738L74.0473 137.659C73.7368 137.217 73.2507 137.022 72.9497 137.219Z" fill="white"/>
<path d="M74.7383 130.377L68.4432 134.509C67.8722 134.884 67.6652 135.533 67.9757 135.976L68.732 137.055C69.0425 137.497 69.7432 137.551 70.3141 137.176L76.6093 133.045C77.1803 132.67 77.3873 132.02 77.0768 131.577L76.3204 130.499C76.0099 130.056 75.3093 130.002 74.7383 130.377Z" fill="white"/>
<path d="M67.0369 129.744L63.7179 131.922C63.4169 132.12 63.4244 132.629 63.7349 133.071L64.4913 134.15C64.8018 134.592 65.2879 134.787 65.5889 134.59L68.9079 132.411C69.2089 132.214 69.2013 131.705 68.8908 131.262L68.1345 130.184C67.824 129.741 67.3379 129.546 67.0369 129.744Z" fill="white"/>
</svg>
