<svg width="213" height="213" viewBox="0 0 213 213" fill="none" xmlns="http://www.w3.org/2000/svg">
<path fill-rule="evenodd" clip-rule="evenodd" d="M213 106.5C213 165.318 165.318 213 106.5 213C47.6817 213 0 165.318 0 106.5C0 47.6817 47.6817 0 106.5 0C165.318 0 213 47.6817 213 106.5ZM106.5 176.83C145.342 176.83 176.83 145.342 176.83 106.5C176.83 67.6577 145.342 36.1698 106.5 36.1698C67.6577 36.1698 36.1698 67.6577 36.1698 106.5C36.1698 145.342 67.6577 176.83 106.5 176.83Z" fill="#FAFAFA"/>
<path d="M152.09 72.1733L155.953 69.6154C156.303 69.3834 156.392 68.923 156.153 68.5756L155.571 67.7296C155.332 67.3823 154.863 67.2906 154.513 67.5226L150.649 70.0805C150.299 70.3125 150.21 70.773 150.449 71.1203L151.032 71.9663C151.271 72.3137 151.739 72.4053 152.09 72.1733Z" fill="white"/>
<path d="M154.481 75.3496L158.345 72.7917C158.695 72.5597 158.784 72.0992 158.545 71.7518L157.962 70.9058C157.723 70.5585 157.255 70.4668 156.904 70.6988L153.041 73.2567C152.69 73.4887 152.602 73.9492 152.841 74.2965L153.423 75.1425C153.662 75.4899 154.131 75.5816 154.481 75.3496Z" fill="white"/>
<path d="M144.393 74.488L147.718 72.3173C148.019 72.1204 148.013 71.6115 147.703 71.1681L146.95 70.088C146.64 69.6445 146.155 69.4486 145.853 69.6454L142.529 71.8161C142.227 72.013 142.234 72.5219 142.543 72.9654L143.297 74.0455C143.606 74.4889 144.092 74.6849 144.393 74.488Z" fill="white"/>
<path d="M142.589 81.326L148.894 77.2088C149.466 76.8354 149.674 76.1861 149.365 75.7427L148.611 74.6626C148.302 74.2192 147.601 74.1635 147.029 74.5369L140.724 78.6541C140.152 79.0275 139.944 79.6768 140.253 80.1202L141.007 81.2003C141.316 81.6437 142.017 81.6994 142.589 81.326Z" fill="white"/>
<path d="M150.288 81.9777L153.612 79.807C153.914 79.6102 153.907 79.1012 153.598 78.6578L152.844 77.5777C152.535 77.1343 152.049 76.9383 151.748 77.1352L148.423 79.3058C148.122 79.5027 148.128 80.0117 148.438 80.4551L149.191 81.5352C149.501 81.9786 149.986 82.1746 150.288 81.9777Z" fill="white"/>
<path d="M152.488 139.951L156.358 142.5C156.709 142.731 156.798 143.191 156.56 143.539L155.98 144.386C155.742 144.734 155.273 144.827 154.922 144.596L151.053 142.047C150.702 141.816 150.612 141.356 150.85 141.008L151.431 140.16C151.669 139.812 152.137 139.72 152.488 139.951Z" fill="white"/>
<path d="M154.872 136.769L158.742 139.318C159.093 139.549 159.182 140.009 158.944 140.357L158.364 141.205C158.126 141.553 157.657 141.645 157.306 141.414L153.437 138.865C153.086 138.634 152.996 138.174 153.234 137.826L153.815 136.979C154.053 136.631 154.521 136.538 154.872 136.769Z" fill="white"/>
<path d="M144.498 137.735L147.828 139.898C148.13 140.094 148.125 140.603 147.816 141.047L147.065 142.129C146.757 142.573 146.272 142.77 145.97 142.574L142.64 140.411C142.338 140.215 142.343 139.706 142.652 139.262L143.403 138.18C143.711 137.736 144.196 137.539 144.498 137.735Z" fill="white"/>
<path d="M142.677 130.902L148.992 135.004C149.565 135.376 149.775 136.025 149.467 136.469L148.716 137.551C148.407 137.995 147.707 138.052 147.134 137.68L140.819 133.578C140.246 133.206 140.036 132.557 140.344 132.113L141.095 131.031C141.404 130.587 142.104 130.529 142.677 130.902Z" fill="white"/>
<path d="M150.375 130.232L153.704 132.395C154.006 132.591 154.001 133.1 153.693 133.544L152.942 134.626C152.633 135.07 152.148 135.267 151.846 135.071L148.517 132.908C148.215 132.712 148.22 132.203 148.528 131.759L149.279 130.677C149.588 130.233 150.073 130.036 150.375 130.232Z" fill="white"/>
<path d="M65.8282 72.541L61.9647 69.9831C61.6143 69.7511 61.5258 69.2906 61.7649 68.9433L62.3472 68.0972C62.5862 67.7499 63.0548 67.6582 63.4052 67.8902L67.2687 70.4481C67.6191 70.6801 67.7076 71.1406 67.4686 71.4879L66.8862 72.334C66.6472 72.6813 66.1786 72.773 65.8282 72.541Z" fill="white"/>
<path d="M63.4369 75.7172L59.5734 73.1593C59.223 72.9273 59.1345 72.4668 59.3736 72.1195L59.9559 71.2734C60.1949 70.9261 60.6635 70.8344 61.0139 71.0664L64.8774 73.6243C65.2278 73.8563 65.3163 74.3168 65.0773 74.6641L64.4949 75.5102C64.2559 75.8575 63.7873 75.9492 63.4369 75.7172Z" fill="white"/>
<path d="M73.5534 74.4636L70.2291 72.2929C69.9276 72.096 69.9339 71.5871 70.2434 71.1437L70.9971 70.0636C71.3065 69.6201 71.7921 69.4242 72.0936 69.621L75.4179 71.7917C75.7194 71.9886 75.7131 72.4975 75.4036 72.941L74.6499 74.0211C74.3405 74.4645 73.8549 74.6604 73.5534 74.4636Z" fill="white"/>
<path d="M75.3584 81.3018L69.0533 77.1847C68.4814 76.8112 68.2728 76.162 68.5823 75.7185L69.336 74.6384C69.6454 74.195 70.3459 74.1394 70.9178 74.5128L77.2229 78.63C77.7948 79.0034 78.0034 79.6527 77.694 80.0961L76.9402 81.1762C76.6308 81.6196 75.9303 81.6752 75.3584 81.3018Z" fill="white"/>
<path d="M67.6589 81.9533L64.3346 79.7826C64.0331 79.5858 64.0394 79.0768 64.3489 78.6334L65.1026 77.5533C65.412 77.1099 65.8976 76.9139 66.1991 77.1108L69.5234 79.2814C69.8249 79.4783 69.8186 79.9873 69.5091 80.4307L68.7554 81.5108C68.446 81.9542 67.9604 82.1502 67.6589 81.9533Z" fill="white"/>
<path d="M65.3442 139.412L61.4869 141.979C61.137 142.212 61.0496 142.672 61.2895 143.019L61.8739 143.864C62.1138 144.211 62.5826 144.301 62.9324 144.068L66.7898 141.502C67.1396 141.269 67.227 140.808 66.9871 140.461L66.4027 139.617C66.1628 139.27 65.6941 139.179 65.3442 139.412Z" fill="white"/>
<path d="M62.9453 136.241L59.088 138.808C58.7381 139.041 58.6507 139.502 58.8906 139.848L59.475 140.693C59.7149 141.04 60.1837 141.13 60.5335 140.898L64.3908 138.331C64.7407 138.098 64.8281 137.637 64.5882 137.291L64.0038 136.446C63.7639 136.099 63.2951 136.008 62.9453 136.241Z" fill="white"/>
<path d="M72.9497 137.219L69.6307 139.397C69.3297 139.595 69.3372 140.104 69.6477 140.547L70.404 141.625C70.7145 142.068 71.2006 142.262 71.5017 142.065L74.8206 139.886C75.1217 139.689 75.1141 139.18 74.8036 138.737L74.0473 137.659C73.7368 137.216 73.2507 137.021 72.9497 137.219Z" fill="white"/>
<path d="M74.7383 130.377L68.4432 134.508C67.8722 134.883 67.6652 135.533 67.9757 135.976L68.732 137.054C69.0425 137.497 69.7432 137.551 70.3141 137.176L76.6093 133.044C77.1803 132.669 77.3873 132.02 77.0768 131.577L76.3204 130.499C76.0099 130.056 75.3093 130.002 74.7383 130.377Z" fill="white"/>
<path d="M67.0369 129.743L63.7179 131.922C63.4169 132.119 63.4244 132.628 63.7349 133.071L64.4913 134.149C64.8018 134.592 65.2879 134.787 65.5889 134.589L68.9079 132.411C69.2089 132.213 69.2013 131.704 68.8908 131.261L68.1345 130.183C67.824 129.74 67.3379 129.546 67.0369 129.743Z" fill="white"/>
<path d="M79 111.406L89.8507 158.413L100.53 131.852L79 111.406ZM110.714 56.2748L109.993 55L109.267 56.2748L80.2895 107.381L110.067 122.63L139.706 107.4L110.714 56.2748ZM109.924 115.598C104.433 115.598 99.9513 111.058 99.9513 105.493C99.9513 99.9279 104.433 95.3875 109.924 95.3875C115.558 95.3875 119.893 99.9279 119.893 105.493C119.893 111.058 115.411 115.598 109.924 115.598ZM119.456 131.71L130.224 158.021L141.001 111.342L119.456 131.71Z" fill="white"/>
<path d="M189.592 106.985L201.352 112.167L201.112 115.427L188.727 118.767L188.884 116.628L191.591 115.907L192.005 110.267L189.435 109.124L189.592 106.985ZM193.499 115.423L200.058 113.72L193.823 111.007L193.499 115.423Z" fill="#9BD198"/>
<path d="M199.664 125.674L188.393 126.427L198.061 132.279L197.253 135.607L185.488 132.752L185.957 130.819L196.092 133.279L186.732 127.626L187.466 124.6L198.301 123.883L188.232 121.44L188.701 119.507L200.467 122.362L199.664 125.674Z" fill="#9BD198"/>
<path d="M184.506 134.783L195.841 139.037L195.112 140.98L183.777 136.726L184.506 134.783Z" fill="#9BD198"/>
<path d="M183.246 138.408L194.136 143.699L191.785 148.537C191.276 149.585 190.495 150.282 189.442 150.63C188.399 150.982 187.385 150.919 186.4 150.44C185.643 150.072 185.074 149.527 184.695 148.804C184.315 148.081 184.191 147.322 184.321 146.526L179.051 147.042L180.064 144.958L185.047 144.437L186.181 142.103L182.354 140.244L183.246 138.408ZM186.378 145.814C186.111 146.364 186.063 146.911 186.234 147.456C186.416 148.006 186.782 148.414 187.331 148.681C187.86 148.938 188.389 148.984 188.919 148.818C189.448 148.652 189.849 148.289 190.121 147.729L191.579 144.726L187.799 142.889L186.378 145.814Z" fill="#9BD198"/>
<path d="M186.055 159.22L184.729 160.884L175.202 155.993L181.959 164.361L179.987 166.837L170.377 162.078L177.25 170.273L175.924 171.937L168.114 162.31L170.097 159.821L179.967 164.808L172.974 156.209L174.947 153.733L186.055 159.22Z" fill="#9BD198"/>
<path d="M165.731 164.866L170.52 176.791L168.07 178.956L156.878 172.688L158.485 171.268L160.924 172.644L165.163 168.9L164.124 166.286L165.731 164.866ZM162.628 173.632L168.509 176.998L165.946 170.7L162.628 173.632Z" fill="#9BD198"/>
<path d="M155.946 173.214L162.705 183.259L161.012 184.399L155.315 175.932L150.264 179.331L149.202 177.753L155.946 173.214Z" fill="#9BD198"/>
<path d="M148.065 178.385L153.637 189.134L151.825 190.073L147.129 181.013L141.723 183.815L140.848 182.126L148.065 178.385Z" fill="#9BD198"/>
<path d="M135.826 196.99L135.164 195.206L141.326 192.92L140.207 189.904L134.694 191.949L134.044 190.198L139.558 188.153L138.439 185.136L132.277 187.422L131.615 185.639L139.691 182.643L143.901 193.994L135.826 196.99Z" fill="#9BD198"/>
<path d="M132.848 197.927L123.359 200.115L122.928 198.244L126.602 197.397L124.313 187.47L126.318 187.007L128.607 196.934L132.416 196.056L132.848 197.927Z" fill="#9BD198"/>
<path d="M116.302 201.074L106.577 201.563L106.481 199.645L110.247 199.456L109.736 189.282L111.791 189.178L112.302 199.353L116.206 199.157L116.302 201.074Z" fill="#9BD198"/>
<path d="M102.028 199.734C100.719 200.812 99.2155 201.269 97.5169 201.105C95.8412 200.943 94.4648 200.201 93.3877 198.881C92.3106 197.56 91.8137 196.47 91.8969 195.609C91.9676 194.758 92.004 194.322 92.0062 194.299C92.1683 192.623 92.8975 191.251 94.194 190.183C95.5041 189.094 97.0085 188.631 98.7072 188.795C100.406 188.96 101.794 189.702 102.871 191.022C103.948 192.343 104.405 193.847 104.242 195.534C104.076 197.244 103.339 198.644 102.028 199.734ZM102.193 195.336C102.306 194.165 102.018 193.13 101.329 192.229C100.628 191.338 99.6914 190.837 98.5207 190.723C97.3615 190.611 96.358 190.926 95.5103 191.666C94.6499 192.417 94.1631 193.378 94.0499 194.548C93.9356 195.731 94.2287 196.773 94.9293 197.674C95.6298 198.576 96.5539 199.083 97.7017 199.194C98.8609 199.306 99.8706 198.986 100.731 198.235C101.591 197.485 102.079 196.518 102.193 195.336Z" fill="#9BD198"/>
<path d="M91.5201 188.055L88.6204 199.81L86.6221 199.317L88.1299 193.205L81.198 197.979L78.7295 197.371L84.9165 193.16L81.4781 185.578L83.9466 186.187L86.5908 192.006L88.7927 190.518L89.5218 187.563L91.5201 188.055Z" fill="#9BD198"/>
<path d="M68.2566 193.368L68.9517 191.597L75.07 193.998L76.2452 191.003L70.7709 188.855L71.4533 187.116L76.9276 189.265L78.1028 186.27L71.9845 183.869L72.6795 182.098L80.6977 185.244L76.2748 196.515L68.2566 193.368Z" fill="#9BD198"/>
<path d="M61.8296 190.122L62.7275 178.565L57.555 187.702L55.809 186.713L61.774 176.177L64.7542 177.864L63.8207 189.659L69.104 180.327L70.85 181.316L64.885 191.852L61.8296 190.122Z" fill="#9BD198"/>
<path d="M42.4766 176.377L43.7049 174.924L48.7242 179.167L50.8011 176.71L46.3101 172.913L47.5161 171.487L52.0071 175.283L54.084 172.827L49.0646 168.583L50.2929 167.13L56.8709 172.691L49.0546 181.937L42.4766 176.377Z" fill="#9BD198"/>
<path d="M40.1179 171.772C38.4242 171.684 37.0124 171 35.8825 169.721C34.7602 168.451 34.2558 166.966 34.3691 165.265C34.4825 163.565 35.1829 162.146 36.4705 161.009C37.6198 159.993 38.9672 159.472 40.5129 159.445L40.7537 156.74L42.231 158.412L42.1166 159.667C43.3156 159.962 44.3311 160.58 45.1633 161.522C46.2932 162.801 46.8058 164.287 46.7011 165.979C46.5801 167.671 45.8801 169.082 44.6012 170.212C43.3137 171.349 41.8192 171.869 40.1179 171.772ZM44.7151 165.795C44.8258 164.667 44.4956 163.666 43.7245 162.793C43.2359 162.24 42.6347 161.856 41.921 161.64L41.5666 165.784L40.1008 164.125L40.3127 161.491C39.3943 161.549 38.5678 161.902 37.8332 162.551C36.9432 163.337 36.4466 164.299 36.3436 165.437C36.2329 166.565 36.5632 167.566 37.3342 168.439C38.0977 169.303 39.0501 169.754 40.1914 169.792C41.3327 169.83 42.3484 169.456 43.2385 168.669C44.1285 167.883 44.6207 166.925 44.7151 165.795Z" fill="#9BD198"/>
<path d="M28.7391 160.449L34.7809 156.574C35.5768 156.063 36.0538 155.408 36.2119 154.608C36.3637 153.798 36.2217 153.054 35.7859 152.374C35.3564 151.705 34.7419 151.27 33.9426 151.07C33.1433 150.871 32.3457 151.026 31.5499 151.537L25.5081 155.412L24.3968 153.68L30.4386 149.804C31.6906 149.001 32.9712 148.755 34.2803 149.066C35.6054 149.381 36.6508 150.135 37.4165 151.329C38.1822 152.522 38.4415 153.781 38.1942 155.104C37.9407 156.417 37.1734 157.485 35.8922 158.306L29.8504 162.182L28.7391 160.449Z" fill="#9BD198"/>
<path d="M33.7166 145.292L22.947 150.824L21.9987 148.978L32.7683 143.446L33.7166 145.292Z" fill="#9BD198"/>
<path d="M20.8382 146.86L17.1793 137.836L18.9585 137.114L20.3753 140.608L29.8162 136.781L30.5896 138.688L21.1486 142.516L22.6174 146.138L20.8382 146.86Z" fill="#9BD198"/>
<path d="M16.4415 135.72L15.8868 133.577L20.8377 129.098L14.3354 127.582L13.7807 125.439L22.7669 127.508L26.5679 126.525L27.0836 128.517L23.3328 129.488L16.4415 135.72Z" fill="#9BD198"/>
<path d="M23.9892 105.211L12.311 99.8492L12.6006 96.593L25.0357 93.4446L24.8457 95.5809L22.1286 96.2596L21.6275 101.893L24.1792 103.075L23.9892 105.211ZM20.2128 96.7143L13.6281 98.3167L19.8205 101.125L20.2128 96.7143Z" fill="#9BD198"/>
<path d="M14.2464 86.1547L25.5297 85.6154L15.9745 79.5806L16.8451 76.2685L28.5546 79.3465L28.049 81.2702L17.9621 78.6188L27.2135 84.4485L26.422 87.4595L15.5754 87.9705L25.5954 90.6044L25.0897 92.5281L13.3802 89.4501L14.2464 86.1547Z" fill="#9BD198"/>
<path d="M29.5847 77.2667L18.3308 72.8016L19.0962 70.8724L30.3501 75.3375L29.5847 77.2667Z" fill="#9BD198"/>
<path d="M30.9047 73.6723L20.1147 68.1803L22.5547 63.3865C23.083 62.3486 23.8768 61.6658 24.9363 61.3382C25.9856 61.0054 26.9983 61.0874 27.9745 61.5843C28.7247 61.9662 29.2828 62.5219 29.6489 63.2517C30.0149 63.9814 30.1255 64.7428 29.9806 65.536L35.259 65.1174L34.2077 67.1829L29.2154 67.6113L28.0386 69.9234L31.8305 71.8534L30.9047 73.6723ZM27.9105 66.2096C28.1877 65.6649 28.2457 65.1187 28.0846 64.5709C27.9133 64.0179 27.5553 63.6028 27.0106 63.3256C26.4865 63.0588 25.9584 63.0035 25.4261 63.1595C24.8938 63.3156 24.4865 63.6711 24.204 64.226L22.6898 67.2009L26.4355 69.1074L27.9105 66.2096Z" fill="#9BD198"/>
<path d="M28.4374 52.8528L29.7931 51.2133L39.2289 56.2769L32.6255 47.7875L34.6424 45.3481L44.1642 50.2807L37.4418 41.9623L38.7974 40.3227L46.4311 50.0904L44.4032 52.5431L34.6259 47.3767L41.4605 56.1022L39.4436 58.5416L28.4374 52.8528Z" fill="#9BD198"/>
<path d="M48.5974 47.7825L44.0263 35.7725L46.5151 33.653L57.5912 40.1232L55.9583 41.5138L53.5447 40.0934L49.2387 43.7604L50.2302 46.3919L48.5974 47.7825ZM51.8595 39.0749L46.0399 35.6026L48.4885 41.9458L51.8595 39.0749Z" fill="#9BD198"/>
<path d="M58.4922 39.5756L51.918 29.4087L53.6319 28.3005L59.173 36.8698L64.2855 33.5639L65.3186 35.1615L58.4922 39.5756Z" fill="#9BD198"/>
<path d="M66.4529 34.5033L61.0812 23.6529L62.9103 22.7474L67.4378 31.8927L72.894 29.1916L73.7382 30.8966L66.4529 34.5033Z" fill="#9BD198"/>
<path d="M79.2308 16.0048L79.8588 17.8007L73.6547 19.9704L74.7167 23.0071L80.2677 21.0659L80.8844 22.8291L75.3334 24.7704L76.3954 27.8071L82.5994 25.6375L83.2275 27.4334L75.0969 30.2768L71.1001 18.8482L79.2308 16.0048Z" fill="#9BD198"/>
<path d="M82.177 15.105L91.7057 13.0982L92.1013 14.9769L88.4117 15.7539L90.5111 25.7226L88.4971 26.1468L86.3976 16.1781L82.5726 16.9836L82.177 15.105Z" fill="#9BD198"/>
<path d="M98.6313 12.2235L108.364 11.9229L108.424 13.8418L104.655 13.9582L104.969 24.1408L102.912 24.2043L102.598 14.0218L98.6906 14.1425L98.6313 12.2235Z" fill="#9BD198"/>
<path d="M113.231 13.8106C114.56 12.7578 116.073 12.3298 117.768 12.5267C119.44 12.7209 120.802 13.4885 121.853 14.8295C122.905 16.1705 123.381 17.2705 123.281 18.1296C123.194 18.9785 123.149 19.4144 123.147 19.4373C122.952 21.1096 122.197 22.467 120.88 23.5097C119.549 24.574 118.036 25.0077 116.341 24.8108C114.646 24.614 113.273 23.845 112.221 22.504C111.17 21.163 110.742 19.6507 110.937 17.967C111.135 16.2603 111.9 14.8749 113.231 13.8106ZM112.982 18.2044C112.846 19.3727 113.114 20.4137 113.786 21.3276C114.47 22.2312 115.396 22.7509 116.565 22.8866C117.721 23.021 118.731 22.7261 119.593 22.002C120.467 21.2678 120.972 20.3166 121.108 19.1483C121.245 17.9686 120.972 16.9211 120.289 16.006C119.606 15.0909 118.692 14.5668 117.546 14.4337C116.39 14.2994 115.374 14.5993 114.499 15.3335C113.624 16.0677 113.119 17.0247 112.982 18.2044Z" fill="#9BD198"/>
<path d="M123.309 25.6218L126.432 13.924L128.42 14.4549L126.797 20.5377L133.818 15.8956L136.274 16.5513L130.009 20.6432L133.302 28.2892L130.846 27.6335L128.313 21.7658L126.083 23.2114L125.298 26.1526L123.309 25.6218Z" fill="#9BD198"/>
<path d="M146.565 20.6671L145.837 22.4249L139.764 19.9098L138.533 22.8821L143.966 25.1324L143.252 26.8582L137.818 24.6079L136.587 27.5801L142.66 30.0951L141.932 31.8529L133.974 28.5569L138.607 17.3711L146.565 20.6671Z" fill="#9BD198"/>
<path d="M153.18 24.1182L152.069 35.656L157.409 26.6166L159.137 27.6371L152.979 38.0614L150.03 36.3195L151.181 24.5442L145.726 33.7771L143.999 32.7567L150.157 22.3324L153.18 24.1182Z" fill="#9BD198"/>
<path d="M172.131 38.0625L170.877 39.4929L165.935 35.1592L163.814 37.5778L168.235 41.4554L167.003 42.8597L162.582 38.9822L160.461 41.4009L165.402 45.7346L164.148 47.165L157.672 41.4855L165.655 32.383L172.131 38.0625Z" fill="#9BD198"/>
<path d="M174.49 42.7399C176.182 42.8591 177.581 43.5684 178.688 44.8676C179.787 46.1581 180.264 47.6523 180.12 49.3503C179.975 51.0483 179.249 52.4542 177.941 53.5682C176.774 54.5625 175.417 55.0591 173.871 55.0579L173.581 57.7584L172.134 56.0597L172.272 54.807C171.078 54.4905 170.074 53.8538 169.259 52.8969C168.153 51.5977 167.667 50.1028 167.803 48.4123C167.954 46.7231 168.68 45.3253 169.979 44.2188C171.287 43.1049 172.791 42.6119 174.49 42.7399ZM169.785 48.6325C169.654 49.759 169.966 50.7655 170.721 51.6522C171.199 52.214 171.793 52.6093 172.503 52.8379L172.933 48.7007L174.368 50.3862L174.108 53.0156C175.028 52.9748 175.861 52.6366 176.607 52.0012C177.511 51.2311 178.025 50.2785 178.149 49.1433C178.28 48.0168 177.968 47.0103 177.213 46.1236C176.465 45.2457 175.521 44.7774 174.381 44.7188C173.24 44.6601 172.218 45.0158 171.314 45.7858C170.41 46.5559 169.9 47.5048 169.785 48.6325Z" fill="#9BD198"/>
<path d="M185.757 54.3588L179.645 58.1227C178.839 58.6185 178.351 59.2649 178.178 60.0619C178.011 60.8687 178.139 61.6158 178.563 62.303C178.98 62.9805 179.586 63.4264 180.382 63.6407C181.177 63.8549 181.978 63.7142 182.783 63.2184L188.895 59.4545L189.974 61.2071L183.862 64.971C182.595 65.7509 181.31 65.9734 180.007 65.6384C178.688 65.2997 177.657 64.5265 176.913 63.3188C176.169 62.1112 175.933 60.8482 176.205 59.5299C176.482 58.2215 177.269 57.1682 178.565 56.3701L184.677 52.6062L185.757 54.3588Z" fill="#9BD198"/>
<path d="M180.508 69.4154L191.378 64.084L192.292 65.9475L181.422 71.2788L180.508 69.4154Z" fill="#9BD198"/>
<path d="M193.433 68.1118L196.923 77.2029L195.13 77.8909L193.779 74.3707L184.268 78.0211L183.531 76.0995L193.042 72.4491L191.641 68.7998L193.433 68.1118Z" fill="#9BD198"/>
<path d="M197.642 79.3585L198.156 81.512L193.12 85.8964L199.593 87.5349L200.107 89.6883L191.161 87.4485L187.342 88.3598L186.865 86.3578L190.633 85.4586L197.642 79.3585Z" fill="#9BD198"/>
<circle cx="18.1428" cy="113.211" r="3.08859" fill="#9BD198"/>
<circle cx="195.428" cy="98.3847" r="3.08859" fill="#9BD198"/>
</svg>
