<svg width="62" height="62" viewBox="0 0 62 62" fill="none" xmlns="http://www.w3.org/2000/svg">
<rect x="0.5" y="0.5" width="61" height="61" rx="5.5" fill="#F3FF64"/>
<path d="M42.4805 29.2013C42.4805 28.6226 41.9981 28.0921 41.3713 28.0921H21.6458C21.0672 28.0921 20.5366 28.5745 20.5366 29.2013C20.5366 29.7799 21.019 30.3104 21.6458 30.3104H41.3713C41.9984 30.2623 42.4808 29.7799 42.4808 29.2013H42.4805Z" fill="#111111"/>
<path d="M39.5373 33.5416H21.6927C21.114 33.5416 20.5835 34.0241 20.5835 34.6027C20.5835 35.1813 21.0659 35.7118 21.6927 35.7118H38.9103C38.7656 35.1332 38.8622 34.5543 39.1515 34.0237C39.2477 33.8793 39.3439 33.6866 39.537 33.5416L39.5373 33.5416Z" fill="#111111"/>
<path d="M41.3698 22.6419H32.7851C32.4958 22.9797 32.158 23.269 31.7241 23.4618L29.168 24.8122H41.3698C41.9485 24.8122 42.479 24.3297 42.479 23.7511C42.4793 23.1244 41.9969 22.642 41.3698 22.642V22.6419Z" fill="#111111"/>
<path d="M33.6067 19.2179H42.6736C43.0114 20.4718 43.9759 21.4847 45.2778 21.8221V30.1656C45.6156 29.9728 46.0011 29.8762 46.387 29.8762C46.7729 29.8762 47.1103 29.9728 47.448 30.1656L47.4484 17.8673C47.4484 17.3848 47.0625 16.9993 46.5804 16.9993H33.1729L33.6067 19.2179Z" fill="#111111"/>
<path d="M39.0555 40.1977L38.7662 39.9565C38.525 39.7637 38.3322 39.4741 38.2357 39.1848L20.3911 39.1851C20.0533 37.8828 19.0407 36.9184 17.7869 36.5809V26.9352L15.6167 26.7424V40.4876C15.6167 40.97 16.0026 41.3555 16.4846 41.3555H38.8627C38.8627 41.0662 38.8627 40.825 38.9593 40.5838L39.0555 40.1977Z" fill="#111111"/>
<path d="M44.4074 45.5502L44.0215 45.6468C43.7803 45.6949 43.5391 45.7433 43.3464 45.7433C42.2853 45.7433 41.3208 44.9716 41.0796 43.9106V43.814L38.9094 48.4441C38.7166 48.7819 39.0541 49.2159 39.4399 49.1193L41.0796 48.83C41.2724 48.7819 41.5136 48.8781 41.6102 49.0712L42.43 50.5181C42.6228 50.8559 43.1533 50.8559 43.3464 50.5181L45.372 46.2258C45.1308 46.1293 44.9381 45.9365 44.745 45.7434L44.4074 45.5502Z" fill="#111111"/>
<path d="M53.8614 48.5404L51.6912 43.9103V44.0068C51.45 45.0679 50.5336 45.8396 49.4245 45.8396C49.1833 45.8396 48.942 45.7915 48.7493 45.7431L48.3634 45.6465L48.1222 45.9358C47.9294 46.1286 47.7363 46.2736 47.4951 46.4182L49.5207 50.7106C49.7135 51.0965 50.1959 51.0965 50.4372 50.7106L51.257 49.2636C51.3535 49.0709 51.5948 48.9743 51.7875 49.0224L53.4272 49.3118C53.7169 49.3121 54.0543 48.8781 53.8615 48.5404L53.8614 48.5404Z" fill="#111111"/>
<path d="M47.9296 43.3801L49.28 43.8141C49.4727 43.8622 49.6658 43.766 49.714 43.5729L50.0033 42.1744C50.0514 42.0297 50.1479 41.9332 50.2445 41.9332L51.6429 41.6439C51.8357 41.5958 51.9323 41.4027 51.8842 41.2099L51.4502 39.8595C51.4021 39.7148 51.4502 39.6183 51.5467 39.5217L52.6078 38.5572C52.7524 38.4126 52.7524 38.1714 52.6078 38.0748L51.5467 37.1103C51.4502 37.0138 51.4021 36.8691 51.4502 36.7726L51.8842 35.4222C51.9323 35.2294 51.836 35.0363 51.6429 34.9882L50.2929 34.5542C50.1482 34.5061 50.0517 34.4095 50.0517 34.313L49.7624 32.9145C49.7142 32.7218 49.5211 32.6252 49.3284 32.6733L47.978 33.1073C47.8333 33.1554 47.7368 33.1073 47.6402 33.0107L46.6757 31.9497C46.5311 31.8051 46.2898 31.8051 46.1933 31.9497L45.2288 33.0107C45.1323 33.1073 44.9876 33.1554 44.891 33.1073L43.5406 32.6733C43.3479 32.6252 43.1548 32.7214 43.1067 32.9145L42.7208 34.313C42.6727 34.4576 42.5761 34.5542 42.4796 34.5542L41.0811 34.8435C40.8884 34.8916 40.7918 35.0847 40.8399 35.2775L41.2739 36.6279C41.322 36.7726 41.2739 36.8691 41.1773 36.9657L40.1163 37.9301C39.9716 38.0748 39.9716 38.316 40.1163 38.4126L41.1773 39.3771C41.2739 39.4736 41.322 39.6183 41.2739 39.7148L40.8399 41.0652C40.7918 41.258 40.888 41.4511 41.0811 41.4992L42.4796 41.7885C42.6242 41.8366 42.7208 41.9332 42.7208 42.0297L43.0101 43.4282C43.0582 43.621 43.2513 43.7175 43.4441 43.6694L44.7945 43.2354C44.9392 43.1873 45.0357 43.2354 45.1323 43.332L46.0967 44.393C46.2414 44.5377 46.4826 44.5377 46.5792 44.393L47.5437 43.332C47.6886 43.3801 47.8333 43.332 47.9295 43.3801L47.9296 43.3801Z" fill="#111111"/>
<path d="M18.6547 25.0533C21.9341 25.3426 25.2138 24.6674 28.1557 23.1243L30.8084 21.7259C31.5317 21.34 31.9176 20.5202 31.7248 19.7484L30.9531 15.842L35.0042 13.6718C35.7275 13.2859 35.5347 12.1768 34.6664 12.0802L22.6575 11.0189C22.0789 10.9708 21.4518 11.0189 20.8731 11.1154C20.2945 11.212 19.7156 11.4532 19.185 11.7425L8.52644 17.3852C7.80315 17.7711 7.9959 18.8802 8.8642 18.9768L9.34662 19.0249L10.0699 22.7386H9.97336C9.7806 22.7867 9.6356 22.9798 9.68404 23.1726L10.0699 25.0053C10.118 25.1981 10.3111 25.3431 10.5039 25.2947H10.6004L10.2146 26.5969C10.1665 26.8381 10.3592 27.0793 10.6486 27.0309L12.4329 26.6931C12.6741 26.645 12.8188 26.3073 12.6257 26.1145L11.8059 25.0535H11.9024C12.0952 25.0054 12.2402 24.8123 12.1917 24.6195L11.7577 22.7386C11.7096 22.5458 11.5165 22.4008 11.3238 22.4492L11.1791 22.4974L10.5039 19.1214L13.2531 19.3627L14.073 23.3176C14.2176 24.1374 14.8928 24.716 15.7127 24.7645L18.6547 25.0533Z" fill="#111111"/>
<rect x="0.5" y="0.5" width="61" height="61" rx="5.5" stroke="black"/>
</svg>
