<svg width="62" height="62" viewBox="0 0 62 62" fill="none" xmlns="http://www.w3.org/2000/svg">
<rect x="0.5" y="0.5" width="61" height="61" rx="5.5" fill="#F3FF64"/>
<path d="M38.3628 41.1746C37.3089 41.1746 36.4517 42.0318 36.4517 43.0857C36.4517 44.1396 37.3089 44.9968 38.3628 44.9968C39.4167 44.9968 40.2739 44.1396 40.2739 43.0857C40.2739 42.0318 39.4167 41.1746 38.3628 41.1746ZM38.5194 44.3625V44.6309H38.2809V44.3587C37.9403 44.324 37.6346 44.1883 37.3639 43.9526L37.6361 43.6284C37.8447 43.8098 38.0595 43.9176 38.2809 43.9526V43.2295C37.7936 43.1132 37.4685 42.9534 37.4685 42.4786C37.4685 42.0244 37.8235 41.7513 38.2809 41.7277V41.4638H38.5194V41.731C38.7925 41.751 39.0513 41.8442 39.2945 42.0106L39.0522 42.3537C38.8881 42.2368 38.7107 42.1648 38.5194 42.1373V42.838C38.6061 42.8948 39.3618 42.9199 39.3618 43.6077C39.3618 44.0777 38.9853 44.3395 38.5194 44.3625L38.5194 44.3625Z" fill="#111111"/>
<path d="M38.5195 43.2927V43.9636C38.7188 43.9429 38.9071 43.8434 38.9071 43.6432C38.9074 43.4281 38.7436 43.36 38.5195 43.2927Z" fill="#111111"/>
<path d="M37.9214 42.4336C37.9214 42.6386 38.0693 42.7034 38.2794 42.771V42.1262C38.089 42.1429 37.9214 42.2424 37.9214 42.4336Z" fill="#111111"/>
<path d="M43.6497 38.4974H33.0697C32.793 40.2986 31.366 41.7266 29.5645 42.0033V44.1762C31.3657 44.4529 32.7924 45.8782 33.0697 47.677H43.6497C43.927 45.8782 45.3535 44.4529 47.155 44.1762V42.0033C45.3538 41.7266 43.9264 40.2989 43.6497 38.4974ZM42.9825 43.7265H41.4842C41.1872 45.1799 39.8987 46.2771 38.359 46.2771C36.819 46.2771 35.5308 45.1802 35.2339 43.7265H33.7363V42.4479H35.2339C35.5309 40.9945 36.8194 39.8972 38.359 39.8972C39.8991 39.8972 41.1873 40.9942 41.4842 42.4479H42.9825V43.7265Z" fill="#111111"/>
<path d="M25.7134 34.6536V51.5138H51.0002V34.6536H25.7134ZM48.4307 45.4034H47.7913C46.184 45.4034 44.8767 46.7089 44.8767 48.3135V48.9529H31.8367V48.3135C31.8367 46.7089 30.5291 45.4034 28.9221 45.4034H28.2826V40.7708H28.9221C30.5294 40.7708 31.8367 39.4632 31.8367 37.8556V37.2162H44.8767V37.8556C44.8767 39.4635 46.1843 40.7708 47.7913 40.7708H48.4307V45.4034Z" fill="#111111"/>
<path d="M11.3628 43.2142H22.7651V46.0463H11.3628V43.2142Z" fill="#111111"/>
<path d="M11.3628 47.3889H22.7666V50.2209H11.3628V47.3889Z" fill="#111111"/>
<path d="M16.1787 35.9014C16.1787 36.3156 16.4775 36.4464 16.9018 36.5827V35.2799C16.5176 35.3146 16.1787 35.5157 16.1787 35.9014V35.9014Z" fill="#111111"/>
<path d="M17.3862 37.6393V38.9944C17.7887 38.9528 18.1694 38.7515 18.1694 38.3469C18.1694 37.9127 17.8389 37.7753 17.3862 37.6393V37.6393Z" fill="#111111"/>
<path d="M17.0675 31.0699C13.7173 31.0699 11 33.7935 11 37.1438C11 40.4877 13.7173 43.2176 17.0675 43.2176C20.4115 43.2176 23.1414 40.4874 23.1414 37.1438C23.1414 33.7935 20.4114 31.0699 17.0675 31.0699ZM17.384 39.801V40.3431H16.9023V39.7936C16.2141 39.7233 15.5965 39.4499 15.05 38.973L15.5995 38.318C16.0211 38.6844 16.455 38.9025 16.9023 38.973V37.5121C15.9174 37.2769 15.2609 36.9542 15.2609 35.9951C15.2609 35.0774 15.9781 34.5255 16.9023 34.478V33.9453H17.3839V34.4849C17.9361 34.5252 18.4582 34.7135 18.95 35.0499L18.4606 35.7426C18.1289 35.5065 17.7706 35.361 17.384 35.3057V36.7212H17.4067C18.3734 36.9486 19.0857 37.2835 19.0857 38.2759C19.0857 39.2258 18.3249 39.7547 17.384 39.801L17.384 39.801Z" fill="#111111"/>
<path d="M42.6872 21.1837V27.7562C42.6872 30.467 36.5046 31.8929 30.3922 31.8929C24.2736 31.8929 18.0781 30.4673 18.0781 27.7562V21.2667C22.1443 22.897 24.7914 23.9649 26.5239 24.6618C29.7973 25.979 30.0149 26.0683 30.3537 26.0749L30.3794 26.0812H30.4687C30.8141 26.0812 30.8141 26.0812 37.9174 23.1466L42.6872 21.1837Z" fill="#111111"/>
<path d="M48.5353 30.6849C48.5353 31.6566 47.7554 32.443 46.7963 32.443C45.8117 32.443 45.0381 31.6694 45.0381 30.6849C45.0381 30.5441 45.0357 30.6505 45.7478 27.4114C45.3512 27.098 45.102 26.6187 45.102 26.088C45.102 25.3846 45.5368 24.7837 46.1506 24.5345V18.371C29.7127 25.1438 30.6069 24.7963 30.4286 24.7963H30.4224C30.1761 24.7963 30.8165 24.9848 12.9548 17.8337C12.4472 17.6305 12.3898 16.8501 12.9802 16.6382C31.3259 10.1448 30.2382 10.4765 30.4286 10.4938C30.6399 10.4938 29.5226 10.1365 47.4227 16.6445C47.9447 16.8369 48.0017 17.5884 47.4418 17.8337L47.4289 17.84L47.4292 24.5342C48.0367 24.7834 48.4715 25.3846 48.4715 26.0877C48.4715 26.6184 48.2285 27.098 47.832 27.4111C48.5734 30.8161 48.5351 30.5379 48.5351 30.6849L48.5353 30.6849Z" fill="#111111"/>
<rect x="0.5" y="0.5" width="61" height="61" rx="5.5" stroke="black"/>
</svg>
