<svg width="62" height="62" viewBox="0 0 62 62" fill="none" xmlns="http://www.w3.org/2000/svg">
<rect x="0.5" y="0.5" width="61" height="61" rx="5.5" fill="#F3FF64"/>
<path d="M30.9998 30.1381C32.3319 30.1381 33.5453 30.6837 34.429 31.5674C35.3084 32.4498 35.8539 33.6615 35.8539 34.9923V43.3571H40.833V25.3881H21.1675V43.3571H26.1452V34.9923C26.1452 33.6571 26.6908 32.4423 27.5702 31.563L27.6356 31.5036C28.5106 30.6604 29.6976 30.138 30.9994 30.138L30.9998 30.1381ZM30.9998 32.1711C30.2453 32.1711 29.5573 32.4687 29.0539 32.9505L29.009 32.9998C28.4981 33.5107 28.1789 34.2172 28.1789 34.991V43.3558H33.8227V34.991C33.8227 34.2132 33.5062 33.508 32.997 32.9998C32.4848 32.4862 31.7796 32.1697 31.0014 32.1697L30.9998 32.1711ZM29.8272 18.129C29.2657 18.129 28.8112 17.6734 28.8112 17.1129C28.8112 16.5515 29.2667 16.0969 29.8272 16.0969H32.171C32.7325 16.0969 33.187 16.5524 33.187 17.1129C33.187 17.6744 32.7328 18.129 32.171 18.129H29.8272ZM51.2083 49.2106H9.68746L9.23193 51H52.768L52.3139 49.2106H51.2083ZM11.8358 47.1776H50.1657V45.3882H11.8375V47.1776H11.8358ZM16.5435 43.3567H19.1353V25.3876H16.5435V43.3567ZM42.8639 43.3567H45.4556V25.3876H42.8639V43.3567ZM30.9985 11L11.834 21.1584V23.3541H50.1631V21.1584L30.9985 11Z" fill="#111111"/>
<rect x="0.5" y="0.5" width="61" height="61" rx="5.5" stroke="black"/>
</svg>
