<svg width="153" height="171" viewBox="0 0 153 171" fill="none" xmlns="http://www.w3.org/2000/svg">
<g filter="url(#filter0_d_305_1192)">
<rect x="0.210449" y="16.3885" width="127.944" height="127.944" rx="63.9718" fill="#F3FF64"/>
<g clip-path="url(#clip0_305_1192)">
<path d="M84.9663 69.112C84.4384 62.2872 78.6007 59.8936 71.1883 59.1045L71.3649 49.655L65.6129 49.5483L65.4414 58.7489C63.9292 58.7205 62.3831 58.7216 60.8467 58.7235L61.0208 49.4619L55.2721 49.3544L55.0937 58.8013C53.8482 58.8035 52.6245 58.804 51.4322 58.7823L51.432 58.7528L43.4989 58.6016L43.3857 64.7449C43.3857 64.7449 47.6347 64.7435 47.5627 64.82C49.8921 64.8641 50.6254 66.2311 50.8246 67.4023L50.6237 78.1674C50.7843 78.1711 50.9939 78.1817 51.2311 78.2191C51.0392 78.2157 50.8347 78.2108 50.6233 78.2089L50.3399 93.2897C50.2243 94.0209 49.7715 95.1823 48.1435 95.1545C48.2162 95.221 43.9626 95.0754 43.9626 95.0754L42.691 101.923L50.1765 102.063C51.5695 102.091 52.9396 102.14 54.2854 102.174L54.1093 111.731L59.855 111.839L60.0313 102.383C61.6084 102.445 63.1346 102.486 64.6255 102.512L64.447 111.925L70.1993 112.032L70.379 102.491C80.0597 102.117 86.8733 99.8079 87.8832 90.7422C88.6982 83.4427 85.3198 80.1159 79.8554 78.6952C83.2223 77.0592 85.3611 74.106 84.9663 69.112ZM76.537 89.397C76.4066 96.5393 64.1927 95.4985 60.2944 95.4293L60.5325 82.7665C64.4318 82.8406 76.6765 81.9476 76.537 89.397ZM74.1955 71.4815C74.0725 77.9792 63.8878 77.0305 60.6408 76.97L60.8559 65.4857C64.1029 65.5463 74.3213 64.7047 74.1955 71.4815Z" fill="#222222"/>
</g>
</g>
<defs>
<filter id="filter0_d_305_1192" x="-17.7016" y="0.182277" width="170.591" height="170.591" filterUnits="userSpaceOnUse" color-interpolation-filters="sRGB">
<feFlood flood-opacity="0" result="BackgroundImageFix"/>
<feColorMatrix in="SourceAlpha" type="matrix" values="0 0 0 0 0 0 0 0 0 0 0 0 0 0 0 0 0 0 127 0" result="hardAlpha"/>
<feOffset dx="3.41183" dy="5.11774"/>
<feGaussianBlur stdDeviation="10.662"/>
<feComposite in2="hardAlpha" operator="out"/>
<feColorMatrix type="matrix" values="0 0 0 0 0.0666667 0 0 0 0 0.0666667 0 0 0 0 0.0666667 0 0 0 0.1 0"/>
<feBlend mode="normal" in2="BackgroundImageFix" result="effect1_dropShadow_305_1192"/>
<feBlend mode="normal" in="SourceGraphic" in2="effect1_dropShadow_305_1192" result="shape"/>
</filter>
<clipPath id="clip0_305_1192">
<rect width="68.7232" height="68.7232" fill="white" transform="translate(23.0039 54.5587) rotate(-12.9292)"/>
</clipPath>
</defs>
</svg>
