<svg width="83" height="82" viewBox="0 0 83 82" fill="none" xmlns="http://www.w3.org/2000/svg">
<rect x="0.0976562" width="82" height="82" rx="6" fill="white"/>
<path d="M16.0977 44.3828H24.383V62.9431H16.0977V44.3828Z" fill="#111111"/>
<path d="M46.7971 56.9798H48.1898C48.2702 56.9814 48.3522 56.9688 48.4322 56.9402L48.4318 56.939L60.6824 52.5784C62.0751 52.1757 63.5025 51.2718 65.0455 52.092C65.3862 52.2732 65.6413 52.5254 65.8135 52.8147C65.9897 53.1114 66.0836 53.4476 66.0958 53.7883C66.1224 54.5045 65.8 55.2415 65.1414 55.6895C62.3245 57.6054 54.3961 60.4822 49.0141 62.4352C46.7574 63.2542 44.9432 63.9125 44.094 64.2891H40.0615L28.6769 59.8966C28.5867 59.853 28.4851 59.8281 28.3782 59.8281L25.7539 59.8285V47.4473H32.223L38.87 50.904C38.9704 50.9616 39.0871 50.9942 39.2111 50.9942V50.9914L46.8 50.9779V50.9808C47.4357 50.9808 48.0144 51.2415 48.4339 51.661C48.8538 52.0809 49.1142 52.6591 49.1142 53.2949C49.1142 53.9307 48.8534 54.5093 48.4339 54.9289C48.0152 55.3475 47.4386 55.6079 46.8049 55.6091H36.4959C36.1176 55.6091 35.8111 55.9156 35.8111 56.2938C35.8111 56.6721 36.1176 56.9786 36.4959 56.9786L46.7971 56.9798Z" fill="#111111"/>
<path fill-rule="evenodd" clip-rule="evenodd" d="M45.9663 17.711C53.2776 17.711 59.2041 23.6377 59.2041 30.9488C59.2041 38.2598 53.2774 44.1865 45.9663 44.1865C38.6552 44.1865 32.7285 38.2598 32.7285 30.9488C32.7285 23.6377 38.6552 17.711 45.9663 17.711ZM38.9235 37.0234C38.6562 37.2907 38.6562 37.7244 38.9235 37.9917C39.1908 38.259 39.6245 38.259 39.8918 37.9917L53.0084 24.8751C53.2757 24.6078 53.2757 24.1741 53.0084 23.9068C52.7412 23.6395 52.3074 23.6395 52.0401 23.9068L38.9235 37.0234ZM39.6747 24.6579C39.0941 25.2386 38.8039 25.9992 38.8039 26.7598C38.8039 27.5204 39.0941 28.2815 39.6747 28.8622C40.2554 29.4429 41.0161 29.733 41.7771 29.733C42.5377 29.733 43.2987 29.4429 43.879 28.8622C44.4597 28.2815 44.7498 27.5208 44.7498 26.7598C44.7498 25.9992 44.4597 25.2382 43.879 24.6579C43.2984 24.0772 42.5377 23.7871 41.7771 23.7871C41.016 23.7875 40.2555 24.0776 39.6747 24.6579ZM41.7771 25.1569C41.3666 25.1569 40.9565 25.3136 40.6434 25.6266C40.3304 25.9396 40.1738 26.3501 40.1738 26.7603C40.1738 27.1708 40.3305 27.5809 40.6434 27.8939C40.9564 28.207 41.3669 28.3632 41.7771 28.3632C42.1876 28.3632 42.5977 28.2065 42.9107 27.8939C43.2237 27.5809 43.3804 27.1704 43.3804 26.7603C43.3804 26.3498 43.2237 25.9397 42.9107 25.6266C42.5978 25.3136 42.1872 25.1569 41.7771 25.1569ZM48.0531 33.0367C47.4729 33.6174 47.1823 34.3781 47.1823 35.1387C47.1823 35.8993 47.4725 36.6603 48.0531 37.2406C48.6338 37.8209 49.3945 38.1114 50.1551 38.1114C50.9157 38.1114 51.6767 37.8213 52.257 37.2406C52.8373 36.6599 53.1278 35.8993 53.1278 35.1387C53.1278 34.3781 52.8377 33.617 52.257 33.0367C51.6763 32.456 50.9157 32.1659 50.1551 32.1659C49.3945 32.1659 48.6334 32.456 48.0531 33.0367ZM49.0219 34.0051C48.7089 34.3181 48.5526 34.7282 48.5526 35.1387C48.5526 35.5492 48.7089 35.9593 49.0219 36.2724C49.3349 36.5854 49.745 36.7416 50.1555 36.7416C50.566 36.7416 50.9762 36.5854 51.2892 36.2724C51.6022 35.9594 51.7585 35.5493 51.7585 35.1387C51.7585 34.7282 51.6022 34.3181 51.2892 34.0051C50.9762 33.692 50.5661 33.5358 50.1555 33.5358C49.745 33.5354 49.3349 33.6921 49.0219 34.0051Z" fill="#111111"/>
</svg>
