<svg width="24" height="24" viewBox="0 0 24 24" fill="none" xmlns="http://www.w3.org/2000/svg">
<g clip-path="url(#clip0_232_608)">
<path d="M12.0006 6.94141C9.21115 6.94141 6.94141 9.21046 6.94141 12.0003C6.94141 14.7901 9.21125 17.0595 12.0006 17.0595C14.7905 17.0595 17.0599 14.7904 17.0599 12.0003C17.0599 9.21075 14.79 6.94141 12.0006 6.94141Z" fill="#F3FF64"/>
<path d="M16.179 2H7.82097C4.61148 2 2 4.61107 2 7.82097V16.179C2 19.3885 4.61148 22 7.82097 22H16.179C19.3885 22 22 19.3885 22 16.179V7.82097C22 4.61107 19.3885 2 16.179 2ZM19.0611 11.9996C19.0611 15.8928 15.8936 19.0607 12 19.0607C8.10601 19.0607 4.93889 15.8932 4.93889 11.9996C4.93889 8.10683 8.10642 4.93889 12 4.93889C13.4576 4.93889 14.8125 5.38265 15.9387 6.14269C15.9191 6.04274 15.9079 5.94039 15.9079 5.83445C15.9079 4.9653 16.6156 4.2577 17.4847 4.2577C18.3538 4.2577 19.0614 4.96533 19.0614 5.83445C19.0614 6.704 18.3538 7.41121 17.4847 7.41121C17.4367 7.41121 17.3907 7.40121 17.3436 7.39722C18.4102 8.63459 19.0611 10.2413 19.0611 11.9996Z" fill="#F3FF64"/>
</g>
<defs>
<clipPath id="clip0_232_608">
<rect width="24" height="24" fill="white"/>
</clipPath>
</defs>
</svg>
