<svg width="83" height="82" viewBox="0 0 83 82" fill="none" xmlns="http://www.w3.org/2000/svg">
<rect x="0.380859" width="82" height="82" rx="6" fill="white"/>
<path d="M61.0237 35.6459V32.0745C61.0237 28.1359 57.8194 24.9316 53.8809 24.9316C49.9423 24.9316 46.738 28.1359 46.738 32.0745V35.6459C43.784 35.6459 41.3809 38.0491 41.3809 41.0031V44.5745C41.3809 51.467 46.9883 57.0745 53.8809 57.0745C60.7734 57.0745 66.3809 51.467 66.3809 44.5745V41.0031C66.3809 38.0491 63.9777 35.6459 61.0237 35.6459ZM55.6666 46.3602C55.6666 47.3463 54.867 48.1459 53.8809 48.1459C52.8947 48.1459 52.0951 47.3463 52.0951 46.3602V44.5745C52.0951 43.5884 52.8947 42.7888 53.8809 42.7888C54.867 42.7888 55.6666 43.5884 55.6666 44.5745V46.3602ZM57.4523 35.6459H50.3094V32.0745C50.3094 30.1046 51.911 28.5031 53.8809 28.5031C55.8508 28.5031 57.4523 30.1046 57.4523 32.0745V35.6459Z" fill="#111111"/>
<path d="M42.7483 53.5H27.9891C27.4956 53.5 27.0962 53.1006 27.0962 52.6071C27.0962 52.1137 27.4956 51.7143 27.9891 51.7143H41.5289C40.8868 50.6086 40.3941 49.41 40.066 48.1429H27.9885C27.495 48.1429 27.0956 47.7435 27.0956 47.25C27.0956 46.7565 27.495 46.3571 27.9885 46.3571H39.7191C39.6458 45.7708 39.5951 45.1773 39.5951 44.5714V42.7857H28.8809C27.8947 42.7857 27.0951 41.9861 27.0951 41V37.4286C27.0951 34.4698 29.4935 32.0714 32.4523 32.0714H35.1309C32.6651 32.0714 30.6666 30.0724 30.6666 27.6071C30.6666 25.1414 32.6651 23.1429 35.1309 23.1429C37.5966 23.1429 39.5951 25.1414 39.5951 27.6071C39.5951 30.0724 37.5966 32.0714 35.1309 32.0714H37.8094C39.9554 32.0714 41.7934 33.3417 42.6484 35.1642C43.3396 34.6779 44.1121 34.3004 44.9523 34.0832V32.0714C44.9523 27.1484 48.9578 23.1429 53.8809 23.1429V17.7857C53.8809 16.7996 53.0813 16 52.0951 16H18.1666C17.1804 16 16.3809 16.7996 16.3809 17.7857V64.2143C16.3809 65.2004 17.1804 66 18.1666 66H52.0951C53.0813 66 53.8809 65.2004 53.8809 64.2143V58.8571C49.3815 58.8571 45.3676 56.7613 42.7472 53.5H42.7483ZM42.2752 58.8571H27.9894C27.496 58.8571 27.0966 58.4577 27.0966 57.9643C27.0966 57.4708 27.496 57.0714 27.9894 57.0714H42.2752C42.7686 57.0714 43.168 57.4708 43.168 57.9643C43.168 58.4577 42.7686 58.8571 42.2752 58.8571Z" fill="#111111"/>
</svg>
