<svg width="83" height="82" viewBox="0 0 83 82" fill="none" xmlns="http://www.w3.org/2000/svg">
<rect x="0.380859" width="82" height="82" rx="24" fill="white"/>
<path d="M31.752 45.2234C31.752 46.8533 33.0061 48.2027 34.6143 48.3729V42.0742C33.0063 42.244 31.752 43.5938 31.752 45.2233V45.2234Z" fill="#111111"/>
<path d="M37.2344 51.002V57.3006C38.8427 57.1406 40.0967 55.7911 40.0967 54.1512C40.0971 52.5116 38.8426 51.1617 37.2344 51.002V51.002Z" fill="#111111"/>
<path d="M52.4654 49.6797C52.4654 40.6913 45.0414 33.373 35.9181 33.373C26.7943 33.373 19.3809 40.6916 19.3809 49.6797C19.3809 58.6677 26.8052 65.9863 35.9281 65.9863C45.051 65.9863 52.4654 58.6778 52.4654 49.6797ZM37.2321 59.8973V61.8866H34.6125V59.907H30.4353V57.3075H34.6128V50.9687C31.5582 50.7989 29.1308 48.2791 29.1308 45.22C29.1308 42.1507 31.5582 39.6411 34.6128 39.4713V37.4816H37.2321V39.4612H41.4096V42.0608H37.2321V48.3996C40.2867 48.5694 42.7141 51.079 42.7141 54.1483C42.7145 57.2179 40.2867 59.7272 37.2321 59.8973Z" fill="#111111"/>
<path d="M49.8463 16L37.2031 31.1872C46.9935 31.8372 54.7519 39.8856 54.7519 49.6934C54.7519 56.7218 50.7666 62.8506 44.9001 66H60.0927V32.2566H63.3798L49.8463 16Z" fill="#111111"/>
</svg>
