<svg width="82" height="82" viewBox="0 0 82 82" fill="none" xmlns="http://www.w3.org/2000/svg">
<rect width="82" height="82" rx="6" fill="#6AEB59"/>
<path d="M61.8251 41.33C64.194 38.5552 65.4995 35.025 65.4995 31.3899C65.4995 22.905 58.5339 15.9998 49.9809 15.9998C41.4278 15.9998 34.4668 22.9047 34.4668 31.3899C34.4668 39.8751 41.4274 46.78 49.9809 46.78C51.3819 46.78 52.7833 46.59 54.1443 46.215C54.1897 46.2049 54.235 46.1951 54.2754 46.1951C54.356 46.1951 54.4315 46.215 54.5022 46.2503L63.4134 50.8101L61.7145 41.7404C61.6892 41.5954 61.7247 41.4454 61.8253 41.3303L61.8251 41.33ZM53.1408 35.975L52.2586 33.86H47.6417L46.7596 35.975H44.4008L48.8363 26.1098H51.1097L55.5551 35.975H53.1408Z" fill="#111111"/>
<path d="M33.481 31.3894V31.2495C32.9919 31.2046 32.5033 31.1794 32.0195 31.1794C23.461 31.1794 16.5 38.0844 16.5 46.5696C16.5 50.2045 17.8054 53.7344 20.1743 56.5097C20.27 56.6248 20.3104 56.7748 20.2851 56.9199L18.5866 66.0002L27.4978 61.4404C27.6085 61.3853 27.7348 61.3703 27.8557 61.4055C29.2113 61.7805 30.6178 61.9705 32.0191 61.9705C40.2651 61.9705 46.9788 55.6857 47.4981 47.5804C39.5746 46.3851 33.4808 39.5803 33.4808 31.3903L33.481 31.3894ZM36.5404 52.3992C36.0816 52.6091 35.5778 52.7092 35.0282 52.7092C34.2875 52.7092 33.6219 52.5544 33.0274 52.2391C32.4276 51.9242 31.7473 51.3693 30.9813 50.5692C30.0792 50.4593 29.2775 50.1691 28.5719 49.7091C27.8662 49.2491 27.3167 48.6541 26.9237 47.9289C26.5306 47.199 26.3341 46.394 26.3341 45.5089C26.3341 44.539 26.5711 43.6688 27.0397 42.8938C27.5084 42.1188 28.1588 41.5088 28.9853 41.0687C29.8168 40.6237 30.7443 40.4088 31.7775 40.4088C32.8108 40.4088 33.7383 40.6289 34.5596 41.0687C35.3812 41.5088 36.0313 42.1189 36.5052 42.8938C36.9791 43.6687 37.2158 44.539 37.2158 45.5089C37.2158 46.6539 36.893 47.6587 36.2429 48.524C35.5928 49.389 34.736 49.9888 33.6623 50.3289C33.8993 50.5738 34.126 50.7489 34.3528 50.8591C34.5746 50.9689 34.8165 51.0192 35.0686 51.0192C35.6835 51.0192 36.2228 50.7743 36.6866 50.2843L37.7097 51.4994C37.387 51.8942 36.9989 52.1941 36.5404 52.3992Z" fill="#111111"/>
<path d="M34.4802 47.1432C34.7474 46.6633 34.8835 46.1182 34.8835 45.5082C34.8835 44.8982 34.7474 44.353 34.4802 43.8732C34.2081 43.3933 33.84 43.0184 33.3664 42.7533C32.8925 42.4834 32.3633 42.3533 31.7738 42.3533C31.1842 42.3533 30.6546 42.4882 30.1811 42.7533C29.7072 43.0184 29.3345 43.3933 29.0673 43.8732C28.7952 44.3531 28.6641 44.8982 28.6641 45.5082C28.6641 46.1182 28.8001 46.6634 29.0673 47.1432C29.3345 47.623 29.7076 47.9981 30.1811 48.2631C30.6551 48.5331 31.1842 48.6632 31.7738 48.6632C32.3584 48.6632 32.8876 48.5282 33.3664 48.2631C33.835 47.9932 34.2081 47.6231 34.4802 47.1432Z" fill="#111111"/>
<path d="M48.3828 32.1313H51.5383L49.9604 28.3513L48.3828 32.1313Z" fill="#111111"/>
</svg>
