<svg width="82" height="82" viewBox="0 0 82 82" fill="none" xmlns="http://www.w3.org/2000/svg">
<rect width="82" height="82" rx="6" fill="#F3FF64"/>
<path fill-rule="evenodd" clip-rule="evenodd" d="M34.7085 38.9348H21.3038V64.006C21.3038 64.5523 21.5289 65.05 21.891 65.4126C22.2535 65.7747 22.752 65.9992 23.2988 65.9992H34.7078L34.7081 38.935L34.7085 38.9348ZM38.0447 29.5413V66L43.9561 65.9996V29.5418L38.0447 29.5413ZM51.5592 26.208C53.2268 24.9674 53.8536 23.441 53.7657 22.0014C53.7071 21.039 53.3251 20.1422 52.7149 19.4061C52.1292 18.7001 51.3284 18.1372 50.4039 17.8109C48.5042 17.14 46.0825 17.4476 43.9879 19.5658C43.1272 20.4359 42.3356 21.5641 41.6128 22.9503C41.3856 23.3861 41.1634 23.8522 40.9468 24.3469C40.7181 23.8694 40.4839 23.4193 40.2479 22.9945C39.5155 21.6776 38.7758 20.6168 38.1121 19.7145C35.9342 16.7556 33.522 15.8012 31.5439 16.0333C30.3293 16.1761 29.2864 16.7602 28.5373 17.6165C27.8028 18.4565 27.3559 19.5577 27.3171 20.7555C27.2573 22.5767 28.1337 24.6153 30.3871 26.2072H37.8387C37.2251 26.0732 36.6456 25.9292 36.1009 25.7758C34.7297 25.3887 33.5965 24.9474 32.7014 24.452C32.6801 24.4384 32.6589 24.4252 32.6369 24.4124C30.732 23.3362 30.0008 21.9805 30.0382 20.8408C30.0562 20.2864 30.2567 19.7836 30.5862 19.4075C30.9014 19.0471 31.3409 18.8014 31.8533 18.7413C32.9606 18.6113 34.4171 19.291 35.914 21.3242C36.5331 22.1646 37.2167 23.1442 37.8687 24.3168C38.1894 24.8936 38.5057 25.5217 38.8074 26.2079H43.1211C43.4132 25.4839 43.7182 24.8178 44.0356 24.2085C44.637 23.0545 45.2686 22.1431 45.9305 21.474C47.1572 20.2344 48.4893 20.0238 49.4982 20.3798C49.9498 20.5395 50.3368 20.8086 50.6143 21.1437C50.8673 21.4487 51.0249 21.8014 51.0469 22.1613C51.0901 22.8677 50.6107 23.6899 49.3359 24.4134C48.4273 24.9291 47.2724 25.3836 45.873 25.778C45.3291 25.931 44.7511 26.0749 44.1379 26.2082H51.5594L51.5592 26.208ZM16.5001 30.5827V35.0478C16.5001 35.0958 16.5214 35.1409 16.5548 35.1746C16.5888 35.2086 16.6336 35.2291 16.6816 35.2291H34.7075L34.7082 29.5412H17.5427C16.9688 29.5412 16.5 30.0085 16.5 30.5827L16.5001 30.5827ZM47.2927 35.2294H65.3186C65.3666 35.2294 65.412 35.2086 65.4454 35.1749C65.4795 35.1408 65.5 35.0961 65.5 35.0482V30.583C65.5 30.0092 65.0316 29.5412 64.4573 29.5412H47.2927L47.2927 35.2294ZM47.2927 65.9995H58.7016C59.2485 65.9995 59.747 65.7747 60.1094 65.4129C60.4719 65.0507 60.6966 64.5527 60.6966 64.0063V38.9351H47.2919V65.9994L47.2927 65.9995Z" fill="black"/>
</svg>
