<svg width="82" height="82" viewBox="0 0 82 82" fill="none" xmlns="http://www.w3.org/2000/svg">
<rect width="82" height="82" rx="6" fill="#6AEB59"/>
<path d="M62.314 31.0881C61.8795 31.5115 61.2917 31.7489 60.679 31.7489C60.0663 31.7489 59.4785 31.5115 59.044 31.0881L55.7503 27.8615C55.3185 27.4358 55.0758 26.8599 55.0758 26.2596C55.0758 25.6593 55.3185 25.0834 55.7503 24.6578C56.1859 24.2275 56.7788 23.9856 57.3969 23.9856C58.0154 23.9856 58.6084 24.2275 59.0439 24.6578L62.3139 27.8615C62.7531 28.2883 63 28.8688 63 29.4747C63 30.0807 62.7531 30.6616 62.3139 31.088L62.314 31.0881ZM22.8857 31.0881L26.249 27.8615C26.6807 27.4358 26.9234 26.8599 26.9234 26.2596C26.9234 25.6593 26.6807 25.0834 26.249 24.6578C25.8133 24.2275 25.2204 23.9856 24.6023 23.9856C23.9838 23.9856 23.3909 24.2275 22.9553 24.6578L19.6853 27.8615C19.2485 28.2864 19.002 28.8639 19 29.4668C18.9977 30.0697 19.24 30.6491 19.6737 31.0766C20.1074 31.5045 20.6968 31.7461 21.3121 31.7484C21.9276 31.7503 22.5189 31.5129 22.9553 31.088L22.8857 31.0881ZM61.8727 45.5398C61.8754 50.8328 59.783 55.9208 56.0361 59.7334C52.2889 63.5462 47.1789 65.7875 41.7804 65.9857C36.3815 66.1835 31.115 64.3234 27.0874 60.7955C23.0595 57.2676 20.585 52.3475 20.1835 47.0693C19.782 41.7912 21.485 36.5655 24.9344 32.492C28.3839 28.4182 33.311 25.8136 38.6802 25.2255V20.5447H34.0415C33.2129 20.5447 32.4473 20.1114 32.033 19.4084C31.6187 18.7054 31.6187 17.8393 32.033 17.1363C32.4473 16.4333 33.2129 16 34.0415 16H47.9572C48.7858 16 49.5515 16.4333 49.9658 17.1363C50.3801 17.8393 50.3801 18.7054 49.9658 19.4084C49.5515 20.1114 48.7858 20.5447 47.9572 20.5447H43.3185V25.2255C48.4196 25.7843 53.1318 28.1649 56.5544 31.9122C59.9771 35.6596 61.8706 40.5109 61.873 45.5401L61.8727 45.5398ZM48.2353 36.6779C47.7573 36.3036 47.148 36.1297 46.54 36.1933C45.932 36.2572 45.3741 36.5539 44.9881 37.0187L40.7901 42.1541V42.1538C39.8804 42.2074 39.0281 42.6087 38.4174 43.2717C37.8063 43.9344 37.4852 44.8059 37.5232 45.6979C37.5613 46.5904 37.955 47.4325 38.6201 48.0431C39.2856 48.654 40.1685 48.9842 41.0798 48.9637C41.9914 48.9428 42.8581 48.5726 43.4933 47.932C44.1289 47.2918 44.4822 46.4325 44.4779 45.5397C44.4896 45.3579 44.4896 45.1756 44.4779 44.9942L48.6526 39.8816C49.0339 39.4038 49.2044 38.7962 49.1259 38.1945C49.0475 37.5927 48.7268 37.0465 48.2353 36.6779Z" fill="black"/>
</svg>
