<svg width="82" height="82" viewBox="0 0 82 82" fill="none" xmlns="http://www.w3.org/2000/svg">
<rect width="82" height="82" rx="6" fill="#F3FF64"/>
<path d="M46.7729 55.4512V55.7713C46.7729 56.5036 46.1784 57.0926 45.4522 57.0926L36.5432 57.0931C35.8112 57.0931 35.2224 56.4984 35.2224 55.7718V55.4517L11 55.4512V57.7563C11 59.5468 12.4525 60.9999 14.2422 60.9999H67.7578C69.5475 60.9999 71 59.5468 71 57.7563V55.4512H46.7729Z" fill="#111111"/>
<path d="M65.4262 27.2129C65.4262 23.7863 62.6415 21.0005 59.2164 21.0005L22.7859 21C19.3608 21 16.5762 23.7858 16.5762 27.2125V54.9113H65.4257L65.4262 27.2129ZM62.8643 49.9123H19.1432V27.2129C19.1432 26.9268 19.1777 26.6465 19.2405 26.3834H62.7726C62.8354 26.6522 62.8699 26.9268 62.8699 27.2129L62.8643 49.9123Z" fill="#111111"/>
<path d="M54.1948 33.0134C54.1948 32.6472 53.8973 32.3496 53.5371 32.3496H53.0566V39.1343L54.1943 39.5349L54.1948 33.0134Z" fill="#111111"/>
<path d="M42.5856 45.2116C42.6943 45.1661 42.8031 45.1259 42.9171 45.0799C43.889 44.7252 45.1987 44.4276 46.8682 44.4276C47.9949 44.4276 48.961 44.5647 49.7673 44.7592L47.5317 38.3921C47.4915 38.2775 47.5202 38.1462 47.606 38.0604C47.6917 37.9747 47.8235 37.9459 47.9375 37.9862L52.4093 39.5595L52.4098 32.3459C51.9125 32.0028 49.8938 30.75 46.8631 30.75C43.8212 30.75 41.814 32.0027 41.3164 32.3459V45.8696C41.5449 45.721 41.8481 45.5437 42.2314 45.3664C42.3401 45.3146 42.4546 45.2634 42.5858 45.2121L42.5856 45.2116Z" fill="#111111"/>
<path d="M40.683 43.9102V31.4159V31.3071C40.6772 31.1643 40.66 31.0267 40.6317 30.8954C39.974 27.9552 33.7873 27.4061 32.2773 27.3145V40.6149C35.851 40.6604 38.4416 41.4674 39.9798 43.0231C40.2715 43.3202 40.5005 43.6236 40.683 43.9097L40.683 43.9102Z" fill="#111111"/>
<path d="M39.0813 44.4361C39.1958 44.4764 39.3098 44.5219 39.4128 44.5679C39.5331 44.6192 39.6471 44.671 39.7558 44.7165C40.0648 44.8593 40.322 45.0026 40.5333 45.1339C40.482 44.9623 40.4073 44.7678 40.299 44.5674C40.2478 44.4701 40.1903 44.3671 40.1275 44.2583C40.0705 44.161 40.0016 44.0638 39.9331 43.9665C39.8358 43.8404 39.7328 43.7091 39.6131 43.5773C38.6239 42.5192 36.4912 41.2549 31.9452 41.2549C31.768 41.2549 31.6252 41.1121 31.6252 40.9347V30.6895C30.556 31.0613 29.8528 31.5133 29.584 31.6963V45.22C30.4189 44.6766 32.2259 43.7842 35.1307 43.7842C36.8111 43.7842 38.115 44.0761 39.0813 44.4365L39.0813 44.4361Z" fill="#111111"/>
<path d="M52.8105 46.485H53.5253C53.8055 46.485 54.0455 46.3134 54.1427 46.0618L53.382 45.3008L52.8105 46.485Z" fill="#111111"/>
<path d="M46.8628 44.4281C45.3706 44.4281 44.1812 44.6797 43.2892 44.9888C43.1862 45.0233 43.0832 45.063 42.9859 45.0976C42.8829 45.1378 42.7857 45.1776 42.6884 45.2178C41.762 45.6185 41.282 46.0302 41.2188 46.0814L41.2131 46.0872C41.2131 46.0872 41.2073 46.0929 41.2016 46.0929L41.1843 46.1102C41.1786 46.1159 41.1671 46.1217 41.1613 46.1274C41.1556 46.1332 41.1441 46.1389 41.1326 46.1447C41.1211 46.1505 41.1153 46.1562 41.1038 46.1562C41.0981 46.162 41.0924 46.162 41.0809 46.162C41.0694 46.1677 41.0579 46.1677 41.0521 46.1677C41.0291 46.1735 41.0066 46.1735 40.9894 46.1735H40.9836H40.9606C40.9491 46.1735 40.9434 46.1735 40.9319 46.1677H40.9261C40.9204 46.1677 40.9089 46.162 40.9031 46.162C40.8916 46.162 40.8859 46.1562 40.8744 46.1505C40.8686 46.1505 40.8686 46.1505 40.8629 46.1447C40.8571 46.1447 40.8514 46.1389 40.8399 46.1332C40.8341 46.1274 40.8284 46.1274 40.8169 46.1217C40.8112 46.1159 40.8054 46.1159 40.7997 46.1102C40.7939 46.1102 40.7939 46.1044 40.7939 46.1044C40.7882 46.1044 40.7882 46.0987 40.7824 46.0929C40.7824 46.0929 40.7767 46.0929 40.7767 46.0872C40.7709 46.0814 40.7652 46.0814 40.7594 46.0757C40.6909 46.0187 40.2104 45.6065 39.2898 45.2121C39.1983 45.1718 39.0953 45.1321 38.9923 45.0918C38.8951 45.0515 38.7978 45.0175 38.6891 44.983C37.7971 44.6739 36.6076 44.4223 35.1154 44.4223C31.3071 44.4223 29.4887 46.0757 29.4715 46.0929C29.38 46.1787 29.243 46.2017 29.1228 46.1499C29.0025 46.0987 28.9283 45.9841 28.9283 45.8581L28.9312 32.3516H28.4507C28.0847 32.3516 27.793 32.6492 27.793 33.0153V45.8299C27.793 46.196 28.0905 46.4936 28.4507 46.4936H39.4522C39.6582 46.7395 39.9667 46.8943 40.3154 46.8943H41.6476C41.9906 46.8943 42.2995 46.74 42.5108 46.4936H50.5792L50.0072 44.8633C49.19 44.6112 48.1323 44.4281 46.8628 44.4281Z" fill="#111111"/>
<path d="M54.6255 43.0532C54.6428 42.9502 54.7113 42.8644 54.8028 42.8188L57.6678 41.4401L54.191 40.2161L53.0533 39.8155L52.4133 39.5864L48.3535 38.1621L50.5202 44.3291L50.6572 44.7182L50.7999 45.1188L51.2804 46.4862L51.6292 47.4816L52.1096 46.4862L52.3611 45.9657L52.5039 45.6681L52.7381 45.1817L53.0069 44.6152C53.0184 44.5865 53.0356 44.5639 53.0581 44.5409C53.1036 44.4897 53.1726 44.4494 53.2411 44.4379C53.2584 44.4322 53.2756 44.4322 53.2924 44.4322C53.3781 44.4322 53.4581 44.4667 53.5209 44.5237L57.3924 48.3969L58.5876 47.2012L54.7108 43.3341C54.6428 43.2593 54.6083 43.1562 54.6255 43.0532Z" fill="#111111"/>
</svg>
