<svg width="61" height="60" viewBox="0 0 61 60" fill="none" xmlns="http://www.w3.org/2000/svg">
<g clip-path="url(#clip0_305_859)">
<path fill-rule="evenodd" clip-rule="evenodd" d="M36.0669 23.7056L51.0828 49.7145C52.3176 51.8533 52.3176 54.4336 51.0828 56.5714C49.8479 58.7103 47.6134 60 45.1443 60H15.1126C12.6433 60 10.4085 58.7095 9.17411 56.5714C7.93924 54.4334 7.93924 51.8523 9.17411 49.7145L24.1899 23.7056C25.4248 21.5667 27.6593 20.2771 30.1284 20.2771C32.5977 20.2766 34.8325 21.5666 36.0669 23.7056ZM44.3465 22.7833L50.1789 15.9138C50.4132 15.6377 50.2178 15.2162 49.8562 15.2162H47.0442L47.0447 2.08208H41.0043V15.2174H38.1923C37.8307 15.2174 37.6353 15.6399 37.8696 15.915L43.702 22.7845C43.8696 22.9838 44.1774 22.9828 44.3464 22.7836L44.3465 22.7833ZM19.5851 20.7025L25.4176 13.8329C25.6514 13.5569 25.4565 13.1353 25.0949 13.1353H22.2829V0H16.2425V13.1353H13.4305C13.0689 13.1353 12.8735 13.5578 13.1078 13.8329L18.9402 20.7025C19.1088 20.9022 19.4161 20.9022 19.5851 20.7025ZM4.54841 44.1204L10.3808 37.2508C10.6146 36.9748 10.4197 36.5532 10.0582 36.5532H7.24615L7.24663 20.0969H1.20539V36.5532H-1.60665C-1.96818 36.5532 -2.16358 36.9757 -1.92929 37.2508L3.90313 44.1204C4.07165 44.3196 4.37941 44.3196 4.54841 44.1204ZM56.3559 41.777L62.1884 34.9075C62.4226 34.6314 62.2272 34.2098 61.8657 34.2098H59.0537L59.0542 17.7547H53.0138V34.2111H50.2017C49.8402 34.2111 49.6448 34.6336 49.8791 34.9087L55.7115 41.7782C55.8791 41.9775 56.1868 41.9775 56.3558 41.7777L56.3559 41.777ZM30.1295 50.4277C28.8591 50.4277 27.8293 51.4571 27.8293 52.728C27.8293 53.9983 28.8587 55.0282 30.1295 55.0282C31.3999 55.0282 32.4298 53.9988 32.4298 52.728C32.4298 51.4571 31.3995 50.4277 30.1295 50.4277ZM30.1295 46.3223C31.0955 46.3223 31.8891 45.5575 31.9233 44.5925L32.377 32.0262C32.4135 31.0031 31.6064 30.1662 30.5832 30.1662H29.6754C28.6522 30.1662 27.8442 31.0035 27.8816 32.0262L28.3353 44.5925C28.3699 45.557 29.1635 46.3223 30.1295 46.3223Z" fill="#F3FF64"/>
</g>
<defs>
<clipPath id="clip0_305_859">
<rect width="60" height="60" fill="white" transform="translate(0.129395)"/>
</clipPath>
</defs>
</svg>
