<svg width="61" height="60" viewBox="0 0 61 60" fill="none" xmlns="http://www.w3.org/2000/svg">
<g clip-path="url(#clip0_227_3073)">
<path d="M30.6301 28.9997H29.1301V25.9996H30.6301C31.4586 25.9996 32.1301 26.6711 32.1301 27.4996C32.1301 28.3282 31.4586 28.9997 30.6301 28.9997ZM31.6301 30.9997H29.1301V33.9997H31.6301C32.4586 33.9997 33.1301 33.3282 33.1301 32.4997C33.1301 31.6711 32.4586 30.9997 31.6301 30.9997ZM41.1301 29.9997C41.1301 32.917 39.9711 35.7149 37.9083 37.7779C35.8453 39.8408 33.0476 40.9997 30.1301 40.9997C27.2126 40.9997 24.4148 39.8407 22.3519 37.7779C20.2889 35.7149 19.13 32.9172 19.13 29.9997C19.13 27.0822 20.289 24.2844 22.3519 22.2215C24.4148 20.1585 27.2126 18.9996 30.1301 18.9996C33.047 19.0014 35.8439 20.1608 37.9064 22.2233C39.969 24.2858 41.1283 27.0827 41.1301 29.9997ZM35.1301 32.4997C35.1252 31.2898 34.4979 30.168 33.4703 29.5296C34.1855 28.5412 34.3301 27.2497 33.8511 26.1273C33.3716 25.005 32.3391 24.2166 31.1301 24.0496V22.9996C31.1301 22.4473 30.6823 21.9996 30.1301 21.9996C29.5778 21.9996 29.1301 22.4473 29.1301 22.9996V23.9996H26.13C25.5778 23.9996 25.13 24.4474 25.13 24.9996C25.13 25.5518 25.5778 25.9996 26.13 25.9996H27.13V33.9996H26.13C25.5778 33.9996 25.13 34.4474 25.13 34.9996C25.13 35.5519 25.5778 35.9996 26.13 35.9996H29.1301V36.9996C29.1301 37.5519 29.5778 37.9996 30.1301 37.9996C30.6823 37.9996 31.1301 37.5519 31.1301 36.9996V35.9996H31.6301C32.5582 35.9987 33.4474 35.6295 34.1038 34.9733C34.76 34.317 35.1292 33.4278 35.1301 32.4996L35.1301 32.4997ZM47.1301 29.9997C47.1301 34.5081 45.339 38.8323 42.1511 42.0203C38.9628 45.2083 34.6386 46.9993 30.1305 46.9993C25.6224 46.9993 21.2979 45.2082 18.1099 42.0203C14.9219 38.8319 13.1309 34.5078 13.1309 29.9997C13.1309 25.4915 14.922 21.1671 18.1099 17.979C21.2983 14.791 25.6224 13.0001 30.1305 13.0001C34.6373 13.0063 38.9578 14.7996 42.1443 17.9862C45.3309 21.1729 47.1242 25.4935 47.1305 30L47.1301 29.9997ZM43.1301 29.9997C43.1301 26.5519 41.7605 23.2451 39.3226 20.8072C36.8846 18.3692 33.5778 16.9996 30.1301 16.9996C26.6823 16.9996 23.3755 18.3692 20.9376 20.8072C18.4996 23.2451 17.13 26.5519 17.13 29.9997C17.13 33.4474 18.4996 36.7542 20.9376 39.1922C23.3755 41.6301 26.6823 42.9997 30.1301 42.9997C33.5769 42.9966 36.8814 41.6256 39.3189 39.1885C41.7559 36.751 43.1269 33.4465 43.1301 29.9997ZM8.57455 43.1677C8.29642 43.3534 8.12946 43.6655 8.12946 43.9998V48.1008C8.78928 47.9664 9.46969 47.9664 10.1295 48.1008V44.5352L14.921 41.3405C14.5215 40.8066 14.15 40.2517 13.809 39.6785L8.57455 43.1677ZM31.1301 52.1008V48.949C30.7966 48.9664 30.4676 48.9999 30.1301 48.9999C29.7926 48.9999 29.4635 48.9668 29.1301 48.949V52.1008C29.7899 51.9664 30.4703 51.9664 31.1301 52.1008ZM14.922 18.6595L10.1304 15.4649V11.8992C9.47062 12.0336 8.79021 12.0336 8.13043 11.8992V16.0002C8.13043 16.3346 8.29739 16.6466 8.57552 16.8323L13.8095 20.3216H13.8099C14.151 19.7484 14.5224 19.1934 14.922 18.6595ZM50.1301 48.1008C50.79 47.9664 51.4704 47.9664 52.1301 48.1008V43.9998C52.1301 43.6655 51.9632 43.3534 51.6851 43.1677L46.4511 39.6784H46.4506C46.1096 40.2516 45.7381 40.8065 45.3386 41.3405L50.1301 44.5351L50.1301 48.1008ZM49.0792 29.0001C49.0967 29.3336 49.1301 29.6626 49.1301 30.0001C49.1301 30.3376 49.0971 30.6666 49.0792 31.0001H52.231C52.0966 30.3403 52.0966 29.6599 52.231 29.0001H49.0792ZM8.0288 29.0001C8.16362 29.6599 8.16362 30.3403 8.0288 31.0001H11.1806C11.1627 30.6666 11.1297 30.3376 11.1297 30.0001C11.1297 29.6626 11.1627 29.3336 11.1806 29.0001H8.0288ZM51.685 16.8321C51.9631 16.6463 52.1301 16.3343 52.1301 15.9999V11.899C51.4702 12.0334 50.7898 12.0334 50.1301 11.899V15.4651L45.3385 18.6597V18.6593C45.738 19.1932 46.1095 19.7481 46.4505 20.3213L51.685 16.8321ZM29.1294 7.899V11.0508C29.4629 11.0334 29.792 10.9999 30.1295 10.9999C30.467 10.9999 30.796 11.0329 31.1295 11.0508V7.899C30.4696 8.03338 29.7892 8.03338 29.1294 7.899ZM30.1295 5.99991C30.925 5.99991 31.6884 5.68384 32.2508 5.12133C32.8132 4.55883 33.1294 3.79539 33.1294 2.99995C33.1294 2.20452 32.8133 1.44098 32.2508 0.878575C31.6883 0.316173 30.9249 0 30.1295 0C29.334 0 28.5705 0.31607 28.0081 0.878575C27.4457 1.44108 27.1295 2.20452 27.1295 2.99995C27.1304 3.79549 27.4469 4.55802 28.009 5.12053C28.5715 5.68259 29.334 5.99911 30.1295 6L30.1295 5.99991ZM51.1295 50.0001C50.334 50.0001 49.5706 50.3161 49.0082 50.8787C48.4458 51.4412 48.1296 52.2046 48.1296 53C48.1296 53.7955 48.4457 54.559 49.0082 55.1214C49.5707 55.6838 50.3341 56 51.1295 56C51.925 56 52.6885 55.6839 53.2509 55.1214C53.8133 54.5589 54.1295 53.7955 54.1295 53C54.1286 52.2045 53.8121 51.442 53.25 50.8795C52.6875 50.3174 51.925 50.0009 51.1294 50L51.1295 50.0001ZM51.1295 9.99992C51.9251 9.99992 52.6885 9.68385 53.2509 9.12135C53.8133 8.55884 54.1295 7.7954 54.1295 6.99997C54.1295 6.20454 53.8134 5.44099 53.2509 4.87859C52.6884 4.31619 51.925 4.00002 51.1295 4.00002C50.3341 4.00002 49.5706 4.31609 49.0082 4.87859C48.4458 5.4411 48.1296 6.20454 48.1296 6.99997C48.1305 7.7955 48.447 8.55803 49.009 9.12055C49.5716 9.68261 50.3341 9.99912 51.1296 10L51.1295 9.99992ZM9.12937 9.99992C9.92491 9.99992 10.6884 9.68385 11.2508 9.12135C11.8132 8.55884 12.1293 7.7954 12.1293 6.99997C12.1293 6.20454 11.8133 5.44099 11.2508 4.87859C10.6882 4.31619 9.9248 4.00002 9.12937 4.00002C8.33394 4.00002 7.57039 4.31609 7.00799 4.87859C6.44559 5.4411 6.12942 6.20454 6.12942 6.99997C6.13031 7.7955 6.44682 8.55803 7.00888 9.12055C7.57139 9.68261 8.33392 9.99912 9.12947 10L9.12937 9.99992ZM57.1296 27C56.334 27 55.5706 27.3161 55.0082 27.8786C54.4458 28.4411 54.1296 29.2045 54.1296 29.9999C54.1296 30.7954 54.4457 31.5589 55.0082 32.1213C55.5707 32.6837 56.3341 32.9999 57.1296 32.9999C57.925 32.9999 58.6885 32.6838 59.2509 32.1213C59.8133 31.5588 60.1295 30.7954 60.1295 29.9999C60.1286 29.2044 59.8121 28.4419 59.25 27.8794C58.6875 27.3173 57.925 27.0008 57.1295 26.9999L57.1296 27ZM3.12935 27C2.33382 27 1.57037 27.3161 1.00797 27.8786C0.445567 28.4411 0.129395 29.2045 0.129395 29.9999C0.129395 30.7954 0.445464 31.5589 1.00797 32.1213C1.57047 32.6837 2.33392 32.9999 3.12935 32.9999C3.92478 32.9999 4.68833 32.6838 5.25073 32.1213C5.81313 31.5588 6.1293 30.7954 6.1293 29.9999C6.12841 29.2044 5.8119 28.4419 5.24984 27.8794C4.68733 27.3173 3.9248 27.0008 3.12926 26.9999L3.12935 27ZM9.12937 50.0001C8.33384 50.0001 7.57039 50.3161 7.00799 50.8787C6.44559 51.4412 6.12942 52.2046 6.12942 53C6.12942 53.7955 6.44549 54.559 7.00799 55.1214C7.5705 55.6838 8.33394 56 9.12937 56C9.9248 56 10.6884 55.6839 11.2508 55.1214C11.8132 54.5589 12.1293 53.7955 12.1293 53C12.1284 52.2045 11.8119 51.442 11.2499 50.8795C10.6874 50.3174 9.92483 50.0009 9.12928 50L9.12937 50.0001ZM30.1295 54.0001C29.3339 54.0001 28.5705 54.3162 28.0081 54.8787C27.4457 55.4412 27.1295 56.2046 27.1295 57C27.1295 57.7955 27.4456 58.559 28.0081 59.1214C28.5706 59.6838 29.334 60 30.1295 60C30.9249 60 31.6884 59.6839 32.2508 59.1214C32.8132 58.5589 33.1294 57.7955 33.1294 57C33.1285 56.2045 32.812 55.442 32.2499 54.8795C31.6874 54.3174 30.9249 54.0009 30.1294 54L30.1295 54.0001Z" fill="#F3FF64"/>
</g>
<defs>
<clipPath id="clip0_227_3073">
<rect width="60" height="60" fill="white" transform="translate(0.129395)"/>
</clipPath>
</defs>
</svg>
