<svg width="61" height="60" viewBox="0 0 61 60" fill="none" xmlns="http://www.w3.org/2000/svg">
<g clip-path="url(#clip0_305_883)">
<path d="M21.2924 14.3154H38.9674C39.7201 14.3154 40.4414 14.6142 40.9737 15.1465C41.5059 15.6788 41.8047 16.4005 41.8047 17.1527V18.8249C41.8047 19.5776 41.5059 20.2994 40.9737 20.8311C40.4414 21.3634 39.7197 21.6622 38.9674 21.6622H21.2924C20.5402 21.6622 19.8184 21.3634 19.2862 20.8311C18.7539 20.2993 18.4551 19.5776 18.4551 18.8249V17.1527C18.4551 16.4005 18.7539 15.6787 19.2862 15.1465C19.8184 14.6142 20.5402 14.3154 21.2924 14.3154Z" fill="#F3FF64"/>
<path d="M49.5999 51.2723C48.8607 50.4264 48.5445 49.2905 48.7414 48.1846C49.3538 44.734 50.3521 36.977 48.5341 30.1394C47.8053 27.3987 45.8513 25.328 43.4749 23.7713L43.4744 23.7708C43.1665 23.5622 42.8067 23.4424 42.4351 23.425C42.0632 23.4071 41.6938 23.4925 41.3675 23.6711C40.3823 24.2356 39.2659 24.5318 38.1304 24.5305H22.128C20.9924 24.5318 19.8765 24.2356 18.8912 23.6715C18.5646 23.4925 18.1952 23.4071 17.8236 23.425C17.4521 23.4424 17.0923 23.5622 16.7839 23.7708C14.4075 25.328 12.4534 27.3987 11.7247 30.1389C9.9066 36.9765 10.9045 44.733 11.5174 48.1841C11.7143 49.2905 11.3985 50.4264 10.6589 51.2723C9.36171 52.7598 7.70003 55.2709 9.16925 57.3312C10.8135 59.6372 14.9445 58.9981 16.8258 58.5608H16.8254C17.4674 58.4153 18.136 58.441 18.765 58.6348C23.43 60.0392 30.1299 59.9999 30.1299 59.9999C30.1299 59.9999 36.8299 60.0391 41.4947 58.6348H41.4942C42.1232 58.441 42.7919 58.4153 43.4339 58.5608C45.3147 58.9981 49.4462 59.6371 51.0905 57.3312C52.5592 55.2709 50.8975 52.7598 49.6004 51.2723L49.5999 51.2723ZM36.6506 49.5335C36.0896 50.6808 35.2446 51.6656 34.1952 52.3943C33.5849 52.8199 32.9124 53.1483 32.2015 53.3683V53.5882C32.2015 54.3649 31.7873 55.0822 31.1148 55.4708C30.4423 55.8589 29.6133 55.8589 28.9408 55.4708C28.2683 55.0823 27.8541 54.3649 27.8541 53.5882V53.3683C27.1955 53.1688 26.5695 52.8748 25.9955 52.4954C24.9348 51.8059 24.0715 50.8532 23.4891 49.7303C22.9634 48.7098 22.5169 47.5438 23.2922 46.5032V46.5036C23.7047 45.9518 24.3546 45.6277 25.0437 45.6303C25.5089 45.6342 25.961 45.7845 26.3352 46.0607C26.7093 46.3373 26.9868 46.7245 27.1275 47.1679C27.4041 48.1244 28.1345 48.8828 29.0802 49.1951C30.0254 49.5074 31.0638 49.3336 31.8562 48.7299C32.648 48.1266 33.091 47.1714 33.0409 46.1769C32.983 45.2304 32.4834 44.3667 31.6919 43.8449C30.4745 43.033 28.8206 43.3566 27.4878 42.8091C25.7895 42.1165 24.4483 40.7588 23.7762 39.0523C23.1046 37.3457 23.1599 35.4383 23.93 33.7735C24.7005 32.1087 26.1183 30.8316 27.854 30.2393V29.9858C27.854 29.2092 28.2683 28.4914 28.9408 28.1032C29.6133 27.7147 30.4423 27.7147 31.1148 28.1032C31.7873 28.4913 32.2015 29.2091 32.2015 29.9858V30.245V30.2445C32.898 30.4841 33.5505 30.836 34.1333 31.2864C35.1826 32.094 35.9666 33.196 36.386 34.4518C36.3913 34.4622 36.3952 34.4736 36.3969 34.4853C36.4706 34.893 36.4788 35.3094 36.4218 35.7197C36.3103 36.0917 36.1025 36.428 35.8194 36.6937C35.5358 36.9598 35.1873 37.1458 34.8088 37.2338C34.2875 37.3627 33.7365 37.2917 33.2651 37.0343C32.7938 36.7764 32.4362 36.3513 32.2633 35.8425C32.1087 35.3708 31.8081 34.9604 31.4057 34.6699C31.0027 34.3798 30.5184 34.2243 30.0223 34.226C29.213 34.2212 28.4577 34.6324 28.0234 35.3154C27.5891 35.9979 27.5364 36.856 27.8845 37.5869C28.2321 38.3178 28.9312 38.8183 29.7348 38.912C31.1666 38.9032 32.5735 39.2831 33.8066 40.01C35.1765 40.8381 36.2441 42.0834 36.8534 43.5634C37.6244 45.4939 37.5513 47.6596 36.6506 49.5335Z" fill="#F3FF64"/>
<path d="M27.0497 11.4452H33.2087L36.4868 4.3362V4.33663C36.9232 3.39012 36.8474 2.28635 36.2855 1.40867C35.7241 0.530987 34.7536 0 33.7113 0H26.5443C25.502 0 24.5315 0.530964 23.9696 1.40912C23.4077 2.28724 23.3324 3.39094 23.7693 4.33752L27.0497 11.4452Z" fill="#F3FF64"/>
<path d="M18.7948 11.0606C19.2965 11.5567 20.0174 11.761 20.7052 11.6024C21.1722 11.4979 21.6496 11.4452 22.1283 11.4452H23.8902L21.1652 5.5401C21.0114 5.20514 20.8882 4.85668 20.7963 4.49951L17.4115 5.1838C16.9249 5.2818 16.4902 5.5536 16.1888 5.94867C15.8874 6.34331 15.7397 6.8342 15.7732 7.32991C15.8063 7.82516 16.0189 8.29166 16.3708 8.64235L18.7948 11.0606Z" fill="#F3FF64"/>
<path d="M38.1302 11.4453C38.6084 11.4453 39.0854 11.498 39.5523 11.6025C40.2405 11.7611 40.9619 11.5559 41.4637 11.0594L43.8876 8.63842C44.2396 8.28778 44.4521 7.82128 44.4852 7.32564C44.5188 6.82996 44.3711 6.33949 44.0697 5.9444C43.7683 5.54976 43.3336 5.27796 42.847 5.17953L39.4582 4.49524H39.4578C39.3702 4.85328 39.2482 5.20174 39.0932 5.53626L36.3682 11.4453L38.1302 11.4453Z" fill="#F3FF64"/>
</g>
<defs>
<clipPath id="clip0_305_883">
<rect width="60" height="60" fill="white" transform="translate(0.129395)"/>
</clipPath>
</defs>
</svg>
