<svg width="60" height="60" viewBox="0 0 60 60" fill="none" xmlns="http://www.w3.org/2000/svg">
<g clip-path="url(#clip0_305_873)">
<path fill-rule="evenodd" clip-rule="evenodd" d="M39.1842 0C46.7781 0 52.9345 6.15636 52.9345 13.7503C52.9345 21.3443 46.7781 27.5006 39.1842 27.5006C31.5902 27.5006 25.4339 21.3443 25.4339 13.7503C25.4339 6.15636 31.5902 0 39.1842 0ZM14.7677 57.9946L10.5436 59.8473C9.62671 60.2492 8.55194 59.83 8.14916 58.9145C5.63052 53.1893 3.11245 47.4637 0.593808 41.7382C0.186612 40.8121 0.601792 39.7471 1.52798 39.3412L5.75209 37.4885C6.66895 37.0866 7.74372 37.5058 8.1465 38.4213C10.6651 44.1465 13.1832 49.8721 15.7019 55.5975C16.1086 56.5228 15.6939 57.5878 14.7677 57.9946ZM52.6109 38.4757L41.4972 41.7453C41.5375 42.2421 41.4808 42.7482 41.3694 43.2601C41.1184 44.4138 40.1988 45.5458 39.1915 46.1291C38.1752 46.7169 36.9394 46.9245 35.7218 46.614L24.9904 43.7472C24.5242 43.6225 24.247 43.1439 24.3717 42.6773C24.4963 42.2111 24.9749 41.9338 25.4416 42.0585L36.1215 44.9115C37.6425 45.3174 39.285 44.3997 39.6678 42.8609C40.0568 41.2981 39.1816 39.7323 37.6171 39.3146L29.58 37.1677C29.4833 37.142 29.3898 37.0954 29.3033 37.0346C26.7372 35.2177 24.836 34.5604 23.0945 34.606C21.3447 34.6526 19.6449 35.4195 17.561 36.4402C15.1968 37.5979 12.9123 38.6868 10.647 39.759L15.8484 51.5823L18.7698 50.1594C20.1769 49.4736 21.6255 49.3525 23.1279 49.7872L31.991 52.3533C34.3233 53.0289 37.3711 51.8401 39.7895 50.8975L56.9589 44.2662C58.2918 43.7517 59.2513 42.4254 59.501 41.0862C59.6785 40.1339 59.4944 39.1571 58.6889 38.5441C57.6797 37.7754 55.7609 37.5487 52.6111 38.4753L52.6109 38.4757ZM36.5997 7.14485V8.77186C34.6183 9.6284 33.3279 11.581 33.3279 13.7505C33.3279 15.92 34.6183 17.8727 36.6001 18.7292V20.3562C36.6001 20.838 36.9905 21.2279 37.4718 21.2279C37.9535 21.2279 38.3434 20.8375 38.3434 20.3562V19.1572C38.6131 19.1772 38.8832 19.1772 39.1529 19.1572V20.3562C39.1529 20.8397 39.5446 21.2314 40.0281 21.2314C40.5116 21.2314 40.9032 20.8397 40.9032 20.3562V18.7248C41.5393 18.4493 42.1079 18.0603 42.584 17.5848C42.9259 17.2428 42.9259 16.6893 42.584 16.3473C42.242 16.0054 41.6884 16.0053 41.3464 16.3473C40.6483 17.0455 39.7376 17.4225 38.7507 17.4225C36.7232 17.4225 35.0788 15.7791 35.0788 13.7506C35.0788 11.7231 36.7223 10.0787 38.7507 10.0787C39.7376 10.0787 40.6492 10.4562 41.3464 11.154C41.6884 11.496 42.242 11.496 42.584 11.154C42.9259 10.812 42.9259 10.2584 42.584 9.91644C42.1084 9.44094 41.5393 9.05192 40.9032 8.77647V7.14503C40.9032 6.66154 40.5116 6.26987 40.0281 6.26987C39.5446 6.26987 39.1529 6.66154 39.1529 7.14503V8.34406C38.8832 8.32409 38.6131 8.32409 38.3434 8.34406V7.14503C38.3434 6.66331 37.953 6.27341 37.4718 6.27341C36.99 6.27341 36.5997 6.6642 36.5997 7.14503L36.5997 7.14485ZM39.184 2.5108C32.9766 2.5108 27.9443 7.54309 27.9443 13.7504C27.9443 19.9578 32.9766 24.9901 39.184 24.9901C45.3913 24.9901 50.4236 19.9578 50.4236 13.7504C50.4231 7.54309 45.3904 2.5108 39.184 2.5108ZM39.184 4.26068C33.9432 4.26068 29.6947 8.50921 29.6947 13.75C29.6947 18.9907 33.9432 23.2393 39.184 23.2393C44.4247 23.2393 48.6733 18.9907 48.6733 13.75C48.6733 8.50921 44.4247 4.26068 39.184 4.26068Z" fill="#F3FF64"/>
</g>
<defs>
<clipPath id="clip0_305_873">
<rect width="60" height="60" fill="white"/>
</clipPath>
</defs>
</svg>
