<svg width="60" height="60" viewBox="0 0 60 60" fill="none" xmlns="http://www.w3.org/2000/svg">
<g clip-path="url(#clip0_227_3068)">
<path fill-rule="evenodd" clip-rule="evenodd" d="M2.17226 20.7323C-1.3121 20.7323 -4.16253 18.4522 -4.16253 15.6649V33.1444L14.684 33.1658V29.806C13.7582 29.4532 13.101 28.5572 13.101 27.5082C13.101 26.1507 14.2016 25.0501 15.5592 25.0501C16.9167 25.0501 18.0173 26.1507 18.0173 27.5082C18.0173 28.5577 17.3592 29.4529 16.4343 29.806V34.0381C16.4343 34.5531 15.9951 34.91 15.4815 34.91L-4.16226 34.8873V39.4908H24.6335C24.9862 38.5649 25.8823 37.9077 26.9313 37.9077C28.2888 37.9077 29.3894 39.0083 29.3894 40.3659C29.3894 41.7234 28.2888 42.824 26.9313 42.824C25.8818 42.824 24.9866 42.1659 24.6335 41.241H-4.16226V46.0439L15.4815 46.0216C15.9951 46.0211 16.4343 46.3776 16.4343 46.8935V51.1256C17.3601 51.4784 18.0173 52.3744 18.0173 53.4234C18.0173 54.781 16.9167 55.8815 15.5592 55.8815C14.2016 55.8815 13.101 54.781 13.101 53.4234C13.101 53.1501 13.1456 52.887 13.2279 52.6412C13.4617 51.9445 13.9999 51.3863 14.684 51.1261V47.7663L-4.1626 47.7872V54.9326C-4.1626 57.7194 -1.31217 60 2.17218 60H53.3375C54.7146 60 55.8376 59.1021 55.8376 58.0005V48.2809H47.5065C43.1521 48.2809 39.5924 44.7212 39.5924 40.3667C39.5924 36.0123 43.1521 32.4526 47.5065 32.4526H55.8371L55.8376 22.7324C55.8376 21.6309 54.7147 20.733 53.3375 20.733H2.17217L2.17226 20.7323ZM45.7205 18.9825H37.2612C38.4863 17.0481 39.2331 14.7814 39.3363 12.3478H44.9698C45.4773 12.3478 45.7199 12.7782 45.7199 13.1087L45.7205 18.9825ZM12.3368 12.3478C12.4404 14.7814 13.1869 17.0481 14.4119 18.9825H2.17119C0.308896 18.9825 -2.41374 17.867 -2.41374 15.6649C-2.41374 13.4628 0.30842 12.3474 2.17119 12.3474H12.3362L12.3368 12.3478ZM25.8364 0C32.333 0 37.6001 5.26633 37.6001 11.7638C37.6001 14.4845 36.6757 16.9901 35.1243 18.9826H32.3779C34.4206 17.131 35.5783 14.5232 35.5783 11.7638C35.5783 6.38356 31.216 2.0222 25.8367 2.0222C20.4565 2.0222 16.0952 6.38452 16.0952 11.7638C16.0952 14.524 17.2529 17.13 19.2955 18.9826H16.5492C14.9978 16.9901 14.0733 14.485 14.0733 11.7638C14.0724 5.26681 19.3392 0 25.8361 0H25.8364ZM27.9678 13.8958C28.3094 13.5542 28.8629 13.5542 29.2054 13.8958C29.547 14.2374 29.547 14.7909 29.2054 15.1334C28.8029 15.5359 28.3293 15.8664 27.8047 16.1043V17.4145C27.8047 17.8974 27.4133 18.2897 26.9295 18.2897C26.4466 18.2897 26.0543 17.8984 26.0543 17.4145V16.5236C25.9084 16.5296 25.7634 16.5296 25.6179 16.5236V17.4145C25.6179 17.8974 25.2266 18.2897 24.7428 18.2897C24.2599 18.2897 23.8676 17.8984 23.8676 17.4145V16.1043C22.1684 15.3323 21.0711 13.6392 21.0711 11.7643C21.0711 9.88888 22.1684 8.19531 23.8676 7.42419V6.11302C23.8676 5.63013 24.2589 5.23786 24.7428 5.23786C25.2257 5.23786 25.6179 5.6292 25.6179 6.11302V7.00399C25.7639 6.99795 25.9093 6.99702 26.0543 7.00399V6.11302C26.0543 5.63013 26.4457 5.23786 26.9295 5.23786C27.4124 5.23786 27.8047 5.6292 27.8047 6.11302V7.42693C28.3326 7.66721 28.8067 7.99628 29.2054 8.39458C29.547 8.73619 29.547 9.28972 29.2054 9.63222C28.8638 9.97383 28.3094 9.97383 27.9678 9.63222C27.3933 9.05777 26.6483 8.74916 25.8364 8.74916C24.1711 8.74916 22.8219 10.0984 22.8219 11.7641C22.8219 13.4294 24.1711 14.7791 25.8364 14.7791C26.6692 14.7782 27.4221 14.4408 27.9678 13.8956V13.8958ZM25.8364 3.77217C30.2508 3.77217 33.8286 7.34993 33.8286 11.7644C33.8286 14.8583 32.049 17.659 29.2702 18.9832H22.4032C19.6244 17.659 17.8448 14.8583 17.8448 11.7644C17.8443 7.34993 21.4221 3.77217 25.8365 3.77217H25.8364ZM48.1512 37.6282C49.6627 37.6282 50.8887 38.8538 50.8887 40.3657C50.8887 41.8771 49.6631 43.1032 48.1512 43.1032C46.6398 43.1032 45.4137 41.8776 45.4137 40.3657C45.4137 38.8538 46.6389 37.6282 48.1512 37.6282ZM55.8367 46.5303H47.5056C44.1174 46.5303 41.341 43.7548 41.341 40.3657C41.341 36.9775 44.1166 34.2011 47.5056 34.2011H55.8362L55.8367 46.5303Z" fill="#F3FF64"/>
</g>
<defs>
<clipPath id="clip0_227_3068">
<rect width="60" height="60" fill="white"/>
</clipPath>
</defs>
</svg>
