<svg width="60" height="60" viewBox="0 0 60 60" fill="none" xmlns="http://www.w3.org/2000/svg">
<path d="M44.1993 3.57137C44.1988 2.6245 43.8224 1.71702 43.1535 1.04766C42.4846 0.377819 41.577 0.001404 40.6307 0H6.97081C6.02347 0.000468719 5.11549 0.376871 4.44613 1.04672C3.7763 1.71609 3.39988 2.62412 3.39941 3.5714V4.79995H44.1993L44.1993 3.57137Z" fill="#F3FF64"/>
<path d="M3.39947 56.4286C3.39994 57.3759 3.77635 58.2839 4.4462 58.9532C5.11557 59.6231 6.02359 59.9995 6.97087 60H40.6308C41.5772 59.9986 42.4847 59.6222 43.1535 58.9523C43.8224 58.2829 44.1988 57.3754 44.1993 56.4286V52.8H3.39941L3.39947 56.4286Z" fill="#F3FF64"/>
<path d="M55.4002 16.6223H37.1338V12.9337C37.1348 12.4476 36.8423 12.0089 36.3932 11.8228C35.9441 11.6367 35.4271 11.7398 35.084 12.0839L27.75 19.4184C27.2813 19.8871 27.2813 20.6465 27.75 21.1153L35.0793 28.4493C35.3048 28.6743 35.6104 28.8004 35.9287 28.8C36.0862 28.8004 36.2423 28.7695 36.3871 28.7086C36.8381 28.5248 37.1329 28.0865 37.1339 27.6V23.9114H55.4002C55.7185 23.9114 56.0237 23.7849 56.2487 23.5599C56.4737 23.3349 56.6002 23.0297 56.6002 22.7114V17.8224C56.6002 17.1596 56.063 16.6223 55.4002 16.6223Z" fill="#F3FF64"/>
<path d="M48.714 31.2839C48.3704 30.9398 47.8538 30.8367 47.4048 31.0228C46.9557 31.2089 46.6632 31.6476 46.6642 32.1337V35.8222H28.7986C28.1358 35.8222 27.5986 36.3594 27.5986 37.0222V41.9113C27.5986 42.2295 27.7252 42.5347 27.9502 42.7597C28.1752 42.9847 28.4804 43.1113 28.7986 43.1113H46.6642V46.7998C46.6642 47.2854 46.9572 47.7232 47.4057 47.9084C47.5511 47.9693 47.7071 48.0003 47.8642 47.9998C48.1829 48.0003 48.4886 47.8742 48.714 47.6492L56.048 40.3198C56.5168 39.8511 56.5168 39.0918 56.048 38.6229L48.714 31.2839Z" fill="#F3FF64"/>
<path d="M25.1986 41.9111V37.0221C25.1986 36.0672 25.5778 35.1517 26.2528 34.4767C26.9282 33.8013 27.8437 33.4221 28.7986 33.4221H44.1993V26.3111H39.5339V27.5997C39.5334 28.3122 39.322 29.0082 38.9259 29.6003C38.5303 30.1928 37.9673 30.654 37.3087 30.9259C36.8732 31.1083 36.4059 31.2011 35.9338 31.1997C34.9823 31.1992 34.0706 30.82 33.3993 30.1459L26.0648 22.8114V22.8119C25.3903 22.1364 25.0111 21.221 25.0111 20.2666C25.0111 19.3118 25.3903 18.3963 26.0648 17.7213L33.3993 10.3868C34.0743 9.71131 34.9903 9.33162 35.9456 9.33162C36.9004 9.33162 37.8164 9.71131 38.4919 10.3868C39.1669 11.0622 39.5461 11.9782 39.5456 12.9335V14.2221H44.1993V7.19971H3.39941V50.3996H44.1993V45.5111H28.7986C27.8437 45.5111 26.9282 45.1314 26.2528 44.4564C25.5778 43.7814 25.1986 42.8654 25.1986 41.9111ZM16.1194 27.5999C17.9405 27.6102 19.6392 28.5182 20.6602 30.0267C21.6806 31.5351 21.8911 33.4499 21.2231 35.1444C20.5552 36.8385 19.0946 38.0943 17.3194 38.5007V39.5999C17.3194 40.2627 16.7822 40.7999 16.1194 40.7999C15.4566 40.7999 14.9194 40.2627 14.9194 39.5999V38.5007C13.6951 38.2279 12.6001 37.5468 11.8149 36.5685C11.0298 35.5907 10.6009 34.3743 10.5994 33.1199C10.5994 32.4571 11.1366 31.9199 11.7994 31.9199C12.4622 31.9199 12.9994 32.4571 12.9994 33.1199C12.9994 33.9472 13.328 34.7409 13.913 35.3263C14.4985 35.9113 15.2921 36.2399 16.1195 36.2399C16.9469 36.2399 17.7404 35.9113 18.3259 35.3263C18.9109 34.7409 19.2395 33.9473 19.2395 33.1199C19.2395 32.2925 18.9109 31.499 18.3259 30.9135C17.7404 30.3285 16.9469 29.9999 16.1195 29.9999C14.2984 29.9896 12.5996 29.0816 11.5787 27.5731C10.5582 26.0647 10.3477 24.1499 11.0157 22.4554C11.6837 20.7613 13.1443 19.5055 14.9194 19.0991V17.9999C14.9194 17.3371 15.4566 16.7999 16.1194 16.7999C16.7822 16.7999 17.3194 17.3371 17.3194 17.9999V19.0991C18.5438 19.3719 19.6388 20.053 20.4239 21.0313C21.2091 22.0091 21.638 23.2255 21.6394 24.4799C21.6394 25.1427 21.1022 25.6799 20.4394 25.6799C19.7766 25.6799 19.2394 25.1427 19.2394 24.4799C19.2394 23.6526 18.9108 22.8589 18.3258 22.2735C17.7403 21.6885 16.9468 21.3599 16.1194 21.3599C15.292 21.3599 14.4984 21.6885 13.9129 22.2735C13.328 22.8589 12.9994 23.6525 12.9994 24.4799C12.9994 25.3073 13.328 26.1008 13.9129 26.6863C14.4984 27.2713 15.292 27.5999 16.1194 27.5999Z" fill="#F3FF64"/>
</svg>
