<svg width="24" height="24" viewBox="0 0 24 24" fill="none" xmlns="http://www.w3.org/2000/svg">
<g clip-path="url(#clip0_232_603)">
<path d="M5.35479 15.3684C5.6872 15.0369 5.6872 14.6224 5.35479 14.2909C5.02238 13.9593 4.60687 13.9593 4.27446 14.2909L3.19413 15.3684C2.86172 15.7 2.86172 16.1144 3.19413 16.4459C3.52654 16.7775 3.94205 16.7775 4.27446 16.4459L5.35479 15.3684Z" fill="#F3FF64"/>
<path d="M8.59577 15.3676C8.26336 15.036 7.84785 15.036 7.51544 15.3676L4.27445 18.6001C3.94204 18.9317 3.94204 19.3461 4.27445 19.6777C4.60686 20.0092 5.02237 20.0092 5.35478 19.6777L8.51267 16.528C8.84508 16.1964 8.84508 15.6991 8.59577 15.3676Z" fill="#F3FF64"/>
<path d="M19.7322 2.10638L3.1117 8.23998C1.61586 8.82018 1.61586 10.8923 3.19481 11.3897L7.68233 12.8816C8.51335 13.1303 9.42748 12.9645 10.1754 12.4672L17.9039 6.16781L11.5881 13.8763C11.0064 14.5394 10.8402 15.4511 11.1726 16.3629L12.6685 20.8387C13.1671 22.3307 15.3277 22.4136 15.8264 20.9216L21.8928 4.4272C22.3914 2.93524 21.0618 1.60906 19.7322 2.10638Z" fill="#F3FF64"/>
<path d="M8.59575 18.6012L7.51542 19.6787C7.18301 20.0103 7.18301 20.4247 7.51542 20.7562C7.84783 21.0878 8.26334 21.0878 8.59575 20.7562L9.67608 19.6787C10.0085 19.3472 10.0085 18.9327 9.67608 18.6012C9.34367 18.2697 8.84506 18.2697 8.59575 18.6012Z" fill="#F3FF64"/>
</g>
<defs>
<clipPath id="clip0_232_603">
<rect width="24" height="24" fill="white"/>
</clipPath>
</defs>
</svg>
