<svg width="135" height="136" viewBox="0 0 135 136" fill="none" xmlns="http://www.w3.org/2000/svg">
<g filter="url(#filter0_d_305_1194)">
<rect x="18" y="17" width="92.1193" height="92.1193" rx="46.0597" fill="#6AEB59"/>
<path d="M72.2622 53.215H55.8576C55.8576 53.215 44.373 63.056 44.373 74.5405C44.373 81.0998 49.3117 84.3815 52.5754 84.3815H75.5436C78.8209 84.3815 83.7459 81.0994 83.7459 74.5405C83.7459 63.056 72.2614 53.215 72.2614 53.215H72.2622ZM65.6985 76.0132V78.6398H62.4212L62.4209 76.022C60.0054 75.573 58.4881 74.0826 58.3804 71.9186H61.2224C61.3614 73.0544 62.5064 73.7863 64.1631 73.7863C65.6894 73.7863 66.7714 73.0457 66.7714 71.9906C66.7714 71.0928 66.0712 70.5808 64.3472 70.195L62.5199 69.8044C59.9606 69.2702 58.7036 67.9367 58.7036 65.7953C58.7036 63.6538 60.1313 62.1092 62.4031 61.6019V58.9572H65.6804V61.606C67.8982 62.0999 69.3755 63.6128 69.4471 65.6465L66.7041 65.6468C66.565 64.5378 65.5322 63.7972 64.1136 63.7972C62.695 63.7972 61.6712 64.4796 61.6712 65.5482C61.6712 66.4147 62.3401 66.8951 63.9877 67.2631L65.6804 67.6223C68.5042 68.2148 69.7208 69.418 69.7208 71.6136C69.7211 73.9614 68.2127 75.5329 65.6985 76.0133L65.6985 76.0132Z" fill="#222222"/>
<path d="M72.2629 43.3687H67.7285C66.7917 42.3299 65.4589 41.7368 64.0603 41.7368C62.6617 41.7368 61.3289 42.3299 60.3922 43.3687H55.8578C55.3154 43.3709 54.8093 43.6408 54.5049 44.0896C54.2005 44.5384 54.1372 45.1086 54.3358 45.6135L55.8577 49.928H72.2623L73.7843 45.6135C73.9829 45.1086 73.9196 44.5384 73.6152 44.0896C73.3108 43.6408 72.8053 43.3709 72.2629 43.3687Z" fill="#222222"/>
</g>
<defs>
<filter id="filter0_d_305_1194" x="0.0879047" y="0.793819" width="134.767" height="134.767" filterUnits="userSpaceOnUse" color-interpolation-filters="sRGB">
<feFlood flood-opacity="0" result="BackgroundImageFix"/>
<feColorMatrix in="SourceAlpha" type="matrix" values="0 0 0 0 0 0 0 0 0 0 0 0 0 0 0 0 0 0 127 0" result="hardAlpha"/>
<feOffset dx="3.41183" dy="5.11774"/>
<feGaussianBlur stdDeviation="10.662"/>
<feComposite in2="hardAlpha" operator="out"/>
<feColorMatrix type="matrix" values="0 0 0 0 0.0666667 0 0 0 0 0.0666667 0 0 0 0 0.0666667 0 0 0 0.1 0"/>
<feBlend mode="normal" in2="BackgroundImageFix" result="effect1_dropShadow_305_1194"/>
<feBlend mode="normal" in="SourceGraphic" in2="effect1_dropShadow_305_1194" result="shape"/>
</filter>
</defs>
</svg>
