<svg width="24" height="24" viewBox="0 0 24 24" fill="none" xmlns="http://www.w3.org/2000/svg">
<path d="M23.7561 4.39992C23.033 4.75031 22.2301 4.95941 21.4431 5.10069C21.8153 5.03288 22.363 4.3208 22.581 4.02693C22.916 3.58611 23.1925 3.08314 23.3467 2.5406C23.368 2.50104 23.3839 2.44453 23.3467 2.41062C23.2988 2.38801 23.2616 2.39932 23.2244 2.42192C22.3524 2.91925 21.4485 3.28094 20.4861 3.53525C20.4063 3.55786 20.3478 3.53525 20.2946 3.48439C20.2149 3.38831 20.1404 3.29789 20.0554 3.22442C19.6513 2.85708 19.2153 2.57451 18.7261 2.35976C18.0827 2.08284 17.3808 1.96416 16.6896 2.00937C16.0143 2.05458 15.355 2.25803 14.7595 2.59147C14.1586 2.9249 13.6269 3.38832 13.2015 3.94215C12.7602 4.5186 12.4359 5.20242 12.271 5.9258C12.1115 6.62093 12.1222 7.3104 12.2232 8.01683C12.2391 8.13551 12.2232 8.14681 12.1275 8.13551C8.3576 7.54211 5.24174 6.1123 2.70545 3.04358C2.59379 2.90794 2.5353 2.90794 2.44491 3.05488C1.33894 4.81812 1.87597 7.65514 3.25843 9.05104C3.44453 9.23753 3.63063 9.42403 3.838 9.59357C3.76356 9.61053 2.84369 9.50315 2.01953 9.05104C1.90787 8.97757 1.8547 9.01713 1.84407 9.15276C1.83343 9.34491 1.84407 9.5201 1.87597 9.72356C2.08866 11.5151 3.25312 13.1709 4.85358 13.8152C5.045 13.9 5.25237 13.9734 5.45974 14.013C5.09817 14.0978 4.72065 14.1599 3.67849 14.0695C3.55088 14.0412 3.49771 14.1147 3.55088 14.2447C4.3325 16.5166 6.02868 17.1947 7.29416 17.579C7.46431 17.6129 7.63446 17.6129 7.80461 17.6525C7.79398 17.6695 7.78334 17.6694 7.77271 17.6864C7.35265 18.3702 5.89575 18.8732 5.21515 19.1275C3.98157 19.5853 2.63632 19.7944 1.33362 19.6587C1.12625 19.6248 1.07839 19.6305 1.02522 19.6587C0.966734 19.6983 1.01991 19.7492 1.08371 19.8057C1.34957 19.9922 1.61543 20.1561 1.89192 20.3143C2.7214 20.7834 3.58278 21.1507 4.4867 21.4163C9.15517 22.784 14.4085 21.778 17.9125 18.082C20.6615 15.1772 21.6292 11.1703 21.6292 7.15781C21.6292 6.99957 21.8047 6.9148 21.9057 6.83003C22.6236 6.25924 23.1978 5.57541 23.7348 4.81247C23.8571 4.64293 23.8571 4.49034 23.8571 4.42818V4.40557C23.8571 4.3434 23.8571 4.36036 23.7614 4.40557L23.7561 4.39992Z" fill="#F3FF64"/>
</svg>
