<svg width="25" height="26" viewBox="0 0 25 26" fill="none" xmlns="http://www.w3.org/2000/svg">
<path d="M7.39844 6.39748C7.39818 6.92792 7.18721 7.43652 6.81195 7.8114C6.43669 8.18629 5.92787 8.39675 5.39744 8.39648C4.86701 8.39622 4.35841 8.18525 3.98352 7.80999C3.60863 7.43473 3.39818 6.92592 3.39844 6.39548C3.39871 5.86505 3.60967 5.35645 3.98493 4.98156C4.36019 4.60668 4.86901 4.39622 5.39944 4.39648C5.92987 4.39675 6.43848 4.60772 6.81336 4.98298C7.18825 5.35824 7.39871 5.86705 7.39844 6.39748ZM7.45844 9.87749H3.45844V22.3975H7.45844V9.87749ZM13.7784 9.87749H9.79844V22.3975H13.7384V15.8275C13.7384 12.1675 18.5084 11.8275 18.5084 15.8275V22.3975H22.4584V14.4675C22.4584 8.29748 15.3984 8.52748 13.7384 11.5575L13.7784 9.87749Z" fill="#0A0B36"/>
</svg>
