<svg width="29" height="29" viewBox="0 0 29 29" fill="none" xmlns="http://www.w3.org/2000/svg">
<path d="M14.5429 10.5318C13.6503 10.5318 12.7943 10.8864 12.1631 11.5175C11.5319 12.1487 11.1773 13.0048 11.1773 13.8974C11.1773 14.79 11.5319 15.6461 12.1631 16.2772C12.7943 16.9084 13.6503 17.263 14.5429 17.263C15.4356 17.263 16.2916 16.9084 16.9228 16.2772C17.554 15.6461 17.9086 14.79 17.9086 13.8974C17.9086 13.0048 17.554 12.1487 16.9228 11.5175C16.2916 10.8864 15.4356 10.5318 14.5429 10.5318ZM14.5429 8.28806C16.0306 8.28806 17.4574 8.87904 18.5094 9.931C19.5613 10.9829 20.1523 12.4097 20.1523 13.8974C20.1523 15.3851 19.5613 16.8118 18.5094 17.8638C17.4574 18.9157 16.0306 19.5067 14.5429 19.5067C13.0553 19.5067 11.6285 18.9157 10.5765 17.8638C9.52455 16.8118 8.93357 15.3851 8.93357 13.8974C8.93357 12.4097 9.52455 10.9829 10.5765 9.931C11.6285 8.87904 13.0553 8.28806 14.5429 8.28806ZM21.8351 8.00759C21.8351 8.37951 21.6873 8.7362 21.4244 8.99919C21.1614 9.26218 20.8047 9.40993 20.4328 9.40993C20.0608 9.40993 19.7041 9.26218 19.4412 8.99919C19.1782 8.7362 19.0304 8.37951 19.0304 8.00759C19.0304 7.63567 19.1782 7.27898 19.4412 7.01599C19.7041 6.753 20.0608 6.60525 20.4328 6.60525C20.8047 6.60525 21.1614 6.753 21.4244 7.01599C21.6873 7.27898 21.8351 7.63567 21.8351 8.00759ZM14.5429 4.92245C11.7674 4.92245 11.3142 4.9303 10.0229 4.98752C9.14336 5.02903 8.55325 5.14682 8.00578 5.35998C7.54763 5.52819 7.13343 5.7978 6.79416 6.14865C6.44302 6.4879 6.17304 6.90208 6.00437 7.36027C5.79121 7.90999 5.67341 8.49897 5.63303 9.37739C5.57469 10.6159 5.56684 11.049 5.56684 13.8974C5.56684 16.674 5.57469 17.1261 5.63191 18.4174C5.67341 19.2958 5.79121 19.887 6.00324 20.4334C6.19396 20.9214 6.41834 21.2726 6.7908 21.645C7.16887 22.022 7.52001 22.2475 8.00242 22.4337C8.55662 22.648 9.14672 22.7669 10.0218 22.8073C11.2604 22.8656 11.6934 22.8723 14.5418 22.8723C17.3184 22.8723 17.7706 22.8645 19.0618 22.8073C19.9391 22.7658 20.5292 22.648 21.0778 22.4359C21.5356 22.2669 21.9496 21.9974 22.2895 21.6473C22.6675 21.2703 22.893 20.9192 23.0792 20.4356C23.2924 19.8837 23.4113 19.2936 23.4517 18.4163C23.51 17.1789 23.5168 16.7447 23.5168 13.8974C23.5168 11.1219 23.5089 10.6686 23.4517 9.37739C23.4102 8.50009 23.2913 7.90774 23.0792 7.36027C22.9101 6.90257 22.6406 6.48856 22.2906 6.14865C21.9515 5.79733 21.5372 5.52732 21.079 5.35886C20.5292 5.1457 19.9391 5.0279 19.0618 4.98752C17.8244 4.92918 17.3925 4.92245 14.5429 4.92245ZM14.5429 2.67871C17.5911 2.67871 17.9714 2.68993 19.1684 2.74602C20.3621 2.80212 21.1766 2.98947 21.8912 3.26769C22.6316 3.55265 23.2554 3.93857 23.8791 4.56121C24.4496 5.12202 24.891 5.80041 25.1727 6.54916C25.4498 7.26379 25.6382 8.07827 25.6943 9.27306C25.7471 10.469 25.7616 10.8493 25.7616 13.8974C25.7616 16.9455 25.7504 17.3258 25.6943 18.5217C25.6382 19.7165 25.4498 20.5299 25.1727 21.2456C24.8918 21.9948 24.4503 22.6733 23.8791 23.2336C23.3182 23.8038 22.6398 24.2452 21.8912 24.5271C21.1766 24.8042 20.3621 24.9927 19.1684 25.0488C17.9714 25.1015 17.5911 25.1161 14.5429 25.1161C11.4948 25.1161 11.1145 25.1049 9.91745 25.0488C8.72378 24.9927 7.91042 24.8042 7.19467 24.5271C6.44563 24.246 5.76712 23.8045 5.20672 23.2336C4.63617 22.6728 4.19475 21.9944 3.9132 21.2456C3.63498 20.531 3.44763 19.7165 3.39153 18.5217C3.33768 17.3258 3.32422 16.9455 3.32422 13.8974C3.32422 10.8493 3.33544 10.469 3.39153 9.27306C3.44763 8.07714 3.63498 7.26491 3.9132 6.54916C4.19393 5.79995 4.63546 5.12138 5.20672 4.56121C5.76728 3.99043 6.44574 3.54898 7.19467 3.26769C7.9093 2.98947 8.72265 2.80212 9.91745 2.74602C11.1145 2.69329 11.4948 2.67871 14.5429 2.67871Z" fill="#0A0B36"/>
</svg>
