<svg width="72" height="72" viewBox="0 0 72 72" fill="none" xmlns="http://www.w3.org/2000/svg">
<path d="M51 39.0004H63V57.0004C63 60.3142 60.3138 63.0004 57 63.0004M51 39.0004V57.0004C51 60.3142 53.6862 63.0004 57 63.0004M51 39.0004V17.2716C51 14.5554 51 13.1973 50.4294 12.4097C49.9317 11.7227 49.1664 11.2786 48.3228 11.1873C47.3559 11.0826 46.1769 11.7564 43.8186 13.104L42.8814 13.6395C42.0135 14.1355 41.5794 14.3835 41.1186 14.4806C40.7106 14.5665 40.2894 14.5665 39.8814 14.4806C39.4206 14.3835 38.9865 14.1355 38.1186 13.6395L32.3814 10.3611C31.5135 9.86515 31.0794 9.61714 30.6186 9.52003C30.2106 9.43408 29.7893 9.43408 29.3815 9.52003C28.9206 9.61714 28.4866 9.86515 27.6185 10.3612L21.8815 13.6395C21.0134 14.1355 20.5794 14.3835 20.1185 14.4806C19.7107 14.5665 19.2893 14.5665 18.8815 14.4806C18.4206 14.3835 17.9866 14.1355 17.1185 13.6395L16.1815 13.104C13.8232 11.7564 12.644 11.0826 11.6771 11.1873C10.8337 11.2786 10.0683 11.7227 9.5706 12.4097C9 13.1973 9 14.5554 9 17.2716V48.6004C9 53.6407 9 56.161 9.98094 58.0864C10.8438 59.7796 12.2206 61.1566 13.9141 62.0194C15.8393 63.0004 18.3595 63.0004 23.4 63.0004H57M36 31.5004C34.5 31.1284 32.0553 31.1146 30 31.1284C29.3127 31.1329 29.7282 31.1038 28.8 31.1284C26.3777 31.204 24.0049 32.2108 24 35.0629C23.9947 38.1013 27 39.0004 30 39.0004C33 39.0004 36 39.694 36 42.9379C36 45.3757 33.5775 46.444 30.5583 46.7977C28.1583 46.7977 27 46.8754 24 46.5004M30 48.0004V51.0004M30 27.0003V30.0003" stroke="#2225B5" stroke-width="4" stroke-linecap="round" stroke-linejoin="round"/>
</svg>
