<svg width="73" height="72" viewBox="0 0 73 72" fill="none" xmlns="http://www.w3.org/2000/svg">
<path d="M63.5 36C63.5 50.9118 51.4118 63 36.5 63C21.5883 63 9.5 50.9118 9.5 36C9.5 21.0883 21.5883 9 36.5 9M51.5 36C51.5 44.2842 44.7842 51 36.5 51C28.2157 51 21.5 44.2842 21.5 36C21.5 27.7157 28.2157 21 36.5 21M44.7737 28.0549L56.6507 29.3023L63.0887 20.2888L55.3628 17.7135L52.7876 9.98763L43.7741 16.4258L44.7737 28.0549ZM44.7737 28.0549L36.5 35.9997" stroke="#2225B5" stroke-width="4" stroke-linecap="round" stroke-linejoin="round"/>
</svg>
