<svg width="73" height="72" viewBox="0 0 73 72" fill="none" xmlns="http://www.w3.org/2000/svg">
<path d="M27.5 54L21.5 63M45.5 54L51.5 63M21.5 42H51.5M24.5 42V33M36.5 42V18M48.5 42V27M19.1 54H53.9C57.2603 54 58.9406 54 60.224 53.346C61.3529 52.7709 62.2709 51.8529 62.846 50.724C63.5 49.4406 63.5 47.7603 63.5 44.4V18.6C63.5 15.2397 63.5 13.5595 62.846 12.2761C62.2709 11.1471 61.3529 10.2292 60.224 9.65397C58.9406 9 57.2603 9 53.9 9H19.1C15.7397 9 14.0595 9 12.7761 9.65397C11.6471 10.2292 10.7292 11.1471 10.154 12.2761C9.5 13.5595 9.5 15.2397 9.5 18.6V44.4C9.5 47.7603 9.5 49.4406 10.154 50.724C10.7292 51.8529 11.6471 52.7709 12.7761 53.346C14.0595 54 15.7397 54 19.1 54Z" stroke="#2225B5" stroke-width="4" stroke-linecap="round" stroke-linejoin="round"/>
</svg>
