<svg width="27" height="23" viewBox="0 0 27 23" fill="none" xmlns="http://www.w3.org/2000/svg">
<path fill-rule="evenodd" clip-rule="evenodd" d="M2.36163 9.57521C9.46315 6.48119 14.1986 4.44143 16.568 3.45591C23.3331 0.64207 24.7388 0.153275 25.6551 0.137135C25.8566 0.133585 26.3072 0.183527 26.5991 0.420356C26.8455 0.62033 26.9133 0.890466 26.9458 1.08006C26.9782 1.26966 27.0186 1.70157 26.9865 2.03905C26.6199 5.89098 25.0336 15.2386 24.2266 19.5529C23.8851 21.3784 23.2127 21.9905 22.5618 22.0504C21.1471 22.1805 20.0729 21.1155 18.7028 20.2173C16.5587 18.8119 15.3475 17.937 13.2664 16.5655C10.8612 14.9806 12.4204 14.1095 13.791 12.6858C14.1498 12.3133 20.3827 6.64391 20.5034 6.12961C20.5185 6.06529 20.5325 5.82553 20.39 5.69892C20.2476 5.57232 20.0374 5.61561 19.8856 5.65005C19.6706 5.69885 16.2455 7.96272 9.61034 12.4416C8.63813 13.1092 7.75754 13.4345 6.96856 13.4175C6.09877 13.3987 4.42565 12.9257 3.18185 12.5214C1.65629 12.0255 0.443797 11.7633 0.549378 10.9211C0.604371 10.4824 1.20845 10.0338 2.36163 9.57521Z" fill="#0A0B36"/>
</svg>
