<svg width="49" height="55" viewBox="0 0 49 55" fill="none" xmlns="http://www.w3.org/2000/svg">
<g clip-path="url(#clip0_80_610)">
<g clip-path="url(#clip1_80_610)">
<path fill-rule="evenodd" clip-rule="evenodd" d="M22.6327 0.423828C23.1095 0.423828 23.6118 0.483423 24.0289 0.594099C24.395 0.687748 24.9058 0.849505 25.1612 0.951668C25.4167 1.05383 25.8934 1.29221 26.2254 1.47951C26.5575 1.67532 27.1023 2.09248 27.4514 2.42451C27.7919 2.74803 28.2432 3.25033 28.4475 3.53127C28.6433 3.81222 28.9413 4.33155 29.1115 4.6806C29.2733 5.02966 29.4946 5.64263 29.5968 6.04277C29.7756 6.74088 29.7841 6.95372 29.8522 16.0462L30.1502 16.1909C30.3034 16.2761 30.6184 16.5144 30.8398 16.7188C31.0952 16.9486 31.3421 17.2892 31.4953 17.6297C31.7422 18.149 31.7507 18.2342 31.7763 19.5538C31.7933 20.4051 31.8359 20.9415 31.8869 20.9415C31.938 20.9415 32.1934 21.0266 32.4574 21.1288C32.7298 21.2309 33.1555 21.4778 33.8451 22.0482H37.0376L37.0972 21.6481C37.1313 21.4182 37.2249 21.1458 37.3186 21.0266C37.4037 20.9074 37.6081 20.7371 37.7698 20.6435C38.0422 20.4817 38.2125 20.4732 40.9113 20.4732C43.6356 20.4732 43.7804 20.4817 44.0613 20.652C44.2231 20.7457 44.4444 20.9585 44.7509 21.4097L44.7254 29.1315C44.6998 36.7 44.6998 36.8533 44.5296 37.0832C44.4359 37.2023 44.2486 37.3896 44.1209 37.4918C43.8825 37.6621 43.8059 37.6706 40.9113 37.6706C38.0763 37.6706 37.9316 37.6621 37.7102 37.5003C37.591 37.4067 37.4122 37.2364 37.3186 37.1172C37.2335 36.998 37.1313 36.7426 37.0376 36.1807H33.2917L32.9937 36.4787C32.832 36.649 32.4999 36.9044 32.2701 37.0576C32.0317 37.2023 31.623 37.3896 31.3506 37.4748C31.0526 37.5684 30.6269 37.628 30.2438 37.6195C29.9118 37.611 29.5117 37.5855 29.3755 37.5514C29.1371 37.5003 29.0945 37.5344 28.8136 37.9686C28.6433 38.224 28.3283 38.5986 28.1154 38.7944C27.8941 38.9987 27.5706 39.2371 27.3918 39.3222C27.2215 39.4074 26.864 39.5436 26.6086 39.6202C26.3531 39.6968 25.9104 39.7564 25.6295 39.7564C25.3485 39.7564 24.974 39.7138 24.4802 39.5861L24.2248 40.0118C24.0885 40.2417 23.8076 40.5993 23.6033 40.7951C23.4075 40.9994 23.0158 41.2803 22.7349 41.4251C22.4539 41.5698 22.0112 41.7401 21.7558 41.7997C21.4834 41.8593 21.0322 41.8933 20.6916 41.8678C20.3596 41.8422 20.0276 41.7997 19.9424 41.7656C19.8318 41.7316 19.7551 41.7997 19.6274 42.0551C19.5338 42.2424 19.3124 42.5574 19.1337 42.7532C18.9634 42.949 18.6228 43.2299 18.393 43.3747C18.1546 43.5279 17.7374 43.7322 17.4565 43.8259C17.1074 43.9536 16.7414 44.0132 16.2816 44.0132C15.7453 44.0132 15.5154 43.9706 15.0046 43.7578C14.6726 43.613 14.2384 43.3917 14.0596 43.264C13.8808 43.1363 13.5743 42.8639 13.3955 42.651C13.1912 42.4212 12.7655 41.672 12.3569 40.8206C11.9738 40.0203 11.3182 38.6582 10.1348 36.1807H8.8578L8.7982 36.5383C8.76415 36.7426 8.66199 36.998 8.57685 37.1172C8.4832 37.2364 8.30442 37.4067 8.18523 37.5003C7.96388 37.6621 7.81915 37.6706 4.98414 37.6706C2.10656 37.6706 2.01291 37.6621 1.77453 37.4918C1.64683 37.3982 1.45102 37.1853 1.14453 36.7341L1.17007 29.0123C1.19561 21.3161 1.19561 21.2905 1.37439 21.0522C1.47656 20.9244 1.68088 20.7371 1.84264 20.6435C2.11507 20.4817 2.28534 20.4732 4.98414 20.4732C7.68293 20.4732 7.8532 20.4817 8.12563 20.6435C8.28739 20.7371 8.49172 20.9074 8.57685 21.0266C8.6705 21.1458 8.76415 21.4182 8.8578 22.0482H14.0936L14.1362 18.1746L14.3916 17.6297C14.5704 17.2551 14.7918 16.9571 15.1153 16.6677C15.3707 16.4293 15.7623 16.1824 16.3838 15.961L18.7591 11.3637L17.0734 11.3212C15.5239 11.2786 15.3622 11.2616 15.1408 11.0998C15.0131 10.9977 14.8258 10.7933 14.7322 10.6316C14.5789 10.3762 14.5619 10.1548 14.5363 8.85224C14.5193 8.03494 14.5278 7.1325 14.5534 6.85156C14.5874 6.51953 14.6726 6.23858 14.8003 6.05128C14.962 5.8129 15.5324 5.48087 17.9332 4.22087C19.5423 3.36951 20.913 2.65438 20.9726 2.61181C21.0407 2.57776 21.0747 2.33938 21.0747 1.95627C21.0747 1.5987 21.1258 1.25816 21.2025 1.10491C21.2706 0.960182 21.4579 0.755856 21.6111 0.636667C21.8495 0.449369 21.9687 0.423828 22.6327 0.423828ZM23.3308 4.11871C23.2031 4.30601 22.3943 4.77425 20.1808 5.92358L17.2011 7.48156L17.1585 8.7671C21.1684 8.80967 21.3387 8.81818 21.5515 8.97994C21.6707 9.07359 21.858 9.26089 21.9602 9.38859C22.0879 9.55886 22.1389 9.74616 22.1304 10.0271C22.1304 10.3677 21.9431 10.7763 20.8874 12.811C20.2064 14.1221 19.5678 15.3566 19.4657 15.5524L19.2869 15.9185H27.2896C27.2386 7.54967 27.213 6.96223 27.0853 6.51101C27.0087 6.23007 26.8129 5.77034 26.6681 5.48939C26.5149 5.20844 26.1488 4.72317 25.8423 4.41668C25.4337 4.00803 25.1017 3.76114 24.5653 3.49722C24.1652 3.30141 23.7906 3.14816 23.7395 3.14816C23.6799 3.14816 23.6033 3.30992 23.5692 3.50573C23.5352 3.71006 23.433 3.98249 23.3308 4.11871ZM16.6392 20.4221L16.6477 22.0482L22.9903 22.0397C23.7821 21.4438 24.2248 21.1884 24.4802 21.0862C24.9058 20.9244 25.1272 20.8989 27.0938 20.8819L29.2478 20.8563C29.2478 19.2728 29.2137 18.7365 29.1626 18.6428C29.0775 18.4725 28.9923 18.4725 22.9477 18.4725C16.9797 18.4725 16.818 18.4811 16.7243 18.6343C16.6647 18.745 16.6392 19.3665 16.6392 20.4221ZM3.7071 35.1591H6.26117V22.9847H3.7071V35.1591ZM39.6343 35.1591H42.1883V22.9847H39.6343V35.1591ZM22.6412 26.007C20.7597 27.9396 20.3085 28.4504 20.266 28.6888C20.2319 28.8506 20.2319 29.106 20.266 29.2422C20.3 29.3784 20.3937 29.5997 20.4873 29.736C20.5724 29.8637 20.7597 30.0254 20.9045 30.0935C21.0407 30.1616 21.3131 30.2212 21.5004 30.2212C21.6877 30.2212 21.9431 30.1702 22.0708 30.102C22.207 30.0339 23.135 29.1485 24.1396 28.1354C25.1442 27.1223 26.1148 26.2199 26.285 26.1262C26.5745 25.9815 26.7958 25.9645 28.3709 25.9645C30.0395 25.9645 30.1587 25.9815 30.4822 26.1603C30.8057 26.3391 30.8994 26.5093 32.2445 29.1996C33.0278 30.7661 33.7429 32.2985 33.8366 32.605C33.9302 32.9115 34.0324 33.2606 34.0579 33.3968L34.1005 33.6267H37.0802V24.6023C33.4024 24.6023 33.0363 24.5768 32.7979 24.4661C32.6532 24.3895 32.3467 24.1596 32.1168 23.9553C31.8955 23.7509 31.623 23.5466 31.5038 23.4955C31.3761 23.4445 30.1417 23.4104 28.4134 23.4104C26.3872 23.4189 25.4592 23.4445 25.2464 23.5211C25.0421 23.5977 24.2758 24.3214 22.6412 26.007ZM8.81523 33.6267C11.2416 33.6181 11.3438 33.6352 11.6247 33.8225C11.8886 33.9927 12.1185 34.4269 13.5488 37.4152C14.4512 39.2882 15.2855 40.9228 15.4047 41.059C15.5239 41.1867 15.7708 41.3314 15.9411 41.3825C16.1199 41.4336 16.4093 41.4591 16.5796 41.4251C16.7754 41.3995 17.0053 41.2718 17.1585 41.1186C17.2947 40.9824 17.4565 40.7184 17.5076 40.5482C17.5927 40.2842 17.5757 40.114 17.448 39.6287L17.2947 39.0328C17.6438 38.3432 17.8141 38.1473 18.0099 38.0452C18.1716 37.9515 18.4611 37.8834 18.6484 37.8834C18.8357 37.8834 19.0996 37.9515 19.2443 38.0367C19.3806 38.1218 19.6104 38.3602 19.7551 38.5645C19.8914 38.7688 20.1468 39.0328 20.3085 39.1349C20.4958 39.2626 20.7257 39.3307 20.947 39.3307C21.1343 39.3307 21.4153 39.2541 21.56 39.1605C21.7133 39.0668 21.9176 38.8625 22.0198 38.7178C22.156 38.4879 22.1815 38.3517 22.1389 37.9686C22.1134 37.7132 22.0708 37.33 22.0453 37.1172C22.0198 36.8448 22.0453 36.649 22.156 36.4446C22.2411 36.2829 22.4029 36.0786 22.5221 35.9934C22.6412 35.9083 22.9052 35.8146 23.118 35.7891C23.3904 35.7465 23.5948 35.7806 23.8331 35.8913C24.046 36.0019 24.2588 36.1977 24.4376 36.4787C24.5994 36.7511 24.8207 36.9555 25.0165 37.0576C25.1868 37.1342 25.4762 37.2023 25.6465 37.2023C25.8423 37.2023 26.0807 37.1342 26.2595 37.015C26.4213 36.9044 26.6171 36.683 26.7107 36.5213C26.7958 36.3595 26.864 36.1041 26.864 35.9679C26.864 35.8317 26.8044 35.5422 26.7448 35.3294C26.6596 35.0569 26.6426 34.8526 26.7022 34.6057C26.7448 34.4184 26.864 34.1715 26.9661 34.0694C27.0768 33.9587 27.2641 33.814 27.3918 33.7458C27.528 33.6777 27.7579 33.6267 27.9026 33.6267C28.0559 33.6267 28.3198 33.6948 28.473 33.7799C28.6348 33.8565 28.8902 34.0949 29.0349 34.3077C29.1796 34.5206 29.435 34.776 29.5968 34.8867C29.7756 35.0059 30.014 35.074 30.2268 35.074C30.4141 35.074 30.7036 35.0059 30.8653 34.9122C31.0611 34.81 31.2314 34.6142 31.3676 34.3418C31.5549 33.9672 31.5719 33.8906 31.4868 33.5841C31.4272 33.3968 30.8653 32.1794 30.2353 30.8853L29.0775 28.5185H27.4173C23.9864 31.9325 23.7821 32.1027 23.1606 32.4092C22.488 32.7242 22.4625 32.7327 21.4919 32.7327C20.5384 32.7327 20.4958 32.7242 19.8743 32.4177C19.4401 32.2049 19.0996 31.958 18.7761 31.6089C18.5122 31.3365 18.1972 30.9023 18.078 30.6469C17.9503 30.3915 17.797 29.9148 17.7374 29.5827C17.6608 29.106 17.6608 28.8591 17.7545 28.3483C17.8141 27.9992 17.9843 27.4799 18.1291 27.1989C18.3078 26.8499 18.708 26.3561 19.4146 25.641L20.4362 24.5938L8.81523 24.6023V33.6267Z" fill="#A2A4FF"/>
</g>
</g>
<defs>
<clipPath id="clip0_80_610">
<rect width="48" height="55" fill="white" transform="translate(0.183594)"/>
</clipPath>
<clipPath id="clip1_80_610">
<rect width="45" height="45" fill="white" transform="translate(0.183594)"/>
</clipPath>
</defs>
</svg>
