<svg width="53" height="52" viewBox="0 0 53 52" fill="none" xmlns="http://www.w3.org/2000/svg">
<g clip-path="url(#clip0_80_641)">
<g clip-path="url(#clip1_80_641)">
<g clip-path="url(#clip2_80_641)">
<path fill-rule="evenodd" clip-rule="evenodd" d="M34.8043 1.09749C37.5353 1.05791 38.6832 1.25581 40.9392 2.12657C42.4432 2.72027 44.62 3.94723 45.6888 4.81799C46.797 5.72833 48.3406 7.31152 49.1717 8.41975C49.9634 9.48841 51.032 11.3487 51.4674 12.536C51.9028 13.7234 52.3778 15.9399 52.4965 17.4835C52.6548 19.3834 52.4965 21.0457 52.0611 22.7476C51.7049 24.0934 51.032 25.9536 50.5967 26.8639C50.1216 27.8139 49.1717 29.2783 48.4593 30.149C47.7864 31.0198 46.2428 32.4051 45.0555 33.1966C43.8681 34.0279 41.8495 35.0569 40.5434 35.5318C38.9998 36.0464 37.1396 36.363 35.2001 36.363C33.5773 36.363 31.2421 36.086 30.0547 35.7693C28.8674 35.4131 26.8488 34.5424 23.4053 32.5239L21.6242 34.3049C20.1202 35.809 19.8827 36.2047 20.1994 36.9568C20.3973 37.5108 20.3973 38.4607 20.1598 39.3316C19.8827 40.5189 18.6161 42.023 14.2228 46.258C8.95874 51.4429 8.60253 51.7199 7.09849 51.7199C6.18816 51.7199 5.04035 51.4034 4.32791 50.9284C3.69464 50.493 2.86346 49.6223 2.54682 48.9494C2.23018 48.2765 1.95312 47.3266 1.95312 46.7725C1.95312 46.2185 2.15102 45.3873 2.3885 44.8727C2.62599 44.3977 5.07993 41.746 7.8505 38.9357C11.6897 35.0569 13.1938 33.7903 14.3416 33.5133C15.2124 33.2758 16.1623 33.2758 16.7163 33.4738C17.4684 33.7903 17.8642 33.5528 21.3077 30.149L20.5556 29.1595C20.1598 28.6054 19.3682 27.1805 18.8141 25.9932C18.2599 24.8058 17.6662 22.6685 17.4684 21.2435C17.2309 19.7396 17.2309 17.6419 17.4289 16.1774C17.6267 14.8317 18.2204 12.7735 18.735 11.6257C19.2099 10.5175 20.3578 8.65723 21.2285 7.58857C22.0992 6.48034 23.4845 5.13463 24.3553 4.54093C25.1865 3.94723 27.1655 2.91817 28.6694 2.28489C30.9651 1.29539 31.9942 1.09749 34.8043 1.09749ZM26.6904 6.59908C25.8197 7.19278 24.5136 8.38017 23.7615 9.21135C23.0095 10.0425 21.9409 11.7445 21.4264 12.9318C20.8326 14.238 20.3578 16.1378 20.2389 17.6814C20.0806 19.6209 20.2786 20.9665 20.9118 23.0247C21.3472 24.5288 22.3763 26.6264 23.1283 27.6555C23.8804 28.7241 25.2656 30.0699 26.2156 30.7031C27.1258 31.3365 29.0256 32.2467 30.4506 32.7217C32.5482 33.4341 33.5378 33.5528 35.9917 33.355C38.129 33.1966 39.6331 32.8404 41.3349 31.9697C42.7202 31.2968 44.4618 29.9907 45.4909 28.8825C46.4803 27.8139 47.7073 26.0724 48.2615 25.0036C49.0926 23.2622 49.2509 22.5101 49.2509 18.8688C49.2509 15.1879 49.1322 14.4755 48.1823 12.536C47.6281 11.3487 46.2825 9.48841 45.2137 8.45933C44.1847 7.39067 42.3245 6.04497 41.1371 5.49084C39.356 4.62009 38.3269 4.42219 35.398 4.34303C32.9044 4.26388 31.3213 4.42219 30.0547 4.85757C29.0653 5.21379 27.5612 6.00538 26.6904 6.59908ZM5.19866 47.1684C5.3174 48.1578 5.5153 48.3557 6.5048 48.4745C7.57345 48.5932 8.2463 48.0391 12.5605 43.7249C15.4894 40.7564 17.3892 38.5399 17.3892 38.065C17.3892 37.6296 17.1913 37.0359 16.9143 36.7589C16.6372 36.4817 16.0436 36.2839 15.6082 36.2839C15.1332 36.2839 12.9167 38.1837 9.94824 41.1126C5.63404 45.4268 5.07993 46.0997 5.19866 47.1684ZM42.0078 10.9529C42.1662 10.9529 42.6015 11.032 42.9182 11.1508C43.4328 11.3091 43.5119 12.4965 43.5119 18.671C43.5119 25.2412 43.4328 26.0327 42.839 26.3494C42.4037 26.5869 41.8495 26.5869 41.4538 26.3494C40.8204 26.0327 40.7412 25.2015 40.6622 18.948C40.583 13.3277 40.7017 11.8236 41.1371 11.4278C41.4538 11.1508 41.8495 10.9529 42.0078 10.9529ZM33.419 14.3171L33.5378 20.0562C33.617 25.2015 33.5773 25.8349 32.9441 26.2702C32.4691 26.5869 31.9942 26.6264 31.5588 26.3889C30.9255 26.0327 30.8464 25.2807 30.7672 20.3333C30.7276 17.2065 30.8859 14.515 31.0443 14.3568C31.2421 14.1984 31.8754 14.1193 33.419 14.3171ZM37.377 16.0983C37.9312 16.0983 38.4457 16.3753 38.5644 16.692C38.6832 17.0085 38.7622 19.1458 38.7622 21.4415C38.7622 24.6079 38.604 25.7557 38.1687 26.1911C37.7728 26.5869 37.3506 26.666 36.9021 26.4286C36.5062 26.2702 36.0709 25.7952 35.9125 25.439C35.7147 25.0828 35.596 23.183 35.5563 21.204C35.5563 19.225 35.7147 17.2857 35.9522 16.8502C36.2292 16.4148 36.8229 16.0983 37.377 16.0983ZM27.482 18.8688C27.68 18.8688 28.1154 19.0667 28.3924 19.3437C28.7091 19.6604 28.8674 20.927 28.8674 22.7081C28.8674 24.7266 28.7091 25.7557 28.2737 26.1911C27.8383 26.6264 27.482 26.666 26.8884 26.3889C26.4529 26.1514 25.978 25.5182 25.8594 24.885C25.701 24.2912 25.6614 22.8663 25.7405 21.7185C25.8594 20.4124 26.1364 19.4625 26.4926 19.225C26.8093 19.0272 27.2842 18.8688 27.482 18.8688Z" fill="#A2A4FF"/>
</g>
</g>
</g>
<defs>
<clipPath id="clip0_80_641">
<rect width="52" height="52" fill="white" transform="translate(0.984375)"/>
</clipPath>
<clipPath id="clip1_80_641">
<rect width="52" height="52" fill="white" transform="translate(0.984375)"/>
</clipPath>
<clipPath id="clip2_80_641">
<rect width="52" height="52" fill="white" transform="translate(0.984375)"/>
</clipPath>
</defs>
</svg>
