<svg width="39" height="52" viewBox="0 0 39 52" fill="none" xmlns="http://www.w3.org/2000/svg">
<g clip-path="url(#clip0_80_618)">
<g clip-path="url(#clip1_80_618)">
<g clip-path="url(#clip2_80_618)">
<path fill-rule="evenodd" clip-rule="evenodd" d="M18.673 1.03125C18.9013 1.03125 19.2092 1.11069 19.3581 1.20007C19.517 1.28945 20.3413 2.05409 21.2053 2.90813C22.0692 3.76215 22.8636 4.62612 22.9728 4.83465C23.0722 5.03326 23.1615 5.34112 23.1615 5.50001C23.1615 5.66882 23.0722 5.97667 22.963 6.19514C22.8306 6.45995 22.6319 6.65857 22.3671 6.79097C22.1487 6.9002 21.8309 6.98959 21.672 6.98959C21.5131 6.98959 21.225 6.92007 21.0464 6.8307C20.8776 6.74131 20.6094 6.55264 20.1824 6.14549V10.217L20.8974 10.3461C21.2946 10.4256 22.0195 10.6142 22.516 10.7831C23.0026 10.9419 23.807 11.2796 24.3036 11.5378C24.7902 11.796 25.5349 12.2627 25.9421 12.5705C26.3492 12.8684 27.0742 13.5338 27.5509 14.0304C28.0375 14.5269 28.4645 14.9241 28.5042 14.9141C28.5439 14.8944 29.3086 14.4673 30.1924 13.9707C31.0762 13.4644 31.821 12.9975 31.8508 12.9479C31.8805 12.8983 31.821 12.8486 31.7217 12.8486C31.6323 12.8486 31.3742 12.7692 31.1557 12.6699C30.9074 12.5507 30.6691 12.3422 30.5201 12.0939C30.3215 11.786 30.2917 11.6073 30.3215 11.1902C30.3513 10.7632 30.4208 10.6043 30.7088 10.3163C30.9968 10.0184 31.1457 9.94889 31.5529 9.89924C31.9501 9.85951 32.4765 9.96875 34.1348 10.4156C35.2768 10.7235 36.3791 11.0512 36.5678 11.1505C36.7863 11.2597 37.0047 11.4981 37.1437 11.7662C37.3126 12.0839 37.3523 12.2925 37.3126 12.5507C37.2828 12.7394 36.9948 13.8416 36.687 14.9837C36.3791 16.1357 36.0415 17.1982 35.9422 17.3471C35.8528 17.4961 35.6244 17.6848 35.4457 17.7841C35.2768 17.8735 34.9491 17.9429 34.7307 17.9429C34.5122 17.9429 34.1845 17.8735 34.0057 17.7841C33.8369 17.6848 33.5887 17.4464 33.4694 17.2479C33.2908 16.9301 33.261 16.7712 33.3702 15.5795L31.6621 16.5527C30.7287 17.089 29.9541 17.5358 29.9442 17.5458C29.9342 17.5557 30.0733 18.0324 30.262 18.6083C30.4407 19.1844 30.6492 20.0085 30.7088 20.4455C30.7783 20.8824 30.8081 21.7266 30.7882 22.3323C30.7584 22.9381 30.7088 23.5041 30.679 23.6034C30.6194 23.7524 30.6989 23.7723 31.5727 23.7723C32.3275 23.7723 32.6353 23.8218 32.9631 23.9708C33.2013 24.0801 33.4794 24.3184 33.5986 24.4971C33.7872 24.795 33.7971 24.9142 33.7476 26.4038C33.7078 27.5558 33.6283 28.3304 33.4397 29.234C33.3007 29.9192 32.9928 31.0613 32.7545 31.7663C32.5161 32.4714 32.1289 33.4844 31.9004 34.0007C31.6621 34.5171 30.9769 35.8775 30.3712 37.0295C29.7753 38.1815 29.1993 39.3731 29.1 39.6908C28.9412 40.2073 28.9213 40.7336 28.9213 45.4705C28.9213 49.8796 28.9014 50.7337 28.7723 51.0316C28.6929 51.2203 28.4545 51.4884 27.8786 51.8757H11.2946L10.947 51.6473C10.7583 51.5182 10.52 51.2501 10.4207 51.0515C10.2816 50.7436 10.2518 50.396 10.2518 47.3077H7.5408C5.05816 47.3077 4.8099 47.2878 4.41267 47.1091C4.18427 46.9997 3.90622 46.7714 3.79698 46.5926C3.6083 46.2749 3.59837 46.0862 3.59837 37.8736L2.62517 37.8438C1.95982 37.8239 1.5626 37.7644 1.33421 37.6452C1.16538 37.5558 0.927049 37.3274 0.817812 37.1486C0.698645 36.96 0.619201 36.6621 0.619201 36.384C0.619201 36.0563 1.01642 34.8547 3.59837 27.8437V26.3244C3.59837 24.9937 3.61823 24.7752 3.79698 24.4971C3.90622 24.3084 4.18427 24.0801 4.41267 23.9708C4.75032 23.8218 5.05816 23.7723 5.80295 23.7723C6.68677 23.7723 6.76622 23.7524 6.70664 23.5935C6.67684 23.5041 6.62719 22.9083 6.59739 22.2826C6.57092 21.5212 6.61063 20.8427 6.71656 20.2469C6.79601 19.7603 7.00455 18.946 7.16344 18.4594C7.33225 17.9728 7.45143 17.5557 7.44149 17.5458C7.43156 17.5358 6.64704 17.0791 3.99559 15.5299L4.06511 16.1952C4.12469 16.7812 4.10482 16.9202 3.91614 17.2379C3.79698 17.4464 3.54871 17.6848 3.36997 17.7841C3.20114 17.8735 2.87344 17.9429 2.65497 17.9529C2.43649 17.9529 2.10879 17.8636 1.91017 17.7544C1.72149 17.645 1.48316 17.4167 1.39379 17.2578C1.30441 17.0989 0.95684 15.9569 0.629131 14.7057C0.102812 12.7394 0.033298 12.4017 0.122673 12.074C0.182256 11.8755 0.301423 11.6172 0.400729 11.508C0.490103 11.3888 0.639062 11.2498 0.718507 11.1902C0.797951 11.1207 1.87045 10.8029 3.10184 10.4653C4.9092 9.96875 5.42559 9.85951 5.83275 9.89924C6.2399 9.94889 6.38886 10.0184 6.67684 10.3163C6.96482 10.6043 7.03434 10.7632 7.06413 11.1902C7.09392 11.6073 7.06413 11.786 6.86553 12.0939C6.71656 12.3422 6.47823 12.5507 6.22997 12.6699C6.01149 12.7692 5.7533 12.8486 5.654 12.8486C5.56461 12.8486 5.50503 12.8784 5.5249 12.9181C5.54476 12.9678 6.32927 13.4345 8.96087 14.934L9.82482 14.0304C10.3114 13.5338 11.0364 12.8684 11.4435 12.5705C11.8506 12.2627 12.5955 11.796 13.0821 11.5378C13.5687 11.2796 14.383 10.9419 14.8695 10.7731C15.3561 10.6142 16.091 10.4156 17.2033 10.217V6.14549L16.935 6.40368C16.7762 6.55264 16.5081 6.74131 16.3293 6.8307C16.1605 6.92007 15.8725 6.98959 15.7136 6.98959C15.5448 6.98959 15.237 6.9002 15.0186 6.79097C14.7537 6.65857 14.5551 6.45995 14.4226 6.19514C14.3134 5.97667 14.2241 5.65889 14.2241 5.50001C14.2241 5.33118 14.3134 5.03326 14.4127 4.82472C14.522 4.62612 15.2966 3.78202 16.1308 2.95778C16.9649 2.13354 17.7792 1.36889 17.948 1.24972C18.1367 1.11069 18.4048 1.04118 18.6631 1.03125H18.673ZM15.8228 13.6034C15.4157 13.7424 14.7305 14.0403 14.3035 14.2686C13.8765 14.4971 13.2112 14.9539 12.8139 15.2816C12.4266 15.6093 11.8705 16.1655 11.5825 16.5229C11.2846 16.8804 10.8079 17.655 10.51 18.2607C10.2121 18.8666 9.90427 19.6213 9.8149 19.949C9.72553 20.2767 9.62622 21.0612 9.59643 21.6868L9.53683 22.8289C9.98371 23.3452 10.232 23.5637 10.3809 23.6332C10.5994 23.7424 11.2648 23.7723 13.2905 23.7723H15.9222C15.8427 23.4247 15.7931 23.0175 15.7534 22.6302C15.7136 22.1436 15.7434 21.7463 15.8626 21.3194C15.952 20.9718 16.1406 20.4555 16.2897 20.1773C16.4287 19.8894 16.7762 19.4226 17.0543 19.1446C17.3323 18.8666 17.8487 18.5091 18.2062 18.3303C18.5637 18.1615 19.1397 17.9728 19.4971 17.9132C19.8547 17.8437 20.5994 17.8139 21.1556 17.8337C21.9997 17.8536 22.2082 17.9033 22.4466 18.0721C22.5955 18.1913 22.8041 18.3899 22.9034 18.519C23.0026 18.6481 23.102 18.9559 23.1317 19.2041C23.1715 19.5219 23.1317 19.7504 23.0026 19.9886C22.9034 20.1773 22.6948 20.4257 22.5458 20.5349C22.3076 20.7136 22.0692 20.7534 20.9868 20.793C19.9143 20.8328 19.666 20.8725 19.4376 21.0413C19.2986 21.1505 19.09 21.3492 18.9808 21.4882C18.8715 21.6272 18.7723 21.935 18.7425 22.1834C18.7027 22.5012 18.7425 22.7295 18.8715 22.9778C18.9709 23.1664 19.2092 23.4247 19.3979 23.5537C19.7455 23.7723 19.7554 23.7822 23.241 23.7723C26.0513 23.7723 26.7961 23.7424 27.0146 23.6332C27.1735 23.5537 27.402 23.375 27.541 23.226C27.7792 22.9778 27.7892 22.9083 27.7792 21.806C27.7792 21.0215 27.7197 20.4356 27.6005 19.9986C27.5112 19.6412 27.2133 18.9062 26.955 18.3601C26.6869 17.8039 26.2102 17.0294 25.8726 16.6024C25.5349 16.1753 24.9292 15.5596 24.532 15.2319C24.1447 14.9141 23.4397 14.4474 22.9728 14.1992C22.5061 13.9508 21.7216 13.6331 21.235 13.4941C20.5101 13.2757 20.0931 13.216 19.0006 13.1962C18.2658 13.1763 17.4117 13.1962 17.1138 13.2558C16.8159 13.3055 16.23 13.4644 15.8228 13.6034ZM6.5676 27.6749C6.51795 28.5389 6.4683 28.7375 5.41566 31.5678C4.8099 33.2062 4.2935 34.6263 4.26371 34.7257C4.21406 34.8746 4.27365 34.8945 4.79997 34.8945C5.16739 34.8945 5.53482 34.9639 5.7533 35.0732C5.95191 35.1626 6.21011 35.4008 6.32927 35.5896C6.52788 35.9272 6.53781 36.0463 6.55767 40.1378L6.58746 44.3284C12.1486 44.3185 12.2081 44.3284 12.5358 44.547C12.7246 44.676 12.953 44.9342 13.0622 45.1229C13.2211 45.4208 13.241 45.7089 13.241 47.1884V48.8966H25.9521L26.0017 39.5122C26.4287 38.2807 27.0444 36.9897 27.6502 35.8379C28.246 34.6958 28.9312 33.3255 29.1696 32.8091C29.4079 32.2926 29.7654 31.3989 29.9541 30.8229C30.1427 30.247 30.391 29.3135 30.5002 28.7375C30.6094 28.1615 30.7287 27.4862 30.7585 27.2281L30.818 26.7514H6.61725L6.5676 27.6749Z" fill="#A2A4FF"/>
</g>
</g>
</g>
<defs>
<clipPath id="clip0_80_618">
<rect width="38.1333" height="52" fill="white" transform="translate(0.078125)"/>
</clipPath>
<clipPath id="clip1_80_618">
<rect width="38.1333" height="52" fill="white" transform="translate(0.078125)"/>
</clipPath>
<clipPath id="clip2_80_618">
<rect width="38.1333" height="52" fill="white" transform="translate(0.078125)"/>
</clipPath>
</defs>
</svg>
