<svg width="57" height="52" viewBox="0 0 57 52" fill="none" xmlns="http://www.w3.org/2000/svg">
<path d="M39.3171 34.9414L42.4421 31.8164C42.9303 31.3281 43.8092 31.7188 43.8092 32.4023V46.5625C43.8092 49.1992 41.6608 51.25 39.1217 51.25H4.74675C2.11003 51.25 0.0592499 49.1992 0.0592499 46.5625V12.1875C0.0592499 9.64844 2.11003 7.5 4.74675 7.5H31.4069C32.0905 7.5 32.4811 8.37891 31.9928 8.86719L28.8678 11.9922C28.6725 12.1875 28.4772 12.1875 28.2819 12.1875H4.74675V46.5625H39.1217V35.5273C39.1217 35.332 39.1217 35.1367 39.3171 34.9414ZM54.5514 15.3125L28.9655 40.8984L20.0788 41.875C17.5397 42.168 15.3913 40.0195 15.6842 37.4805L16.6608 28.5938L42.2467 3.00781C44.4928 0.761719 48.1061 0.761719 50.3522 3.00781L54.5514 7.20703C56.7975 9.45312 56.7975 13.0664 54.5514 15.3125ZM44.9811 18.2422L39.3171 12.5781L21.153 30.7422L20.3717 37.1875L26.8171 36.4062L44.9811 18.2422ZM51.2311 10.5273L47.0319 6.32812C46.6413 5.83984 45.9577 5.83984 45.5671 6.32812L42.6374 9.25781L48.3014 15.0195L51.3288 11.9922C51.7194 11.5039 51.7194 10.918 51.2311 10.5273Z" fill="#A2A4FF"/>
</svg>
