<svg width="51" height="50" viewBox="0 0 51 50" fill="none" xmlns="http://www.w3.org/2000/svg">
<g clip-path="url(#clip0_80_633)">
<g clip-path="url(#clip1_80_633)">
<g clip-path="url(#clip2_80_633)">
<path fill-rule="evenodd" clip-rule="evenodd" d="M24.9337 0.149414H26.0736L31.4761 5.54244C35.6526 9.70934 36.9171 11.0217 37.0608 11.3569C37.1948 11.6539 37.2332 11.8934 37.1948 12.1232C37.1661 12.3052 37.0416 12.583 36.9267 12.7364C36.8022 12.8896 36.5339 13.1003 36.3232 13.1962C35.9879 13.3399 35.6526 13.3686 31.5815 13.3686V24.0971L35.6814 24.1259C39.5705 24.145 39.7908 24.1546 40.0973 24.3366C40.2794 24.442 40.5188 24.6815 40.6241 24.8635C40.8158 25.1892 40.8253 25.352 40.8732 32.7184H44.8486C48.4216 32.7184 48.8622 32.7374 49.2166 32.8812C49.4944 32.9962 49.686 33.1781 50.0692 33.8199V40.9372C50.0692 47.6713 50.0596 48.0639 49.8872 48.4088C49.7914 48.6005 49.5519 48.8591 49.0154 49.1943H2.07795L1.72352 48.9644C1.52236 48.8303 1.28288 48.5717 1.19667 48.3896C1.03383 48.0736 1.02425 47.518 1.03383 33.8199L1.24457 33.4655C1.35952 33.2643 1.60857 33.0152 1.79058 32.9099C2.10668 32.7374 2.32701 32.7279 10.2202 32.7184V29.0495C10.2202 25.4382 10.2202 25.3807 10.4309 24.9593C10.565 24.7006 10.7853 24.4515 10.9865 24.3366C11.3026 24.1546 11.5038 24.145 19.5119 24.0971V13.177L17.1459 13.1482C14.8565 13.1291 14.7607 13.1195 14.4637 12.9087C14.2722 12.7842 14.0805 12.5352 13.9944 12.2862C13.8889 12.0179 13.8602 11.7593 13.9081 11.5006C13.9655 11.1462 14.4254 10.6672 19.4448 5.62865L24.9337 0.149414ZM18.803 10.2937C21.2457 10.3511 21.4565 10.3799 21.6767 10.5427C21.8204 10.6481 22.0312 10.8588 22.1461 11.0121L22.3473 11.2803L22.3952 46.4164H28.7174L28.7653 11.4048C29.1005 10.9259 29.3209 10.7247 29.4837 10.6385C29.6945 10.5427 30.0968 10.4948 30.9685 10.4948C31.6486 10.4948 32.1562 10.4661 32.1372 10.4086C32.1275 10.3607 30.6619 8.82807 28.8802 7.00804C27.1081 5.18801 25.5946 3.69367 25.5275 3.69367C25.4605 3.69367 23.9279 5.18801 22.1079 6.99847L18.803 10.2937ZM13.0843 36.7128L13.1034 46.3206H19.5215L19.4736 27.0187C14.6361 26.9805 13.1993 26.9996 13.1514 27.0379C13.1034 27.0666 13.0747 31.4251 13.0843 36.7128ZM31.5719 36.7128L31.5911 46.3206H38.0091L37.9612 27.0187C33.1238 26.9805 31.6869 26.9996 31.639 27.0379C31.5911 27.0666 31.5624 31.4251 31.5719 36.7128ZM3.90755 46.3206H10.2298V35.5921H3.90755V46.3206ZM40.8829 46.3206H47.205V35.5921H40.8829V46.3206Z" fill="#A2A4FF"/>
</g>
</g>
</g>
<defs>
<clipPath id="clip0_80_633">
<rect width="50" height="50" fill="white" transform="translate(0.984375)"/>
</clipPath>
<clipPath id="clip1_80_633">
<rect width="50" height="50" fill="white" transform="translate(0.984375)"/>
</clipPath>
<clipPath id="clip2_80_633">
<rect width="50" height="50" fill="white" transform="translate(0.984375)"/>
</clipPath>
</defs>
</svg>
