<svg width="50" height="50" viewBox="0 0 50 50" fill="none" xmlns="http://www.w3.org/2000/svg">
<path d="M44.0728 41.1279C47.899 36.6255 49.9997 30.9094 49.9997 25.0008C49.9997 19.0923 47.899 13.3762 44.0728 8.87376L45.8644 7.08209C46.2551 6.69118 46.4744 6.16109 46.4742 5.60844C46.4741 5.05579 46.2543 4.52586 45.8634 4.13522C45.4725 3.74458 44.9424 3.52523 44.3898 3.52542C43.8371 3.52562 43.3072 3.74534 42.9165 4.13626L41.1249 5.92793C36.6225 2.10173 30.9064 0.000976562 24.9978 0.000976562C19.0892 0.000976563 13.3731 2.10173 8.8707 5.92793L7.07903 4.13626C6.68585 3.75703 6.15944 3.54741 5.6132 3.55254C5.06695 3.55767 4.54457 3.77714 4.15858 4.16368C3.77258 4.55023 3.55385 5.07291 3.54949 5.61917C3.54513 6.16542 3.7555 6.69153 4.13528 7.08418L5.92695 8.87584C2.10076 13.3782 0 19.0943 0 25.0029C0 30.9115 2.10076 36.6276 5.92695 41.13L4.13528 42.9217C3.93645 43.114 3.7779 43.344 3.6689 43.5982C3.5599 43.8525 3.50262 44.1259 3.50041 44.4025C3.49821 44.6792 3.55112 44.9534 3.65605 45.2094C3.76098 45.4654 3.91584 45.6979 4.11158 45.8933C4.30733 46.0888 4.54005 46.2433 4.79615 46.3479C5.05226 46.4525 5.32662 46.505 5.60324 46.5024C5.87986 46.4998 6.15319 46.4421 6.40729 46.3328C6.66139 46.2234 6.89116 46.0645 7.0832 45.8654L8.87487 44.0738C13.3773 47.9 19.0934 50.0007 25.002 50.0007C30.9105 50.0007 36.6266 47.9 41.129 44.0738L42.9207 45.8654C43.3139 46.2447 43.8403 46.4543 44.3865 46.4492C44.9328 46.444 45.4552 46.2245 45.8412 45.838C46.2272 45.4515 46.4459 44.9288 46.4502 44.3825C46.4546 43.8363 46.2442 43.3102 45.8644 42.9175L44.0728 41.1279ZM45.8332 25.0008C45.837 29.806 44.1712 34.4632 41.1207 38.1758L33.6811 30.7363C34.8127 29.0375 35.4164 27.042 35.4164 25.0008C35.4164 22.9597 34.8127 20.9642 33.6811 19.2654L41.1207 11.8258C44.1712 15.5385 45.837 20.1957 45.8332 25.0008ZM18.7499 25.0008C18.7499 23.7647 19.1164 22.5563 19.8032 21.5285C20.4899 20.5007 21.4661 19.6996 22.6081 19.2266C23.7501 18.7535 25.0068 18.6298 26.2192 18.8709C27.4316 19.1121 28.5452 19.7073 29.4193 20.5814C30.2934 21.4555 30.8886 22.5691 31.1298 23.7815C31.3709 24.9939 31.2472 26.2506 30.7741 27.3926C30.3011 28.5347 29.5 29.5108 28.4722 30.1975C27.4444 30.8843 26.236 31.2508 24.9999 31.2508C23.3423 31.2508 21.7526 30.5924 20.5805 29.4203C19.4083 28.2482 18.7499 26.6584 18.7499 25.0008ZM24.9999 4.16751C29.805 4.16368 34.4622 5.82949 38.1749 8.88001L30.7353 16.3196C29.0365 15.1881 27.041 14.5843 24.9999 14.5843C22.9587 14.5843 20.9632 15.1881 19.2645 16.3196L11.8249 8.88001C15.5375 5.82949 20.1947 4.16368 24.9999 4.16751ZM4.16653 25.0008C4.1627 20.1957 5.82851 15.5385 8.87903 11.8258L16.3186 19.2654C15.1871 20.9642 14.5833 22.9597 14.5833 25.0008C14.5833 27.042 15.1871 29.0375 16.3186 30.7363L8.87903 38.1758C5.82851 34.4632 4.1627 29.806 4.16653 25.0008ZM24.9999 45.8342C20.1947 45.838 15.5375 44.1722 11.8249 41.1217L19.2645 33.6821C20.9632 34.8136 22.9587 35.4174 24.9999 35.4174C27.041 35.4174 29.0365 34.8136 30.7353 33.6821L38.1749 41.1217C34.4622 44.1722 29.805 45.838 24.9999 45.8342Z" fill="#5157CF"/>
</svg>
