<svg width="50" height="50" viewBox="0 0 50 50" fill="none" xmlns="http://www.w3.org/2000/svg">
<g clip-path="url(#clip0_886_987)">
<path d="M25 0.000976562C20.0555 0.000976563 15.222 1.4672 11.1108 4.21424C6.99953 6.96127 3.79521 10.8657 1.90302 15.4339C0.0108322 20.002 -0.484251 25.0287 0.480379 29.8782C1.44501 34.7278 3.82603 39.1823 7.32234 42.6786C10.8187 46.175 15.2732 48.556 20.1228 49.5206C24.9723 50.4852 29.9989 49.9902 34.5671 48.098C39.1353 46.2058 43.0397 43.0015 45.7867 38.8902C48.5338 34.779 50 29.9455 50 25.001C49.9928 18.3728 47.3566 12.0181 42.6698 7.33123C37.9829 2.64437 31.6282 0.00814548 25 0.000976563V0.000976562ZM25 45.8343C20.8796 45.8343 16.8517 44.6125 13.4256 42.3233C9.99961 40.0341 7.32935 36.7803 5.75252 32.9736C4.1757 29.1668 3.76313 24.9779 4.56698 20.9366C5.37084 16.8953 7.35503 13.1832 10.2686 10.2696C13.1822 7.35599 16.8944 5.37181 20.9356 4.56795C24.9769 3.76409 29.1658 4.17666 32.9726 5.75349C36.7794 7.33031 40.0331 10.0006 42.3223 13.4266C44.6115 16.8526 45.8333 20.8805 45.8333 25.001C45.8273 30.5245 43.6304 35.82 39.7247 39.7257C35.819 43.6314 30.5235 45.8282 25 45.8343Z" fill="#5157CF"/>
<path d="M25 10.001C24.4696 10.001 23.9609 10.2222 23.5858 10.6161C23.2107 11.0099 23 11.544 23 12.101V28.901C23 29.4579 23.2107 29.9921 23.5858 30.3859C23.9609 30.7797 24.4696 31.001 25 31.001C25.5304 31.001 26.0391 30.7797 26.4142 30.3859C26.7893 29.9921 27 29.4579 27 28.901V12.101C27 11.544 26.7893 11.0099 26.4142 10.6161C26.0391 10.2222 25.5304 10.001 25 10.001Z" fill="#5157CF"/>
<path d="M27 37.001C27 35.8964 26.1046 35.001 25 35.001C23.8954 35.001 23 35.8964 23 37.001C23 38.1055 23.8954 39.001 25 39.001C26.1046 39.001 27 38.1055 27 37.001Z" fill="#5157CF"/>
</g>
<defs>
<clipPath id="clip0_886_987">
<rect width="50" height="50" fill="white" transform="translate(0 0.000976562)"/>
</clipPath>
</defs>
</svg>
