<svg width="50" height="50" viewBox="0 0 50 50" fill="none" xmlns="http://www.w3.org/2000/svg">
<g opacity="0.415318">
<rect x="1" y="1" width="48" height="48" rx="24" stroke="#7A7A7A" stroke-width="2"/>
<path fill-rule="evenodd" clip-rule="evenodd" d="M22.5301 36L22.5301 25.7081L20 25.7081L20 21.958L22.5349 21.958C22.5349 21.958 22.5301 19.7157 22.5377 18.7125C22.5425 17.9627 22.6838 17.2434 22.9969 16.5709C23.6012 15.2748 24.6087 14.5402 25.8932 14.1953C26.7859 13.9552 27.6938 13.9878 28.6007 14.0284C28.9963 14.0478 29.982 14.1526 29.982 14.1526L29.8994 17.6636C29.8994 17.6636 27.2688 17.6727 27.2128 17.6839C26.5753 17.8019 26.2812 18.157 26.2594 18.8946C26.2375 19.6078 26.2461 21.9478 26.2461 21.9478L30 21.9478L29.8349 25.701L26.2518 25.701L26.2518 36L22.5301 36Z" fill="#7A7A7A"/>
</g>
</svg>
