<svg width="30" height="30" viewBox="0 0 30 30" fill="none" xmlns="http://www.w3.org/2000/svg">
<path d="M14.1052 15.001C14.4402 15.001 14.7615 15.1327 14.9984 15.3672C15.2353 15.6016 15.3684 15.9196 15.3684 16.2511C15.3684 16.5827 15.2353 16.9006 14.9984 17.1351C14.7615 17.3695 14.4402 17.5012 14.1052 17.5012H10.3158C9.98076 17.5012 9.65947 17.3695 9.42258 17.1351C9.1857 16.9006 9.05262 16.5827 9.05262 16.2511C9.05262 15.9196 9.1857 15.6016 9.42258 15.3672C9.65947 15.1327 9.98076 15.001 10.3158 15.001H14.1052ZM21.6842 11.2508C21.6842 10.9192 21.5511 10.6013 21.3142 10.3668C21.0773 10.1324 20.756 10.0007 20.421 10.0007H10.3158C9.98076 10.0007 9.65947 10.1324 9.42258 10.3668C9.1857 10.6013 9.05262 10.9192 9.05262 11.2508C9.05262 11.5823 9.1857 11.9003 9.42258 12.1347C9.65947 12.3692 9.98076 12.5009 10.3158 12.5009H20.421C20.756 12.5009 21.0773 12.3692 21.3142 12.1347C21.5511 11.9003 21.6842 11.5823 21.6842 11.2508ZM10.3158 7.50051H20.421C20.756 7.50051 21.0773 7.36881 21.3142 7.13437C21.5511 6.89994 21.6842 6.58197 21.6842 6.25043C21.6842 5.91889 21.5511 5.60092 21.3142 5.36649C21.0773 5.13205 20.756 5.00034 20.421 5.00034H10.3158C9.98076 5.00034 9.65947 5.13205 9.42258 5.36649C9.1857 5.60092 9.05262 5.91889 9.05262 6.25043C9.05262 6.58197 9.1857 6.89994 9.42258 7.13437C9.65947 7.36881 9.98076 7.50051 10.3158 7.50051ZM25.4736 24.3067V29.0982C25.4737 29.2766 25.4203 29.4509 25.3203 29.5992C25.2202 29.7475 25.0779 29.8631 24.9115 29.9314C24.745 29.9996 24.5618 30.0175 24.3851 29.9827C24.2084 29.9478 24.046 29.8619 23.9187 29.7358L22.9473 28.7757L21.9759 29.7358C21.8486 29.8619 21.6863 29.9478 21.5095 29.9827C21.3328 30.0175 21.1496 29.9996 20.9832 29.9314C20.8167 29.8631 20.6744 29.7475 20.5743 29.5992C20.4743 29.4509 20.4209 29.2766 20.421 29.0982V24.3067C19.4577 23.7589 18.7044 22.9112 18.2785 21.8957C17.8526 20.8802 17.7779 19.7537 18.0662 18.6919C18.3545 17.63 18.9895 16.6923 19.8723 16.0247C20.7552 15.3571 21.8363 14.9972 22.9473 15.001C23.3743 15.0063 23.7989 15.066 24.2105 15.1785V6.25043C24.2105 5.2558 23.8112 4.30191 23.1006 3.5986C22.3899 2.89529 21.426 2.50017 20.421 2.50017H10.3158C9.31074 2.50017 8.34688 2.89529 7.63622 3.5986C6.92555 4.30191 6.52631 5.2558 6.52631 6.25043V21.2515C6.52631 22.2461 6.92555 23.2 7.63622 23.9033C8.34688 24.6066 9.31074 25.0017 10.3158 25.0017H16.6315C16.9665 25.0017 17.2878 25.1334 17.5247 25.3679C17.7616 25.6023 17.8947 25.9203 17.8947 26.2518C17.8947 26.5833 17.7616 26.9013 17.5247 27.1357C17.2878 27.3702 16.9665 27.5019 16.6315 27.5019H10.3158C8.64134 27.4999 7.03606 26.8407 5.85206 25.669C4.66806 24.4972 4.00201 22.9086 4 21.2515V6.25043C4.00201 4.59332 4.66806 3.00465 5.85206 1.8329C7.03606 0.661148 8.64134 0.00198496 10.3158 0L20.421 0C22.0954 0.00198496 23.7007 0.661148 24.8847 1.8329C26.0687 3.00465 26.7348 4.59332 26.7368 6.25043V16.7286C27.2316 17.2786 27.5958 17.931 27.8029 18.6383C28.01 19.3455 28.0546 20.0896 27.9335 20.8161C27.8124 21.5426 27.5286 22.2332 27.103 22.8371C26.6774 23.4411 26.1207 23.9432 25.4736 24.3067ZM25.4736 20.0014C25.4736 19.5069 25.3254 19.0235 25.0479 18.6124C24.7703 18.2012 24.3757 17.8807 23.9141 17.6915C23.4525 17.5023 22.9445 17.4528 22.4544 17.5492C21.9644 17.6457 21.5142 17.8838 21.1609 18.2335C20.8076 18.5831 20.567 19.0286 20.4695 19.5136C20.3721 19.9986 20.4221 20.5013 20.6133 20.9581C20.8045 21.415 21.1283 21.8055 21.5438 22.0802C21.9592 22.3549 22.4477 22.5015 22.9473 22.5015C23.6173 22.5015 24.2599 22.2381 24.7337 21.7693C25.2075 21.3004 25.4736 20.6645 25.4736 20.0014Z" fill="#FAD350"/>
</svg>
