<svg width="20" height="30" viewBox="0 0 20 30" fill="none" xmlns="http://www.w3.org/2000/svg">
<path d="M20 10.0145C20.0035 8.3968 19.6139 6.80238 18.8647 5.36829C18.1155 3.93419 17.0291 2.70331 15.6988 1.78139C14.3684 0.859475 12.834 0.274094 11.2273 0.0755467C9.62061 -0.123001 7.9897 0.0712221 6.4747 0.641527C4.95971 1.21183 3.60593 2.14117 2.52968 3.34968C1.45343 4.55819 0.686905 6.00974 0.295956 7.57961C-0.0949925 9.14949 -0.0986713 10.7907 0.285236 12.3623C0.669144 13.9339 1.42916 15.3889 2.49998 16.6022V26.8772C2.49997 27.4655 2.66624 28.0418 2.97964 28.5397C3.29304 29.0377 3.74083 29.4371 4.27143 29.6919C4.80203 29.9467 5.39386 30.0465 5.97876 29.9799C6.56366 29.9133 7.11784 29.683 7.57748 29.3155L9.60998 27.6916C9.72073 27.6033 9.85825 27.5551 9.99998 27.5551C10.1417 27.5551 10.2792 27.6033 10.39 27.6916L12.4225 29.3155C12.8821 29.683 13.4363 29.9133 14.0212 29.9799C14.6061 30.0465 15.1979 29.9467 15.7285 29.6919C16.2591 29.4371 16.7069 29.0377 17.0203 28.5397C17.3337 28.0418 17.5 27.4655 17.5 26.8772V16.6022C19.1104 14.7851 19.9996 12.4418 20 10.0145V10.0145ZM9.99998 2.52001C11.4833 2.52001 12.9334 2.95956 14.1668 3.78307C15.4001 4.60658 16.3614 5.77706 16.9291 7.14651C17.4967 8.51596 17.6453 10.0229 17.3559 11.4767C17.0665 12.9304 16.3522 14.2658 15.3033 15.314C14.2544 16.3621 12.918 17.0759 11.4632 17.3651C10.0083 17.6542 8.5003 17.5058 7.12985 16.9386C5.7594 16.3713 4.58806 15.4107 3.76395 14.1783C2.93984 12.9458 2.49998 11.4968 2.49998 10.0145C2.50196 8.02748 3.29278 6.12237 4.69887 4.7173C6.10496 3.31224 8.01146 2.522 9.99998 2.52001V2.52001ZM14.6462 27.4368C14.5405 27.4892 14.4218 27.51 14.3046 27.4967C14.1873 27.4834 14.0763 27.4366 13.985 27.3619L11.9525 25.7381C11.3993 25.2928 10.7103 25.05 9.99998 25.05C9.28964 25.05 8.60067 25.2928 8.04748 25.7381L6.01623 27.3619C5.92451 27.4355 5.81387 27.4817 5.69704 27.4952C5.58021 27.5088 5.46193 27.4891 5.35578 27.4385C5.24963 27.3879 5.15993 27.3084 5.09699 27.2091C5.03405 27.1098 5.00043 26.9948 4.99998 26.8772V18.6557C6.51744 19.5408 8.24294 20.0072 9.99998 20.0072C11.757 20.0072 13.4825 19.5408 15 18.6557V26.8772C15.0014 26.9947 14.9687 27.11 14.9059 27.2093C14.8432 27.3086 14.753 27.3876 14.6462 27.4368V27.4368Z" fill="#5157CF"/>
</svg>
