<svg width="30" height="30" viewBox="0 0 30 30" fill="none" xmlns="http://www.w3.org/2000/svg">
<path d="M26.1071 19.1638L21.385 26.8575C20.8665 27.7075 20.1606 28.4282 19.3211 28.9647C18.4815 29.5013 17.5305 29.8395 16.5403 29.9537C16.2794 29.9846 16.0169 30.0001 15.7541 30C14.409 29.9982 13.0972 29.5812 11.9985 28.8063C10.8632 29.6556 9.46068 30.0707 8.04517 29.9765C6.62966 29.8823 5.29477 29.2849 4.28237 28.2926C3.26996 27.3003 2.64701 25.9787 2.52639 24.5673C2.40577 23.1559 2.79545 21.7481 3.62483 20.5988L1.97863 18.9576C1.2757 18.2557 0.740927 17.4041 0.41436 16.4665C0.0877934 15.529 -0.0221044 14.5298 0.0928968 13.5438C0.207898 12.5579 0.544818 11.6107 1.07842 10.7731C1.61203 9.93563 2.32849 9.22951 3.17416 8.70768L10.3937 4.25022C12.3493 2.9987 14.6492 2.39192 16.9688 2.5155C19.2883 2.63908 21.5105 3.48676 23.3217 4.93896L25.3985 2.86523C25.514 2.74584 25.6521 2.65062 25.8049 2.58511C25.9576 2.5196 26.1219 2.48511 26.2881 2.48367C26.4543 2.48223 26.6191 2.51385 26.773 2.57671C26.9268 2.63956 27.0666 2.73237 27.1842 2.84974C27.3017 2.9671 27.3947 3.10667 27.4576 3.26028C27.5205 3.4139 27.5522 3.5785 27.5508 3.74447C27.5493 3.91045 27.5148 4.07447 27.4492 4.22697C27.3836 4.37948 27.2882 4.51741 27.1686 4.63272L25.0943 6.7052C26.4856 8.44548 27.3251 10.5607 27.5055 12.7801C27.686 14.9996 27.199 17.2223 26.1071 19.1638ZM10.0907 27.0588L5.43502 22.4088C5.0712 23.0585 4.93088 23.8094 5.03558 24.5464C5.14028 25.2834 5.48421 25.9657 6.01464 26.4888C6.54971 26.9963 7.23029 27.3241 7.96115 27.4263C8.69202 27.5285 9.43659 27.4 10.0907 27.0588ZM22.5105 7.55894C21.1203 6.1575 19.2904 5.27524 17.3267 5.05976C15.3631 4.84428 13.3849 5.30866 11.7231 6.3752L4.49112 10.8327C3.96664 11.1564 3.5223 11.5944 3.19138 12.1138C2.86046 12.6333 2.65153 13.2208 2.58024 13.8324C2.50895 14.4439 2.57715 15.0636 2.77973 15.6451C2.98231 16.2266 3.31402 16.7548 3.75001 17.1901L12.8761 26.3038C13.3128 26.7403 13.8429 27.0723 14.4267 27.2748C15.0104 27.4772 15.6325 27.5449 16.2461 27.4727C16.8598 27.4006 17.4491 27.1904 17.9697 26.858C18.4904 26.5256 18.9287 26.0797 19.2519 25.5538L23.9526 17.8976C24.8707 16.251 25.2266 14.3506 24.9664 12.484C24.7062 10.6174 23.844 8.8863 22.5105 7.55269V7.55894ZM24.1116 30C23.8472 30.0005 23.5895 29.9174 23.3753 29.7626C23.1611 29.6078 23.0016 29.3893 22.9194 29.1384C22.8373 28.8875 22.8368 28.617 22.918 28.3658C22.9993 28.1146 23.1581 27.8955 23.3717 27.74C25.5638 26.0945 27.0473 23.6784 27.5217 20.9813C27.5549 20.819 27.6202 20.6648 27.7137 20.5279C27.8071 20.391 27.9269 20.2739 28.0661 20.1836C28.2053 20.0934 28.3611 20.0316 28.5244 20.002C28.6877 19.9724 28.8552 19.9755 29.0173 20.0111C29.1794 20.0467 29.3328 20.1142 29.4685 20.2096C29.6042 20.3049 29.7196 20.4263 29.808 20.5666C29.8963 20.7069 29.9558 20.8633 29.983 21.0268C30.0103 21.1903 30.0047 21.3575 29.9666 21.5188C29.3532 24.8084 27.5272 27.7488 24.8489 29.76C24.6348 29.9159 24.3766 29.9999 24.1116 30ZM1.24628 7.17394C1.01507 7.17291 0.788656 7.10797 0.592149 6.9863C0.395643 6.86463 0.236722 6.691 0.133007 6.48466C0.029292 6.27832 -0.0151643 6.04733 0.0045672 5.8173C0.0242987 5.58727 0.107447 5.36719 0.244793 5.18146C2.28656 2.45722 5.29208 0.613153 8.64856 0.0252547C8.97394 -0.0410488 9.31236 0.0244242 9.58939 0.207271C9.86642 0.390117 10.0594 0.675359 10.1258 1.00025C10.1922 1.32513 10.1266 1.66305 9.94347 1.93967C9.76035 2.21628 9.47468 2.40893 9.14931 2.47523C6.39267 2.92976 3.91931 4.43225 2.24778 6.6677C2.13183 6.82409 1.98091 6.9513 1.80704 7.03919C1.63318 7.12707 1.44116 7.17322 1.24628 7.17394Z" fill="#5157CF"/>
</svg>
