<svg width="30" height="30" viewBox="0 0 30 30" fill="none" xmlns="http://www.w3.org/2000/svg">
<path d="M27.5712 6.40643L18.3539 1.9401C16.325 0.707426 13.7997 0.685554 11.7503 1.88289L2.42938 6.40643C2.3944 6.42425 2.35813 6.44332 2.32438 6.46364C0.112404 7.75007 -0.655506 10.6168 0.609266 12.8667C1.03799 13.6294 1.66861 14.2543 2.42938 14.6704L5.00058 15.9163V22.146C5.0021 24.9317 6.78419 27.3928 9.39922 28.2207C11.219 28.7561 13.106 29.0183 15.0003 28.9988C16.8944 29.0203 18.7814 28.7604 20.6015 28.2271C23.2165 27.3992 24.9986 24.9381 25.0001 22.1524V15.9138L27.5001 14.6983V25.1846C27.5001 25.8867 28.0597 26.4559 28.75 26.4559C29.4403 26.4559 30 25.8867 30 25.1846V9.92811C30.0083 8.43519 28.8493 7.05602 27.5712 6.40643ZM22.5001 22.1524C22.5007 23.8187 21.4379 25.2925 19.8752 25.7923C18.2905 26.2529 16.6483 26.4764 15.0003 26.456C13.3523 26.4764 11.7101 26.2529 10.1254 25.7923C8.5627 25.2925 7.49983 23.8187 7.50048 22.1524V17.128L11.6466 19.1368C12.6697 19.7547 13.838 20.0793 15.0278 20.0763C16.1603 20.0845 17.2737 19.7795 18.249 19.194L22.5001 17.1279V22.1524ZM26.5 12.3755L17.0728 16.9525C15.7583 17.731 14.129 17.7089 12.8354 16.8953L3.61183 12.4327C2.58371 11.8688 2.19969 10.564 2.75409 9.51833C2.94159 9.16469 3.22271 8.87154 3.5656 8.67202L12.9341 4.12052C14.249 3.34376 15.8774 3.36575 17.1715 4.17774L26.3887 8.64407C27.0666 9.02691 27.4907 9.74986 27.4999 10.5384C27.5012 11.2854 27.123 11.9801 26.5 12.3755Z" fill="#FAD350"/>
</svg>
