<svg width="50" height="50" viewBox="0 0 50 50" fill="none" xmlns="http://www.w3.org/2000/svg">
<g opacity="0.415318">
<rect x="1" y="1" width="48" height="48" rx="24" stroke="#7A7A7A" stroke-width="2"/>
<path fill-rule="evenodd" clip-rule="evenodd" d="M33.0783 36.2091C35.6421 34.8844 37 32.7939 37 29.9826L37 25.4866C37 23.1302 36.9986 22.0853 36.9918 20.7887C36.9918 19.3752 36.562 18.0714 35.718 16.9619C34.2345 15.0206 32.1885 14.0261 29.7189 14.0074C28.148 13.9983 26.897 13.9983 24.0863 14.0037C22.6827 14.0065 22.0588 14.0074 21.2787 14.0074C19.8202 14.0169 18.4849 14.3817 17.301 15.1193C15.178 16.457 14.0256 18.3623 14.0073 20.7703C14 22.1743 13.9986 23.6033 14.0011 25.5288C14.0017 25.9692 14.0023 26.3213 14.0037 27.1134C14.0064 28.6974 14.0073 29.4002 14.0073 30.2784C14.017 31.4348 14.322 32.5118 14.9202 33.4803C16.3194 35.7172 18.4499 36.9095 21.0873 36.9656C22.3805 36.9951 23.711 37.0036 25.4404 36.9987C25.9229 36.9973 26.3091 36.9956 27.1758 36.9911C28.4746 36.9845 29.0505 36.9823 29.7697 36.9823C30.9619 36.9823 32.0716 36.7307 33.0783 36.2091ZM34.1021 18.2117C34.6937 18.9893 34.992 19.8943 34.992 20.9051C34.9987 22.1714 35 23.1895 35 25.4869L35 29.8762C35 31.9546 34.0511 33.4154 32.1048 34.4211C31.3757 34.7988 30.5647 34.9827 29.6685 34.9827C28.9624 34.9827 28.3982 34.9848 27.1273 34.9914C26.2824 34.9957 25.9062 34.9974 25.4369 34.9987C23.762 35.0035 22.4766 34.9953 21.23 34.9669C19.232 34.9243 17.6906 34.0617 16.6381 32.3792C16.2241 31.709 16.0139 30.9667 16.0071 30.1578C16.0071 29.3063 16.0062 28.6196 16.0036 27.0722C16.0022 26.299 16.0017 25.9555 16.0011 25.5259C15.9987 23.6495 16 22.2577 16.0071 20.8935C16.0203 19.1582 16.8233 17.8306 18.4126 16.8291C19.2858 16.2851 20.2767 16.0144 21.3844 16.0072C22.1419 16.0072 22.7517 16.0063 24.1232 16.0036C26.8628 15.9983 28.0811 15.9983 29.6073 16.0072C31.4898 16.0215 32.983 16.7473 34.1021 18.2117ZM25.5217 20C22.4924 19.9908 20.0091 22.436 20 25.4471C19.991 28.5177 22.4314 30.9908 25.4859 31C28.5294 31.0092 31 28.5568 31 25.5271C31.009 22.4896 28.5529 20.0092 25.5217 20ZM26.0175 22C28.2183 22.0067 30.0066 23.8126 30 26.026C30 28.2256 28.2057 30.0067 25.9906 30C23.7664 29.9933 21.9934 28.1966 22 25.9493C22.0066 23.7723 23.8132 21.9933 26.0175 22ZM30.9883 19.9999C31.5451 20.0075 32 19.5546 32 19.0037C32 18.4528 31.553 18 31.004 18C30.455 18 30.0001 18.4453 30.0001 18.9886C29.9923 19.5396 30.4393 19.9999 30.9883 19.9999Z" fill="#7A7A7A"/>
</g>
</svg>
