<svg width="30" height="30" viewBox="0 0 30 30" fill="none" xmlns="http://www.w3.org/2000/svg">
<path d="M20.6247 21.2497C19.7572 21.2507 18.9096 21.5096 18.1896 21.9935C17.4696 22.4774 16.9097 23.1644 16.581 23.9672C15.5468 23.6772 14.4528 23.6772 13.4186 23.9672C13.0195 22.9998 12.2864 22.2078 11.3525 21.7354C10.4187 21.263 9.34631 21.1416 8.33052 21.3933C7.31474 21.6451 6.42312 22.2532 5.81795 23.107C5.21278 23.9608 4.93431 25.0035 5.03321 26.0453C5.13212 27.0871 5.60183 28.0588 6.35684 28.7835C7.11186 29.5081 8.10198 29.9376 9.14699 29.9937C10.192 30.0498 11.2224 29.7288 12.0507 29.0891C12.8789 28.4495 13.45 27.5337 13.6598 26.5084C14.0903 26.353 14.5424 26.2657 14.9998 26.2497C15.4572 26.2656 15.9093 26.3529 16.3398 26.5084C16.5069 27.3188 16.9004 28.0651 17.4747 28.6609C18.0489 29.2566 18.7803 29.6773 19.5839 29.8741C20.3876 30.0709 21.2306 30.0357 22.0151 29.7727C22.7996 29.5098 23.4935 29.0297 24.0161 28.3882C24.5388 27.7468 24.8688 26.9703 24.968 26.1489C25.0671 25.3274 24.9313 24.4947 24.5762 23.7473C24.2212 22.9999 23.6614 22.3686 22.962 21.9265C22.2626 21.4844 21.4522 21.2498 20.6247 21.2497ZM9.37488 27.4997C9.00405 27.4997 8.64154 27.3897 8.3332 27.1837C8.02486 26.9776 7.78454 26.6848 7.64263 26.3422C7.50072 25.9996 7.46359 25.6226 7.53593 25.2589C7.60828 24.8952 7.78685 24.5611 8.04907 24.2989C8.31129 24.0366 8.64538 23.8581 9.00909 23.7857C9.3728 23.7134 9.7498 23.7505 10.0924 23.8924C10.435 24.0343 10.7278 24.2747 10.9339 24.583C11.1399 24.8913 11.2499 25.2538 11.2499 25.6247C11.2499 26.122 11.0523 26.5989 10.7007 26.9505C10.3491 27.3021 9.87216 27.4997 9.37488 27.4997ZM20.6247 27.4997C20.2539 27.4997 19.8914 27.3897 19.5831 27.1837C19.2747 26.9776 19.0344 26.6848 18.8925 26.3422C18.7506 25.9996 18.7134 25.6226 18.7858 25.2589C18.8581 24.8952 19.0367 24.5611 19.2989 24.2989C19.5612 24.0366 19.8952 23.8581 20.259 23.7857C20.6227 23.7134 20.9997 23.7505 21.3423 23.8924C21.6849 24.0343 21.9777 24.2747 22.1837 24.583C22.3898 24.8913 22.4997 25.2538 22.4997 25.6247C22.4997 26.122 22.3022 26.5989 21.9505 26.9505C21.5989 27.3021 21.122 27.4997 20.6247 27.4997ZM24.9684 10.8436C24.6359 0.764991 19.1248 0.0324996 18.881 0.00749991C18.8374 0.00251013 18.7936 6.10244e-06 18.7498 0C17.6657 0.0430605 16.6171 0.398098 15.7298 1.02249C15.516 1.17205 15.2614 1.25226 15.0004 1.25226C14.7395 1.25226 14.4849 1.17205 14.2711 1.02249C13.3833 0.39819 12.3343 0.0431745 11.2499 0C11.2081 0.000237751 11.1664 0.0027414 11.1249 0.00749991C10.8824 0.0324996 5.37493 0.764991 5.03744 10.8436C3.36621 11.4024 0 12.8036 0 14.9998C0 19.6123 7.7424 19.9997 14.9998 19.9997C22.2572 19.9997 29.9996 19.6123 29.9996 14.9998C29.9996 12.8036 26.6334 11.4024 24.9684 10.8436ZM11.3186 2.50622C11.864 2.56498 12.3861 2.7592 12.8373 3.07121C13.4719 3.51359 14.2269 3.75077 15.0004 3.75077C15.774 3.75077 16.529 3.51359 17.1635 3.07121C17.6117 2.76132 18.1296 2.56721 18.671 2.50622C19.2273 2.63872 22.3072 3.7112 22.491 11.0786C20.139 12.1304 17.5736 12.6171 14.9998 12.4998C12.4262 12.6171 9.86084 12.1308 7.50866 11.0799C7.69365 3.64995 10.8224 2.62497 11.3186 2.50622ZM14.9998 17.4998C4.66869 17.4998 2.49997 16.1398 2.48497 15.1023C3.47344 14.1308 4.71027 13.4501 6.05992 13.1348C8.8329 14.5063 11.9098 15.1482 14.9998 14.9998C18.0899 15.1482 21.1667 14.5063 23.9397 13.1348C25.2579 13.4643 26.4783 14.1037 27.4997 14.9998C27.4997 16.1398 25.3309 17.4998 14.9998 17.4998Z" fill="#FAD350"/>
</svg>
