<svg width="24" height="30" viewBox="0 0 24 30" fill="none" xmlns="http://www.w3.org/2000/svg">
<path d="M10.1052 15.001C10.4402 15.001 10.7615 15.1327 10.9984 15.3672C11.2353 15.6016 11.3684 15.9196 11.3684 16.2511C11.3684 16.5827 11.2353 16.9006 10.9984 17.1351C10.7615 17.3695 10.4402 17.5012 10.1052 17.5012H6.31577C5.98076 17.5012 5.65947 17.3695 5.42258 17.1351C5.1857 16.9006 5.05262 16.5827 5.05262 16.2511C5.05262 15.9196 5.1857 15.6016 5.42258 15.3672C5.65947 15.1327 5.98076 15.001 6.31577 15.001H10.1052ZM17.6842 11.2508C17.6842 10.9192 17.5511 10.6013 17.3142 10.3668C17.0773 10.1324 16.756 10.0007 16.421 10.0007H6.31577C5.98076 10.0007 5.65947 10.1324 5.42258 10.3668C5.1857 10.6013 5.05262 10.9192 5.05262 11.2508C5.05262 11.5823 5.1857 11.9003 5.42258 12.1347C5.65947 12.3692 5.98076 12.5009 6.31577 12.5009H16.421C16.756 12.5009 17.0773 12.3692 17.3142 12.1347C17.5511 11.9003 17.6842 11.5823 17.6842 11.2508ZM6.31577 7.50051H16.421C16.756 7.50051 17.0773 7.36881 17.3142 7.13437C17.5511 6.89994 17.6842 6.58197 17.6842 6.25043C17.6842 5.91889 17.5511 5.60092 17.3142 5.36649C17.0773 5.13205 16.756 5.00034 16.421 5.00034H6.31577C5.98076 5.00034 5.65947 5.13205 5.42258 5.36649C5.1857 5.60092 5.05262 5.91889 5.05262 6.25043C5.05262 6.58197 5.1857 6.89994 5.42258 7.13437C5.65947 7.36881 5.98076 7.50051 6.31577 7.50051ZM21.4736 24.3067V29.0982C21.4737 29.2766 21.4203 29.4509 21.3203 29.5992C21.2202 29.7475 21.0779 29.8631 20.9115 29.9314C20.745 29.9996 20.5618 30.0175 20.3851 29.9827C20.2084 29.9478 20.046 29.8619 19.9187 29.7358L18.9473 28.7757L17.9759 29.7358C17.8486 29.8619 17.6863 29.9478 17.5095 29.9827C17.3328 30.0175 17.1496 29.9996 16.9832 29.9314C16.8167 29.8631 16.6744 29.7475 16.5743 29.5992C16.4743 29.4509 16.4209 29.2766 16.421 29.0982V24.3067C15.4577 23.7589 14.7044 22.9112 14.2785 21.8957C13.8526 20.8802 13.7779 19.7537 14.0662 18.6919C14.3545 17.63 14.9895 16.6923 15.8723 16.0247C16.7552 15.3571 17.8363 14.9972 18.9473 15.001C19.3743 15.0063 19.7989 15.066 20.2105 15.1785V6.25043C20.2105 5.2558 19.8112 4.30191 19.1006 3.5986C18.3899 2.89529 17.426 2.50017 16.421 2.50017H6.31577C5.31074 2.50017 4.34688 2.89529 3.63622 3.5986C2.92555 4.30191 2.52631 5.2558 2.52631 6.25043V21.2515C2.52631 22.2461 2.92555 23.2 3.63622 23.9033C4.34688 24.6066 5.31074 25.0017 6.31577 25.0017H12.6315C12.9665 25.0017 13.2878 25.1334 13.5247 25.3679C13.7616 25.6023 13.8947 25.9203 13.8947 26.2518C13.8947 26.5833 13.7616 26.9013 13.5247 27.1357C13.2878 27.3702 12.9665 27.5019 12.6315 27.5019H6.31577C4.64134 27.4999 3.03606 26.8407 1.85206 25.669C0.668059 24.4972 0.00200571 22.9086 0 21.2515V6.25043C0.00200571 4.59332 0.668059 3.00465 1.85206 1.8329C3.03606 0.661148 4.64134 0.00198496 6.31577 0L16.421 0C18.0954 0.00198496 19.7007 0.661148 20.8847 1.8329C22.0687 3.00465 22.7348 4.59332 22.7368 6.25043V16.7286C23.2316 17.2786 23.5958 17.931 23.8029 18.6383C24.01 19.3455 24.0546 20.0896 23.9335 20.8161C23.8124 21.5426 23.5286 22.2332 23.103 22.8371C22.6774 23.4411 22.1207 23.9432 21.4736 24.3067ZM21.4736 20.0014C21.4736 19.5069 21.3254 19.0235 21.0479 18.6124C20.7703 18.2012 20.3757 17.8807 19.9141 17.6915C19.4525 17.5023 18.9445 17.4528 18.4544 17.5492C17.9644 17.6457 17.5142 17.8838 17.1609 18.2335C16.8076 18.5831 16.567 19.0286 16.4695 19.5136C16.3721 19.9986 16.4221 20.5013 16.6133 20.9581C16.8045 21.415 17.1283 21.8055 17.5438 22.0802C17.9592 22.3549 18.4477 22.5015 18.9473 22.5015C19.6173 22.5015 20.2599 22.2381 20.7337 21.7693C21.2075 21.3004 21.4736 20.6645 21.4736 20.0014Z" fill="#FAD350"/>
</svg>
