<svg width="33" height="30" viewBox="0 0 33 30" fill="none" xmlns="http://www.w3.org/2000/svg">
<path d="M30.3283 5.79261L20.1893 1.00725C17.9575 -0.313472 15.1796 -0.336906 12.9254 0.945953L2.67231 5.79261C2.63384 5.8117 2.59394 5.83213 2.55682 5.8539C0.123644 7.23222 -0.721057 10.3037 0.670193 12.7143C1.14178 13.5315 1.83548 14.201 2.67231 14.6468L5.50064 15.9818V22.6565C5.50231 25.6411 7.4626 28.278 10.3391 29.165C12.3409 29.7387 14.4166 30.0196 16.5004 29.9987C18.5838 30.0218 20.6595 29.7433 22.6616 29.1718C25.5381 28.2849 27.4984 25.648 27.5001 22.6633V15.979L30.2501 14.6768V25.9121C30.2501 26.6644 30.8656 27.2742 31.625 27.2742C32.3844 27.2742 33 26.6644 33 25.9121V9.56584C33.0091 7.96627 31.7343 6.4886 30.3283 5.79261ZM24.7501 22.6633C24.7508 24.4486 23.5817 26.0277 21.8627 26.5632C20.1195 27.0567 18.3131 27.2962 16.5003 27.2743C14.6875 27.2962 12.8811 27.0567 11.1379 26.5632C9.41896 26.0276 8.24981 24.4486 8.25052 22.6633V17.28L12.8113 19.4322C13.9366 20.0943 15.2219 20.4421 16.5306 20.4389C17.7763 20.4476 19.0011 20.1209 20.0739 19.4935L24.7501 17.2799V22.6633ZM29.15 12.1881L18.78 17.0919C17.3341 17.926 15.5419 17.9024 14.1189 17.0306L3.97301 12.2494C2.84208 11.6452 2.41966 10.2471 3.0295 9.12679C3.23575 8.74789 3.54499 8.4338 3.92216 8.22002L14.2275 3.34342C15.6739 2.51117 17.4651 2.53473 18.8886 3.40472L29.0276 8.19007C29.7733 8.60026 30.2398 9.37485 30.2499 10.2197C30.2513 11.0201 29.8353 11.7643 29.15 12.1881Z" fill="#FAD350"/>
</svg>
