<svg width="82" height="40" viewBox="0 0 82 40" fill="none" xmlns="http://www.w3.org/2000/svg">
<circle cx="20" cy="20" r="20" fill="#5157CF"/>
<path d="M62 0C59.3736 0 56.7728 0.517315 54.3463 1.52241C51.9198 2.5275 49.715 4.00069 47.8579 5.85786C46.0007 7.71504 44.5275 9.91982 43.5224 12.3463C42.5173 14.7728 42 17.3736 42 20C42 22.6264 42.5173 25.2272 43.5224 27.6537C44.5275 30.0802 46.0007 32.285 47.8579 34.1421C49.715 35.9993 51.9198 37.4725 54.3463 38.4776C56.7728 39.4827 59.3736 40 62 40L62 20V0Z" fill="#5157CF"/>
<line x1="21" y1="20" x2="75" y2="20" stroke="#FAD350" stroke-width="2"/>
</svg>
