<svg width="50" height="50" viewBox="0 0 50 50" fill="none" xmlns="http://www.w3.org/2000/svg">
<g opacity="0.415318">
<rect x="1" y="1" width="48" height="48" rx="24" stroke="#7A7A7A" stroke-width="2"/>
<path fill-rule="evenodd" clip-rule="evenodd" d="M27.4353 22.2411L27.4353 24.307C27.4353 24.3688 27.4336 24.4299 27.4441 24.4892C27.4852 24.7299 27.7381 24.8417 27.9577 24.6938C28.5624 24.2855 28.9544 23.7146 29.2581 23.0828C29.5372 22.5016 29.777 21.9024 30.0403 21.3144C30.2407 20.8648 30.4481 20.4186 30.6616 19.975C30.7202 19.8529 30.8051 19.7412 30.8839 19.6294C30.9443 19.546 31.0283 19.5125 31.1368 19.5125C32.4423 19.5159 33.7461 19.5142 35.0499 19.5159C35.3352 19.5159 35.5671 19.6372 35.7578 19.8375C35.8445 19.9295 35.8882 20.0386 35.9066 20.1641C35.9661 20.5777 35.8655 20.9576 35.6765 21.323C35.428 21.8044 35.1059 22.2368 34.7533 22.6486C34.2502 23.2384 33.747 23.829 33.2972 24.46C33.0846 24.7583 32.8825 25.0635 32.6935 25.3773C32.5018 25.6953 32.5097 25.759 32.739 26.0444C32.9402 26.2937 33.152 26.5361 33.3725 26.7708C33.8686 27.2995 34.377 27.8162 34.8723 28.3466C35.1409 28.6337 35.3973 28.9312 35.6476 29.2338C35.7535 29.3619 35.8366 29.5106 35.9188 29.6559C36.0064 29.8081 36.0265 29.9705 35.9626 30.139C35.925 30.2379 35.8926 30.3402 35.8445 30.4339C35.673 30.7735 35.3833 30.9403 35.0071 30.9721C34.9257 30.9798 34.8426 30.9789 34.7594 30.9789C33.698 30.9798 32.6357 30.9772 31.5734 30.9824C31.3984 30.9832 31.2531 30.9317 31.1158 30.8345C30.7719 30.5904 30.4682 30.3007 30.1716 30.0049C29.7148 29.551 29.2668 29.0894 28.81 28.6346C28.6447 28.4695 28.4731 28.307 28.2903 28.16C28.0006 27.9288 27.6541 28.0259 27.536 28.3732C27.4809 28.5383 27.4563 28.7188 27.445 28.8934C27.4231 29.2114 27.4266 29.5312 27.4117 29.8502C27.3986 30.0935 27.3557 30.3333 27.2507 30.5577C27.1606 30.7485 27.0285 30.899 26.8114 30.9549C26.7616 30.9669 26.7108 30.9738 26.6592 30.9755C25.7316 31.0142 24.8041 31.0047 23.8774 30.9635C23.6473 30.9531 23.432 30.893 23.2264 30.7898C22.4371 30.3909 21.7047 29.9155 21.0948 29.2759C20.7133 28.877 20.3318 28.479 19.9695 28.0638C19.1592 27.1379 18.3971 26.1733 17.6655 25.1873C17.3199 24.7213 17.011 24.2296 16.6995 23.7396C16.1797 22.9186 15.6862 22.0812 15.2749 21.2018C15.2058 21.0548 15.1463 20.9035 15.0851 20.7539C14.9783 20.49 14.9809 20.2183 15.0439 19.9475C15.0614 19.8701 15.0956 19.7936 15.1341 19.7231C15.2119 19.5821 15.3344 19.5099 15.5007 19.5151C15.5217 19.5159 15.5418 19.5151 15.5628 19.5151C16.584 19.5151 17.6043 19.5177 18.6255 19.5125C18.7803 19.5116 18.9142 19.5512 19.0157 19.6587C19.1671 19.8168 19.3167 19.9793 19.4436 20.1555C19.7385 20.5656 19.9818 21.0066 20.2075 21.4571C20.7536 22.5429 21.4448 23.535 22.1982 24.4892C22.305 24.625 22.4345 24.7076 22.6078 24.7316C22.8213 24.7617 22.9254 24.6809 22.9254 24.4737C22.9263 23.2942 22.9263 22.1139 22.9254 20.9336C22.9254 20.9026 22.9245 20.8725 22.9219 20.8424C22.9 20.5888 22.7863 20.4676 22.5316 20.4298C22.445 20.4169 22.3575 20.4092 22.2717 20.3963C22.0477 20.3619 21.9471 20.2682 21.8981 20.0515C21.7878 19.5624 22.0915 19.1299 22.6191 19.0328C22.7346 19.0113 22.8545 19.0019 22.9718 19.0019C23.9728 18.9993 24.973 19.0001 25.9723 19.0001C26.226 19.0001 26.4772 19.0182 26.7222 19.0904C27.165 19.2228 27.3767 19.4781 27.417 19.932C27.4283 20.0532 27.4345 20.1753 27.4345 20.2965C27.4362 20.9447 27.4353 21.5929 27.4353 22.2411Z" fill="#7A7A7A"/>
</g>
</svg>
