<svg xmlns="http://www.w3.org/2000/svg" width="24.493" height="27.202" viewBox="0 0 24.493 27.202">
  <g id="Сгруппировать_820" data-name="Сгруппировать 820" transform="translate(-997.516 -71.402)">
    <g id="viber" transform="translate(997.616 71.502)">
      <g id="Сгруппировать_66" data-name="Сгруппировать 66" transform="translate(0)">
        <g id="Сгруппировать_65" data-name="Сгруппировать 65">
          <path id="Контур_416" data-name="Контур 416" d="M47.219,2.833a.423.423,0,0,0-.6.592,8.547,8.547,0,0,1,2.457,6.017V13.5a8.605,8.605,0,0,1-8.6,8.6h-4.96a.423.423,0,0,0-.3.124l-3.337,3.337V21.767a.423.423,0,0,0-.253-.387A8.6,8.6,0,0,1,26.47,13.5V9.441a8.605,8.605,0,0,1,8.6-8.6h5.411A8.559,8.559,0,0,1,45.2,2.261a.423.423,0,0,0,.466-.706A9.4,9.4,0,0,0,40.476,0H35.065a9.452,9.452,0,0,0-9.441,9.441V13.5a9.445,9.445,0,0,0,5.411,8.539v4.537a.426.426,0,0,0,.722.3l3.934-3.934h4.785A9.452,9.452,0,0,0,49.917,13.5V9.441A9.388,9.388,0,0,0,47.219,2.833Z" transform="translate(-25.624)" fill="#fff" stroke="#fff" stroke-width="0.2"/>
        </g>
      </g>
      <g id="Сгруппировать_68" data-name="Сгруппировать 68" transform="translate(4.51 4.909)">
        <g id="Сгруппировать_67" data-name="Сгруппировать 67">
          <path id="Контур_417" data-name="Контур 417" d="M125.578,104.975l-.405-2.2a.423.423,0,0,0-.333-.338l-3.188-.638a.423.423,0,0,0-.382.116l-1.309,1.309a8.133,8.133,0,0,1-4.5-4.508l1.305-1.305a.423.423,0,0,0,.116-.382l-.638-3.189a.423.423,0,0,0-.338-.333l-2.2-.405a.42.42,0,0,0-.17,0,3.119,3.119,0,0,0-1.516.838,3.393,3.393,0,0,0-.8,3.053,14.46,14.46,0,0,0,.4,1.787.423.423,0,0,0,.812-.236,13.6,13.6,0,0,1-.38-1.682,2.559,2.559,0,0,1,.561-2.324,2.274,2.274,0,0,1,1.025-.591l1.825.337.537,2.686-1.353,1.353a.423.423,0,0,0-.087.471,9.149,9.149,0,0,0,5.323,5.318.423.423,0,0,0,.464-.09l1.353-1.353,2.686.537.337,1.825a2.276,2.276,0,0,1-.591,1.025,2.559,2.559,0,0,1-2.324.561,12.706,12.706,0,0,1-6.63-3.1l-.026-.026a10.62,10.62,0,0,1-2.142-3.328.423.423,0,1,0-.778.33,11.473,11.473,0,0,0,2.323,3.6l.026.026a13.588,13.588,0,0,0,7.1,3.335,5.023,5.023,0,0,0,.779.064,3.025,3.025,0,0,0,3.111-2.378A.419.419,0,0,0,125.578,104.975Z" transform="translate(-111.161 -93.1)" fill="#fff" stroke="#fff" stroke-width="0.2"/>
        </g>
      </g>
      <g id="Сгруппировать_70" data-name="Сгруппировать 70" transform="translate(12.626 7.666)">
        <g id="Сгруппировать_69" data-name="Сгруппировать 69">
          <path id="Контур_418" data-name="Контур 418" d="M265.509,145.388a.423.423,0,1,0,0,.846,1.834,1.834,0,0,1,1.832,1.832.423.423,0,1,0,.845,0A2.68,2.68,0,0,0,265.509,145.388Z" transform="translate(-265.086 -145.388)" fill="#fff" stroke="#fff" stroke-width="0.2"/>
        </g>
      </g>
      <g id="Сгруппировать_72" data-name="Сгруппировать 72" transform="translate(12.175 5.862)">
        <g id="Сгруппировать_71" data-name="Сгруппировать 71">
          <path id="Контур_419" data-name="Контур 419" d="M257.406,111.179a4.561,4.561,0,0,0-.5.027.423.423,0,1,0,.093.84,3.7,3.7,0,0,1,.4-.022,3.64,3.64,0,0,1,3.635,3.636,3.7,3.7,0,0,1-.022.4.423.423,0,1,0,.84.093,4.551,4.551,0,0,0,.027-.5A4.486,4.486,0,0,0,257.406,111.179Z" transform="translate(-256.532 -111.179)" fill="#fff" stroke="#fff" stroke-width="0.2"/>
        </g>
      </g>
      <g id="Сгруппировать_74" data-name="Сгруппировать 74" transform="translate(12.175 4.058)">
        <g id="Сгруппировать_73" data-name="Сгруппировать 73">
          <path id="Контур_420" data-name="Контур 420" d="M257.408,76.97c-.16,0-.323.006-.483.018a.423.423,0,0,0,.064.843c.139-.011.28-.016.419-.016A5.444,5.444,0,0,1,262.7,84.51a.423.423,0,0,0,.823.194,6.29,6.29,0,0,0-6.116-7.735Z" transform="translate(-256.535 -76.97)" fill="#fff" stroke="#fff" stroke-width="0.2"/>
        </g>
      </g>
    </g>
  </g>
</svg>
