<svg xmlns="http://www.w3.org/2000/svg" width="27.195" height="27.195" viewBox="0 0 27.195 27.195">
  <g id="Сгруппировать_821" data-name="Сгруппировать 821" transform="translate(-1054.165 -71.402)">
    <g id="telegram" transform="translate(1054.265 71.502)">
      <g id="Сгруппировать_62" data-name="Сгруппировать 62" transform="translate(0 0)">
        <g id="Сгруппировать_61" data-name="Сгруппировать 61">
          <path id="Контур_414" data-name="Контур 414" d="M25.868,8.09a13.451,13.451,0,0,0-3.062-4.367.423.423,0,1,0-.583.612A12.625,12.625,0,1,1,20.6,3.027a.423.423,0,1,0,.475-.7A13.5,13.5,0,0,0,3.953,23.042,13.5,13.5,0,0,0,25.868,8.09Z" transform="translate(0 0)" fill="#fff" stroke="#fff" stroke-width="0.2"/>
        </g>
      </g>
      <g id="Сгруппировать_64" data-name="Сгруппировать 64" transform="translate(4.703 5.685)">
        <g id="Сгруппировать_63" data-name="Сгруппировать 63">
          <path id="Контур_415" data-name="Контур 415" d="M104.12,107.865l-8.129,3.784a.423.423,0,0,0,.357.766l5.014-2.334-2.438,1.974-5.595,4.529-3.06-1.339,4.288-2a.423.423,0,0,0-.357-.766l-4.616,2.149a.682.682,0,0,0,.014,1.244l3.417,1.495,1,6a.426.426,0,0,0,.77.162l2.839-4.332,5.368,2.505a.689.689,0,0,0,.97-.578l.756-12.857c0-.012,0-.024,0-.036A.427.427,0,0,0,104.12,107.865Zm-9.613,13.307-.654-3.924,6.663-5.394-5.1,5.718a.427.427,0,0,0-.1.183Zm.9-.121.618-2.6.829.387Zm1.915-2.923-.895-.417,4.4-4.934-.637.972Zm5.814,2.713-5.04-2.352,5.689-8.683Z" transform="translate(-89.192 -107.827)" fill="#fff" stroke="#fff" stroke-width="0.2"/>
        </g>
      </g>
    </g>
  </g>
</svg>
