<svg xmlns="http://www.w3.org/2000/svg" width="24.371" height="22.459" viewBox="0 0 24.371 22.459">
  <g id="telephone_2_" data-name="telephone (2)" transform="translate(0.11 -19.123)">
    <g id="Сгруппировать_822" data-name="Сгруппировать 822">
      <g id="Сгруппировать_3" data-name="Сгруппировать 3" transform="translate(0 19.224)">
        <g id="Сгруппировать_2" data-name="Сгруппировать 2" transform="translate(0 0)">
          <path id="Контур_3" data-name="Контур 3" d="M51.091,138.681l-3.833-3.39c-.039-.035-.08-.067-.122-.1V134.3a.962.962,0,0,0-.961-.961H44.81a.962.962,0,0,0-.961.961v.581H41.031V134.3a.962.962,0,0,0-.961-.961H38.7a.962.962,0,0,0-.961.961v.892c-.042.031-.083.063-.122.1l-3.832,3.39a5.582,5.582,0,0,0-1.882,4.179v3.789a2.055,2.055,0,0,0,1.834,2.04v.679a.868.868,0,0,0,.867.867h2.1a.868.868,0,0,0,.867-.867V148.7h9.737v.667a.868.868,0,0,0,.867.867h2.1a.868.868,0,0,0,.867-.867v-.679a2.055,2.055,0,0,0,1.834-2.04v-.966a.353.353,0,1,0-.705,0v.966A1.349,1.349,0,0,1,50.922,148H33.959a1.349,1.349,0,0,1-1.347-1.347V142.86a4.877,4.877,0,0,1,1.645-3.651l3.832-3.39a.934.934,0,0,1,.61-.231h7.482a.934.934,0,0,1,.61.231l3.832,3.39a4.877,4.877,0,0,1,1.645,3.651v1.175a.353.353,0,1,0,.705,0V142.86A5.582,5.582,0,0,0,51.091,138.681ZM48.014,148.7h2.421v.667a.162.162,0,0,1-.162.162h-2.1a.162.162,0,0,1-.162-.162Zm-13.568,0h2.421v.667a.162.162,0,0,1-.162.162h-2.1a.162.162,0,0,1-.162-.162Zm5.88-13.818H38.7a1.625,1.625,0,0,0-.25.02v-.6a.256.256,0,0,1,.256-.256H40.07a.256.256,0,0,1,.256.256Zm6.105.02a1.63,1.63,0,0,0-.25-.02H44.555V134.3a.256.256,0,0,1,.256-.256h1.365a.256.256,0,0,1,.256.256Z" transform="translate(-30.407 -127.977)" fill="#fff" stroke="#fff" stroke-width="0.2"/>
          <path id="Контур_4" data-name="Контур 4" d="M21.123,20.451a31.064,31.064,0,0,0-9.09-1.225,31.057,31.057,0,0,0-9.09,1.225A4.261,4.261,0,0,0,.174,25.7c0,.015-.019-.055.332,1A1.632,1.632,0,0,0,2.5,27.763l3.006-.843a1.632,1.632,0,0,0,1.151-1.945l-.291-1.251a.5.5,0,0,1,.49-.62H17.21a.5.5,0,0,1,.489.622l-.291,1.249A1.632,1.632,0,0,0,18.56,26.92l3.006.843A1.633,1.633,0,0,0,23.559,26.7c.374-1.124.328-.986.332-1a4.259,4.259,0,0,0-2.768-5.253Zm1.767,6.031a.929.929,0,0,1-1.133.6l-3.006-.843a.928.928,0,0,1-.655-1.106l.146-.629,4.853,1.36Zm.4-1.292L18.4,23.818A1.208,1.208,0,0,0,17.21,22.4H6.856a1.209,1.209,0,0,0-1.19,1.419L3.3,24.481a.353.353,0,0,0,.095.692c.091,0-.008.011,2.429-.667l.146.629a.928.928,0,0,1-.655,1.106l-3.006.843a.929.929,0,0,1-1.133-.6l-.2-.616.916-.257a.353.353,0,0,0-.19-.679l-.923.259a3.556,3.556,0,0,1,2.388-4.068,30.422,30.422,0,0,1,8.868-1.191h.007A30.4,30.4,0,0,1,20.9,21.121a3.555,3.555,0,0,1,2.388,4.069Z" transform="translate(0 -19.224)" fill="#fff" stroke="#fff" stroke-width="0.2"/>
          <path id="Контур_5" data-name="Контур 5" d="M146.755,246.386a.732.732,0,0,0-.731-.731h-1.462a.732.732,0,0,0-.731.731v.63a.732.732,0,0,0,.731.731h1.462a.732.732,0,0,0,.731-.731Zm-.7.63a.026.026,0,0,1-.026.026h-1.462a.026.026,0,0,1-.026-.026v-.63a.026.026,0,0,1,.026-.026h1.462a.026.026,0,0,1,.026.026Z" transform="translate(-137.07 -235.012)" fill="#fff" stroke="#fff" stroke-width="0.2"/>
          <path id="Контур_6" data-name="Контур 6" d="M227.824,246.386a.732.732,0,0,0-.731-.731h-1.462a.732.732,0,0,0-.731.731v.63a.732.732,0,0,0,.731.731h1.462a.732.732,0,0,0,.731-.731Zm-.705.63a.026.026,0,0,1-.026.026h-1.462a.026.026,0,0,1-.026-.026v-.63a.026.026,0,0,1,.026-.026h1.462a.026.026,0,0,1,.026.026Z" transform="translate(-214.329 -235.012)" fill="#fff" stroke="#fff" stroke-width="0.2"/>
          <path id="Контур_7" data-name="Контур 7" d="M308.892,246.386a.732.732,0,0,0-.731-.731H306.7a.732.732,0,0,0-.731.731v.63a.732.732,0,0,0,.731.731h1.462a.732.732,0,0,0,.731-.731Zm-.705.63a.026.026,0,0,1-.026.026H306.7a.026.026,0,0,1-.026-.026v-.63a.026.026,0,0,1,.026-.026h1.462a.026.026,0,0,1,.026.026Z" transform="translate(-291.586 -235.012)" fill="#fff" stroke="#fff" stroke-width="0.2"/>
          <path id="Контур_8" data-name="Контур 8" d="M146.755,309.007a.732.732,0,0,0-.731-.731h-1.462a.732.732,0,0,0-.731.731v.63a.732.732,0,0,0,.731.731h1.462a.732.732,0,0,0,.731-.731Zm-.7.63a.026.026,0,0,1-.026.026h-1.462a.026.026,0,0,1-.026-.026v-.63a.026.026,0,0,1,.026-.026h1.462a.026.026,0,0,1,.026.026Z" transform="translate(-137.07 -294.69)" fill="#fff" stroke="#fff" stroke-width="0.2"/>
          <path id="Контур_9" data-name="Контур 9" d="M227.824,309.007a.732.732,0,0,0-.731-.731h-1.462a.732.732,0,0,0-.731.731v.63a.732.732,0,0,0,.731.731h1.462a.732.732,0,0,0,.731-.731Zm-.705.63a.026.026,0,0,1-.026.026h-1.462a.026.026,0,0,1-.026-.026v-.63a.026.026,0,0,1,.026-.026h1.462a.026.026,0,0,1,.026.026Z" transform="translate(-214.329 -294.69)" fill="#fff" stroke="#fff" stroke-width="0.2"/>
          <path id="Контур_10" data-name="Контур 10" d="M308.892,309.007a.732.732,0,0,0-.731-.731H306.7a.732.732,0,0,0-.731.731v.63a.732.732,0,0,0,.731.731h1.462a.732.732,0,0,0,.731-.731Zm-.705.63a.026.026,0,0,1-.026.026H306.7a.026.026,0,0,1-.026-.026v-.63a.026.026,0,0,1,.026-.026h1.462a.026.026,0,0,1,.026.026Z" transform="translate(-291.586 -294.69)" fill="#fff" stroke="#fff" stroke-width="0.2"/>
          <path id="Контур_11" data-name="Контур 11" d="M146.024,370.9h-1.462a.732.732,0,0,0-.731.731v.63a.732.732,0,0,0,.731.731h1.462a.732.732,0,0,0,.731-.731v-.63A.732.732,0,0,0,146.024,370.9Zm.026,1.361a.026.026,0,0,1-.026.026h-1.462a.026.026,0,0,1-.026-.026v-.63a.026.026,0,0,1,.026-.026h1.462a.026.026,0,0,1,.026.026Z" transform="translate(-137.07 -354.366)" fill="#fff" stroke="#fff" stroke-width="0.2"/>
          <path id="Контур_12" data-name="Контур 12" d="M227.092,370.9H225.63a.732.732,0,0,0-.731.731v.63a.732.732,0,0,0,.731.731h1.462a.732.732,0,0,0,.731-.731v-.63A.732.732,0,0,0,227.092,370.9Zm.026,1.361a.026.026,0,0,1-.026.026H225.63a.026.026,0,0,1-.026-.026v-.63a.026.026,0,0,1,.026-.026h1.462a.026.026,0,0,1,.026.026Z" transform="translate(-214.328 -354.366)" fill="#fff" stroke="#fff" stroke-width="0.2"/>
          <path id="Контур_13" data-name="Контур 13" d="M308.161,370.9H306.7a.732.732,0,0,0-.731.731v.63a.732.732,0,0,0,.731.731h1.462a.732.732,0,0,0,.731-.731v-.63A.732.732,0,0,0,308.161,370.9Zm.026,1.361a.026.026,0,0,1-.026.026H306.7a.026.026,0,0,1-.026-.026v-.63a.026.026,0,0,1,.026-.026h1.462a.026.026,0,0,1,.026.026Z" transform="translate(-291.587 -354.366)" fill="#fff" stroke="#fff" stroke-width="0.2"/>
        </g>
      </g>
    </g>
  </g>
</svg>
