<svg xmlns="http://www.w3.org/2000/svg" width="38" height="41.804" viewBox="0 0 38 41.804">
  <g id="Группа_5" data-name="Группа 5" transform="translate(-838.165 -849.269)">
    <g id="Группа_5-2" data-name="Группа 5" transform="translate(838.165 849.269)">
      <path id="Фигура_1" data-name="Фигура 1" d="M847.178,883.773l-.244,2.677-5.6-3.65s-2.743-.27-2.923-5.354-.244-15.088-.244-15.088A6.273,6.273,0,0,1,842.306,857l9.987-5.841s4.68-4.419,10.231.243l9.256,5.354a7.709,7.709,0,0,1,4.141,4.38H857.652s-6.288.109-6.09,6.571,0,18.5,0,18.5l1.705.73v2.92l-3.9-2.19V867.225s-.487-7.127,7.308-8.274h14.128L859.6,852.38a4.7,4.7,0,0,0-5.6.487l-10.474,6.084-1.705.973a4.423,4.423,0,0,0-1.218,2.92c.081,1.6,0,14.358,0,14.358a3.652,3.652,0,0,0,1.461,3.407C843.831,881.688,847.178,883.773,847.178,883.773Z" transform="translate(-838.165 -849.269)" fill="#cecdcd"/>
      <path id="Фигура_2" data-name="Фигура 2" d="M940.136,917.323h2.436v4.137H925.277a1.011,1.011,0,0,0-.974,1.217,11.564,11.564,0,0,1,0,1.947h9.013v4.137a5.472,5.472,0,0,1-4.628,4.38H924.3v9.491a7.933,7.933,0,0,0,1.462-.487l12.91-7.544a3.176,3.176,0,0,0,1.462-3.407v-7.787h2.436v9.248a6.2,6.2,0,0,1-1.949,3.65l-15.346,8.761h-3.41V930.708h7.064a3.191,3.191,0,0,0,1.949-2.19v-1.46h-9.013v-5.11s.221-2.886,2.923-2.92,15.346,0,15.346,0Z" transform="translate(-904.572 -903.262)" fill="#cecdcd"/>
    </g>
    <path id="Color_Overlay" data-name="Color Overlay" d="M17.295,41.8V27.446h7.064a3.191,3.191,0,0,0,1.949-2.19V23.8H17.295v-5.11s.221-2.886,2.923-2.92,15.346,0,15.346,0v-1.7H38V18.2H20.705a1.011,1.011,0,0,0-.974,1.217,11.562,11.562,0,0,1,0,1.947h9.013V25.5a5.472,5.472,0,0,1-4.628,4.38H19.731v9.491a7.931,7.931,0,0,0,1.461-.487L34.1,31.34a3.176,3.176,0,0,0,1.461-3.407V20.145H38v9.248a6.2,6.2,0,0,1-1.949,3.65L20.705,41.8ZM11.205,38.4V17.955s-.487-7.127,7.308-8.274H32.641L21.436,3.11a4.7,4.7,0,0,0-5.6.487L5.359,9.681l-1.705.974a4.423,4.423,0,0,0-1.218,2.92c.082,1.6,0,14.358,0,14.358A3.652,3.652,0,0,0,3.9,31.34C5.666,32.419,9.013,34.5,9.013,34.5L8.769,37.18l-5.6-3.65S.424,33.26.244,28.176,0,13.088,0,13.088A6.273,6.273,0,0,1,4.141,7.734l9.987-5.84s4.68-4.419,10.231.243l9.256,5.354a7.708,7.708,0,0,1,4.141,4.38H19.487s-6.288.109-6.09,6.571,0,18.5,0,18.5l1.705.73v2.92Z" transform="translate(838.165 849.269)" fill="#cecdcd"/>
  </g>
</svg>
