<svg xmlns="http://www.w3.org/2000/svg" width="44.636" height="43.27" viewBox="0 0 44.636 43.27">
  <g id="Сгруппировать_816" data-name="Сгруппировать 816" transform="translate(-179.692 -631.25)">
    <g id="check-mark" transform="translate(179.692 623.417)">
      <path id="Контур_1" data-name="Контур 1" d="M41.327,22.3a.7.7,0,0,0-.447.879,20.3,20.3,0,1,1-4.4-7.474A.7.7,0,0,0,37.5,14.76a21.559,21.559,0,1,0,4.7,7.99A.7.7,0,0,0,41.327,22.3Z" fill="#fbaa68"/>
      <path id="Контур_2" data-name="Контур 2" d="M117.414,76.838a2.093,2.093,0,0,0-2.96,0l-.624.624a.7.7,0,1,0,.986.986l.625-.625a.7.7,0,1,1,.987.988L92.379,102.861a.7.7,0,0,1-.987,0L82,93.468a.7.7,0,1,1,.987-.987l8.405,8.405a.7.7,0,0,0,.986,0l20.474-20.474a.7.7,0,0,0-.986-.986L91.885,99.406l-7.912-7.912a2.093,2.093,0,1,0-2.96,2.96l9.392,9.392a2.093,2.093,0,0,0,2.96,0L117.413,79.8a2.093,2.093,0,0,0,0-2.96Z" transform="translate(-73.391 -62.43)" fill="#fbaa68"/>
    </g>
  </g>
</svg>
