<svg width="667" height="667" viewBox="0 0 667 667" fill="none" xmlns="http://www.w3.org/2000/svg">
<g clip-path="url(#clip0_1425_5028)">
<g clip-path="url(#clip1_1425_5028)">
<path fill-rule="evenodd" clip-rule="evenodd" d="M333.479 667C517.654 667 666.957 517.753 666.957 333.648C666.957 149.543 517.654 0.296875 333.479 0.296875C149.303 0.296875 0 149.543 0 333.648C0 517.753 149.303 667 333.479 667ZM333.5 595.48C478.188 595.48 595.48 478.188 595.48 333.5C595.48 188.812 478.188 71.5195 333.5 71.5195C188.812 71.5195 71.5195 188.812 71.5195 333.5C71.5195 478.188 188.812 595.48 333.5 595.48Z" fill="#FCE390"/>
<path d="M381.306 31.8482L389.856 59.703L382.895 58.6578L380.397 50.432L369.37 48.8746L364.687 56.0657L357.789 55.0204L373.854 30.7402L381.306 31.8482ZM376.665 37.3355L372.317 44.0039L378.986 44.9655L376.665 37.3355Z" fill="black"/>
<path d="M407.938 64.5519L403.757 46.5116L399.304 62.1061L393.242 60.371L400.465 35.0352L407.624 37.1256L412.286 57.6953L427.097 42.6025L434.267 44.6406L427.044 69.966L420.93 68.231L425.372 52.626L412.349 65.7852L407.938 64.5519Z" fill="black"/>
<path d="M433.461 72.9143L443.181 48.4355L449.16 50.8082L439.44 75.2869L433.461 72.9143Z" fill="black"/>
<path d="M464.974 87.1911L461.755 72.8299L456.968 70.4573L451.888 80.7108L446.129 77.8469L457.835 54.2461L470.242 60.3919C471.692 61.094 473.09 61.901 474.423 62.8063C475.489 63.5465 476.452 64.4252 477.287 65.4194C478.06 66.3102 478.519 67.4302 478.593 68.6073C478.629 69.93 478.316 71.2388 477.684 72.4014C477.319 73.2157 476.797 73.9498 476.148 74.5615C475.499 75.1732 474.735 75.6504 473.9 75.9655C472.159 76.5635 470.262 76.5228 468.549 75.8506L471.925 90.6298L464.974 87.1911ZM470.608 66.59L461.201 61.9284L459.33 65.7016L468.737 70.3632C469.281 70.6645 469.914 70.7644 470.524 70.6454C470.803 70.5593 471.061 70.4178 471.284 70.2293C471.506 70.0409 471.688 69.8093 471.819 69.5487C471.95 69.288 472.027 69.0035 472.045 68.7124C472.063 68.4213 472.022 68.1296 471.925 67.8547C471.641 67.3092 471.175 66.8803 470.608 66.6423V66.59Z" fill="black"/>
<path d="M489.578 101.729L496.978 74.334L502.445 78.4521L496.884 98.0916L514.381 87.4409L519.764 91.4859L514.35 111.251L531.69 100.475L537.104 104.551L512.813 119.184L507.284 115.003L512.416 95.5517L495.107 105.837L489.578 101.729Z" fill="black"/>
<path d="M551.571 119.721L541.808 147.178L536.823 142.213L539.728 134.113L531.837 126.222L523.789 129.19L518.855 124.278L546.229 114.369L551.571 119.721ZM544.568 121.362L537.105 124.121L541.881 128.866L544.568 121.362Z" fill="black"/>
<path d="M543.98 150.06L564.446 133.473L568.501 138.479L552.447 151.482L562.961 164.463L558.551 168.038L543.98 150.06Z" fill="black"/>
<path d="M560.965 171.56L582.914 157.053L586.457 162.425L569.222 173.797L578.42 187.74L573.674 190.876L560.965 171.56Z" fill="black"/>
<path d="M586.676 215.45L575.785 194.546L599.135 182.369L609.964 203.117L605.093 205.656L597.243 190.605L594.003 192.299L601.121 205.949L596.386 208.416L589.268 194.765L583.593 197.723L591.516 212.973L586.676 215.45Z" fill="black"/>
<path d="M617.691 237.19L613.51 226.686L594.32 234.243L591.969 228.254L611.148 220.697L607.03 210.245L612.35 208.154L622.98 235.089L617.691 237.19Z" fill="black"/>
<path d="M636.057 291.8L611.839 308.001L610.794 301.05L617.954 296.284L616.313 285.267L608.076 282.842L607.031 275.965L634.917 284.327L636.057 291.8ZM629.461 288.936L621.821 286.699L622.814 293.357L629.461 288.936Z" fill="black"/>
<path d="M612.446 326.699L628.521 317.491L612.3 317.752L612.195 311.397L638.535 310.969L638.66 318.411L620.306 328.863L638.984 338.688L639.109 346.14L612.77 346.569L612.666 340.203L628.877 339.942L612.53 331.288L612.446 326.699Z" fill="black"/>
<path d="M611.83 353.596L638.075 355.759L637.542 362.177L611.297 360.003L611.83 353.596Z" fill="black"/>
<path d="M607.351 387.908L620.144 380.592L621.012 375.366L609.734 373.505L610.779 367.15L636.763 371.457L634.474 385.118C634.238 386.708 633.888 388.28 633.429 389.821C633.033 391.056 632.471 392.23 631.756 393.312C631.131 394.315 630.195 395.086 629.091 395.507C627.838 395.924 626.497 396.004 625.203 395.737C623.417 395.51 621.794 394.585 620.688 393.166C619.605 391.672 619.09 389.841 619.235 388.002L606.086 395.559L607.351 387.908ZM628.694 387.281L630.408 376.923L626.227 376.233L624.513 386.591C624.389 387.203 624.481 387.838 624.774 388.389C624.923 388.645 625.131 388.861 625.38 389.021C625.629 389.181 625.912 389.28 626.206 389.309C626.491 389.375 626.787 389.374 627.072 389.307C627.356 389.24 627.622 389.108 627.847 388.922C628.321 388.497 628.622 387.913 628.694 387.281V387.281Z" fill="black"/>
<path d="M600.617 415.679L628.984 414.791L626.632 421.229L606.219 421.616L621.5 435.204L619.191 441.527L598.704 442.092L614.058 455.554L611.728 461.919L590.625 442.938L592.998 436.437L613.107 435.695L598.234 422.107L600.617 415.679Z" fill="black"/>
<path d="M601.384 480.21L572.285 478.82L575.599 472.611L584.18 473.05L589.406 463.225L584.18 456.368L587.462 450.223L604.864 473.573L601.384 480.21ZM597.799 473.991L592.991 467.636L589.855 473.583L597.799 473.991Z" fill="black"/>
<path d="M570.152 481.715L591.945 496.515L588.328 501.846L571.239 490.233L561.832 504.051L557.129 500.853L570.152 481.715Z" fill="black"/>
<path d="M554.463 504.188L574.698 521.057L570.58 526.001L554.714 512.769L544.011 525.604L539.652 521.967L554.463 504.188Z" fill="black"/>
<path d="M519.867 541.502L536.716 525.029L555.122 543.843L538.399 560.211L534.552 556.281L546.677 544.439L544.127 541.826L533.089 552.581L529.358 548.766L540.406 538.032L535.932 533.464L523.682 545.4L519.867 541.502Z" fill="black"/>
<path d="M508.064 577.487L516.917 570.474L504.113 554.315L509.151 550.322L521.955 566.481L530.777 559.499L534.33 563.973L511.618 581.929L508.064 577.487Z" fill="black"/>
<path d="M471.852 605.802L448.586 588.264L454.857 585.003L461.703 590.229L471.57 585.055L471.152 576.484L477.308 573.244L478.552 602.343L471.852 605.802ZM472.385 598.643L471.999 590.689L466.03 593.824L472.385 598.643Z" fill="black"/>
<path d="M431.14 594.964L445.073 607.151L439.523 591.912L445.491 589.738L454.511 614.489L447.508 617.039L431.705 603.107L428.569 624.011L421.566 626.561L412.473 601.79L418.441 599.616L423.991 614.855L426.823 596.564L431.14 594.964Z" fill="black"/>
<path d="M405.509 603.16L411.99 628.684L405.718 630.273L399.301 604.738L405.509 603.16Z" fill="black"/>
<path d="M371.615 610.078L382.642 619.819L387.868 618.93L385.965 607.653L392.31 606.607L396.679 632.581L383.028 634.88C381.442 635.155 379.839 635.323 378.231 635.382C376.931 635.409 375.634 635.261 374.374 634.943C373.224 634.671 372.193 634.033 371.437 633.124C370.633 632.074 370.121 630.83 369.953 629.518C369.591 627.757 369.94 625.923 370.925 624.418C371.986 622.909 373.549 621.827 375.335 621.366L363.922 611.384L371.615 610.078ZM379.13 630.062L389.488 628.316L388.787 624.136L378.429 625.871C377.814 625.951 377.245 626.243 376.82 626.696C376.644 626.93 376.518 627.196 376.448 627.479C376.378 627.762 376.366 628.057 376.413 628.345C376.46 628.633 376.564 628.909 376.72 629.155C376.877 629.402 377.081 629.614 377.321 629.78C377.873 630.083 378.512 630.182 379.13 630.062Z" fill="black"/>
<path d="M343.167 612.722L353.295 639.239L346.439 639.124L339.394 619.966L331.503 638.874L324.772 638.759L317.539 619.558L309.835 638.466L303.062 638.351L314.089 612.221L321.009 612.336L328.325 631.087L336.279 612.597L343.167 612.722Z" fill="black"/>
<path d="M282.438 634.629L274.191 606.68L281.142 607.725L283.546 615.982L294.552 617.696L299.318 610.557L306.196 611.603L289.88 635.716L282.438 634.629ZM287.131 629.193L291.552 622.567L284.894 621.522L287.131 629.193Z" fill="black"/>
<path d="M270.747 605.625L263.922 631.055L257.714 629.383L263.076 609.44L246.938 605.103L248.411 599.615L270.747 605.625Z" fill="black"/>
<path d="M244.38 598.182L235.067 622.818L229.057 620.602L236.373 601.276L220.695 595.371L222.702 590.051L244.38 598.182Z" fill="black"/>
<path d="M197.817 577.678L218.878 588.203L207.088 611.772L186.184 601.32L188.64 596.408L203.848 603.986L205.478 600.714L191.723 593.826L194.117 589.05L207.872 595.938L210.736 590.22L195.434 582.548L197.817 577.678Z" fill="black"/>
<path d="M159.955 578.231L169.466 584.324L180.576 566.953L186.001 570.423L174.901 587.784L184.381 593.857L181.245 598.675L156.84 583.049L159.955 578.231Z" fill="black"/>
<path d="M113.062 544.833L123.117 517.49L128.051 522.507L125.051 530.576L132.859 538.52L140.949 535.635L145.83 540.6L118.33 550.205L113.062 544.833ZM120.076 543.276L127.57 540.6L122.856 535.792L120.076 543.276Z" fill="black"/>
<path d="M111.629 502.735L104.02 519.605L116.991 509.874L120.806 514.953L99.7448 530.767L95.2713 524.81L103.999 505.63L83.0946 508.661L78.6211 502.704L99.7029 486.816L103.508 491.938L90.5469 501.679L108.869 499.066L111.629 502.735Z" fill="black"/>
<path d="M96.3507 480.619L73.8264 494.269L70.4922 488.761L93.0583 475.121L96.3507 480.619Z" fill="black"/>
<path d="M79.8281 450.236L73.7345 463.625L76.1176 468.402L86.3502 463.291L89.2245 469.05L65.6551 480.819L59.4779 468.423C58.7379 466.992 58.109 465.507 57.5965 463.98C57.1898 462.746 56.9508 461.463 56.8858 460.165C56.8118 458.988 57.1197 457.819 57.7637 456.831C58.541 455.76 59.5814 454.906 60.7844 454.354C62.3646 453.494 64.2211 453.295 65.9477 453.8C67.6913 454.377 69.1731 455.555 70.1286 457.124L76.3371 443.254L79.8281 450.236ZM62.9062 463.259L67.5992 472.666L71.3724 470.785L66.6794 461.378C66.4251 460.81 65.9818 460.348 65.4251 460.071C65.1534 459.953 64.8579 459.9 64.5621 459.917C64.2663 459.933 63.9785 460.018 63.7214 460.165C63.4516 460.282 63.2116 460.458 63.0197 460.681C62.8278 460.904 62.689 461.167 62.6135 461.451C62.5053 462.056 62.6087 462.68 62.9062 463.217V463.259Z" fill="black"/>
<path d="M69.0223 423.749L46.5608 441.11L44.6794 434.556L60.9847 422.275L40.6031 420.185L38.7635 413.704L55.0165 401.235L34.6872 399.333L32.8477 392.748L61.0683 395.737L62.9601 402.395L47.0729 414.823L67.0782 417.091L69.0223 423.749Z" fill="black"/>
<path d="M30.5117 371.926L54.9069 355.986L55.8685 362.958L48.6461 367.661L50.2035 378.667L58.4188 381.186L59.37 388.074L31.5779 379.378L30.5117 371.926ZM37.0757 374.852L44.6847 377.183L43.765 370.515L37.0757 374.852Z" fill="black"/>
<path d="M54.9258 352.392L28.597 353.197L28.3984 346.769L49.0518 346.132L48.5396 329.408L54.2151 329.23L54.9258 352.392Z" fill="black"/>
<path d="M54.3847 324.984L28.0977 323.249L28.5262 316.832L49.1377 318.191L50.2352 301.52L55.9107 301.896L54.3847 324.984Z" fill="black"/>
<path d="M60.4686 274.471L56.5281 297.686L30.5547 293.275L34.5265 270.207L39.9406 271.127L37.0977 287.85L40.7036 288.456L43.2749 273.28L48.5009 274.179L45.9297 289.355L52.2009 290.4L55.0857 273.593L60.4686 274.471Z" fill="black"/>
<path d="M48.8967 238.424L45.8447 249.294L65.7037 254.865L63.9582 261.053L44.0992 255.482L41.0681 266.279L35.5703 264.774L43.3989 236.877L48.8967 238.424Z" fill="black"/>
<path d="M61.699 194.219L90.8289 194.804L87.6933 201.075L79.0913 200.866L74.0951 210.879L79.4571 217.59L76.3214 223.861L58.3125 200.95L61.699 194.219ZM65.4617 200.333L70.4369 206.552L73.4366 200.521L65.4617 200.333Z" fill="black"/>
<path d="M101.018 179.136L82.6017 177.433L96.0326 186.526L92.458 191.752L70.6445 177.015L74.8254 170.848L95.8236 172.844L86.1763 154.083L90.3572 147.916L112.171 162.685L108.607 167.911L95.1442 158.859L103.59 175.342L101.018 179.136Z" fill="black"/>
<path d="M116.97 157.481L96.7344 140.622L100.853 135.678L121.088 152.537L116.97 157.481Z" fill="black"/>
<path d="M140.332 131.977L125.699 130.577L121.958 134.392L130.131 142.398L125.626 146.997L106.812 128.549L116.502 118.672C117.615 117.508 118.814 116.429 120.087 115.442C121.122 114.657 122.257 114.013 123.463 113.529C124.554 113.072 125.764 112.98 126.912 113.268C128.182 113.659 129.326 114.38 130.225 115.358C130.885 115.957 131.42 116.679 131.8 117.484C132.181 118.29 132.398 119.162 132.441 120.051C132.47 121.899 131.84 123.696 130.664 125.121L145.767 126.49L140.332 131.977ZM122.491 120.229L115.174 127.723L118.184 130.681L125.501 123.187C125.957 122.76 126.25 122.187 126.327 121.567C126.35 121.272 126.305 120.976 126.194 120.703C126.083 120.429 125.911 120.184 125.689 119.989C125.49 119.773 125.244 119.604 124.971 119.496C124.698 119.387 124.404 119.341 124.111 119.362C123.487 119.455 122.915 119.762 122.491 120.229Z" fill="black"/>
<path d="M161.803 113.073L138.004 97.5619L143.617 93.632L160.58 105.004L155.856 85.0717L161.375 81.2044L178.485 92.4718L173.614 72.6128L179.164 68.7246L185.603 96.3704L179.927 100.342L163.089 89.472L167.51 109.111L161.803 113.073Z" fill="black"/>
<path d="M198.077 59.7148L221.156 77.4834L214.884 80.6922L208.091 75.4661L198.172 80.5354L198.496 89.1166L192.297 92.2522L191.367 63.1431L198.077 59.7148ZM197.471 66.8745L197.774 74.8286L203.774 71.7661L197.471 66.8745Z" fill="black"/>
<path d="M224.555 76.3509L215.148 51.7363L221.158 49.4473L228.475 68.7418L244.08 62.7946L246.108 68.1042L224.555 76.3509Z" fill="black"/>
<path d="M250.299 66.905L243.391 41.4855L249.599 39.8027L255.066 59.7349L271.193 55.3554L272.677 60.8323L250.299 66.905Z" fill="black"/>
<path d="M300.007 56.1915L276.762 60.0065L272.508 34.0122L295.597 30.2285L296.485 35.6532L279.762 38.3916L280.347 41.9976L295.534 39.51L296.401 44.736L281.193 47.2759L282.239 53.5471L299.129 50.7773L300.007 56.1915Z" fill="black"/>
<path d="M330.318 33.5291L319.051 34.1876L320.242 54.7782L313.814 55.144L312.623 34.5639L301.387 35.2119L301.062 29.5051L329.983 27.8223L330.318 33.5291Z" fill="black"/>
<path d="M333.457 595.518C272.836 595.517 214.09 574.498 167.23 536.04C120.37 497.582 88.2941 444.066 76.4682 384.61C64.6423 325.154 73.7979 263.437 102.375 209.974C130.952 156.512 177.183 114.612 233.189 91.4144C289.196 68.2168 351.514 65.1565 409.524 82.755C467.534 100.353 517.647 137.522 551.325 187.927C585.003 238.332 600.162 298.855 594.218 359.184C588.275 419.513 561.597 475.914 518.73 518.778C494.458 543.186 465.584 562.537 433.781 575.709C401.979 588.882 367.879 595.615 333.457 595.518V595.518ZM333.457 72.5055C273.076 72.5081 214.564 93.4469 167.89 131.754C121.217 170.061 89.2694 223.367 77.492 282.588C65.7147 341.809 74.8358 403.282 103.301 456.532C131.767 509.782 177.815 551.515 233.601 574.62C289.386 597.725 351.457 600.772 409.238 583.242C467.018 565.712 516.933 528.69 550.477 478.484C584.021 428.278 599.119 367.994 593.199 307.904C587.279 247.814 560.706 191.636 518.009 148.942C493.829 124.631 465.068 105.358 433.389 92.2377C401.711 79.1175 367.744 72.4106 333.457 72.5055V72.5055Z" fill="black"/>
<path d="M333.454 667C256.301 666.997 181.536 640.243 121.897 591.296C62.2588 542.349 21.4369 474.237 6.38708 398.567C-8.6627 322.896 2.99079 244.348 39.3619 176.306C75.7331 108.264 134.572 54.9378 205.852 25.414C277.133 -4.10986 356.445 -8.00491 430.275 14.3924C504.106 36.7898 567.886 84.0938 610.749 148.245C653.612 212.395 672.906 289.424 665.344 366.205C657.781 442.986 623.829 514.77 569.274 569.325C538.377 600.389 501.625 625.017 461.147 641.783C420.669 658.548 377.267 667.12 333.454 667V667ZM333.454 1.29603C256.592 1.29415 182.108 27.9433 122.692 76.7026C63.2768 125.462 22.6061 193.315 7.61027 268.699C-7.38553 344.083 4.22142 422.335 40.4533 490.121C76.6852 557.907 135.3 611.033 206.311 640.447C277.322 669.86 356.335 673.742 429.886 651.429C503.438 629.117 566.978 581.992 609.679 518.083C652.38 454.174 671.6 377.437 664.065 300.946C656.53 224.454 622.705 152.942 568.354 98.5945C537.579 67.6499 500.971 43.1168 460.65 26.4155C420.33 9.71412 377.097 1.17623 333.454 1.29603V1.29603Z" fill="black"/>
</g>
</g>
<defs>
<clipPath id="clip0_1425_5028">
<rect width="667" height="667" rx="333.5" fill="white"/>
</clipPath>
<clipPath id="clip1_1425_5028">
<rect width="667" height="667" fill="white"/>
</clipPath>
</defs>
</svg>
