<svg width="69" height="81" viewBox="0 0 69 81" fill="none" xmlns="http://www.w3.org/2000/svg">
<rect width="39.6933" height="39.6933" transform="translate(14.2227)" fill="#0A0B36"/>
<path d="M32.9899 15.5952C32.9899 15.5952 32.7257 19.2223 34.0667 20.8138C35.2443 22.2114 38.3035 22.8029 38.3035 22.8029V31.0169C38.3035 31.0169 40.4104 33.0562 42.119 33.1815C44.0867 33.3259 46.6836 31.0169 46.6836 31.0169V6.46857H45.2674L43.6171 10.0373C43.6171 10.0373 36.9624 8.17758 32.9899 8.86723C28.9781 9.5637 26.592 10.1649 23.8416 14.2051C20.589 18.983 21.5668 33.1815 21.5668 33.1815" stroke="#F5F5F5" stroke-width="1.10259" stroke-linecap="round"/>
<path d="M43.0489 15.6905C42.9076 15.6905 42.7863 15.6399 42.6851 15.5387C42.5839 15.4375 42.5333 15.3162 42.5333 15.1749C42.5333 15.0336 42.5839 14.9123 42.6851 14.8111C42.7863 14.7099 42.9076 14.6593 43.0489 14.6593C43.1902 14.6593 43.3115 14.7099 43.4127 14.8111C43.5139 14.9123 43.5645 15.0336 43.5645 15.1749C43.5645 15.2685 43.5406 15.3544 43.4929 15.4327C43.4471 15.511 43.385 15.574 43.3067 15.6217C43.2303 15.6676 43.1444 15.6905 43.0489 15.6905Z" fill="white"/>
<path d="M22.0753 64.3819H7.15432L4.44728 69.6993H1.86915L13.6641 46.7217H15.5977L27.3927 69.6993H24.8145L22.0753 64.3819ZM8.18558 62.3517H21.044L14.6309 49.751L8.18558 62.3517ZM32.0728 69.6993V46.7217H34.3932V69.6993H32.0728ZM62.9797 69.6993V51.2657L53.6662 65.0909H51.7004L42.3869 51.2657V69.6993H40.0666V46.7217H42.0969L52.6672 62.545L63.2698 46.7217H65.2356V69.6993H62.9797Z" fill="#0A0B36"/>
<path d="M12.1229 78.2792C11.8368 78.2792 11.5939 78.236 11.3942 78.1497C11.1999 78.0579 11.0515 77.9608 10.9489 77.8582C10.8518 77.7557 10.8032 77.6963 10.8032 77.6801L11.0056 77.3967C11.0056 77.4075 11.0488 77.4588 11.1351 77.5505C11.2215 77.6423 11.3402 77.7287 11.4914 77.8096C11.6425 77.8852 11.8206 77.923 12.0257 77.923C12.328 77.923 12.5547 77.8474 12.7058 77.6963C12.8623 77.5451 12.9406 77.3616 12.9406 77.1457C12.9406 76.9892 12.9001 76.8597 12.8191 76.7571C12.7436 76.6546 12.6464 76.5763 12.5277 76.5223C12.4143 76.463 12.2551 76.3982 12.05 76.328C11.8125 76.2417 11.6236 76.1634 11.4833 76.0932C11.3429 76.0177 11.2215 75.907 11.1189 75.7613C11.0218 75.6156 10.9732 75.4266 10.9732 75.1946C10.9732 74.8491 11.0973 74.5765 11.3456 74.3768C11.5993 74.1717 11.9232 74.0692 12.3172 74.0692C12.4899 74.0692 12.6545 74.0935 12.811 74.1421C12.973 74.1852 13.1025 74.2338 13.1997 74.2878C13.2968 74.3364 13.3589 74.3687 13.3859 74.3849L13.2887 74.7331C13.2671 74.7169 13.2131 74.6845 13.1268 74.6359C13.0404 74.5819 12.9271 74.5307 12.7867 74.4821C12.6518 74.4335 12.5115 74.4092 12.3657 74.4092C12.1175 74.4092 11.9151 74.4713 11.7585 74.5954C11.6074 74.7196 11.5318 74.8761 11.5318 75.065C11.5318 75.2215 11.5723 75.3538 11.6533 75.4617C11.7342 75.5643 11.8341 75.6452 11.9528 75.7046C12.077 75.764 12.2416 75.8315 12.4467 75.907C12.6842 75.988 12.8758 76.0689 13.0215 76.1499C13.1727 76.2255 13.2995 76.3361 13.4021 76.4819C13.5046 76.6276 13.5559 76.8165 13.5559 77.0486C13.5559 77.3994 13.4344 77.6936 13.1916 77.9311C12.9487 78.1632 12.5924 78.2792 12.1229 78.2792ZM17.2008 78.2792C16.9094 78.2792 16.6935 78.1901 16.5531 78.012C16.4128 77.8285 16.3426 77.529 16.3426 77.1134V74.5469H15.9216V74.2068L16.3426 74.1582L16.5612 72.871H16.9336V74.1501H17.97V74.5469H16.9336V76.9676C16.9336 77.3185 16.966 77.5613 17.0308 77.6963C17.101 77.8258 17.2197 77.8906 17.387 77.8906C17.522 77.8906 17.6434 77.8771 17.7514 77.8501C17.8593 77.8231 17.9133 77.8069 17.9133 77.8015L17.9538 78.1254C17.943 78.1362 17.9079 78.1551 17.8485 78.182C17.7945 78.2036 17.7109 78.2252 17.5975 78.2468C17.4896 78.2684 17.3573 78.2792 17.2008 78.2792ZM20.6188 74.1501H21.056L21.145 74.9841C21.145 74.9517 21.1747 74.8599 21.2341 74.7088C21.2989 74.5523 21.396 74.4065 21.5256 74.2716C21.6551 74.1367 21.8224 74.0692 22.0275 74.0692C22.1301 74.0692 22.2461 74.0881 22.3757 74.1259C22.5052 74.1582 22.5889 74.1825 22.6267 74.1987L22.57 74.644C22.5322 74.6278 22.4458 74.6035 22.3109 74.5712C22.1814 74.5388 22.0653 74.5226 21.9628 74.5226C21.8062 74.5226 21.6713 74.5765 21.558 74.6845C21.45 74.787 21.369 74.8977 21.3151 75.0164C21.2611 75.1352 21.226 75.2242 21.2098 75.2836V78.1982H20.6188V74.1501ZM25.7483 78.2792C25.3921 78.2792 25.106 78.1928 24.8901 78.0201C24.6742 77.842 24.5663 77.5964 24.5663 77.2834C24.5663 76.4899 25.33 76.0123 26.8575 75.8503V75.4212C26.8575 75.038 26.7954 74.7763 26.6713 74.6359C26.5471 74.4956 26.3285 74.4254 26.0155 74.4254C25.8751 74.4254 25.7321 74.4524 25.5864 74.5064C25.4406 74.555 25.3165 74.6089 25.214 74.6683C25.1168 74.7223 25.0547 74.7574 25.0277 74.7736L24.963 74.4416C24.99 74.42 25.0574 74.3795 25.1654 74.3202C25.2787 74.2608 25.4191 74.2041 25.5864 74.1501C25.7591 74.0962 25.9318 74.0692 26.1045 74.0692C26.5687 74.0692 26.9088 74.1663 27.1247 74.3606C27.3406 74.555 27.4485 74.8977 27.4485 75.3889V77.3724C27.4485 77.5883 27.4674 77.7341 27.5052 77.8096C27.5484 77.8852 27.5996 77.923 27.659 77.923C27.7076 77.923 27.767 77.9149 27.8371 77.8987C27.9073 77.8771 27.9532 77.8609 27.9748 77.8501L27.999 78.1254C27.9559 78.1416 27.8641 78.1713 27.7238 78.2144C27.5834 78.2576 27.4647 78.2792 27.3675 78.2792C27.2272 78.2792 27.1193 78.236 27.0437 78.1497C26.9681 78.0579 26.9222 77.8987 26.9061 77.672H26.898C26.898 77.6936 26.8548 77.7557 26.7684 77.8582C26.6821 77.9608 26.5525 78.0579 26.3798 78.1497C26.2125 78.236 26.002 78.2792 25.7483 78.2792ZM25.9264 77.923C26.1207 77.923 26.288 77.8798 26.4284 77.7934C26.5687 77.7071 26.674 77.6126 26.7441 77.5101C26.8197 77.4075 26.8575 77.3481 26.8575 77.332V76.1499C26.3663 76.2039 25.9615 76.3091 25.6431 76.4657C25.33 76.6222 25.1735 76.8705 25.1735 77.2105C25.1735 77.4426 25.2409 77.6207 25.3759 77.7449C25.5108 77.8636 25.6943 77.923 25.9264 77.923ZM31.5497 78.2792C31.2583 78.2792 31.0424 78.1901 30.902 78.012C30.7617 77.8285 30.6915 77.529 30.6915 77.1134V74.5469H30.2705V74.2068L30.6915 74.1582L30.9101 72.871H31.2826V74.1501H32.3189V74.5469H31.2826V76.9676C31.2826 77.3185 31.3149 77.5613 31.3797 77.6963C31.4499 77.8258 31.5686 77.8906 31.7359 77.8906C31.8709 77.8906 31.9923 77.8771 32.1003 77.8501C32.2082 77.8231 32.2622 77.8069 32.2622 77.8015L32.3027 78.1254C32.2919 78.1362 32.2568 78.1551 32.1974 78.182C32.1434 78.2036 32.0598 78.2252 31.9464 78.2468C31.8385 78.2684 31.7063 78.2792 31.5497 78.2792ZM36.4007 78.2792C35.861 78.2792 35.4373 78.1119 35.1296 77.7772C34.822 77.4372 34.6682 76.9298 34.6682 76.2552C34.6682 75.5751 34.8166 75.0407 35.1134 74.6521C35.4103 74.2635 35.8151 74.0692 36.3279 74.0692C36.7921 74.0692 37.1483 74.2311 37.3966 74.555C37.6502 74.8734 37.7771 75.3268 37.7771 75.9151C37.7771 76.0177 37.7717 76.1013 37.7609 76.1661C37.7501 76.2309 37.742 76.2713 37.7366 76.2875H35.2835C35.2835 77.3778 35.6775 77.923 36.4655 77.923C36.6814 77.923 36.8649 77.8852 37.016 77.8096C37.1726 77.7287 37.294 77.645 37.3804 77.5586C37.4667 77.4669 37.5099 77.4129 37.5099 77.3967L37.7447 77.591C37.7447 77.6126 37.6934 77.6828 37.5909 77.8015C37.4883 77.9149 37.3372 78.0228 37.1375 78.1254C36.9378 78.2279 36.6922 78.2792 36.4007 78.2792ZM37.2265 75.9475L37.2346 75.7937C37.2346 74.8761 36.9324 74.4173 36.3279 74.4173C36.0094 74.4173 35.7638 74.5442 35.5911 74.7978C35.4184 75.0461 35.3185 75.4293 35.2916 75.9475H37.2265ZM41.729 80.3033C41.1569 80.3033 40.7224 80.1899 40.4256 79.9632C40.1287 79.7419 39.9803 79.4154 39.9803 78.9836C39.9803 78.7029 40.0423 78.4762 40.1665 78.3035C40.296 78.1308 40.4579 78.0039 40.6522 77.923C40.5551 77.8096 40.5065 77.6504 40.5065 77.4453C40.5065 77.1808 40.6307 76.9541 40.8789 76.7652C40.663 76.6519 40.4957 76.4899 40.377 76.2794C40.2582 76.0635 40.1989 75.8045 40.1989 75.5022C40.1989 75.011 40.3365 74.6494 40.6118 74.4173C40.8924 74.1852 41.2514 74.0692 41.6886 74.0692C41.8991 74.0692 42.0853 74.0962 42.2472 74.1501L43.2916 74.1582V74.474L42.7734 74.4902C42.9893 74.7331 43.0973 75.0704 43.0973 75.5022C43.0973 75.9664 42.9705 76.3226 42.7168 76.5709C42.4685 76.8192 42.1231 76.9433 41.6805 76.9433C41.4969 76.9433 41.3323 76.9244 41.1866 76.8867C40.9977 77.0108 40.9032 77.1511 40.9032 77.3077C40.9032 77.4534 40.9626 77.5559 41.0813 77.6153C41.2001 77.6693 41.3917 77.6963 41.6562 77.6963C42.8382 77.6963 43.4292 78.1119 43.4292 78.9431C43.4292 79.3857 43.2808 79.723 42.9839 79.9551C42.6925 80.1872 42.2742 80.3033 41.729 80.3033ZM41.6643 76.6195C42.2364 76.6195 42.5225 76.2444 42.5225 75.4941C42.5225 75.1055 42.4469 74.8302 42.2958 74.6683C42.1446 74.501 41.9314 74.4173 41.6562 74.4173C41.3809 74.4173 41.1623 74.4983 41.0004 74.6602C40.8439 74.8221 40.7656 75.1028 40.7656 75.5022C40.7656 75.8692 40.8439 76.1472 41.0004 76.3361C41.1569 76.525 41.3782 76.6195 41.6643 76.6195ZM41.729 79.9389C42.1069 79.9389 42.3983 79.8607 42.6034 79.7041C42.8085 79.553 42.9111 79.3317 42.9111 79.0402C42.9111 78.4735 42.4712 78.1901 41.5914 78.1901C41.3377 78.1901 41.1353 78.1686 40.9842 78.1254C40.8223 78.1901 40.69 78.2927 40.5875 78.433C40.4903 78.5788 40.4417 78.7596 40.4417 78.9755C40.4417 79.2993 40.5524 79.5395 40.7737 79.696C41.0004 79.858 41.3188 79.9389 41.729 79.9389ZM46.1509 73.3324C46.0538 73.3324 45.9755 73.3027 45.9162 73.2434C45.846 73.1732 45.8109 73.0868 45.8109 72.9843C45.8109 72.8817 45.846 72.7954 45.9162 72.7252C45.9755 72.6658 46.0538 72.6362 46.1509 72.6362C46.2535 72.6362 46.3345 72.6631 46.3938 72.7171C46.4586 72.7873 46.491 72.8763 46.491 72.9843C46.491 73.0815 46.4586 73.1678 46.3938 73.2434C46.3183 73.3027 46.2373 73.3324 46.1509 73.3324ZM45.8514 78.1982V74.1501H46.4424V78.1982H45.8514ZM50.8603 78.2792C50.3206 78.2792 49.8969 78.1119 49.5892 77.7772C49.2816 77.4372 49.1278 76.9298 49.1278 76.2552C49.1278 75.5751 49.2762 75.0407 49.573 74.6521C49.8699 74.2635 50.2747 74.0692 50.7875 74.0692C51.2517 74.0692 51.6079 74.2311 51.8562 74.555C52.1098 74.8734 52.2367 75.3268 52.2367 75.9151C52.2367 76.0177 52.2313 76.1013 52.2205 76.1661C52.2097 76.2309 52.2016 76.2713 52.1962 76.2875H49.7431C49.7431 77.3778 50.1371 77.923 50.9251 77.923C51.141 77.923 51.3245 77.8852 51.4756 77.8096C51.6322 77.7287 51.7536 77.645 51.84 77.5586C51.9263 77.4669 51.9695 77.4129 51.9695 77.3967L52.2043 77.591C52.2043 77.6126 52.153 77.6828 52.0505 77.8015C51.9479 77.9149 51.7968 78.0228 51.5971 78.1254C51.3974 78.2279 51.1518 78.2792 50.8603 78.2792ZM51.6861 75.9475L51.6942 75.7937C51.6942 74.8761 51.392 74.4173 50.7875 74.4173C50.469 74.4173 50.2234 74.5442 50.0507 74.7978C49.878 75.0461 49.7781 75.4293 49.7512 75.9475H51.6861ZM55.8891 78.2792C55.603 78.2792 55.3601 78.236 55.1604 78.1497C54.9661 78.0579 54.8177 77.9608 54.7151 77.8582C54.618 77.7557 54.5694 77.6963 54.5694 77.6801L54.7718 77.3967C54.7718 77.4075 54.815 77.4588 54.9013 77.5505C54.9877 77.6423 55.1064 77.7287 55.2576 77.8096C55.4087 77.8852 55.5868 77.923 55.7919 77.923C56.0942 77.923 56.3209 77.8474 56.472 77.6963C56.6285 77.5451 56.7068 77.3616 56.7068 77.1457C56.7068 76.9892 56.6663 76.8597 56.5854 76.7571C56.5098 76.6546 56.4126 76.5763 56.2939 76.5223C56.1805 76.463 56.0213 76.3982 55.8162 76.328C55.5787 76.2417 55.3898 76.1634 55.2495 76.0932C55.1091 76.0177 54.9877 75.907 54.8852 75.7613C54.788 75.6156 54.7394 75.4266 54.7394 75.1946C54.7394 74.8491 54.8636 74.5765 55.1118 74.3768C55.3655 74.1717 55.6894 74.0692 56.0834 74.0692C56.2561 74.0692 56.4207 74.0935 56.5773 74.1421C56.7392 74.1852 56.8687 74.2338 56.9659 74.2878C57.063 74.3364 57.1251 74.3687 57.1521 74.3849L57.0549 74.7331C57.0333 74.7169 56.9794 74.6845 56.893 74.6359C56.8066 74.5819 56.6933 74.5307 56.553 74.4821C56.418 74.4335 56.2777 74.4092 56.132 74.4092C55.8837 74.4092 55.6813 74.4713 55.5248 74.5954C55.3736 74.7196 55.2981 74.8761 55.2981 75.065C55.2981 75.2215 55.3385 75.3538 55.4195 75.4617C55.5005 75.5643 55.6003 75.6452 55.7191 75.7046C55.8432 75.764 56.0078 75.8315 56.2129 75.907C56.4504 75.988 56.642 76.0689 56.7878 76.1499C56.9389 76.2255 57.0657 76.3361 57.1683 76.4819C57.2708 76.6276 57.3221 76.8165 57.3221 77.0486C57.3221 77.3994 57.2007 77.6936 56.9578 77.9311C56.7149 78.1632 56.3587 78.2792 55.8891 78.2792Z" fill="#0A0B36"/>
</svg>
