<svg width="95" height="113" viewBox="0 0 95 113" fill="none" xmlns="http://www.w3.org/2000/svg">
<g filter="url(#filter0_b_82_841)">
<rect width="95" height="113" rx="11" fill="#4368A4" fill-opacity="0.32"/>
<rect width="39.6933" height="39.6933" transform="translate(27.2227 16.4009)" fill="#0A0B36"/>
<path d="M45.9899 31.9961C45.9899 31.9961 45.7257 35.6231 47.0667 37.2146C48.2443 38.6123 51.3035 39.2038 51.3035 39.2038V47.4177C51.3035 47.4177 53.4104 49.4571 55.119 49.5824C57.0867 49.7267 59.6836 47.4177 59.6836 47.4177V22.8694H58.2674L56.6171 26.4382C56.6171 26.4382 49.9624 24.5785 45.9899 25.2681C41.9781 25.9646 39.592 26.5658 36.8416 30.606C33.589 35.3838 34.5668 49.5824 34.5668 49.5824" stroke="#F5F5F5" stroke-width="1.10259" stroke-linecap="round"/>
<path d="M56.0489 32.0914C55.9076 32.0914 55.7863 32.0408 55.6851 31.9395C55.5839 31.8383 55.5333 31.7171 55.5333 31.5758C55.5333 31.4345 55.5839 31.3132 55.6851 31.212C55.7863 31.1108 55.9076 31.0602 56.0489 31.0602C56.1902 31.0602 56.3115 31.1108 56.4127 31.212C56.5139 31.3132 56.5645 31.4345 56.5645 31.5758C56.5645 31.6693 56.5406 31.7553 56.4929 31.8336C56.4471 31.9119 56.385 31.9749 56.3067 32.0226C56.2303 32.0684 56.1444 32.0914 56.0489 32.0914Z" fill="white"/>
<path d="M35.0753 80.7828H20.1543L17.4473 86.1002H14.8691L26.6641 63.1226H28.5977L40.3927 86.1002H37.8145L35.0753 80.7828ZM21.1856 78.7525H34.044L27.6309 66.1519L21.1856 78.7525ZM45.0728 86.1002V63.1226H47.3932V86.1002H45.0728ZM75.9797 86.1002V67.6666L66.6662 81.4918H64.7004L55.3869 67.6666V86.1002H53.0666V63.1226H55.0969L65.6672 78.9459L76.2698 63.1226H78.2356V86.1002H75.9797Z" fill="#0A0B36"/>
<path d="M25.1229 94.6801C24.8368 94.6801 24.5939 94.6369 24.3942 94.5505C24.1999 94.4588 24.0515 94.3616 23.9489 94.2591C23.8518 94.1565 23.8032 94.0972 23.8032 94.081L24.0056 93.7976C24.0056 93.8084 24.0488 93.8597 24.1351 93.9514C24.2215 94.0432 24.3402 94.1295 24.4914 94.2105C24.6425 94.2861 24.8206 94.3239 25.0257 94.3239C25.328 94.3239 25.5547 94.2483 25.7058 94.0972C25.8623 93.946 25.9406 93.7625 25.9406 93.5466C25.9406 93.3901 25.9001 93.2606 25.8191 93.158C25.7436 93.0554 25.6464 92.9772 25.5277 92.9232C25.4143 92.8638 25.2551 92.7991 25.05 92.7289C24.8125 92.6425 24.6236 92.5643 24.4833 92.4941C24.3429 92.4185 24.2215 92.3079 24.1189 92.1622C24.0218 92.0164 23.9732 91.8275 23.9732 91.5954C23.9732 91.25 24.0973 90.9774 24.3456 90.7777C24.5993 90.5726 24.9232 90.4701 25.3172 90.4701C25.4899 90.4701 25.6545 90.4944 25.811 90.5429C25.973 90.5861 26.1025 90.6347 26.1997 90.6887C26.2968 90.7372 26.3589 90.7696 26.3859 90.7858L26.2887 91.134C26.2671 91.1178 26.2131 91.0854 26.1268 91.0368C26.0404 90.9828 25.9271 90.9315 25.7867 90.883C25.6518 90.8344 25.5115 90.8101 25.3657 90.8101C25.1175 90.8101 24.9151 90.8722 24.7585 90.9963C24.6074 91.1205 24.5318 91.277 24.5318 91.4659C24.5318 91.6224 24.5723 91.7547 24.6533 91.8626C24.7342 91.9652 24.8341 92.0461 24.9528 92.1055C25.077 92.1649 25.2416 92.2323 25.4467 92.3079C25.6842 92.3889 25.8758 92.4698 26.0215 92.5508C26.1727 92.6263 26.2995 92.737 26.4021 92.8827C26.5046 93.0285 26.5559 93.2174 26.5559 93.4495C26.5559 93.8003 26.4344 94.0945 26.1916 94.3319C25.9487 94.564 25.5924 94.6801 25.1229 94.6801ZM30.2008 94.6801C29.9094 94.6801 29.6935 94.591 29.5531 94.4129C29.4128 94.2294 29.3426 93.9298 29.3426 93.5142V90.9477H28.9216V90.6077L29.3426 90.5591L29.5612 89.2718H29.9336V90.551H30.97V90.9477H29.9336V93.3685C29.9336 93.7193 29.966 93.9622 30.0308 94.0972C30.101 94.2267 30.2197 94.2915 30.387 94.2915C30.522 94.2915 30.6434 94.278 30.7514 94.251C30.8593 94.224 30.9133 94.2078 30.9133 94.2024L30.9538 94.5263C30.943 94.5371 30.9079 94.5559 30.8485 94.5829C30.7945 94.6045 30.7109 94.6261 30.5975 94.6477C30.4896 94.6693 30.3573 94.6801 30.2008 94.6801ZM33.6188 90.551H34.056L34.145 91.3849C34.145 91.3525 34.1747 91.2608 34.2341 91.1097C34.2989 90.9531 34.396 90.8074 34.5256 90.6725C34.6551 90.5375 34.8224 90.4701 35.0275 90.4701C35.1301 90.4701 35.2461 90.489 35.3757 90.5267C35.5052 90.5591 35.5889 90.5834 35.6267 90.5996L35.57 91.0449C35.5322 91.0287 35.4458 91.0044 35.3109 90.972C35.1814 90.9396 35.0653 90.9235 34.9628 90.9235C34.8062 90.9235 34.6713 90.9774 34.558 91.0854C34.45 91.1879 34.369 91.2986 34.3151 91.4173C34.2611 91.5361 34.226 91.6251 34.2098 91.6845V94.5991H33.6188V90.551ZM38.7483 94.6801C38.3921 94.6801 38.106 94.5937 37.8901 94.421C37.6742 94.2429 37.5663 93.9973 37.5663 93.6843C37.5663 92.8908 38.33 92.4132 39.8575 92.2512V91.8221C39.8575 91.4389 39.7954 91.1771 39.6713 91.0368C39.5471 90.8965 39.3285 90.8263 39.0155 90.8263C38.8751 90.8263 38.7321 90.8533 38.5864 90.9073C38.4406 90.9558 38.3165 91.0098 38.214 91.0692C38.1168 91.1232 38.0547 91.1582 38.0277 91.1744L37.963 90.8425C37.99 90.8209 38.0574 90.7804 38.1654 90.721C38.2787 90.6617 38.4191 90.605 38.5864 90.551C38.7591 90.4971 38.9318 90.4701 39.1045 90.4701C39.5687 90.4701 39.9088 90.5672 40.1247 90.7615C40.3406 90.9558 40.4485 91.2986 40.4485 91.7897V93.7733C40.4485 93.9892 40.4674 94.1349 40.5052 94.2105C40.5484 94.2861 40.5996 94.3239 40.659 94.3239C40.7076 94.3239 40.767 94.3158 40.8371 94.2996C40.9073 94.278 40.9532 94.2618 40.9748 94.251L40.999 94.5263C40.9559 94.5424 40.8641 94.5721 40.7238 94.6153C40.5834 94.6585 40.4647 94.6801 40.3675 94.6801C40.2272 94.6801 40.1193 94.6369 40.0437 94.5505C39.9681 94.4588 39.9222 94.2996 39.9061 94.0729H39.898C39.898 94.0945 39.8548 94.1565 39.7684 94.2591C39.6821 94.3616 39.5525 94.4588 39.3798 94.5505C39.2125 94.6369 39.002 94.6801 38.7483 94.6801ZM38.9264 94.3239C39.1207 94.3239 39.288 94.2807 39.4284 94.1943C39.5687 94.108 39.674 94.0135 39.7441 93.9109C39.8197 93.8084 39.8575 93.749 39.8575 93.7328V92.5508C39.3663 92.6048 38.9615 92.71 38.6431 92.8665C38.33 93.0231 38.1735 93.2713 38.1735 93.6114C38.1735 93.8435 38.2409 94.0216 38.3759 94.1457C38.5108 94.2645 38.6943 94.3239 38.9264 94.3239ZM44.5497 94.6801C44.2583 94.6801 44.0424 94.591 43.902 94.4129C43.7617 94.2294 43.6915 93.9298 43.6915 93.5142V90.9477H43.2705V90.6077L43.6915 90.5591L43.9101 89.2718H44.2826V90.551H45.3189V90.9477H44.2826V93.3685C44.2826 93.7193 44.3149 93.9622 44.3797 94.0972C44.4499 94.2267 44.5686 94.2915 44.7359 94.2915C44.8709 94.2915 44.9923 94.278 45.1003 94.251C45.2082 94.224 45.2622 94.2078 45.2622 94.2024L45.3027 94.5263C45.2919 94.5371 45.2568 94.5559 45.1974 94.5829C45.1434 94.6045 45.0598 94.6261 44.9464 94.6477C44.8385 94.6693 44.7063 94.6801 44.5497 94.6801ZM49.4007 94.6801C48.861 94.6801 48.4373 94.5128 48.1296 94.1781C47.822 93.8381 47.6682 93.3307 47.6682 92.656C47.6682 91.976 47.8166 91.4416 48.1134 91.053C48.4103 90.6644 48.8151 90.4701 49.3279 90.4701C49.7921 90.4701 50.1483 90.632 50.3966 90.9558C50.6502 91.2743 50.7771 91.7277 50.7771 92.316C50.7771 92.4185 50.7717 92.5022 50.7609 92.567C50.7501 92.6317 50.742 92.6722 50.7366 92.6884H48.2835C48.2835 93.7787 48.6775 94.3239 49.4655 94.3239C49.6814 94.3239 49.8649 94.2861 50.016 94.2105C50.1726 94.1295 50.294 94.0459 50.3804 93.9595C50.4667 93.8678 50.5099 93.8138 50.5099 93.7976L50.7447 93.9919C50.7447 94.0135 50.6934 94.0837 50.5909 94.2024C50.4883 94.3158 50.3372 94.4237 50.1375 94.5263C49.9378 94.6288 49.6922 94.6801 49.4007 94.6801ZM50.2265 92.3484L50.2346 92.1946C50.2346 91.277 49.9324 90.8182 49.3279 90.8182C49.0094 90.8182 48.7638 90.945 48.5911 91.1987C48.4184 91.447 48.3185 91.8302 48.2916 92.3484H50.2265ZM54.729 96.7041C54.1569 96.7041 53.7224 96.5908 53.4256 96.3641C53.1287 96.1428 52.9803 95.8162 52.9803 95.3845C52.9803 95.1038 53.0423 94.8771 53.1665 94.7044C53.296 94.5317 53.4579 94.4048 53.6522 94.3239C53.5551 94.2105 53.5065 94.0513 53.5065 93.8462C53.5065 93.5817 53.6307 93.355 53.8789 93.1661C53.663 93.0527 53.4957 92.8908 53.377 92.6803C53.2582 92.4644 53.1989 92.2053 53.1989 91.9031C53.1989 91.4119 53.3365 91.0503 53.6118 90.8182C53.8924 90.5861 54.2514 90.4701 54.6886 90.4701C54.8991 90.4701 55.0853 90.4971 55.2472 90.551L56.2916 90.5591V90.8749L55.7734 90.8911C55.9893 91.134 56.0973 91.4713 56.0973 91.9031C56.0973 92.3673 55.9705 92.7235 55.7168 92.9718C55.4685 93.2201 55.1231 93.3442 54.6805 93.3442C54.4969 93.3442 54.3323 93.3253 54.1866 93.2875C53.9977 93.4117 53.9032 93.552 53.9032 93.7085C53.9032 93.8543 53.9626 93.9568 54.0813 94.0162C54.2001 94.0702 54.3917 94.0972 54.6562 94.0972C55.8382 94.0972 56.4292 94.5128 56.4292 95.344C56.4292 95.7866 56.2808 96.1239 55.9839 96.356C55.6925 96.5881 55.2742 96.7041 54.729 96.7041ZM54.6643 93.0204C55.2364 93.0204 55.5225 92.6452 55.5225 91.895C55.5225 91.5064 55.4469 91.2311 55.2958 91.0692C55.1446 90.9019 54.9314 90.8182 54.6562 90.8182C54.3809 90.8182 54.1623 90.8992 54.0004 91.0611C53.8439 91.223 53.7656 91.5037 53.7656 91.9031C53.7656 92.2701 53.8439 92.5481 54.0004 92.737C54.1569 92.9259 54.3782 93.0204 54.6643 93.0204ZM54.729 96.3398C55.1069 96.3398 55.3983 96.2615 55.6034 96.105C55.8085 95.9539 55.9111 95.7326 55.9111 95.4411C55.9111 94.8744 55.4712 94.591 54.5914 94.591C54.3377 94.591 54.1353 94.5694 53.9842 94.5263C53.8223 94.591 53.69 94.6936 53.5875 94.8339C53.4903 94.9796 53.4417 95.1605 53.4417 95.3764C53.4417 95.7002 53.5524 95.9404 53.7737 96.0969C54.0004 96.2588 54.3188 96.3398 54.729 96.3398ZM59.1509 89.7333C59.0538 89.7333 58.9755 89.7036 58.9162 89.6443C58.846 89.5741 58.8109 89.4877 58.8109 89.3852C58.8109 89.2826 58.846 89.1963 58.9162 89.1261C58.9755 89.0667 59.0538 89.037 59.1509 89.037C59.2535 89.037 59.3345 89.064 59.3938 89.118C59.4586 89.1882 59.491 89.2772 59.491 89.3852C59.491 89.4823 59.4586 89.5687 59.3938 89.6443C59.3183 89.7036 59.2373 89.7333 59.1509 89.7333ZM58.8514 94.5991V90.551H59.4424V94.5991H58.8514ZM63.8603 94.6801C63.3206 94.6801 62.8969 94.5128 62.5892 94.1781C62.2816 93.8381 62.1278 93.3307 62.1278 92.656C62.1278 91.976 62.2762 91.4416 62.573 91.053C62.8699 90.6644 63.2747 90.4701 63.7875 90.4701C64.2517 90.4701 64.6079 90.632 64.8562 90.9558C65.1098 91.2743 65.2367 91.7277 65.2367 92.316C65.2367 92.4185 65.2313 92.5022 65.2205 92.567C65.2097 92.6317 65.2016 92.6722 65.1962 92.6884H62.7431C62.7431 93.7787 63.1371 94.3239 63.9251 94.3239C64.141 94.3239 64.3245 94.2861 64.4756 94.2105C64.6322 94.1295 64.7536 94.0459 64.84 93.9595C64.9263 93.8678 64.9695 93.8138 64.9695 93.7976L65.2043 93.9919C65.2043 94.0135 65.153 94.0837 65.0505 94.2024C64.9479 94.3158 64.7968 94.4237 64.5971 94.5263C64.3974 94.6288 64.1518 94.6801 63.8603 94.6801ZM64.6861 92.3484L64.6942 92.1946C64.6942 91.277 64.392 90.8182 63.7875 90.8182C63.469 90.8182 63.2234 90.945 63.0507 91.1987C62.878 91.447 62.7781 91.8302 62.7512 92.3484H64.6861ZM68.8891 94.6801C68.603 94.6801 68.3601 94.6369 68.1604 94.5505C67.9661 94.4588 67.8177 94.3616 67.7151 94.2591C67.618 94.1565 67.5694 94.0972 67.5694 94.081L67.7718 93.7976C67.7718 93.8084 67.815 93.8597 67.9013 93.9514C67.9877 94.0432 68.1064 94.1295 68.2576 94.2105C68.4087 94.2861 68.5868 94.3239 68.7919 94.3239C69.0942 94.3239 69.3209 94.2483 69.472 94.0972C69.6285 93.946 69.7068 93.7625 69.7068 93.5466C69.7068 93.3901 69.6663 93.2606 69.5854 93.158C69.5098 93.0554 69.4126 92.9772 69.2939 92.9232C69.1805 92.8638 69.0213 92.7991 68.8162 92.7289C68.5787 92.6425 68.3898 92.5643 68.2495 92.4941C68.1091 92.4185 67.9877 92.3079 67.8852 92.1622C67.788 92.0164 67.7394 91.8275 67.7394 91.5954C67.7394 91.25 67.8636 90.9774 68.1118 90.7777C68.3655 90.5726 68.6894 90.4701 69.0834 90.4701C69.2561 90.4701 69.4207 90.4944 69.5773 90.5429C69.7392 90.5861 69.8687 90.6347 69.9659 90.6887C70.063 90.7372 70.1251 90.7696 70.1521 90.7858L70.0549 91.134C70.0333 91.1178 69.9794 91.0854 69.893 91.0368C69.8066 90.9828 69.6933 90.9315 69.553 90.883C69.418 90.8344 69.2777 90.8101 69.132 90.8101C68.8837 90.8101 68.6813 90.8722 68.5248 90.9963C68.3736 91.1205 68.2981 91.277 68.2981 91.4659C68.2981 91.6224 68.3385 91.7547 68.4195 91.8626C68.5005 91.9652 68.6003 92.0461 68.7191 92.1055C68.8432 92.1649 69.0078 92.2323 69.2129 92.3079C69.4504 92.3889 69.642 92.4698 69.7878 92.5508C69.9389 92.6263 70.0657 92.737 70.1683 92.8827C70.2708 93.0285 70.3221 93.2174 70.3221 93.4495C70.3221 93.8003 70.2007 94.0945 69.9578 94.3319C69.7149 94.564 69.3587 94.6801 68.8891 94.6801Z" fill="#0A0B36"/>
</g>
<defs>
<filter id="filter0_b_82_841" x="-29.2" y="-29.2" width="153.4" height="171.4" filterUnits="userSpaceOnUse" color-interpolation-filters="sRGB">
<feFlood flood-opacity="0" result="BackgroundImageFix"/>
<feGaussianBlur in="BackgroundImageFix" stdDeviation="14.6"/>
<feComposite in2="SourceAlpha" operator="in" result="effect1_backgroundBlur_82_841"/>
<feBlend mode="normal" in="SourceGraphic" in2="effect1_backgroundBlur_82_841" result="shape"/>
</filter>
</defs>
</svg>
