<svg width="878" height="630" viewBox="0 0 878 630" fill="none" xmlns="http://www.w3.org/2000/svg">
<line x1="44.2773" y1="369.015" x2="815.827" y2="369.015" stroke="#C9CBCD" stroke-width="1.34183"/>
<line x1="44.2773" y1="277.771" x2="815.827" y2="277.771" stroke="#C9CBCD" stroke-width="1.34183"/>
<line x1="44.2773" y1="186.527" x2="815.827" y2="186.527" stroke="#C9CBCD" stroke-width="1.34183"/>
<line x1="44.2773" y1="460.259" x2="815.827" y2="460.259" stroke="#C9CBCD" stroke-width="1.34183"/>
<line x1="44.2773" y1="564.921" x2="815.827" y2="564.921" stroke="#C9CBCD" stroke-width="1.34183"/>
<line x1="44.2773" y1="97.966" x2="815.827" y2="97.966" stroke="#C9CBCD" stroke-width="1.34183"/>
<path d="M850.373 560.207C850.373 558.361 850.674 556.922 851.275 555.892C851.876 554.85 852.928 554.33 854.431 554.33C855.923 554.33 856.97 554.85 857.571 555.892C858.172 556.922 858.473 558.361 858.473 560.207C858.473 562.086 858.172 563.545 857.571 564.587C856.97 565.628 855.923 566.149 854.431 566.149C852.928 566.149 851.876 565.628 851.275 564.587C850.674 563.545 850.373 562.086 850.373 560.207ZM857.023 560.207C857.023 559.273 856.959 558.484 856.83 557.84C856.712 557.185 856.46 556.659 856.073 556.262C855.698 555.865 855.15 555.666 854.431 555.666C853.701 555.666 853.143 555.865 852.756 556.262C852.381 556.659 852.128 557.185 852 557.84C851.882 558.484 851.822 559.273 851.822 560.207C851.822 561.173 851.882 561.984 852 562.638C852.128 563.293 852.381 563.819 852.756 564.216C853.143 564.614 853.701 564.812 854.431 564.812C855.15 564.812 855.698 564.614 856.073 564.216C856.46 563.819 856.712 563.293 856.83 562.638C856.959 561.984 857.023 561.173 857.023 560.207ZM860.162 557.132C860.162 556.402 860.382 555.822 860.822 555.393C861.262 554.952 861.826 554.732 862.513 554.732C863.2 554.732 863.764 554.952 864.204 555.393C864.644 555.822 864.864 556.402 864.864 557.132C864.864 557.872 864.644 558.463 864.204 558.903C863.764 559.332 863.2 559.547 862.513 559.547C861.826 559.547 861.262 559.332 860.822 558.903C860.382 558.463 860.162 557.872 860.162 557.132ZM869.566 554.909L863.044 566.149H861.595L868.116 554.909H869.566ZM862.513 555.634C862.148 555.634 861.858 555.763 861.644 556.021C861.44 556.267 861.338 556.638 861.338 557.132C861.338 557.625 861.44 558.001 861.644 558.259C861.858 558.516 862.148 558.645 862.513 558.645C862.878 558.645 863.168 558.516 863.383 558.259C863.597 557.99 863.705 557.615 863.705 557.132C863.705 556.638 863.597 556.267 863.383 556.021C863.168 555.763 862.878 555.634 862.513 555.634ZM866.329 563.927C866.329 563.186 866.549 562.601 866.989 562.171C867.429 561.731 867.993 561.511 868.68 561.511C869.367 561.511 869.925 561.731 870.355 562.171C870.795 562.601 871.015 563.186 871.015 563.927C871.015 564.657 870.795 565.242 870.355 565.682C869.925 566.122 869.367 566.342 868.68 566.342C867.993 566.342 867.429 566.127 866.989 565.698C866.549 565.258 866.329 564.667 866.329 563.927ZM868.664 562.429C868.299 562.429 868.009 562.558 867.794 562.816C867.58 563.062 867.472 563.433 867.472 563.927C867.472 564.41 867.58 564.78 867.794 565.038C868.009 565.284 868.299 565.408 868.664 565.408C869.029 565.408 869.319 565.284 869.533 565.038C869.748 564.78 869.855 564.41 869.855 563.927C869.855 563.433 869.748 563.062 869.533 562.816C869.319 562.558 869.029 562.429 868.664 562.429Z" fill="#292D30"/>
<path d="M844.829 465.678C846.192 464.583 847.26 463.687 848.033 462.989C848.806 462.281 849.456 461.545 849.982 460.783C850.518 460.01 850.787 459.253 850.787 458.513C850.787 457.815 850.615 457.268 850.271 456.87C849.939 456.462 849.397 456.258 848.645 456.258C847.915 456.258 847.346 456.489 846.938 456.951C846.541 457.402 846.326 458.008 846.294 458.77H844.877C844.92 457.568 845.285 456.64 845.972 455.985C846.659 455.33 847.545 455.003 848.629 455.003C849.735 455.003 850.61 455.308 851.254 455.92C851.908 456.532 852.236 457.375 852.236 458.448C852.236 459.339 851.968 460.209 851.431 461.057C850.905 461.894 850.304 462.635 849.627 463.279C848.951 463.912 848.087 464.653 847.035 465.501H852.574V466.725H844.829V465.678ZM854.268 460.912C854.268 459.066 854.568 457.627 855.17 456.597C855.771 455.555 856.823 455.035 858.326 455.035C859.818 455.035 860.864 455.555 861.465 456.597C862.067 457.627 862.367 459.066 862.367 460.912C862.367 462.79 862.067 464.25 861.465 465.292C860.864 466.333 859.818 466.854 858.326 466.854C856.823 466.854 855.771 466.333 855.17 465.292C854.568 464.25 854.268 462.79 854.268 460.912ZM860.918 460.912C860.918 459.978 860.854 459.189 860.725 458.545C860.607 457.89 860.354 457.364 859.968 456.967C859.592 456.57 859.045 456.371 858.326 456.371C857.596 456.371 857.037 456.57 856.651 456.967C856.275 457.364 856.023 457.89 855.894 458.545C855.776 459.189 855.717 459.978 855.717 460.912C855.717 461.878 855.776 462.688 855.894 463.343C856.023 463.998 856.275 464.524 856.651 464.921C857.037 465.318 857.596 465.517 858.326 465.517C859.045 465.517 859.592 465.318 859.968 464.921C860.354 464.524 860.607 463.998 860.725 463.343C860.854 462.688 860.918 461.878 860.918 460.912ZM864.057 457.836C864.057 457.106 864.277 456.527 864.717 456.097C865.157 455.657 865.721 455.437 866.408 455.437C867.095 455.437 867.658 455.657 868.098 456.097C868.538 456.527 868.758 457.106 868.758 457.836C868.758 458.577 868.538 459.168 868.098 459.608C867.658 460.037 867.095 460.252 866.408 460.252C865.721 460.252 865.157 460.037 864.717 459.608C864.277 459.168 864.057 458.577 864.057 457.836ZM873.46 455.614L866.939 466.854H865.49L872.011 455.614H873.46ZM866.408 456.339C866.043 456.339 865.753 456.468 865.538 456.725C865.334 456.972 865.232 457.343 865.232 457.836C865.232 458.33 865.334 458.706 865.538 458.964C865.753 459.221 866.043 459.35 866.408 459.35C866.773 459.35 867.062 459.221 867.277 458.964C867.492 458.695 867.599 458.32 867.599 457.836C867.599 457.343 867.492 456.972 867.277 456.725C867.062 456.468 866.773 456.339 866.408 456.339ZM870.224 464.631C870.224 463.891 870.444 463.306 870.884 462.876C871.324 462.436 871.888 462.216 872.575 462.216C873.262 462.216 873.82 462.436 874.249 462.876C874.689 463.306 874.909 463.891 874.909 464.631C874.909 465.361 874.689 465.946 874.249 466.387C873.82 466.827 873.262 467.047 872.575 467.047C871.888 467.047 871.324 466.832 870.884 466.403C870.444 465.963 870.224 465.372 870.224 464.631ZM872.559 463.134C872.194 463.134 871.904 463.263 871.689 463.52C871.474 463.767 871.367 464.138 871.367 464.631C871.367 465.115 871.474 465.485 871.689 465.742C871.904 465.989 872.194 466.113 872.559 466.113C872.923 466.113 873.213 465.989 873.428 465.742C873.643 465.485 873.75 465.115 873.75 464.631C873.75 464.138 873.643 463.767 873.428 463.52C873.213 463.263 872.923 463.134 872.559 463.134Z" fill="#292D30"/>
<path d="M847.303 502.17V500.834H850.33V512.476H848.849V502.17H847.303ZM852.847 506.534C852.847 504.688 853.148 503.249 853.749 502.219C854.35 501.177 855.402 500.657 856.905 500.657C858.397 500.657 859.444 501.177 860.045 502.219C860.646 503.249 860.947 504.688 860.947 506.534C860.947 508.413 860.646 509.872 860.045 510.914C859.444 511.955 858.397 512.476 856.905 512.476C855.402 512.476 854.35 511.955 853.749 510.914C853.148 509.872 852.847 508.413 852.847 506.534ZM859.497 506.534C859.497 505.6 859.433 504.811 859.304 504.167C859.186 503.512 858.934 502.986 858.547 502.589C858.172 502.192 857.624 501.993 856.905 501.993C856.175 501.993 855.617 502.192 855.23 502.589C854.855 502.986 854.602 503.512 854.474 504.167C854.356 504.811 854.297 505.6 854.297 506.534C854.297 507.5 854.356 508.311 854.474 508.965C854.602 509.62 854.855 510.146 855.23 510.543C855.617 510.941 856.175 511.139 856.905 511.139C857.624 511.139 858.172 510.941 858.547 510.543C858.934 510.146 859.186 509.62 859.304 508.965C859.433 508.311 859.497 507.5 859.497 506.534ZM862.636 503.459C862.636 502.729 862.856 502.149 863.296 501.72C863.736 501.279 864.3 501.059 864.987 501.059C865.674 501.059 866.238 501.279 866.678 501.72C867.118 502.149 867.338 502.729 867.338 503.459C867.338 504.199 867.118 504.79 866.678 505.23C866.238 505.659 865.674 505.874 864.987 505.874C864.3 505.874 863.736 505.659 863.296 505.23C862.856 504.79 862.636 504.199 862.636 503.459ZM872.04 501.236L865.518 512.476H864.069L870.591 501.236H872.04ZM864.987 501.961C864.622 501.961 864.332 502.09 864.118 502.347C863.914 502.594 863.812 502.965 863.812 503.459C863.812 503.952 863.914 504.328 864.118 504.586C864.332 504.843 864.622 504.972 864.987 504.972C865.352 504.972 865.642 504.843 865.857 504.586C866.071 504.317 866.179 503.942 866.179 503.459C866.179 502.965 866.071 502.594 865.857 502.347C865.642 502.09 865.352 501.961 864.987 501.961ZM868.803 510.254C868.803 509.513 869.023 508.928 869.463 508.498C869.904 508.058 870.467 507.838 871.154 507.838C871.841 507.838 872.399 508.058 872.829 508.498C873.269 508.928 873.489 509.513 873.489 510.254C873.489 510.983 873.269 511.569 872.829 512.009C872.399 512.449 871.841 512.669 871.154 512.669C870.467 512.669 869.904 512.454 869.463 512.025C869.023 511.585 868.803 510.994 868.803 510.254ZM871.138 508.756C870.773 508.756 870.483 508.885 870.269 509.142C870.054 509.389 869.946 509.76 869.946 510.254C869.946 510.737 870.054 511.107 870.269 511.365C870.483 511.611 870.773 511.735 871.138 511.735C871.503 511.735 871.793 511.611 872.008 511.365C872.222 511.107 872.33 510.737 872.33 510.254C872.33 509.76 872.222 509.389 872.008 509.142C871.793 508.885 871.503 508.756 871.138 508.756Z" fill="#292D30"/>
<path d="M844.974 412.52C845.049 411.533 845.43 410.76 846.117 410.202C846.804 409.643 847.695 409.364 848.79 409.364C849.52 409.364 850.148 409.498 850.674 409.767C851.211 410.024 851.613 410.379 851.882 410.83C852.161 411.28 852.3 411.79 852.3 412.359C852.3 413.025 852.107 413.599 851.721 414.082C851.345 414.565 850.851 414.877 850.239 415.016V415.097C850.937 415.268 851.49 415.606 851.898 416.111C852.306 416.616 852.51 417.276 852.51 418.092C852.51 418.703 852.37 419.256 852.091 419.75C851.812 420.233 851.393 420.614 850.835 420.893C850.277 421.172 849.606 421.312 848.822 421.312C847.684 421.312 846.751 421.017 846.021 420.426C845.291 419.825 844.883 418.977 844.797 417.882H846.214C846.289 418.526 846.552 419.052 847.003 419.46C847.454 419.868 848.055 420.072 848.806 420.072C849.558 420.072 850.127 419.879 850.513 419.492C850.91 419.095 851.109 418.585 851.109 417.963C851.109 417.158 850.84 416.578 850.304 416.224C849.767 415.869 848.956 415.692 847.872 415.692H847.502V414.469H847.888C848.876 414.458 849.622 414.297 850.127 413.986C850.631 413.664 850.883 413.17 850.883 412.504C850.883 411.935 850.695 411.479 850.32 411.136C849.955 410.792 849.429 410.62 848.742 410.62C848.076 410.62 847.539 410.792 847.132 411.136C846.724 411.479 846.482 411.941 846.407 412.52H844.974ZM854.488 415.29C854.488 413.443 854.789 412.005 855.39 410.974C855.991 409.933 857.043 409.413 858.546 409.413C860.038 409.413 861.084 409.933 861.686 410.974C862.287 412.005 862.587 413.443 862.587 415.29C862.587 417.168 862.287 418.628 861.686 419.67C861.084 420.711 860.038 421.231 858.546 421.231C857.043 421.231 855.991 420.711 855.39 419.67C854.789 418.628 854.488 417.168 854.488 415.29ZM861.138 415.29C861.138 414.356 861.074 413.567 860.945 412.923C860.827 412.268 860.575 411.742 860.188 411.345C859.812 410.948 859.265 410.749 858.546 410.749C857.816 410.749 857.258 410.948 856.871 411.345C856.495 411.742 856.243 412.268 856.114 412.923C855.996 413.567 855.937 414.356 855.937 415.29C855.937 416.256 855.996 417.066 856.114 417.721C856.243 418.376 856.495 418.902 856.871 419.299C857.258 419.696 857.816 419.895 858.546 419.895C859.265 419.895 859.812 419.696 860.188 419.299C860.575 418.902 860.827 418.376 860.945 417.721C861.074 417.066 861.138 416.256 861.138 415.29ZM864.277 412.214C864.277 411.484 864.497 410.905 864.937 410.475C865.377 410.035 865.941 409.815 866.628 409.815C867.315 409.815 867.878 410.035 868.318 410.475C868.759 410.905 868.979 411.484 868.979 412.214C868.979 412.955 868.759 413.545 868.318 413.986C867.878 414.415 867.315 414.63 866.628 414.63C865.941 414.63 865.377 414.415 864.937 413.986C864.497 413.545 864.277 412.955 864.277 412.214ZM873.68 409.992L867.159 421.231H865.71L872.231 409.992H873.68ZM866.628 410.717C866.263 410.717 865.973 410.846 865.758 411.103C865.554 411.35 865.452 411.721 865.452 412.214C865.452 412.708 865.554 413.084 865.758 413.341C865.973 413.599 866.263 413.728 866.628 413.728C866.993 413.728 867.283 413.599 867.497 413.341C867.712 413.073 867.819 412.697 867.819 412.214C867.819 411.721 867.712 411.35 867.497 411.103C867.283 410.846 866.993 410.717 866.628 410.717ZM870.444 419.009C870.444 418.269 870.664 417.684 871.104 417.254C871.544 416.814 872.108 416.594 872.795 416.594C873.482 416.594 874.04 416.814 874.469 417.254C874.909 417.684 875.13 418.269 875.13 419.009C875.13 419.739 874.909 420.324 874.469 420.764C874.04 421.205 873.482 421.425 872.795 421.425C872.108 421.425 871.544 421.21 871.104 420.781C870.664 420.34 870.444 419.75 870.444 419.009ZM872.779 417.512C872.414 417.512 872.124 417.641 871.909 417.898C871.694 418.145 871.587 418.516 871.587 419.009C871.587 419.492 871.694 419.863 871.909 420.12C872.124 420.367 872.414 420.491 872.779 420.491C873.144 420.491 873.433 420.367 873.648 420.12C873.863 419.863 873.97 419.492 873.97 419.009C873.97 418.516 873.863 418.145 873.648 417.898C873.433 417.641 873.144 417.512 872.779 417.512Z" fill="#292D30"/>
<path d="M843.308 373.017V371.906L848.96 364.08H850.715V371.745H852.325V373.017H850.715V375.609H849.266V373.017H843.308ZM849.33 365.61L844.999 371.745H849.33V365.61ZM853.789 369.668C853.789 367.821 854.09 366.383 854.691 365.352C855.292 364.311 856.344 363.791 857.847 363.791C859.339 363.791 860.385 364.311 860.987 365.352C861.588 366.383 861.888 367.821 861.888 369.668C861.888 371.546 861.588 373.006 860.987 374.047C860.385 375.089 859.339 375.609 857.847 375.609C856.344 375.609 855.292 375.089 854.691 374.047C854.09 373.006 853.789 371.546 853.789 369.668ZM860.439 369.668C860.439 368.734 860.375 367.945 860.246 367.301C860.128 366.646 859.875 366.12 859.489 365.723C859.113 365.326 858.566 365.127 857.847 365.127C857.117 365.127 856.559 365.326 856.172 365.723C855.796 366.12 855.544 366.646 855.415 367.301C855.297 367.945 855.238 368.734 855.238 369.668C855.238 370.634 855.297 371.444 855.415 372.099C855.544 372.754 855.796 373.28 856.172 373.677C856.559 374.074 857.117 374.273 857.847 374.273C858.566 374.273 859.113 374.074 859.489 373.677C859.875 373.28 860.128 372.754 860.246 372.099C860.375 371.444 860.439 370.634 860.439 369.668ZM863.578 366.592C863.578 365.862 863.798 365.283 864.238 364.853C864.678 364.413 865.242 364.193 865.929 364.193C866.616 364.193 867.179 364.413 867.619 364.853C868.06 365.283 868.28 365.862 868.28 366.592C868.28 367.333 868.06 367.923 867.619 368.363C867.179 368.793 866.616 369.008 865.929 369.008C865.242 369.008 864.678 368.793 864.238 368.363C863.798 367.923 863.578 367.333 863.578 366.592ZM872.981 364.37L866.46 375.609H865.011L871.532 364.37H872.981ZM865.929 365.095C865.564 365.095 865.274 365.224 865.059 365.481C864.855 365.728 864.753 366.098 864.753 366.592C864.753 367.086 864.855 367.462 865.059 367.719C865.274 367.977 865.564 368.106 865.929 368.106C866.294 368.106 866.583 367.977 866.798 367.719C867.013 367.451 867.12 367.075 867.12 366.592C867.12 366.098 867.013 365.728 866.798 365.481C866.583 365.224 866.294 365.095 865.929 365.095ZM869.745 373.387C869.745 372.647 869.965 372.062 870.405 371.632C870.845 371.192 871.409 370.972 872.096 370.972C872.783 370.972 873.341 371.192 873.77 371.632C874.21 372.062 874.43 372.647 874.43 373.387C874.43 374.117 874.21 374.702 873.77 375.142C873.341 375.583 872.783 375.803 872.096 375.803C871.409 375.803 870.845 375.588 870.405 375.158C869.965 374.718 869.745 374.128 869.745 373.387ZM872.08 371.89C871.715 371.89 871.425 372.019 871.21 372.276C870.995 372.523 870.888 372.893 870.888 373.387C870.888 373.87 870.995 374.241 871.21 374.498C871.425 374.745 871.715 374.869 872.08 374.869C872.445 374.869 872.734 374.745 872.949 374.498C873.164 374.241 873.271 373.87 873.271 373.387C873.271 372.893 873.164 372.523 872.949 372.276C872.734 372.019 872.445 371.89 872.08 371.89Z" fill="#292D30"/>
<path d="M851.085 319.618H845.434V323.289C845.68 322.945 846.045 322.666 846.529 322.452C847.012 322.226 847.532 322.113 848.09 322.113C848.981 322.113 849.706 322.301 850.264 322.677C850.822 323.042 851.22 323.52 851.456 324.11C851.703 324.69 851.826 325.307 851.826 325.962C851.826 326.735 851.681 327.427 851.391 328.039C851.101 328.651 850.656 329.134 850.055 329.488C849.464 329.842 848.729 330.019 847.849 330.019C846.722 330.019 845.809 329.73 845.112 329.15C844.414 328.57 843.99 327.797 843.84 326.831H845.273C845.412 327.443 845.707 327.921 846.158 328.264C846.609 328.608 847.178 328.78 847.865 328.78C848.713 328.78 849.352 328.527 849.781 328.023C850.21 327.508 850.425 326.831 850.425 325.994C850.425 325.157 850.21 324.513 849.781 324.062C849.352 323.6 848.718 323.369 847.881 323.369C847.312 323.369 846.813 323.509 846.384 323.788C845.965 324.056 845.659 324.427 845.466 324.899H844.081V318.329H851.085V319.618ZM853.773 324.046C853.773 322.199 854.074 320.761 854.675 319.73C855.276 318.689 856.328 318.168 857.831 318.168C859.323 318.168 860.37 318.689 860.971 319.73C861.572 320.761 861.873 322.199 861.873 324.046C861.873 325.924 861.572 327.384 860.971 328.425C860.37 329.467 859.323 329.987 857.831 329.987C856.328 329.987 855.276 329.467 854.675 328.425C854.074 327.384 853.773 325.924 853.773 324.046ZM860.423 324.046C860.423 323.112 860.359 322.323 860.23 321.679C860.112 321.024 859.86 320.498 859.473 320.101C859.098 319.704 858.55 319.505 857.831 319.505C857.101 319.505 856.543 319.704 856.156 320.101C855.781 320.498 855.528 321.024 855.4 321.679C855.281 322.323 855.222 323.112 855.222 324.046C855.222 325.012 855.281 325.822 855.4 326.477C855.528 327.132 855.781 327.658 856.156 328.055C856.543 328.452 857.101 328.651 857.831 328.651C858.55 328.651 859.098 328.452 859.473 328.055C859.86 327.658 860.112 327.132 860.23 326.477C860.359 325.822 860.423 325.012 860.423 324.046ZM863.562 320.97C863.562 320.24 863.782 319.661 864.222 319.231C864.662 318.791 865.226 318.571 865.913 318.571C866.6 318.571 867.164 318.791 867.604 319.231C868.044 319.661 868.264 320.24 868.264 320.97C868.264 321.711 868.044 322.301 867.604 322.741C867.164 323.171 866.6 323.385 865.913 323.385C865.226 323.385 864.662 323.171 864.222 322.741C863.782 322.301 863.562 321.711 863.562 320.97ZM872.966 318.748L866.444 329.987H864.995L871.516 318.748H872.966ZM865.913 319.473C865.548 319.473 865.258 319.602 865.043 319.859C864.839 320.106 864.738 320.476 864.738 320.97C864.738 321.464 864.839 321.84 865.043 322.097C865.258 322.355 865.548 322.484 865.913 322.484C866.278 322.484 866.568 322.355 866.782 322.097C866.997 321.829 867.104 321.453 867.104 320.97C867.104 320.476 866.997 320.106 866.782 319.859C866.568 319.602 866.278 319.473 865.913 319.473ZM869.729 327.765C869.729 327.025 869.949 326.439 870.389 326.01C870.829 325.57 871.393 325.35 872.08 325.35C872.767 325.35 873.325 325.57 873.755 326.01C874.195 326.439 874.415 327.025 874.415 327.765C874.415 328.495 874.195 329.08 873.755 329.52C873.325 329.96 872.767 330.18 872.08 330.18C871.393 330.18 870.829 329.966 870.389 329.536C869.949 329.096 869.729 328.506 869.729 327.765ZM872.064 326.268C871.699 326.268 871.409 326.397 871.194 326.654C870.98 326.901 870.872 327.271 870.872 327.765C870.872 328.248 870.98 328.619 871.194 328.876C871.409 329.123 871.699 329.247 872.064 329.247C872.429 329.247 872.719 329.123 872.933 328.876C873.148 328.619 873.255 328.248 873.255 327.765C873.255 327.271 873.148 326.901 872.933 326.654C872.719 326.397 872.429 326.268 872.064 326.268Z" fill="#292D30"/>
<path d="M850.151 275.493C849.915 274.301 849.18 273.706 847.945 273.706C846.99 273.706 846.276 274.076 845.804 274.817C845.332 275.547 845.101 276.754 845.112 278.44C845.358 277.881 845.766 277.447 846.335 277.135C846.915 276.813 847.559 276.652 848.268 276.652C849.373 276.652 850.253 276.996 850.908 277.683C851.574 278.37 851.907 279.32 851.907 280.533C851.907 281.263 851.762 281.918 851.472 282.497C851.193 283.077 850.763 283.539 850.184 283.882C849.615 284.226 848.922 284.397 848.107 284.397C847.001 284.397 846.137 284.15 845.514 283.657C844.891 283.163 844.457 282.481 844.21 281.612C843.963 280.742 843.84 279.669 843.84 278.391C843.84 274.452 845.214 272.482 847.962 272.482C849.014 272.482 849.84 272.766 850.441 273.335C851.042 273.904 851.397 274.624 851.504 275.493H850.151ZM847.962 277.892C847.5 277.892 847.065 277.989 846.657 278.182C846.249 278.365 845.917 278.649 845.659 279.035C845.412 279.411 845.289 279.873 845.289 280.42C845.289 281.236 845.525 281.902 845.997 282.417C846.469 282.921 847.146 283.174 848.026 283.174C848.777 283.174 849.373 282.943 849.813 282.481C850.264 282.009 850.49 281.376 850.49 280.581C850.49 279.744 850.275 279.089 849.846 278.617C849.416 278.134 848.788 277.892 847.962 277.892ZM853.883 278.424C853.883 276.577 854.184 275.139 854.785 274.108C855.386 273.067 856.438 272.546 857.941 272.546C859.433 272.546 860.48 273.067 861.081 274.108C861.682 275.139 861.983 276.577 861.983 278.424C861.983 280.302 861.682 281.762 861.081 282.803C860.48 283.845 859.433 284.365 857.941 284.365C856.438 284.365 855.386 283.845 854.785 282.803C854.184 281.762 853.883 280.302 853.883 278.424ZM860.533 278.424C860.533 277.49 860.469 276.701 860.34 276.057C860.222 275.402 859.97 274.876 859.583 274.479C859.208 274.081 858.66 273.883 857.941 273.883C857.211 273.883 856.653 274.081 856.266 274.479C855.891 274.876 855.638 275.402 855.51 276.057C855.392 276.701 855.332 277.49 855.332 278.424C855.332 279.39 855.392 280.2 855.51 280.855C855.638 281.51 855.891 282.036 856.266 282.433C856.653 282.83 857.211 283.029 857.941 283.029C858.66 283.029 859.208 282.83 859.583 282.433C859.97 282.036 860.222 281.51 860.34 280.855C860.469 280.2 860.533 279.39 860.533 278.424ZM863.672 275.348C863.672 274.618 863.892 274.038 864.332 273.609C864.772 273.169 865.336 272.949 866.023 272.949C866.71 272.949 867.274 273.169 867.714 273.609C868.154 274.038 868.374 274.618 868.374 275.348C868.374 276.089 868.154 276.679 867.714 277.119C867.274 277.549 866.71 277.763 866.023 277.763C865.336 277.763 864.772 277.549 864.332 277.119C863.892 276.679 863.672 276.089 863.672 275.348ZM873.076 273.126L866.554 284.365H865.105L871.626 273.126H873.076ZM866.023 273.851C865.658 273.851 865.368 273.979 865.154 274.237C864.95 274.484 864.848 274.854 864.848 275.348C864.848 275.842 864.95 276.218 865.154 276.475C865.368 276.733 865.658 276.862 866.023 276.862C866.388 276.862 866.678 276.733 866.893 276.475C867.107 276.207 867.215 275.831 867.215 275.348C867.215 274.854 867.107 274.484 866.893 274.237C866.678 273.979 866.388 273.851 866.023 273.851ZM869.839 282.143C869.839 281.402 870.059 280.817 870.499 280.388C870.939 279.948 871.503 279.728 872.19 279.728C872.877 279.728 873.435 279.948 873.865 280.388C874.305 280.817 874.525 281.402 874.525 282.143C874.525 282.873 874.305 283.458 873.865 283.898C873.435 284.338 872.877 284.558 872.19 284.558C871.503 284.558 870.939 284.344 870.499 283.914C870.059 283.474 869.839 282.884 869.839 282.143ZM872.174 280.646C871.809 280.646 871.519 280.774 871.304 281.032C871.09 281.279 870.982 281.649 870.982 282.143C870.982 282.626 871.09 282.997 871.304 283.254C871.519 283.501 871.809 283.624 872.174 283.624C872.539 283.624 872.829 283.501 873.043 283.254C873.258 282.997 873.365 282.626 873.365 282.143C873.365 281.649 873.258 281.279 873.043 281.032C872.829 280.774 872.539 280.646 872.174 280.646Z" fill="#292D30"/>
<path d="M852.171 228.245L847.695 238.743H846.214L850.755 228.39H844.539V227.134H852.171V228.245ZM853.796 232.801C853.796 230.955 854.097 229.517 854.698 228.486C855.299 227.445 856.351 226.924 857.854 226.924C859.346 226.924 860.393 227.445 860.994 228.486C861.595 229.517 861.895 230.955 861.895 232.801C861.895 234.68 861.595 236.14 860.994 237.181C860.393 238.222 859.346 238.743 857.854 238.743C856.351 238.743 855.299 238.222 854.698 237.181C854.097 236.14 853.796 234.68 853.796 232.801ZM860.446 232.801C860.446 231.868 860.382 231.079 860.253 230.435C860.135 229.78 859.883 229.254 859.496 228.857C859.121 228.459 858.573 228.261 857.854 228.261C857.124 228.261 856.566 228.459 856.179 228.857C855.804 229.254 855.551 229.78 855.422 230.435C855.304 231.079 855.245 231.868 855.245 232.801C855.245 233.768 855.304 234.578 855.422 235.233C855.551 235.888 855.804 236.414 856.179 236.811C856.566 237.208 857.124 237.407 857.854 237.407C858.573 237.407 859.121 237.208 859.496 236.811C859.883 236.414 860.135 235.888 860.253 235.233C860.382 234.578 860.446 233.768 860.446 232.801ZM863.585 229.726C863.585 228.996 863.805 228.416 864.245 227.987C864.685 227.547 865.249 227.327 865.936 227.327C866.623 227.327 867.186 227.547 867.627 227.987C868.067 228.416 868.287 228.996 868.287 229.726C868.287 230.467 868.067 231.057 867.627 231.497C867.186 231.927 866.623 232.141 865.936 232.141C865.249 232.141 864.685 231.927 864.245 231.497C863.805 231.057 863.585 230.467 863.585 229.726ZM872.988 227.504L866.467 238.743H865.018L871.539 227.504H872.988ZM865.936 228.229C865.571 228.229 865.281 228.357 865.066 228.615C864.862 228.862 864.76 229.232 864.76 229.726C864.76 230.22 864.862 230.596 865.066 230.853C865.281 231.111 865.571 231.24 865.936 231.24C866.301 231.24 866.591 231.111 866.805 230.853C867.02 230.585 867.127 230.209 867.127 229.726C867.127 229.232 867.02 228.862 866.805 228.615C866.591 228.357 866.301 228.229 865.936 228.229ZM869.752 236.521C869.752 235.78 869.972 235.195 870.412 234.766C870.852 234.326 871.416 234.106 872.103 234.106C872.79 234.106 873.348 234.326 873.777 234.766C874.218 235.195 874.438 235.78 874.438 236.521C874.438 237.251 874.218 237.836 873.777 238.276C873.348 238.716 872.79 238.936 872.103 238.936C871.416 238.936 870.852 238.722 870.412 238.292C869.972 237.852 869.752 237.262 869.752 236.521ZM872.087 235.024C871.722 235.024 871.432 235.152 871.217 235.41C871.003 235.657 870.895 236.027 870.895 236.521C870.895 237.004 871.003 237.374 871.217 237.632C871.432 237.879 871.722 238.002 872.087 238.002C872.452 238.002 872.742 237.879 872.956 237.632C873.171 237.374 873.278 237.004 873.278 236.521C873.278 236.027 873.171 235.657 872.956 235.41C872.742 235.152 872.452 235.024 872.087 235.024Z" fill="#292D30"/>
<path d="M845.788 187.067C845.187 186.831 844.725 186.487 844.403 186.036C844.081 185.585 843.92 185.038 843.92 184.394C843.92 183.814 844.065 183.294 844.355 182.832C844.645 182.36 845.074 181.989 845.643 181.721C846.223 181.442 846.92 181.302 847.736 181.302C848.552 181.302 849.244 181.442 849.813 181.721C850.393 181.989 850.828 182.36 851.118 182.832C851.418 183.294 851.568 183.814 851.568 184.394C851.568 185.016 851.402 185.564 851.069 186.036C850.736 186.498 850.28 186.841 849.701 187.067C850.366 187.271 850.892 187.63 851.279 188.146C851.676 188.65 851.874 189.262 851.874 189.981C851.874 190.679 851.703 191.291 851.359 191.817C851.016 192.332 850.527 192.735 849.894 193.024C849.271 193.304 848.552 193.443 847.736 193.443C846.92 193.443 846.201 193.304 845.579 193.024C844.967 192.735 844.489 192.332 844.145 191.817C843.802 191.291 843.63 190.679 843.63 189.981C843.63 189.262 843.823 188.645 844.21 188.129C844.596 187.614 845.122 187.26 845.788 187.067ZM850.151 184.571C850.151 183.916 849.937 183.412 849.507 183.057C849.078 182.703 848.488 182.526 847.736 182.526C846.995 182.526 846.41 182.703 845.981 183.057C845.552 183.412 845.337 183.921 845.337 184.587C845.337 185.188 845.557 185.671 845.997 186.036C846.448 186.401 847.028 186.584 847.736 186.584C848.455 186.584 849.035 186.401 849.475 186.036C849.926 185.66 850.151 185.172 850.151 184.571ZM847.736 187.711C846.942 187.711 846.292 187.899 845.788 188.274C845.283 188.639 845.031 189.192 845.031 189.933C845.031 190.62 845.273 191.173 845.756 191.591C846.249 192.01 846.91 192.219 847.736 192.219C848.563 192.219 849.218 192.01 849.701 191.591C850.184 191.173 850.425 190.62 850.425 189.933C850.425 189.214 850.178 188.666 849.684 188.29C849.191 187.904 848.541 187.711 847.736 187.711ZM853.82 187.179C853.82 185.333 854.121 183.895 854.722 182.864C855.323 181.823 856.375 181.302 857.878 181.302C859.37 181.302 860.417 181.823 861.018 182.864C861.619 183.895 861.92 185.333 861.92 187.179C861.92 189.058 861.619 190.518 861.018 191.559C860.417 192.6 859.37 193.121 857.878 193.121C856.375 193.121 855.323 192.6 854.722 191.559C854.121 190.518 853.82 189.058 853.82 187.179ZM860.471 187.179C860.471 186.246 860.406 185.457 860.277 184.812C860.159 184.158 859.907 183.632 859.52 183.234C859.145 182.837 858.597 182.639 857.878 182.639C857.148 182.639 856.59 182.837 856.204 183.234C855.828 183.632 855.576 184.158 855.447 184.812C855.329 185.457 855.27 186.246 855.27 187.179C855.27 188.146 855.329 188.956 855.447 189.611C855.576 190.266 855.828 190.792 856.204 191.189C856.59 191.586 857.148 191.785 857.878 191.785C858.597 191.785 859.145 191.586 859.52 191.189C859.907 190.792 860.159 190.266 860.277 189.611C860.406 188.956 860.471 188.146 860.471 187.179ZM863.609 184.104C863.609 183.374 863.829 182.794 864.269 182.365C864.71 181.925 865.273 181.705 865.96 181.705C866.647 181.705 867.211 181.925 867.651 182.365C868.091 182.794 868.311 183.374 868.311 184.104C868.311 184.845 868.091 185.435 867.651 185.875C867.211 186.305 866.647 186.519 865.96 186.519C865.273 186.519 864.71 186.305 864.269 185.875C863.829 185.435 863.609 184.845 863.609 184.104ZM873.013 181.882L866.491 193.121H865.042L871.564 181.882H873.013ZM865.96 182.606C865.595 182.606 865.305 182.735 865.091 182.993C864.887 183.24 864.785 183.61 864.785 184.104C864.785 184.598 864.887 184.973 865.091 185.231C865.305 185.489 865.595 185.618 865.96 185.618C866.325 185.618 866.615 185.489 866.83 185.231C867.044 184.963 867.152 184.587 867.152 184.104C867.152 183.61 867.044 183.24 866.83 182.993C866.615 182.735 866.325 182.606 865.96 182.606ZM869.776 190.899C869.776 190.158 869.996 189.573 870.436 189.144C870.877 188.704 871.44 188.484 872.127 188.484C872.814 188.484 873.372 188.704 873.802 189.144C874.242 189.573 874.462 190.158 874.462 190.899C874.462 191.629 874.242 192.214 873.802 192.654C873.372 193.094 872.814 193.314 872.127 193.314C871.44 193.314 870.877 193.1 870.436 192.67C869.996 192.23 869.776 191.64 869.776 190.899ZM872.111 189.401C871.746 189.401 871.456 189.53 871.242 189.788C871.027 190.035 870.92 190.405 870.92 190.899C870.92 191.382 871.027 191.752 871.242 192.01C871.456 192.257 871.746 192.38 872.111 192.38C872.476 192.38 872.766 192.257 872.981 192.01C873.195 191.752 873.303 191.382 873.303 190.899C873.303 190.405 873.195 190.035 872.981 189.788C872.766 189.53 872.476 189.401 872.111 189.401Z" fill="#292D30"/>
<path d="M845.546 144.375C845.654 144.987 845.901 145.459 846.287 145.792C846.684 146.125 847.216 146.291 847.881 146.291C848.772 146.291 849.427 145.942 849.846 145.245C850.275 144.547 850.479 143.371 850.457 141.718C850.232 142.201 849.856 142.582 849.33 142.862C848.804 143.13 848.219 143.264 847.575 143.264C846.856 143.264 846.212 143.119 845.643 142.829C845.085 142.529 844.645 142.094 844.323 141.525C844.001 140.956 843.84 140.269 843.84 139.464C843.84 138.315 844.172 137.392 844.838 136.695C845.503 135.986 846.448 135.632 847.672 135.632C849.175 135.632 850.227 136.12 850.828 137.097C851.44 138.074 851.746 139.528 851.746 141.461C851.746 142.813 851.622 143.93 851.375 144.81C851.139 145.69 850.731 146.361 850.151 146.823C849.583 147.284 848.799 147.515 847.801 147.515C846.706 147.515 845.852 147.22 845.24 146.629C844.628 146.039 844.28 145.288 844.194 144.375H845.546ZM847.817 142.024C848.536 142.024 849.126 141.804 849.588 141.364C850.049 140.913 850.28 140.307 850.28 139.545C850.28 138.739 850.055 138.09 849.604 137.596C849.153 137.102 848.52 136.856 847.704 136.856C846.953 136.856 846.351 137.092 845.901 137.564C845.46 138.036 845.24 138.659 845.24 139.432C845.24 140.216 845.46 140.843 845.901 141.316C846.341 141.788 846.979 142.024 847.817 142.024ZM853.805 141.557C853.805 139.711 854.105 138.273 854.706 137.242C855.308 136.201 856.36 135.68 857.862 135.68C859.354 135.68 860.401 136.201 861.002 137.242C861.603 138.273 861.904 139.711 861.904 141.557C861.904 143.436 861.603 144.896 861.002 145.937C860.401 146.978 859.354 147.499 857.862 147.499C856.36 147.499 855.308 146.978 854.706 145.937C854.105 144.896 853.805 143.436 853.805 141.557ZM860.455 141.557C860.455 140.623 860.39 139.834 860.262 139.19C860.143 138.536 859.891 138.01 859.505 137.612C859.129 137.215 858.582 137.017 857.862 137.017C857.132 137.017 856.574 137.215 856.188 137.612C855.812 138.01 855.56 138.536 855.431 139.19C855.313 139.834 855.254 140.623 855.254 141.557C855.254 142.523 855.313 143.334 855.431 143.989C855.56 144.644 855.812 145.17 856.188 145.567C856.574 145.964 857.132 146.162 857.862 146.162C858.582 146.162 859.129 145.964 859.505 145.567C859.891 145.17 860.143 144.644 860.262 143.989C860.39 143.334 860.455 142.523 860.455 141.557ZM863.594 138.482C863.594 137.752 863.814 137.172 864.254 136.743C864.694 136.303 865.257 136.083 865.944 136.083C866.631 136.083 867.195 136.303 867.635 136.743C868.075 137.172 868.295 137.752 868.295 138.482C868.295 139.223 868.075 139.813 867.635 140.253C867.195 140.682 866.631 140.897 865.944 140.897C865.257 140.897 864.694 140.682 864.254 140.253C863.814 139.813 863.594 139.223 863.594 138.482ZM872.997 136.26L866.476 147.499H865.027L871.548 136.26H872.997ZM865.944 136.984C865.579 136.984 865.29 137.113 865.075 137.371C864.871 137.618 864.769 137.988 864.769 138.482C864.769 138.976 864.871 139.351 865.075 139.609C865.29 139.867 865.579 139.995 865.944 139.995C866.309 139.995 866.599 139.867 866.814 139.609C867.029 139.341 867.136 138.965 867.136 138.482C867.136 137.988 867.029 137.618 866.814 137.371C866.599 137.113 866.309 136.984 865.944 136.984ZM869.761 145.277C869.761 144.536 869.981 143.951 870.421 143.522C870.861 143.082 871.424 142.862 872.111 142.862C872.798 142.862 873.357 143.082 873.786 143.522C874.226 143.951 874.446 144.536 874.446 145.277C874.446 146.007 874.226 146.592 873.786 147.032C873.357 147.472 872.798 147.692 872.111 147.692C871.424 147.692 870.861 147.477 870.421 147.048C869.981 146.608 869.761 146.018 869.761 145.277ZM872.095 143.779C871.73 143.779 871.441 143.908 871.226 144.166C871.011 144.413 870.904 144.783 870.904 145.277C870.904 145.76 871.011 146.13 871.226 146.388C871.441 146.635 871.73 146.758 872.095 146.758C872.46 146.758 872.75 146.635 872.965 146.388C873.18 146.13 873.287 145.76 873.287 145.277C873.287 144.783 873.18 144.413 872.965 144.166C872.75 143.908 872.46 143.779 872.095 143.779Z" fill="#292D30"/>
<path d="M840.592 91.5716V90.2352H843.62V101.877H842.138V91.5716H840.592ZM846.136 95.9353C846.136 94.0889 846.437 92.6505 847.038 91.6199C847.639 90.5787 848.691 90.0581 850.194 90.0581C851.686 90.0581 852.733 90.5787 853.334 91.6199C853.935 92.6505 854.236 94.0889 854.236 95.9353C854.236 97.8138 853.935 99.2737 853.334 100.315C852.733 101.356 851.686 101.877 850.194 101.877C848.691 101.877 847.639 101.356 847.038 100.315C846.437 99.2737 846.136 97.8138 846.136 95.9353ZM852.787 95.9353C852.787 95.0013 852.722 94.2124 852.593 93.5683C852.475 92.9135 852.223 92.3875 851.837 91.9903C851.461 91.5931 850.913 91.3945 850.194 91.3945C849.464 91.3945 848.906 91.5931 848.52 91.9903C848.144 92.3875 847.892 92.9135 847.763 93.5683C847.645 94.2124 847.586 95.0013 847.586 95.9353C847.586 96.9014 847.645 97.7118 847.763 98.3666C847.892 99.0215 848.144 99.5475 848.52 99.9446C848.906 100.342 849.464 100.54 850.194 100.54C850.913 100.54 851.461 100.342 851.837 99.9446C852.223 99.5475 852.475 99.0215 852.593 98.3666C852.722 97.7118 852.787 96.9014 852.787 95.9353ZM856.247 95.9353C856.247 94.0889 856.548 92.6505 857.149 91.6199C857.75 90.5787 858.802 90.0581 860.305 90.0581C861.797 90.0581 862.844 90.5787 863.445 91.6199C864.046 92.6505 864.347 94.0889 864.347 95.9353C864.347 97.8138 864.046 99.2737 863.445 100.315C862.844 101.356 861.797 101.877 860.305 101.877C858.802 101.877 857.75 101.356 857.149 100.315C856.548 99.2737 856.247 97.8138 856.247 95.9353ZM862.897 95.9353C862.897 95.0013 862.833 94.2124 862.704 93.5683C862.586 92.9135 862.334 92.3875 861.947 91.9903C861.572 91.5931 861.024 91.3945 860.305 91.3945C859.575 91.3945 859.017 91.5931 858.63 91.9903C858.255 92.3875 858.002 92.9135 857.874 93.5683C857.756 94.2124 857.696 95.0013 857.696 95.9353C857.696 96.9014 857.756 97.7118 857.874 98.3666C858.002 99.0215 858.255 99.5475 858.63 99.9446C859.017 100.342 859.575 100.54 860.305 100.54C861.024 100.54 861.572 100.342 861.947 99.9446C862.334 99.5475 862.586 99.0215 862.704 98.3666C862.833 97.7118 862.897 96.9014 862.897 95.9353ZM866.036 92.8598C866.036 92.1298 866.256 91.5502 866.696 91.1208C867.136 90.6807 867.7 90.4606 868.387 90.4606C869.074 90.4606 869.638 90.6807 870.078 91.1208C870.518 91.5502 870.738 92.1298 870.738 92.8598C870.738 93.6005 870.518 94.1909 870.078 94.631C869.638 95.0604 869.074 95.2751 868.387 95.2751C867.7 95.2751 867.136 95.0604 866.696 94.631C866.256 94.1909 866.036 93.6005 866.036 92.8598ZM875.44 90.6377L868.918 101.877H867.469L873.99 90.6377H875.44ZM868.387 91.3623C868.022 91.3623 867.732 91.4911 867.518 91.7488C867.314 91.9957 867.212 92.366 867.212 92.8598C867.212 93.3536 867.314 93.7293 867.518 93.9869C867.732 94.2446 868.022 94.3734 868.387 94.3734C868.752 94.3734 869.042 94.2446 869.257 93.9869C869.471 93.7186 869.579 93.3428 869.579 92.8598C869.579 92.366 869.471 91.9957 869.257 91.7488C869.042 91.4911 868.752 91.3623 868.387 91.3623ZM872.203 99.6548C872.203 98.9141 872.423 98.3291 872.863 97.8997C873.303 97.4596 873.867 97.2395 874.554 97.2395C875.241 97.2395 875.799 97.4596 876.229 97.8997C876.669 98.3291 876.889 98.9141 876.889 99.6548C876.889 100.385 876.669 100.97 876.229 101.41C875.799 101.85 875.241 102.07 874.554 102.07C873.867 102.07 873.303 101.855 872.863 101.426C872.423 100.986 872.203 100.395 872.203 99.6548ZM874.538 98.1573C874.173 98.1573 873.883 98.2861 873.668 98.5438C873.454 98.7907 873.346 99.161 873.346 99.6548C873.346 100.138 873.454 100.508 873.668 100.766C873.883 101.013 874.173 101.136 874.538 101.136C874.903 101.136 875.193 101.013 875.407 100.766C875.622 100.508 875.729 100.138 875.729 99.6548C875.729 99.161 875.622 98.7907 875.407 98.5438C875.193 98.2861 874.903 98.1573 874.538 98.1573Z" fill="#292D30"/>
<rect width="84.535" height="466.955" rx="22.811" transform="matrix(-1 0 0 1 793.02 98.637)" fill="#003488"/>
<rect width="84.535" height="386.446" rx="22.811" transform="matrix(-1 0 0 1 687.016 179.147)" fill="#003488"/>
<rect width="84.535" height="237.503" rx="22.811" transform="matrix(-1 0 0 1 581.008 328.089)" fill="#003488"/>
<rect width="84.535" height="328.747" rx="22.811" transform="matrix(-1 0 0 1 475.004 236.845)" fill="#003488"/>
<rect width="84.535" height="205.299" rx="22.811" transform="matrix(-1 0 0 1 369 360.293)" fill="#003488"/>
<rect width="84.535" height="161.019" rx="22.811" transform="matrix(-1 0 0 1 262.996 404.573)" fill="#003488"/>
<rect width="84.535" height="111.372" rx="22.811" transform="matrix(-1 0 0 1 156.992 454.221)" fill="#003488"/>
<path d="M5.19205 560.875C5.19205 558.721 5.54271 557.043 6.24404 555.84C6.94537 554.626 8.17269 554.018 9.92601 554.018C11.6668 554.018 12.8879 554.626 13.5892 555.84C14.2905 557.043 14.6412 558.721 14.6412 560.875C14.6412 563.067 14.2905 564.77 13.5892 565.985C12.8879 567.199 11.6668 567.807 9.92601 567.807C8.17269 567.807 6.94537 567.199 6.24404 565.985C5.54271 564.77 5.19205 563.067 5.19205 560.875ZM12.9505 560.875C12.9505 559.785 12.8753 558.865 12.7251 558.113C12.5873 557.349 12.293 556.736 11.8421 556.272C11.4038 555.809 10.7651 555.577 9.92601 555.577C9.0744 555.577 8.42317 555.809 7.97231 556.272C7.53398 556.736 7.23968 557.349 7.08939 558.113C6.95163 558.865 6.88275 559.785 6.88275 560.875C6.88275 562.002 6.95163 562.948 7.08939 563.712C7.23968 564.475 7.53398 565.089 7.97231 565.553C8.42317 566.016 9.0744 566.248 9.92601 566.248C10.7651 566.248 11.4038 566.016 11.8421 565.553C12.293 565.089 12.5873 564.475 12.7251 563.712C12.8753 562.948 12.9505 562.002 12.9505 560.875Z" fill="#292D30"/>
<path d="M4.98541 465.799C6.57592 464.521 7.82203 463.475 8.72373 462.661C9.62544 461.835 10.3831 460.977 10.9968 460.088C11.623 459.186 11.9361 458.303 11.9361 457.439C11.9361 456.625 11.7357 455.986 11.3349 455.523C10.9467 455.047 10.3142 454.809 9.43759 454.809C8.58597 454.809 7.92222 455.078 7.44632 455.617C6.98294 456.143 6.73246 456.85 6.69489 457.74H5.04176C5.09186 456.337 5.51767 455.254 6.31918 454.49C7.1207 453.726 8.15391 453.344 9.4188 453.344C10.7087 453.344 11.7294 453.701 12.4808 454.414C13.2448 455.128 13.6268 456.111 13.6268 457.364C13.6268 458.403 13.3137 459.418 12.6875 460.407C12.0738 461.384 11.3725 462.248 10.5835 462.999C9.79451 463.738 8.78635 464.603 7.55903 465.592H14.0213V467.02H4.98541V465.799Z" fill="#292D30"/>
<path d="M4.77877 370.218V368.921L11.3725 359.792H13.4201V368.733H15.2987V370.218H13.4201V373.242H11.7294V370.218H4.77877ZM11.8046 361.576L6.75125 368.733H11.8046V361.576Z" fill="#292D30"/>
<path d="M12.7626 274.331C12.4871 272.941 11.6292 272.245 10.189 272.245C9.0744 272.245 8.24157 272.678 7.69053 273.542C7.13949 274.393 6.87023 275.802 6.88275 277.768C7.17079 277.117 7.6467 276.61 8.31045 276.247C8.98673 275.871 9.73815 275.683 10.5647 275.683C11.8547 275.683 12.8816 276.084 13.6456 276.886C14.422 277.687 14.8103 278.795 14.8103 280.211C14.8103 281.062 14.6412 281.826 14.303 282.502C13.9774 283.179 13.4765 283.717 12.8002 284.118C12.1364 284.519 11.3287 284.719 10.3769 284.719C9.08692 284.719 8.07876 284.431 7.35239 283.855C6.62601 283.279 6.1188 282.484 5.83076 281.469C5.54271 280.455 5.39869 279.202 5.39869 277.712C5.39869 273.116 7.00172 270.818 10.2078 270.818C11.4351 270.818 12.3994 271.15 13.1008 271.813C13.8021 272.477 14.2154 273.316 14.3406 274.331H12.7626ZM10.2078 277.13C9.66927 277.13 9.16206 277.242 8.68616 277.468C8.21026 277.681 7.82203 278.013 7.52146 278.464C7.23341 278.902 7.08939 279.44 7.08939 280.079C7.08939 281.031 7.36491 281.807 7.91596 282.408C8.467 282.997 9.25599 283.291 10.2829 283.291C11.1596 283.291 11.8547 283.022 12.3681 282.484C12.8941 281.933 13.1571 281.194 13.1571 280.267C13.1571 279.29 12.9067 278.526 12.4057 277.975C11.9048 277.412 11.1721 277.13 10.2078 277.13Z" fill="#292D30"/>
<path d="M7.67174 185.032C6.97042 184.757 6.4319 184.356 6.05618 183.83C5.68047 183.304 5.49262 182.665 5.49262 181.914C5.49262 181.237 5.66169 180.63 5.99983 180.092C6.33797 179.541 6.83892 179.108 7.50267 178.795C8.17895 178.47 8.99299 178.307 9.9448 178.307C10.8966 178.307 11.7044 178.47 12.3681 178.795C13.0444 179.108 13.5516 179.541 13.8898 180.092C14.2404 180.63 14.4158 181.237 14.4158 181.914C14.4158 182.64 14.2216 183.279 13.8334 183.83C13.4452 184.368 12.9129 184.769 12.2366 185.032C13.0131 185.27 13.6268 185.69 14.0776 186.291C14.541 186.879 14.7727 187.593 14.7727 188.432C14.7727 189.246 14.5723 189.96 14.1715 190.574C13.7708 191.175 13.201 191.645 12.4621 191.983C11.7357 192.308 10.8966 192.471 9.9448 192.471C8.99299 192.471 8.15391 192.308 7.42753 191.983C6.71368 191.645 6.15637 191.175 5.75562 190.574C5.35486 189.96 5.15448 189.246 5.15448 188.432C5.15448 187.593 5.3799 186.873 5.83076 186.272C6.28161 185.671 6.89527 185.258 7.67174 185.032ZM12.7626 182.12C12.7626 181.356 12.5122 180.768 12.0112 180.355C11.5103 179.941 10.8215 179.735 9.9448 179.735C9.08066 179.735 8.39812 179.941 7.89717 180.355C7.39622 180.768 7.14575 181.363 7.14575 182.139C7.14575 182.841 7.40248 183.404 7.91596 183.83C8.44195 184.256 9.11823 184.469 9.9448 184.469C10.7839 184.469 11.4602 184.256 11.9736 183.83C12.4996 183.392 12.7626 182.822 12.7626 182.12ZM9.9448 185.784C9.01804 185.784 8.26036 186.003 7.67174 186.441C7.08313 186.867 6.78882 187.512 6.78882 188.376C6.78882 189.178 7.0706 189.822 7.63417 190.311C8.21026 190.799 8.98047 191.044 9.9448 191.044C10.9091 191.044 11.6731 190.799 12.2366 190.311C12.8002 189.822 13.082 189.178 13.082 188.376C13.082 187.537 12.7939 186.898 12.2178 186.46C11.6418 186.009 10.8841 185.784 9.9448 185.784Z" fill="#292D30"/>
<path d="M0.713851 94.1959V92.6367H4.24554V106.219H2.51727V94.1959H0.713851ZM7.18196 99.2868C7.18196 97.1327 7.53262 95.4546 8.23395 94.2523C8.93527 93.0375 10.1626 92.4301 11.9159 92.4301C13.6567 92.4301 14.8778 93.0375 15.5791 94.2523C16.2804 95.4546 16.6311 97.1327 16.6311 99.2868C16.6311 101.478 16.2804 103.182 15.5791 104.396C14.8778 105.611 13.6567 106.219 11.9159 106.219C10.1626 106.219 8.93527 105.611 8.23395 104.396C7.53262 103.182 7.18196 101.478 7.18196 99.2868ZM14.9404 99.2868C14.9404 98.1973 14.8653 97.2768 14.715 96.5253C14.5772 95.7614 14.2829 95.1477 13.832 94.6844C13.3937 94.221 12.755 93.9893 11.9159 93.9893C11.0643 93.9893 10.4131 94.221 9.96222 94.6844C9.52389 95.1477 9.22958 95.7614 9.0793 96.5253C8.94154 97.2768 8.87266 98.1973 8.87266 99.2868C8.87266 100.414 8.94154 101.359 9.0793 102.123C9.22958 102.887 9.52389 103.501 9.96222 103.964C10.4131 104.428 11.0643 104.659 11.9159 104.659C12.755 104.659 13.3937 104.428 13.832 103.964C14.2829 103.501 14.5772 102.887 14.715 102.123C14.8653 101.359 14.9404 100.414 14.9404 99.2868Z" fill="#292D30"/>
<path d="M97.6439 621.946C96.6563 621.946 95.7689 621.775 94.9817 621.431C94.2088 621.073 93.6006 620.587 93.1569 619.971C92.7132 619.342 92.4842 618.619 92.4698 617.803H94.5524C94.6239 618.504 94.9102 619.098 95.4111 619.585C95.9264 620.057 96.6706 620.293 97.6439 620.293C98.5743 620.293 99.3042 620.064 99.8338 619.606C100.378 619.134 100.65 618.533 100.65 617.803C100.65 617.23 100.492 616.765 100.177 616.407C99.8624 616.05 99.4688 615.778 98.9965 615.592C98.5242 615.406 97.8872 615.205 97.0857 614.99C96.0981 614.733 95.3038 614.475 94.7026 614.218C94.1158 613.96 93.6077 613.559 93.1783 613.015C92.7633 612.457 92.5557 611.713 92.5557 610.782C92.5557 609.967 92.7633 609.244 93.1783 608.614C93.5934 607.984 94.1731 607.498 94.9173 607.154C95.6759 606.811 96.5418 606.639 97.5151 606.639C98.9178 606.639 100.063 606.99 100.95 607.691C101.852 608.392 102.36 609.323 102.474 610.482H100.328C100.256 609.909 99.9554 609.408 99.4259 608.979C98.8963 608.535 98.195 608.314 97.3219 608.314C96.5061 608.314 95.8405 608.528 95.3252 608.958C94.81 609.373 94.5524 609.96 94.5524 610.718C94.5524 611.262 94.7026 611.706 95.0032 612.049C95.3181 612.393 95.6974 612.657 96.1411 612.844C96.5991 613.015 97.236 613.216 98.0518 613.445C99.0394 613.717 99.8338 613.989 100.435 614.261C101.036 614.518 101.551 614.926 101.981 615.484C102.41 616.028 102.625 616.772 102.625 617.717C102.625 618.447 102.432 619.134 102.045 619.778C101.659 620.422 101.086 620.945 100.328 621.345C99.569 621.746 98.6744 621.946 97.6439 621.946ZM116.234 615.463C116.234 615.835 116.213 616.229 116.17 616.644H106.766C106.838 617.803 107.232 618.712 107.947 619.37C108.677 620.014 109.557 620.336 110.588 620.336C111.432 620.336 112.134 620.143 112.692 619.757C113.265 619.356 113.665 618.826 113.894 618.168H115.998C115.683 619.299 115.054 620.222 114.109 620.937C113.164 621.639 111.991 621.989 110.588 621.989C109.472 621.989 108.47 621.739 107.582 621.238C106.709 620.737 106.022 620.029 105.521 619.113C105.02 618.182 104.77 617.109 104.77 615.892C104.77 614.676 105.013 613.609 105.5 612.693C105.986 611.777 106.666 611.076 107.539 610.589C108.427 610.088 109.443 609.838 110.588 609.838C111.704 609.838 112.692 610.081 113.551 610.568C114.41 611.054 115.068 611.727 115.526 612.586C115.998 613.43 116.234 614.389 116.234 615.463ZM114.216 615.055C114.216 614.311 114.052 613.674 113.723 613.144C113.393 612.6 112.942 612.192 112.37 611.92C111.812 611.634 111.189 611.491 110.502 611.491C109.515 611.491 108.67 611.806 107.969 612.436C107.282 613.065 106.888 613.938 106.788 615.055H114.216ZM120.767 612.199C121.153 611.527 121.726 610.969 122.484 610.525C123.257 610.067 124.152 609.838 125.168 609.838C126.213 609.838 127.158 610.088 128.002 610.589C128.861 611.09 129.534 611.799 130.02 612.715C130.507 613.616 130.75 614.668 130.75 615.871C130.75 617.059 130.507 618.118 130.02 619.048C129.534 619.978 128.861 620.701 128.002 621.217C127.158 621.732 126.213 621.989 125.168 621.989C124.166 621.989 123.279 621.768 122.506 621.324C121.747 620.866 121.168 620.301 120.767 619.628V627.378H118.813V610.031H120.767V612.199ZM128.753 615.871C128.753 614.983 128.575 614.21 128.217 613.552C127.859 612.894 127.372 612.393 126.757 612.049C126.156 611.706 125.49 611.534 124.76 611.534C124.045 611.534 123.379 611.713 122.764 612.071C122.162 612.414 121.676 612.922 121.304 613.595C120.946 614.253 120.767 615.019 120.767 615.892C120.767 616.78 120.946 617.56 121.304 618.232C121.676 618.891 122.162 619.399 122.764 619.757C123.379 620.1 124.045 620.272 124.76 620.272C125.49 620.272 126.156 620.1 126.757 619.757C127.372 619.399 127.859 618.891 128.217 618.232C128.575 617.56 128.753 616.772 128.753 615.871Z" fill="black"/>
<path d="M203.004 621.946C201.615 621.946 200.349 621.624 199.204 620.98C198.059 620.322 197.15 619.413 196.477 618.254C195.819 617.08 195.49 615.763 195.49 614.303C195.49 612.844 195.819 611.534 196.477 610.375C197.15 609.201 198.059 608.292 199.204 607.648C200.349 606.99 201.615 606.66 203.004 606.66C204.406 606.66 205.68 606.99 206.825 607.648C207.97 608.292 208.872 609.194 209.53 610.353C210.189 611.512 210.518 612.829 210.518 614.303C210.518 615.778 210.189 617.094 209.53 618.254C208.872 619.413 207.97 620.322 206.825 620.98C205.68 621.624 204.406 621.946 203.004 621.946ZM203.004 620.25C204.049 620.25 204.986 620.007 205.816 619.52C206.661 619.034 207.319 618.34 207.791 617.438C208.278 616.536 208.521 615.491 208.521 614.303C208.521 613.101 208.278 612.056 207.791 611.169C207.319 610.267 206.668 609.573 205.838 609.086C205.008 608.6 204.063 608.356 203.004 608.356C201.945 608.356 201 608.6 200.17 609.086C199.34 609.573 198.681 610.267 198.195 611.169C197.722 612.056 197.486 613.101 197.486 614.303C197.486 615.491 197.722 616.536 198.195 617.438C198.681 618.34 199.34 619.034 200.17 619.52C201.014 620.007 201.959 620.25 203.004 620.25ZM212.367 615.892C212.367 614.676 212.611 613.616 213.097 612.715C213.584 611.799 214.257 611.09 215.115 610.589C215.988 610.088 216.983 609.838 218.1 609.838C219.545 609.838 220.733 610.189 221.663 610.89C222.608 611.591 223.231 612.564 223.531 613.81H221.427C221.227 613.094 220.833 612.529 220.246 612.114C219.674 611.699 218.958 611.491 218.1 611.491C216.983 611.491 216.081 611.877 215.394 612.65C214.707 613.409 214.364 614.49 214.364 615.892C214.364 617.309 214.707 618.404 215.394 619.177C216.081 619.95 216.983 620.336 218.1 620.336C218.958 620.336 219.674 620.136 220.246 619.735C220.819 619.334 221.213 618.762 221.427 618.018H223.531C223.216 619.22 222.587 620.186 221.642 620.916C220.697 621.632 219.516 621.989 218.1 621.989C216.983 621.989 215.988 621.739 215.115 621.238C214.257 620.737 213.584 620.029 213.097 619.113C212.611 618.197 212.367 617.123 212.367 615.892ZM228.521 611.641V618.576C228.521 619.148 228.643 619.556 228.886 619.8C229.129 620.029 229.552 620.143 230.153 620.143H231.591V621.796H229.831C228.743 621.796 227.927 621.546 227.383 621.045C226.839 620.544 226.567 619.721 226.567 618.576V611.641H225.043V610.031H226.567V607.068H228.521V610.031H231.591V611.641H228.521Z" fill="black"/>
<path d="M313.989 621.796H312.035L304.177 609.881V621.796H302.223V606.811H304.177L312.035 618.705V606.811H313.989V621.796ZM322.45 621.989C321.348 621.989 320.346 621.739 319.444 621.238C318.557 620.737 317.856 620.029 317.34 619.113C316.84 618.182 316.589 617.109 316.589 615.892C316.589 614.69 316.847 613.631 317.362 612.715C317.891 611.784 318.607 611.076 319.509 610.589C320.411 610.088 321.42 609.838 322.536 609.838C323.652 609.838 324.661 610.088 325.563 610.589C326.465 611.076 327.173 611.777 327.689 612.693C328.218 613.609 328.483 614.676 328.483 615.892C328.483 617.109 328.211 618.182 327.667 619.113C327.138 620.029 326.415 620.737 325.499 621.238C324.583 621.739 323.567 621.989 322.45 621.989ZM322.45 620.272C323.151 620.272 323.81 620.107 324.425 619.778C325.041 619.449 325.535 618.955 325.907 618.297C326.293 617.638 326.486 616.837 326.486 615.892C326.486 614.948 326.3 614.146 325.928 613.488C325.556 612.829 325.069 612.343 324.468 612.028C323.867 611.699 323.216 611.534 322.515 611.534C321.799 611.534 321.141 611.699 320.539 612.028C319.953 612.343 319.48 612.829 319.122 613.488C318.765 614.146 318.586 614.948 318.586 615.892C318.586 616.851 318.757 617.66 319.101 618.318C319.459 618.977 319.931 619.47 320.518 619.8C321.105 620.114 321.749 620.272 322.45 620.272ZM335.431 619.993L339.081 610.031H341.164L336.548 621.796H334.272L329.656 610.031H331.76L335.431 619.993Z" fill="black"/>
<path d="M412.886 606.832C414.518 606.832 415.928 607.14 417.116 607.755C418.318 608.356 419.234 609.222 419.864 610.353C420.508 611.484 420.83 612.815 420.83 614.346C420.83 615.878 420.508 617.209 419.864 618.34C419.234 619.456 418.318 620.315 417.116 620.916C415.928 621.503 414.518 621.796 412.886 621.796H408.227V606.832H412.886ZM412.886 620.186C414.818 620.186 416.293 619.678 417.309 618.662C418.325 617.631 418.833 616.193 418.833 614.346C418.833 612.486 418.318 611.033 417.287 609.988C416.271 608.943 414.804 608.421 412.886 608.421H410.181V620.186H412.886ZM434.141 615.463C434.141 615.835 434.12 616.229 434.077 616.644H424.673C424.745 617.803 425.139 618.712 425.854 619.37C426.584 620.014 427.464 620.336 428.495 620.336C429.339 620.336 430.041 620.143 430.599 619.757C431.171 619.356 431.572 618.826 431.801 618.168H433.905C433.59 619.299 432.961 620.222 432.016 620.937C431.071 621.639 429.898 621.989 428.495 621.989C427.379 621.989 426.377 621.739 425.489 621.238C424.616 620.737 423.929 620.029 423.428 619.113C422.927 618.182 422.677 617.109 422.677 615.892C422.677 614.676 422.92 613.609 423.407 612.693C423.893 611.777 424.573 611.076 425.446 610.589C426.334 610.088 427.35 609.838 428.495 609.838C429.611 609.838 430.599 610.081 431.458 610.568C432.316 611.054 432.975 611.727 433.433 612.586C433.905 613.43 434.141 614.389 434.141 615.463ZM432.123 615.055C432.123 614.311 431.959 613.674 431.629 613.144C431.3 612.6 430.849 612.192 430.277 611.92C429.719 611.634 429.096 611.491 428.409 611.491C427.421 611.491 426.577 611.806 425.876 612.436C425.189 613.065 424.795 613.938 424.695 615.055H432.123ZM435.99 615.892C435.99 614.676 436.234 613.616 436.72 612.715C437.207 611.799 437.88 611.09 438.738 610.589C439.611 610.088 440.606 609.838 441.723 609.838C443.168 609.838 444.356 610.189 445.286 610.89C446.231 611.591 446.854 612.564 447.154 613.81H445.05C444.85 613.094 444.456 612.529 443.869 612.114C443.297 611.699 442.581 611.491 441.723 611.491C440.606 611.491 439.704 611.877 439.017 612.65C438.33 613.409 437.987 614.49 437.987 615.892C437.987 617.309 438.33 618.404 439.017 619.177C439.704 619.95 440.606 620.336 441.723 620.336C442.581 620.336 443.297 620.136 443.869 619.735C444.442 619.334 444.836 618.762 445.05 618.018H447.154C446.839 619.22 446.21 620.186 445.265 620.916C444.32 621.632 443.139 621.989 441.723 621.989C440.606 621.989 439.611 621.739 438.738 621.238C437.88 620.737 437.207 620.029 436.72 619.113C436.234 618.197 435.99 617.123 435.99 615.892Z" fill="black"/>
<path d="M521.767 606.832V617.889C521.767 619.12 521.388 620.107 520.629 620.852C519.871 621.582 518.869 621.946 517.623 621.946C516.364 621.946 515.355 621.574 514.596 620.83C513.838 620.072 513.458 619.041 513.458 617.739H515.412C515.426 618.468 515.612 619.062 515.97 619.52C516.342 619.978 516.893 620.207 517.623 620.207C518.353 620.207 518.897 619.993 519.255 619.563C519.613 619.12 519.792 618.562 519.792 617.889V606.832H521.767ZM524.886 615.871C524.886 614.668 525.129 613.616 525.616 612.715C526.102 611.799 526.768 611.09 527.612 610.589C528.471 610.088 529.423 609.838 530.468 609.838C531.498 609.838 532.393 610.06 533.152 610.503C533.91 610.947 534.475 611.505 534.848 612.178V610.031H536.823V621.796H534.848V619.606C534.461 620.293 533.881 620.866 533.109 621.324C532.35 621.768 531.463 621.989 530.446 621.989C529.402 621.989 528.457 621.732 527.612 621.217C526.768 620.701 526.102 619.978 525.616 619.048C525.129 618.118 524.886 617.059 524.886 615.871ZM534.848 615.892C534.848 615.005 534.669 614.232 534.311 613.573C533.953 612.915 533.466 612.414 532.851 612.071C532.25 611.713 531.584 611.534 530.854 611.534C530.124 611.534 529.459 611.706 528.858 612.049C528.257 612.393 527.777 612.894 527.419 613.552C527.061 614.21 526.882 614.983 526.882 615.871C526.882 616.772 527.061 617.56 527.419 618.232C527.777 618.891 528.257 619.399 528.858 619.757C529.459 620.1 530.124 620.272 530.854 620.272C531.584 620.272 532.25 620.1 532.851 619.757C533.466 619.399 533.953 618.891 534.311 618.232C534.669 617.56 534.848 616.78 534.848 615.892ZM545.857 609.816C547.288 609.816 548.447 610.253 549.335 611.126C550.222 611.985 550.666 613.23 550.666 614.862V621.796H548.733V615.141C548.733 613.967 548.44 613.073 547.853 612.457C547.266 611.827 546.465 611.512 545.449 611.512C544.418 611.512 543.595 611.834 542.98 612.479C542.379 613.123 542.078 614.06 542.078 615.291V621.796H540.124V610.031H542.078V611.706C542.464 611.105 542.987 610.639 543.645 610.31C544.318 609.981 545.055 609.816 545.857 609.816Z" fill="black"/>
<path d="M628.694 606.832V608.421H622.189V613.466H627.47V615.055H622.189V621.796H620.235V606.832H628.694ZM641.788 615.463C641.788 615.835 641.767 616.229 641.724 616.644H632.32C632.392 617.803 632.785 618.712 633.501 619.37C634.231 620.014 635.111 620.336 636.142 620.336C636.986 620.336 637.688 620.143 638.246 619.757C638.818 619.356 639.219 618.826 639.448 618.168H641.552C641.237 619.299 640.607 620.222 639.663 620.937C638.718 621.639 637.544 621.989 636.142 621.989C635.025 621.989 634.024 621.739 633.136 621.238C632.263 620.737 631.576 620.029 631.075 619.113C630.574 618.182 630.324 617.109 630.324 615.892C630.324 614.676 630.567 613.609 631.054 612.693C631.54 611.777 632.22 611.076 633.093 610.589C633.981 610.088 634.997 609.838 636.142 609.838C637.258 609.838 638.246 610.081 639.105 610.568C639.963 611.054 640.622 611.727 641.08 612.586C641.552 613.43 641.788 614.389 641.788 615.463ZM639.77 615.055C639.77 614.311 639.606 613.674 639.276 613.144C638.947 612.6 638.496 612.192 637.924 611.92C637.366 611.634 636.743 611.491 636.056 611.491C635.068 611.491 634.224 611.806 633.523 612.436C632.836 613.065 632.442 613.938 632.342 615.055H639.77ZM646.321 612.221C646.722 611.52 647.308 610.947 648.081 610.503C648.854 610.06 649.734 609.838 650.722 609.838C651.781 609.838 652.733 610.088 653.577 610.589C654.422 611.09 655.087 611.799 655.574 612.715C656.061 613.616 656.304 614.668 656.304 615.871C656.304 617.059 656.061 618.118 655.574 619.048C655.087 619.978 654.415 620.701 653.556 621.217C652.711 621.732 651.767 621.989 650.722 621.989C649.706 621.989 648.811 621.768 648.038 621.324C647.28 620.88 646.707 620.315 646.321 619.628V621.796H644.367V605.909H646.321V612.221ZM654.307 615.871C654.307 614.983 654.128 614.21 653.771 613.552C653.413 612.894 652.926 612.393 652.311 612.049C651.71 611.706 651.044 611.534 650.314 611.534C649.598 611.534 648.933 611.713 648.317 612.071C647.716 612.414 647.23 612.922 646.857 613.595C646.5 614.253 646.321 615.019 646.321 615.892C646.321 616.78 646.5 617.56 646.857 618.232C647.23 618.891 647.716 619.399 648.317 619.757C648.933 620.1 649.598 620.272 650.314 620.272C651.044 620.272 651.71 620.1 652.311 619.757C652.926 619.399 653.413 618.891 653.771 618.232C654.128 617.56 654.307 616.772 654.307 615.871Z" fill="black"/>
<path d="M742.762 606.94V621.796H740.808V610.718L735.87 621.796H734.496L729.537 610.697V621.796H727.583V606.94H729.687L735.183 619.22L740.679 606.94H742.762ZM745.345 615.871C745.345 614.668 745.588 613.616 746.075 612.715C746.561 611.799 747.227 611.09 748.071 610.589C748.93 610.088 749.882 609.838 750.927 609.838C751.957 609.838 752.852 610.06 753.611 610.503C754.369 610.947 754.934 611.505 755.307 612.178V610.031H757.282V621.796H755.307V619.606C754.92 620.293 754.341 620.866 753.568 621.324C752.809 621.768 751.922 621.989 750.905 621.989C749.861 621.989 748.916 621.732 748.071 621.217C747.227 620.701 746.561 619.978 746.075 619.048C745.588 618.118 745.345 617.059 745.345 615.871ZM755.307 615.892C755.307 615.005 755.128 614.232 754.77 613.573C754.412 612.915 753.925 612.414 753.31 612.071C752.709 611.713 752.043 611.534 751.313 611.534C750.583 611.534 749.918 611.706 749.317 612.049C748.716 612.393 748.236 612.894 747.878 613.552C747.52 614.21 747.342 614.983 747.342 615.871C747.342 616.772 747.52 617.56 747.878 618.232C748.236 618.891 748.716 619.399 749.317 619.757C749.918 620.1 750.583 620.272 751.313 620.272C752.043 620.272 752.709 620.1 753.31 619.757C753.925 619.399 754.412 618.891 754.77 618.232C755.128 617.56 755.307 616.78 755.307 615.892ZM762.537 611.942C762.881 611.269 763.367 610.747 763.997 610.375C764.641 610.002 765.421 609.816 766.337 609.816V611.834H765.822C763.632 611.834 762.537 613.022 762.537 615.398V621.796H760.583V610.031H762.537V611.942Z" fill="black"/>
<path d="M206.344 379.801L75.1406 457.073V502.527H815.829V98.637L763.195 162.922L707.51 135.649L568.678 270.712L417.642 179.155L264.317 283.699L206.344 379.801Z" fill="url(#paint0_linear_82_796)"/>
<g filter="url(#filter0_d_82_796)">
<path d="M75.1406 456.904L205.868 380.248L263.632 284.91L416.401 181.198L566.89 272.027L705.218 138.039L760.702 165.094L813.145 101.321" stroke="#34B3F1" stroke-width="6.70913" stroke-linecap="round" stroke-linejoin="round"/>
</g>
<circle cx="706.965" cy="132.408" r="10.7346" fill="#292D30" stroke="white" stroke-width="4.02548"/>
<g filter="url(#filter1_b_82_796)">
<rect x="660" width="95" height="113" rx="11" fill="#4368A4" fill-opacity="0.32"/>
<rect width="39.6933" height="39.6933" transform="translate(687.223 16.4009)" fill="#0A0B36"/>
<path d="M705.99 31.9961C705.99 31.9961 705.726 35.6231 707.067 37.2146C708.244 38.6123 711.304 39.2038 711.304 39.2038V47.4177C711.304 47.4177 713.41 49.4571 715.119 49.5824C717.087 49.7267 719.684 47.4177 719.684 47.4177V22.8694H718.267L716.617 26.4382C716.617 26.4382 709.962 24.5785 705.99 25.2681C701.978 25.9646 699.592 26.5658 696.842 30.606C693.589 35.3838 694.567 49.5824 694.567 49.5824" stroke="#F5F5F5" stroke-width="1.10259" stroke-linecap="round"/>
<path d="M716.049 32.0914C715.908 32.0914 715.786 32.0408 715.685 31.9395C715.584 31.8383 715.533 31.7171 715.533 31.5758C715.533 31.4345 715.584 31.3132 715.685 31.212C715.786 31.1108 715.908 31.0602 716.049 31.0602C716.19 31.0602 716.311 31.1108 716.413 31.212C716.514 31.3132 716.564 31.4345 716.564 31.5758C716.564 31.6693 716.541 31.7553 716.493 31.8336C716.447 31.9119 716.385 31.9749 716.307 32.0226C716.23 32.0684 716.144 32.0914 716.049 32.0914Z" fill="white"/>
<path d="M695.075 80.7828H680.154L677.447 86.1002H674.869L686.664 63.1226H688.598L700.393 86.1002H697.815L695.075 80.7828ZM681.186 78.7525H694.044L687.631 66.1519L681.186 78.7525ZM705.073 86.1002V63.1226H707.393V86.1002H705.073ZM735.98 86.1002V67.6666L726.666 81.4918H724.7L715.387 67.6666V86.1002H713.067V63.1226H715.097L725.667 78.9459L736.27 63.1226H738.236V86.1002H735.98Z" fill="#0A0B36"/>
<path d="M685.123 94.6801C684.837 94.6801 684.594 94.6369 684.394 94.5505C684.2 94.4588 684.051 94.3616 683.949 94.2591C683.852 94.1565 683.803 94.0972 683.803 94.081L684.006 93.7976C684.006 93.8084 684.049 93.8597 684.135 93.9514C684.221 94.0432 684.34 94.1295 684.491 94.2105C684.642 94.2861 684.821 94.3239 685.026 94.3239C685.328 94.3239 685.555 94.2483 685.706 94.0972C685.862 93.946 685.941 93.7625 685.941 93.5466C685.941 93.3901 685.9 93.2606 685.819 93.158C685.744 93.0554 685.646 92.9772 685.528 92.9232C685.414 92.8638 685.255 92.7991 685.05 92.7289C684.813 92.6425 684.624 92.5643 684.483 92.4941C684.343 92.4185 684.221 92.3079 684.119 92.1622C684.022 92.0164 683.973 91.8275 683.973 91.5954C683.973 91.25 684.097 90.9774 684.346 90.7777C684.599 90.5726 684.923 90.4701 685.317 90.4701C685.49 90.4701 685.655 90.4944 685.811 90.5429C685.973 90.5861 686.102 90.6347 686.2 90.6887C686.297 90.7372 686.359 90.7696 686.386 90.7858L686.289 91.134C686.267 91.1178 686.213 91.0854 686.127 91.0368C686.04 90.9828 685.927 90.9315 685.787 90.883C685.652 90.8344 685.511 90.8101 685.366 90.8101C685.117 90.8101 684.915 90.8722 684.759 90.9963C684.607 91.1205 684.532 91.277 684.532 91.4659C684.532 91.6224 684.572 91.7547 684.653 91.8626C684.734 91.9652 684.834 92.0461 684.953 92.1055C685.077 92.1649 685.242 92.2323 685.447 92.3079C685.684 92.3889 685.876 92.4698 686.022 92.5508C686.173 92.6263 686.3 92.737 686.402 92.8827C686.505 93.0285 686.556 93.2174 686.556 93.4495C686.556 93.8003 686.434 94.0945 686.192 94.3319C685.949 94.564 685.592 94.6801 685.123 94.6801ZM690.201 94.6801C689.909 94.6801 689.693 94.591 689.553 94.4129C689.413 94.2294 689.343 93.9298 689.343 93.5142V90.9477H688.922V90.6077L689.343 90.5591L689.561 89.2718H689.934V90.551H690.97V90.9477H689.934V93.3685C689.934 93.7193 689.966 93.9622 690.031 94.0972C690.101 94.2267 690.22 94.2915 690.387 94.2915C690.522 94.2915 690.643 94.278 690.751 94.251C690.859 94.224 690.913 94.2078 690.913 94.2024L690.954 94.5263C690.943 94.5371 690.908 94.5559 690.849 94.5829C690.795 94.6045 690.711 94.6261 690.598 94.6477C690.49 94.6693 690.357 94.6801 690.201 94.6801ZM693.619 90.551H694.056L694.145 91.3849C694.145 91.3525 694.175 91.2608 694.234 91.1097C694.299 90.9531 694.396 90.8074 694.526 90.6725C694.655 90.5375 694.822 90.4701 695.028 90.4701C695.13 90.4701 695.246 90.489 695.376 90.5267C695.505 90.5591 695.589 90.5834 695.627 90.5996L695.57 91.0449C695.532 91.0287 695.446 91.0044 695.311 90.972C695.181 90.9396 695.065 90.9235 694.963 90.9235C694.806 90.9235 694.671 90.9774 694.558 91.0854C694.45 91.1879 694.369 91.2986 694.315 91.4173C694.261 91.5361 694.226 91.6251 694.21 91.6845V94.5991H693.619V90.551ZM698.748 94.6801C698.392 94.6801 698.106 94.5937 697.89 94.421C697.674 94.2429 697.566 93.9973 697.566 93.6843C697.566 92.8908 698.33 92.4132 699.857 92.2512V91.8221C699.857 91.4389 699.795 91.1771 699.671 91.0368C699.547 90.8965 699.329 90.8263 699.015 90.8263C698.875 90.8263 698.732 90.8533 698.586 90.9073C698.441 90.9558 698.317 91.0098 698.214 91.0692C698.117 91.1232 698.055 91.1582 698.028 91.1744L697.963 90.8425C697.99 90.8209 698.057 90.7804 698.165 90.721C698.279 90.6617 698.419 90.605 698.586 90.551C698.759 90.4971 698.932 90.4701 699.105 90.4701C699.569 90.4701 699.909 90.5672 700.125 90.7615C700.341 90.9558 700.449 91.2986 700.449 91.7897V93.7733C700.449 93.9892 700.467 94.1349 700.505 94.2105C700.548 94.2861 700.6 94.3239 700.659 94.3239C700.708 94.3239 700.767 94.3158 700.837 94.2996C700.907 94.278 700.953 94.2618 700.975 94.251L700.999 94.5263C700.956 94.5424 700.864 94.5721 700.724 94.6153C700.583 94.6585 700.465 94.6801 700.368 94.6801C700.227 94.6801 700.119 94.6369 700.044 94.5505C699.968 94.4588 699.922 94.2996 699.906 94.0729H699.898C699.898 94.0945 699.855 94.1565 699.768 94.2591C699.682 94.3616 699.553 94.4588 699.38 94.5505C699.212 94.6369 699.002 94.6801 698.748 94.6801ZM698.926 94.3239C699.121 94.3239 699.288 94.2807 699.428 94.1943C699.569 94.108 699.674 94.0135 699.744 93.9109C699.82 93.8084 699.857 93.749 699.857 93.7328V92.5508C699.366 92.6048 698.962 92.71 698.643 92.8665C698.33 93.0231 698.173 93.2713 698.173 93.6114C698.173 93.8435 698.241 94.0216 698.376 94.1457C698.511 94.2645 698.694 94.3239 698.926 94.3239ZM704.55 94.6801C704.258 94.6801 704.042 94.591 703.902 94.4129C703.762 94.2294 703.692 93.9298 703.692 93.5142V90.9477H703.271V90.6077L703.692 90.5591L703.91 89.2718H704.283V90.551H705.319V90.9477H704.283V93.3685C704.283 93.7193 704.315 93.9622 704.38 94.0972C704.45 94.2267 704.569 94.2915 704.736 94.2915C704.871 94.2915 704.992 94.278 705.1 94.251C705.208 94.224 705.262 94.2078 705.262 94.2024L705.303 94.5263C705.292 94.5371 705.257 94.5559 705.197 94.5829C705.143 94.6045 705.06 94.6261 704.946 94.6477C704.838 94.6693 704.706 94.6801 704.55 94.6801ZM709.401 94.6801C708.861 94.6801 708.437 94.5128 708.13 94.1781C707.822 93.8381 707.668 93.3307 707.668 92.656C707.668 91.976 707.817 91.4416 708.113 91.053C708.41 90.6644 708.815 90.4701 709.328 90.4701C709.792 90.4701 710.148 90.632 710.397 90.9558C710.65 91.2743 710.777 91.7277 710.777 92.316C710.777 92.4185 710.772 92.5022 710.761 92.567C710.75 92.6317 710.742 92.6722 710.737 92.6884H708.283C708.283 93.7787 708.677 94.3239 709.466 94.3239C709.681 94.3239 709.865 94.2861 710.016 94.2105C710.173 94.1295 710.294 94.0459 710.38 93.9595C710.467 93.8678 710.51 93.8138 710.51 93.7976L710.745 93.9919C710.745 94.0135 710.693 94.0837 710.591 94.2024C710.488 94.3158 710.337 94.4237 710.137 94.5263C709.938 94.6288 709.692 94.6801 709.401 94.6801ZM710.227 92.3484L710.235 92.1946C710.235 91.277 709.932 90.8182 709.328 90.8182C709.009 90.8182 708.764 90.945 708.591 91.1987C708.418 91.447 708.319 91.8302 708.292 92.3484H710.227ZM714.729 96.7041C714.157 96.7041 713.722 96.5908 713.426 96.3641C713.129 96.1428 712.98 95.8162 712.98 95.3845C712.98 95.1038 713.042 94.8771 713.166 94.7044C713.296 94.5317 713.458 94.4048 713.652 94.3239C713.555 94.2105 713.507 94.0513 713.507 93.8462C713.507 93.5817 713.631 93.355 713.879 93.1661C713.663 93.0527 713.496 92.8908 713.377 92.6803C713.258 92.4644 713.199 92.2053 713.199 91.9031C713.199 91.4119 713.336 91.0503 713.612 90.8182C713.892 90.5861 714.251 90.4701 714.689 90.4701C714.899 90.4701 715.085 90.4971 715.247 90.551L716.292 90.5591V90.8749L715.773 90.8911C715.989 91.134 716.097 91.4713 716.097 91.9031C716.097 92.3673 715.97 92.7235 715.717 92.9718C715.468 93.2201 715.123 93.3442 714.68 93.3442C714.497 93.3442 714.332 93.3253 714.187 93.2875C713.998 93.4117 713.903 93.552 713.903 93.7085C713.903 93.8543 713.963 93.9568 714.081 94.0162C714.2 94.0702 714.392 94.0972 714.656 94.0972C715.838 94.0972 716.429 94.5128 716.429 95.344C716.429 95.7866 716.281 96.1239 715.984 96.356C715.692 96.5881 715.274 96.7041 714.729 96.7041ZM714.664 93.0204C715.236 93.0204 715.522 92.6452 715.522 91.895C715.522 91.5064 715.447 91.2311 715.296 91.0692C715.145 90.9019 714.931 90.8182 714.656 90.8182C714.381 90.8182 714.162 90.8992 714 91.0611C713.844 91.223 713.766 91.5037 713.766 91.9031C713.766 92.2701 713.844 92.5481 714 92.737C714.157 92.9259 714.378 93.0204 714.664 93.0204ZM714.729 96.3398C715.107 96.3398 715.398 96.2615 715.603 96.105C715.809 95.9539 715.911 95.7326 715.911 95.4411C715.911 94.8744 715.471 94.591 714.591 94.591C714.338 94.591 714.135 94.5694 713.984 94.5263C713.822 94.591 713.69 94.6936 713.587 94.8339C713.49 94.9796 713.442 95.1605 713.442 95.3764C713.442 95.7002 713.552 95.9404 713.774 96.0969C714 96.2588 714.319 96.3398 714.729 96.3398ZM719.151 89.7333C719.054 89.7333 718.976 89.7036 718.916 89.6443C718.846 89.5741 718.811 89.4877 718.811 89.3852C718.811 89.2826 718.846 89.1963 718.916 89.1261C718.976 89.0667 719.054 89.037 719.151 89.037C719.253 89.037 719.334 89.064 719.394 89.118C719.459 89.1882 719.491 89.2772 719.491 89.3852C719.491 89.4823 719.459 89.5687 719.394 89.6443C719.318 89.7036 719.237 89.7333 719.151 89.7333ZM718.851 94.5991V90.551H719.442V94.5991H718.851ZM723.86 94.6801C723.321 94.6801 722.897 94.5128 722.589 94.1781C722.282 93.8381 722.128 93.3307 722.128 92.656C722.128 91.976 722.276 91.4416 722.573 91.053C722.87 90.6644 723.275 90.4701 723.787 90.4701C724.252 90.4701 724.608 90.632 724.856 90.9558C725.11 91.2743 725.237 91.7277 725.237 92.316C725.237 92.4185 725.231 92.5022 725.22 92.567C725.21 92.6317 725.202 92.6722 725.196 92.6884H722.743C722.743 93.7787 723.137 94.3239 723.925 94.3239C724.141 94.3239 724.325 94.2861 724.476 94.2105C724.632 94.1295 724.754 94.0459 724.84 93.9595C724.926 93.8678 724.97 93.8138 724.97 93.7976L725.204 93.9919C725.204 94.0135 725.153 94.0837 725.05 94.2024C724.948 94.3158 724.797 94.4237 724.597 94.5263C724.397 94.6288 724.152 94.6801 723.86 94.6801ZM724.686 92.3484L724.694 92.1946C724.694 91.277 724.392 90.8182 723.787 90.8182C723.469 90.8182 723.223 90.945 723.051 91.1987C722.878 91.447 722.778 91.8302 722.751 92.3484H724.686ZM728.889 94.6801C728.603 94.6801 728.36 94.6369 728.16 94.5505C727.966 94.4588 727.818 94.3616 727.715 94.2591C727.618 94.1565 727.569 94.0972 727.569 94.081L727.772 93.7976C727.772 93.8084 727.815 93.8597 727.901 93.9514C727.988 94.0432 728.106 94.1295 728.258 94.2105C728.409 94.2861 728.587 94.3239 728.792 94.3239C729.094 94.3239 729.321 94.2483 729.472 94.0972C729.629 93.946 729.707 93.7625 729.707 93.5466C729.707 93.3901 729.666 93.2606 729.585 93.158C729.51 93.0554 729.413 92.9772 729.294 92.9232C729.181 92.8638 729.021 92.7991 728.816 92.7289C728.579 92.6425 728.39 92.5643 728.249 92.4941C728.109 92.4185 727.988 92.3079 727.885 92.1622C727.788 92.0164 727.739 91.8275 727.739 91.5954C727.739 91.25 727.864 90.9774 728.112 90.7777C728.366 90.5726 728.689 90.4701 729.083 90.4701C729.256 90.4701 729.421 90.4944 729.577 90.5429C729.739 90.5861 729.869 90.6347 729.966 90.6887C730.063 90.7372 730.125 90.7696 730.152 90.7858L730.055 91.134C730.033 91.1178 729.979 91.0854 729.893 91.0368C729.807 90.9828 729.693 90.9315 729.553 90.883C729.418 90.8344 729.278 90.8101 729.132 90.8101C728.884 90.8101 728.681 90.8722 728.525 90.9963C728.374 91.1205 728.298 91.277 728.298 91.4659C728.298 91.6224 728.339 91.7547 728.42 91.8626C728.5 91.9652 728.6 92.0461 728.719 92.1055C728.843 92.1649 729.008 92.2323 729.213 92.3079C729.45 92.3889 729.642 92.4698 729.788 92.5508C729.939 92.6263 730.066 92.737 730.168 92.8827C730.271 93.0285 730.322 93.2174 730.322 93.4495C730.322 93.8003 730.201 94.0945 729.958 94.3319C729.715 94.564 729.359 94.6801 728.889 94.6801Z" fill="#0A0B36"/>
</g>
<defs>
<filter id="filter0_d_82_796" x="66.4179" y="97.9659" width="755.449" height="373.028" filterUnits="userSpaceOnUse" color-interpolation-filters="sRGB">
<feFlood flood-opacity="0" result="BackgroundImageFix"/>
<feColorMatrix in="SourceAlpha" type="matrix" values="0 0 0 0 0 0 0 0 0 0 0 0 0 0 0 0 0 0 127 0" result="hardAlpha"/>
<feOffset dy="5.3673"/>
<feGaussianBlur stdDeviation="2.68365"/>
<feComposite in2="hardAlpha" operator="out"/>
<feColorMatrix type="matrix" values="0 0 0 0 0 0 0 0 0 0 0 0 0 0 0 0 0 0 0.25 0"/>
<feBlend mode="normal" in2="BackgroundImageFix" result="effect1_dropShadow_82_796"/>
<feBlend mode="normal" in="SourceGraphic" in2="effect1_dropShadow_82_796" result="shape"/>
</filter>
<filter id="filter1_b_82_796" x="630.8" y="-29.2" width="153.4" height="171.4" filterUnits="userSpaceOnUse" color-interpolation-filters="sRGB">
<feFlood flood-opacity="0" result="BackgroundImageFix"/>
<feGaussianBlur in="BackgroundImageFix" stdDeviation="14.6"/>
<feComposite in2="SourceAlpha" operator="in" result="effect1_backgroundBlur_82_796"/>
<feBlend mode="normal" in="SourceGraphic" in2="effect1_backgroundBlur_82_796" result="shape"/>
</filter>
<linearGradient id="paint0_linear_82_796" x1="435.95" y1="190.843" x2="442.583" y2="548.027" gradientUnits="userSpaceOnUse">
<stop stop-color="#E7E7E7" stop-opacity="0.29"/>
<stop offset="0.867743" stop-color="#383B3D" stop-opacity="0"/>
</linearGradient>
</defs>
</svg>
