<svg width="117" height="21" viewBox="0 0 117 21" fill="none" xmlns="http://www.w3.org/2000/svg">
<g clip-path="url(#clip0_118_4978)">
<path d="M10.0383 2.4293C10.2091 2.01865 10.7909 2.01865 10.9617 2.4293L13.0278 7.39678C13.0998 7.5699 13.2626 7.68818 13.4495 7.70317L18.8123 8.1331C19.2556 8.16864 19.4354 8.72189 19.0976 9.01123L15.0117 12.5112C14.8693 12.6332 14.8071 12.8246 14.8506 13.007L16.0989 18.2402C16.2021 18.6728 15.7315 19.0147 15.3519 18.7829L10.7606 15.9785C10.6006 15.8808 10.3994 15.8808 10.2394 15.9785L5.64806 18.7829C5.26851 19.0147 4.79788 18.6728 4.90108 18.2402L6.14939 13.007C6.19289 12.8246 6.1307 12.6332 5.98831 12.5112L1.90241 9.01123C1.56464 8.72189 1.74441 8.16864 2.18773 8.1331L7.55054 7.70317C7.73744 7.68818 7.90024 7.5699 7.97225 7.39678L10.0383 2.4293Z" fill="#F2F4F7"/>
<g clip-path="url(#clip1_118_4978)">
<path d="M10.0383 2.4293C10.2091 2.01865 10.7909 2.01865 10.9617 2.4293L13.0278 7.39678C13.0998 7.5699 13.2626 7.68818 13.4495 7.70317L18.8123 8.1331C19.2556 8.16864 19.4354 8.72189 19.0976 9.01123L15.0117 12.5112C14.8693 12.6332 14.8071 12.8246 14.8506 13.007L16.0989 18.2402C16.2021 18.6728 15.7315 19.0147 15.3519 18.7829L10.7606 15.9785C10.6006 15.8808 10.3994 15.8808 10.2394 15.9785L5.64806 18.7829C5.26851 19.0147 4.79788 18.6728 4.90108 18.2402L6.14939 13.007C6.19289 12.8246 6.1307 12.6332 5.98831 12.5112L1.90241 9.01123C1.56464 8.72189 1.74441 8.16864 2.18773 8.1331L7.55054 7.70317C7.73744 7.68818 7.90024 7.5699 7.97225 7.39678L10.0383 2.4293Z" fill="#FEC84B"/>
</g>
</g>
<g clip-path="url(#clip2_118_4978)">
<path d="M34.0383 2.4293C34.2091 2.01865 34.7909 2.01865 34.9617 2.4293L37.0278 7.39678C37.0998 7.5699 37.2626 7.68818 37.4495 7.70317L42.8123 8.1331C43.2556 8.16864 43.4354 8.72189 43.0976 9.01123L39.0117 12.5112C38.8693 12.6332 38.8071 12.8246 38.8506 13.007L40.0989 18.2402C40.2021 18.6728 39.7315 19.0147 39.3519 18.7829L34.7606 15.9785C34.6006 15.8808 34.3994 15.8808 34.2394 15.9785L29.6481 18.7829C29.2685 19.0147 28.7979 18.6728 28.9011 18.2402L30.1494 13.007C30.1929 12.8246 30.1307 12.6332 29.9883 12.5112L25.9024 9.01123C25.5646 8.72189 25.7444 8.16864 26.1877 8.1331L31.5505 7.70317C31.7374 7.68818 31.9002 7.5699 31.9722 7.39678L34.0383 2.4293Z" fill="#F2F4F7"/>
<g clip-path="url(#clip3_118_4978)">
<path d="M34.0383 2.4293C34.2091 2.01865 34.7909 2.01865 34.9617 2.4293L37.0278 7.39678C37.0998 7.5699 37.2626 7.68818 37.4495 7.70317L42.8123 8.1331C43.2556 8.16864 43.4354 8.72189 43.0976 9.01123L39.0117 12.5112C38.8693 12.6332 38.8071 12.8246 38.8506 13.007L40.0989 18.2402C40.2021 18.6728 39.7315 19.0147 39.3519 18.7829L34.7606 15.9785C34.6006 15.8808 34.3994 15.8808 34.2394 15.9785L29.6481 18.7829C29.2685 19.0147 28.7979 18.6728 28.9011 18.2402L30.1494 13.007C30.1929 12.8246 30.1307 12.6332 29.9883 12.5112L25.9024 9.01123C25.5646 8.72189 25.7444 8.16864 26.1877 8.1331L31.5505 7.70317C31.7374 7.68818 31.9002 7.5699 31.9722 7.39678L34.0383 2.4293Z" fill="#FEC84B"/>
</g>
</g>
<g clip-path="url(#clip4_118_4978)">
<path d="M58.0383 2.4293C58.2091 2.01865 58.7909 2.01865 58.9617 2.4293L61.0278 7.39678C61.0998 7.5699 61.2626 7.68818 61.4495 7.70317L66.8123 8.1331C67.2556 8.16864 67.4354 8.72189 67.0976 9.01123L63.0117 12.5112C62.8693 12.6332 62.8071 12.8246 62.8506 13.007L64.0989 18.2402C64.2021 18.6728 63.7315 19.0147 63.3519 18.7829L58.7606 15.9785C58.6006 15.8808 58.3994 15.8808 58.2394 15.9785L53.6481 18.7829C53.2685 19.0147 52.7979 18.6728 52.9011 18.2402L54.1494 13.007C54.1929 12.8246 54.1307 12.6332 53.9883 12.5112L49.9024 9.01123C49.5646 8.72189 49.7444 8.16864 50.1877 8.1331L55.5505 7.70317C55.7374 7.68818 55.9002 7.5699 55.9722 7.39678L58.0383 2.4293Z" fill="#F2F4F7"/>
<g clip-path="url(#clip5_118_4978)">
<path d="M58.0383 2.4293C58.2091 2.01865 58.7909 2.01865 58.9617 2.4293L61.0278 7.39678C61.0998 7.5699 61.2626 7.68818 61.4495 7.70317L66.8123 8.1331C67.2556 8.16864 67.4354 8.72189 67.0976 9.01123L63.0117 12.5112C62.8693 12.6332 62.8071 12.8246 62.8506 13.007L64.0989 18.2402C64.2021 18.6728 63.7315 19.0147 63.3519 18.7829L58.7606 15.9785C58.6006 15.8808 58.3994 15.8808 58.2394 15.9785L53.6481 18.7829C53.2685 19.0147 52.7979 18.6728 52.9011 18.2402L54.1494 13.007C54.1929 12.8246 54.1307 12.6332 53.9883 12.5112L49.9024 9.01123C49.5646 8.72189 49.7444 8.16864 50.1877 8.1331L55.5505 7.70317C55.7374 7.68818 55.9002 7.5699 55.9722 7.39678L58.0383 2.4293Z" fill="#FEC84B"/>
</g>
</g>
<g clip-path="url(#clip6_118_4978)">
<path d="M82.0383 2.4293C82.2091 2.01865 82.7909 2.01865 82.9617 2.4293L85.0278 7.39678C85.0998 7.5699 85.2626 7.68818 85.4495 7.70317L90.8123 8.1331C91.2556 8.16864 91.4354 8.72189 91.0976 9.01123L87.0117 12.5112C86.8693 12.6332 86.8071 12.8246 86.8506 13.007L88.0989 18.2402C88.2021 18.6728 87.7315 19.0147 87.3519 18.7829L82.7606 15.9785C82.6006 15.8808 82.3994 15.8808 82.2394 15.9785L77.6481 18.7829C77.2685 19.0147 76.7979 18.6728 76.9011 18.2402L78.1494 13.007C78.1929 12.8246 78.1307 12.6332 77.9883 12.5112L73.9024 9.01123C73.5646 8.72189 73.7444 8.16864 74.1877 8.1331L79.5505 7.70317C79.7374 7.68818 79.9002 7.5699 79.9722 7.39678L82.0383 2.4293Z" fill="#F2F4F7"/>
<g clip-path="url(#clip7_118_4978)">
<path d="M82.0383 2.4293C82.2091 2.01865 82.7909 2.01865 82.9617 2.4293L85.0278 7.39678C85.0998 7.5699 85.2626 7.68818 85.4495 7.70317L90.8123 8.1331C91.2556 8.16864 91.4354 8.72189 91.0976 9.01123L87.0117 12.5112C86.8693 12.6332 86.8071 12.8246 86.8506 13.007L88.0989 18.2402C88.2021 18.6728 87.7315 19.0147 87.3519 18.7829L82.7606 15.9785C82.6006 15.8808 82.3994 15.8808 82.2394 15.9785L77.6481 18.7829C77.2685 19.0147 76.7979 18.6728 76.9011 18.2402L78.1494 13.007C78.1929 12.8246 78.1307 12.6332 77.9883 12.5112L73.9024 9.01123C73.5646 8.72189 73.7444 8.16864 74.1877 8.1331L79.5505 7.70317C79.7374 7.68818 79.9002 7.5699 79.9722 7.39678L82.0383 2.4293Z" fill="#FEC84B"/>
</g>
</g>
<g clip-path="url(#clip8_118_4978)">
<path d="M106.038 2.4293C106.209 2.01865 106.791 2.01865 106.962 2.4293L109.028 7.39678C109.1 7.5699 109.263 7.68818 109.449 7.70317L114.812 8.1331C115.256 8.16864 115.435 8.72189 115.098 9.01123L111.012 12.5112C110.869 12.6332 110.807 12.8246 110.851 13.007L112.099 18.2402C112.202 18.6728 111.731 19.0147 111.352 18.7829L106.761 15.9785C106.601 15.8808 106.399 15.8808 106.239 15.9785L101.648 18.7829C101.269 19.0147 100.798 18.6728 100.901 18.2402L102.149 13.007C102.193 12.8246 102.131 12.6332 101.988 12.5112L97.9024 9.01123C97.5646 8.72189 97.7444 8.16864 98.1877 8.1331L103.551 7.70317C103.737 7.68818 103.9 7.5699 103.972 7.39678L106.038 2.4293Z" fill="#F2F4F7"/>
<g clip-path="url(#clip9_118_4978)">
<path d="M106.038 2.4293C106.209 2.01865 106.791 2.01865 106.962 2.4293L109.028 7.39678C109.1 7.5699 109.263 7.68818 109.449 7.70317L114.812 8.1331C115.256 8.16864 115.435 8.72189 115.098 9.01123L111.012 12.5112C110.869 12.6332 110.807 12.8246 110.851 13.007L112.099 18.2402C112.202 18.6728 111.731 19.0147 111.352 18.7829L106.761 15.9785C106.601 15.8808 106.399 15.8808 106.239 15.9785L101.648 18.7829C101.269 19.0147 100.798 18.6728 100.901 18.2402L102.149 13.007C102.193 12.8246 102.131 12.6332 101.988 12.5112L97.9024 9.01123C97.5646 8.72189 97.7444 8.16864 98.1877 8.1331L103.551 7.70317C103.737 7.68818 103.9 7.5699 103.972 7.39678L106.038 2.4293Z" fill="#FEC84B"/>
</g>
</g>
<defs>
<clipPath id="clip0_118_4978">
<rect width="20" height="20" fill="white" transform="translate(0.5 0.819336)"/>
</clipPath>
<clipPath id="clip1_118_4978">
<rect width="20" height="20" fill="white" transform="translate(0.5 0.819336)"/>
</clipPath>
<clipPath id="clip2_118_4978">
<rect width="20" height="20" fill="white" transform="translate(24.5 0.819336)"/>
</clipPath>
<clipPath id="clip3_118_4978">
<rect width="20" height="20" fill="white" transform="translate(24.5 0.819336)"/>
</clipPath>
<clipPath id="clip4_118_4978">
<rect width="20" height="20" fill="white" transform="translate(48.5 0.819336)"/>
</clipPath>
<clipPath id="clip5_118_4978">
<rect width="20" height="20" fill="white" transform="translate(48.5 0.819336)"/>
</clipPath>
<clipPath id="clip6_118_4978">
<rect width="20" height="20" fill="white" transform="translate(72.5 0.819336)"/>
</clipPath>
<clipPath id="clip7_118_4978">
<rect width="20" height="20" fill="white" transform="translate(72.5 0.819336)"/>
</clipPath>
<clipPath id="clip8_118_4978">
<rect width="20" height="20" fill="white" transform="translate(96.5 0.819336)"/>
</clipPath>
<clipPath id="clip9_118_4978">
<rect width="20" height="20" fill="white" transform="translate(96.5 0.819336)"/>
</clipPath>
</defs>
</svg>
