<svg width="26" height="26" viewBox="0 0 26 26" fill="none" xmlns="http://www.w3.org/2000/svg">
<rect width="26" height="26" rx="13" fill="#FF8C42"/>
<path fill-rule="evenodd" clip-rule="evenodd" d="M17.6407 12.3479C18.683 11.7609 19.2479 10.5855 19.0552 9.40492C18.808 7.58128 16.6557 6.89502 14.9232 6.74865V4H13.2256V6.71626H12.0942V4H10.3953V6.71626H7V8.47151H8.27295C8.83923 8.47151 9.12118 8.64067 9.12118 9.09418V16.6203C9.12118 17.243 8.80924 17.4409 8.46971 17.4409H7.16797L7.11158 19.2238H10.3953V21.9964H12.093V19.2274H13.2244V22H14.922V19.2274H15.2903C18.7696 19.2274 19.931 17.5297 19.931 15.2094C19.9036 13.847 18.964 12.6731 17.6407 12.3479ZM12.0945 8.58398H13.311C14.1593 8.58398 15.8305 8.72556 15.8305 10.1125C15.8889 11.0115 15.2368 11.8004 14.3428 11.9121H12.0957L12.0945 8.58398ZM13.9625 17.2715H12.0945V13.6494H14.2732C14.7831 13.6494 16.6512 13.8198 16.6512 15.1779C16.6512 16.536 15.7729 17.2727 13.9625 17.2727V17.2715Z" fill="white"/>
</svg>
