<svg width="26" height="26" viewBox="0 0 26 26" fill="none" xmlns="http://www.w3.org/2000/svg">
<rect width="26" height="26" rx="13" fill="#4F8A48"/>
<path d="M14.4518 10.3727V8.24379H19.3202V5H6.0634V8.24379H10.9324V10.371C6.97531 10.5528 4 11.3365 4 12.2753C4 13.2141 6.97674 13.9978 10.9324 14.1807V21H14.453V14.1801C18.4029 13.9978 21.3722 13.2147 21.3722 12.2767C21.3722 11.3387 18.4029 10.5556 14.453 10.3733L14.4518 10.3727ZM14.453 13.6025V13.6008C14.3536 13.6071 13.8433 13.6377 12.707 13.6377C11.7985 13.6377 11.1594 13.612 10.9341 13.6002V13.6031C7.43814 13.4482 4.82862 12.8394 4.82862 12.111C4.82862 11.3825 7.43843 10.7746 10.9341 10.6195V12.9966C11.1631 13.0123 11.818 13.051 12.7219 13.051C13.8075 13.051 14.3533 13.0057 14.4535 12.9966V10.6195C17.9426 10.7749 20.5461 11.3843 20.5461 12.1101C20.5461 12.836 17.9415 13.4457 14.4535 13.6011" fill="white"/>
</svg>
