<svg width="116" height="116" viewBox="0 0 116 116" fill="none" xmlns="http://www.w3.org/2000/svg">
<rect width="116" height="116" rx="58" fill="#FCE390"/>
<path fill-rule="evenodd" clip-rule="evenodd" d="M67.6459 56.551C69.9622 55.2464 71.2175 52.6345 70.7893 50.0109C70.2401 45.9584 65.457 44.4334 61.6071 44.1081V38H57.8346V44.0361H55.3204V38H51.5452V44.0361H44V47.9367H46.8288C48.0872 47.9367 48.7137 48.3126 48.7137 49.3204V66.0451C48.7137 67.4288 48.0205 67.8687 47.266 67.8687H44.3733L44.248 71.8306H51.5452V77.992H55.3177V71.8386H57.8319V78H61.6045V71.8386H62.423C70.1548 71.8386 72.7356 68.066 72.7356 62.9097C72.6746 59.8822 70.5866 57.2736 67.6459 56.551ZM55.3211 48.1877H58.0245C59.9095 48.1877 63.6234 48.5023 63.6234 51.5843C63.7532 53.5821 62.304 55.3352 60.3174 55.5835H55.3237L55.3211 48.1877ZM59.4722 67.4924H55.321V59.4434H60.1627C61.2958 59.4434 65.447 59.822 65.447 62.84C65.447 65.8581 63.4954 67.4951 59.4722 67.4951V67.4924Z" fill="#FF8C42"/>
</svg>
