<svg width="116" height="116" viewBox="0 0 116 116" fill="none" xmlns="http://www.w3.org/2000/svg">
<rect width="116" height="116" rx="58" fill="#B8DDB6"/>
<path d="M62.1295 51.4318V46.1095H74.3005V38H41.1585V46.1095H53.3309V51.4276C43.4383 51.8819 36 53.8411 36 56.1882C36 58.5352 43.4419 60.4945 53.3309 60.9517V78H62.1324V60.9503C72.0072 60.4945 79.4304 58.5367 79.4304 56.1918C79.4304 53.8469 72.0072 51.8891 62.1324 51.4333L62.1295 51.4318ZM62.1324 59.5063V59.502C61.8841 59.5177 60.6082 59.5943 57.7674 59.5943C55.4962 59.5943 53.8984 59.5299 53.3352 59.5005V59.5077C44.5953 59.1206 38.0716 57.5986 38.0716 55.7775C38.0716 53.9563 44.5961 52.4365 53.3352 52.0487V57.9914C53.9077 58.0308 55.5449 58.1274 57.8046 58.1274C60.5188 58.1274 61.8834 58.0143 62.1338 57.9914V52.0487C70.8565 52.4372 77.3653 53.9606 77.3653 55.7753C77.3653 57.59 70.8537 59.1141 62.1338 59.5027" fill="#4F8A48"/>
</svg>
