<svg width="55" height="56" viewBox="0 0 55 56" fill="none" xmlns="http://www.w3.org/2000/svg">
<path d="M26.6374 23.0492C26.9491 23.0492 27.2548 23.086 27.5509 23.1556C27.5533 23.1562 27.5556 23.1568 27.558 23.1571C28.2631 23.3246 28.9102 23.6835 29.4357 24.2091C29.6662 24.4396 30.0399 24.4398 30.27 24.2091C30.5006 23.9784 30.5006 23.6046 30.27 23.3739C29.6969 22.8003 29.0113 22.3803 28.264 22.1315V20.554C28.264 20.2278 27.9998 19.9634 27.6739 19.9634C27.348 19.9634 27.0838 20.2278 27.0838 20.554V21.8882C26.9361 21.8756 26.7874 21.8679 26.6374 21.8679C26.4875 21.8679 26.3386 21.8754 26.1909 21.8882V20.554C26.1909 20.2278 25.9267 19.9634 25.6008 19.9634C25.2748 19.9634 25.0106 20.2278 25.0106 20.554V22.1315C24.2634 22.3805 23.5781 22.8004 23.0048 23.3739C22.0344 24.3449 21.5 25.636 21.5 27.0094C21.5 28.3828 22.0344 29.6738 23.0048 30.6447C23.578 31.2184 24.2634 31.6383 25.0106 31.8871V33.4647C25.0106 33.7909 25.2748 34.0553 25.6008 34.0553C25.9267 34.0553 26.1909 33.7909 26.1909 33.4647V32.1304C26.3386 32.1431 26.4875 32.1508 26.6374 32.1508C26.7874 32.1508 26.9363 32.1432 27.0838 32.1304V33.4647C27.0838 33.7909 27.348 34.0553 27.6739 34.0553C27.9998 34.0553 28.264 33.7909 28.264 33.4647V31.8873C29.0115 31.6384 29.6968 31.2184 30.27 30.6448C30.5006 30.4143 30.5006 30.0403 30.27 29.8098C30.0395 29.5791 29.6662 29.5791 29.4357 29.8098C28.9101 30.3356 28.2627 30.6945 27.5575 30.8619C27.5556 30.8623 27.5537 30.8627 27.5518 30.8631C27.2557 30.9329 26.9495 30.9697 26.6375 30.9697C26.3272 30.9697 26.0229 30.9331 25.7282 30.8642C25.7233 30.8633 25.7186 30.8617 25.7137 30.861C25.01 30.6932 24.3639 30.3346 23.8393 29.8098C23.0919 29.0616 22.6803 28.0672 22.6803 27.0094C22.6803 25.9515 23.0919 24.9571 23.8393 24.2093C24.5868 23.4613 25.5805 23.0493 26.6375 23.0493L26.6374 23.0492Z" fill="#111111"/>
<path d="M51.9453 26.9886C51.3488 26.9905 50.7696 27.19 50.2981 27.556C49.8272 27.9226 49.4908 28.4344 49.3417 29.0122H38.9548C39.0678 28.3432 39.1266 27.6666 39.1299 26.9886C39.1294 26.5379 39.1045 26.0877 39.056 25.6398H43.2715C43.4922 26.4947 44.1174 27.1877 44.9454 27.4949C45.7735 27.8016 46.6993 27.684 47.4244 27.1796C48.1495 26.6753 48.5813 25.8481 48.5813 24.965C48.5813 24.082 48.1494 23.2549 47.4244 22.7504C46.6994 22.246 45.7735 22.1285 44.9454 22.4352C44.1174 22.7424 43.4922 23.4355 43.2715 24.2903H38.84C38.6335 23.3446 38.3192 22.4258 37.9024 21.5521L41.2343 18.2202H45.9556C46.1767 19.0751 46.802 19.7681 47.63 20.0753C48.458 20.3825 49.3839 20.2649 50.109 19.7605C50.8335 19.2561 51.2659 18.4285 51.2659 17.5454C51.2659 16.6623 50.8335 15.8352 50.109 15.3308C49.3839 14.8265 48.458 14.7088 47.63 15.0161C46.8019 15.3233 46.1767 16.0158 45.9556 16.8711H40.6744L37.2346 20.3109C36.4809 19.0787 35.5258 17.982 34.4084 17.0669V12.433L37.7808 9.06062V6.65921C38.6362 6.43856 39.3288 5.81329 39.6359 4.98529C39.9431 4.15724 39.8255 3.23139 39.3212 2.50632C38.8168 1.78131 37.9896 1.34893 37.1066 1.34893C36.2235 1.34893 35.3959 1.7813 34.8915 2.50632C34.3871 3.23133 34.2695 4.15724 34.5767 4.98529C34.884 5.81334 35.577 6.43856 36.4318 6.65921V8.5073L33.0594 11.8797V16.1089C32.4162 15.7085 31.7392 15.3655 31.0358 15.0837V5.31028C31.8911 5.08963 32.5837 4.46436 32.8909 3.63636C33.1981 2.80831 33.0805 1.88246 32.5761 1.15739C32.0718 0.43238 31.2446 0 30.3615 0C29.4784 0 28.6509 0.432368 28.1464 1.15739C27.6421 1.8824 27.5245 2.80831 27.8317 3.63636C28.1389 4.46441 28.8319 5.08963 29.6868 5.31028V14.6385C28.5887 14.3322 27.4543 14.1756 26.3143 14.1727V12.0551C27.1692 11.8344 27.8623 11.2092 28.1694 10.3812C28.4766 9.55312 28.359 8.62727 27.8547 7.9022C27.3503 7.17719 26.5227 6.74481 25.6396 6.74481C24.7565 6.74481 23.9294 7.17718 23.425 7.9022C22.9206 8.62721 22.803 9.55312 23.1102 10.3812C23.4175 11.2092 24.11 11.8344 24.9653 12.0551V14.247C23.5624 14.3953 22.1941 14.7782 20.9182 15.3804V9.35682C21.7735 9.13617 22.4661 8.5109 22.7732 7.6829C23.0805 6.85485 22.9628 5.929 22.4585 5.20393C21.9541 4.47892 21.127 4.04701 20.2439 4.04701C19.3608 4.04701 18.5332 4.47891 18.0288 5.20393C17.5244 5.92894 17.4068 6.85485 17.7141 7.6829C18.0213 8.51095 18.7143 9.13617 19.5691 9.35682V11.9939L15.522 7.94679V5.98441C16.3773 5.76375 17.0703 5.13848 17.377 4.31048C17.6843 3.48243 17.5667 2.55658 17.0623 1.83151C16.5579 1.1065 15.7308 0.674592 14.8477 0.674592C13.9646 0.674592 13.137 1.10649 12.6326 1.83151C12.1287 2.55652 12.0111 3.48243 12.3179 4.31048C12.6251 5.13853 13.3181 5.76375 14.1729 5.98441V8.50011L19.5689 13.8961V16.1088C17.6663 17.2934 16.1029 18.95 15.0297 20.9176H11.6572L8.10271 17.3161C8.53931 16.8207 8.77926 16.1822 8.77691 15.5221C8.77691 14.8065 8.49274 14.12 7.98697 13.6143C7.48073 13.108 6.79477 12.8239 6.07915 12.8239C5.36352 12.8239 4.67754 13.108 4.17132 13.6143C3.66555 14.12 3.38138 14.8065 3.38138 15.5221C3.38138 16.2372 3.66555 16.9237 4.17132 17.4294C4.67756 17.9357 5.36352 18.2198 6.07915 18.2198C6.36849 18.2156 6.65549 18.1653 6.92884 18.0716L11.1241 22.2669H14.409C14.1474 22.9232 13.9399 23.5998 13.7884 24.29H5.31028C5.08916 23.4351 4.46389 22.7421 3.63588 22.4349C2.80783 22.1282 1.88198 22.2458 1.15739 22.7502C0.432379 23.2545 0 24.0817 0 24.9648C0 25.8479 0.432367 26.6749 1.15739 27.1794C1.88193 27.6837 2.80783 27.8013 3.63588 27.4946C4.46393 27.1874 5.08915 26.4943 5.31028 25.6395H13.5725C13.524 26.0874 13.4991 26.5377 13.4986 26.9884C13.5019 27.6663 13.5607 28.3429 13.6736 29.0119H8.68232H8.68279C8.46167 28.1566 7.8364 27.4636 7.00838 27.1569C6.18033 26.8496 5.25448 26.9673 4.5299 27.4716C3.80489 27.976 3.37251 28.8031 3.37251 29.6862C3.37251 30.5693 3.80487 31.3969 4.5299 31.9013C5.25444 32.4052 6.18033 32.5228 7.00838 32.216C7.83643 31.9088 8.46165 31.2158 8.68279 30.361H13.964C14.1809 31.1683 14.4768 31.9521 14.8476 32.7012L11.8054 35.757H6.6592C6.43855 34.9016 5.81328 34.2087 4.98528 33.9019C4.15723 33.5947 3.23138 33.7123 2.50631 34.2166C1.7813 34.721 1.34892 35.5481 1.34892 36.4312C1.34892 37.3143 1.78129 38.1419 2.50631 38.6463C3.23132 39.1502 4.15723 39.2678 4.98528 38.9611C5.81333 38.6538 6.43855 37.9608 6.6592 37.106H12.3652L15.5217 33.9222C16.4161 35.2885 17.5603 36.4742 18.8941 37.416V43.5944L16.4391 46.0428C16.145 45.935 15.835 45.8781 15.5217 45.8744C14.8065 45.8744 14.1201 46.1585 13.6143 46.6643C13.1081 47.1705 12.8239 47.8565 12.8239 48.5721C12.8239 49.2878 13.1081 49.9737 13.6143 50.48C14.1201 50.9857 14.8065 51.2699 15.5217 51.2699C16.2373 51.2699 16.9237 50.9857 17.4295 50.48C17.9357 49.9737 18.2199 49.2878 18.2199 48.5721C18.2128 47.9295 17.9734 47.3112 17.5452 46.8318L20.2429 44.1341L20.2434 38.2729C20.8912 38.6173 21.5683 38.9038 22.2665 39.1296V48.6668C21.4116 48.8875 20.7185 49.5128 20.4114 50.3408C20.1046 51.1688 20.2223 52.0947 20.7266 52.8197C21.231 53.5448 22.0581 53.9766 22.9412 53.9766C23.8243 53.9766 24.6514 53.5447 25.1558 52.8197C25.6602 52.0947 25.7778 51.1688 25.471 50.3408C25.1638 49.5127 24.4708 48.8875 23.616 48.6668V39.5141C24.5024 39.7065 25.4066 39.8039 26.3137 39.8039H26.9883V43.979C26.133 44.1996 25.44 44.8253 25.1333 45.6529C24.826 46.4809 24.9437 47.4068 25.448 48.1318C25.9524 48.8569 26.7795 49.2892 27.6626 49.2892C28.5457 49.2892 29.3733 48.8569 29.8777 48.1318C30.3816 47.4068 30.4992 46.4809 30.1924 45.6529C29.8852 44.8253 29.1922 44.1996 28.3374 43.979V39.6623C29.7526 39.4435 31.1207 38.9871 32.384 38.3134V50.6902C31.5292 50.9108 30.8361 51.5361 30.529 52.3641C30.2222 53.1922 30.3398 54.118 30.8442 54.8431C31.3486 55.5681 32.1757 56 33.0588 56C33.9419 56 34.769 55.5681 35.2734 54.8431C35.7777 54.1181 35.8954 53.1922 35.5886 52.3641C35.2814 51.5361 34.5884 50.9108 33.7335 50.6902V41.3079L37.106 44.6803V46.6432C36.2506 46.8638 35.5577 47.4891 35.2509 48.3171C34.9437 49.1451 35.0613 50.071 35.5656 50.7961C36.07 51.5211 36.8971 51.9534 37.7802 51.9534C38.6633 51.9534 39.4909 51.5211 39.9953 50.7961C40.4992 50.071 40.6168 49.1451 40.3101 48.3171C40.0028 47.489 39.3098 46.8638 38.455 46.6432V44.1275L33.7337 39.4062V37.4161C34.8281 36.6365 35.7931 35.6899 36.5933 34.6101L39.7634 37.7802H43.2708C43.4915 38.6355 44.1167 39.3285 44.9447 39.6353C45.7728 39.9425 46.6986 39.8249 47.4237 39.3205C48.1488 38.8162 48.5806 37.989 48.5806 37.1059C48.5806 36.2228 48.1487 35.3953 47.4237 34.8909C46.6987 34.387 45.7728 34.2693 44.9447 34.5761C44.1167 34.8833 43.4915 35.5763 43.2708 36.4312H40.3232L37.3553 33.4633C37.9256 32.4908 38.3655 31.4478 38.6637 30.3609H49.3408C49.5102 31.0163 49.9195 31.5837 50.4874 31.9516C51.0557 32.3191 51.7412 32.4598 52.4083 32.3454C53.0755 32.2316 53.6754 31.8707 54.0889 31.3348C54.5024 30.7994 54.6996 30.1276 54.6407 29.4534C54.5824 28.7792 54.2728 28.1515 53.7732 27.6951C53.274 27.2383 52.621 26.9861 51.9444 26.9885L51.9453 26.9886ZM45.8752 23.6162H45.8747C46.4205 23.6162 46.9126 23.9446 47.1211 24.449C47.33 24.9529 47.2147 25.533 46.8289 25.9188C46.4431 26.3046 45.863 26.4203 45.3587 26.2114C44.8548 26.0025 44.5259 25.5109 44.5259 24.9651C44.5259 24.2198 45.13 23.6162 45.8748 23.6162L45.8752 23.6162ZM48.5729 16.1967C49.1182 16.1967 49.6103 16.5255 49.8193 17.0294C50.0282 17.5338 49.9124 18.1139 49.5266 18.4997C49.1408 18.8855 48.5607 19.0007 48.0568 18.7919C47.5525 18.5834 47.2241 18.0913 47.2241 17.5455C47.2241 16.8007 47.8277 16.1967 48.5729 16.1967L48.5729 16.1967ZM35.7577 4.05596C35.7577 3.51068 36.0866 3.01854 36.5905 2.80961C37.0948 2.60118 37.6749 2.71645 38.0607 3.10225C38.4465 3.48805 38.5618 4.06815 38.3534 4.57251C38.1445 5.07639 37.6524 5.40526 37.107 5.40526C36.3618 5.40526 35.7577 4.80117 35.7577 4.05594L35.7577 4.05596ZM29.0129 2.70711C29.0129 2.16183 29.3417 1.6697 29.8456 1.46076C30.35 1.25187 30.9301 1.36761 31.3159 1.7534C31.7017 2.1392 31.817 2.7193 31.6085 3.22318C31.3996 3.72753 30.9075 4.05594 30.3622 4.05594C29.6169 4.05594 29.0129 3.45231 29.0129 2.70709L29.0129 2.70711ZM24.2916 9.45195C24.2916 8.90667 24.6205 8.41453 25.1244 8.2056C25.6287 7.9967 26.2088 8.11244 26.5946 8.49824C26.9804 8.88404 27.0957 9.46414 26.8868 9.96802C26.6784 10.4724 26.1863 10.8008 25.6404 10.8008C24.8957 10.8008 24.2916 10.1971 24.2916 9.45193L24.2916 9.45195ZM13.5001 3.38184C13.5001 2.83608 13.8285 2.34442 14.3329 2.13549C14.8368 1.92659 15.4169 2.04186 15.8026 2.42766C16.1884 2.81346 16.3042 3.39403 16.0953 3.89791C15.8864 4.4018 15.3943 4.73067 14.8489 4.73067C14.1037 4.73067 13.5001 4.12658 13.5001 3.38183L13.5001 3.38184ZM18.8961 6.75426H18.8956C18.8956 6.2085 19.2245 5.71684 19.7284 5.50791C20.2328 5.29901 20.8129 5.41428 21.1986 5.80008C21.5844 6.18588 21.6997 6.76645 21.4913 7.27033C21.2824 7.77422 20.7903 8.10309 20.2449 8.10309C19.4997 8.10309 18.8956 7.499 18.8956 6.75424L18.8961 6.75426ZM4.73195 15.5227C4.73195 14.9769 5.06035 14.4848 5.5647 14.2763C6.06859 14.0674 6.6487 14.1827 7.03448 14.5685C7.42027 14.9543 7.53602 15.5344 7.32712 16.0387C7.11822 16.5426 6.62657 16.8715 6.08077 16.8715C5.33553 16.8715 4.73192 16.2674 4.73192 15.5227L4.73195 15.5227ZM2.70837 26.3142C2.16262 26.3142 1.67096 25.9858 1.46202 25.4814C1.25313 24.9775 1.36887 24.3974 1.75467 24.0116C2.14046 23.6259 2.72056 23.5101 3.22444 23.719C3.7288 23.9279 4.0572 24.4195 4.0572 24.9653C4.0572 25.3229 3.91511 25.6664 3.662 25.919C3.40934 26.1721 3.0659 26.3142 2.70833 26.3142L2.70837 26.3142ZM6.08079 31.0354C5.53504 31.0354 5.04338 30.707 4.83444 30.2027C4.62555 29.6988 4.74129 29.1187 5.12709 28.7329C5.51288 28.3471 6.09298 28.2314 6.59686 28.4403C7.10122 28.6492 7.42962 29.1413 7.42962 29.6866C7.42962 30.0446 7.28753 30.3876 7.03442 30.6407C6.78176 30.8934 6.43832 31.0355 6.08074 31.0355L6.08079 31.0354ZM4.05722 37.7803C3.51194 37.7803 3.01981 37.4519 2.81087 36.9475C2.60197 36.4436 2.71772 35.8635 3.10351 35.4777C3.48931 35.092 4.06941 34.9762 4.57329 35.1851C5.07764 35.394 5.40604 35.8861 5.40604 36.4314C5.40604 36.7895 5.26396 37.1325 5.01132 37.3856C4.75819 37.6382 4.41522 37.7803 4.05717 37.7803L4.05722 37.7803ZM15.5233 49.921C14.978 49.921 14.4859 49.5926 14.277 49.0882C14.0685 48.5843 14.1838 48.0042 14.5696 47.6184C14.9554 47.2327 15.5355 47.1169 16.0399 47.3258C16.5438 47.5347 16.8726 48.0264 16.8726 48.5722C16.8726 48.9297 16.7305 49.2732 16.4774 49.5258C16.2243 49.7789 15.8813 49.921 15.5233 49.921L15.5233 49.921ZM24.2917 51.2698C24.2917 51.8156 23.9633 52.3077 23.459 52.5162C22.9551 52.7251 22.375 52.6098 21.9892 52.224C21.6034 51.8382 21.4877 51.2581 21.6966 50.7537C21.9055 50.2499 22.3971 49.921 22.9429 49.921C23.3005 49.921 23.6439 50.0631 23.8966 50.3162C24.1497 50.5693 24.2918 50.9123 24.2918 51.2699L24.2917 51.2698ZM29.013 46.5486C29.013 47.0943 28.6846 47.586 28.1802 47.7949C27.6764 48.0038 27.0963 47.8885 26.7105 47.5027C26.3247 47.1169 26.2089 46.5364 26.4178 46.0325C26.6267 45.5286 27.1188 45.1997 27.6642 45.1997C28.0222 45.1997 28.3652 45.3418 28.6183 45.5949C28.871 45.8476 29.013 46.191 29.013 46.5486L29.013 46.5486ZM39.1303 49.2463V49.2467C39.1303 49.792 38.8019 50.2841 38.2975 50.4931C37.7936 50.7015 37.2135 50.5862 36.8277 50.2004C36.4419 49.8146 36.3262 49.2345 36.5351 48.7302C36.744 48.2263 37.2361 47.8974 37.7814 47.8974C38.1395 47.8974 38.4825 48.0395 38.7356 48.2926C38.9882 48.5457 39.1303 48.8887 39.1303 49.2468L39.1303 49.2463ZM34.409 53.2934C34.409 53.8391 34.0806 54.3308 33.5762 54.5397C33.0723 54.7486 32.4922 54.6334 32.1065 54.2476C31.7207 53.8618 31.6049 53.2812 31.8138 52.7773C32.0227 52.2734 32.5144 51.9446 33.0602 51.9446C33.4177 51.9446 33.7612 52.0866 34.0138 52.3398C34.267 52.5924 34.409 52.9359 34.409 53.2934L34.409 53.2934ZM45.8751 35.7568C46.4208 35.7568 46.913 36.0852 47.1214 36.5896C47.3303 37.0935 47.2151 37.6736 46.8293 38.0593C46.4435 38.4451 45.8634 38.5609 45.359 38.352C44.8551 38.1431 44.5263 37.651 44.5263 37.1056C44.5263 36.3604 45.1304 35.7568 45.8751 35.7568L45.8751 35.7568ZM26.3151 38.4545C23.2739 38.4545 20.3573 37.2463 18.2073 35.0962C16.0568 32.9457 14.849 30.0291 14.849 26.9884C14.849 23.9472 16.0566 21.0307 18.2073 18.8806C20.3574 16.7301 23.2739 15.5223 26.3151 15.5223C29.3563 15.5223 32.2728 16.73 34.4228 18.8806C36.5734 21.0308 37.7812 23.9472 37.7812 26.9884C37.7812 30.0291 36.5735 32.9457 34.4228 35.0962C32.2727 37.2463 29.3563 38.4545 26.3151 38.4545ZM51.9454 31.0349C51.3997 31.0349 50.908 30.7065 50.6991 30.2022C50.4902 29.6983 50.6055 29.1182 50.9913 28.7324C51.3771 28.3466 51.9576 28.2309 52.4615 28.4398C52.9654 28.6487 53.2943 29.1408 53.2943 29.6861C53.2943 30.0442 53.1522 30.3871 52.8991 30.6403C52.6464 30.8929 52.303 31.035 51.9454 31.035L51.9454 31.0349Z" fill="#111111"/>
<path d="M26.3145 16.8716C23.6314 16.8716 21.0578 17.9372 19.1604 19.8347C17.2634 21.7322 16.1973 24.3057 16.1973 26.9888C16.1973 29.672 17.2634 32.2456 19.1604 34.1426C21.0579 36.04 23.6314 37.1061 26.3145 37.1061C28.9976 37.1061 31.5713 36.04 33.4686 34.1426C35.3656 32.2456 36.4318 29.6721 36.4318 26.9888C36.4318 24.3057 35.3657 21.7321 33.4686 19.8347C31.5712 17.9373 28.9976 16.8716 26.3145 16.8716ZM26.3145 35.7571C23.9889 35.7571 21.7589 34.8331 20.1145 33.1888C18.4702 31.5445 17.5461 29.3144 17.5461 26.9887C17.5461 24.6631 18.4701 22.4331 20.1145 20.7886C21.7587 19.1444 23.9889 18.2203 26.3145 18.2203C28.6402 18.2203 30.8702 19.1443 32.5146 20.7886C34.1589 22.4329 35.0829 24.6631 35.0829 26.9887C35.0829 29.3144 34.1589 31.5444 32.5146 33.1888C30.8703 34.8331 28.6402 35.7571 26.3145 35.7571Z" fill="#111111"/>
</svg>
