<svg width="37" height="39" viewBox="0 0 37 39" fill="none" xmlns="http://www.w3.org/2000/svg">
<path d="M36.5002 3.00004H33.0002V0.499892C33.0002 0.21998 32.7803 0 32.5003 0H27.5004C27.2205 0 27.0005 0.21998 27.0005 0.499892V3.00004H10.0006L9.99989 0.499892C9.99989 0.21998 9.77991 0 9.5 0H4.50005C4.2198 0 3.99982 0.21998 3.99982 0.499892V3.00004H0.499892C0.21998 3.00004 0 3.22002 0 3.49993V38.5001C0 38.78 0.21998 39 0.499892 39H36.5004C36.7803 39 37.0003 38.78 37.0003 38.5001V3.49993C37.0003 3.22002 36.7803 3.00004 36.5004 3.00004H36.5002ZM27.9999 1.00013H32.0001V7.00021H27.9999V1.00013ZM4.99993 1.00013H9.00009V7.00021H4.99993V1.00013ZM36.0006 38H1.00045V12H36.0006V38ZM36.0006 10.9997H1.00045V3.99948H4.00048L4.00015 7.49976C4.00015 7.77967 4.22013 7.99965 4.50004 7.99965H9.49999C9.77991 7.99965 9.99989 7.77967 9.99989 7.49976L10.0002 3.99982H27.0002L27.0005 7.49976C27.0005 7.77967 27.2205 7.99965 27.5004 7.99965H32.5003C32.7802 7.99965 33.0002 7.77967 33.0002 7.49976L33.0006 3.99982H36.0006L36.0006 10.9997Z" fill="#111111"/>
<path d="M18.4998 34.5005C23.7399 34.5005 27.9997 30.2406 27.9997 25.0007C27.9997 19.7607 23.7397 15.5 18.4998 15.5C13.26 15.5 9 19.76 9 24.9998C9 30.2402 13.26 34.5005 18.4998 34.5005ZM18.4998 16.5003C23.1898 16.5003 27.0001 20.3103 27.0001 25.0005C27.0001 29.6904 23.1898 33.5004 18.4998 33.5004C13.8099 33.5004 9.99961 29.6904 9.99961 25.0002C9.99961 20.3103 13.8099 16.5003 18.4998 16.5003Z" fill="#111111"/>
<path d="M18.4998 25.5003H22.5C22.7799 25.5003 22.9999 25.2804 22.9999 25.0004C22.9999 24.7202 22.7799 24.5002 22.5 24.5002H19V18.5001C19 18.2202 18.78 18.0002 18.5001 18.0002C18.2202 18.0002 18.0002 18.2202 18.0002 18.5001V25.0001C17.9999 25.2804 18.2199 25.5003 18.4998 25.5003H18.4998Z" fill="#111111"/>
</svg>
