<svg width="41" height="45" viewBox="0 0 41 45" fill="none" xmlns="http://www.w3.org/2000/svg">
<path d="M3.30645 0C1.48625 0 0 1.44482 0 3.21428V36.6428C0 38.4123 1.48625 39.8571 3.30645 39.8571H16.4909C16.3424 39.9939 16.1952 40.1266 16.0573 40.2791C15.1583 41.2714 14.5485 42.6221 14.5485 44.357C14.5485 44.7121 14.8446 45 15.21 45H40.339C40.7039 45 41 44.7121 41 44.357C41 42.6221 40.3906 41.2714 39.4917 40.2791C38.5927 39.2868 37.4426 38.6388 36.3296 38.1293C35.217 37.6203 34.1358 37.232 33.3954 36.8639C33.025 36.6796 32.7409 36.4935 32.5896 36.3415C32.4378 36.1899 32.4032 36.1271 32.4032 36.0002C32.4032 34.9895 32.9484 34.2317 33.6228 33.1877C34.2972 32.1434 35.0486 30.8281 35.0486 28.9286C35.0486 25.9524 33.1066 23.3977 30.4197 22.3592V9.64323C30.4234 9.47103 30.3565 9.30467 30.2333 9.18136L20.9755 0.181137C20.8482 0.0614047 20.6771 -0.00361604 20.5004 0.000424774L3.30645 0ZM3.30645 1.2856H19.8387V9.64285C19.8387 9.998 20.1348 10.2859 20.5002 10.2859H29.0966V21.9974C28.6653 21.918 28.2261 21.8565 27.7741 21.8565C25.8787 21.8565 24.1226 22.596 22.8144 23.7852C22.7937 23.7843 22.7734 23.7843 22.7526 23.7852H6.61244C6.57139 23.7816 6.52987 23.7816 6.48836 23.7852C6.12302 23.8184 5.85502 24.1332 5.88916 24.4884C5.9233 24.8435 6.2471 25.1045 6.61244 25.0709H21.7194C20.9583 26.1852 20.5002 27.5022 20.5002 28.9282C20.5002 29.6484 20.5976 30.2874 20.7687 30.8569H6.61237C6.57132 30.8529 6.5298 30.8529 6.48829 30.8569C6.12295 30.8901 5.85495 31.2049 5.88909 31.56C5.92323 31.9152 6.24703 32.1757 6.61237 32.1425H21.1607C21.2087 32.1475 21.2576 32.1475 21.3056 32.1425C21.503 32.5237 21.7184 32.8663 21.9255 33.1874C22.5999 34.2313 23.1447 34.9891 23.1447 35.9998C23.1447 36.1268 23.1105 36.1895 22.9588 36.3411C22.807 36.4931 22.5229 36.6792 22.1529 36.8635C21.4121 37.2317 20.3308 37.62 19.2182 38.1289C18.9267 38.2625 18.6213 38.4146 18.3298 38.5711H3.30555C2.19525 38.5711 1.32156 37.7222 1.32156 36.6424V3.21384C1.32156 2.13449 2.19522 1.28515 3.30555 1.28515L3.30645 1.2856ZM21.1613 2.18961L28.1667 8.99976H21.1613V2.18961ZM6.4889 16.7147C6.12356 16.7479 5.85557 17.0627 5.8897 17.4179C5.92384 17.7725 6.24765 18.0335 6.61299 18.0004H23.8065C23.9832 18.0026 24.1539 17.9362 24.2798 17.8151C24.4062 17.6945 24.4772 17.5295 24.4772 17.3573C24.4772 17.1851 24.4062 17.0205 24.2798 16.8995C24.1539 16.7788 23.9832 16.712 23.8065 16.7147H6.61299C6.57194 16.7107 6.53042 16.7107 6.4889 16.7147ZM27.7742 23.1433C30.9971 23.1433 33.726 25.7554 33.726 28.9288C33.726 30.5117 33.1549 31.5009 32.5064 32.5044C31.8583 33.5084 31.0806 34.543 31.0806 36.0003C31.0806 36.49 31.32 36.9267 31.6388 37.2456C31.957 37.5644 32.3394 37.7922 32.7754 38.0093C33.6467 38.4424 34.7146 38.8205 35.751 39.2949C36.7875 39.7688 37.7866 40.3357 38.4993 41.1231C39.0893 41.7742 39.426 42.6388 39.5533 43.7145H15.9949C16.1226 42.6387 16.4589 41.7742 17.0489 41.1231C17.762 40.3357 18.7612 39.7689 19.7971 39.2949C20.8336 38.8204 21.9015 38.4424 22.7733 38.0093C23.2087 37.7922 23.5912 37.5644 23.9099 37.2456C24.2282 36.9268 24.4676 36.49 24.4676 36.0003C24.4676 34.543 23.6899 33.5084 23.0418 32.5044C22.3937 31.5009 21.8227 30.5117 21.8227 28.9288C21.8227 25.7552 24.5512 23.1433 27.7742 23.1433Z" fill="#111111"/>
</svg>
