<svg width="49" height="49" viewBox="0 0 49 49" fill="none" xmlns="http://www.w3.org/2000/svg">
<path fill-rule="evenodd" clip-rule="evenodd" d="M30.5651 37.1832C30.1247 37.1832 29.7677 36.8263 29.7677 36.3859C29.7677 35.9455 30.1247 35.5885 30.5651 35.5885C31.5693 35.5885 32.3862 34.7715 32.3862 33.767C32.3862 32.7628 31.5692 31.9459 30.5651 31.9459L23.9405 31.9576H23.9391C23.8111 31.9576 23.6848 31.927 23.5714 31.8678L17.7902 28.8608H11.5942C11.1538 28.8608 10.7969 28.5039 10.7969 28.0635C10.7969 27.6231 11.1538 27.2661 11.5942 27.2661H17.9853C18.1133 27.2661 18.2395 27.2968 18.3529 27.356L24.1334 30.3622L30.564 30.3511C32.4487 30.3511 33.981 31.8834 33.981 33.7666C33.9806 35.6513 32.4483 37.1833 30.5651 37.1833L30.5651 37.1832Z" fill="#111111"/>
<path fill-rule="evenodd" clip-rule="evenodd" d="M28.3273 44.7605H24.5769C24.4788 44.7605 24.3815 44.7423 24.2898 44.707L14.3346 40.866H11.6704C11.23 40.866 10.873 40.5091 10.873 40.0687C10.873 39.6283 11.23 39.2713 11.6704 39.2713H14.4832C14.5813 39.2713 14.6787 39.2895 14.7703 39.3248L24.7255 43.1657H28.156C28.9152 42.833 30.4832 42.2643 32.4298 41.5578C37.0468 39.8825 44.0237 37.351 46.4639 35.6906C47.1796 35.2039 47.4239 34.2115 47.0091 33.4783C46.553 32.6717 45.2215 32.1984 42.854 33.2904C42.8322 33.3004 42.8101 33.3093 42.7873 33.3175L32.057 37.1367C31.9715 37.1674 31.8809 37.1827 31.7896 37.1827H21.5687C21.1283 37.1827 20.7714 36.8257 20.7714 36.3853C20.7714 35.9449 21.1283 35.588 21.5687 35.588H31.6517L42.2186 31.8269C45.5499 30.3034 47.5933 31.2735 48.3964 32.6934C49.2233 34.1559 48.7679 36.0515 47.3598 37.009C44.7541 38.7813 37.9441 41.2522 32.9724 43.0562C30.9893 43.7759 29.2766 44.3974 28.6646 44.6841C28.5591 44.7348 28.4435 44.7604 28.3266 44.7604L28.3273 44.7605Z" fill="#111111"/>
<path fill-rule="evenodd" clip-rule="evenodd" d="M11.592 43.5855H3.1626C2.7222 43.5855 2.36523 43.2285 2.36523 42.7881V25.3882C2.36523 24.9478 2.7222 24.5908 3.1626 24.5908H11.592C12.0324 24.5908 12.3893 24.9478 12.3893 25.3882V42.7881C12.389 43.2285 12.0324 43.5855 11.592 43.5855ZM3.95965 41.9911H10.7943L10.7946 26.186H3.95964L3.95965 41.9911Z" fill="#111111"/>
<path fill-rule="evenodd" clip-rule="evenodd" d="M29.8387 24.7086C23.0265 24.7086 17.4844 19.1666 17.4844 12.3543C17.4844 5.54214 23.0267 0 29.8387 0C36.6508 0 42.193 5.54232 42.193 12.3543C42.193 19.1665 36.6507 24.7086 29.8387 24.7086ZM29.8387 1.59393C23.9055 1.59393 19.0792 6.42089 19.0792 12.3543C19.0792 18.2874 23.9062 23.1138 29.8387 23.1138C35.7718 23.1138 40.599 18.2868 40.599 12.3543C40.599 6.42117 35.7717 1.59393 29.8387 1.59393Z" fill="#111111"/>
<path fill-rule="evenodd" clip-rule="evenodd" d="M24.1137 18.8767C23.9097 18.8767 23.7057 18.7989 23.5499 18.6431C23.2386 18.3318 23.2386 17.8268 23.5499 17.5155L35.0013 6.06405C35.3127 5.75274 35.8176 5.75274 36.1289 6.06405C36.4403 6.37537 36.4403 6.88032 36.1289 7.19167L24.6775 18.6431C24.5217 18.7986 24.3177 18.8767 24.1137 18.8767H24.1137Z" fill="#111111"/>
<path fill-rule="evenodd" clip-rule="evenodd" d="M26.1803 11.4905C25.4646 11.4905 24.7489 11.2181 24.2041 10.6732C23.1143 9.58339 23.1143 7.81044 24.2041 6.72062C24.7319 6.19285 25.4337 5.90186 26.1803 5.90186C26.9267 5.90186 27.6285 6.19249 28.1566 6.72062C29.2464 7.81044 29.2464 9.58339 28.1566 10.6732C27.6117 11.2181 26.896 11.4905 26.1803 11.4905ZM26.1803 7.49659C25.8597 7.49659 25.5581 7.62141 25.3316 7.84821C24.8638 8.31607 24.8638 9.0778 25.3316 9.54566C25.7995 10.0135 26.5612 10.0139 27.0291 9.54566C27.4969 9.0778 27.4973 8.31607 27.0291 7.84821C26.8023 7.62141 26.5009 7.49659 26.1804 7.49659H26.1803Z" fill="#111111"/>
<path fill-rule="evenodd" clip-rule="evenodd" d="M33.4981 18.804C32.7824 18.804 32.0667 18.5316 31.5219 17.9867C30.9941 17.459 30.7031 16.7571 30.7031 16.0105C30.7031 15.2637 30.9938 14.562 31.5219 14.0342C32.0497 13.5065 32.7518 13.2158 33.4981 13.2158C34.2445 13.2158 34.9463 13.5065 35.4744 14.0346C36.5642 15.1244 36.5642 16.8974 35.4744 17.9872C34.9295 18.5317 34.2138 18.8041 33.4981 18.8041V18.804ZM33.4981 14.8101C33.1776 14.8101 32.8762 14.9349 32.6494 15.1617C32.4226 15.3885 32.2978 15.6898 32.2978 16.0104C32.2978 16.331 32.4226 16.6323 32.6494 16.8591C33.1173 17.327 33.879 17.3274 34.3469 16.8591C34.8147 16.3913 34.8151 15.6296 34.3469 15.1617C34.1201 14.9349 33.8187 14.8101 33.4982 14.8101L33.4981 14.8101ZM32.0856 14.5979H32.0867H32.0856Z" fill="#111111"/>
<path d="M0.0452717 48.0593C0.0431321 48.0603 0.0409924 48.0614 0.0381396 48.0621C0.0352868 48.0628 0.032434 48.0636 0.0295812 48.0636C0.0217359 48.0636 0.015674 48.0614 0.0110383 48.0564C0.00604582 48.0518 0.00390625 48.0457 0.00390625 48.0379C0.00390625 48.0304 0.00604591 48.0243 0.0110383 48.0193C0.0156741 48.0147 0.0217366 48.0122 0.0295812 48.0122C0.032434 48.0122 0.0352868 48.0129 0.0381396 48.0136C0.0409924 48.0147 0.0431321 48.0158 0.0452717 48.0165V48.0265C0.0431321 48.0247 0.0409924 48.0236 0.0381396 48.0236C0.036 48.0229 0.0338604 48.0222 0.0310076 48.0222C0.0270849 48.0222 0.0238755 48.0236 0.0210222 48.0265C0.0188826 48.0293 0.0181694 48.0332 0.0181694 48.0379C0.0181694 48.0429 0.0188826 48.0464 0.0210222 48.0493C0.0238751 48.0521 0.0270845 48.0536 0.0310076 48.0536H0.0381396C0.0409924 48.0529 0.0431321 48.0514 0.0452717 48.0493V48.0593Z" fill="#111111"/>
<path d="M0.0789431 48.0366C0.0789431 48.0358 0.0782151 48.0351 0.077487 48.0351C0.076395 48.0344 0.075303 48.0336 0.0745749 48.0336C0.0705708 48.0336 0.0676587 48.0351 0.0658387 48.038C0.0647467 48.0402 0.0643827 48.0424 0.0643827 48.0453V48.0628H0.0527344V48.0264H0.0643827V48.0322C0.0662027 48.0293 0.0676587 48.0275 0.0687508 48.0264C0.0705708 48.0256 0.0731189 48.0249 0.076031 48.0249H0.077487H0.0789431V48.0366Z" fill="#111111"/>
<path d="M0.121345 48.0443V48.0487H0.0936796C0.0944075 48.0516 0.0954996 48.0538 0.0965916 48.0545C0.0984117 48.0556 0.10096 48.056 0.103872 48.056C0.106784 48.056 0.108968 48.0556 0.111152 48.0545C0.114064 48.0538 0.116976 48.0527 0.119888 48.0516V48.0618C0.116976 48.0618 0.114064 48.0625 0.111152 48.0632C0.108968 48.064 0.106784 48.0647 0.103872 48.0647C0.0958637 48.0647 0.0900392 48.0629 0.0863994 48.0589C0.0834873 48.0552 0.0820312 48.0509 0.0820312 48.0458C0.0820312 48.0392 0.0834873 48.0341 0.0863994 48.0312C0.0900395 48.0276 0.0954996 48.0254 0.102416 48.0254C0.10824 48.0254 0.112609 48.0276 0.11552 48.0312C0.11916 48.0341 0.121344 48.0385 0.121344 48.0443L0.121345 48.0443ZM0.109696 48.0414C0.109696 48.0385 0.108604 48.0367 0.106784 48.0356C0.105692 48.0349 0.104236 48.0341 0.102416 48.0341C0.100232 48.0341 0.0984121 48.0349 0.0965921 48.0356C0.0955 48.0367 0.094408 48.0385 0.09368 48.0414H0.109696Z" fill="#111111"/>
<path d="M0.147592 48.0453C0.145408 48.0453 0.143587 48.0464 0.141767 48.0482C0.140675 48.0493 0.140311 48.0504 0.140311 48.0511C0.140311 48.0522 0.140675 48.0533 0.141767 48.054C0.142495 48.0551 0.143951 48.0555 0.146135 48.0555C0.149048 48.0555 0.150868 48.0551 0.15196 48.054C0.15378 48.0522 0.154872 48.0504 0.154872 48.0482V48.0453H0.147592ZM0.165064 48.0424V48.0628H0.154871V48.0569C0.152687 48.0598 0.150867 48.062 0.149047 48.0628C0.146863 48.0635 0.144679 48.0642 0.141767 48.0642C0.137763 48.0642 0.134487 48.0631 0.131574 48.0613C0.12939 48.0584 0.128662 48.0551 0.128662 48.0511C0.128662 48.0475 0.130118 48.0446 0.13303 48.0424C0.135942 48.0406 0.14031 48.0395 0.146134 48.0395H0.15487V48.038C0.15487 48.0362 0.153778 48.0351 0.151958 48.0351C0.150866 48.0344 0.148318 48.0336 0.144678 48.0336H0.137398C0.135214 48.0336 0.133394 48.0344 0.131574 48.0351V48.0264H0.138854C0.141766 48.0256 0.14395 48.0249 0.146134 48.0249C0.153778 48.0249 0.15851 48.0264 0.160694 48.0293C0.163607 48.0322 0.165063 48.0366 0.165063 48.0424L0.165064 48.0424Z" fill="#111111"/>
<path d="M0.189347 48.0146V48.0263H0.200996V48.0336H0.189347V48.0496V48.054H0.193716H0.19954V48.0627H0.190803C0.185707 48.0627 0.182067 48.062 0.179155 48.0598C0.176971 48.058 0.176243 48.0547 0.176243 48.0496V48.0336H0.171875V48.0263H0.176243V48.0146L0.189347 48.0146Z" fill="#111111"/>
<path d="M0.244392 48.0443V48.0487H0.216726C0.217454 48.0516 0.218546 48.0538 0.219639 48.0545C0.221459 48.0556 0.224007 48.056 0.226919 48.056C0.229831 48.056 0.232015 48.0556 0.234199 48.0545C0.237111 48.0538 0.240023 48.0527 0.242935 48.0516V48.0618C0.240023 48.0618 0.237111 48.0625 0.234199 48.0632C0.232015 48.064 0.229831 48.0647 0.226919 48.0647C0.218911 48.0647 0.213086 48.0629 0.209446 48.0589C0.206534 48.0552 0.205078 48.0509 0.205078 48.0458C0.205078 48.0392 0.206534 48.0341 0.209446 48.0312C0.213086 48.0276 0.218546 48.0254 0.225463 48.0254C0.231287 48.0254 0.235656 48.0276 0.238567 48.0312C0.242207 48.0341 0.244391 48.0385 0.244391 48.0443L0.244392 48.0443ZM0.232743 48.0414C0.232743 48.0385 0.231651 48.0367 0.229831 48.0356C0.228739 48.0349 0.227283 48.0341 0.225463 48.0341C0.223279 48.0341 0.221459 48.0349 0.219639 48.0356C0.218547 48.0367 0.217455 48.0385 0.216727 48.0414H0.232743Z" fill="#111111"/>
<path d="M0.277102 48.0303V48.0117H0.288513V48.0616H0.277102V48.0559C0.276032 48.0588 0.274249 48.0609 0.271396 48.0616C0.269257 48.0624 0.267473 48.0631 0.26569 48.0631C0.260698 48.0631 0.257132 48.0613 0.254279 48.0574C0.251426 48.0538 0.25 48.0495 0.25 48.0445C0.25 48.0381 0.251426 48.0331 0.254279 48.0303C0.257132 48.0267 0.260698 48.0246 0.26569 48.0246C0.267473 48.0246 0.269257 48.0253 0.271396 48.026C0.274249 48.0271 0.276032 48.0285 0.277102 48.0303V48.0303ZM0.26997 48.0545C0.271753 48.0545 0.273179 48.0538 0.274249 48.0517C0.276032 48.0499 0.277102 48.0474 0.277102 48.0445C0.277102 48.041 0.276032 48.0381 0.274249 48.036C0.273179 48.0342 0.271753 48.0331 0.26997 48.0331C0.267117 48.0331 0.264621 48.0342 0.262838 48.036C0.261768 48.0381 0.261411 48.041 0.261411 48.0445C0.261411 48.0474 0.261768 48.0499 0.262838 48.0517C0.264621 48.0538 0.267117 48.0545 0.26997 48.0545Z" fill="#111111"/>
<path d="M0.3391 48.056C0.341953 48.056 0.343736 48.0553 0.344806 48.0531C0.345519 48.0513 0.346232 48.0488 0.346232 48.046C0.346232 48.0424 0.345519 48.0396 0.344806 48.0374C0.343736 48.0357 0.341953 48.0346 0.3391 48.0346C0.336247 48.0346 0.334108 48.0357 0.333394 48.0374C0.332324 48.0396 0.331968 48.0424 0.331968 48.046C0.331968 48.0488 0.332324 48.0513 0.333394 48.0531C0.334108 48.0553 0.336247 48.056 0.3391 48.056ZM0.331968 48.0317C0.333751 48.0299 0.335534 48.0285 0.337674 48.0274C0.339457 48.0267 0.34124 48.026 0.343379 48.026C0.348015 48.026 0.351938 48.0282 0.35479 48.0317C0.357643 48.0346 0.35907 48.0396 0.35907 48.046C0.35907 48.051 0.357643 48.0553 0.35479 48.0588C0.351938 48.0628 0.348015 48.0645 0.343379 48.0645C0.34124 48.0645 0.339457 48.0638 0.337674 48.0631C0.335534 48.0624 0.333751 48.0603 0.331968 48.0574V48.0631H0.320557V48.0132H0.331968V48.0317Z" fill="#111111"/>
<path d="M0.365234 48.0264H0.376646L0.385204 48.0506L0.393763 48.0264H0.4066L0.390909 48.0649C0.388769 48.0695 0.386986 48.0724 0.385203 48.0734C0.383064 48.0752 0.380211 48.0763 0.376645 48.0763H0.369513V48.0677H0.373792H0.378071C0.378784 48.0677 0.379854 48.0663 0.380924 48.0635L0.365234 48.0264Z" fill="#111111"/>
<path d="M0.478712 48.0598C0.474789 48.0608 0.47158 48.0619 0.468727 48.0626C0.465874 48.0633 0.461951 48.064 0.457316 48.064C0.44947 48.064 0.443408 48.0619 0.438773 48.0569C0.43378 48.0523 0.431641 48.0462 0.431641 48.0384C0.431641 48.0309 0.43378 48.0248 0.438773 48.0198C0.443408 48.0152 0.450184 48.0127 0.458742 48.0127C0.462308 48.0127 0.465161 48.0134 0.467301 48.0141C0.470154 48.0152 0.473006 48.0163 0.475859 48.017V48.027C0.473006 48.0252 0.470154 48.0241 0.467301 48.0241C0.465161 48.0234 0.463022 48.0227 0.460169 48.0227C0.455176 48.0227 0.45161 48.0241 0.448758 48.027C0.446618 48.0298 0.445905 48.0337 0.445905 48.0384C0.445905 48.0434 0.446618 48.0469 0.448758 48.0498C0.45161 48.0526 0.455176 48.0541 0.460169 48.0541H0.463022C0.463735 48.0541 0.464805 48.0537 0.465874 48.0526V48.0441H0.458742V48.0355H0.478712V48.0598Z" fill="#111111"/>
<path d="M0.516443 48.037C0.516443 48.0363 0.515715 48.0356 0.514987 48.0356C0.513895 48.0349 0.512803 48.0341 0.512075 48.0341C0.508071 48.0341 0.505159 48.0356 0.503339 48.0385C0.502247 48.0407 0.501883 48.0429 0.501883 48.0458V48.0632H0.490234V48.0268H0.501883V48.0327C0.503703 48.0298 0.505159 48.0279 0.506251 48.0268C0.508071 48.0261 0.510619 48.0254 0.513531 48.0254H0.514987H0.516443V48.037Z" fill="#111111"/>
<path d="M0.538461 48.0458C0.536277 48.0458 0.534457 48.0469 0.532637 48.0487C0.531544 48.0498 0.53118 48.0509 0.53118 48.0516C0.53118 48.0527 0.531544 48.0538 0.532637 48.0545C0.533365 48.0556 0.534821 48.056 0.537005 48.056C0.539917 48.056 0.541737 48.0556 0.542829 48.0545C0.544649 48.0527 0.545741 48.0509 0.545741 48.0487V48.0458H0.538461ZM0.555933 48.0429V48.0632H0.54574V48.0574C0.543556 48.0603 0.541736 48.0625 0.539916 48.0632C0.537732 48.064 0.535548 48.0647 0.532636 48.0647C0.528632 48.0647 0.525356 48.0636 0.522443 48.0618C0.520259 48.0589 0.519531 48.0556 0.519531 48.0516C0.519531 48.048 0.520987 48.045 0.523899 48.0429C0.526811 48.041 0.53118 48.04 0.537003 48.04H0.545739V48.0385C0.545739 48.0367 0.544647 48.0356 0.542827 48.0356C0.541735 48.0349 0.539187 48.0341 0.535547 48.0341H0.528267C0.526083 48.0341 0.524263 48.0349 0.522443 48.0356V48.0268H0.529723C0.532635 48.0261 0.534819 48.0254 0.537003 48.0254C0.544647 48.0254 0.549379 48.0268 0.551564 48.0298C0.554476 48.0327 0.555932 48.037 0.555932 48.0429L0.555933 48.0429Z" fill="#111111"/>
<path d="M0.579771 48.0563V48.0748H0.568359V48.0263H0.579771V48.0306C0.581554 48.0288 0.583337 48.0274 0.585476 48.0263C0.587259 48.0256 0.589042 48.0249 0.591182 48.0249C0.595818 48.0249 0.59974 48.027 0.602593 48.0306C0.605446 48.0335 0.606872 48.0385 0.606872 48.0449C0.606872 48.0499 0.605446 48.0541 0.602593 48.0577C0.59974 48.0616 0.595818 48.0634 0.591182 48.0634C0.589042 48.0634 0.587259 48.0627 0.585476 48.062C0.583337 48.0613 0.581554 48.0591 0.579771 48.0563V48.0563ZM0.586903 48.0335C0.58405 48.0335 0.58191 48.0345 0.581197 48.0363C0.580127 48.0385 0.579771 48.0413 0.579771 48.0449C0.579771 48.0477 0.580127 48.0502 0.581197 48.052C0.58191 48.0541 0.58405 48.0549 0.586903 48.0549C0.589756 48.0549 0.591539 48.0541 0.592608 48.052C0.593322 48.0502 0.594035 48.0477 0.594035 48.0449C0.594035 48.0413 0.593322 48.0385 0.592608 48.0363C0.591539 48.0345 0.589756 48.0335 0.586903 48.0335Z" fill="#111111"/>
<path d="M0.652321 48.0407V48.0621H0.639483V48.045V48.0393C0.639483 48.0386 0.63877 48.0375 0.638057 48.0365C0.638057 48.0357 0.637344 48.035 0.636631 48.035C0.636631 48.0343 0.635561 48.0336 0.633778 48.0336C0.631638 48.0336 0.629855 48.0347 0.628072 48.0365C0.627002 48.0386 0.626646 48.0414 0.626646 48.045V48.0621H0.615234V48.0122H0.626646V48.0307C0.628429 48.029 0.630212 48.0275 0.632351 48.0265C0.634134 48.0258 0.635917 48.025 0.638057 48.025C0.642693 48.025 0.645902 48.0265 0.648042 48.0293C0.650895 48.0322 0.652321 48.0361 0.652321 48.0407L0.652321 48.0407Z" fill="#111111"/>
<path d="M0.662109 48.0265H0.673521V48.0621H0.662109V48.0265ZM0.662109 48.0122H0.673521V48.0208H0.662109V48.0122Z" fill="#111111"/>
<path d="M0.692791 48.0438L0.679688 48.0264H0.691336L0.700072 48.0366L0.707352 48.0264H0.720456L0.707352 48.0438L0.720456 48.0628H0.707352L0.700072 48.0511L0.691336 48.0628H0.679688L0.692791 48.0438Z" fill="#111111"/>
<path d="M0.754689 48.0264V48.0366C0.751777 48.0347 0.748865 48.0336 0.745953 48.0336H0.740129H0.734305C0.733213 48.0336 0.732849 48.0347 0.732849 48.0366C0.732849 48.0376 0.733213 48.0387 0.734305 48.0395H0.740129H0.741585C0.747409 48.0406 0.751049 48.042 0.753233 48.0438C0.755053 48.0449 0.756145 48.0478 0.756145 48.0526C0.756145 48.0555 0.754689 48.0584 0.751777 48.0613C0.749593 48.0631 0.745953 48.0642 0.740129 48.0642C0.737217 48.0642 0.734305 48.0635 0.731392 48.0628C0.729208 48.0628 0.727024 48.0624 0.724112 48.0613V48.0526C0.725932 48.0537 0.727752 48.0548 0.729936 48.0555H0.738673H0.743041C0.743769 48.0548 0.744497 48.0537 0.744497 48.0526C0.744497 48.0507 0.743769 48.0497 0.743041 48.0497C0.743041 48.0497 0.741949 48.0493 0.740129 48.0482H0.737217C0.73212 48.0475 0.72848 48.0464 0.725568 48.0453C0.723384 48.0435 0.722656 48.0406 0.722656 48.0366C0.722656 48.0329 0.724112 48.03 0.727024 48.0278C0.729936 48.026 0.734305 48.0249 0.740128 48.0249C0.741948 48.0249 0.743768 48.0256 0.745952 48.0264H0.754689L0.754689 48.0264Z" fill="#111111"/>
<path d="M0.791546 48.0723V48.0781H0.758057V48.0723H0.791546Z" fill="#111111"/>
<path d="M0.828629 48.0522H0.808659L0.805806 48.0622H0.792969L0.811512 48.0137H0.825776L0.842893 48.0622H0.831481L0.828629 48.0522ZM0.811512 48.0451H0.824349L0.818643 48.0251L0.811512 48.0451Z" fill="#111111"/>
<path d="M0.876062 48.037C0.876062 48.0363 0.875334 48.0356 0.874606 48.0356C0.873514 48.0349 0.872422 48.0341 0.871694 48.0341C0.86769 48.0341 0.864778 48.0356 0.862958 48.0385C0.861866 48.0407 0.861502 48.0429 0.861502 48.0458V48.0632H0.849854V48.0268H0.861502V48.0327C0.863322 48.0298 0.864778 48.0279 0.86587 48.0268C0.86769 48.0261 0.870238 48.0254 0.87315 48.0254H0.874606H0.876062V48.037Z" fill="#111111"/>
<path d="M0.894426 48.0146V48.0263H0.906074V48.0336H0.894426V48.0496V48.054H0.898794H0.904618V48.0627H0.895882C0.890785 48.0627 0.887145 48.062 0.884233 48.0598C0.882049 48.058 0.881321 48.0547 0.881321 48.0496V48.0336H0.876953V48.0263H0.881321V48.0146L0.894426 48.0146Z" fill="#111111"/>
<path d="M0.0271018 48.0779V48.085H0.0213961C0.0192565 48.085 0.0178302 48.0857 0.0171169 48.0864V48.0893V48.0921H0.0271022V48.0993H0.0171169V48.1278H0.00570564V48.0993H0V48.0921H0.00570564V48.0893C0.00570564 48.0857 0.00641884 48.0829 0.00855845 48.0807C0.0103414 48.079 0.0135508 48.0779 0.0185438 48.0779H0.0271018Z" fill="#111111"/>
<path d="M0.0594118 48.103C0.0594118 48.1022 0.0586838 48.1015 0.0579558 48.1015C0.0568637 48.1008 0.0557718 48.1 0.0550437 48.1C0.0510396 48.1 0.0481275 48.1015 0.0463075 48.1044C0.0452154 48.1066 0.0448514 48.1088 0.0448514 48.1117V48.1292H0.0332031V48.0928H0.0448514V48.0986C0.0466715 48.0957 0.0481275 48.0939 0.0492195 48.0928C0.0510396 48.092 0.0535877 48.0913 0.0564997 48.0913H0.0579558H0.0594118V48.103Z" fill="#111111"/>
<path d="M0.0831291 48.1003C0.0802171 48.1003 0.077669 48.1014 0.0758489 48.1032C0.0747569 48.1043 0.0743929 48.1072 0.0743929 48.1119C0.0743929 48.1148 0.0747569 48.1174 0.0758489 48.1192C0.077669 48.1214 0.0802171 48.1221 0.0831291 48.1221C0.0860412 48.1221 0.0878612 48.1214 0.0889533 48.1192C0.0907733 48.1174 0.0918654 48.1148 0.0918654 48.1119C0.0918654 48.1072 0.0907733 48.1043 0.0889533 48.1032C0.0878612 48.1014 0.0860412 48.1003 0.0831291 48.1003ZM0.0831291 48.0916C0.0889533 48.0916 0.0936853 48.0937 0.0976895 48.0974C0.10133 48.1003 0.103514 48.1054 0.103514 48.1119C0.103514 48.117 0.10133 48.1214 0.0976895 48.125C0.0936854 48.129 0.0889533 48.1309 0.0831291 48.1309C0.0762129 48.1309 0.070753 48.129 0.0671123 48.125C0.0642002 48.1214 0.0627441 48.117 0.0627441 48.1119C0.0627441 48.1054 0.0642002 48.1003 0.0671123 48.0974C0.0707524 48.0937 0.0762125 48.0916 0.0831291 48.0916Z" fill="#111111"/>
<path d="M0.144135 48.0984C0.145918 48.0967 0.147701 48.0952 0.14984 48.0942C0.151623 48.0924 0.153406 48.0913 0.155546 48.0913C0.160182 48.0913 0.163391 48.0927 0.165531 48.0956C0.168384 48.0984 0.16981 48.1024 0.16981 48.107V48.1284H0.156973V48.1099V48.1084C0.156973 48.1056 0.15626 48.1038 0.155547 48.1027C0.155547 48.1009 0.154477 48.0999 0.152694 48.0999C0.150554 48.0999 0.148771 48.1009 0.146988 48.1027C0.145919 48.1049 0.145562 48.1077 0.145562 48.1113V48.1284H0.134151V48.1099C0.134151 48.1063 0.133438 48.1038 0.132724 48.1027C0.132724 48.1009 0.131654 48.0999 0.129871 48.0999C0.127019 48.0999 0.124879 48.1009 0.124166 48.1027C0.123096 48.1049 0.122739 48.1077 0.122739 48.1113V48.1284H0.111328V48.0927H0.122739V48.097L0.127019 48.0927C0.128802 48.092 0.131298 48.0913 0.134151 48.0913C0.135934 48.0913 0.137717 48.0924 0.139856 48.0942C0.141639 48.0952 0.143066 48.0967 0.144136 48.0984L0.144135 48.0984Z" fill="#111111"/>
<path d="M0.216447 48.0808V48.0925H0.228095V48.0997H0.216447V48.1158V48.1201H0.220815H0.226639V48.1289H0.217903C0.212807 48.1289 0.209167 48.1281 0.206255 48.1259C0.204071 48.1241 0.203343 48.1209 0.203343 48.1158V48.0997H0.198975V48.0925H0.203343V48.0808L0.216447 48.0808Z" fill="#111111"/>
<path d="M0.273414 48.1062V48.1276H0.260577V48.1104V48.1047C0.260577 48.104 0.259864 48.103 0.259151 48.1019C0.259151 48.1012 0.258438 48.1005 0.257724 48.1005C0.257724 48.0997 0.256654 48.099 0.254871 48.099C0.252732 48.099 0.250949 48.1001 0.249166 48.1019C0.248096 48.104 0.247739 48.1069 0.247739 48.1104V48.1276H0.236328V48.0776H0.247739V48.0962C0.249522 48.0944 0.251305 48.093 0.253445 48.0919C0.255228 48.0912 0.257011 48.0905 0.259151 48.0905C0.263786 48.0905 0.266996 48.0919 0.269136 48.0948C0.271989 48.0976 0.273415 48.1015 0.273415 48.1062L0.273414 48.1062Z" fill="#111111"/>
<path d="M0.31861 48.1097V48.1141H0.290945C0.291673 48.117 0.292765 48.1192 0.293857 48.1199C0.295677 48.121 0.298225 48.1214 0.301137 48.1214C0.30405 48.1214 0.306234 48.121 0.308418 48.1199C0.31133 48.1192 0.314242 48.1181 0.317154 48.117V48.1272C0.314242 48.1272 0.31133 48.1279 0.308418 48.1287C0.306234 48.1294 0.30405 48.1301 0.301137 48.1301C0.293129 48.1301 0.287305 48.1283 0.283665 48.1243C0.280753 48.1207 0.279297 48.1163 0.279297 48.1112C0.279297 48.1047 0.280753 48.0996 0.283665 48.0966C0.287305 48.093 0.292765 48.0908 0.299682 48.0908C0.305506 48.0908 0.309875 48.093 0.312786 48.0966C0.316426 48.0996 0.31861 48.1039 0.31861 48.1097L0.31861 48.1097ZM0.306962 48.1068C0.306962 48.1039 0.30587 48.1021 0.30405 48.101C0.302958 48.1003 0.301502 48.0996 0.299682 48.0996C0.297498 48.0996 0.295678 48.1003 0.293858 48.101C0.292766 48.1021 0.291674 48.1039 0.290946 48.1068H0.306962Z" fill="#111111"/>
<path d="M0.349609 48.0806H0.363873L0.38099 48.1134V48.0806H0.393828V48.1291H0.379564L0.361021 48.0963V48.1291H0.349609V48.0806Z" fill="#111111"/>
<path d="M0.424682 48.1005C0.42177 48.1005 0.419222 48.1016 0.417402 48.1034C0.41631 48.1045 0.415946 48.1074 0.415946 48.1122C0.415946 48.1151 0.41631 48.1176 0.417402 48.1195C0.419222 48.1216 0.42177 48.1224 0.424682 48.1224C0.427594 48.1224 0.429414 48.1216 0.430506 48.1195C0.432326 48.1176 0.433418 48.1151 0.433418 48.1122C0.433418 48.1074 0.432326 48.1045 0.430506 48.1034C0.429414 48.1016 0.427594 48.1005 0.424682 48.1005ZM0.424682 48.0918C0.430506 48.0918 0.435238 48.094 0.439242 48.0976C0.442882 48.1005 0.445066 48.1056 0.445066 48.1122C0.445066 48.1173 0.442882 48.1216 0.439242 48.1253C0.435238 48.1293 0.430506 48.1311 0.424682 48.1311C0.417766 48.1311 0.412306 48.1293 0.408665 48.1253C0.405753 48.1216 0.404297 48.1173 0.404297 48.1122C0.404297 48.1056 0.405753 48.1005 0.408665 48.0976C0.412305 48.094 0.417765 48.0918 0.424682 48.0918Z" fill="#111111"/>
<path d="M0.451172 48.1141V48.0923H0.46282V48.0952V48.1039V48.1083V48.1156V48.1185C0.463548 48.1185 0.464276 48.1192 0.464276 48.1199H0.468644C0.470464 48.1199 0.47192 48.1196 0.473012 48.1185C0.474832 48.1167 0.475925 48.1138 0.475925 48.1098V48.0923H0.487573V48.1287H0.475925V48.1229C0.473741 48.1258 0.47192 48.128 0.4701 48.1287C0.467916 48.1294 0.465732 48.1301 0.46282 48.1301C0.458816 48.1301 0.455904 48.1287 0.454084 48.1258C0.4519 48.1229 0.451172 48.1192 0.451172 48.1141V48.1141Z" fill="#111111"/>
<path d="M0.535903 48.1073V48.1292H0.5228V48.1117V48.1059C0.5228 48.1051 0.522071 48.104 0.521343 48.103C0.521343 48.1022 0.520616 48.1015 0.519887 48.1015C0.519887 48.1008 0.518795 48.1 0.516975 48.1C0.514791 48.1 0.512971 48.1011 0.511151 48.103C0.510059 48.1051 0.509695 48.1081 0.509695 48.1117V48.1292H0.498047V48.0928H0.509695V48.0971C0.511515 48.0953 0.513335 48.0939 0.515519 48.0928C0.517339 48.092 0.519159 48.0913 0.521343 48.0913C0.526076 48.0913 0.529352 48.0928 0.531536 48.0957C0.534448 48.0986 0.535904 48.1026 0.535904 48.1073L0.535903 48.1073Z" fill="#111111"/>
<path d="M0.568359 48.0801H0.589756C0.595462 48.0801 0.599741 48.0815 0.602593 48.0844C0.606159 48.0872 0.608299 48.0915 0.608299 48.0972C0.608299 48.1022 0.606159 48.1058 0.602593 48.1086C0.59974 48.1107 0.595461 48.1115 0.589756 48.1115H0.581198V48.1286H0.56836L0.568359 48.0801ZM0.581197 48.0901V48.1029H0.588329C0.590112 48.1029 0.591538 48.1025 0.592608 48.1015C0.594391 48.1008 0.595461 48.0993 0.595461 48.0972C0.595461 48.0943 0.594391 48.0926 0.592608 48.0915C0.591538 48.0908 0.590112 48.0901 0.588329 48.0901L0.581197 48.0901Z" fill="#111111"/>
<path d="M0.641687 48.1032C0.641687 48.1025 0.640959 48.1017 0.640231 48.1017C0.639139 48.101 0.638047 48.1003 0.637319 48.1003C0.633315 48.1003 0.630403 48.1017 0.628583 48.1047C0.627491 48.1068 0.627127 48.109 0.627127 48.1119V48.1294H0.615479V48.093H0.627127V48.0988C0.628947 48.0959 0.630403 48.0941 0.631495 48.093C0.633315 48.0923 0.635863 48.0916 0.638775 48.0916H0.640231H0.641687V48.1032Z" fill="#111111"/>
<path d="M0.664916 48.1005C0.662004 48.1005 0.659456 48.1016 0.657636 48.1034C0.656544 48.1045 0.65618 48.1074 0.65618 48.1122C0.65618 48.1151 0.656544 48.1176 0.657636 48.1195C0.659456 48.1216 0.662004 48.1224 0.664916 48.1224C0.667828 48.1224 0.669648 48.1216 0.67074 48.1195C0.67256 48.1176 0.673652 48.1151 0.673652 48.1122C0.673652 48.1074 0.67256 48.1045 0.67074 48.1034C0.669648 48.1016 0.667828 48.1005 0.664916 48.1005ZM0.664916 48.0918C0.67074 48.0918 0.675472 48.094 0.679477 48.0976C0.683117 48.1005 0.685301 48.1056 0.685301 48.1122C0.685301 48.1173 0.683117 48.1216 0.679477 48.1253C0.675472 48.1293 0.67074 48.1311 0.664916 48.1311C0.658 48.1311 0.65254 48.1293 0.648899 48.1253C0.645987 48.1216 0.644531 48.1173 0.644531 48.1122C0.644531 48.1056 0.645987 48.1005 0.648899 48.0976C0.65254 48.094 0.658 48.0918 0.664916 48.0918Z" fill="#111111"/>
<path d="M0.692924 48.0931H0.704335V48.1274C0.704335 48.132 0.702908 48.1359 0.700056 48.1388C0.697916 48.1416 0.694707 48.143 0.69007 48.143H0.685791V48.1345H0.687217C0.689 48.1345 0.690427 48.1338 0.691497 48.1331C0.69221 48.1331 0.692923 48.1309 0.692923 48.1274L0.692924 48.0931ZM0.692924 48.0789H0.704335V48.0874H0.692924V48.0789Z" fill="#111111"/>
<path d="M0.752204 48.1107V48.1151H0.724539C0.725267 48.118 0.726359 48.1202 0.727451 48.1209C0.729271 48.122 0.731819 48.1224 0.734731 48.1224C0.737643 48.1224 0.739827 48.122 0.742011 48.1209C0.744923 48.1202 0.747836 48.1191 0.750748 48.118V48.1282C0.747836 48.1282 0.744923 48.1289 0.742011 48.1297C0.739827 48.1304 0.737643 48.1311 0.734731 48.1311C0.726723 48.1311 0.720899 48.1293 0.717259 48.1253C0.714347 48.1216 0.712891 48.1173 0.712891 48.1122C0.712891 48.1056 0.714347 48.1005 0.717259 48.0976C0.720899 48.094 0.726359 48.0918 0.733276 48.0918C0.7391 48.0918 0.743468 48.094 0.746379 48.0976C0.75002 48.1005 0.752204 48.1049 0.752204 48.1107L0.752204 48.1107ZM0.740556 48.1078C0.740556 48.1049 0.739464 48.1031 0.737644 48.102C0.736552 48.1013 0.735096 48.1005 0.733276 48.1005C0.731092 48.1005 0.729271 48.1013 0.727451 48.102C0.726359 48.1031 0.725267 48.1049 0.724539 48.1078H0.740556Z" fill="#111111"/>
<path d="M0.791546 48.0925V48.1027C0.788633 48.102 0.786449 48.1013 0.785721 48.1013C0.784629 48.1005 0.782809 48.0998 0.779897 48.0998C0.776985 48.0998 0.774437 48.1009 0.772617 48.1027C0.770433 48.1049 0.769705 48.1078 0.769705 48.1114C0.769705 48.1144 0.770433 48.1169 0.772617 48.1187C0.774437 48.1209 0.776985 48.1216 0.779897 48.1216C0.782809 48.1216 0.784629 48.1213 0.785721 48.1202C0.787541 48.1195 0.789362 48.1187 0.791546 48.1187V48.1275C0.788633 48.1286 0.786085 48.1289 0.784265 48.1289C0.783173 48.1296 0.781717 48.1304 0.779897 48.1304C0.771889 48.1304 0.766065 48.1286 0.762425 48.1246C0.759513 48.1209 0.758057 48.1165 0.758057 48.1114C0.758057 48.1049 0.759513 48.0998 0.762425 48.0969C0.766065 48.0932 0.771889 48.0911 0.779897 48.0911C0.781717 48.0911 0.783173 48.0918 0.784265 48.0925H0.791546V48.0925Z" fill="#111111"/>
<path d="M0.814347 48.0801V48.0917H0.825996V48.099H0.814347V48.115V48.1194H0.818716H0.82454V48.1281H0.815803C0.810707 48.1281 0.807067 48.1274 0.804155 48.1252C0.801971 48.1234 0.801243 48.1201 0.801243 48.115V48.099H0.796875V48.0917H0.801243V48.0801L0.814347 48.0801Z" fill="#111111"/>
</svg>
