<svg width="44" height="44" viewBox="0 0 44 44" fill="none" xmlns="http://www.w3.org/2000/svg">
<path fill-rule="evenodd" clip-rule="evenodd" d="M1.50592 21.8374L19.4214 36.7667C20.8171 37.9299 22.8449 37.9299 24.2406 36.7667L42.1561 21.8374V39.8974C42.1561 41.1449 41.1453 42.1558 39.8978 42.1558H12.7974C12.382 42.1558 12.0446 42.4932 12.0446 42.9086C12.0446 43.324 12.382 43.6614 12.7974 43.6614H39.8978C41.9763 43.6614 43.6617 41.976 43.6617 39.8974V18.8194C43.6617 17.7023 43.1657 16.643 42.3074 15.9279L40.6506 14.5473V3.76394C40.6506 1.68539 38.9652 0 36.8866 0H6.77509C4.69654 0 3.01115 1.68539 3.01115 3.76394V14.5473L1.35433 15.9279C0.496014 16.643 0 17.7023 0 18.8194V39.8974C0 41.976 1.68539 43.6614 3.76394 43.6614H9.78625C10.2016 43.6614 10.539 43.324 10.539 42.9086C10.539 42.4932 10.2016 42.1558 9.78625 42.1558H3.76394C2.51646 42.1558 1.50558 41.1449 1.50558 39.8974L1.50592 21.8374ZM39.1453 22.3862V3.7635C39.1453 2.51603 38.1344 1.50514 36.887 1.50514H6.77544C5.52796 1.50514 4.51707 2.51603 4.51707 3.7635V22.3862L20.385 35.6103C21.2228 36.3083 22.4394 36.3083 23.2772 35.6103L39.1453 22.3862ZM3.0115 21.132V16.507L2.31819 17.0844C1.80334 17.5136 1.50592 18.1494 1.50592 18.8195C1.50592 19.4896 1.80334 20.1255 2.31819 20.5546L3.0115 21.132ZM42.1565 18.8195C42.1565 18.1494 41.8591 17.5135 41.3442 17.0844L40.6509 16.5071V21.132L41.3442 20.5547C41.8591 20.1255 42.1565 19.4897 42.1565 18.8195V18.8195Z" fill="#111111"/>
<path fill-rule="evenodd" clip-rule="evenodd" d="M9.0332 8.27985C9.0332 9.52733 10.0441 10.5382 11.2916 10.5382H20.325C21.5725 10.5382 22.5834 9.52733 22.5834 8.27985C22.5834 7.03237 21.5725 6.02148 20.325 6.02148H11.2916C10.0441 6.02148 9.0332 7.03237 9.0332 8.27985ZM21.0778 8.27985C21.0778 7.86447 20.7404 7.52706 20.325 7.52706H11.2916C10.8762 7.52706 10.5388 7.86447 10.5388 8.27985C10.5388 8.69522 10.8762 9.03264 11.2916 9.03264H20.325C20.7404 9.03264 21.0778 8.69522 21.0778 8.27985Z" fill="#111111"/>
<path fill-rule="evenodd" clip-rule="evenodd" d="M9.0332 14.3023C9.0332 15.5498 10.0441 16.5607 11.2916 16.5607H32.3696C33.6171 16.5607 34.628 15.5498 34.628 14.3023C34.628 13.0548 33.6171 12.0439 32.3696 12.0439H11.2916C10.0441 12.0439 9.0332 13.0548 9.0332 14.3023ZM33.1224 14.3023C33.1224 13.8869 32.785 13.5495 32.3696 13.5495H11.2916C10.8762 13.5495 10.5388 13.8869 10.5388 14.3023C10.5388 14.7177 10.8762 15.0551 11.2916 15.0551H32.3696C32.785 15.0551 33.1224 14.7177 33.1224 14.3023Z" fill="#111111"/>
<path fill-rule="evenodd" clip-rule="evenodd" d="M9.0332 20.3248C9.0332 21.5722 10.0441 22.5831 11.2916 22.5831H32.3696C33.6171 22.5831 34.628 21.5722 34.628 20.3248C34.628 19.0773 33.6171 18.0664 32.3696 18.0664H11.2916C10.0441 18.0664 9.0332 19.0773 9.0332 20.3248ZM33.1224 20.3248C33.1224 19.9094 32.785 19.572 32.3696 19.572H11.2916C10.8762 19.572 10.5388 19.9094 10.5388 20.3248C10.5388 20.7401 10.8762 21.0776 11.2916 21.0776H32.3696C32.785 21.0776 33.1224 20.7401 33.1224 20.3248Z" fill="#111111"/>
</svg>
