<svg width="40" height="42" viewBox="0 0 40 42" fill="none" xmlns="http://www.w3.org/2000/svg">
<path d="M39.6184 39.0531C39.2004 34.0883 36.9329 29.4614 33.2649 26.0895C29.5971 22.7174 24.7961 20.8457 19.8133 20.8457C14.8306 20.8457 10.0301 22.7174 6.36176 26.0895C2.69365 29.4616 0.426245 34.0887 0.00824381 39.0531C-0.0477095 39.7323 0.182982 40.4041 0.644974 40.905C1.10696 41.4062 1.75742 41.691 2.43877 41.6904H37.1903C37.8713 41.6901 38.5212 41.405 38.9823 40.9041C39.4437 40.4029 39.6741 39.732 39.6181 39.0531H39.6184ZM37.5436 39.5821C37.4566 39.6866 37.3255 39.7443 37.1897 39.738H2.43666C2.30201 39.738 2.17365 39.6815 2.08209 39.5824C1.99083 39.4834 1.94504 39.3505 1.95582 39.2162C2.33343 34.7399 4.37827 30.5689 7.68551 27.5287C10.9928 24.4885 15.3212 22.8017 19.8134 22.8017C24.3057 22.8017 28.6338 24.4886 31.9414 27.5287C35.2489 30.5688 37.2934 34.7401 37.6711 39.2162C37.6881 39.3514 37.6412 39.487 37.5436 39.5821L37.5436 39.5821ZM19.814 18.3496C22.2473 18.3496 24.5811 17.3832 26.3016 15.6624C28.0224 13.9419 28.9888 11.608 28.9888 9.17481C28.9888 6.74126 28.0221 4.40774 26.3016 2.68725C24.5808 0.966451 22.2469 0 19.8137 0C17.3802 0.000299273 15.0466 0.966757 13.3261 2.68756C11.6057 4.40836 10.6389 6.74195 10.6392 9.17542C10.6422 11.6078 11.6096 13.9398 13.3297 15.6597C15.0496 17.3796 17.3817 18.3469 19.814 18.3496ZM19.814 1.95435C21.729 1.95435 23.5658 2.71496 24.9201 4.06887C26.2744 5.42314 27.0352 7.25968 27.0352 9.17466C27.0352 11.0899 26.2746 12.9265 24.9204 14.2808C23.5665 15.635 21.7296 16.3956 19.8146 16.3959C17.8997 16.3959 16.0628 15.635 14.7088 14.2811C13.3546 12.9268 12.5937 11.0902 12.5937 9.17496C12.5961 7.26091 13.3576 5.42551 14.711 4.07216C16.0646 2.7185 17.8997 1.95703 19.8141 1.95489L19.814 1.95435Z" fill="#111111"/>
</svg>
