<svg width="32" height="49" viewBox="0 0 32 49" fill="none" xmlns="http://www.w3.org/2000/svg">
<path d="M3.66637 0H17.9457C18.9548 0 19.872 0.413545 20.5373 1.07668C21.2005 1.7419 21.614 2.65917 21.614 3.66617V19.895C23.4584 20.6258 24.3059 22.116 25.1409 23.5858C25.7139 24.5949 26.2811 25.5917 27.1652 26.118C28.0579 26.6503 28.8416 27.2602 29.4129 28.0115C30.0248 28.8201 30.3769 29.7617 30.338 30.8957C30.1945 35.0673 30.5384 36.9854 31.1364 40.3162C31.3307 41.3888 31.5479 42.6049 31.779 44.048C32.1065 44.9263 31.8118 45.7285 31.0974 46.4306C30.5855 46.9343 29.8284 47.3823 28.9461 47.7528C28.1067 48.1069 27.1488 48.3996 26.1889 48.6086C23.4072 49.2123 20.4246 49.0815 19.6119 47.8122C19.5709 47.7467 19.5381 47.6791 19.5156 47.6118C19.45 47.4257 19.364 47.1982 19.2639 46.9404L18.9856 46.2424C17.9437 45.3825 16.8793 44.4533 15.9194 43.4279C14.9943 42.4413 14.1775 41.3728 13.5857 40.206C12.6545 40.0728 12.1528 40.163 11.2725 40.3207C10.8897 40.3904 10.4495 40.4683 10.0257 40.5314C8.70753 40.7298 7.73698 40.0585 7.21525 39.1026C6.99636 38.7055 6.86113 38.2509 6.82015 37.7967C6.77713 37.3299 6.8304 36.8573 6.98817 36.4315L7.02505 36.3434C7.05988 36.2614 7.09676 36.1815 7.13774 36.1019H3.66617C2.65908 36.1019 1.74186 35.6904 1.07668 35.0253C0.413509 34.3621 0 33.4449 0 32.4358V3.66729C0 2.6602 0.413544 1.74298 1.07668 1.0778C1.7419 0.414629 2.65917 0.00111899 3.66617 0.00111899L3.66637 0ZM21.6139 29.8289L23.4091 31.6241C23.8083 32.0212 23.8103 32.666 23.4132 33.0631C23.0181 33.4603 22.3733 33.4623 21.9761 33.0672L19.878 30.9691C18.7993 30.0564 17.659 29.1534 16.4676 28.2571C15.1925 27.2972 13.8371 26.3307 12.4186 25.3564C11.739 24.8876 11.1435 24.8302 10.7115 25.0125C10.5193 25.0945 10.3512 25.2273 10.2181 25.3933C10.0787 25.5654 9.98074 25.77 9.93157 25.9868C9.82297 26.4721 9.96025 27.0389 10.4435 27.5058C11.7288 28.7546 12.8567 29.9109 13.9027 31.1289C14.8565 32.2384 15.743 33.3971 16.621 34.7193C16.8132 34.8627 16.9485 35.0775 16.9833 35.3292C17.014 35.4193 17.0304 35.5174 17.0304 35.6178C17.0304 35.6567 17.0284 35.6977 17.0243 35.7366C17.1636 37.1081 17.3968 38.1478 17.8083 39.0446C18.2506 40.0127 18.924 40.8685 19.931 41.851C20.2974 42.2072 20.3056 42.7925 19.9494 43.1609C19.5933 43.5253 19.0079 43.5335 18.6395 43.1773C17.4706 42.0351 16.6763 41.0136 16.1258 39.8119C15.6877 38.8582 15.4196 37.8204 15.2496 36.5511L9.52012 36.5941C9.10863 36.5982 8.85695 36.7822 8.74426 37.0281L8.72992 37.0752C8.6664 37.2453 8.64591 37.4375 8.6623 37.6298C8.68074 37.8344 8.74221 38.0393 8.83851 38.2172C9.01471 38.5344 9.33195 38.7595 9.75748 38.6963C10.2977 38.6164 10.646 38.5529 10.9448 38.4999C12.1875 38.2769 12.8117 38.1643 14.3836 38.459C14.6722 38.5143 14.93 38.7045 15.0591 38.9934C15.5689 40.1397 16.3547 41.1918 17.2679 42.1641C18.1888 43.1487 19.2513 44.0679 20.2955 44.9254C20.4348 45.0238 20.5472 45.1628 20.6168 45.3328L20.9894 46.264L21.2206 46.878C21.6956 47.3674 23.7527 47.2383 25.7975 46.794C26.6676 46.6059 27.5128 46.3497 28.2272 46.0489C28.9027 45.7644 29.4576 45.4431 29.7994 45.1095C29.9776 44.9333 30.0716 44.7799 30.0388 44.6713C30.0039 44.5976 29.9814 44.5177 29.9671 44.434C29.7256 42.9253 29.5084 41.7096 29.3162 40.6411C28.696 37.1879 28.3379 35.1961 28.487 30.8359C28.5116 30.1646 28.303 29.6076 27.9407 29.1289C27.5353 28.5944 26.9255 28.13 26.2152 27.7063C24.9134 26.9304 24.2256 25.7209 23.5314 24.4987C22.997 23.5613 22.4588 22.6134 21.6133 22.0014V29.829L21.6139 29.8289ZM10.806 6.18241C14.3883 6.18241 17.2929 9.08504 17.2929 12.6673C17.2929 16.2495 14.3882 19.1542 10.806 19.1542C7.22378 19.1542 4.32115 16.2495 4.32115 12.6673C4.32115 9.08504 7.22378 6.18241 10.806 6.18241ZM7.02333 12.9251L8.9722 15.3384C9.32427 15.7765 9.96487 15.8441 10.403 15.492L14.5197 11.3512C14.9148 10.954 14.9127 10.3093 14.5156 9.91413C14.1184 9.51903 13.4737 9.51903 13.0765 9.91823L9.84433 13.177L8.60985 11.6499C8.25573 11.2117 7.61509 11.1421 7.17904 11.4941C6.74091 11.8462 6.67124 12.4868 7.02332 12.925L7.02333 12.9251ZM19.7553 28.4703V3.66722C19.7553 3.17172 19.5528 2.71757 19.2229 2.39009C18.8954 2.0626 18.443 1.85771 17.9458 1.85771H3.66647C3.17097 1.85771 2.71682 2.06226 2.38934 2.39009C2.06185 2.71758 1.85696 3.17209 1.85696 3.66722V32.4357C1.85696 32.9332 2.06151 33.3854 2.38934 33.7128C2.71683 34.0403 3.17134 34.2452 3.66647 34.2452H14.0258C13.5303 33.58 13.025 32.9475 12.4946 32.3332L12.4741 32.3086L12.4679 32.3148L12.4536 32.3271L12.4208 32.3537L12.4106 32.3619L12.3962 32.3722L12.388 32.3783L12.3716 32.3926L12.3655 32.3967L12.3471 32.4111L12.345 32.4131L12.2999 32.4459L12.2958 32.448L12.2774 32.4623L12.2713 32.4664L12.2528 32.4767L12.2303 32.493L12.22 32.5012L12.2077 32.5094L12.1934 32.5176L12.1831 32.5238L12.1668 32.534L12.1606 32.5381L12.1401 32.5504L12.136 32.5525L12.1135 32.5668L12.0889 32.5811L12.0868 32.5832L12.0643 32.5955L12.0397 32.6078L12.0336 32.6119L12.0151 32.6221L12.0049 32.6283L11.9905 32.6344L11.9762 32.6426L11.966 32.6488L11.9496 32.657L11.9393 32.661L11.9209 32.6692L11.9147 32.6733L11.8902 32.6856L11.8635 32.6959L11.8389 32.7082L11.8369 32.7102L11.8123 32.7184L11.8061 32.7225L11.7877 32.7307L11.7775 32.7348L11.7611 32.741L11.7488 32.7451L11.7201 32.7574L11.6894 32.7676L11.6812 32.7696L11.6607 32.7778L11.6545 32.7799L11.6299 32.7901H11.6279L11.5746 32.8065L11.5705 32.8086L11.548 32.8168L11.5398 32.8188L11.5213 32.8229L11.5091 32.827L11.4927 32.8311L11.4783 32.8352L11.466 32.8393L11.4476 32.8434L11.4394 32.8455L11.4168 32.8516L11.4107 32.8536L11.3861 32.8598H11.382L11.3554 32.8659L11.3267 32.8721H11.3246L11.298 32.8782H11.2919L11.2611 32.8844L11.2427 32.8885L11.214 32.8926L11.1976 32.8946L11.1853 32.8967L11.1648 32.9008H11.1566L11.132 32.9049H11.1279L11.1013 32.909H11.0993L11.0706 32.911H11.0685L11.0398 32.9151H11.0357L11.0112 32.9172H11.003L10.9825 32.9192H10.9702L10.9538 32.9213H10.9231L10.9046 32.9233H10.8944L10.8718 32.9254H10.8042C10.096 32.9254 9.45121 32.6368 8.98648 32.17C8.51557 31.7032 8.22701 31.0584 8.22701 30.3481V30.3154L8.22906 30.2846V30.2477L8.2311 30.2211V30.215L8.23315 30.1904V30.1822L8.2352 30.1596V30.1494L8.23725 30.1269L8.2393 30.1166V30.0961L8.24135 30.0838L8.2434 30.0654L8.24545 30.0531L8.2475 30.0347L8.24955 30.0203V30.0039L8.25364 29.9875L8.25569 29.9732L8.25774 29.9547L8.25979 29.9425L8.26184 29.924L8.26389 29.9117L8.26799 29.8912L8.27003 29.883L8.27413 29.8605L8.27618 29.8523L8.28028 29.8277L8.28233 29.8216L8.28643 29.797L8.28847 29.7908L8.29462 29.7662V29.7621L8.30077 29.7335L8.30282 29.7314L8.30896 29.7048V29.7027L8.31716 29.674V29.672L8.32536 29.6433V29.6413L8.33355 29.6146V29.6126L8.34175 29.5859L8.3438 29.5818L8.35404 29.5511L8.36019 29.5286L8.36428 29.5204L8.37043 29.4999L8.37453 29.4917L8.38068 29.4712L8.38477 29.461L8.39092 29.4425L8.39502 29.4323L8.40117 29.4159L8.41961 29.3729L8.4237 29.3606L8.42985 29.3442L8.44419 29.3155L8.44829 29.3052L8.45649 29.2868L8.46058 29.2786L8.46878 29.2581L8.48312 29.2294L8.48517 29.2233L8.49542 29.2028L8.49951 29.1966L8.50976 29.1741L8.5241 29.1454L8.52615 29.1434L8.53844 29.1188L8.54049 29.1167L8.55484 29.0921L8.56918 29.0655V29.0635L8.58352 29.0409L8.58557 29.0368L8.61425 28.9897L8.63474 28.959L8.64703 28.9385L8.66343 28.9139L8.66752 28.9057L8.68597 28.8811L8.70441 28.8545L8.7126 28.8422L8.72285 28.8299L8.73104 28.8176L8.74129 28.8053L8.74948 28.793L8.75973 28.7807L8.76587 28.7705L8.77817 28.7561L8.79661 28.7315L8.80276 28.7254L8.8171 28.707L8.85193 28.666L8.86013 28.6578L8.89701 28.6168L8.89905 28.6148V28.6127L8.91954 28.5902C8.115 27.6712 7.90633 26.5658 8.12525 25.5871C8.23589 25.0875 8.46093 24.621 8.77408 24.2321C9.09132 23.837 9.50691 23.5136 9.9922 23.309C10.9644 22.8975 12.1948 22.9569 13.4699 23.8332C14.8905 24.8075 16.264 25.7903 17.5763 26.7768C18.3276 27.3416 19.0563 27.9068 19.7543 28.4695L19.7553 28.4703ZM11.6535 31.3873C11.0723 30.7507 10.4559 30.1183 9.79885 29.4671L9.78246 29.4835L9.77427 29.4957L9.77017 29.4998L9.76402 29.508L9.75992 29.5121L9.75378 29.5203L9.75173 29.5224L9.74353 29.5326L9.74148 29.5347L9.72509 29.5593H9.72304L9.71485 29.5695V29.5716L9.70665 29.5818L9.7046 29.5859L9.69846 29.5941L9.69641 29.5982L9.69026 29.6064L9.68821 29.6125L9.68207 29.6187L9.67387 29.631L9.66772 29.6433L9.66158 29.6535L9.65953 29.6556L9.65338 29.6679L9.65133 29.6699L9.64518 29.6801V29.6822L9.63699 29.6945L9.63084 29.7068L9.62879 29.7088L9.62265 29.7211L9.6206 29.7232L9.6165 29.7334L9.61445 29.7375L9.6083 29.7478L9.60216 29.7601L9.60011 29.7662L9.58986 29.7867L9.58577 29.7969L9.58372 29.801L9.57962 29.8113L9.57757 29.8133L9.57347 29.8256L9.57142 29.8277L9.56733 29.842L9.56118 29.8564L9.55503 29.8686V29.8727L9.55093 29.883L9.54889 29.8871L9.54479 29.8973L9.54274 29.9035L9.54069 29.9117L9.53864 29.9178L9.53454 29.926L9.53249 29.9342L9.53045 29.9404L9.5284 29.9506L9.52635 29.9547L9.52225 29.9649V29.969L9.51815 29.9813V29.9834L9.50996 30.0121V30.0141L9.50586 30.0264V30.0285L9.50176 30.0408V30.0449L9.49971 30.0571L9.49766 30.0612L9.49561 30.0715V30.0776L9.49152 30.094L9.48947 30.1002L9.48742 30.1104V30.1166L9.48537 30.1268V30.1309L9.48332 30.1432V30.1473L9.47922 30.1596V30.178L9.47717 30.1924V30.1944L9.47512 30.2067V30.2108L9.47307 30.2231V30.2395L9.47103 30.2456V30.262L9.46898 30.2682V30.3153L9.46693 30.3297V30.3481C9.46693 30.7166 9.6165 31.0522 9.85998 31.2957C10.1014 31.5372 10.435 31.6867 10.8055 31.6867H10.867L10.8752 31.6847H10.8957L10.91 31.6826H10.9264L10.9408 31.6806H10.9428L10.9551 31.6786H10.9612L10.9694 31.6765H10.9776L10.9838 31.6745H10.994L11.0002 31.6724L11.0104 31.6704H11.0145L11.0268 31.6683H11.0289L11.0412 31.6663H11.0453L11.0575 31.6642H11.0596L11.0719 31.6601H11.078L11.0842 31.6581L11.0944 31.656H11.0985L11.1088 31.6519H11.1129L11.1252 31.6478H11.1272L11.1416 31.6458L11.1559 31.6417H11.1579L11.1702 31.6376L11.1743 31.6355L11.1907 31.6314L11.1969 31.6294L11.2051 31.6273L11.2112 31.6253L11.2215 31.6212H11.2235L11.2379 31.6171L11.2501 31.6109H11.2522L11.2645 31.6068H11.2686L11.2768 31.6027L11.2829 31.6007L11.2911 31.5966L11.2993 31.5945L11.3034 31.5925L11.3137 31.5884L11.3178 31.5864L11.3301 31.5823V31.5802L11.3444 31.5761L11.3567 31.57L11.3587 31.5679L11.369 31.5638L11.3731 31.5618L11.3833 31.5577L11.4079 31.5454L11.4182 31.5413L11.4202 31.5392L11.4448 31.5269L11.4468 31.5249L11.4571 31.5187H11.4612L11.4694 31.5126L11.4817 31.5064L11.494 31.4982L11.5063 31.4921L11.5165 31.486L11.5186 31.4839L11.5308 31.4757L11.5411 31.4696L11.5431 31.4675L11.5534 31.4614L11.5575 31.4593L11.5657 31.4532L11.5698 31.4491L11.5759 31.445L11.5841 31.4409L11.5882 31.4368L11.5964 31.4306L11.5985 31.4286L11.6087 31.4204H11.6108L11.621 31.4122L11.6333 31.404L11.6353 31.4019L11.6435 31.3958L11.6476 31.3917L11.6538 31.3876L11.6535 31.3873Z" fill="#111111"/>
<path d="M0.00733594 48.9873H0.00586875H0.00440156H0.00146719C0.000366774 48.9866 0 48.9851 0 48.9829C0 48.9822 0.000366792 48.9811 0.00146719 48.98C0.00220078 48.9792 0.00330115 48.9785 0.00440156 48.9785C0.00513516 48.9785 0.00586875 48.9792 0.00586875 48.98H0.00733594V48.9815H0.00586875C0.00586875 48.9807 0.00513516 48.98 0.00440156 48.98L0.00293438 48.9815V48.9829V48.9859H0.00440156H0.00586875H0.00733594V48.9873Z" fill="#111111"/>
<path d="M0.0146954 48.9826H0.0130521C0.0118197 48.9826 0.0114089 48.9834 0.0114089 48.9842V48.9875H0.00976562V48.981H0.0114089V48.9826V48.981H0.0130521H0.0146954V48.9826Z" fill="#111111"/>
<path d="M0.0208611 48.9838H0.0165476V48.9853H0.0179854H0.0208611V48.9867H0.0179854H0.0151097C0.0140313 48.986 0.0136719 48.9849 0.0136719 48.9838C0.0136719 48.9831 0.0140313 48.9824 0.0151097 48.9824C0.0158286 48.9817 0.016907 48.981 0.0179854 48.981C0.0187043 48.981 0.0194233 48.9817 0.0194233 48.9824C0.0201422 48.9824 0.0208611 48.9831 0.0208611 48.9838ZM0.0179854 48.9838V48.9824H0.0165476V48.9838H0.0179854Z" fill="#111111"/>
<path d="M0.0228178 48.9842V48.9859H0.024461V48.9842H0.0228178ZM0.0261043 48.9842V48.9875H0.024461V48.9859C0.024461 48.9871 0.0236394 48.9875 0.0228178 48.9875H0.0195312V48.9859V48.9842C0.0203529 48.9834 0.0215853 48.9826 0.0228178 48.9826H0.024461H0.0228178H0.0211745V48.981H0.0228178C0.0248718 48.981 0.0261043 48.9818 0.0261043 48.9826V48.9842Z" fill="#111111"/>
<path d="M0.0302194 48.9796V48.9811H0.0316573V48.9825H0.0302194V48.9854H0.0316573V48.9868H0.0302194H0.0287816V48.9854V48.9825H0.0273438V48.9811H0.0287816V48.9796H0.0302194Z" fill="#111111"/>
<path d="M0.0384392 48.9838H0.0341257V48.9853H0.0355635H0.0384392V48.9867H0.0355635H0.0326878C0.0316094 48.986 0.03125 48.9849 0.03125 48.9838C0.03125 48.9831 0.0316095 48.9824 0.0326878 48.9824C0.0334068 48.9817 0.0344851 48.981 0.0355635 48.981C0.0362825 48.981 0.0370014 48.9817 0.0370014 48.9824C0.0377203 48.9824 0.0384392 48.9831 0.0384392 48.9838ZM0.0355635 48.9838V48.9824H0.0341257V48.9838H0.0355635Z" fill="#111111"/>
<path d="M0.0434641 48.9815V48.9785H0.0463984V48.9873H0.0434641V48.9859C0.0434641 48.987 0.0427305 48.9873 0.0419969 48.9873H0.0390625V48.9844V48.9829C0.0397961 48.9822 0.0408965 48.9815 0.0419969 48.9815H0.0434641ZM0.0434641 48.9859V48.9844V48.9829H0.0419969V48.9844V48.9859H0.0434641Z" fill="#111111"/>
<path d="M0.0537156 48.9859C0.0544492 48.9859 0.0551828 48.9855 0.0551828 48.9844C0.0551828 48.9837 0.0544492 48.9829 0.0537156 48.9829H0.0522484V48.9844V48.9859H0.0537156ZM0.0522484 48.9815H0.0537156C0.0544492 48.9815 0.0551828 48.9822 0.0551828 48.9829C0.0559164 48.9829 0.05665 48.9837 0.05665 48.9844C0.05665 48.9855 0.0559164 48.9866 0.0551828 48.9873H0.0537156H0.0522484V48.9859V48.9873H0.0507812V48.9785H0.0522484V48.9815Z" fill="#111111"/>
<path d="M0.0585938 48.981H0.0600609L0.0615281 48.9854L0.0629953 48.981H0.0659297L0.0629953 48.9868C0.0629953 48.9876 0.0622617 48.9883 0.0615281 48.9883V48.9898H0.0600609V48.9883H0.0615281V48.9868L0.0585938 48.981Z" fill="#111111"/>
<path d="M0.0678734 48.978H0.0693406V48.9854C0.0693406 48.9865 0.068607 48.9872 0.0678734 48.9883C0.0678734 48.989 0.0671398 48.9898 0.0664062 48.9898V48.9868C0.0671398 48.9868 0.0678734 48.9865 0.0678734 48.9854V48.978Z" fill="#111111"/>
<path d="M0.0794548 48.9838H0.0751413V48.9853H0.0765792H0.0794548V48.9867H0.0765792H0.0737035C0.0726251 48.986 0.0722656 48.9849 0.0722656 48.9838C0.0722656 48.9831 0.0726251 48.9824 0.0737035 48.9824C0.0744224 48.9817 0.0755008 48.981 0.0765792 48.981C0.0772981 48.981 0.078017 48.9817 0.078017 48.9824C0.0787359 48.9824 0.0794548 48.9831 0.0794548 48.9838ZM0.0765792 48.9838V48.9824H0.0751413V48.9838H0.0765792Z" fill="#111111"/>
<path d="M0.0866511 48.9842V48.9875H0.0833646V48.9842V48.9826H0.0817214V48.9842V48.9875H0.0800781V48.981H0.0817214H0.0833646C0.0841863 48.981 0.0850079 48.9818 0.0850079 48.9826C0.0858295 48.9826 0.0866511 48.9834 0.0866511 48.9842Z" fill="#111111"/>
<path d="M0.0859375 48.9815H0.0874047V48.9873H0.0859375V48.9815ZM0.0859375 48.9785H0.0874047V48.98H0.0859375V48.9785Z" fill="#111111"/>
<path d="M0.097033 48.9838H0.0927194V48.9853H0.0941573H0.097033V48.9867H0.0941573H0.0912816C0.0902032 48.986 0.0898438 48.9849 0.0898438 48.9838C0.0898438 48.9831 0.0902032 48.9824 0.0912816 48.9824C0.0920005 48.9817 0.0930789 48.981 0.0941573 48.981C0.0948762 48.981 0.0955951 48.9817 0.0955951 48.9824C0.096314 48.9824 0.097033 48.9831 0.097033 48.9838ZM0.0941573 48.9838V48.9824H0.0927194V48.9838H0.0941573Z" fill="#111111"/>
<path d="M0.0996094 48.9785H0.106945V48.9815H0.104011V48.9873H0.102544V48.9815H0.0996094V48.9785Z" fill="#111111"/>
<path d="M0.109782 48.9824H0.108344V48.9838V48.9853H0.109782C0.110501 48.9853 0.11122 48.9849 0.11122 48.9838C0.11122 48.9831 0.110501 48.9824 0.109782 48.9824ZM0.109782 48.981C0.110501 48.981 0.11122 48.9817 0.11122 48.9824C0.111939 48.9824 0.112658 48.9831 0.112658 48.9838C0.112658 48.9849 0.111939 48.986 0.11122 48.9867H0.109782H0.106907C0.105828 48.986 0.105469 48.9849 0.105469 48.9838C0.105469 48.9831 0.105828 48.9824 0.106907 48.9824C0.107626 48.9817 0.108704 48.981 0.109782 48.981Z" fill="#111111"/>
<path d="M0.119636 48.9824L0.121103 48.981H0.12257V48.9824C0.123304 48.9824 0.124038 48.9832 0.124038 48.9839V48.9868H0.12257V48.9839V48.9824H0.121103V48.9839V48.9868H0.118169V48.9839V48.9824H0.116702V48.9839V48.9868H0.115234V48.981H0.116702H0.118169H0.119636V48.9824Z" fill="#111111"/>
<path d="M0.127934 48.9859C0.128668 48.9859 0.129402 48.9855 0.129402 48.9844C0.129402 48.9837 0.128668 48.9829 0.127934 48.9829H0.126467V48.9844V48.9859H0.127934ZM0.126467 48.9815H0.127934C0.128668 48.9815 0.129402 48.9822 0.129402 48.9829C0.130135 48.9829 0.130869 48.9837 0.130869 48.9844C0.130869 48.9855 0.130135 48.9866 0.129402 48.9873H0.127934H0.126467V48.9859V48.9873H0.125V48.9785H0.126467V48.9815Z" fill="#111111"/>
<path d="M0.135173 48.9824H0.133735V48.9838V48.9853H0.135173C0.135892 48.9853 0.136611 48.9849 0.136611 48.9838C0.136611 48.9831 0.135892 48.9824 0.135173 48.9824ZM0.135173 48.981C0.135892 48.981 0.136611 48.9817 0.136611 48.9824C0.13733 48.9824 0.138049 48.9831 0.138049 48.9838C0.138049 48.9849 0.13733 48.986 0.136611 48.9867H0.135173H0.132297C0.131219 48.986 0.130859 48.9849 0.130859 48.9838C0.130859 48.9831 0.131219 48.9824 0.132297 48.9824C0.133016 48.9817 0.134095 48.981 0.135173 48.981Z" fill="#111111"/>
<path d="M0.145245 48.981V48.9826H0.143602H0.141958V48.9842V48.9859H0.143602H0.145245V48.9875H0.143602H0.140315C0.139083 48.9867 0.138672 48.9855 0.138672 48.9842C0.138672 48.9834 0.139083 48.9826 0.140315 48.9826C0.141137 48.9818 0.142369 48.981 0.143602 48.981H0.145245Z" fill="#111111"/>
<path d="M0.00440156 48.9883V48.9897H0.00293438V48.9912H0.00440156V48.9927H0.00293438V48.9971H0.00146719V48.9927H0V48.9912H0.00146719V48.9897L0.00293438 48.9883H0.00440156Z" fill="#111111"/>
<path d="M0.0107891 48.9929H0.00914588C0.00791341 48.9929 0.00750263 48.9937 0.00750263 48.9945V48.9978H0.00585938V48.9912H0.00750263V48.9929V48.9912H0.00914588H0.0107891V48.9929Z" fill="#111111"/>
<path d="M0.0140792 48.9926H0.0126413V48.9941V48.9955H0.0140792C0.0147981 48.9955 0.015517 48.9952 0.015517 48.9941C0.015517 48.9934 0.0147981 48.9926 0.0140792 48.9926ZM0.0140792 48.9912C0.0147981 48.9912 0.015517 48.9919 0.015517 48.9926C0.0162359 48.9926 0.0169548 48.9934 0.0169548 48.9941C0.0169548 48.9952 0.0162359 48.9962 0.015517 48.997H0.0140792H0.0112035C0.0101251 48.9962 0.00976562 48.9952 0.00976562 48.9941C0.00976562 48.9934 0.0101251 48.9926 0.0112035 48.9926C0.0119224 48.9919 0.0130008 48.9912 0.0140792 48.9912Z" fill="#111111"/>
<path d="M0.0239328 48.9927L0.0254 48.9912H0.0268672V48.9927C0.0276007 48.9927 0.0283344 48.9934 0.0283344 48.9941V48.9971H0.0268672V48.9941V48.9927H0.0254V48.9941V48.9971H0.0224656V48.9941V48.9927H0.0209984V48.9941V48.9971H0.0195312V48.9912H0.0209984H0.0224656H0.0239328V48.9927Z" fill="#111111"/>
<path d="M0.0341257 48.9899V48.9913H0.0355635V48.9927H0.0341257V48.9956H0.0355635V48.9971H0.0341257H0.0326878V48.9956V48.9927H0.03125V48.9913H0.0326878V48.9899H0.0341257Z" fill="#111111"/>
<path d="M0.0449313 48.9942V48.9971H0.0419969V48.9942V48.9927H0.0405297V48.9942V48.9971H0.0390625V48.9883H0.0405297V48.9912H0.0419969C0.0427305 48.9912 0.0434641 48.9919 0.0434641 48.9927C0.0441977 48.9927 0.0449313 48.9934 0.0449313 48.9942Z" fill="#111111"/>
<path d="M0.050158 48.9941H0.0458444V48.9955H0.0472823H0.050158V48.997H0.0472823H0.0444066C0.0433282 48.9962 0.0429688 48.9952 0.0429688 48.9941C0.0429688 48.9934 0.0433282 48.9926 0.0444066 48.9926C0.0451255 48.9919 0.0462039 48.9912 0.0472823 48.9912C0.0480012 48.9912 0.0487201 48.9919 0.0487201 48.9926C0.049439 48.9926 0.050158 48.9934 0.050158 48.9941ZM0.0472823 48.9941V48.9926H0.0458444V48.9941H0.0472823Z" fill="#111111"/>
<path d="M0.0546875 48.9883H0.0561547L0.0590891 48.9942V48.9883H0.0620234V48.9971H0.0590891L0.0561547 48.9912V48.9971H0.0546875V48.9883Z" fill="#111111"/>
<path d="M0.0670577 48.9927H0.0656198V48.9941V48.9956H0.0670577C0.0677766 48.9956 0.0684955 48.9952 0.0684955 48.9941C0.0684955 48.9934 0.0677766 48.9927 0.0670577 48.9927ZM0.0670577 48.9912C0.0677766 48.9912 0.0684955 48.992 0.0684955 48.9927C0.0692144 48.9927 0.0699334 48.9934 0.0699334 48.9941C0.0699334 48.9952 0.0692144 48.9963 0.0684955 48.997H0.0670577H0.064182C0.0631036 48.9963 0.0627441 48.9952 0.0627441 48.9941C0.0627441 48.9934 0.0631036 48.9927 0.064182 48.9927C0.0649009 48.992 0.0659793 48.9912 0.0670577 48.9912Z" fill="#111111"/>
<path d="M0.0722656 48.9945V48.9912H0.0739089V48.9945V48.9961H0.0755521V48.9945V48.9912H0.0788386V48.9978H0.0755521V48.9961C0.0755521 48.9974 0.0747305 48.9978 0.0739089 48.9978H0.0722656V48.9945Z" fill="#111111"/>
<path d="M0.084698 48.9945V48.9978H0.0814115V48.9945V48.9929H0.0797683V48.9945V48.9978H0.078125V48.9912H0.0797683H0.0814115C0.0822331 48.9912 0.0830548 48.992 0.0830548 48.9929C0.0838764 48.9929 0.084698 48.9937 0.084698 48.9945Z" fill="#111111"/>
<path d="M0.0898438 48.9883H0.0927781C0.0935117 48.9883 0.0942453 48.989 0.0942453 48.9897C0.0949789 48.9897 0.0957125 48.9905 0.0957125 48.9912C0.0957125 48.9923 0.0949789 48.9934 0.0942453 48.9942H0.0927781H0.0913109V48.9971H0.0898438V48.9883ZM0.0913109 48.9912V48.9927H0.0927781C0.0935117 48.9927 0.0942453 48.9923 0.0942453 48.9912H0.0927781H0.0913109Z" fill="#111111"/>
<path d="M0.102586 48.9929H0.100943C0.0997103 48.9929 0.0992995 48.9937 0.0992995 48.9945V48.9978H0.0976562V48.9912H0.0992995V48.9929V48.9912H0.100943H0.102586V48.9929Z" fill="#111111"/>
<path d="M0.105876 48.9926H0.104438V48.9941V48.9955H0.105876C0.106595 48.9955 0.107314 48.9952 0.107314 48.9941C0.107314 48.9934 0.106595 48.9926 0.105876 48.9926ZM0.105876 48.9912C0.106595 48.9912 0.107314 48.9919 0.107314 48.9926C0.108033 48.9926 0.108752 48.9934 0.108752 48.9941C0.108752 48.9952 0.108033 48.9962 0.107314 48.997H0.105876H0.103C0.101922 48.9962 0.101562 48.9952 0.101562 48.9941C0.101562 48.9934 0.101922 48.9926 0.103 48.9926C0.103719 48.9919 0.104798 48.9912 0.105876 48.9912Z" fill="#111111"/>
<path d="M0.108889 48.9914H0.110356V48.9973C0.110356 48.998 0.109623 48.9988 0.108889 48.9988C0.108889 48.9995 0.108155 49.0002 0.107422 49.0002V48.9988V48.9973H0.108889V48.9914ZM0.108889 48.9885H0.110356V48.99H0.108889V48.9885Z" fill="#111111"/>
<path d="M0.116564 48.9941H0.112251V48.9955H0.113689H0.116564V48.997H0.113689H0.110813C0.109734 48.9962 0.109375 48.9952 0.109375 48.9941C0.109375 48.9934 0.109734 48.9926 0.110813 48.9926C0.111532 48.9919 0.11261 48.9912 0.113689 48.9912C0.114407 48.9912 0.115126 48.9919 0.115126 48.9926C0.115845 48.9926 0.116564 48.9934 0.116564 48.9941ZM0.113689 48.9941V48.9926H0.112251V48.9941H0.113689Z" fill="#111111"/>
<path d="M0.123761 48.9912V48.9929H0.122117H0.120474V48.9945V48.9961H0.122117H0.123761V48.9978H0.122117H0.118831C0.117598 48.997 0.117188 48.9957 0.117188 48.9945C0.117188 48.9937 0.117598 48.9929 0.118831 48.9929C0.119652 48.992 0.120885 48.9912 0.122117 48.9912H0.123761Z" fill="#111111"/>
<path d="M0.127876 48.9897V48.9912H0.129314V48.9926H0.127876V48.9955H0.129314V48.9969H0.127876H0.126438V48.9955V48.9926H0.125V48.9912H0.126438V48.9897H0.127876Z" fill="#111111"/>
</svg>
