<svg width="35" height="41" viewBox="0 0 35 41" fill="none" xmlns="http://www.w3.org/2000/svg">
<path d="M0.792815 0.00071812C0.342075 0.043008 -0.00186736 0.421483 7.62926e-06 0.872965V36.8291C7.62926e-06 39.1228 1.87984 41 4.18365 41H26.4413C28.7451 41 30.625 39.1228 30.625 36.8291V35.3298C30.625 34.8482 30.2331 34.4576 29.7501 34.4576H27.1249V27.0429C27.1524 27.0429 27.1795 27.0432 27.207 27.0429L28.465 31.6364C28.5483 31.9351 28.7851 32.1676 29.0863 32.2461C29.3875 32.3246 29.7079 32.2379 29.9277 32.0179L31.3495 30.6004L33.0722 30.9412C33.3664 31.0011 33.6707 30.9068 33.8788 30.6911C34.0866 30.4754 34.1693 30.1684 34.0976 29.8779L32.7579 24.6577C34.14 23.2421 35 21.3166 35 19.192C35 14.8666 31.4639 11.3411 27.125 11.3411V0.87316C27.125 0.391543 26.7332 0.000912729 26.2501 0.000912729H0.875292C0.848131 -0.000304243 0.820666 -0.000304243 0.793199 0.000912729L0.792815 0.00071812ZM1.74984 1.74521H25.3747V11.5449C21.874 12.3416 19.2496 15.4653 19.2496 19.1914C19.2496 21.3159 20.1096 23.2415 21.492 24.6571L20.152 29.8773C20.0803 30.1679 20.163 30.4748 20.3711 30.6905C20.5789 30.9062 20.8835 31.0005 21.1774 30.9406L22.9001 30.5999L24.3219 32.0173C24.5987 32.2984 25.0302 32.3599 25.3747 32.1673V34.457H7.43736C6.95427 34.457 6.56244 34.8476 6.56244 35.3292V36.8286C6.56214 36.8422 6.56214 36.8559 6.56244 36.8696C6.61707 38.1532 5.61698 39.1706 4.32035 39.2412C4.29288 39.2445 4.26542 39.2491 4.23826 39.2549H4.18363C2.81582 39.2549 1.74989 38.1824 1.74989 36.8286L1.74984 1.74521ZM4.73045 4.36234C4.49821 4.37299 4.28001 4.47552 4.12346 4.6465C3.96721 4.81779 3.88542 5.04415 3.8961 5.27537C3.90709 5.50691 4.00962 5.72443 4.18143 5.88051C4.35325 6.03628 4.5803 6.11782 4.81253 6.10686H22.3124C22.5465 6.11021 22.7723 6.01985 22.9389 5.85586C23.1059 5.69187 23.1999 5.46825 23.1999 5.23459C23.1999 5.00093 23.1059 4.77731 22.9389 4.61332C22.7723 4.44934 22.5465 4.35898 22.3124 4.36232H4.81253C4.78507 4.3611 4.7576 4.3611 4.73044 4.36232L4.73045 4.36234ZM4.73045 9.59622C4.49821 9.60687 4.28001 9.70939 4.12346 9.88068C3.96721 10.052 3.88542 10.278 3.8961 10.5096C3.90709 10.7408 4.00962 10.9583 4.18143 11.1144C4.35325 11.2702 4.5803 11.3517 4.81253 11.3407H22.3124C22.5465 11.3441 22.7723 11.2537 22.9389 11.0897C23.1059 10.9257 23.1999 10.7021 23.1999 10.4685C23.1999 10.2351 23.1059 10.0112 22.9389 9.8472C22.7723 9.68321 22.5465 9.59285 22.3124 9.59619H4.81253C4.78507 9.59498 4.7576 9.59498 4.73044 9.59619L4.73045 9.59622ZM27.1248 13.0856C30.5181 13.0856 33.25 15.8092 33.25 19.1917C33.25 22.5746 30.518 25.2982 27.1248 25.2982C23.7319 25.2982 21 22.5745 21 19.1917C21 15.8091 23.732 13.0856 27.1248 13.0856ZM4.73045 14.8301C4.49821 14.841 4.28001 14.9433 4.12346 15.1146C3.96721 15.2858 3.88542 15.5119 3.8961 15.7434C3.90709 15.9747 4.00962 16.1925 4.18143 16.3483C4.35325 16.5043 4.5803 16.5856 4.81253 16.5749H17.0625C17.2968 16.578 17.5227 16.4876 17.6893 16.3236C17.8562 16.1596 17.9499 15.936 17.9499 15.7023C17.9499 15.469 17.8562 15.2451 17.6893 15.0814C17.5227 14.9174 17.2968 14.8267 17.0625 14.8301H4.81253C4.78507 14.8289 4.7576 14.8289 4.73044 14.8301L4.73045 14.8301ZM27.1248 14.8301C24.7191 14.8301 22.7499 16.7934 22.7499 19.1917C22.7499 21.5904 24.7191 23.5533 27.1248 23.5533C29.5308 23.5533 31.4998 21.5904 31.4998 19.1917C31.4998 16.7934 29.5308 14.8301 27.1248 14.8301ZM27.1248 16.5749C28.5851 16.5749 29.75 17.7362 29.75 19.1917C29.75 20.6475 28.5851 21.8088 27.1248 21.8088C25.6648 21.8088 24.5 20.6476 24.5 19.1917C24.5 17.7362 25.6648 16.5749 27.1248 16.5749ZM4.73045 20.064C4.49821 20.0749 4.28001 20.1771 4.12346 20.3484C3.96721 20.5197 3.88542 20.7458 3.8961 20.9773C3.90709 21.2088 4.00962 21.4264 4.18143 21.5821C4.35325 21.7382 4.5803 21.8197 4.81253 21.8088H17.0625C17.2968 21.8121 17.5227 21.7215 17.6893 21.5575C17.8562 21.3938 17.9499 21.1699 17.9499 20.9365C17.9499 20.7029 17.8562 20.4792 17.6893 20.3153C17.5227 20.1513 17.2968 20.0609 17.0625 20.0639H4.81253C4.78507 20.0627 4.7576 20.0627 4.73044 20.0639L4.73045 20.064ZM4.73045 25.2982C4.49821 25.3088 4.28001 25.411 4.12346 25.5823C3.96721 25.7536 3.88542 25.98 3.8961 26.2112C3.90709 26.4427 4.00962 26.6602 4.18143 26.816C4.35325 26.9721 4.5803 27.0536 4.81253 27.0427H17.9374C18.1715 27.046 18.3973 26.9557 18.564 26.7917C18.7309 26.6277 18.8249 26.4038 18.8249 26.1704C18.8249 25.9367 18.7309 25.7131 18.564 25.5491C18.3973 25.3851 18.1715 25.2948 17.9374 25.2981H4.81253C4.78507 25.2966 4.7576 25.2966 4.73044 25.2981L4.73045 25.2982ZM22.9819 25.8704C23.6856 26.3067 24.4647 26.6268 25.2923 26.8245L24.4858 29.7143L23.8022 29.0328C23.5935 28.828 23.2956 28.741 23.0091 28.8009L22.1888 28.9646L22.9819 25.8704ZM31.267 25.8704L32.0598 28.9646L31.2395 28.8009C30.9529 28.741 30.6554 28.828 30.4467 29.0328L29.7631 29.7143L28.9562 26.8245C29.7839 26.6268 30.5629 26.3067 31.267 25.8704ZM4.72967 30.5321C4.49743 30.5427 4.27923 30.6453 4.12268 30.8162C3.96643 30.9875 3.88464 31.2139 3.89532 31.4451C3.90631 31.6766 4.00884 31.8942 4.18065 32.0502C4.35247 32.206 4.57952 32.2876 4.81175 32.2766H17.9367C18.1707 32.2799 18.3966 32.1896 18.5632 32.0256C18.7301 31.8616 18.8241 31.638 18.8241 31.4043C18.8241 31.1707 18.7301 30.947 18.5632 30.7831C18.3966 30.6191 18.1707 30.5287 17.9367 30.5321H4.81175C4.78429 30.5308 4.75682 30.5308 4.72966 30.5321L4.72967 30.5321ZM8.31152 36.2023H28.8739V36.829C28.8739 38.1829 27.8079 39.2553 26.4402 39.2553H7.49105C7.99764 38.565 8.34097 37.7517 8.31136 36.829C8.31106 36.8153 8.31197 36.8022 8.31136 36.7882L8.31152 36.2023Z" fill="#111111"/>
</svg>
