<svg width="40" height="40" viewBox="0 0 40 40" fill="none" xmlns="http://www.w3.org/2000/svg">
<path d="M38.0602 10.3701H29.0097C28.4954 10.3701 28.0019 10.5736 27.6383 10.9359C27.2747 11.2981 27.0703 11.7897 27.0703 12.3019V29.0444C27.0703 29.5567 27.2746 30.0483 27.6383 30.4104C28.0019 30.7726 28.4955 30.9762 29.0097 30.9762H38.0602C38.5745 30.9762 39.0681 30.7726 39.4316 30.4104C39.7952 30.0482 39.9996 29.5566 39.9996 29.0444V12.3019C39.9996 11.7896 39.7953 11.298 39.4316 10.9359C39.068 10.5737 38.5745 10.3701 38.0602 10.3701ZM38.7067 29.0444C38.7067 29.2152 38.6386 29.379 38.5174 29.4998C38.3962 29.6205 38.2317 29.6884 38.0602 29.6884H29.0097C28.6527 29.6884 28.3632 29.4 28.3632 29.0444V28.4005H38.7067V29.0444ZM38.7067 27.1126H28.3632V14.2338H38.7067V27.1126ZM38.7067 12.9459H28.3632V12.3019C28.3632 11.9463 28.6527 11.658 29.0097 11.658H38.0602C38.2317 11.658 38.3962 11.7258 38.5174 11.8466C38.6386 11.9673 38.7067 12.1312 38.7067 12.3019V12.9459Z" fill="#111111"/>
<path d="M19.3177 25.081V12.9034C19.3177 12.7317 19.2498 12.5669 19.1291 12.4455C19.0084 12.3241 18.8445 12.2559 18.6738 12.2559H1.9323C1.57672 12.2559 1.28839 12.5458 1.28839 12.9034V25.081L0.0462873 28.2026C-0.0333359 28.4021 -0.0091921 28.6284 0.110678 28.8065C0.230834 28.9845 0.43062 29.0912 0.644484 29.0909H19.9616C20.1754 29.0912 20.3752 28.9845 20.4954 28.8065C20.6153 28.6284 20.6394 28.4021 20.5598 28.2026L19.3177 25.081ZM2.5762 13.5509H18.0299V24.5585H2.5762V13.5509ZM1.59541 27.796L2.36809 25.8535H18.2383L19.011 27.796H1.59541Z" fill="#111111"/>
<path d="M31.0383 3.88889C30.8058 3.88889 30.5912 4.01476 30.4769 4.21788C30.3622 4.4213 30.3657 4.67072 30.4852 4.87095L32.4209 8.11169C32.5375 8.30642 32.7475 8.42564 32.9739 8.42564C33.2003 8.42564 33.4103 8.30642 33.527 8.11169L35.4626 4.87095C35.5821 4.67072 35.5856 4.4213 35.471 4.21788C35.3566 4.01476 35.142 3.88889 34.9096 3.88889H33.6191V2.59259C33.6191 1.9051 33.3472 1.24563 32.8633 0.759259C32.3791 0.273148 31.7226 0 31.0383 0H10.3914C9.70702 0 9.05054 0.273148 8.56637 0.759259C8.08246 1.24566 7.81055 1.90511 7.81055 2.59259V10.3704H9.10098V2.59259C9.10098 2.24884 9.23694 1.91898 9.47889 1.67593C9.72084 1.43287 10.0492 1.2963 10.3914 1.2963H31.0383C31.3805 1.2963 31.7088 1.43287 31.9508 1.67593C32.1927 1.91898 32.3287 2.24884 32.3287 2.59259V3.88889H31.0383ZM33.7695 5.18519L32.9739 6.51763L32.1784 5.18519H33.7695Z" fill="#111111"/>
<path d="M32.2447 37.4157C32.2447 37.7583 32.1087 38.0871 31.8668 38.3294C31.6248 38.5717 31.2965 38.7078 30.9543 38.7078H10.3074C9.9652 38.7078 9.63683 38.5717 9.39488 38.3294C9.15292 38.0871 9.01696 37.7583 9.01696 37.4157V35.4774H10.3074C10.5398 35.4774 10.7544 35.3519 10.8688 35.1495C10.9834 34.9467 10.98 34.6981 10.8604 34.4985L8.92479 31.268C8.79978 31.0855 8.59297 30.9764 8.37175 30.9764C8.15053 30.9764 7.94372 31.0855 7.81871 31.268L5.88307 34.4985C5.76353 34.6981 5.76007 34.9467 5.87471 35.1495C5.98907 35.3519 6.20366 35.4774 6.43611 35.4774H7.72654V37.4157C7.72654 38.101 7.99845 38.7583 8.48236 39.2432C8.96656 39.7277 9.62303 40 10.3074 40H30.9543C31.6386 40 32.2951 39.7277 32.7793 39.2432C33.2632 38.7583 33.5351 38.101 33.5351 37.4157V32.8931H32.2447L32.2447 37.4157ZM7.57611 34.1852L8.37168 32.857L9.16724 34.1852H7.57611Z" fill="#111111"/>
<path d="M12.9548 18.0783H12.6316V17.0993C12.6316 16.2832 12.2004 15.5291 11.5003 15.1209C10.8002 14.713 9.93787 14.713 9.23769 15.1209C8.53754 15.5291 8.10642 16.2832 8.10642 17.0993V18.0783H7.78318C7.42619 18.0783 7.13672 18.3706 7.13672 18.731V22.6471C7.13672 22.8202 7.20483 22.9863 7.32604 23.1086C7.44725 23.231 7.61176 23.2998 7.78318 23.2998H12.9549C13.1263 23.2998 13.2908 23.231 13.412 23.1086C13.5333 22.9863 13.6014 22.8202 13.6014 22.6471V18.731C13.6014 18.5579 13.5333 18.3918 13.412 18.2695C13.2908 18.1471 13.1263 18.0783 12.9549 18.0783H12.9548ZM9.39927 17.0993C9.39927 16.5585 9.83333 16.1203 10.369 16.1203C10.9046 16.1203 11.3387 16.5585 11.3387 17.0993V18.0783H9.39927V17.0993ZM12.3084 21.9944H8.42957V19.3837H12.3084V21.9944Z" fill="#111111"/>
<path d="M31.6485 23.2452C31.6465 23.7202 31.8214 24.1793 32.1399 24.5349C32.4585 24.8902 32.8984 25.117 33.3753 25.1722C33.8522 25.2271 34.3328 25.1064 34.7254 24.833C35.118 24.5596 35.3953 24.1525 35.5037 23.6897C35.6121 23.2271 35.5446 22.741 35.3136 22.3244C35.0829 21.9078 34.7051 21.5902 34.2523 21.4318V16.1616H32.9504V16.8056H31.6484V18.0935H32.9504V21.4318C32.5708 21.5646 32.2422 21.8101 32.0091 22.1347C31.776 22.4592 31.6502 22.847 31.6485 23.2452L31.6485 23.2452ZM33.6014 22.6013C33.8647 22.6013 34.1021 22.7583 34.2027 22.9989C34.3035 23.2395 34.248 23.5163 34.0617 23.7006C33.8755 23.8849 33.5956 23.9398 33.3524 23.8401C33.1091 23.7406 32.9505 23.5057 32.9505 23.2452C32.9505 22.8896 33.2419 22.6013 33.6014 22.6013Z" fill="#111111"/>
</svg>
