<svg width="274" height="22" viewBox="0 0 274 22" fill="none" xmlns="http://www.w3.org/2000/svg">
<path d="M83 5.00799H68.4789V7.63499H81.7437V10.5829H68.4789V17.02H65V2.02002H83V5.00799Z" fill="white"/>
<path fill-rule="evenodd" clip-rule="evenodd" d="M22.4959 4.02002L19 19.02H22.0691L22.3333 17.7981H25.6463L25.9106 19.02H29L25.4837 4.02002H22.4959ZM25 14.02H23L23.9899 9.02002L25 14.02Z" fill="white"/>
<path fill-rule="evenodd" clip-rule="evenodd" d="M36.8017 18.1711H38.3955V21.02H31.1089V18.8807L31.3569 18.6278L35.5337 14.3704C36.0831 13.8181 36.2843 13.3744 36.2843 12.7966C36.2843 11.7261 35.4976 10.869 34.5162 10.869C33.6457 10.869 32.9175 11.553 32.7831 12.4846L32.6583 13.3492L30 12.8416L30.1322 12.0054C30.4947 9.71156 32.3439 8.02002 34.531 8.02002C36.9905 8.02002 39 10.157 39 12.7807C39 14.2106 38.5231 15.2592 37.4436 16.4166L36.6183 17.2691L35.8506 18.0241L34 18.0742L34.5258 20.02L35.8753 18.1892L36.8017 18.1711ZM35.8753 18.1892L36 18.02L35.8506 18.0241L35.6788 18.1931L35.8753 18.1892ZM32.6895 19.531L33 19.1061H32.6895V19.02L32.6638 19.1061H32.15L32 19.3041L32.4973 20.02L32.6895 20.0149V19.531ZM37 19.02H38L37.3312 20.0196L37.02 20.0195L37 20.02V19.02ZM31.8368 11.6027C31.8855 11.4587 31.94 11.3179 32 11.1808L31.1745 11.02C31.1091 11.1922 31.0508 11.3688 31 11.5492L31.303 12.02L31.8368 11.6027Z" fill="white"/>
<path d="M49 19.02V4.02002H52.04V15.881H56V19.02H49Z" fill="white"/>
<path d="M58 21.02V6.02002H61V21.02H58Z" fill="white"/>
<path d="M85 20.02V5.02002H92V8.2012H88.0816V10.94H90.7755V14.079H88.0816V16.881H92V20.02H85Z" fill="white"/>
<path fill-rule="evenodd" clip-rule="evenodd" d="M4.41571 5.79733C4.10075 5.80895 3.564 5.96895 2.66985 6.78501L1 4.66778C2.12696 3.63925 3.20533 3.06377 4.32726 3.02239C5.44207 2.98128 6.34542 3.48169 7.06062 3.96571C7.36701 4.17305 7.65363 4.38305 7.93267 4.58749C9.02862 5.39045 10.0075 6.10765 11.6067 6.24151C11.811 6.25861 12.1058 6.1601 12.683 5.6608C12.8681 5.5007 13.0355 5.34302 13.2233 5.16603C13.3284 5.06704 13.4399 4.962 13.5645 4.84713C13.8807 4.55558 14.2545 4.22745 14.6696 3.95889L16 6.33819C15.777 6.48248 15.5365 6.68574 15.2443 6.95522C15.1638 7.02939 15.0743 7.11363 14.9794 7.20293C14.7662 7.40353 14.5258 7.62968 14.3004 7.82463C13.649 8.38811 12.6677 9.11528 11.4065 9.00971C9.05231 8.81266 7.42125 7.59665 6.30229 6.76243C6.07667 6.59423 5.87187 6.44155 5.68617 6.31587C5.09313 5.91453 4.7378 5.78545 4.41571 5.79733Z" fill="white"/>
<path fill-rule="evenodd" clip-rule="evenodd" d="M3.41571 10.7973C3.10075 10.809 2.564 10.969 1.66985 11.785L0 9.66778C1.12696 8.63925 2.20533 8.06377 3.32726 8.02239C4.44207 7.98128 5.34542 8.48169 6.06062 8.96571C6.36701 9.17305 6.65363 9.38305 6.93266 9.58749C8.02862 10.3905 9.00751 11.1076 10.6067 11.2415C10.811 11.2586 11.1058 11.1601 11.683 10.6608C11.8681 10.5007 12.0355 10.343 12.2233 10.166C12.3284 10.067 12.4399 9.962 12.5645 9.84712C12.8807 9.55558 13.2545 9.22745 13.6696 8.95889L15 11.3382C14.777 11.4825 14.5365 11.6857 14.2443 11.9552C14.1638 12.0294 14.0743 12.1136 13.9794 12.2029C13.7662 12.4035 13.5258 12.6297 13.3004 12.8246C12.649 13.3881 11.6677 14.1153 10.4065 14.0097C8.05231 13.8127 6.42125 12.5967 5.30229 11.7624C5.07667 11.5942 4.87187 11.4416 4.68617 11.3159C4.09313 10.9145 3.7378 10.7855 3.41571 10.7973Z" fill="white"/>
<path fill-rule="evenodd" clip-rule="evenodd" d="M3.41571 15.7973C3.10075 15.8089 2.564 15.969 1.66985 16.785L0 14.6678C1.12696 13.6392 2.20533 13.0638 3.32726 13.0224C4.44207 12.9813 5.34542 13.4817 6.06062 13.9657C6.36701 14.1731 6.65363 14.3831 6.93267 14.5875C8.02862 15.3905 9.00751 16.1077 10.6067 16.2415C10.811 16.2586 11.1058 16.1601 11.683 15.6608C11.8681 15.5007 12.0355 15.343 12.2233 15.166C12.3284 15.067 12.4399 14.962 12.5645 14.8471C12.8807 14.5556 13.2545 14.2275 13.6696 13.9589L15 16.3382C14.777 16.4825 14.5365 16.6857 14.2443 16.9552C14.1638 17.0294 14.0743 17.1136 13.9794 17.2029C13.7662 17.4035 13.5258 17.6297 13.3004 17.8246C12.649 18.3881 11.6677 19.1153 10.4065 19.0097C8.05231 18.8127 6.42125 17.5967 5.30229 16.7624C5.07667 16.5942 4.87187 16.4416 4.68617 16.3159C4.09313 15.9145 3.7378 15.7855 3.41571 15.7973Z" fill="white"/>
<path d="M30 1.98242L32.8063 1.09173L34.0612 4.84744L31.2549 5.73814L30 1.98242Z" fill="white"/>
<path d="M44 6.96631L42.4018 4.49784L39.0877 6.65976L40.6859 9.12824L44 6.96631Z" fill="white"/>
<path d="M45 12.9663L44.9532 10.0001L40.9765 9.93662L41.0233 12.9029L45 12.9663Z" fill="white"/>
<path d="M43.0006 18.9201L44.7075 16.4997L41.5234 14.124L39.8165 16.5445L43.0006 18.9201Z" fill="white"/>
<rect width="3" height="4" transform="matrix(0.950885 0.309544 -0.274847 0.961488 37 1.89893)" fill="white"/>
<g opacity="0.5">
<path d="M111 8L104 14" stroke="white" stroke-linecap="round" stroke-linejoin="round"/>
<path d="M104 8L111 14" stroke="white" stroke-linecap="round" stroke-linejoin="round"/>
</g>
<path d="M183.726 11.4704C184.142 9.67479 185.48 8.89287 187.017 8.89287C188.552 8.89287 190.062 9.66921 190.265 11.4704H183.726ZM192.327 17.1422L192.546 14.6707C188.932 16.6618 184.469 16.9411 183.792 13.456H192.918V12.3529C192.807 8.59964 189.956 6.74537 187.017 6.74537C184.011 6.74537 181.072 8.66667 181.072 12.5735C181.072 18.4882 187.389 19.703 192.327 17.1422Z" fill="white"/>
<path d="M170.451 11.4704C170.867 9.67479 172.205 8.89287 173.742 8.89287C175.28 8.89287 176.787 9.66921 176.99 11.4704H170.451ZM179.049 17.1422L179.268 14.6707C175.655 16.6618 171.192 16.9411 170.514 13.456H179.64V12.3529C179.529 8.59964 176.679 6.74537 173.739 6.74537C170.734 6.74537 167.794 8.66667 167.794 12.5735C167.794 18.4882 174.114 19.703 179.049 17.1422Z" fill="white"/>
<path d="M197.389 2.15435H194.866V18.0917H197.389V13.1907C198.355 13.1907 199.102 13.1907 199.868 13.8972C200.942 15.0003 201.733 16.4133 202.457 18.0917H205.352C204.65 15.8408 202.435 12.3305 200.087 12.3305V11.9982C202.019 11.9982 204.386 8.95151 205.022 7.05534H202.368C201.755 8.37903 200.942 9.59381 199.823 10.588C199.077 11.2945 198.177 11.2721 197.389 11.2721V2.15435Z" fill="white"/>
<path d="M210.167 9.45976V5.35466H213.898C215.893 5.35466 216.662 6.37116 216.662 7.40721C216.662 8.42371 215.893 9.45976 213.898 9.45976H210.167ZM210.167 15.7738V11.6687H214.511C216.506 11.6687 217.275 12.6852 217.275 13.7212C217.275 14.7378 216.465 15.7738 214.466 15.7738H210.167ZM214.444 3.03681H207.533V18.0889H215.102C218.327 18.0889 219.951 16.2569 219.951 14.0508C219.951 12.1071 218.546 10.7192 216.157 10.5628V10.211C218.438 9.79208 219.293 8.35669 219.293 6.85707C219.293 4.82686 217.714 3.03681 214.444 3.03681Z" fill="white"/>
<path d="M221.891 7.05534V18.0917H224.414V10.6745C225.357 9.72506 226.584 9.39553 228.582 9.39553H229.593L229.396 6.85707H228.585C226.917 6.85707 225.338 7.58593 224.725 9.10789H224.417V7.05534H221.891Z" fill="white"/>
<path d="M232.668 12.5735C232.668 10.1467 234.036 8.90962 235.879 8.90962C237.37 8.90962 238.41 9.37319 239.332 10.3227V14.8243C238.41 15.7738 237.37 16.2374 235.879 16.2374C234.039 16.2374 232.668 15.0003 232.668 12.5735ZM239.335 7.05534V8.66667H239.049C238.061 7.36532 236.912 6.70348 235.221 6.70348C231.777 6.70348 230.056 9.50723 230.056 12.5735C230.056 15.6398 231.777 18.4435 235.221 18.4435C236.912 18.4435 238.061 17.7817 239.049 16.4803H239.335V18.0917H241.857V7.05534H239.335Z" fill="white"/>
<path d="M244.894 18.0917H247.417V7.05534H244.894V18.0917ZM246.168 5.64229C247.22 5.64229 247.922 4.93577 247.922 3.87738C247.922 2.81899 247.22 2.11246 246.168 2.11246C245.116 2.11246 244.414 2.81899 244.414 3.87738C244.411 4.93577 245.113 5.64229 246.168 5.64229Z" fill="white"/>
<path d="M252.979 7.05534H250.456V18.0917H252.979V10.3227C253.9 9.41787 254.919 8.90962 256.146 8.90962C257.483 8.90962 258.743 9.66083 258.743 11.9117V18.0917H261.266V11.3364C261.266 8.48794 259.94 6.70068 257.2 6.70068C255.71 6.70068 254.208 7.34019 253.22 8.75324H252.979V7.05534Z" fill="white"/>
<path d="M263.384 10.2556C263.384 12.2188 265.205 12.9924 266.609 13.3024L269.834 13.9865C270.886 14.2072 271.369 14.5171 271.369 15.0449C271.369 15.8408 270.273 16.215 268.671 16.215C266.784 16.215 264.613 15.4862 263.406 14.8243L263.625 17.3181C265.03 18.047 266.85 18.4435 268.538 18.4435C271.674 18.4435 274 17.4075 274 14.9332C274 12.9254 272.332 12.1742 270.381 11.7553L267.442 11.1381C266.52 10.9398 266.015 10.6299 266.015 10.1021C266.015 9.35085 267.003 8.9543 268.582 8.9543C270.359 8.9543 272.268 9.61615 273.276 10.1691L273.056 7.6753C271.849 7.05814 270.292 6.70348 268.713 6.70348C265.84 6.70348 263.384 7.71719 263.384 10.2556Z" fill="white"/>
<path d="M158.608 9.77532V12.1965H163.287V14.9081C162.024 15.6425 160.72 15.9777 159.479 15.9777C156.512 15.9777 153.814 14.0396 153.814 10.588C153.814 7.13633 156.515 5.19827 159.479 5.19827C161.383 5.19827 163.409 5.97182 165.247 7.53008L164.975 4.44986C163.198 3.27976 161.244 2.72683 159.182 2.72683C155.058 2.72683 151.022 5.50825 151.022 10.5852C151.022 15.6621 155.058 18.4435 159.182 18.4435C161.244 18.4435 163.395 17.9799 165.829 16.1703V9.77532H158.608Z" fill="white"/>
<path d="M131.439 2.78827L131.261 1.16577C128.877 0.431324 126.335 2.25488 124.789 4.3214C123.906 5.52221 123.176 6.85428 123.928 8.05509C122.691 9.21122 122.691 11.7664 123.928 12.9449C123.176 14.1457 123.906 15.4778 124.789 16.6786C126.293 18.6781 128.214 19.9906 130.201 19.9906C132.255 19.9906 133.912 18.2788 133.912 16.1899V14.6121C133.912 13.5453 133.515 12.9449 132.74 12.1239L131.569 10.8561C131.591 10.7444 131.591 10.655 131.591 10.5461C131.591 9.68037 130.972 9.05763 130.112 9.05763C129.296 9.05763 128.655 9.68037 128.655 10.5461C128.655 11.3252 129.296 11.9675 130.112 11.9675C130.223 11.9675 130.312 11.9452 130.376 11.9452L131.591 13.2353C132.055 13.7464 132.277 14.1234 132.277 14.7461V16.1899C132.277 17.9911 130.82 18.7451 129.207 18.1447C128.125 17.7454 127.02 16.9216 126.004 15.5895C125.1 14.3217 125.297 13.724 125.805 13.3666C126.246 13.1013 126.709 13.1432 127.506 14.1457C127.464 14.277 127.442 14.4334 127.442 14.5897C127.442 15.4108 128.105 16.0782 128.899 16.0782C129.693 16.0782 130.334 15.4108 130.334 14.5897C130.334 13.7911 129.693 13.1236 128.899 13.1236H128.788C127.839 11.9005 126.69 11.0571 125.1 11.9005C124.525 11.3894 124.614 9.56588 125.1 9.09952C126.69 9.94288 127.839 9.09952 128.788 7.87636H128.899C129.693 7.87636 130.334 7.20893 130.334 6.41025C130.334 5.58923 129.693 4.9218 128.899 4.9218C128.105 4.9218 127.442 5.58923 127.442 6.41025C127.442 6.56664 127.464 6.72023 127.509 6.85428C126.715 7.85402 126.249 7.8987 125.807 7.63341C125.299 7.27875 125.1 6.67834 126.007 5.41051C127.264 3.76567 129.429 1.96725 131.439 2.78827ZM134.02 18.2117L134.198 19.8342C136.582 20.5687 139.124 18.7451 140.67 16.6786C141.553 15.4778 142.282 14.1457 141.53 12.9449C142.768 11.7888 142.768 9.23356 141.53 8.05509C142.282 6.85428 141.553 5.52221 140.67 4.3214C139.166 2.32191 137.245 1.01218 135.258 1.01218C133.204 1.01218 131.547 2.72404 131.547 4.81289V6.39071C131.547 7.45747 131.944 8.05788 132.718 8.8789L133.889 10.1467C133.867 10.2584 133.867 10.3478 133.867 10.4567C133.867 11.3224 134.486 11.9452 135.347 11.9452C136.163 11.9452 136.804 11.3224 136.804 10.4567C136.804 9.67758 136.163 9.03529 135.347 9.03529C135.236 9.03529 135.147 9.05763 135.083 9.05763L133.867 7.76745C133.404 7.25641 133.182 6.87941 133.182 6.25666V4.81289C133.182 3.01168 134.639 2.25768 136.251 2.85808C137.334 3.25742 138.438 4.08124 139.454 5.4133C140.359 6.68114 140.162 7.27875 139.654 7.6362C139.213 7.9015 138.749 7.85961 137.953 6.85707C137.997 6.72302 138.019 6.56943 138.019 6.41305C138.019 5.59203 137.356 4.9246 136.562 4.9246C135.768 4.9246 135.127 5.59203 135.127 6.41305C135.127 7.21173 135.768 7.87916 136.562 7.87916H136.673C137.622 9.10231 138.772 9.94567 140.362 9.10231C140.936 9.61335 140.848 11.4369 140.362 11.9033C138.772 11.0599 137.622 11.9033 136.673 13.1264H136.562C135.768 13.1264 135.127 13.7939 135.127 14.5925C135.127 15.4136 135.768 16.081 136.562 16.081C137.356 16.081 138.019 15.4136 138.019 14.5925C138.019 14.4362 137.997 14.2826 137.953 14.1485C138.747 13.1488 139.213 13.1041 139.654 13.3694C140.162 13.724 140.362 14.3244 139.454 15.5923C138.194 17.2343 136.029 19.0328 134.02 18.2117Z" fill="white"/>
</svg>
