<svg width="247" height="104" viewBox="0 0 247 104" fill="none" xmlns="http://www.w3.org/2000/svg">
<rect width="194" height="43.0004" rx="21.5002" transform="matrix(0.997958 -0.0638762 0.0638718 0.997958 50 61)" fill="#5157CF"/>
<path d="M75.4603 86.4257L67.3409 86.9454L67.2536 85.5802L71.4007 80.7695C72.5104 79.508 73.0381 78.4521 72.9836 77.6019C72.9392 76.9073 72.6888 76.3762 72.2323 76.0086C71.7871 75.6283 71.2472 75.4584 70.6125 75.499C69.4269 75.5749 68.6007 76.193 68.1339 77.3531L66.6798 76.6165C67.0117 75.7896 67.5115 75.1444 68.1793 74.6808C68.8462 74.2052 69.6168 73.9394 70.4911 73.8835C71.5569 73.8153 72.4952 74.1039 73.3061 74.7495C74.1297 75.4062 74.5787 76.3154 74.6531 77.477C74.7343 78.7464 74.0744 80.1775 72.6733 81.7702L69.6625 85.1735L75.3568 84.809L75.4603 86.4257ZM86.3992 81.1081C87.42 81.4637 87.9626 82.1444 88.027 83.1503C88.0768 83.9287 87.8128 84.595 87.235 85.149C86.6564 85.6911 85.8283 85.9966 84.7505 86.0656C82.9542 86.1805 81.7046 85.539 81.0019 84.1411L82.2638 83.2847C82.6619 84.2453 83.4658 84.6868 84.6753 84.6094C85.2621 84.5718 85.7151 84.4166 86.0343 84.1436C86.3536 83.8707 86.4997 83.5246 86.4729 83.1055C86.4499 82.7462 86.2934 82.4617 86.0034 82.2517C85.7254 82.0411 85.3589 81.9503 84.9038 81.9794L83.5925 82.0634L83.5016 80.6443L84.4717 80.5822C84.9267 80.5531 85.2731 80.4227 85.5108 80.191C85.7477 79.9474 85.8539 79.634 85.8294 79.2507C85.8041 78.8555 85.6345 78.5538 85.3205 78.3454C85.0058 78.125 84.597 78.031 84.094 78.0632C83.088 78.1275 82.4327 78.5964 82.1278 79.4696L80.8053 78.8148C81.3557 77.4568 82.4212 76.7273 84.002 76.6261C84.9601 76.5648 85.7426 76.7672 86.3496 77.2334C86.9678 77.6868 87.3007 78.2848 87.3482 79.0273C87.4065 79.9374 87.0901 80.631 86.3992 81.1081ZM96.8386 77.5901L96.7397 76.0453L98.3025 75.9453L98.8774 84.9269L97.3146 85.0269L97.2157 83.4821C96.5251 84.7167 95.4314 85.3819 93.9345 85.4777C92.6651 85.559 91.5641 85.1725 90.6317 84.3183C89.6865 83.4529 89.1717 82.3616 89.0874 81.0443C89.0038 79.739 89.3756 78.5969 90.2028 77.6181C91.03 76.6392 92.0723 76.1096 93.3297 76.0291C94.8266 75.9333 95.9963 76.4536 96.8386 77.5901ZM94.0355 83.9562C94.9456 83.8979 95.6865 83.5439 96.2582 82.894C96.8283 82.2203 97.0846 81.4343 97.0271 80.5361C96.9689 79.626 96.6148 78.8851 95.965 78.3134C95.3144 77.7298 94.534 77.4671 93.6239 77.5253C92.7257 77.5828 91.9912 77.9425 91.4203 78.6043C90.8486 79.2541 90.5919 80.0341 90.6502 80.9443C90.7077 81.8424 91.0621 82.5893 91.7135 83.1849C92.3633 83.7566 93.1373 84.0137 94.0355 83.9562ZM107.125 79.1323L106.886 75.3959L108.448 75.2959L109.023 84.2775L107.46 84.3775L107.22 80.6232L102.568 80.921L102.808 84.6753L101.245 84.7754L100.67 75.7937L102.233 75.6937L102.472 79.4301L107.125 79.1323ZM113.719 74.9585L117.545 74.7136L118.12 83.6953L116.576 83.7941L116.369 80.5608L115.057 80.6447L112.749 84.039L110.845 84.1609L113.255 80.6698C112.562 80.5459 111.99 80.2458 111.538 79.7697C111.099 79.2928 110.858 78.719 110.815 78.0484C110.762 77.2221 111.011 76.5147 111.563 75.9263C112.114 75.3378 112.833 75.0152 113.719 74.9585ZM114.051 79.3022L116.279 79.1596L116.094 76.2675L113.866 76.4101C113.411 76.4392 113.037 76.6015 112.743 76.8968C112.461 77.1795 112.333 77.5363 112.361 77.9675C112.388 78.3866 112.559 78.7243 112.877 78.9806C113.205 79.2241 113.596 79.3313 114.051 79.3022ZM118.908 74.6264L126.596 74.1343L126.693 75.6432L123.639 75.8387L124.118 83.3114L122.555 83.4114L122.076 75.9387L119.005 76.1353L118.908 74.6264ZM129.914 80.2529L134.487 73.6293L135.744 73.5488L136.319 82.5305L134.774 82.6293L134.371 76.3242L129.798 82.9478L128.541 83.0283L127.966 74.0467L129.511 73.9478L129.914 80.2529ZM141.015 73.2115L144.841 72.9666L145.416 81.9482L143.871 82.0471L143.664 78.8137L142.353 78.8976L140.045 82.292L138.141 82.4138L140.551 78.9228C139.858 78.7988 139.285 78.4988 138.834 78.0226C138.395 77.5457 138.153 76.9719 138.11 76.3013C138.058 75.475 138.307 74.7676 138.858 74.1792C139.41 73.5908 140.129 73.2682 141.015 73.2115ZM141.347 77.5551L143.575 77.4126L143.389 74.5205L141.162 74.663C140.707 74.6922 140.333 74.8544 140.039 75.1498C139.756 75.4324 139.629 75.7893 139.656 76.2204C139.683 76.6395 139.855 76.9772 140.172 77.2335C140.5 77.4771 140.892 77.5843 141.347 77.5551ZM157.962 76.5098C158.908 76.8339 159.414 77.499 159.478 78.505C159.527 79.2714 159.315 79.9042 158.842 80.4035C158.368 80.8907 157.676 81.1635 156.766 81.2217L152.276 81.5092L151.701 72.5275L155.832 72.2631C156.718 72.2064 157.421 72.3839 157.94 72.7955C158.472 73.2064 158.761 73.7831 158.809 74.5256C158.864 75.3878 158.582 76.0492 157.962 76.5098ZM155.85 73.6688L153.317 73.831L153.468 76.1841L156.001 76.022C156.911 75.9638 157.34 75.5335 157.289 74.7311C157.24 73.9647 156.76 73.6106 155.85 73.6688ZM153.712 79.9923L156.586 79.8084C157.041 79.7793 157.381 79.6493 157.607 79.4184C157.845 79.1867 157.951 78.8733 157.925 78.4781C157.902 78.1069 157.758 77.8275 157.493 77.64C157.24 77.4398 156.886 77.3542 156.43 77.3833L153.556 77.5673L153.712 79.9923ZM171.698 74.9993L171.459 71.2629L173.021 71.1629L173.596 80.1445L172.033 80.2446L171.793 76.4903L167.141 76.788L167.381 80.5423L165.818 80.6424L165.243 71.6608L166.806 71.5607L167.045 75.2971L171.698 74.9993ZM184.356 75.6681L176.829 76.1499C177.036 76.9303 177.441 77.5296 178.045 77.9479C178.648 78.3542 179.381 78.5298 180.243 78.4746C181.428 78.3987 182.263 77.9064 182.746 76.9977L184.123 77.6671C183.324 79.077 182.05 79.838 180.301 79.9499C178.888 80.0403 177.698 79.6716 176.731 78.8436C175.787 77.9902 175.271 76.8869 175.185 75.5337C175.097 74.1685 175.462 73.0148 176.28 72.0726C177.097 71.1185 178.199 70.597 179.589 70.5081C180.906 70.4238 182.008 70.8222 182.894 71.7034C183.79 72.5599 184.281 73.6468 184.365 74.9641C184.38 75.1916 184.377 75.4263 184.356 75.6681ZM179.683 71.9811C178.857 72.034 178.177 72.312 177.644 72.815C177.123 73.3173 176.822 73.9739 176.742 74.7847L182.742 74.4007C182.557 73.5828 182.187 72.9632 181.631 72.5418C181.075 72.1205 180.425 71.9336 179.683 71.9811ZM193.246 69.8684L193.726 77.3591L194.965 77.2798L195.215 81.1778L193.67 81.2767L193.516 78.8696L186.78 79.3007L186.934 81.7078L185.389 81.8067L185.139 77.9087L186.235 77.8385C186.759 77.0114 186.976 75.8852 186.885 74.4602L186.618 70.2927L193.246 69.8684ZM188.013 77.7247L192.181 77.458L191.795 71.4223L188.256 71.6488L188.429 74.3613C188.514 75.6786 188.375 76.7997 188.013 77.7247ZM204.775 74.3612L197.249 74.8429C197.455 75.6234 197.86 76.2227 198.464 76.641C199.067 77.0473 199.8 77.2228 200.662 77.1677C201.848 77.0918 202.682 76.5995 203.165 75.6908L204.542 76.3602C203.743 77.7701 202.469 78.531 200.72 78.6429C199.307 78.7334 198.117 78.3646 197.15 77.5367C196.206 76.6833 195.69 75.58 195.604 74.2267C195.516 72.8615 195.881 71.7079 196.699 70.7657C197.516 69.8116 198.619 69.2901 200.008 69.2012C201.325 69.1169 202.427 69.5153 203.313 70.3965C204.209 71.253 204.7 72.3399 204.784 73.6572C204.799 73.8847 204.796 74.1194 204.775 74.3612ZM200.102 70.6742C199.276 70.7271 198.596 71.005 198.063 71.5081C197.542 72.0104 197.242 72.6669 197.161 73.4777L203.161 73.0937C202.976 72.2759 202.606 71.6562 202.05 71.2349C201.494 70.8136 200.845 70.6266 200.102 70.6742ZM206.768 69.003L213.432 68.5765L214.007 77.5581L212.444 77.6581L211.966 70.1854L208.427 70.4119L208.661 74.0764C208.753 75.5135 208.532 76.5558 207.996 77.2033C207.459 77.8389 206.631 78.1384 205.51 78.1019L205.416 76.6289C206.044 76.6729 206.496 76.5057 206.773 76.1272C207.048 75.7368 207.156 75.0746 207.096 74.1405L206.768 69.003ZM223.635 67.6889C224.952 67.6046 226.095 67.9884 227.063 68.8403C228.045 69.7034 228.577 70.7936 228.662 72.1109C228.746 73.4282 228.357 74.5774 227.493 75.5585C226.642 76.5269 225.557 77.0533 224.24 77.1376C223.054 77.2135 222.006 76.9018 221.096 76.2025C220.173 75.504 219.597 74.5849 219.368 73.4452L217.697 73.5522L217.938 77.3065L216.375 77.4065L215.8 68.4249L217.363 68.3249L217.602 72.0612L219.272 71.9543C219.367 70.7939 219.821 69.8149 220.636 69.0172C221.474 68.206 222.473 67.7633 223.635 67.6889ZM224.142 75.6107C225.028 75.554 225.757 75.2007 226.329 74.5509C226.9 73.901 227.157 73.121 227.099 72.2109C227.041 71.3008 226.687 70.5599 226.037 69.9882C225.387 69.4166 224.619 69.1591 223.733 69.2158C222.835 69.2733 222.1 69.627 221.528 70.2768C220.956 70.9266 220.7 71.7066 220.758 72.6168C220.816 73.5269 221.17 74.2678 221.82 74.8395C222.47 75.4111 223.244 75.6682 224.142 75.6107Z" fill="white"/>
<path d="M25.6102 23.0666C26.8313 23.377 27.7398 24.0165 28.3356 24.9851C28.9343 25.942 29.0799 27.0253 28.7725 28.2348C28.4651 29.4444 27.8184 30.3325 26.8325 30.8991C25.8465 31.4656 24.743 31.5938 23.5218 31.2834C22.2773 30.9671 21.3631 30.3261 20.7789 29.3605C20.1948 28.3948 20.0564 27.3072 20.3639 26.0977C20.6062 25.144 21.0574 24.392 21.7173 23.8416L27.1367 18.9601L28.986 19.4301L25.0256 22.9552C25.3804 23.0206 25.5753 23.0577 25.6102 23.0666ZM25.2155 24.6193C24.4363 24.4212 23.7492 24.4942 23.1541 24.8382C22.559 25.1822 22.1639 25.738 21.9688 26.5056C21.7737 27.2732 21.854 27.956 22.2097 28.5541C22.5799 29.1434 23.1488 29.5356 23.9164 29.7307C24.684 29.9258 25.3653 29.8514 25.9604 29.5074C26.5701 29.1547 26.9725 28.5945 27.1675 27.8269C27.3626 27.0593 27.2751 26.3809 26.9048 25.7915C26.5462 25.2051 25.9831 24.8143 25.2155 24.6193ZM43.1037 26.7327L44.7261 27.1451L42.5091 35.8678L41.0263 35.4909L42.6358 29.1582L38.7269 32.9192L38.535 32.8705L36.8963 27.6995L35.2868 34.0321L33.7865 33.6508L36.0034 24.9281L37.6258 25.3405L39.243 30.4503L43.1037 26.7327ZM54.131 34.9214L46.8214 33.0636C46.7775 33.8696 46.9785 34.5646 47.4244 35.1484C47.8733 35.7206 48.5164 36.1131 49.3538 36.3259C50.5052 36.6186 51.4505 36.4069 52.1896 35.6909L53.2943 36.7517C52.0997 37.8472 50.6533 38.1792 48.9553 37.7476C47.583 37.3988 46.5642 36.6817 45.899 35.5965C45.2631 34.4938 45.1121 33.2854 45.4461 31.9712C45.7831 30.6453 46.4854 29.66 47.5532 29.0151C48.6239 28.3586 49.8338 28.2018 51.1829 28.5447C52.4622 28.8699 53.3879 29.588 53.9598 30.6991C54.5492 31.79 54.6814 32.975 54.3562 34.2544C54.3001 34.4753 54.225 34.6977 54.131 34.9214ZM50.8193 29.9753C50.0168 29.7713 49.2846 29.8266 48.6227 30.1413C47.9725 30.4589 47.4843 30.991 47.1584 31.7378L52.9851 33.2187C53.0611 32.3837 52.8994 31.6802 52.5 31.1082C52.1006 30.5362 51.5404 30.1585 50.8193 29.9753ZM59.0218 40.3061C57.7076 39.9721 56.7252 39.2581 56.0747 38.1641C55.427 37.0585 55.2688 35.8544 55.5998 34.5519C55.9309 33.2493 56.6434 32.2727 57.7374 31.6221C58.8343 30.9599 60.0399 30.7958 61.3541 31.1299C62.2147 31.3486 62.9349 31.7545 63.5147 32.3476C64.0974 32.9291 64.4687 33.6116 64.6287 34.3951L63.1689 34.8041C63.0662 34.2827 62.8177 33.8234 62.4234 33.426C62.0408 33.0316 61.5587 32.7605 60.9772 32.6127C60.1049 32.391 59.2969 32.5014 58.553 32.9437C57.8177 33.4007 57.3393 34.0653 57.1176 34.9376C56.8988 35.7982 57.0034 36.6048 57.4312 37.3574C57.8736 38.1013 58.5309 38.5841 59.4032 38.8058C59.9847 38.9536 60.542 38.9529 61.0752 38.8036C61.6114 38.6427 62.0607 38.3607 62.4232 37.9576L63.5235 39.0358C62.9623 39.6361 62.2811 40.0511 61.4798 40.2808C60.6785 40.5105 59.8592 40.5189 59.0218 40.3061ZM69.3585 33.4057L73.0744 34.3501L70.8574 43.0728L69.3571 42.6915L70.1552 39.5513L68.8817 39.2276L65.6413 41.7471L63.792 41.2771L67.1593 38.697C66.5378 38.3657 66.0856 37.9041 65.8027 37.3122C65.5314 36.7232 65.4785 36.1031 65.6441 35.4518C65.848 34.6493 66.3029 34.053 67.0088 33.6628C67.7146 33.2727 68.4979 33.187 69.3585 33.4057ZM68.3378 37.6408L70.5011 38.1906L71.2149 35.3819L69.0517 34.8321C68.6098 34.7198 68.2036 34.7589 67.8332 34.9495C67.4774 35.1315 67.2463 35.4318 67.1399 35.8505C67.0365 36.2576 67.0961 36.6318 67.3189 36.9732C67.5562 37.3059 67.8959 37.5285 68.3378 37.6408ZM82.7018 36.797L80.8528 44.0717L82.2833 44.4353L81.3212 48.221L79.8209 47.8397L80.415 45.502L73.1577 43.6575L75.3747 34.9348L76.8925 35.3205L75.0435 42.5952L79.3351 43.686L81.184 36.4113L82.7018 36.797ZM92.4971 44.6726L85.1875 42.8148C85.1436 43.6208 85.3446 44.3157 85.7906 44.8996C86.2394 45.4718 86.8826 45.8643 87.7199 46.0771C88.8713 46.3698 89.8166 46.1581 90.5558 45.4421L91.6605 46.5029C90.4658 47.5984 89.0195 47.9303 87.3215 47.4988C85.9491 47.15 84.9303 46.4329 84.2652 45.3476C83.6292 44.245 83.4782 43.0366 83.8122 41.7223C84.1492 40.3965 84.8516 39.4111 85.9193 38.7663C86.99 38.1098 88.1999 37.953 89.549 38.2959C90.8284 38.6211 91.754 39.3392 92.3259 40.4503C92.9154 41.5411 93.0475 42.7262 92.7224 44.0055C92.6662 44.2265 92.5911 44.4489 92.4971 44.6726ZM89.1855 39.7264C88.383 39.5225 87.6508 39.5778 86.9889 39.8925C86.3386 40.2101 85.8505 40.7422 85.5245 41.4889L91.3512 42.9699C91.4273 42.1349 91.2656 41.4314 90.8662 40.8593C90.4668 40.2873 89.9065 39.9097 89.1855 39.7264ZM100.312 45.7859C101.113 46.3857 101.389 47.174 101.141 48.151C100.952 48.8953 100.555 49.4322 99.9514 49.7616C99.3506 50.0794 98.6082 50.126 97.7243 49.9013L93.363 48.7928L95.58 40.0702L99.5924 41.09C100.453 41.3087 101.067 41.6938 101.435 42.2454C101.814 42.7998 101.912 43.4376 101.728 44.1587C101.515 44.996 101.043 45.5385 100.312 45.7859ZM99.1768 42.433L96.717 41.8078L96.1361 44.0931L98.5959 44.7183C99.4798 44.943 100.021 44.6657 100.219 43.8865C100.408 43.1421 100.061 42.6576 99.1768 42.433ZM95.1961 47.7915L97.9874 48.501C98.4293 48.6133 98.7932 48.5944 99.079 48.4441C99.3765 48.2969 99.574 48.0313 99.6715 47.6475C99.7632 47.287 99.712 46.9768 99.518 46.717C99.3386 46.4486 99.0279 46.2582 98.586 46.1459L95.7947 45.4364L95.1961 47.7915Z" fill="white"/>
<rect x="0.361431" y="0.607763" width="114" height="42.0007" rx="21.0004" transform="matrix(0.969184 0.246337 -0.246321 0.969188 11.1608 -0.0703078)" stroke="white"/>
</svg>
