<svg width="194" height="445" viewBox="0 0 194 445" fill="none" xmlns="http://www.w3.org/2000/svg">
<path fill-rule="evenodd" clip-rule="evenodd" d="M360.464 45.7071L92.8641 62.8787L21.3666 190.537L76.8838 373.309L334.496 442.956L367.422 239.683L360.464 45.7071Z" stroke="#FAD350"/>
<g clip-path="url(#clip0_1024_685)">
<path fill-rule="evenodd" clip-rule="evenodd" d="M54.1379 99.8384C54.1379 99.8384 169.407 53.2483 231.758 34.0673C294.11 14.8864 408.82 -9.2706 408.82 -9.2706L518.416 43.5605L467.288 190.323L136.229 352.766L68.3455 232.189L54.1379 99.8384Z" fill="#5157CF"/>
<mask id="mask0_1024_685" style="mask-type:alpha" maskUnits="userSpaceOnUse" x="54" y="-10" width="465" height="363">
<path fill-rule="evenodd" clip-rule="evenodd" d="M54.1379 99.8384C54.1379 99.8384 169.407 53.2483 231.758 34.0673C294.11 14.8864 408.82 -9.2706 408.82 -9.2706L518.416 43.5605L467.288 190.323L136.229 352.766L68.3455 232.189L54.1379 99.8384Z" fill="white"/>
</mask>
<g mask="url(#mask0_1024_685)">
</g>
</g>
<defs>
<clipPath id="clip0_1024_685">
<rect width="181.132" height="362" fill="white" transform="translate(19.041 35.5479)"/>
</clipPath>
</defs>
</svg>
