<svg width="1179" height="547" viewBox="0 0 1179 547" fill="none" xmlns="http://www.w3.org/2000/svg">
<line x1="6" y1="103.843" x2="1176" y2="103.843" stroke="#F4F4F4"/>
<line x1="6" y1="183.843" x2="1176" y2="183.843" stroke="#F4F4F4"/>
<line x1="6" y1="263.843" x2="1176" y2="263.843" stroke="#F4F4F4"/>
<line x1="6" y1="343.843" x2="1176" y2="343.843" stroke="#F4F4F4"/>
<line x1="6" y1="423.843" x2="1176" y2="423.843" stroke="#F4F4F4"/>
<line x1="6" y1="503.843" x2="1176" y2="503.843" stroke="#F4F4F4"/>
<path d="M6.336 523.079L10.752 521.543H12.672V538.343H10.464V523.943L6.888 524.999L6.336 523.079ZM31.9067 526.343H34.1387V538.343H32.0987V529.631L28.2827 535.775H28.0187L24.2027 529.631V538.343H22.1387V526.343H24.3707L28.1387 532.415L31.9067 526.343ZM48.8462 533.303H38.7902C38.9982 534.359 39.4862 535.191 40.2542 535.799C41.0222 536.391 41.9822 536.687 43.1342 536.687C44.7182 536.687 45.8702 536.103 46.5902 534.935L48.3662 535.943C47.1822 537.751 45.4222 538.655 43.0862 538.655C41.1982 538.655 39.6462 538.063 38.4302 536.879C37.2462 535.663 36.6542 534.151 36.6542 532.343C36.6542 530.519 37.2382 529.015 38.4062 527.831C39.5742 526.631 41.0862 526.031 42.9422 526.031C44.7022 526.031 46.1342 526.655 47.2382 527.903C48.3582 529.119 48.9182 530.607 48.9182 532.367C48.9182 532.671 48.8942 532.983 48.8462 533.303ZM42.9422 527.999C41.8382 527.999 40.9102 528.311 40.1582 528.935C39.4222 529.559 38.9662 530.407 38.7902 531.479H46.8062C46.6302 530.375 46.1902 529.519 45.4862 528.911C44.7822 528.303 43.9342 527.999 42.9422 527.999ZM56.9349 538.655C55.1269 538.655 53.6229 538.055 52.4229 536.855C51.2229 535.639 50.6229 534.135 50.6229 532.343C50.6229 530.551 51.2229 529.055 52.4229 527.855C53.6229 526.639 55.1269 526.031 56.9349 526.031C58.1189 526.031 59.1829 526.319 60.1269 526.895C61.0709 527.455 61.7749 528.215 62.2389 529.175L60.4869 530.183C60.1829 529.543 59.7109 529.031 59.0709 528.647C58.4469 528.263 57.7349 528.071 56.9349 528.071C55.7349 528.071 54.7269 528.479 53.9109 529.295C53.1109 530.127 52.7109 531.143 52.7109 532.343C52.7109 533.527 53.1109 534.535 53.9109 535.367C54.7269 536.183 55.7349 536.591 56.9349 536.591C57.7349 536.591 58.4549 536.407 59.0949 536.039C59.7349 535.655 60.2229 535.143 60.5589 534.503L62.3349 535.535C61.8069 536.495 61.0629 537.255 60.1029 537.815C59.1429 538.375 58.0869 538.655 56.9349 538.655ZM68.0261 526.343H73.1381V538.343H71.0741V534.023H69.3221L65.9621 538.343H63.4181L66.9221 533.903C66.0101 533.679 65.2741 533.231 64.7141 532.559C64.1701 531.887 63.8981 531.103 63.8981 530.207C63.8981 529.103 64.2901 528.183 65.0741 527.447C65.8581 526.711 66.8421 526.343 68.0261 526.343ZM68.0981 532.151H71.0741V528.287H68.0981C67.4901 528.287 66.9781 528.471 66.5621 528.839C66.1621 529.191 65.9621 529.655 65.9621 530.231C65.9621 530.791 66.1621 531.255 66.5621 531.623C66.9781 531.975 67.4901 532.151 68.0981 532.151ZM86.3828 526.343V536.351H88.3508V541.559H86.2868V538.343H76.3027V526.343H78.3908V536.351H84.2948V526.343H86.3828Z" fill="black"/>
<path d="M255.212 538.343H244.364V536.519L250.292 530.471C251.876 528.887 252.668 527.527 252.668 526.391C252.668 525.463 252.38 524.735 251.804 524.207C251.244 523.663 250.54 523.391 249.692 523.391C248.108 523.391 246.956 524.143 246.236 525.647L244.364 524.543C244.876 523.471 245.596 522.655 246.524 522.095C247.452 521.519 248.5 521.231 249.668 521.231C251.092 521.231 252.316 521.695 253.34 522.623C254.38 523.567 254.9 524.815 254.9 526.367C254.9 528.063 253.9 529.911 251.9 531.911L247.604 536.183H255.212V538.343ZM273.508 526.343H275.74V538.343H273.7V529.631L269.884 535.775H269.62L265.804 529.631V538.343H263.74V526.343H265.972L269.74 532.415L273.508 526.343ZM290.448 533.303H280.392C280.6 534.359 281.088 535.191 281.856 535.799C282.624 536.391 283.584 536.687 284.736 536.687C286.32 536.687 287.472 536.103 288.192 534.935L289.968 535.943C288.784 537.751 287.024 538.655 284.688 538.655C282.8 538.655 281.248 538.063 280.032 536.879C278.848 535.663 278.256 534.151 278.256 532.343C278.256 530.519 278.84 529.015 280.008 527.831C281.176 526.631 282.688 526.031 284.544 526.031C286.304 526.031 287.736 526.655 288.84 527.903C289.96 529.119 290.52 530.607 290.52 532.367C290.52 532.671 290.496 532.983 290.448 533.303ZM284.544 527.999C283.44 527.999 282.512 528.311 281.76 528.935C281.024 529.559 280.568 530.407 280.392 531.479H288.408C288.232 530.375 287.792 529.519 287.088 528.911C286.384 528.303 285.536 527.999 284.544 527.999ZM298.537 538.655C296.729 538.655 295.225 538.055 294.025 536.855C292.825 535.639 292.225 534.135 292.225 532.343C292.225 530.551 292.825 529.055 294.025 527.855C295.225 526.639 296.729 526.031 298.537 526.031C299.721 526.031 300.785 526.319 301.729 526.895C302.673 527.455 303.377 528.215 303.841 529.175L302.089 530.183C301.785 529.543 301.313 529.031 300.673 528.647C300.049 528.263 299.337 528.071 298.537 528.071C297.337 528.071 296.329 528.479 295.513 529.295C294.713 530.127 294.312 531.143 294.312 532.343C294.312 533.527 294.713 534.535 295.513 535.367C296.329 536.183 297.337 536.591 298.537 536.591C299.337 536.591 300.057 536.407 300.697 536.039C301.337 535.655 301.825 535.143 302.161 534.503L303.937 535.535C303.409 536.495 302.665 537.255 301.705 537.815C300.745 538.375 299.689 538.655 298.537 538.655ZM309.628 526.343H314.74V538.343H312.676V534.023H310.924L307.564 538.343H305.02L308.524 533.903C307.612 533.679 306.876 533.231 306.316 532.559C305.772 531.887 305.5 531.103 305.5 530.207C305.5 529.103 305.892 528.183 306.676 527.447C307.46 526.711 308.444 526.343 309.628 526.343ZM309.7 532.151H312.676V528.287H309.7C309.092 528.287 308.58 528.471 308.164 528.839C307.764 529.191 307.564 529.655 307.564 530.231C307.564 530.791 307.764 531.255 308.164 531.623C308.58 531.975 309.092 532.151 309.7 532.151ZM327.984 526.343V536.351H329.952V541.559H327.888V538.343H317.904V526.343H319.992V536.351H325.896V526.343H327.984ZM341.645 528.407V526.343H343.733V538.343H341.645V536.279C340.621 537.863 339.109 538.655 337.109 538.655C335.413 538.655 333.981 538.047 332.813 536.831C331.629 535.599 331.037 534.103 331.037 532.343C331.037 530.599 331.629 529.111 332.813 527.879C333.997 526.647 335.429 526.031 337.109 526.031C339.109 526.031 340.621 526.823 341.645 528.407ZM337.373 536.639C338.589 536.639 339.605 536.231 340.421 535.415C341.237 534.567 341.645 533.543 341.645 532.343C341.645 531.127 341.237 530.111 340.421 529.295C339.605 528.463 338.589 528.047 337.373 528.047C336.173 528.047 335.165 528.463 334.349 529.295C333.533 530.111 333.125 531.127 333.125 532.343C333.125 533.543 333.533 534.567 334.349 535.415C335.165 536.231 336.173 536.639 337.373 536.639Z" fill="black"/>
<path d="M492.376 533.063H494.416V535.151H492.376V538.343H490.144V535.151H481.576V533.063L487.6 521.543H490L483.976 533.063H490.144V528.311H492.376V533.063ZM512.274 526.343H514.506V538.343H512.466V529.631L508.65 535.775H508.386L504.57 529.631V538.343H502.506V526.343H504.738L508.506 532.415L512.274 526.343ZM529.213 533.303H519.157C519.365 534.359 519.853 535.191 520.621 535.799C521.389 536.391 522.349 536.687 523.501 536.687C525.085 536.687 526.237 536.103 526.957 534.935L528.733 535.943C527.549 537.751 525.789 538.655 523.453 538.655C521.565 538.655 520.013 538.063 518.797 536.879C517.613 535.663 517.021 534.151 517.021 532.343C517.021 530.519 517.605 529.015 518.773 527.831C519.941 526.631 521.453 526.031 523.309 526.031C525.069 526.031 526.501 526.655 527.605 527.903C528.725 529.119 529.285 530.607 529.285 532.367C529.285 532.671 529.261 532.983 529.213 533.303ZM523.309 527.999C522.205 527.999 521.277 528.311 520.525 528.935C519.789 529.559 519.333 530.407 519.157 531.479H527.173C526.997 530.375 526.557 529.519 525.853 528.911C525.149 528.303 524.301 527.999 523.309 527.999ZM537.302 538.655C535.494 538.655 533.99 538.055 532.79 536.855C531.59 535.639 530.99 534.135 530.99 532.343C530.99 530.551 531.59 529.055 532.79 527.855C533.99 526.639 535.494 526.031 537.302 526.031C538.486 526.031 539.55 526.319 540.494 526.895C541.438 527.455 542.142 528.215 542.606 529.175L540.854 530.183C540.55 529.543 540.078 529.031 539.438 528.647C538.814 528.263 538.102 528.071 537.302 528.071C536.102 528.071 535.094 528.479 534.278 529.295C533.478 530.127 533.078 531.143 533.078 532.343C533.078 533.527 533.478 534.535 534.278 535.367C535.094 536.183 536.102 536.591 537.302 536.591C538.102 536.591 538.822 536.407 539.462 536.039C540.102 535.655 540.59 535.143 540.926 534.503L542.702 535.535C542.174 536.495 541.43 537.255 540.47 537.815C539.51 538.375 538.454 538.655 537.302 538.655ZM548.393 526.343H553.505V538.343H551.441V534.023H549.689L546.329 538.343H543.785L547.289 533.903C546.377 533.679 545.641 533.231 545.081 532.559C544.537 531.887 544.265 531.103 544.265 530.207C544.265 529.103 544.657 528.183 545.441 527.447C546.225 526.711 547.209 526.343 548.393 526.343ZM548.465 532.151H551.441V528.287H548.465C547.857 528.287 547.345 528.471 546.929 528.839C546.529 529.191 546.329 529.655 546.329 530.231C546.329 530.791 546.529 531.255 546.929 531.623C547.345 531.975 547.857 532.151 548.465 532.151ZM566.75 526.343V536.351H568.718V541.559H566.654V538.343H556.67V526.343H558.758V536.351H564.662V526.343H566.75ZM580.411 528.407V526.343H582.499V538.343H580.411V536.279C579.387 537.863 577.875 538.655 575.875 538.655C574.179 538.655 572.747 538.047 571.579 536.831C570.395 535.599 569.803 534.103 569.803 532.343C569.803 530.599 570.395 529.111 571.579 527.879C572.763 526.647 574.195 526.031 575.875 526.031C577.875 526.031 579.387 526.823 580.411 528.407ZM576.139 536.639C577.355 536.639 578.371 536.231 579.187 535.415C580.003 534.567 580.411 533.543 580.411 532.343C580.411 531.127 580.003 530.111 579.187 529.295C578.371 528.463 577.355 528.047 576.139 528.047C574.939 528.047 573.931 528.463 573.115 529.295C572.299 530.111 571.891 531.127 571.891 532.343C571.891 533.543 572.299 534.567 573.115 535.415C573.931 536.231 574.939 536.639 576.139 536.639Z" fill="black"/>
<path d="M724.956 527.351C726.636 527.351 728.02 527.879 729.108 528.935C730.196 529.975 730.74 531.327 730.74 532.991C730.74 534.655 730.196 536.015 729.108 537.071C728.02 538.127 726.636 538.655 724.956 538.655C723.244 538.655 721.852 538.127 720.78 537.071C719.708 536.015 719.172 534.655 719.172 532.991C719.172 531.679 719.508 530.559 720.18 529.631L725.58 521.543H728.124L724.164 527.399C724.644 527.367 724.908 527.351 724.956 527.351ZM724.956 529.487C723.884 529.487 723.02 529.807 722.364 530.447C721.708 531.087 721.38 531.935 721.38 532.991C721.38 534.047 721.708 534.903 722.364 535.559C723.036 536.199 723.9 536.519 724.956 536.519C726.012 536.519 726.868 536.199 727.524 535.559C728.196 534.903 728.532 534.047 728.532 532.991C728.532 531.935 728.196 531.087 727.524 530.447C726.868 529.807 726.012 529.487 724.956 529.487ZM748.766 526.343H750.998V538.343H748.958V529.631L745.142 535.775H744.878L741.062 529.631V538.343H738.998V526.343H741.23L744.998 532.415L748.766 526.343ZM765.706 533.303H755.65C755.858 534.359 756.346 535.191 757.114 535.799C757.882 536.391 758.842 536.687 759.994 536.687C761.578 536.687 762.73 536.103 763.45 534.935L765.226 535.943C764.042 537.751 762.282 538.655 759.946 538.655C758.058 538.655 756.506 538.063 755.29 536.879C754.106 535.663 753.514 534.151 753.514 532.343C753.514 530.519 754.098 529.015 755.266 527.831C756.434 526.631 757.946 526.031 759.802 526.031C761.562 526.031 762.994 526.655 764.098 527.903C765.218 529.119 765.778 530.607 765.778 532.367C765.778 532.671 765.754 532.983 765.706 533.303ZM759.802 527.999C758.698 527.999 757.77 528.311 757.018 528.935C756.282 529.559 755.826 530.407 755.65 531.479H763.666C763.49 530.375 763.05 529.519 762.346 528.911C761.642 528.303 760.794 527.999 759.802 527.999ZM773.794 538.655C771.986 538.655 770.482 538.055 769.282 536.855C768.082 535.639 767.482 534.135 767.482 532.343C767.482 530.551 768.082 529.055 769.282 527.855C770.482 526.639 771.986 526.031 773.794 526.031C774.978 526.031 776.042 526.319 776.986 526.895C777.93 527.455 778.634 528.215 779.098 529.175L777.346 530.183C777.042 529.543 776.57 529.031 775.93 528.647C775.306 528.263 774.594 528.071 773.794 528.071C772.594 528.071 771.586 528.479 770.77 529.295C769.97 530.127 769.57 531.143 769.57 532.343C769.57 533.527 769.97 534.535 770.77 535.367C771.586 536.183 772.594 536.591 773.794 536.591C774.594 536.591 775.314 536.407 775.954 536.039C776.594 535.655 777.082 535.143 777.418 534.503L779.194 535.535C778.666 536.495 777.922 537.255 776.962 537.815C776.002 538.375 774.946 538.655 773.794 538.655ZM784.886 526.343H789.998V538.343H787.934V534.023H786.182L782.822 538.343H780.278L783.782 533.903C782.87 533.679 782.134 533.231 781.574 532.559C781.03 531.887 780.758 531.103 780.758 530.207C780.758 529.103 781.15 528.183 781.934 527.447C782.718 526.711 783.702 526.343 784.886 526.343ZM784.958 532.151H787.934V528.287H784.958C784.35 528.287 783.838 528.471 783.422 528.839C783.022 529.191 782.822 529.655 782.822 530.231C782.822 530.791 783.022 531.255 783.422 531.623C783.838 531.975 784.35 532.151 784.958 532.151ZM803.242 526.343V536.351H805.21V541.559H803.146V538.343H793.162V526.343H795.25V536.351H801.154V526.343H803.242ZM818.487 533.303H808.431C808.639 534.359 809.127 535.191 809.895 535.799C810.663 536.391 811.623 536.687 812.775 536.687C814.359 536.687 815.511 536.103 816.231 534.935L818.007 535.943C816.823 537.751 815.063 538.655 812.727 538.655C810.839 538.655 809.287 538.063 808.071 536.879C806.887 535.663 806.295 534.151 806.295 532.343C806.295 530.519 806.879 529.015 808.047 527.831C809.215 526.631 810.727 526.031 812.583 526.031C814.343 526.031 815.775 526.655 816.879 527.903C817.999 529.119 818.559 530.607 818.559 532.367C818.559 532.671 818.535 532.983 818.487 533.303ZM812.583 527.999C811.479 527.999 810.551 528.311 809.799 528.935C809.063 529.559 808.607 530.407 808.431 531.479H816.447C816.271 530.375 815.831 529.519 815.127 528.911C814.423 528.303 813.575 527.999 812.583 527.999ZM828.951 532.175C830.183 532.687 830.799 533.615 830.799 534.959C830.799 535.983 830.463 536.807 829.791 537.431C829.119 538.039 828.175 538.343 826.959 538.343H820.959V526.343H826.479C827.663 526.343 828.583 526.639 829.239 527.231C829.911 527.823 830.247 528.615 830.247 529.607C830.247 530.759 829.815 531.615 828.951 532.175ZM826.383 528.215H822.999V531.359H826.383C827.599 531.359 828.207 530.823 828.207 529.751C828.207 528.727 827.599 528.215 826.383 528.215ZM822.999 536.447H826.839C827.447 536.447 827.911 536.303 828.231 536.015C828.567 535.727 828.735 535.319 828.735 534.791C828.735 534.295 828.567 533.911 828.231 533.639C827.911 533.351 827.447 533.207 826.839 533.207H822.999V536.447Z" fill="black"/>
<path d="M956.432 523.655V521.543H966.92V523.535L960.8 538.343H958.472L964.544 523.655H956.432ZM985.118 526.343H987.35V538.343H985.31V529.631L981.494 535.775H981.23L977.414 529.631V538.343H975.35V526.343H977.582L981.35 532.415L985.118 526.343ZM1002.06 533.303H992.001C992.209 534.359 992.697 535.191 993.465 535.799C994.233 536.391 995.193 536.687 996.345 536.687C997.929 536.687 999.081 536.103 999.801 534.935L1001.58 535.943C1000.39 537.751 998.633 538.655 996.297 538.655C994.409 538.655 992.857 538.063 991.641 536.879C990.457 535.663 989.865 534.151 989.865 532.343C989.865 530.519 990.449 529.015 991.617 527.831C992.785 526.631 994.297 526.031 996.153 526.031C997.913 526.031 999.345 526.655 1000.45 527.903C1001.57 529.119 1002.13 530.607 1002.13 532.367C1002.13 532.671 1002.11 532.983 1002.06 533.303ZM996.153 527.999C995.049 527.999 994.121 528.311 993.369 528.935C992.633 529.559 992.177 530.407 992.001 531.479H1000.02C999.841 530.375 999.401 529.519 998.697 528.911C997.993 528.303 997.145 527.999 996.153 527.999ZM1010.15 538.655C1008.34 538.655 1006.83 538.055 1005.63 536.855C1004.43 535.639 1003.83 534.135 1003.83 532.343C1003.83 530.551 1004.43 529.055 1005.63 527.855C1006.83 526.639 1008.34 526.031 1010.15 526.031C1011.33 526.031 1012.39 526.319 1013.34 526.895C1014.28 527.455 1014.99 528.215 1015.45 529.175L1013.7 530.183C1013.39 529.543 1012.92 529.031 1012.28 528.647C1011.66 528.263 1010.95 528.071 1010.15 528.071C1008.95 528.071 1007.94 528.479 1007.12 529.295C1006.32 530.127 1005.92 531.143 1005.92 532.343C1005.92 533.527 1006.32 534.535 1007.12 535.367C1007.94 536.183 1008.95 536.591 1010.15 536.591C1010.95 536.591 1011.67 536.407 1012.31 536.039C1012.95 535.655 1013.43 535.143 1013.77 534.503L1015.55 535.535C1015.02 536.495 1014.27 537.255 1013.31 537.815C1012.35 538.375 1011.3 538.655 1010.15 538.655ZM1021.24 526.343H1026.35V538.343H1024.29V534.023H1022.53L1019.17 538.343H1016.63L1020.13 533.903C1019.22 533.679 1018.49 533.231 1017.93 532.559C1017.38 531.887 1017.11 531.103 1017.11 530.207C1017.11 529.103 1017.5 528.183 1018.29 527.447C1019.07 526.711 1020.05 526.343 1021.24 526.343ZM1021.31 532.151H1024.29V528.287H1021.31C1020.7 528.287 1020.19 528.471 1019.77 528.839C1019.37 529.191 1019.17 529.655 1019.17 530.231C1019.17 530.791 1019.37 531.255 1019.77 531.623C1020.19 531.975 1020.7 532.151 1021.31 532.151ZM1039.59 526.343V536.351H1041.56V541.559H1039.5V538.343H1029.51V526.343H1031.6V536.351H1037.51V526.343H1039.59ZM1054.84 533.303H1044.78C1044.99 534.359 1045.48 535.191 1046.25 535.799C1047.01 536.391 1047.97 536.687 1049.13 536.687C1050.71 536.687 1051.86 536.103 1052.58 534.935L1054.36 535.943C1053.17 537.751 1051.41 538.655 1049.08 538.655C1047.19 538.655 1045.64 538.063 1044.42 536.879C1043.24 535.663 1042.65 534.151 1042.65 532.343C1042.65 530.519 1043.23 529.015 1044.4 527.831C1045.57 526.631 1047.08 526.031 1048.93 526.031C1050.69 526.031 1052.13 526.655 1053.23 527.903C1054.35 529.119 1054.91 530.607 1054.91 532.367C1054.91 532.671 1054.89 532.983 1054.84 533.303ZM1048.93 527.999C1047.83 527.999 1046.9 528.311 1046.15 528.935C1045.41 529.559 1044.96 530.407 1044.78 531.479H1052.8C1052.62 530.375 1052.18 529.519 1051.48 528.911C1050.77 528.303 1049.93 527.999 1048.93 527.999ZM1065.3 532.175C1066.53 532.687 1067.15 533.615 1067.15 534.959C1067.15 535.983 1066.81 536.807 1066.14 537.431C1065.47 538.039 1064.53 538.343 1063.31 538.343H1057.31V526.343H1062.83C1064.01 526.343 1064.93 526.639 1065.59 527.231C1066.26 527.823 1066.6 528.615 1066.6 529.607C1066.6 530.759 1066.17 531.615 1065.3 532.175ZM1062.73 528.215H1059.35V531.359H1062.73C1063.95 531.359 1064.56 530.823 1064.56 529.751C1064.56 528.727 1063.95 528.215 1062.73 528.215ZM1059.35 536.447H1063.19C1063.8 536.447 1064.26 536.303 1064.58 536.015C1064.92 535.727 1065.09 535.319 1065.09 534.791C1065.09 534.295 1064.92 533.911 1064.58 533.639C1064.26 533.351 1063.8 533.207 1063.19 533.207H1059.35V536.447Z" fill="black"/>
<path d="M253 345.343C199.69 387.657 63.3333 417.843 7 422.343V504.343H1176.5V3.34265C1142.5 74.8427 1006 101.928 969.5 104.343C837 113.107 792.569 126.553 730.5 181.343C649.5 252.843 576.46 260.565 488.5 264.343C407 267.843 333 281.843 253 345.343Z" fill="url(#paint0_linear_1024_686)" fill-opacity="0.8"/>
<path d="M253 345.343C199.69 387.657 63.3333 417.843 7 422.343V504.343H1176.5V3.34265C1142.5 74.8427 1006 101.928 969.5 104.343C837 113.107 792.569 126.553 730.5 181.343C649.5 252.843 576.46 260.565 488.5 264.343C407 267.843 333 281.843 253 345.343Z" fill="url(#paint1_linear_1024_686)"/>
<path fill-rule="evenodd" clip-rule="evenodd" d="M1178.5 1.84269V0L1176.96 1.00424L1166.96 7.50424L1168.05 9.18113L1173.77 5.46071C1156.19 39.1648 1115.17 62.7745 1073.41 78.3443C1030.61 94.3053 987.503 101.649 969.401 102.846C903.144 107.229 858.751 112.788 823.133 124.154C787.451 135.541 760.648 152.73 729.508 180.218C648.904 251.368 576.302 259.071 488.436 262.844C406.755 266.352 332.404 280.401 252.068 344.168C225.667 365.123 178.509 383.185 130.729 396.579C83.0018 409.958 34.9272 418.607 6.88086 420.847L7.11974 423.838C35.4067 421.578 83.6772 412.885 131.539 399.468C179.348 386.065 227.023 367.877 253.933 346.518C333.596 283.285 407.246 269.334 488.565 265.841C576.619 262.06 650.096 254.318 731.493 182.467C762.422 155.166 788.869 138.237 824.045 127.012C859.284 115.767 903.357 110.221 969.599 105.839C987.998 104.622 1031.39 97.2157 1074.46 81.1553C1116.37 65.5296 1158.41 41.5514 1176.5 6.7109V12.3427H1178.5V1.84269Z" fill="#FAD350"/>
<path d="M16.854 462.343H15.18V452.947L8.7 462.343H7.35V449.743H9.024V459.157L15.504 449.743H16.854V462.343ZM24.2472 457.735C25.2432 458.155 25.7412 458.869 25.7412 459.877C25.7412 460.657 25.4352 461.305 24.8232 461.821C24.2112 462.325 23.3652 462.577 22.2852 462.577C20.4852 462.577 19.2792 461.857 18.6672 460.417L19.9812 459.643C20.3172 460.627 21.0912 461.119 22.3032 461.119C22.8912 461.119 23.3532 460.993 23.6892 460.741C24.0252 460.489 24.1932 460.153 24.1932 459.733C24.1932 459.373 24.0552 459.079 23.7792 458.851C23.5152 458.623 23.1552 458.509 22.6992 458.509H21.3852V457.087H22.3572C22.8132 457.087 23.1672 456.979 23.4192 456.763C23.6712 456.535 23.7972 456.229 23.7972 455.845C23.7972 455.449 23.6472 455.137 23.3472 454.909C23.0472 454.669 22.6452 454.549 22.1412 454.549C21.1332 454.549 20.4492 454.975 20.0892 455.827L18.8112 455.089C19.4472 453.769 20.5572 453.109 22.1412 453.109C23.1012 453.109 23.8692 453.361 24.4452 453.865C25.0332 454.357 25.3272 454.975 25.3272 455.719C25.3272 456.631 24.9672 457.303 24.2472 457.735ZM30.7764 460.399L33.3684 453.343H35.0424L31.3704 462.901C30.9864 463.921 30.4464 464.695 29.7504 465.223C29.0544 465.763 28.2624 466.003 27.3744 465.943V464.485C28.4664 464.569 29.2764 463.969 29.8044 462.685L29.9484 462.361L26.0424 453.343H27.6984L30.7764 460.399ZM42.0201 457.645V453.343H43.5861V462.343H42.0201V459.103C41.2881 459.415 40.4781 459.571 39.5901 459.571C38.4261 459.571 37.5321 459.295 36.9081 458.743C36.2841 458.191 35.9721 457.387 35.9721 456.331V453.343H37.5381V456.241C37.5381 456.901 37.7121 457.381 38.0601 457.681C38.4201 457.969 38.9661 458.113 39.6981 458.113C40.5261 458.113 41.3001 457.957 42.0201 457.645ZM54.6053 458.563H47.0633C47.2193 459.355 47.5853 459.979 48.1613 460.435C48.7373 460.879 49.4573 461.101 50.3213 461.101C51.5093 461.101 52.3733 460.663 52.9133 459.787L54.2453 460.543C53.3573 461.899 52.0373 462.577 50.2853 462.577C48.8693 462.577 47.7053 462.133 46.7933 461.245C45.9053 460.333 45.4613 459.199 45.4613 457.843C45.4613 456.475 45.8993 455.347 46.7753 454.459C47.6513 453.559 48.7853 453.109 50.1773 453.109C51.4973 453.109 52.5713 453.577 53.3993 454.513C54.2393 455.425 54.6593 456.541 54.6593 457.861C54.6593 458.089 54.6413 458.323 54.6053 458.563ZM50.1773 454.585C49.3493 454.585 48.6533 454.819 48.0893 455.287C47.5373 455.755 47.1953 456.391 47.0633 457.195H53.0753C52.9433 456.367 52.6133 455.725 52.0853 455.269C51.5573 454.813 50.9213 454.585 50.1773 454.585ZM62.6875 457.087V453.343H64.2535V462.343H62.6875V458.581H58.0255V462.343H56.4595V453.343H58.0255V457.087H62.6875ZM68.1852 459.661L73.1712 453.343H74.4312V462.343H72.8832V456.025L67.8972 462.343H66.6372V453.343H68.1852V459.661ZM85.455 458.563H77.913C78.069 459.355 78.435 459.979 79.011 460.435C79.587 460.879 80.307 461.101 81.171 461.101C82.359 461.101 83.223 460.663 83.763 459.787L85.095 460.543C84.207 461.899 82.887 462.577 81.135 462.577C79.719 462.577 78.555 462.133 77.643 461.245C76.755 460.333 76.311 459.199 76.311 457.843C76.311 456.475 76.749 455.347 77.625 454.459C78.501 453.559 79.635 453.109 81.027 453.109C82.347 453.109 83.421 453.577 84.249 454.513C85.089 455.425 85.509 456.541 85.509 457.861C85.509 458.089 85.491 458.323 85.455 458.563ZM81.027 454.585C80.199 454.585 79.503 454.819 78.939 455.287C78.387 455.755 78.045 456.391 77.913 457.195H83.925C83.793 456.367 83.463 455.725 82.935 455.269C82.407 454.813 81.771 454.585 81.027 454.585ZM99.4051 461.209C98.4931 462.121 97.3711 462.577 96.0391 462.577C94.7071 462.577 93.5851 462.121 92.6731 461.209C91.7611 460.297 91.3051 459.175 91.3051 457.843C91.3051 456.511 91.7611 455.389 92.6731 454.477C93.5851 453.565 94.7071 453.109 96.0391 453.109C97.3711 453.109 98.4931 453.565 99.4051 454.477C100.329 455.401 100.791 456.523 100.791 457.843C100.791 459.163 100.329 460.285 99.4051 461.209ZM96.0391 461.047C96.9391 461.047 97.6951 460.741 98.3071 460.129C98.9191 459.517 99.2251 458.755 99.2251 457.843C99.2251 456.931 98.9191 456.169 98.3071 455.557C97.6951 454.945 96.9391 454.639 96.0391 454.639C95.1511 454.639 94.4011 454.945 93.7891 455.557C93.1771 456.169 92.8711 456.931 92.8711 457.843C92.8711 458.755 93.1771 459.517 93.7891 460.129C94.4011 460.741 95.1511 461.047 96.0391 461.047ZM106.867 462.577C105.511 462.577 104.383 462.127 103.483 461.227C102.583 460.315 102.133 459.187 102.133 457.843C102.133 456.499 102.583 455.377 103.483 454.477C104.383 453.565 105.511 453.109 106.867 453.109C107.755 453.109 108.553 453.325 109.261 453.757C109.969 454.177 110.497 454.747 110.845 455.467L109.531 456.223C109.303 455.743 108.949 455.359 108.469 455.071C108.001 454.783 107.467 454.639 106.867 454.639C105.967 454.639 105.211 454.945 104.599 455.557C103.999 456.181 103.699 456.943 103.699 457.843C103.699 458.731 103.999 459.487 104.599 460.111C105.211 460.723 105.967 461.029 106.867 461.029C107.467 461.029 108.007 460.891 108.487 460.615C108.967 460.327 109.333 459.943 109.585 459.463L110.917 460.237C110.521 460.957 109.963 461.527 109.243 461.947C108.523 462.367 107.731 462.577 106.867 462.577ZM118.709 457.087V453.343H120.275V462.343H118.709V458.581H114.047V462.343H112.481V453.343H114.047V457.087H118.709ZM130.255 461.209C129.343 462.121 128.221 462.577 126.889 462.577C125.557 462.577 124.435 462.121 123.523 461.209C122.611 460.297 122.155 459.175 122.155 457.843C122.155 456.511 122.611 455.389 123.523 454.477C124.435 453.565 125.557 453.109 126.889 453.109C128.221 453.109 129.343 453.565 130.255 454.477C131.179 455.401 131.641 456.523 131.641 457.843C131.641 459.163 131.179 460.285 130.255 461.209ZM126.889 461.047C127.789 461.047 128.545 460.741 129.157 460.129C129.769 459.517 130.075 458.755 130.075 457.843C130.075 456.931 129.769 456.169 129.157 455.557C128.545 454.945 127.789 454.639 126.889 454.639C126.001 454.639 125.251 454.945 124.639 455.557C124.027 456.169 123.721 456.931 123.721 457.843C123.721 458.755 124.027 459.517 124.639 460.129C125.251 460.741 126.001 461.047 126.889 461.047ZM139.481 457.717C140.405 458.101 140.867 458.797 140.867 459.805C140.867 460.573 140.615 461.191 140.111 461.659C139.607 462.115 138.899 462.343 137.987 462.343H133.487V453.343H137.627C138.515 453.343 139.205 453.565 139.697 454.009C140.201 454.453 140.453 455.047 140.453 455.791C140.453 456.655 140.129 457.297 139.481 457.717ZM137.555 454.747H135.017V457.105H137.555C138.467 457.105 138.923 456.703 138.923 455.899C138.923 455.131 138.467 454.747 137.555 454.747ZM135.017 460.921H137.897C138.353 460.921 138.701 460.813 138.941 460.597C139.193 460.381 139.319 460.075 139.319 459.679C139.319 459.307 139.193 459.019 138.941 458.815C138.701 458.599 138.353 458.491 137.897 458.491H135.017V460.921ZM150.297 453.109C151.653 453.109 152.757 453.553 153.609 454.441C154.461 455.329 154.887 456.463 154.887 457.843C154.887 459.199 154.461 460.333 153.609 461.245C152.757 462.133 151.647 462.577 150.279 462.577C149.319 462.577 148.479 462.367 147.759 461.947C147.039 461.515 146.517 460.933 146.193 460.201L147.525 459.427C147.717 459.931 148.053 460.333 148.533 460.633C149.013 460.921 149.595 461.065 150.279 461.065C151.059 461.065 151.713 460.843 152.241 460.399C152.769 459.943 153.105 459.337 153.249 458.581H149.235V457.105H153.249C153.105 456.349 152.769 455.749 152.241 455.305C151.725 454.849 151.083 454.621 150.315 454.621C149.679 454.621 149.121 454.765 148.641 455.053C148.173 455.341 147.825 455.737 147.597 456.241L146.247 455.467C146.607 454.735 147.147 454.159 147.867 453.739C148.587 453.319 149.397 453.109 150.297 453.109ZM162.413 462.523V465.943H160.865V462.523C159.461 462.367 158.339 461.857 157.499 460.993C156.659 460.141 156.239 459.091 156.239 457.843C156.239 456.595 156.659 455.545 157.499 454.693C158.339 453.829 159.461 453.319 160.865 453.163V449.743H162.413V453.163C163.817 453.319 164.939 453.829 165.779 454.693C166.619 455.545 167.039 456.595 167.039 457.843C167.039 459.091 166.619 460.141 165.779 460.993C164.939 461.857 163.817 462.367 162.413 462.523ZM157.787 457.843C157.787 458.683 158.057 459.391 158.597 459.967C159.149 460.531 159.905 460.879 160.865 461.011V454.675C159.917 454.795 159.167 455.143 158.615 455.719C158.063 456.283 157.787 456.991 157.787 457.843ZM162.413 454.675V461.011C163.361 460.879 164.105 460.531 164.645 459.967C165.197 459.391 165.473 458.683 165.473 457.843C165.473 457.003 165.197 456.301 164.645 455.737C164.105 455.161 163.361 454.807 162.413 454.675ZM174.559 462.523V465.943H173.011V462.523C171.607 462.367 170.485 461.857 169.645 460.993C168.805 460.141 168.385 459.091 168.385 457.843C168.385 456.595 168.805 455.545 169.645 454.693C170.485 453.829 171.607 453.319 173.011 453.163V449.743H174.559V453.163C175.963 453.319 177.085 453.829 177.925 454.693C178.765 455.545 179.185 456.595 179.185 457.843C179.185 459.091 178.765 460.141 177.925 460.993C177.085 461.857 175.963 462.367 174.559 462.523ZM169.933 457.843C169.933 458.683 170.203 459.391 170.743 459.967C171.295 460.531 172.051 460.879 173.011 461.011V454.675C172.063 454.795 171.313 455.143 170.761 455.719C170.209 456.283 169.933 456.991 169.933 457.843ZM174.559 454.675V461.011C175.507 460.879 176.251 460.531 176.791 459.967C177.343 459.391 177.619 458.683 177.619 457.843C177.619 457.003 177.343 456.301 176.791 455.737C176.251 455.161 175.507 454.807 174.559 454.675ZM189.676 458.563H182.134C182.29 459.355 182.656 459.979 183.232 460.435C183.808 460.879 184.528 461.101 185.392 461.101C186.58 461.101 187.444 460.663 187.984 459.787L189.316 460.543C188.428 461.899 187.108 462.577 185.356 462.577C183.94 462.577 182.776 462.133 181.864 461.245C180.976 460.333 180.532 459.199 180.532 457.843C180.532 456.475 180.97 455.347 181.846 454.459C182.722 453.559 183.856 453.109 185.248 453.109C186.568 453.109 187.642 453.577 188.47 454.513C189.31 455.425 189.73 456.541 189.73 457.861C189.73 458.089 189.712 458.323 189.676 458.563ZM185.248 454.585C184.42 454.585 183.724 454.819 183.16 455.287C182.608 455.755 182.266 456.391 182.134 457.195H188.146C188.014 456.367 187.684 455.725 187.156 455.269C186.628 454.813 185.992 454.585 185.248 454.585ZM194.698 457.699L199.144 462.343H197.2L193.096 458.077V462.343H191.53V453.343H193.096V457.321L196.984 453.343H199L194.698 457.699ZM199.592 453.343H207.296V454.855H204.236V462.343H202.67V454.855H199.592V453.343ZM210.216 459.661L215.202 453.343H216.462V462.343H214.914V456.025L209.928 462.343H208.668V453.343H210.216V459.661ZM224.84 457.717C225.764 458.101 226.226 458.797 226.226 459.805C226.226 460.573 225.974 461.191 225.47 461.659C224.966 462.115 224.258 462.343 223.346 462.343H218.846V453.343H222.986C223.874 453.343 224.564 453.565 225.056 454.009C225.56 454.453 225.812 455.047 225.812 455.791C225.812 456.655 225.488 457.297 224.84 457.717ZM222.914 454.747H220.376V457.105H222.914C223.826 457.105 224.282 456.703 224.282 455.899C224.282 455.131 223.826 454.747 222.914 454.747ZM220.376 460.921H223.256C223.712 460.921 224.06 460.813 224.3 460.597C224.552 460.381 224.678 460.075 224.678 459.679C224.678 459.307 224.552 459.019 224.3 458.815C224.06 458.599 223.712 458.491 223.256 458.491H220.376V460.921ZM234.145 457.087V453.343H235.711V462.343H234.145V458.581H229.483V462.343H227.917V453.343H229.483V457.087H234.145ZM245.69 461.209C244.778 462.121 243.656 462.577 242.324 462.577C240.992 462.577 239.87 462.121 238.958 461.209C238.046 460.297 237.59 459.175 237.59 457.843C237.59 456.511 238.046 455.389 238.958 454.477C239.87 453.565 240.992 453.109 242.324 453.109C243.656 453.109 244.778 453.565 245.69 454.477C246.614 455.401 247.076 456.523 247.076 457.843C247.076 459.163 246.614 460.285 245.69 461.209ZM242.324 461.047C243.224 461.047 243.98 460.741 244.592 460.129C245.204 459.517 245.51 458.755 245.51 457.843C245.51 456.931 245.204 456.169 244.592 455.557C243.98 454.945 243.224 454.639 242.324 454.639C241.436 454.639 240.686 454.945 240.074 455.557C239.462 456.169 239.156 456.931 239.156 457.843C239.156 458.755 239.462 459.517 240.074 460.129C240.686 460.741 241.436 461.047 242.324 461.047ZM248.922 453.343H254.826V454.855H250.488V462.343H248.922V453.343ZM263.444 461.209C262.532 462.121 261.41 462.577 260.078 462.577C258.746 462.577 257.624 462.121 256.712 461.209C255.8 460.297 255.344 459.175 255.344 457.843C255.344 456.511 255.8 455.389 256.712 454.477C257.624 453.565 258.746 453.109 260.078 453.109C261.41 453.109 262.532 453.565 263.444 454.477C264.368 455.401 264.83 456.523 264.83 457.843C264.83 459.163 264.368 460.285 263.444 461.209ZM260.078 461.047C260.978 461.047 261.734 460.741 262.346 460.129C262.958 459.517 263.264 458.755 263.264 457.843C263.264 456.931 262.958 456.169 262.346 455.557C261.734 454.945 260.978 454.639 260.078 454.639C259.19 454.639 258.44 454.945 257.828 455.557C257.216 456.169 256.91 456.931 256.91 457.843C256.91 458.755 257.216 459.517 257.828 460.129C258.44 460.741 259.19 461.047 260.078 461.047ZM10.878 482.399L13.47 475.343H15.144L11.472 484.901C11.088 485.921 10.548 486.695 9.852 487.223C9.156 487.763 8.364 488.003 7.476 487.943V486.485C8.568 486.569 9.378 485.969 9.906 484.685L10.05 484.361L6.144 475.343H7.8L10.878 482.399ZM16.4517 475.343H24.2457V484.343H22.6797V476.837H18.0177V484.343H16.4517V475.343ZM31.5974 475.109C32.8574 475.109 33.9314 475.571 34.8194 476.495C35.7074 477.419 36.1514 478.535 36.1514 479.843C36.1514 481.163 35.7074 482.285 34.8194 483.209C33.9434 484.121 32.8694 484.577 31.5974 484.577C30.1094 484.577 28.9754 483.983 28.1954 482.795V487.943H26.6294V475.343H28.1954V476.891C28.9754 475.703 30.1094 475.109 31.5974 475.109ZM31.3994 483.065C32.2994 483.065 33.0554 482.759 33.6674 482.147C34.2794 481.511 34.5854 480.743 34.5854 479.843C34.5854 478.931 34.2794 478.169 33.6674 477.557C33.0554 476.933 32.2994 476.621 31.3994 476.621C30.4874 476.621 29.7254 476.933 29.1134 477.557C28.5014 478.169 28.1954 478.931 28.1954 479.843C28.1954 480.743 28.5014 481.511 29.1134 482.147C29.7254 482.759 30.4874 483.065 31.3994 483.065ZM45.472 476.891V475.343H47.038V484.343H45.472V482.795C44.704 483.983 43.57 484.577 42.07 484.577C40.798 484.577 39.724 484.121 38.848 483.209C37.96 482.285 37.516 481.163 37.516 479.843C37.516 478.535 37.96 477.419 38.848 476.495C39.736 475.571 40.81 475.109 42.07 475.109C43.57 475.109 44.704 475.703 45.472 476.891ZM42.268 483.065C43.18 483.065 43.942 482.759 44.554 482.147C45.166 481.511 45.472 480.743 45.472 479.843C45.472 478.931 45.166 478.169 44.554 477.557C43.942 476.933 43.18 476.621 42.268 476.621C41.368 476.621 40.612 476.933 40 477.557C39.388 478.169 39.082 478.931 39.082 479.843C39.082 480.743 39.388 481.511 40 482.147C40.612 482.759 41.368 483.065 42.268 483.065ZM55.4047 479.717C56.3287 480.101 56.7907 480.797 56.7907 481.805C56.7907 482.573 56.5387 483.191 56.0347 483.659C55.5307 484.115 54.8227 484.343 53.9107 484.343H49.4107V475.343H53.5507C54.4387 475.343 55.1287 475.565 55.6207 476.009C56.1247 476.453 56.3767 477.047 56.3767 477.791C56.3767 478.655 56.0527 479.297 55.4047 479.717ZM53.4787 476.747H50.9407V479.105H53.4787C54.3907 479.105 54.8467 478.703 54.8467 477.899C54.8467 477.131 54.3907 476.747 53.4787 476.747ZM50.9407 482.921H53.8207C54.2767 482.921 54.6247 482.813 54.8647 482.597C55.1167 482.381 55.2427 482.075 55.2427 481.679C55.2427 481.307 55.1167 481.019 54.8647 480.815C54.6247 480.599 54.2767 480.491 53.8207 480.491H50.9407V482.921ZM59.0453 475.343H65.7233V484.343H64.1573V476.855H60.6113V480.527C60.6113 481.967 60.3233 482.993 59.7473 483.605C59.1713 484.205 58.3253 484.451 57.2093 484.343V482.867C57.8333 482.951 58.2953 482.813 58.5953 482.453C58.8953 482.081 59.0453 481.427 59.0453 480.491V475.343ZM76.7362 480.563H69.1942C69.3502 481.355 69.7162 481.979 70.2922 482.435C70.8682 482.879 71.5882 483.101 72.4522 483.101C73.6402 483.101 74.5042 482.663 75.0442 481.787L76.3762 482.543C75.4882 483.899 74.1682 484.577 72.4162 484.577C71.0002 484.577 69.8362 484.133 68.9242 483.245C68.0362 482.333 67.5922 481.199 67.5922 479.843C67.5922 478.475 68.0302 477.347 68.9062 476.459C69.7822 475.559 70.9162 475.109 72.3082 475.109C73.6282 475.109 74.7022 475.577 75.5302 476.513C76.3702 477.425 76.7902 478.541 76.7902 479.861C76.7902 480.089 76.7722 480.323 76.7362 480.563ZM72.3082 476.585C71.4802 476.585 70.7842 476.819 70.2202 477.287C69.6682 477.755 69.3262 478.391 69.1942 479.195H75.2062C75.0742 478.367 74.7442 477.725 74.2162 477.269C73.6882 476.813 73.0522 476.585 72.3082 476.585ZM84.8183 479.087V475.343H86.3843V484.343H84.8183V480.581H80.1563V484.343H78.5903V475.343H80.1563V479.087H84.8183ZM90.3161 481.661L95.3021 475.343H96.5621V484.343H95.0141V478.025L90.0281 484.343H88.7681V475.343H90.3161V481.661ZM101.844 475.343H105.678V484.343H104.13V481.103H102.816L100.296 484.343H98.3878L101.016 481.013C100.332 480.845 99.7798 480.509 99.3598 480.005C98.9518 479.501 98.7478 478.913 98.7478 478.241C98.7478 477.413 99.0418 476.723 99.6298 476.171C100.218 475.619 100.956 475.343 101.844 475.343ZM101.898 479.699H104.13V476.801H101.898C101.442 476.801 101.058 476.939 100.746 477.215C100.446 477.479 100.296 477.827 100.296 478.259C100.296 478.679 100.446 479.027 100.746 479.303C101.058 479.567 101.442 479.699 101.898 479.699Z" fill="black" fill-opacity="0.4"/>
<rect y="416.343" width="15" height="15" rx="7.5" fill="#292A42"/>
<rect x="244" y="336.343" width="15" height="15" rx="7.5" fill="#292A42"/>
<path d="M249.922 370.743H245.35V383.343H247.024V378.843H249.922C252.244 378.843 253.99 377.079 253.99 374.793C253.99 372.489 252.244 370.743 249.922 370.743ZM249.922 377.277H247.024V372.309H249.922C251.308 372.309 252.334 373.353 252.334 374.793C252.334 376.215 251.308 377.277 249.922 377.277ZM262.572 374.343V375.891C261.852 374.793 260.7 374.109 259.17 374.109C256.668 374.109 254.616 376.179 254.616 378.843C254.616 381.507 256.668 383.577 259.17 383.577C260.7 383.577 261.852 382.893 262.572 381.795V383.343H264.138V374.343H262.572ZM259.368 382.065C257.568 382.065 256.182 380.679 256.182 378.843C256.182 377.007 257.568 375.621 259.368 375.621C261.186 375.621 262.572 377.007 262.572 378.843C262.572 380.679 261.186 382.065 259.368 382.065ZM271.37 378.735C272.09 378.303 272.45 377.583 272.45 376.719C272.45 375.333 271.298 374.109 269.264 374.109C267.626 374.109 266.51 374.883 265.934 376.089L267.212 376.827C267.572 375.963 268.31 375.549 269.264 375.549C270.308 375.549 270.92 376.107 270.92 376.845C270.92 377.619 270.398 378.087 269.48 378.087H268.508V379.509H269.822C270.758 379.509 271.316 380.013 271.316 380.733C271.316 381.525 270.668 382.119 269.426 382.119C268.112 382.119 267.41 381.507 267.104 380.643L265.79 381.417C266.312 382.641 267.41 383.577 269.408 383.577C271.73 383.577 272.864 382.299 272.864 380.877C272.864 379.905 272.324 379.131 271.37 378.735ZM279.529 374.109C277.999 374.109 276.847 374.793 276.127 375.891V374.343H274.561V386.943H276.127V381.795C276.847 382.893 277.999 383.577 279.529 383.577C282.031 383.577 284.083 381.507 284.083 378.843C284.083 376.179 282.031 374.109 279.529 374.109ZM279.331 382.065C277.513 382.065 276.127 380.679 276.127 378.843C276.127 377.007 277.513 375.621 279.331 375.621C281.131 375.621 282.517 377.007 282.517 378.843C282.517 380.679 281.131 382.065 279.331 382.065ZM293.404 374.343V375.891C292.684 374.793 291.532 374.109 290.002 374.109C287.5 374.109 285.448 376.179 285.448 378.843C285.448 381.507 287.5 383.577 290.002 383.577C291.532 383.577 292.684 382.893 293.404 381.795V383.343H294.97V374.343H293.404ZM290.2 382.065C288.4 382.065 287.014 380.679 287.014 378.843C287.014 377.007 288.4 375.621 290.2 375.621C292.018 375.621 293.404 377.007 293.404 378.843C293.404 380.679 292.018 382.065 290.2 382.065ZM301.428 383.577C304.038 383.577 305.892 381.777 305.892 379.347C305.892 376.881 304.056 375.225 301.842 375.225C300.834 375.225 299.502 375.585 298.674 376.629C298.998 375.531 299.628 374.901 301.284 374.199C303.084 373.443 304.758 372.903 305.064 371.175L303.804 370.455C303.516 371.913 302.166 372.165 300.276 373.083C297.378 374.487 296.838 375.981 296.838 378.879C296.838 381.651 298.782 383.577 301.428 383.577ZM301.428 382.065C299.772 382.065 298.476 380.913 298.476 379.257C298.476 377.565 300.078 376.611 301.482 376.611C303.192 376.611 304.326 377.763 304.326 379.347C304.326 380.913 303.12 382.065 301.428 382.065ZM311.785 383.577C314.413 383.577 316.537 381.507 316.537 378.843C316.537 376.179 314.413 374.109 311.785 374.109C309.157 374.109 307.051 376.179 307.051 378.843C307.051 381.507 309.157 383.577 311.785 383.577ZM311.785 382.047C310.003 382.047 308.617 380.661 308.617 378.843C308.617 377.025 310.003 375.639 311.785 375.639C313.585 375.639 314.971 377.025 314.971 378.843C314.971 380.661 313.585 382.047 311.785 382.047ZM324.728 374.343H317.024V375.855H320.102V383.343H321.668V375.855H324.728V374.343ZM333.714 383.343L329.268 378.699L333.57 374.343H331.554L327.666 378.321V374.343H326.1V383.343H327.666V379.077L331.77 383.343H333.714ZM341.796 374.343V375.891C341.076 374.793 339.924 374.109 338.394 374.109C335.892 374.109 333.84 376.179 333.84 378.843C333.84 381.507 335.892 383.577 338.394 383.577C339.924 383.577 341.076 382.893 341.796 381.795V383.343H343.362V374.343H341.796ZM338.592 382.065C336.792 382.065 335.406 380.679 335.406 378.843C335.406 377.007 336.792 375.621 338.592 375.621C340.41 375.621 341.796 377.007 341.796 378.843C341.796 380.679 340.41 382.065 338.592 382.065ZM354.465 383.577C356.229 383.577 357.759 382.641 358.515 381.237L357.183 380.463C356.679 381.399 355.689 382.029 354.465 382.029C352.665 382.029 351.297 380.643 351.297 378.843C351.297 377.025 352.665 375.639 354.465 375.639C355.671 375.639 356.679 376.269 357.129 377.223L358.443 376.467C357.759 375.045 356.247 374.109 354.465 374.109C351.747 374.109 349.731 376.179 349.731 378.843C349.731 381.507 351.747 383.577 354.465 383.577ZM366.616 374.343H358.912V375.855H361.99V383.343H363.556V375.855H366.616V374.343ZM372.957 374.109C371.427 374.109 370.275 374.793 369.555 375.891V374.343H367.989V386.943H369.555V381.795C370.275 382.893 371.427 383.577 372.957 383.577C375.459 383.577 377.511 381.507 377.511 378.843C377.511 376.179 375.459 374.109 372.957 374.109ZM372.759 382.065C370.941 382.065 369.555 380.679 369.555 378.843C369.555 377.007 370.941 375.621 372.759 375.621C374.559 375.621 375.945 377.007 375.945 378.843C375.945 380.679 374.559 382.065 372.759 382.065ZM386.831 374.343V375.891C386.111 374.793 384.959 374.109 383.429 374.109C380.927 374.109 378.875 376.179 378.875 378.843C378.875 381.507 380.927 383.577 383.429 383.577C384.959 383.577 386.111 382.893 386.831 381.795V383.343H388.397V374.343H386.831ZM383.627 382.065C381.827 382.065 380.441 380.679 380.441 378.843C380.441 377.007 381.827 375.621 383.627 375.621C385.445 375.621 386.831 377.007 386.831 378.843C386.831 380.679 385.445 382.065 383.627 382.065ZM397.466 374.343H389.762V375.855H392.84V383.343H394.406V375.855H397.466V374.343ZM399.585 379.563H407.127C407.163 379.329 407.181 379.095 407.181 378.861C407.181 376.341 405.417 374.109 402.699 374.109C399.891 374.109 397.983 376.179 397.983 378.843C397.983 381.543 399.909 383.577 402.807 383.577C404.607 383.577 405.975 382.767 406.767 381.543L405.435 380.787C404.985 381.525 404.085 382.101 402.843 382.101C401.169 382.101 399.891 381.183 399.585 379.563ZM402.699 375.585C404.049 375.585 405.327 376.413 405.597 378.195H399.585C399.837 376.629 401.007 375.585 402.699 375.585ZM414.885 374.343H408.981V383.343H410.547V375.855H414.885V374.343ZM422.792 374.343L417.806 380.661V374.343H416.258V383.343H417.518L422.504 377.025V383.343H424.052V374.343H422.792ZM432.97 374.343L427.984 380.661V374.343H426.436V383.343H427.696L432.682 377.025V383.343H434.23V374.343H432.97ZM447.648 374.343L442.662 380.661V374.343H441.114V383.343H442.374L447.36 377.025V383.343H448.908V374.343H447.648ZM460.022 383.577C462.65 383.577 464.774 381.507 464.774 378.843C464.774 376.179 462.65 374.109 460.022 374.109C457.394 374.109 455.288 376.179 455.288 378.843C455.288 381.507 457.394 383.577 460.022 383.577ZM460.022 382.047C458.24 382.047 456.854 380.661 456.854 378.843C456.854 377.025 458.24 375.639 460.022 375.639C461.822 375.639 463.208 377.025 463.208 378.843C463.208 380.661 461.822 382.047 460.022 382.047ZM474.414 374.343H466.62V383.343H468.186V375.837H472.848V383.343H474.414V374.343ZM481.765 374.109C480.235 374.109 479.083 374.793 478.363 375.891V374.343H476.797V386.943H478.363V381.795C479.083 382.893 480.235 383.577 481.765 383.577C484.267 383.577 486.319 381.507 486.319 378.843C486.319 376.179 484.267 374.109 481.765 374.109ZM481.567 382.065C479.749 382.065 478.363 380.679 478.363 378.843C478.363 377.007 479.749 375.621 481.567 375.621C483.367 375.621 484.753 377.007 484.753 378.843C484.753 380.679 483.367 382.065 481.567 382.065ZM489.286 379.563H496.828C496.864 379.329 496.882 379.095 496.882 378.861C496.882 376.341 495.118 374.109 492.4 374.109C489.592 374.109 487.684 376.179 487.684 378.843C487.684 381.543 489.61 383.577 492.508 383.577C494.308 383.577 495.676 382.767 496.468 381.543L495.136 380.787C494.686 381.525 493.786 382.101 492.544 382.101C490.87 382.101 489.592 381.183 489.286 379.563ZM492.4 375.585C493.75 375.585 495.028 376.413 495.298 378.195H489.286C489.538 376.629 490.708 375.585 492.4 375.585ZM506.071 381.849V374.343H499.429V378.519C499.429 380.229 499.105 381.111 498.565 381.849H497.467V385.755H499.015V383.343H505.765V385.755H507.313V381.849H506.071ZM500.347 381.849C500.761 380.985 500.977 379.959 500.977 378.519V375.801H504.523V381.849H500.347ZM509.747 379.563H517.289C517.325 379.329 517.343 379.095 517.343 378.861C517.343 376.341 515.579 374.109 512.861 374.109C510.053 374.109 508.145 376.179 508.145 378.843C508.145 381.543 510.071 383.577 512.969 383.577C514.769 383.577 516.137 382.767 516.929 381.543L515.597 380.787C515.147 381.525 514.247 382.101 513.005 382.101C511.331 382.101 510.053 381.183 509.747 379.563ZM512.861 375.585C514.211 375.585 515.489 376.413 515.759 378.195H509.747C509.999 376.629 511.169 375.585 512.861 375.585ZM526.298 374.343H519.62V379.491C519.62 381.489 518.954 382.029 517.784 381.867V383.343C519.8 383.523 521.186 382.623 521.186 379.527V375.855H524.732V383.343H526.298V374.343ZM529.768 379.563H537.31C537.346 379.329 537.364 379.095 537.364 378.861C537.364 376.341 535.6 374.109 532.882 374.109C530.074 374.109 528.166 376.179 528.166 378.843C528.166 381.543 530.092 383.577 532.99 383.577C534.79 383.577 536.158 382.767 536.95 381.543L535.618 380.787C535.168 381.525 534.268 382.101 533.026 382.101C531.352 382.101 530.074 381.183 529.768 379.563ZM532.882 375.585C534.232 375.585 535.51 376.413 535.78 378.195H529.768C530.02 376.629 531.19 375.585 532.882 375.585ZM545.393 374.343V378.087H540.731V374.343H539.165V383.343H540.731V379.581H545.393V383.343H546.959V374.343H545.393ZM555.876 374.343L550.89 380.661V374.343H549.342V383.343H550.602L555.588 377.025V383.343H557.136V374.343H555.876ZM560.618 379.563H568.16C568.196 379.329 568.214 379.095 568.214 378.861C568.214 376.341 566.45 374.109 563.732 374.109C560.924 374.109 559.016 376.179 559.016 378.843C559.016 381.543 560.942 383.577 563.84 383.577C565.64 383.577 567.008 382.767 567.8 381.543L566.468 380.787C566.018 381.525 565.118 382.101 563.876 382.101C562.202 382.101 560.924 381.183 560.618 379.563ZM563.732 375.585C565.082 375.585 566.36 376.413 566.63 378.195H560.618C560.87 376.629 562.04 375.585 563.732 375.585ZM250.156 395.109C248.626 395.109 247.474 395.793 246.754 396.891V395.343H245.188V407.943H246.754V402.795C247.474 403.893 248.626 404.577 250.156 404.577C252.658 404.577 254.71 402.507 254.71 399.843C254.71 397.179 252.658 395.109 250.156 395.109ZM249.958 403.065C248.14 403.065 246.754 401.679 246.754 399.843C246.754 398.007 248.14 396.621 249.958 396.621C251.758 396.621 253.144 398.007 253.144 399.843C253.144 401.679 251.758 403.065 249.958 403.065ZM257.677 400.563H265.219C265.255 400.329 265.273 400.095 265.273 399.861C265.273 397.341 263.509 395.109 260.791 395.109C257.983 395.109 256.075 397.179 256.075 399.843C256.075 402.543 258.001 404.577 260.899 404.577C262.699 404.577 264.067 403.767 264.859 402.543L263.527 401.787C263.077 402.525 262.177 403.101 260.935 403.101C259.261 403.101 257.983 402.183 257.677 400.563ZM260.791 396.585C262.141 396.585 263.419 397.413 263.689 399.195H257.677C257.929 397.629 259.099 396.585 260.791 396.585ZM271.285 404.577C273.049 404.577 274.579 403.641 275.335 402.237L274.003 401.463C273.499 402.399 272.509 403.029 271.285 403.029C269.485 403.029 268.117 401.643 268.117 399.843C268.117 398.025 269.485 396.639 271.285 396.639C272.491 396.639 273.499 397.269 273.949 398.223L275.263 397.467C274.579 396.045 273.067 395.109 271.285 395.109C268.567 395.109 266.551 397.179 266.551 399.843C266.551 402.507 268.567 404.577 271.285 404.577ZM282.829 395.343L280.237 402.399L277.159 395.343H275.503L279.409 404.361L279.265 404.685C278.797 405.855 278.041 406.575 276.835 406.485V407.943C278.635 408.069 280.075 406.917 280.831 404.901L284.503 395.343H282.829ZM290.779 395.109C289.249 395.109 288.097 395.793 287.377 396.891V395.343H285.811V407.943H287.377V402.795C288.097 403.893 289.249 404.577 290.779 404.577C293.281 404.577 295.333 402.507 295.333 399.843C295.333 397.179 293.281 395.109 290.779 395.109ZM290.581 403.065C288.763 403.065 287.377 401.679 287.377 399.843C287.377 398.007 288.763 396.621 290.581 396.621C292.381 396.621 293.767 398.007 293.767 399.843C293.767 401.679 292.381 403.065 290.581 403.065ZM301.432 404.577C303.196 404.577 304.726 403.641 305.482 402.237L304.15 401.463C303.646 402.399 302.656 403.029 301.432 403.029C299.632 403.029 298.264 401.643 298.264 399.843C298.264 398.025 299.632 396.639 301.432 396.639C302.638 396.639 303.646 397.269 304.096 398.223L305.41 397.467C304.726 396.045 303.214 395.109 301.432 395.109C298.714 395.109 296.698 397.179 296.698 399.843C296.698 402.507 298.714 404.577 301.432 404.577ZM311.135 404.577C313.763 404.577 315.887 402.507 315.887 399.843C315.887 397.179 313.763 395.109 311.135 395.109C308.507 395.109 306.401 397.179 306.401 399.843C306.401 402.507 308.507 404.577 311.135 404.577ZM311.135 403.047C309.353 403.047 307.967 401.661 307.967 399.843C307.967 398.025 309.353 396.639 311.135 396.639C312.935 396.639 314.321 398.025 314.321 399.843C314.321 401.661 312.935 403.047 311.135 403.047ZM323.727 399.717C324.375 399.303 324.699 398.637 324.699 397.791C324.699 396.387 323.727 395.343 321.873 395.343H317.733V404.343H322.233C324.159 404.343 325.113 403.227 325.113 401.805C325.113 400.833 324.627 400.095 323.727 399.717ZM321.801 396.747C322.701 396.747 323.169 397.179 323.169 397.899C323.169 398.691 322.701 399.105 321.801 399.105H319.263V396.747H321.801ZM322.143 402.921H319.263V400.491H322.143C323.061 400.491 323.565 400.941 323.565 401.679C323.565 402.453 323.079 402.921 322.143 402.921ZM339.043 402.849V395.343H332.401V399.519C332.401 401.229 332.077 402.111 331.537 402.849H330.439V406.755H331.987V404.343H338.737V406.755H340.285V402.849H339.043ZM333.319 402.849C333.733 401.985 333.949 400.959 333.949 399.519V396.801H337.495V402.849H333.319ZM349.479 395.343H342.801V400.491C342.801 402.489 342.135 403.029 340.965 402.867V404.343C342.981 404.523 344.367 403.623 344.367 400.527V396.855H347.913V404.343H349.479V395.343ZM358.584 395.343H354.75C352.968 395.343 351.654 396.603 351.654 398.241C351.654 399.609 352.59 400.689 353.922 401.013L351.294 404.343H353.202L355.722 401.103H357.036V404.343H358.584V395.343ZM354.804 399.699C353.94 399.699 353.202 399.159 353.202 398.259C353.202 397.341 353.94 396.801 354.804 396.801H357.036V399.699H354.804ZM373.198 402.849V395.343H366.556V399.519C366.556 401.229 366.232 402.111 365.692 402.849H364.594V406.755H366.142V404.343H372.892V406.755H374.44V402.849H373.198ZM367.474 402.849C367.888 401.985 368.104 400.959 368.104 399.519V396.801H371.65V402.849H367.474ZM380.006 404.577C382.634 404.577 384.758 402.507 384.758 399.843C384.758 397.179 382.634 395.109 380.006 395.109C377.378 395.109 375.272 397.179 375.272 399.843C375.272 402.507 377.378 404.577 380.006 404.577ZM380.006 403.047C378.224 403.047 376.838 401.661 376.838 399.843C376.838 398.025 378.224 396.639 380.006 396.639C381.806 396.639 383.192 398.025 383.192 399.843C383.192 401.661 381.806 403.047 380.006 403.047ZM390.834 404.577C392.598 404.577 394.128 403.641 394.884 402.237L393.552 401.463C393.048 402.399 392.058 403.029 390.834 403.029C389.034 403.029 387.666 401.643 387.666 399.843C387.666 398.025 389.034 396.639 390.834 396.639C392.04 396.639 393.048 397.269 393.498 398.223L394.812 397.467C394.128 396.045 392.616 395.109 390.834 395.109C388.116 395.109 386.1 397.179 386.1 399.843C386.1 402.507 388.116 404.577 390.834 404.577ZM402.986 395.343H395.282V396.855H398.36V404.343H399.926V396.855H402.986V395.343ZM410.892 395.343L405.906 401.661V395.343H404.358V404.343H405.618L410.604 398.025V404.343H412.152V395.343H410.892ZM425.606 404.343L421.826 399.699L425.426 395.343H423.59L420.404 399.321V395.343H418.856V399.321L415.67 395.343H413.852L417.434 399.699L413.672 404.343H415.49L418.856 400.077V404.343H420.404V400.077L423.77 404.343H425.606ZM427.481 400.563H435.023C435.059 400.329 435.077 400.095 435.077 399.861C435.077 397.341 433.313 395.109 430.595 395.109C427.787 395.109 425.879 397.179 425.879 399.843C425.879 402.543 427.805 404.577 430.703 404.577C432.503 404.577 433.871 403.767 434.663 402.543L433.331 401.787C432.881 402.525 431.981 403.101 430.739 403.101C429.065 403.101 427.787 402.183 427.481 400.563ZM430.595 396.585C431.945 396.585 433.223 397.413 433.493 399.195H427.481C427.733 397.629 428.903 396.585 430.595 396.585ZM443.105 395.343V399.087H438.443V395.343H436.877V404.343H438.443V400.581H443.105V404.343H444.671V395.343H443.105ZM453.589 395.343L448.603 401.661V395.343H447.055V404.343H448.315L453.301 398.025V404.343H454.849V395.343H453.589ZM463.965 395.343H460.131C458.349 395.343 457.035 396.603 457.035 398.241C457.035 399.609 457.971 400.689 459.303 401.013L456.675 404.343H458.583L461.103 401.103H462.417V404.343H463.965V395.343ZM460.185 399.699C459.321 399.699 458.583 399.159 458.583 398.259C458.583 397.341 459.321 396.801 460.185 396.801H462.417V399.699H460.185ZM478.398 402.849V395.343H476.832V402.849H472.404V395.343H470.838V404.343H478.326V406.755H479.874V402.849H478.398ZM482.29 400.563H489.832C489.868 400.329 489.886 400.095 489.886 399.861C489.886 397.341 488.122 395.109 485.404 395.109C482.596 395.109 480.688 397.179 480.688 399.843C480.688 402.543 482.614 404.577 485.512 404.577C487.312 404.577 488.68 403.767 489.472 402.543L488.14 401.787C487.69 402.525 486.79 403.101 485.548 403.101C483.874 403.101 482.596 402.183 482.29 400.563ZM485.404 396.585C486.754 396.585 488.032 397.413 488.302 399.195H482.29C482.542 397.629 483.712 396.585 485.404 396.585ZM498.84 395.343H492.162V400.491C492.162 402.489 491.496 403.029 490.326 402.867V404.343C492.342 404.523 493.728 403.623 493.728 400.527V396.855H497.274V404.343H498.84V395.343ZM507.747 395.343L502.761 401.661V395.343H501.213V404.343H502.473L507.459 398.025V404.343H509.007V395.343H507.747Z" fill="black" fill-opacity="0.4"/>
<rect x="481" y="257.343" width="15" height="15" rx="7.5" fill="#292A42"/>
<path d="M482.35 290.743H491.494V303.343H489.82V292.327H484.024V303.343H482.35V290.743ZM501.632 302.209C500.72 303.121 499.598 303.577 498.266 303.577C496.934 303.577 495.812 303.121 494.9 302.209C493.988 301.297 493.532 300.175 493.532 298.843C493.532 297.511 493.988 296.389 494.9 295.477C495.812 294.565 496.934 294.109 498.266 294.109C499.598 294.109 500.72 294.565 501.632 295.477C502.556 296.401 503.018 297.523 503.018 298.843C503.018 300.163 502.556 301.285 501.632 302.209ZM498.266 302.047C499.166 302.047 499.922 301.741 500.534 301.129C501.146 300.517 501.452 299.755 501.452 298.843C501.452 297.931 501.146 297.169 500.534 296.557C499.922 295.945 499.166 295.639 498.266 295.639C497.378 295.639 496.628 295.945 496.016 296.557C495.404 297.169 495.098 297.931 495.098 298.843C495.098 299.755 495.404 300.517 496.016 301.129C496.628 301.741 497.378 302.047 498.266 302.047ZM504.864 294.343H510.768V295.855H506.43V303.343H504.864V294.343ZM517.109 294.109C518.369 294.109 519.443 294.571 520.331 295.495C521.219 296.419 521.663 297.535 521.663 298.843C521.663 300.163 521.219 301.285 520.331 302.209C519.455 303.121 518.381 303.577 517.109 303.577C515.621 303.577 514.487 302.983 513.707 301.795V306.943H512.141V294.343H513.707V295.891C514.487 294.703 515.621 294.109 517.109 294.109ZM516.911 302.065C517.811 302.065 518.567 301.759 519.179 301.147C519.791 300.511 520.097 299.743 520.097 298.843C520.097 297.931 519.791 297.169 519.179 296.557C518.567 295.933 517.811 295.621 516.911 295.621C515.999 295.621 515.237 295.933 514.625 296.557C514.013 297.169 513.707 297.931 513.707 298.843C513.707 299.743 514.013 300.511 514.625 301.147C515.237 301.759 515.999 302.065 516.911 302.065ZM526.87 301.399L529.462 294.343H531.136L527.464 303.901C527.08 304.921 526.54 305.695 525.844 306.223C525.148 306.763 524.356 307.003 523.468 306.943V305.485C524.56 305.569 525.37 304.969 525.898 303.685L526.042 303.361L522.136 294.343H523.792L526.87 301.399ZM539.541 298.699L543.321 303.343H541.485L538.119 299.077V303.343H536.571V299.077L533.205 303.343H531.387L535.149 298.699L531.567 294.343H533.385L536.571 298.321V294.343H538.119V298.321L541.305 294.343H543.141L539.541 298.699ZM552.738 299.563H545.196C545.352 300.355 545.718 300.979 546.294 301.435C546.87 301.879 547.59 302.101 548.454 302.101C549.642 302.101 550.506 301.663 551.046 300.787L552.378 301.543C551.49 302.899 550.17 303.577 548.418 303.577C547.002 303.577 545.838 303.133 544.926 302.245C544.038 301.333 543.594 300.199 543.594 298.843C543.594 297.475 544.032 296.347 544.908 295.459C545.784 294.559 546.918 294.109 548.31 294.109C549.63 294.109 550.704 294.577 551.532 295.513C552.372 296.425 552.792 297.541 552.792 298.861C552.792 299.089 552.774 299.323 552.738 299.563ZM548.31 295.585C547.482 295.585 546.786 295.819 546.222 296.287C545.67 296.755 545.328 297.391 545.196 298.195H551.208C551.076 297.367 550.746 296.725 550.218 296.269C549.69 295.813 549.054 295.585 548.31 295.585ZM560.82 298.087V294.343H562.386V303.343H560.82V299.581H556.158V303.343H554.592V294.343H556.158V298.087H560.82ZM566.318 300.661L571.304 294.343H572.564V303.343H571.016V297.025L566.03 303.343H564.77V294.343H566.318V300.661ZM583.588 299.563H576.046C576.202 300.355 576.568 300.979 577.144 301.435C577.72 301.879 578.44 302.101 579.304 302.101C580.492 302.101 581.356 301.663 581.896 300.787L583.228 301.543C582.34 302.899 581.02 303.577 579.268 303.577C577.852 303.577 576.688 303.133 575.776 302.245C574.888 301.333 574.444 300.199 574.444 298.843C574.444 297.475 574.882 296.347 575.758 295.459C576.634 294.559 577.768 294.109 579.16 294.109C580.48 294.109 581.554 294.577 582.382 295.513C583.222 296.425 583.642 297.541 583.642 298.861C583.642 299.089 583.624 299.323 583.588 299.563ZM579.16 295.585C578.332 295.585 577.636 295.819 577.072 296.287C576.52 296.755 576.178 297.391 576.046 298.195H582.058C581.926 297.367 581.596 296.725 581.068 296.269C580.54 295.813 579.904 295.585 579.16 295.585ZM595.936 298.717C596.86 299.101 597.322 299.797 597.322 300.805C597.322 301.573 597.07 302.191 596.566 302.659C596.062 303.115 595.354 303.343 594.442 303.343H589.942V294.343H594.082C594.97 294.343 595.66 294.565 596.152 295.009C596.656 295.453 596.908 296.047 596.908 296.791C596.908 297.655 596.584 298.297 595.936 298.717ZM594.01 295.747H591.472V298.105H594.01C594.922 298.105 595.378 297.703 595.378 296.899C595.378 296.131 594.922 295.747 594.01 295.747ZM591.472 301.921H594.352C594.808 301.921 595.156 301.813 595.396 301.597C595.648 301.381 595.774 301.075 595.774 300.679C595.774 300.307 595.648 300.019 595.396 299.815C595.156 299.599 594.808 299.491 594.352 299.491H591.472V301.921ZM606.68 298.699L611.126 303.343H609.182L605.078 299.077V303.343H603.512V294.343H605.078V298.321L608.966 294.343H610.982L606.68 298.699ZM613.411 294.343H620.089V303.343H618.523V295.855H614.977V299.527C614.977 300.967 614.689 301.993 614.113 302.605C613.537 303.205 612.691 303.451 611.575 303.343V301.867C612.199 301.951 612.661 301.813 612.961 301.453C613.261 301.081 613.411 300.427 613.411 299.491V294.343ZM630.327 294.109C631.647 294.109 632.763 294.565 633.675 295.477C634.599 296.401 635.061 297.523 635.061 298.843C635.061 300.163 634.599 301.285 633.675 302.209C632.763 303.121 631.647 303.577 630.327 303.577C629.139 303.577 628.113 303.199 627.249 302.443C626.373 301.687 625.857 300.733 625.701 299.581H624.027V303.343H622.461V294.343H624.027V298.087H625.701C625.869 296.935 626.385 295.987 627.249 295.243C628.137 294.487 629.163 294.109 630.327 294.109ZM630.327 302.047C631.215 302.047 631.965 301.741 632.577 301.129C633.189 300.517 633.495 299.755 633.495 298.843C633.495 297.931 633.189 297.169 632.577 296.557C631.965 295.945 631.215 295.639 630.327 295.639C629.427 295.639 628.671 295.945 628.059 296.557C627.447 297.169 627.141 297.931 627.141 298.843C627.141 299.755 627.447 300.517 628.059 301.129C628.671 301.741 629.427 302.047 630.327 302.047ZM642.405 298.645V294.343H643.971V303.343H642.405V300.103C641.673 300.415 640.863 300.571 639.975 300.571C638.811 300.571 637.917 300.295 637.293 299.743C636.669 299.191 636.357 298.387 636.357 297.331V294.343H637.923V297.241C637.923 297.901 638.097 298.381 638.445 298.681C638.805 298.969 639.351 299.113 640.083 299.113C640.911 299.113 641.685 298.957 642.405 298.645ZM654.99 299.563H647.448C647.604 300.355 647.97 300.979 648.546 301.435C649.122 301.879 649.842 302.101 650.706 302.101C651.894 302.101 652.758 301.663 653.298 300.787L654.63 301.543C653.742 302.899 652.422 303.577 650.67 303.577C649.254 303.577 648.09 303.133 647.178 302.245C646.29 301.333 645.846 300.199 645.846 298.843C645.846 297.475 646.284 296.347 647.16 295.459C648.036 294.559 649.17 294.109 650.562 294.109C651.882 294.109 652.956 294.577 653.784 295.513C654.624 296.425 655.044 297.541 655.044 298.861C655.044 299.089 655.026 299.323 654.99 299.563ZM650.562 295.585C649.734 295.585 649.038 295.819 648.474 296.287C647.922 296.755 647.58 297.391 647.448 298.195H653.46C653.328 297.367 652.998 296.725 652.47 296.269C651.942 295.813 651.306 295.585 650.562 295.585ZM662.838 298.717C663.762 299.101 664.224 299.797 664.224 300.805C664.224 301.573 663.972 302.191 663.468 302.659C662.964 303.115 662.256 303.343 661.344 303.343H656.844V294.343H660.984C661.872 294.343 662.562 294.565 663.054 295.009C663.558 295.453 663.81 296.047 663.81 296.791C663.81 297.655 663.486 298.297 662.838 298.717ZM660.912 295.747H658.374V298.105H660.912C661.824 298.105 662.28 297.703 662.28 296.899C662.28 296.131 661.824 295.747 660.912 295.747ZM658.374 301.921H661.254C661.71 301.921 662.058 301.813 662.298 301.597C662.55 301.381 662.676 301.075 662.676 300.679C662.676 300.307 662.55 300.019 662.298 299.815C662.058 299.599 661.71 299.491 661.254 299.491H658.374V301.921ZM667.481 297.583H669.713C670.613 297.583 671.357 297.853 671.945 298.393C672.545 298.921 672.845 299.611 672.845 300.463C672.845 301.315 672.545 302.011 671.945 302.551C671.345 303.079 670.601 303.343 669.713 303.343H665.915V294.343H667.481V297.583ZM674.015 303.343V294.343H675.581V303.343H674.015ZM667.481 301.885H669.713C670.169 301.885 670.547 301.753 670.847 301.489C671.147 301.225 671.297 300.883 671.297 300.463C671.297 300.043 671.141 299.701 670.829 299.437C670.529 299.161 670.157 299.023 669.713 299.023H667.481V301.885ZM686.613 299.563H679.071C679.227 300.355 679.593 300.979 680.169 301.435C680.745 301.879 681.465 302.101 682.329 302.101C683.517 302.101 684.381 301.663 684.921 300.787L686.253 301.543C685.365 302.899 684.045 303.577 682.293 303.577C680.877 303.577 679.713 303.133 678.801 302.245C677.913 301.333 677.469 300.199 677.469 298.843C677.469 297.475 677.907 296.347 678.783 295.459C679.659 294.559 680.793 294.109 682.185 294.109C683.505 294.109 684.579 294.577 685.407 295.513C686.247 296.425 686.667 297.541 686.667 298.861C686.667 299.089 686.649 299.323 686.613 299.563ZM682.185 295.585C681.357 295.585 680.661 295.819 680.097 296.287C679.545 296.755 679.203 297.391 679.071 298.195H685.083C684.951 297.367 684.621 296.725 684.093 296.269C683.565 295.813 682.929 295.585 682.185 295.585ZM692.967 294.343H700.761V303.343H699.195V295.837H694.533V303.343H692.967V294.343ZM708.113 294.109C709.373 294.109 710.447 294.571 711.335 295.495C712.223 296.419 712.667 297.535 712.667 298.843C712.667 300.163 712.223 301.285 711.335 302.209C710.459 303.121 709.385 303.577 708.113 303.577C706.625 303.577 705.491 302.983 704.711 301.795V306.943H703.145V294.343H704.711V295.891C705.491 294.703 706.625 294.109 708.113 294.109ZM707.915 302.065C708.815 302.065 709.571 301.759 710.183 301.147C710.795 300.511 711.101 299.743 711.101 298.843C711.101 297.931 710.795 297.169 710.183 296.557C709.571 295.933 708.815 295.621 707.915 295.621C707.003 295.621 706.241 295.933 705.629 296.557C705.017 297.169 704.711 297.931 704.711 298.843C704.711 299.743 705.017 300.511 705.629 301.147C706.241 301.759 707.003 302.065 707.915 302.065ZM723.176 299.563H715.634C715.79 300.355 716.156 300.979 716.732 301.435C717.308 301.879 718.028 302.101 718.892 302.101C720.08 302.101 720.944 301.663 721.484 300.787L722.816 301.543C721.928 302.899 720.608 303.577 718.856 303.577C717.44 303.577 716.276 303.133 715.364 302.245C714.476 301.333 714.032 300.199 714.032 298.843C714.032 297.475 714.47 296.347 715.346 295.459C716.222 294.559 717.356 294.109 718.748 294.109C720.068 294.109 721.142 294.577 721.97 295.513C722.81 296.425 723.23 297.541 723.23 298.861C723.23 299.089 723.212 299.323 723.176 299.563ZM718.748 295.585C717.92 295.585 717.224 295.819 716.66 296.287C716.108 296.755 715.766 297.391 715.634 298.195H721.646C721.514 297.367 721.184 296.725 720.656 296.269C720.128 295.813 719.492 295.585 718.748 295.585ZM726.578 300.661L731.564 294.343H732.824V303.343H731.276V297.025L726.29 303.343H725.03V294.343H726.578V300.661ZM742.534 294.343H744.208V303.343H742.678V296.809L739.816 301.417H739.618L736.756 296.809V303.343H735.208V294.343H736.882L739.708 298.897L742.534 294.343ZM750.288 301.399L752.88 294.343H754.554L750.882 303.901C750.498 304.921 749.958 305.695 749.262 306.223C748.566 306.763 747.774 307.003 746.886 306.943V305.485C747.978 305.569 748.788 304.969 749.316 303.685L749.46 303.361L745.554 294.343H747.21L750.288 301.399ZM768.102 294.343V301.849H769.344V305.755H767.796V303.343H755.862V294.343H757.428V301.849H761.208V294.343H762.774V301.849H766.536V294.343H768.102ZM779.32 299.563H771.778C771.934 300.355 772.3 300.979 772.876 301.435C773.452 301.879 774.172 302.101 775.036 302.101C776.224 302.101 777.088 301.663 777.628 300.787L778.96 301.543C778.072 302.899 776.752 303.577 775 303.577C773.584 303.577 772.42 303.133 771.508 302.245C770.62 301.333 770.176 300.199 770.176 298.843C770.176 297.475 770.614 296.347 771.49 295.459C772.366 294.559 773.5 294.109 774.892 294.109C776.212 294.109 777.286 294.577 778.114 295.513C778.954 296.425 779.374 297.541 779.374 298.861C779.374 299.089 779.356 299.323 779.32 299.563ZM774.892 295.585C774.064 295.585 773.368 295.819 772.804 296.287C772.252 296.755 771.91 297.391 771.778 298.195H777.79C777.658 297.367 777.328 296.725 776.8 296.269C776.272 295.813 775.636 295.585 774.892 295.585ZM785.387 303.577C784.031 303.577 782.903 303.127 782.003 302.227C781.103 301.315 780.653 300.187 780.653 298.843C780.653 297.499 781.103 296.377 782.003 295.477C782.903 294.565 784.031 294.109 785.387 294.109C786.275 294.109 787.073 294.325 787.781 294.757C788.489 295.177 789.017 295.747 789.365 296.467L788.051 297.223C787.823 296.743 787.469 296.359 786.989 296.071C786.521 295.783 785.987 295.639 785.387 295.639C784.487 295.639 783.731 295.945 783.119 296.557C782.519 297.181 782.219 297.943 782.219 298.843C782.219 299.731 782.519 300.487 783.119 301.111C783.731 301.723 784.487 302.029 785.387 302.029C785.987 302.029 786.527 301.891 787.007 301.615C787.487 301.327 787.853 300.943 788.105 300.463L789.437 301.237C789.041 301.957 788.483 302.527 787.763 302.947C787.043 303.367 786.251 303.577 785.387 303.577ZM789.834 294.343H797.538V295.855H794.478V303.343H792.912V295.855H789.834V294.343ZM804.905 298.717C805.829 299.101 806.291 299.797 806.291 300.805C806.291 301.573 806.039 302.191 805.535 302.659C805.031 303.115 804.323 303.343 803.411 303.343H798.911V294.343H803.051C803.939 294.343 804.629 294.565 805.121 295.009C805.625 295.453 805.877 296.047 805.877 296.791C805.877 297.655 805.553 298.297 804.905 298.717ZM802.979 295.747H800.441V298.105H802.979C803.891 298.105 804.347 297.703 804.347 296.899C804.347 296.131 803.891 295.747 802.979 295.747ZM800.441 301.921H803.321C803.777 301.921 804.125 301.813 804.365 301.597C804.617 301.381 804.743 301.075 804.743 300.679C804.743 300.307 804.617 300.019 804.365 299.815C804.125 299.599 803.777 299.491 803.321 299.491H800.441V301.921ZM815.433 295.891V294.343H816.999V303.343H815.433V301.795C814.665 302.983 813.531 303.577 812.031 303.577C810.759 303.577 809.685 303.121 808.809 302.209C807.921 301.285 807.477 300.163 807.477 298.843C807.477 297.535 807.921 296.419 808.809 295.495C809.697 294.571 810.771 294.109 812.031 294.109C813.531 294.109 814.665 294.703 815.433 295.891ZM812.229 302.065C813.141 302.065 813.903 301.759 814.515 301.147C815.127 300.511 815.433 299.743 815.433 298.843C815.433 297.931 815.127 297.169 814.515 296.557C813.903 295.933 813.141 295.621 812.229 295.621C811.329 295.621 810.573 295.933 809.961 296.557C809.349 297.169 809.043 297.931 809.043 298.843C809.043 299.743 809.349 300.511 809.961 301.147C810.573 301.759 811.329 302.065 812.229 302.065ZM483.736 322.661L488.722 316.343H489.982V325.343H488.434V319.025L483.448 325.343H482.188V316.343H483.736V322.661ZM500.556 323.399L503.148 316.343H504.822L501.15 325.901C500.766 326.921 500.226 327.695 499.53 328.223C498.834 328.763 498.042 329.003 497.154 328.943V327.485C498.246 327.569 499.056 326.969 499.584 325.685L499.728 325.361L495.822 316.343H497.478L500.556 323.399ZM506.129 316.343H513.923V325.343H512.357V317.837H507.695V325.343H506.129V316.343ZM521.275 316.109C522.535 316.109 523.609 316.571 524.497 317.495C525.385 318.419 525.829 319.535 525.829 320.843C525.829 322.163 525.385 323.285 524.497 324.209C523.621 325.121 522.547 325.577 521.275 325.577C519.787 325.577 518.653 324.983 517.873 323.795V328.943H516.307V316.343H517.873V317.891C518.653 316.703 519.787 316.109 521.275 316.109ZM521.077 324.065C521.977 324.065 522.733 323.759 523.345 323.147C523.957 322.511 524.263 321.743 524.263 320.843C524.263 319.931 523.957 319.169 523.345 318.557C522.733 317.933 521.977 317.621 521.077 317.621C520.165 317.621 519.403 317.933 518.791 318.557C518.179 319.169 517.873 319.931 517.873 320.843C517.873 321.743 518.179 322.511 518.791 323.147C519.403 323.759 520.165 324.065 521.077 324.065ZM535.15 317.891V316.343H536.716V325.343H535.15V323.795C534.382 324.983 533.248 325.577 531.748 325.577C530.476 325.577 529.402 325.121 528.526 324.209C527.638 323.285 527.194 322.163 527.194 320.843C527.194 319.535 527.638 318.419 528.526 317.495C529.414 316.571 530.488 316.109 531.748 316.109C533.248 316.109 534.382 316.703 535.15 317.891ZM531.946 324.065C532.858 324.065 533.62 323.759 534.232 323.147C534.844 322.511 535.15 321.743 535.15 320.843C535.15 319.931 534.844 319.169 534.232 318.557C533.62 317.933 532.858 317.621 531.946 317.621C531.046 317.621 530.29 317.933 529.678 318.557C529.066 319.169 528.76 319.931 528.76 320.843C528.76 321.743 529.066 322.511 529.678 323.147C530.29 323.759 531.046 324.065 531.946 324.065ZM545.082 320.717C546.006 321.101 546.468 321.797 546.468 322.805C546.468 323.573 546.216 324.191 545.712 324.659C545.208 325.115 544.5 325.343 543.588 325.343H539.088V316.343H543.228C544.116 316.343 544.806 316.565 545.298 317.009C545.802 317.453 546.054 318.047 546.054 318.791C546.054 319.655 545.73 320.297 545.082 320.717ZM543.156 317.747H540.618V320.105H543.156C544.068 320.105 544.524 319.703 544.524 318.899C544.524 318.131 544.068 317.747 543.156 317.747ZM540.618 323.921H543.498C543.954 323.921 544.302 323.813 544.542 323.597C544.794 323.381 544.92 323.075 544.92 322.679C544.92 322.307 544.794 322.019 544.542 321.815C544.302 321.599 543.954 321.491 543.498 321.491H540.618V323.921ZM548.723 316.343H555.401V325.343H553.835V317.855H550.289V321.527C550.289 322.967 550.001 323.993 549.425 324.605C548.849 325.205 548.003 325.451 546.887 325.343V323.867C547.511 323.951 547.973 323.813 548.273 323.453C548.573 323.081 548.723 322.427 548.723 321.491V316.343ZM566.414 321.563H558.872C559.028 322.355 559.394 322.979 559.97 323.435C560.546 323.879 561.266 324.101 562.13 324.101C563.318 324.101 564.182 323.663 564.722 322.787L566.054 323.543C565.166 324.899 563.846 325.577 562.094 325.577C560.678 325.577 559.514 325.133 558.602 324.245C557.714 323.333 557.27 322.199 557.27 320.843C557.27 319.475 557.708 318.347 558.584 317.459C559.46 316.559 560.594 316.109 561.986 316.109C563.306 316.109 564.38 316.577 565.208 317.513C566.048 318.425 566.468 319.541 566.468 320.861C566.468 321.089 566.45 321.323 566.414 321.563ZM561.986 317.585C561.158 317.585 560.462 317.819 559.898 318.287C559.346 318.755 559.004 319.391 558.872 320.195H564.884C564.752 319.367 564.422 318.725 563.894 318.269C563.366 317.813 562.73 317.585 561.986 317.585ZM574.496 320.087V316.343H576.062V325.343H574.496V321.581H569.834V325.343H568.268V316.343H569.834V320.087H574.496ZM579.994 322.661L584.98 316.343H586.24V325.343H584.692V319.025L579.706 325.343H578.446V316.343H579.994V322.661ZM597.264 321.563H589.722C589.878 322.355 590.244 322.979 590.82 323.435C591.396 323.879 592.116 324.101 592.98 324.101C594.168 324.101 595.032 323.663 595.572 322.787L596.904 323.543C596.016 324.899 594.696 325.577 592.944 325.577C591.528 325.577 590.364 325.133 589.452 324.245C588.564 323.333 588.12 322.199 588.12 320.843C588.12 319.475 588.558 318.347 589.434 317.459C590.31 316.559 591.444 316.109 592.836 316.109C594.156 316.109 595.23 316.577 596.058 317.513C596.898 318.425 597.318 319.541 597.318 320.861C597.318 321.089 597.3 321.323 597.264 321.563ZM592.836 317.585C592.008 317.585 591.312 317.819 590.748 318.287C590.196 318.755 589.854 319.391 589.722 320.195H595.734C595.602 319.367 595.272 318.725 594.744 318.269C594.216 317.813 593.58 317.585 592.836 317.585ZM603.618 316.343H611.412V325.343H609.846V317.837H605.184V325.343H603.618V316.343ZM618.763 316.109C620.023 316.109 621.097 316.571 621.985 317.495C622.873 318.419 623.317 319.535 623.317 320.843C623.317 322.163 622.873 323.285 621.985 324.209C621.109 325.121 620.035 325.577 618.763 325.577C617.275 325.577 616.141 324.983 615.361 323.795V328.943H613.795V316.343H615.361V317.891C616.141 316.703 617.275 316.109 618.763 316.109ZM618.565 324.065C619.465 324.065 620.221 323.759 620.833 323.147C621.445 322.511 621.751 321.743 621.751 320.843C621.751 319.931 621.445 319.169 620.833 318.557C620.221 317.933 619.465 317.621 618.565 317.621C617.653 317.621 616.891 317.933 616.279 318.557C615.667 319.169 615.361 319.931 615.361 320.843C615.361 321.743 615.667 322.511 616.279 323.147C616.891 323.759 617.653 324.065 618.565 324.065ZM632.782 324.209C631.87 325.121 630.748 325.577 629.416 325.577C628.084 325.577 626.962 325.121 626.05 324.209C625.138 323.297 624.682 322.175 624.682 320.843C624.682 319.511 625.138 318.389 626.05 317.477C626.962 316.565 628.084 316.109 629.416 316.109C630.748 316.109 631.87 316.565 632.782 317.477C633.706 318.401 634.168 319.523 634.168 320.843C634.168 322.163 633.706 323.285 632.782 324.209ZM629.416 324.047C630.316 324.047 631.072 323.741 631.684 323.129C632.296 322.517 632.602 321.755 632.602 320.843C632.602 319.931 632.296 319.169 631.684 318.557C631.072 317.945 630.316 317.639 629.416 317.639C628.528 317.639 627.778 317.945 627.166 318.557C626.554 319.169 626.248 319.931 626.248 320.843C626.248 321.755 626.554 322.517 627.166 323.129C627.778 323.741 628.528 324.047 629.416 324.047ZM643.403 316.343V323.849H644.645V327.755H643.097V325.343H636.347V327.755H634.799V323.849H635.897C636.473 323.057 636.761 321.947 636.761 320.519V316.343H643.403ZM637.679 323.849H641.855V317.801H638.309V320.519C638.309 321.839 638.099 322.949 637.679 323.849ZM653.433 317.891V316.343H654.999V325.343H653.433V323.795C652.665 324.983 651.531 325.577 650.031 325.577C648.759 325.577 647.685 325.121 646.809 324.209C645.921 323.285 645.477 322.163 645.477 320.843C645.477 319.535 645.921 318.419 646.809 317.495C647.697 316.571 648.771 316.109 650.031 316.109C651.531 316.109 652.665 316.703 653.433 317.891ZM650.229 324.065C651.141 324.065 651.903 323.759 652.515 323.147C653.127 322.511 653.433 321.743 653.433 320.843C653.433 319.931 653.127 319.169 652.515 318.557C651.903 317.933 651.141 317.621 650.229 317.621C649.329 317.621 648.573 317.933 647.961 318.557C647.349 319.169 647.043 319.931 647.043 320.843C647.043 321.743 647.349 322.511 647.961 323.147C648.573 323.759 649.329 324.065 650.229 324.065ZM664.662 320.699L668.442 325.343H666.606L663.24 321.077V325.343H661.692V321.077L658.326 325.343H656.508L660.27 320.699L656.688 316.343H658.506L661.692 320.321V316.343H663.24V320.321L666.426 316.343H668.262L664.662 320.699ZM676.671 317.891V316.343H678.237V325.343H676.671V323.795C675.903 324.983 674.769 325.577 673.269 325.577C671.997 325.577 670.923 325.121 670.047 324.209C669.159 323.285 668.715 322.163 668.715 320.843C668.715 319.535 669.159 318.419 670.047 317.495C670.935 316.571 672.009 316.109 673.269 316.109C674.769 316.109 675.903 316.703 676.671 317.891ZM673.467 324.065C674.379 324.065 675.141 323.759 675.753 323.147C676.365 322.511 676.671 321.743 676.671 320.843C676.671 319.931 676.365 319.169 675.753 318.557C675.141 317.933 674.379 317.621 673.467 317.621C672.567 317.621 671.811 317.933 671.199 318.557C670.587 319.169 670.281 319.931 670.281 320.843C670.281 321.743 670.587 322.511 671.199 323.147C671.811 323.759 672.567 324.065 673.467 324.065ZM687.936 316.343H689.61V325.343H688.08V318.809L685.218 323.417H685.02L682.158 318.809V325.343H680.61V316.343H682.284L685.11 320.897L687.936 316.343ZM693.549 322.661L698.535 316.343H699.795V325.343H698.247V319.025L693.261 325.343H692V316.343H693.549V322.661Z" fill="black" fill-opacity="0.4"/>
<rect x="719" y="176.343" width="15" height="15" rx="7.5" fill="#292A42"/>
<path d="M726.47 216.827C727.46 216.233 728.054 215.279 728.054 214.073C728.054 212.021 726.434 210.509 723.986 210.509C721.7 210.509 720.422 211.679 719.792 213.119L721.196 213.929C721.556 212.975 722.348 212.075 723.986 212.075C725.534 212.075 726.398 212.939 726.398 214.109C726.398 215.315 725.444 216.161 723.878 216.161H722.816V217.691H724.292C725.948 217.691 726.848 218.591 726.848 219.851C726.848 221.111 725.894 221.993 724.094 221.993C722.096 221.993 721.304 220.913 721.034 219.869L719.612 220.679C720.152 222.209 721.502 223.577 724.094 223.577C726.794 223.577 728.522 222.029 728.522 219.905C728.522 218.465 727.766 217.367 726.47 216.827ZM737.8 214.343V215.891C737.08 214.793 735.928 214.109 734.398 214.109C731.896 214.109 729.844 216.179 729.844 218.843C729.844 221.507 731.896 223.577 734.398 223.577C735.928 223.577 737.08 222.893 737.8 221.795V223.343H739.366V214.343H737.8ZM734.596 222.065C732.796 222.065 731.41 220.679 731.41 218.843C731.41 217.007 732.796 215.621 734.596 215.621C736.414 215.621 737.8 217.007 737.8 218.843C737.8 220.679 736.414 222.065 734.596 222.065ZM753.979 221.849V214.343H752.413V221.849H748.651V214.343H747.085V221.849H743.305V214.343H741.739V223.343H753.673V225.755H755.221V221.849H753.979ZM763.443 214.343L758.457 220.661V214.343H756.909V223.343H758.169L763.155 217.025V223.343H764.703V214.343H763.443ZM773.782 214.343H766.078V215.855H769.156V223.343H770.722V215.855H773.782V214.343ZM782.255 214.343V215.891C781.535 214.793 780.383 214.109 778.853 214.109C776.351 214.109 774.299 216.179 774.299 218.843C774.299 221.507 776.351 223.577 778.853 223.577C780.383 223.577 781.535 222.893 782.255 221.795V223.343H783.821V214.343H782.255ZM779.051 222.065C777.251 222.065 775.865 220.679 775.865 218.843C775.865 217.007 777.251 215.621 779.051 215.621C780.869 215.621 782.255 217.007 782.255 218.843C782.255 220.679 780.869 222.065 779.051 222.065ZM794.78 223.577C797.39 223.577 799.244 221.777 799.244 219.347C799.244 216.881 797.408 215.225 795.194 215.225C794.186 215.225 792.854 215.585 792.026 216.629C792.35 215.531 792.98 214.901 794.636 214.199C796.436 213.443 798.11 212.903 798.416 211.175L797.156 210.455C796.868 211.913 795.518 212.165 793.628 213.083C790.73 214.487 790.19 215.981 790.19 218.879C790.19 221.651 792.134 223.577 794.78 223.577ZM794.78 222.065C793.124 222.065 791.828 220.913 791.828 219.257C791.828 217.565 793.43 216.611 794.834 216.611C796.544 216.611 797.678 217.763 797.678 219.347C797.678 220.913 796.472 222.065 794.78 222.065ZM807.441 214.343L802.455 220.661V214.343H800.907V223.343H802.167L807.153 217.025V223.343H808.701V214.343H807.441ZM815.944 218.735C816.664 218.303 817.024 217.583 817.024 216.719C817.024 215.333 815.872 214.109 813.838 214.109C812.2 214.109 811.084 214.883 810.508 216.089L811.786 216.827C812.146 215.963 812.884 215.549 813.838 215.549C814.882 215.549 815.494 216.107 815.494 216.845C815.494 217.619 814.972 218.087 814.054 218.087H813.082V219.509H814.396C815.332 219.509 815.89 220.013 815.89 220.733C815.89 221.525 815.242 222.119 814 222.119C812.686 222.119 811.984 221.507 811.678 220.643L810.364 221.417C810.886 222.641 811.984 223.577 813.982 223.577C816.304 223.577 817.438 222.299 817.438 220.877C817.438 219.905 816.898 219.131 815.944 218.735ZM825.363 214.343V218.087H820.701V214.343H819.135V223.343H820.701V219.581H825.363V223.343H826.929V214.343H825.363ZM830.411 219.563H837.953C837.989 219.329 838.007 219.095 838.007 218.861C838.007 216.341 836.243 214.109 833.525 214.109C830.717 214.109 828.809 216.179 828.809 218.843C828.809 221.543 830.735 223.577 833.633 223.577C835.433 223.577 836.801 222.767 837.593 221.543L836.261 220.787C835.811 221.525 834.911 222.101 833.669 222.101C831.995 222.101 830.717 221.183 830.411 219.563ZM833.525 215.585C834.875 215.585 836.153 216.413 836.423 218.195H830.411C830.663 216.629 831.833 215.585 833.525 215.585ZM844.02 223.577C845.784 223.577 847.314 222.641 848.07 221.237L846.738 220.463C846.234 221.399 845.244 222.029 844.02 222.029C842.22 222.029 840.852 220.643 840.852 218.843C840.852 217.025 842.22 215.639 844.02 215.639C845.226 215.639 846.234 216.269 846.684 217.223L847.998 216.467C847.314 215.045 845.802 214.109 844.02 214.109C841.302 214.109 839.286 216.179 839.286 218.843C839.286 221.507 841.302 223.577 844.02 223.577ZM849.795 218.573H856.365V217.061H849.795V218.573ZM866.691 214.343H858.897V223.343H860.463V215.837H865.125V223.343H866.691V214.343ZM876.581 214.343H869.903V219.491C869.903 221.489 869.237 222.029 868.067 221.867V223.343C870.083 223.523 871.469 222.623 871.469 219.527V215.855H875.015V223.343H876.581V214.343ZM886.406 214.343V215.891C885.686 214.793 884.534 214.109 883.004 214.109C880.502 214.109 878.45 216.179 878.45 218.843C878.45 221.507 880.502 223.577 883.004 223.577C884.534 223.577 885.686 222.893 886.406 221.795V223.343H887.972V214.343H886.406ZM883.202 222.065C881.402 222.065 880.016 220.679 880.016 218.843C880.016 217.007 881.402 215.621 883.202 215.621C885.02 215.621 886.406 217.007 886.406 218.843C886.406 220.679 885.02 222.065 883.202 222.065ZM896.572 214.343V218.087H891.91V214.343H890.344V223.343H891.91V219.581H896.572V223.343H898.138V214.343H896.572ZM907.974 214.343V215.891C907.254 214.793 906.102 214.109 904.572 214.109C902.07 214.109 900.018 216.179 900.018 218.843C900.018 221.507 902.07 223.577 904.572 223.577C906.102 223.577 907.254 222.893 907.974 221.795V223.343H909.54V214.343H907.974ZM904.77 222.065C902.97 222.065 901.584 220.679 901.584 218.843C901.584 217.007 902.97 215.621 904.77 215.621C906.588 215.621 907.974 217.007 907.974 218.843C907.974 220.679 906.588 222.065 904.77 222.065ZM922.947 214.343L917.961 220.661V214.343H916.413V223.343H917.673L922.659 217.025V223.343H924.207V214.343H922.947ZM938.884 214.343H931.09V223.343H932.656V215.837H937.318V223.343H938.884V214.343ZM945.498 223.577C948.126 223.577 950.25 221.507 950.25 218.843C950.25 216.179 948.126 214.109 945.498 214.109C942.87 214.109 940.764 216.179 940.764 218.843C940.764 221.507 942.87 223.577 945.498 223.577ZM945.498 222.047C943.716 222.047 942.33 220.661 942.33 218.843C942.33 217.025 943.716 215.639 945.498 215.639C947.298 215.639 948.684 217.025 948.684 218.843C948.684 220.661 947.298 222.047 945.498 222.047ZM959.286 214.343H952.608V219.491C952.608 221.489 951.942 222.029 950.772 221.867V223.343C952.788 223.523 954.174 222.623 954.174 219.527V215.855H957.72V223.343H959.286V214.343ZM967.941 214.343L965.349 221.399L962.271 214.343H960.615L964.521 223.361L964.377 223.685C963.909 224.855 963.153 225.575 961.947 225.485V226.943C963.747 227.069 965.187 225.917 965.943 223.901L969.615 214.343H967.941ZM976.592 214.343V218.645C975.908 218.951 975.098 219.113 974.27 219.113C972.92 219.113 972.11 218.627 972.11 217.241V214.343H970.544V217.331C970.544 219.509 971.912 220.571 974.162 220.571C975.044 220.571 975.89 220.409 976.592 220.103V223.343H978.158V214.343H976.592ZM981.636 219.563H989.178C989.214 219.329 989.232 219.095 989.232 218.861C989.232 216.341 987.468 214.109 984.75 214.109C981.942 214.109 980.034 216.179 980.034 218.843C980.034 221.543 981.96 223.577 984.858 223.577C986.658 223.577 988.026 222.767 988.818 221.543L987.486 220.787C987.036 221.525 986.136 222.101 984.894 222.101C983.22 222.101 981.942 221.183 981.636 219.563ZM984.75 215.585C986.1 215.585 987.378 216.413 987.648 218.195H981.636C981.888 216.629 983.058 215.585 984.75 215.585ZM997.26 214.343V218.087H992.598V214.343H991.032V223.343H992.598V219.581H997.26V223.343H998.826V214.343H997.26ZM1007.74 214.343L1002.76 220.661V214.343H1001.21V223.343H1002.47L1007.46 217.025V223.343H1009V214.343H1007.74ZM1012.49 219.563H1020.03C1020.06 219.329 1020.08 219.095 1020.08 218.861C1020.08 216.341 1018.32 214.109 1015.6 214.109C1012.79 214.109 1010.88 216.179 1010.88 218.843C1010.88 221.543 1012.81 223.577 1015.71 223.577C1017.51 223.577 1018.88 222.767 1019.67 221.543L1018.34 220.787C1017.89 221.525 1016.99 222.101 1015.74 222.101C1014.07 222.101 1012.79 221.183 1012.49 219.563ZM1015.6 215.585C1016.95 215.585 1018.23 216.413 1018.5 218.195H1012.49C1012.74 216.629 1013.91 215.585 1015.6 215.585ZM727.928 242.849V235.343H721.286V239.519C721.286 241.229 720.962 242.111 720.422 242.849H719.324V246.755H720.872V244.343H727.622V246.755H729.17V242.849H727.928ZM722.204 242.849C722.618 241.985 722.834 240.959 722.834 239.519V236.801H726.38V242.849H722.204ZM737.392 235.343L732.406 241.661V235.343H730.858V244.343H732.118L737.104 238.025V244.343H738.652V235.343H737.392ZM748.83 235.343H741.036V244.343H742.602V236.837H747.264V244.343H748.83V235.343ZM758.719 235.343H752.041V240.491C752.041 242.489 751.375 243.029 750.205 242.867V244.343C752.221 244.523 753.607 243.623 753.607 240.527V236.855H757.153V244.343H758.719V235.343ZM765.322 244.577C767.95 244.577 770.074 242.507 770.074 239.843C770.074 237.179 767.95 235.109 765.322 235.109C762.694 235.109 760.588 237.179 760.588 239.843C760.588 242.507 762.694 244.577 765.322 244.577ZM765.322 243.047C763.54 243.047 762.154 241.661 762.154 239.843C762.154 238.025 763.54 236.639 765.322 236.639C767.122 236.639 768.508 238.025 768.508 239.843C768.508 241.661 767.122 243.047 765.322 243.047ZM780.92 235.343H779.246L776.42 239.897L773.594 235.343H771.92V244.343H773.468V237.809L776.33 242.417H776.528L779.39 237.809V244.343H780.92V235.343ZM790.763 235.343V236.891C790.043 235.793 788.891 235.109 787.361 235.109C784.859 235.109 782.807 237.179 782.807 239.843C782.807 242.507 784.859 244.577 787.361 244.577C788.891 244.577 790.043 243.893 790.763 242.795V244.343H792.329V235.343H790.763ZM787.559 243.065C785.759 243.065 784.373 241.679 784.373 239.843C784.373 238.007 785.759 236.621 787.559 236.621C789.377 236.621 790.763 238.007 790.763 239.843C790.763 241.679 789.377 243.065 787.559 243.065ZM805.106 235.343H799.202V244.343H800.768V236.855H805.106V235.343ZM810.357 244.577C812.985 244.577 815.109 242.507 815.109 239.843C815.109 237.179 812.985 235.109 810.357 235.109C807.729 235.109 805.623 237.179 805.623 239.843C805.623 242.507 807.729 244.577 810.357 244.577ZM810.357 243.047C808.575 243.047 807.189 241.661 807.189 239.843C807.189 238.025 808.575 236.639 810.357 236.639C812.157 236.639 813.543 238.025 813.543 239.843C813.543 241.661 812.157 243.047 810.357 243.047ZM821.186 244.577C822.95 244.577 824.48 243.641 825.236 242.237L823.904 241.463C823.4 242.399 822.41 243.029 821.186 243.029C819.386 243.029 818.018 241.643 818.018 239.843C818.018 238.025 819.386 236.639 821.186 236.639C822.392 236.639 823.4 237.269 823.85 238.223L825.164 237.467C824.48 236.045 822.968 235.109 821.186 235.109C818.468 235.109 816.452 237.179 816.452 239.843C816.452 242.507 818.468 244.577 821.186 244.577ZM830.889 244.577C833.517 244.577 835.641 242.507 835.641 239.843C835.641 237.179 833.517 235.109 830.889 235.109C828.261 235.109 826.155 237.179 826.155 239.843C826.155 242.507 828.261 244.577 830.889 244.577ZM830.889 243.047C829.107 243.047 827.721 241.661 827.721 239.843C827.721 238.025 829.107 236.639 830.889 236.639C832.689 236.639 834.075 238.025 834.075 239.843C834.075 241.661 832.689 243.047 830.889 243.047ZM841.573 244.577C844.183 244.577 846.037 242.777 846.037 240.347C846.037 237.881 844.201 236.225 841.987 236.225C840.979 236.225 839.647 236.585 838.819 237.629C839.143 236.531 839.773 235.901 841.429 235.199C843.229 234.443 844.903 233.903 845.209 232.175L843.949 231.455C843.661 232.913 842.311 233.165 840.421 234.083C837.523 235.487 836.983 236.981 836.983 239.879C836.983 242.651 838.927 244.577 841.573 244.577ZM841.573 243.065C839.917 243.065 838.621 241.913 838.621 240.257C838.621 238.565 840.223 237.611 841.627 237.611C843.337 237.611 844.471 238.763 844.471 240.347C844.471 241.913 843.265 243.065 841.573 243.065ZM852.668 235.109C851.138 235.109 849.986 235.793 849.266 236.891V235.343H847.7V247.943H849.266V242.795C849.986 243.893 851.138 244.577 852.668 244.577C855.17 244.577 857.222 242.507 857.222 239.843C857.222 237.179 855.17 235.109 852.668 235.109ZM852.47 243.065C850.652 243.065 849.266 241.679 849.266 239.843C849.266 238.007 850.652 236.621 852.47 236.621C854.27 236.621 855.656 238.007 855.656 239.843C855.656 241.679 854.27 243.065 852.47 243.065ZM866.542 235.343V236.891C865.822 235.793 864.67 235.109 863.14 235.109C860.638 235.109 858.586 237.179 858.586 239.843C858.586 242.507 860.638 244.577 863.14 244.577C864.67 244.577 865.822 243.893 866.542 242.795V244.343H868.108V235.343H866.542ZM863.338 243.065C861.538 243.065 860.152 241.679 860.152 239.843C860.152 238.007 861.538 236.621 863.338 236.621C865.156 236.621 866.542 238.007 866.542 239.843C866.542 241.679 865.156 243.065 863.338 243.065ZM875.341 239.735C876.061 239.303 876.421 238.583 876.421 237.719C876.421 236.333 875.269 235.109 873.235 235.109C871.597 235.109 870.481 235.883 869.905 237.089L871.183 237.827C871.543 236.963 872.281 236.549 873.235 236.549C874.279 236.549 874.891 237.107 874.891 237.845C874.891 238.619 874.369 239.087 873.451 239.087H872.479V240.509H873.793C874.729 240.509 875.287 241.013 875.287 241.733C875.287 242.525 874.639 243.119 873.397 243.119C872.083 243.119 871.381 242.507 871.075 241.643L869.761 242.417C870.283 243.641 871.381 244.577 873.379 244.577C875.701 244.577 876.835 243.299 876.835 241.877C876.835 240.905 876.295 240.131 875.341 239.735ZM886.092 242.849V235.343H884.526V242.849H880.098V235.343H878.532V244.343H886.02V246.755H887.568V242.849H886.092ZM896.337 235.343V236.891C895.617 235.793 894.465 235.109 892.935 235.109C890.433 235.109 888.381 237.179 888.381 239.843C888.381 242.507 890.433 244.577 892.935 244.577C894.465 244.577 895.617 243.893 896.337 242.795V244.343H897.903V235.343H896.337ZM893.133 243.065C891.333 243.065 889.947 241.679 889.947 239.843C889.947 238.007 891.333 236.621 893.133 236.621C894.951 236.621 896.337 238.007 896.337 239.843C896.337 241.679 894.951 243.065 893.133 243.065Z" fill="black" fill-opacity="0.4"/>
<rect x="956" y="97.3427" width="15" height="15" rx="7.5" fill="#292A42"/>
<path d="M956.324 130.743H965.414V132.327H961.688V143.343H960.032V132.327H956.324V130.743ZM970.646 134.109C971.906 134.109 972.98 134.571 973.868 135.495C974.756 136.419 975.2 137.535 975.2 138.843C975.2 140.163 974.756 141.285 973.868 142.209C972.992 143.121 971.918 143.577 970.646 143.577C969.158 143.577 968.024 142.983 967.244 141.795V146.943H965.678V134.343H967.244V135.891C968.024 134.703 969.158 134.109 970.646 134.109ZM970.448 142.065C971.348 142.065 972.104 141.759 972.716 141.147C973.328 140.511 973.634 139.743 973.634 138.843C973.634 137.931 973.328 137.169 972.716 136.557C972.104 135.933 971.348 135.621 970.448 135.621C969.536 135.621 968.774 135.933 968.162 136.557C967.55 137.169 967.244 137.931 967.244 138.843C967.244 139.743 967.55 140.511 968.162 141.147C968.774 141.759 969.536 142.065 970.448 142.065ZM980.407 141.399L982.999 134.343H984.673L981.001 143.901C980.617 144.921 980.077 145.695 979.381 146.223C978.685 146.763 977.893 147.003 977.005 146.943V145.485C978.097 145.569 978.907 144.969 979.435 143.685L979.579 143.361L975.673 134.343H977.329L980.407 141.399ZM993.158 134.343V141.849H994.4V145.755H992.852V143.343H986.102V145.755H984.554V141.849H985.652C986.228 141.057 986.516 139.947 986.516 138.519V134.343H993.158ZM987.434 141.849H991.61V135.801H988.064V138.519C988.064 139.839 987.854 140.949 987.434 141.849ZM1003.33 142.209C1002.42 143.121 1001.3 143.577 999.967 143.577C998.635 143.577 997.513 143.121 996.601 142.209C995.689 141.297 995.233 140.175 995.233 138.843C995.233 137.511 995.689 136.389 996.601 135.477C997.513 134.565 998.635 134.109 999.967 134.109C1001.3 134.109 1002.42 134.565 1003.33 135.477C1004.26 136.401 1004.72 137.523 1004.72 138.843C1004.72 140.163 1004.26 141.285 1003.33 142.209ZM999.967 142.047C1000.87 142.047 1001.62 141.741 1002.23 141.129C1002.85 140.517 1003.15 139.755 1003.15 138.843C1003.15 137.931 1002.85 137.169 1002.23 136.557C1001.62 135.945 1000.87 135.639 999.967 135.639C999.079 135.639 998.329 135.945 997.717 136.557C997.105 137.169 996.799 137.931 996.799 138.843C996.799 139.755 997.105 140.517 997.717 141.129C998.329 141.741 999.079 142.047 999.967 142.047ZM1009.9 141.399L1012.5 134.343H1014.17L1010.5 143.901C1010.11 144.921 1009.57 145.695 1008.88 146.223C1008.18 146.763 1007.39 147.003 1006.5 146.943V145.485C1007.59 145.569 1008.4 144.969 1008.93 143.685L1009.08 143.361L1005.17 134.343H1006.83L1009.9 141.399ZM1019.36 143.577C1018 143.577 1016.87 143.127 1015.97 142.227C1015.07 141.315 1014.62 140.187 1014.62 138.843C1014.62 137.499 1015.07 136.377 1015.97 135.477C1016.87 134.565 1018 134.109 1019.36 134.109C1020.24 134.109 1021.04 134.325 1021.75 134.757C1022.46 135.177 1022.99 135.747 1023.33 136.467L1022.02 137.223C1021.79 136.743 1021.44 136.359 1020.96 136.071C1020.49 135.783 1019.96 135.639 1019.36 135.639C1018.46 135.639 1017.7 135.945 1017.09 136.557C1016.49 137.181 1016.19 137.943 1016.19 138.843C1016.19 139.731 1016.49 140.487 1017.09 141.111C1017.7 141.723 1018.46 142.029 1019.36 142.029C1019.96 142.029 1020.5 141.891 1020.98 141.615C1021.46 141.327 1021.82 140.943 1022.07 140.463L1023.41 141.237C1023.01 141.957 1022.45 142.527 1021.73 142.947C1021.01 143.367 1020.22 143.577 1019.36 143.577ZM1023.8 134.343H1031.51V135.855H1028.45V143.343H1026.88V135.855H1023.8V134.343ZM1037.85 134.109C1039.11 134.109 1040.18 134.571 1041.07 135.495C1041.96 136.419 1042.4 137.535 1042.4 138.843C1042.4 140.163 1041.96 141.285 1041.07 142.209C1040.19 143.121 1039.12 143.577 1037.85 143.577C1036.36 143.577 1035.23 142.983 1034.45 141.795V146.943H1032.88V134.343H1034.45V135.891C1035.23 134.703 1036.36 134.109 1037.85 134.109ZM1037.65 142.065C1038.55 142.065 1039.31 141.759 1039.92 141.147C1040.53 140.511 1040.84 139.743 1040.84 138.843C1040.84 137.931 1040.53 137.169 1039.92 136.557C1039.31 135.933 1038.55 135.621 1037.65 135.621C1036.74 135.621 1035.98 135.933 1035.36 136.557C1034.75 137.169 1034.45 137.931 1034.45 138.843C1034.45 139.743 1034.75 140.511 1035.36 141.147C1035.98 141.759 1036.74 142.065 1037.65 142.065ZM1051.87 142.209C1050.95 143.121 1049.83 143.577 1048.5 143.577C1047.17 143.577 1046.05 143.121 1045.13 142.209C1044.22 141.297 1043.77 140.175 1043.77 138.843C1043.77 137.511 1044.22 136.389 1045.13 135.477C1046.05 134.565 1047.17 134.109 1048.5 134.109C1049.83 134.109 1050.95 134.565 1051.87 135.477C1052.79 136.401 1053.25 137.523 1053.25 138.843C1053.25 140.163 1052.79 141.285 1051.87 142.209ZM1048.5 142.047C1049.4 142.047 1050.16 141.741 1050.77 141.129C1051.38 140.517 1051.69 139.755 1051.69 138.843C1051.69 137.931 1051.38 137.169 1050.77 136.557C1050.16 135.945 1049.4 135.639 1048.5 135.639C1047.61 135.639 1046.86 135.945 1046.25 136.557C1045.64 137.169 1045.33 137.931 1045.33 138.843C1045.33 139.755 1045.64 140.517 1046.25 141.129C1046.86 141.741 1047.61 142.047 1048.5 142.047ZM1061.43 132.993H1056.57V131.625H1061.43V132.993ZM1056.65 140.661L1061.63 134.343H1062.89V143.343H1061.34V137.025L1056.36 143.343H1055.1V134.343H1056.65V140.661ZM1069.51 143.577C1068.15 143.577 1067.02 143.127 1066.12 142.227C1065.22 141.315 1064.77 140.187 1064.77 138.843C1064.77 137.499 1065.22 136.377 1066.12 135.477C1067.02 134.565 1068.15 134.109 1069.51 134.109C1070.39 134.109 1071.19 134.325 1071.9 134.757C1072.61 135.177 1073.14 135.747 1073.48 136.467L1072.17 137.223C1071.94 136.743 1071.59 136.359 1071.11 136.071C1070.64 135.783 1070.11 135.639 1069.51 135.639C1068.61 135.639 1067.85 135.945 1067.24 136.557C1066.64 137.181 1066.34 137.943 1066.34 138.843C1066.34 139.731 1066.64 140.487 1067.24 141.111C1067.85 141.723 1068.61 142.029 1069.51 142.029C1070.11 142.029 1070.65 141.891 1071.13 141.615C1071.61 141.327 1071.97 140.943 1072.22 140.463L1073.56 141.237C1073.16 141.957 1072.6 142.527 1071.88 142.947C1071.16 143.367 1070.37 143.577 1069.51 143.577ZM1073.95 134.343H1081.66V135.855H1078.6V143.343H1077.03V135.855H1073.95V134.343ZM1089.02 138.717C1089.95 139.101 1090.41 139.797 1090.41 140.805C1090.41 141.573 1090.16 142.191 1089.65 142.659C1089.15 143.115 1088.44 143.343 1087.53 143.343H1083.03V134.343H1087.17C1088.06 134.343 1088.75 134.565 1089.24 135.009C1089.74 135.453 1090 136.047 1090 136.791C1090 137.655 1089.67 138.297 1089.02 138.717ZM1087.1 135.747H1084.56V138.105H1087.1C1088.01 138.105 1088.47 137.703 1088.47 136.899C1088.47 136.131 1088.01 135.747 1087.1 135.747ZM1084.56 141.921H1087.44C1087.9 141.921 1088.24 141.813 1088.48 141.597C1088.74 141.381 1088.86 141.075 1088.86 140.679C1088.86 140.307 1088.74 140.019 1088.48 139.815C1088.24 139.599 1087.9 139.491 1087.44 139.491H1084.56V141.921ZM1099.7 142.209C1098.78 143.121 1097.66 143.577 1096.33 143.577C1095 143.577 1093.88 143.121 1092.96 142.209C1092.05 141.297 1091.6 140.175 1091.6 138.843C1091.6 137.511 1092.05 136.389 1092.96 135.477C1093.88 134.565 1095 134.109 1096.33 134.109C1097.66 134.109 1098.78 134.565 1099.7 135.477C1100.62 136.401 1101.08 137.523 1101.08 138.843C1101.08 140.163 1100.62 141.285 1099.7 142.209ZM1096.33 142.047C1097.23 142.047 1097.99 141.741 1098.6 141.129C1099.21 140.517 1099.52 139.755 1099.52 138.843C1099.52 137.931 1099.21 137.169 1098.6 136.557C1097.99 135.945 1097.23 135.639 1096.33 135.639C1095.44 135.639 1094.69 135.945 1094.08 136.557C1093.47 137.169 1093.16 137.931 1093.16 138.843C1093.16 139.755 1093.47 140.517 1094.08 141.129C1094.69 141.741 1095.44 142.047 1096.33 142.047Z" fill="black" fill-opacity="0.4"/>
<defs>
<linearGradient id="paint0_linear_1024_686" x1="544" y1="3.34278" x2="591.75" y2="504.343" gradientUnits="userSpaceOnUse">
<stop stop-color="#FAD350"/>
<stop offset="1" stop-color="#FFF8DF" stop-opacity="0"/>
</linearGradient>
<linearGradient id="paint1_linear_1024_686" x1="1177" y1="264.843" x2="1044.5" y2="270.343" gradientUnits="userSpaceOnUse">
<stop stop-color="white"/>
<stop offset="1" stop-color="white" stop-opacity="0"/>
</linearGradient>
</defs>
</svg>
