<svg width="64" height="6" viewBox="0 0 64 6" fill="none" xmlns="http://www.w3.org/2000/svg">
<path d="M0 3L5 5.88675L5 0.113249L0 3ZM4.36364 3.5L7.27273 3.5L7.27273 2.5L4.36364 2.5L4.36364 3.5ZM10.1818 3.5L13.0909 3.5L13.0909 2.5L10.1818 2.5L10.1818 3.5ZM16 3.5L18.9091 3.5L18.9091 2.5L16 2.5L16 3.5ZM21.8182 3.5L24.7273 3.5L24.7273 2.5L21.8182 2.5L21.8182 3.5ZM27.6364 3.5L30.5455 3.50001L30.5455 2.50001L27.6364 2.5L27.6364 3.5ZM33.4546 3.50001L36.3636 3.50001L36.3636 2.50001L33.4546 2.50001L33.4546 3.50001ZM39.2727 3.50001L42.1818 3.50001L42.1818 2.50001L39.2727 2.50001L39.2727 3.50001ZM45.0909 3.50001L48 3.50001L48 2.50001L45.0909 2.50001L45.0909 3.50001ZM50.9091 3.50001L53.8182 3.50001L53.8182 2.50001L50.9091 2.50001L50.9091 3.50001ZM56.7273 3.50001L59.6364 3.50001L59.6364 2.50001L56.7273 2.50001L56.7273 3.50001ZM62.5455 3.50001L64 3.50001L64 2.50001L62.5455 2.50001L62.5455 3.50001Z" fill="#6AEB59"/>
</svg>
