<svg width="498" height="371" viewBox="0 0 498 371" fill="none" xmlns="http://www.w3.org/2000/svg">
<path d="M292.065 133.55C294.003 133.55 295.168 135.699 294.111 137.322L293.67 137.999C282.789 154.978 273.433 170.013 265.603 183.105C257.874 196.095 251.417 208.062 246.23 219.006V242.493C246.23 243.841 245.138 244.934 243.79 244.934H206.418V216.397C202.655 208.726 198.231 200.851 193.147 192.771C188.062 184.588 180.842 173.388 171.486 159.171C165.523 150.341 160.707 143.038 157.037 137.261C156.011 135.647 157.177 133.55 159.09 133.55H195.894C196.827 133.55 197.676 134.079 198.092 134.914C201.181 141.108 205.939 149.91 212.367 161.319C219.282 173.797 224.01 182.594 226.553 187.708C230.112 180.241 234.892 171.087 240.891 160.245C247.313 148.638 251.818 140.2 254.407 134.933C254.822 134.088 255.677 133.55 256.617 133.55H292.065Z" fill="url(#paint0_linear_305_891)"/>
<path d="M373.96 133.703C394.197 133.703 408.281 137.334 416.214 144.596C424.146 151.756 428.112 161.882 428.112 174.974C428.112 183.974 426.535 191.645 423.383 197.987C420.23 204.226 414.688 209.136 406.756 212.715C398.824 216.193 387.892 217.932 373.96 217.932H342.232V240.459C342.232 242.931 340.229 244.934 337.758 244.934H309.369C306.826 244.934 304.795 242.816 304.892 240.275C305.583 222.179 305.928 205.168 305.928 189.242C305.928 174.314 305.624 158.432 305.018 141.597C304.859 137.207 308.367 133.55 312.76 133.55H342.232V133.703H373.96ZM363.283 188.321C371.723 188.321 378.028 188.014 382.197 187.401C386.468 186.685 389.417 185.457 391.045 183.719C392.773 181.98 393.638 179.423 393.638 176.048C393.638 172.672 392.824 170.166 391.197 168.53C389.672 166.791 386.773 165.615 382.502 165.001C378.333 164.387 371.926 164.081 363.283 164.081H342.232V188.321H363.283Z" fill="url(#paint1_linear_305_891)"/>
<path d="M67.1171 117.121C44.1346 117.121 27.2028 112.212 16.3217 102.393C5.44055 92.5738 0 78.5613 0 60.3552C0 42.0469 5.44055 27.5741 16.3217 16.9368C27.2028 6.29958 44.1346 0.980957 67.1171 0.980957C96.2073 0.980957 116.589 10.0752 128.262 28.2637C130.242 31.3482 128.586 35.3293 125.176 36.6734C119.03 39.096 112.272 42.1338 104.903 45.7866C101.883 47.2837 98.2579 46.0435 96.0739 43.476C93.3188 40.2373 89.7681 37.6812 85.4218 35.8077C79.1169 33.0461 72.6594 31.6653 66.0494 31.6653C56.2869 31.6653 49.0158 34.2735 44.2363 39.4899C39.4567 44.6039 37.067 50.9454 37.067 58.5142C37.067 66.6967 39.6093 73.3961 44.6939 78.6124C49.8802 83.7265 57.7614 86.2836 68.3374 86.2836C76.7779 86.2836 83.4896 84.9027 88.4726 82.1412C91.857 80.196 94.6315 77.4959 96.7962 74.0409C98.4923 71.3339 101.948 69.9865 104.795 71.4361C112.203 75.2087 121.101 79.3396 131.489 83.8288C126.404 96.2048 117.913 104.848 106.015 109.757C94.1165 114.667 81.1507 117.121 67.1171 117.121Z" fill="url(#paint2_linear_305_891)"/>
<path d="M266.388 41.3309C266.388 50.2294 264.201 57.7471 259.829 63.8839C255.557 70.0208 248.185 74.4701 237.71 77.2317C238.931 78.8682 239.795 80.1467 240.304 81.0672L261.79 111.082C263.139 112.967 261.792 115.587 259.475 115.587H225.233C224.181 115.587 223.217 115.008 222.715 114.084C218.217 105.804 211.419 94.4408 202.321 79.9932H179.898V109.079C179.898 112.673 176.984 115.587 173.39 115.587H150.68C146.981 115.587 144.027 112.507 144.163 108.811C144.8 91.5034 145.119 75.1981 145.119 59.895C145.119 44.5918 144.8 28.2866 144.163 10.9793C144.027 7.28268 146.981 4.20282 150.68 4.20282H179.898V4.35624H211.169C231.711 4.35624 246.049 7.68038 254.185 14.3287C262.32 20.9769 266.388 29.9777 266.388 41.3309ZM179.898 33.8132V51.3033H200.491C209.135 51.3033 215.643 51.0476 220.016 50.5362C224.49 49.9225 227.592 49.002 229.321 47.7746C231.05 46.5473 231.914 44.7573 231.914 42.4049C231.914 40.1547 231.1 38.4159 229.473 37.1885C227.846 35.9612 224.795 35.0918 220.321 34.5804C215.847 34.0689 209.237 33.8132 200.491 33.8132H179.898Z" fill="url(#paint3_linear_305_891)"/>
<path d="M358.815 285.241C358.815 287.998 356.532 290.208 353.777 290.126C339.582 289.707 325.753 289.452 312.29 289.361V364.159C312.29 367.079 309.923 369.447 307.002 369.447H279.444C276.523 369.447 274.156 367.079 274.156 364.159V289.361C260.622 289.452 246.844 289.707 232.824 290.124C230.067 290.207 227.784 287.997 227.784 285.239V262.944C227.784 260.248 229.969 258.063 232.665 258.063H353.933C356.629 258.063 358.815 260.248 358.815 262.944V285.241Z" fill="url(#paint4_linear_305_891)"/>
<path d="M429.88 370.981C406.592 370.981 389.457 365.918 378.474 355.792C367.492 345.564 362 331.245 362 312.834C362 294.628 367.441 280.411 378.322 270.183C389.305 259.955 406.491 254.841 429.88 254.841C453.371 254.841 470.557 259.955 481.438 270.183C492.421 280.411 497.912 294.628 497.912 312.834C497.912 331.347 492.472 345.667 481.591 355.792C470.71 365.918 453.473 370.981 429.88 370.981ZM429.88 339.683C441.168 339.683 449.303 337.535 454.286 333.239C459.269 328.841 461.761 322.04 461.761 312.834C461.761 303.834 459.269 297.134 454.286 292.736C449.303 288.338 441.168 286.139 429.88 286.139C418.694 286.139 410.609 288.338 405.626 292.736C400.643 297.134 398.152 303.834 398.152 312.834C398.152 321.937 400.643 328.688 405.626 333.086C410.609 337.484 418.694 339.683 429.88 339.683Z" fill="url(#paint5_linear_305_891)"/>
<defs>
<linearGradient id="paint0_linear_305_891" x1="248.956" y1="0.980957" x2="248.956" y2="370.981" gradientUnits="userSpaceOnUse">
<stop stop-color="#F3FF64"/>
<stop offset="1" stop-color="#6AEB59"/>
</linearGradient>
<linearGradient id="paint1_linear_305_891" x1="248.956" y1="0.980957" x2="248.956" y2="370.981" gradientUnits="userSpaceOnUse">
<stop stop-color="#F3FF64"/>
<stop offset="1" stop-color="#6AEB59"/>
</linearGradient>
<linearGradient id="paint2_linear_305_891" x1="248.956" y1="0.980957" x2="248.956" y2="370.981" gradientUnits="userSpaceOnUse">
<stop stop-color="#F3FF64"/>
<stop offset="1" stop-color="#6AEB59"/>
</linearGradient>
<linearGradient id="paint3_linear_305_891" x1="248.956" y1="0.980957" x2="248.956" y2="370.981" gradientUnits="userSpaceOnUse">
<stop stop-color="#F3FF64"/>
<stop offset="1" stop-color="#6AEB59"/>
</linearGradient>
<linearGradient id="paint4_linear_305_891" x1="248.956" y1="0.980957" x2="248.956" y2="370.981" gradientUnits="userSpaceOnUse">
<stop stop-color="#F3FF64"/>
<stop offset="1" stop-color="#6AEB59"/>
</linearGradient>
<linearGradient id="paint5_linear_305_891" x1="248.956" y1="0.980957" x2="248.956" y2="370.981" gradientUnits="userSpaceOnUse">
<stop stop-color="#F3FF64"/>
<stop offset="1" stop-color="#6AEB59"/>
</linearGradient>
</defs>
</svg>
