<svg width="277" height="185" viewBox="0 0 277 185" fill="none" xmlns="http://www.w3.org/2000/svg">
<g clip-path="url(#clip0_305_590)">
<g clip-path="url(#clip1_305_590)">
<path fill-rule="evenodd" clip-rule="evenodd" d="M858 -447C858 -476.271 834.271 -500 805 -500H-529C-558.271 -500 -582 -476.271 -582 -447V47C-582 76.2711 -558.271 100 -529 100H-1.75353C26.2858 100 48.3008 123.592 64.4374 146.523C80.814 169.794 107.881 185 138.5 185C169.119 185 196.186 169.794 212.563 146.523C228.699 123.592 250.714 100 278.754 100H805C834.271 100 858 76.2711 858 47V-447Z" fill="#111111"/>
</g>
<path d="M164.377 74.8367C163.485 65.6643 155.525 62.5937 145.475 61.7234L145.468 49L137.683 49.0053L137.691 61.3936C135.644 61.3946 133.553 61.4361 131.474 61.4784L131.468 49.0079L123.688 49.0121L123.692 61.732C122.007 61.7673 120.352 61.7997 118.738 61.8013L118.737 61.7616L108 61.7635L108.007 70.0353C108.007 70.0353 113.755 69.9234 113.66 70.0282C116.813 70.0273 117.84 71.8482 118.14 73.4195L118.149 87.9144C118.366 87.9152 118.65 87.924 118.972 87.9682C118.712 87.9686 118.435 87.9674 118.149 87.9702L118.158 108.276C118.021 109.263 117.439 110.838 115.235 110.843C115.335 110.931 109.577 110.845 109.577 110.845L108.034 120.095L118.166 120.089C120.051 120.091 121.906 120.122 123.728 120.131L123.738 133L131.515 132.997L131.507 120.264C133.642 120.307 135.708 120.323 137.726 120.32L137.73 132.994L145.515 132.988L145.51 120.142C158.598 119.388 167.756 116.104 168.886 103.875C169.799 94.029 165.141 89.6387 157.712 87.8678C162.224 85.5786 165.041 81.5483 164.377 74.8367ZM153.5 102.358C153.51 111.975 136.958 110.89 131.682 110.898L131.675 93.8481C136.952 93.8468 153.495 92.3278 153.5 102.358ZM149.866 78.3049C149.869 87.0539 136.065 86.0407 131.67 86.0433L131.662 70.5801C136.057 70.5774 149.86 69.1801 149.866 78.3049Z" fill="white"/>
<path d="M218.1 91.447C219.289 92.8122 219.821 94.3887 219.698 96.1764C219.605 97.5172 219.138 98.7038 218.297 99.7363C217.472 100.77 216.428 101.484 215.166 101.878L214.647 99.2917C215.372 99.021 215.962 98.5967 216.419 98.0188C216.892 97.442 217.155 96.7706 217.208 96.0044C217.284 94.903 216.949 93.9417 216.204 93.1204C215.459 92.2991 214.528 91.8498 213.41 91.7726C212.309 91.6966 211.333 92.014 210.482 92.7251C209.631 93.4361 209.167 94.3423 209.091 95.4437C209.038 96.2099 209.198 96.9106 209.571 97.5458C209.959 98.1981 210.486 98.6996 211.152 99.0503L210.306 101.542C209.111 100.962 208.167 100.111 207.475 98.9888C206.799 97.8675 206.507 96.6285 206.601 95.2717C206.727 93.452 207.472 91.9558 208.836 90.783C210.216 89.6114 211.8 89.0873 213.587 89.2107C215.407 89.3364 216.911 90.0819 218.1 91.447Z" fill="white"/>
<path d="M218.479 104.504L217.881 107.198L215.842 106.746C216.537 107.31 216.973 107.964 217.153 108.708C217.344 109.472 217.36 110.213 217.2 110.931C217.124 111.275 217.013 111.627 216.867 111.988L213.985 111.349C214.249 110.899 214.429 110.456 214.526 110.019C214.682 109.316 214.589 108.516 214.247 107.621C213.905 106.726 213.078 106.133 211.766 105.841L205.463 104.443L206.061 101.749L218.479 104.504Z" fill="white"/>
<path d="M216.486 113.639L215.41 116.388L205.276 116.469L212.726 123.249L211.65 125.998L197.708 112.889L198.757 110.207L202.775 113.97L216.486 113.639Z" fill="white"/>
<path d="M210.444 128.229L208.982 130.571L207.557 129.681C208.082 131.197 207.891 132.681 206.985 134.134C206.062 135.613 204.724 136.533 202.973 136.892C201.226 137.273 199.592 136.989 198.072 136.04C196.525 135.074 195.534 133.73 195.101 132.007C194.681 130.293 194.936 128.689 195.868 127.196C196.775 125.744 198.038 124.929 199.657 124.751L193.916 121.168L195.377 118.827L210.444 128.229ZM203.688 127.041C202.752 126.456 201.737 126.285 200.643 126.526C199.541 126.781 198.697 127.377 198.113 128.314C197.52 129.264 197.353 130.272 197.611 131.339C197.875 132.428 198.482 133.269 199.432 133.861C200.382 134.454 201.393 134.633 202.465 134.396C203.55 134.168 204.393 133.572 204.995 132.609C205.579 131.672 205.744 130.653 205.489 129.55C205.225 128.462 204.625 127.625 203.688 127.041Z" fill="white"/>
<path d="M200.252 139.301L202.053 140.887L200.467 142.688L202.754 144.703L201.556 147.261L198.675 144.723L196.089 147.659L194.288 146.073L196.874 143.137L192.227 139.045C191.638 138.527 191.124 138.372 190.684 138.581C190.233 138.803 189.886 139.051 189.643 139.328C189.262 139.76 188.898 140.367 188.551 141.148L186.552 139.388C186.943 138.581 187.376 137.907 187.852 137.367C188.476 136.658 189.315 136.118 190.368 135.745C191.433 135.382 192.644 135.799 194.001 136.994L198.666 141.102L200.252 139.301Z" fill="white"/>
<path d="M191.996 149.185C191.828 150.988 191.048 152.466 189.656 153.62C188.265 154.774 186.669 155.256 184.868 155.066C183.066 154.897 181.593 154.124 180.449 152.744C179.295 151.353 178.796 149.75 178.954 147.935C179.122 146.132 179.896 144.659 181.275 143.515C182.667 142.361 184.264 141.868 186.066 142.036C187.879 142.217 189.362 143.003 190.517 144.394C191.671 145.786 192.164 147.383 191.996 149.185ZM188.522 146.049C187.817 145.199 186.913 144.712 185.812 144.586C184.71 144.461 183.734 144.75 182.884 145.455C182.047 146.15 181.588 147.05 181.507 148.156C181.427 149.262 181.739 150.24 182.444 151.09C183.149 151.939 184.047 152.421 185.138 152.534C186.228 152.67 187.198 152.385 188.047 151.68C188.897 150.976 189.362 150.07 189.443 148.964C189.533 147.871 189.226 146.899 188.522 146.049Z" fill="white"/>
<path d="M175.086 162.92L169.052 151.722L171.481 150.413L177.515 161.611L175.086 162.92ZM179.495 165.588C179.344 166.051 179.051 166.4 178.614 166.635C178.177 166.87 177.731 166.92 177.276 166.783C176.815 166.669 176.466 166.393 176.231 165.956C175.996 165.52 175.95 165.081 176.094 164.64C176.244 164.177 176.538 163.828 176.975 163.593C177.411 163.357 177.86 163.297 178.322 163.412C178.791 163.541 179.144 163.823 179.379 164.26C179.607 164.682 179.645 165.125 179.495 165.588Z" fill="white"/>
<path d="M172.108 164.55L169.532 165.542L168.929 163.974C168.472 165.504 167.467 166.568 165.914 167.166C164.555 167.689 163.221 167.697 161.911 167.189C160.592 166.702 159.654 165.735 159.097 164.287L156.295 157.007L158.871 156.016L161.405 162.601C161.767 163.541 162.338 164.179 163.119 164.513C163.889 164.868 164.685 164.887 165.507 164.571C166.447 164.209 167.084 163.569 167.417 162.653C167.741 161.756 167.707 160.801 167.316 159.785L164.963 153.671L167.539 152.679L172.108 164.55Z" fill="white"/>
<path d="M158.716 169.417L155.814 169.96L150.319 159.66L148.926 171.251L146.025 171.795L147.786 158.523L152.245 157.688L158.716 169.417Z" fill="white"/>
<path d="M141.465 170.223C140.185 171.504 138.65 172.144 136.858 172.145C135.258 172.146 133.865 171.626 132.681 170.587C131.481 169.563 130.744 168.276 130.471 166.724C130.375 166.34 130.327 165.956 130.327 165.572C130.327 165.236 130.367 164.9 130.446 164.564L140.67 164.559C140.51 163.615 140.078 162.864 139.373 162.304C138.653 161.744 137.813 161.465 136.853 161.465C135.381 161.466 134.205 161.994 133.326 163.05L130.877 162.404C131.389 161.379 132.213 160.555 133.348 159.93C134.468 159.322 135.636 159.017 136.852 159.017C138.692 159.016 140.244 159.655 141.509 160.935C142.757 162.214 143.382 163.758 143.383 165.566C143.384 167.39 142.744 168.942 141.465 170.223ZM140.671 166.671L133.135 166.675C133.296 167.522 133.72 168.234 134.408 168.81C135.081 169.402 135.905 169.697 136.881 169.697C137.857 169.697 138.689 169.4 139.376 168.808C140.064 168.232 140.496 167.519 140.671 166.671Z" fill="white"/>
<path d="M129.164 168.01C128.963 169.193 128.325 170.034 127.25 170.533C126.172 171.047 124.884 171.176 123.385 170.921C121.603 170.618 120.06 169.908 118.757 168.794L119.204 166.167C120.854 167.536 122.381 168.34 123.784 168.579C124.478 168.697 125.069 168.66 125.556 168.467C126.025 168.287 126.296 167.984 126.369 167.558C126.393 167.416 126.392 167.278 126.366 167.144C126.322 167.023 126.245 166.904 126.135 166.788C126.009 166.669 125.888 166.568 125.773 166.483C125.641 166.396 125.456 166.291 125.217 166.169C124.976 166.063 124.772 165.972 124.607 165.895C124.439 165.834 124.196 165.736 123.878 165.6C123.544 165.462 123.279 165.352 123.082 165.27C121.69 164.676 120.725 164.008 120.185 163.267C119.63 162.523 119.423 161.693 119.563 160.775C119.708 159.923 120.099 159.251 120.734 158.759C121.354 158.264 122.047 157.96 122.813 157.847C123.576 157.75 124.391 157.775 125.259 157.923C127.041 158.227 128.684 159.067 130.186 160.442L129.714 163.211C129.23 162.625 128.527 162.034 127.606 161.439C126.685 160.844 125.767 160.469 124.852 160.313C124.237 160.208 123.688 160.236 123.206 160.398C122.706 160.572 122.421 160.864 122.351 161.274C122.278 161.7 122.479 162.092 122.954 162.448C123.426 162.821 124.196 163.212 125.262 163.621C126.754 164.199 127.824 164.828 128.471 165.506C129.1 166.198 129.331 167.032 129.164 168.01Z" fill="white"/>
<path d="M116.952 166.932L116.214 169.215L113.93 168.477L112.992 171.377L110.168 171.295L111.35 167.642L107.628 166.437L108.367 164.154L112.089 165.358L113.995 159.467C114.236 158.721 114.173 158.188 113.806 157.867C113.424 157.542 113.058 157.322 112.707 157.209C112.159 157.032 111.458 156.939 110.603 156.932L111.423 154.397C112.319 154.435 113.109 154.564 113.794 154.786C114.692 155.076 115.522 155.631 116.283 156.449C117.039 157.282 117.139 158.559 116.583 160.279L114.669 166.193L116.952 166.932Z" fill="white"/>
<path d="M104.738 165.557L102.334 164.2L103.137 162.779C101.737 163.404 100.41 163.362 99.1559 162.654C98.4313 162.245 97.8648 161.687 97.4562 160.978C97.0257 160.276 96.8221 159.481 96.8452 158.594C96.0715 159.021 95.248 159.227 94.3747 159.211C93.4796 159.202 92.6628 158.989 91.9243 158.572C90.7957 157.935 90.0484 156.981 89.6824 155.709C89.3086 154.45 89.511 153.132 90.2896 151.752L94.1236 144.959L96.5271 146.316L93.0235 152.524C92.5201 153.415 92.322 154.222 92.429 154.944C92.5282 155.68 92.933 156.248 93.6437 156.649C94.4379 157.097 95.2074 157.183 95.9521 156.905C96.6829 156.619 97.3042 156.088 97.8161 155.311L101.355 149.041L103.759 150.398L100.255 156.605C99.7517 157.497 99.5536 158.304 99.6606 159.026C99.7598 159.761 100.158 160.326 100.854 160.719C101.718 161.207 102.542 161.277 103.326 160.929C104.096 160.574 104.733 159.95 105.236 159.059L108.587 153.123L110.99 154.479L104.738 165.557Z" fill="white"/>
<path d="M86.4803 151.984C84.6723 152.073 83.1046 151.515 81.7771 150.311C80.5919 149.236 79.9101 147.916 79.7317 146.35C79.5307 144.785 79.8507 143.337 80.6918 142.004C80.8787 141.656 81.1011 141.339 81.359 141.054C81.5847 140.806 81.8401 140.583 82.1251 140.388L89.6986 147.257C90.2142 146.45 90.3994 145.603 90.2541 144.715C90.0969 143.816 89.6628 143.045 88.9516 142.4C87.8612 141.411 86.6354 141.012 85.2742 141.203L83.8961 139.079C84.9633 138.664 86.1272 138.607 87.3879 138.908C88.6259 139.21 89.6954 139.769 90.5961 140.586C91.9591 141.822 92.6789 143.339 92.7553 145.136C92.8199 146.923 92.2449 148.486 91.0304 149.825C89.805 151.176 88.2884 151.896 86.4803 151.984ZM88.2798 148.821L82.6974 143.759C82.2463 144.494 82.0821 145.306 82.2048 146.195C82.3049 147.085 82.7164 147.858 83.4394 148.514C84.1624 149.169 84.9775 149.509 85.8849 149.533C86.7814 149.568 87.5798 149.331 88.2798 148.821Z" fill="white"/>
<path d="M75.6852 144.006L74.0099 141.813L75.345 140.793C73.7481 140.785 72.4446 140.119 71.4345 138.797C70.5507 137.64 70.1683 136.362 70.2872 134.962C70.3837 133.56 71.0487 132.387 72.282 131.445L78.4807 126.711L80.156 128.904L74.5486 133.187C73.7476 133.799 73.2963 134.526 73.1949 135.369C73.0711 136.208 73.2762 136.978 73.8104 137.677C74.4222 138.478 75.2149 138.91 76.1882 138.971C77.1392 139.03 78.047 138.729 78.9116 138.069L84.1185 134.092L85.7938 136.285L75.6852 144.006Z" fill="white"/>
<path d="M69.4648 131.39L67.352 132.528L66.2135 130.415L63.5303 131.861L61.5466 129.85L64.9271 128.028L63.0713 124.584L65.1841 123.446L67.0398 126.89L72.4908 123.952C73.181 123.58 73.5043 123.152 73.4608 122.666C73.4097 122.167 73.2969 121.755 73.1223 121.431C72.8491 120.924 72.4063 120.372 71.7938 119.775L74.139 118.511C74.7601 119.158 75.2415 119.798 75.583 120.432C76.0308 121.263 76.2468 122.237 76.2309 123.355C76.2009 124.479 75.3901 125.471 73.7984 126.328L68.3263 129.277L69.4648 131.39Z" fill="white"/>
<path d="M65.5533 121.339C64.4255 121.749 63.3791 121.61 62.4141 120.923C61.4341 120.24 60.6845 119.185 60.1652 117.756C59.5476 116.057 59.4009 114.366 59.7251 112.682L62.2289 111.772C61.8554 113.882 61.9118 115.607 62.3983 116.945C62.6388 117.606 62.9634 118.101 63.372 118.43C63.7602 118.748 64.1573 118.834 64.5633 118.686C64.6987 118.637 64.8183 118.568 64.9222 118.479C65.0056 118.381 65.0705 118.255 65.117 118.102C65.1581 117.934 65.1868 117.778 65.2032 117.636C65.2142 117.479 65.2135 117.266 65.2013 116.999C65.174 116.736 65.1528 116.514 65.1378 116.332C65.1077 116.156 65.0729 115.896 65.0333 115.553C64.9883 115.195 64.9528 114.91 64.9268 114.698C64.7548 113.194 64.8575 112.025 65.2349 111.19C65.6068 110.339 66.2262 109.748 67.0929 109.416C67.9049 109.121 68.682 109.128 69.4243 109.437C70.161 109.731 70.7679 110.183 71.2449 110.793C71.7068 111.408 72.0881 112.129 72.3887 112.956C73.0063 114.655 73.0888 116.498 72.636 118.484L69.9969 119.443C70.2663 118.733 70.4319 117.83 70.4935 116.735C70.5552 115.64 70.4275 114.656 70.1105 113.784C69.8974 113.198 69.6015 112.735 69.2229 112.396C68.8238 112.047 68.4287 111.944 68.0378 112.086C67.6317 112.234 67.3911 112.602 67.3158 113.191C67.2255 113.786 67.2664 114.648 67.4385 115.777C67.6734 117.36 67.6561 118.6 67.3867 119.498C67.0968 120.387 66.4856 121.001 65.5533 121.339Z" fill="white"/>
<path d="M56.6269 89.2145C55.4231 87.8626 54.873 86.2922 54.9767 84.5032C55.0544 83.1614 55.5081 81.9697 56.3378 80.9279C57.1514 79.8853 58.1871 79.16 59.4448 78.752L59.9925 81.332C59.2712 81.6108 58.6853 82.0416 58.2348 82.6245C57.7684 83.2065 57.5129 83.8809 57.4685 84.6476C57.4046 85.7497 57.7498 86.7073 58.5041 87.5203C59.2583 88.3333 60.1945 88.7722 61.3126 88.8369C62.4148 88.9008 63.3874 88.5725 64.2305 87.8521C65.0735 87.1316 65.527 86.2203 65.5909 85.1182C65.6353 84.3515 65.4674 83.6526 65.0873 83.0216C64.6921 82.3736 64.1599 81.878 63.4906 81.5347L64.3087 79.0338C65.5099 79.6003 66.4629 80.4408 67.1676 81.5554C67.8563 82.6691 68.1614 83.9049 68.0827 85.2626C67.9772 87.0835 67.2489 88.5879 65.898 89.7758C64.531 90.9627 62.9531 91.5043 61.1641 91.4006C59.3431 91.2951 57.8307 90.5664 56.6269 89.2145Z" fill="white"/>
<path d="M56.1524 75.841L56.7315 73.1425L58.773 73.5805C58.0748 73.0216 57.6335 72.3705 57.4494 71.6274C57.2529 70.8652 57.2319 70.1243 57.3863 69.4047C57.4602 69.0605 57.5687 68.7074 57.7118 68.3454L60.5981 68.9647C60.3376 69.4161 60.1603 69.8608 60.0664 70.2989C59.9153 71.0028 60.014 71.8013 60.3624 72.6943C60.7107 73.5873 61.542 74.1747 62.8561 74.4567L69.1684 75.8113L68.5893 78.5098L56.1524 75.841Z" fill="white"/>
<path d="M57.9971 66.9444L59.0445 64.1844L69.1774 63.9997L61.6588 57.2958L62.7062 54.5359L76.7816 67.5017L75.7597 70.1943L71.7041 66.4732L57.9971 66.9444Z" fill="white"/>
<path d="M63.9811 52.0767L65.4283 49.7266L66.8589 50.6075C66.3248 49.0948 66.5066 47.6096 67.4043 46.1518C68.3188 44.6668 69.6508 43.7396 71.4004 43.3701C73.1447 42.9787 74.7798 43.2528 76.3056 44.1924C77.8588 45.1489 78.8573 46.4872 79.3012 48.2075C79.7314 49.9193 79.4851 51.5245 78.5622 53.0232C77.6645 54.4809 76.4064 55.3033 74.7879 55.4905L80.5508 59.0394L79.1036 61.3895L63.9811 52.0767ZM70.7432 53.2251C71.6832 53.804 72.6994 53.9694 73.7917 53.7213C74.8924 53.4596 75.7322 52.8587 76.3111 51.9187C76.8984 50.965 77.0596 49.9557 76.7947 48.8906C76.5246 47.8035 75.9127 46.9664 74.9591 46.3791C74.0054 45.7918 72.9934 45.6196 71.9231 45.8624C70.8392 46.0969 69.9994 46.6977 69.4038 47.665C68.8249 48.6051 68.6663 49.6254 68.928 50.7261C69.198 51.8132 69.8031 52.6462 70.7432 53.2251Z" fill="white"/>
<path d="M73.8766 41.1884L72.0608 39.6191L73.6301 37.8032L71.324 35.8102L72.4981 33.2404L75.4034 35.7514L77.9614 32.7916L79.7772 34.3609L77.2193 37.3207L81.9041 41.3695C82.4973 41.8822 83.013 42.0318 83.4512 41.8184C83.8998 41.5929 84.2445 41.3409 84.4851 41.0625C84.8617 40.6267 85.22 40.0164 85.5599 39.2316L87.5755 40.9735C87.1921 41.7842 86.765 42.4619 86.2942 43.0066C85.6769 43.7208 84.8434 44.2693 83.7936 44.652C82.7317 45.0243 81.5168 44.6193 80.1489 43.4371L75.4459 39.3726L73.8766 41.1884Z" fill="white"/>
<path d="M82.0034 31.2184C82.1546 29.4146 82.9206 27.929 84.3013 26.7618C85.682 25.5946 87.2734 25.0978 89.0754 25.2715C90.8793 25.4227 92.3596 26.1826 93.5165 27.5511C94.6838 28.9318 95.1969 30.5303 95.0561 32.3463C94.9049 34.1502 94.1451 35.6306 92.7766 36.7875C91.3958 37.9547 89.8035 38.4627 87.9996 38.3116C86.1854 38.1482 84.6947 37.3761 83.5275 35.9954C82.3603 34.6146 81.8523 33.0223 82.0034 31.2184ZM85.507 34.322C86.2197 35.1651 87.1276 35.6442 88.2305 35.7594C89.3335 35.8745 90.3066 35.5757 91.1497 34.863C91.9806 34.1606 92.431 33.256 92.5011 32.1493C92.5711 31.0425 92.2498 30.0676 91.5371 29.2245C90.8243 28.3813 89.9216 27.9083 88.829 27.8054C87.7382 27.6799 86.7713 27.9736 85.9282 28.6863C85.0851 29.399 84.6285 30.3088 84.5585 31.4155C84.4781 32.5101 84.7943 33.4789 85.507 34.322Z" fill="white"/>
<path d="M99.0528 17.1269L105.156 28.2872L102.734 29.6114L96.6312 18.451L99.0528 17.1269ZM94.6274 14.4863C94.775 14.0227 95.0664 13.6718 95.5016 13.4339C95.9368 13.1959 96.3824 13.1437 96.8384 13.2773C97.3007 13.3892 97.6509 13.6627 97.8889 14.0979C98.1269 14.5331 98.1752 14.9717 98.0339 15.4136C97.8863 15.8773 97.5949 16.2282 97.1597 16.4661C96.7245 16.7041 96.2757 16.7671 95.8134 16.6553C95.3433 16.5293 94.9893 16.2488 94.7513 15.8136C94.5211 15.3924 94.4797 14.95 94.6274 14.4863Z" fill="white"/>
<path d="M101.863 15.5198L104.432 14.5116L105.046 16.0755C105.493 14.5423 106.491 13.4718 108.04 12.8639C109.395 12.332 110.729 12.3155 112.042 12.8143C113.364 13.2924 114.309 14.2538 114.876 15.6986L117.725 22.9595L115.156 23.9677L112.578 17.3994C112.21 16.4611 111.635 15.8274 110.853 15.4984C110.079 15.1487 109.283 15.1346 108.464 15.4561C107.526 15.8243 106.893 16.4679 106.566 17.3868C106.248 18.285 106.288 19.2405 106.686 20.2533L109.079 26.3525L106.51 27.3607L101.863 15.5198Z" fill="white"/>
<path d="M115.049 10.5435L117.946 9.97933L123.514 20.2404L124.825 8.64002L127.723 8.07586L126.055 21.3595L121.602 22.2264L115.049 10.5435Z" fill="white"/>
<path d="M132.008 9.55866C133.273 8.26392 134.802 7.60618 136.594 7.58542C138.193 7.5669 139.591 8.07074 140.787 9.09696C141.999 10.107 142.75 11.3864 143.04 12.9351C143.14 13.318 143.193 13.7014 143.197 14.0854C143.201 14.4214 143.165 14.7578 143.089 15.0947L132.866 15.2131C133.037 16.1552 133.477 16.9021 134.188 17.4539C134.914 18.0056 135.757 18.2758 136.717 18.2647C138.189 18.2477 139.359 17.7061 140.227 16.64L142.682 17.2596C142.182 18.2894 141.367 19.1229 140.239 19.76C139.126 20.381 137.962 20.6985 136.746 20.7125C134.906 20.7339 133.346 20.1119 132.068 18.8466C130.805 17.5811 130.163 16.0445 130.142 14.2366C130.121 12.4127 130.743 10.8534 132.008 9.55866ZM132.841 13.1012L140.377 13.014C140.207 12.1679 139.775 11.4608 139.08 10.8929C138.401 10.3087 137.574 10.0222 136.598 10.0335C135.622 10.0448 134.793 10.3505 134.112 10.9504C133.431 11.5343 133.007 12.2513 132.841 13.1012Z" fill="white"/>
<path d="M144.889 11.6436C145.082 10.4592 145.715 9.61398 146.786 9.10786C147.86 8.58596 149.147 8.44735 150.647 8.69204C152.432 8.98309 153.98 9.68136 155.291 10.7869L154.862 13.4161C153.203 12.0593 151.67 11.2663 150.265 11.037C149.57 10.9237 148.98 10.9652 148.494 11.1616C148.026 11.3447 147.758 11.6494 147.688 12.0758C147.665 12.2179 147.667 12.356 147.693 12.49C147.739 12.6109 147.817 12.729 147.927 12.8443C148.054 12.9623 148.175 13.0631 148.292 13.1469C148.423 13.2332 148.609 13.3365 148.849 13.4567C149.091 13.561 149.295 13.6511 149.461 13.7268C149.63 13.7867 149.874 13.8832 150.192 14.0162C150.527 14.1519 150.793 14.2601 150.991 14.3409C152.387 14.9253 153.357 15.5861 153.901 16.3234C154.462 17.0632 154.675 17.8924 154.541 18.8109C154.402 19.6636 154.017 20.3383 153.384 20.835C152.768 21.3343 152.077 21.6431 151.312 21.7615C150.55 21.8641 149.734 21.8446 148.866 21.7029C147.081 21.4119 145.433 20.5837 143.921 19.2185L144.373 16.4471C144.862 17.0294 145.569 17.6148 146.494 18.2035C147.419 18.7921 148.34 19.1611 149.256 19.3105C149.872 19.411 150.42 19.3788 150.901 19.2141C151.4 19.0361 151.683 18.7418 151.75 18.3313C151.82 17.9049 151.616 17.515 151.138 17.1615C150.664 16.7923 149.892 16.407 148.822 16.0056C147.326 15.4374 146.252 14.8164 145.6 14.1426C144.966 13.4556 144.729 12.6226 144.889 11.6436Z" fill="white"/>
<path d="M156.935 12.5553L157.658 10.2669L159.946 10.9905L160.865 8.08438L163.69 8.14691L162.532 11.8082L166.262 12.9877L165.539 15.276L161.809 14.0965L159.942 20.0004C159.705 20.7479 159.772 21.2807 160.141 21.5989C160.526 21.9218 160.893 22.1388 161.244 22.2497C161.793 22.4234 162.496 22.5112 163.351 22.5132L162.548 25.0532C161.651 25.0215 160.86 24.8971 160.174 24.6801C159.274 24.3954 158.44 23.8467 157.674 23.0337C156.912 22.2055 156.804 20.9295 157.349 19.2056L159.223 13.2789L156.935 12.5553Z" fill="white"/>
<path d="M169.338 13.8593L171.749 15.2014L170.956 16.6274C172.352 15.9943 173.679 16.0279 174.937 16.7281C175.664 17.1326 176.234 17.6878 176.647 18.3936C177.082 19.0933 177.29 19.8868 177.273 20.7741C178.044 20.3426 178.866 20.1318 179.739 20.1418C180.634 20.1455 181.453 20.3535 182.194 20.7658C183.326 21.396 184.079 22.3461 184.453 23.616C184.834 24.8719 184.64 26.192 183.87 27.5761L180.077 34.3919L177.665 33.0499L181.131 26.8213C181.629 25.9265 181.822 25.1185 181.711 24.3973C181.607 23.6622 181.199 23.0962 180.486 22.6995C179.689 22.256 178.919 22.1755 178.176 22.4578C177.447 22.7479 176.829 23.2828 176.322 24.0626L172.821 30.3542L170.409 29.0121L173.875 22.7835C174.373 21.8887 174.566 21.0807 174.455 20.3596C174.351 19.6244 173.95 19.0624 173.251 18.6734C172.384 18.191 171.559 18.126 170.777 18.4782C170.01 18.8382 169.377 19.4656 168.879 20.3604L165.564 26.3164L163.153 24.9744L169.338 13.8593Z" fill="white"/>
<path d="M187.75 27.3187C189.558 27.2201 191.129 27.7688 192.463 28.9651C193.654 30.0331 194.344 31.3495 194.531 32.9142C194.741 34.4777 194.429 35.928 193.596 37.2652C193.411 37.6152 193.19 37.9332 192.934 38.2191C192.71 38.4693 192.456 38.6927 192.172 38.8895L184.559 32.0647C184.048 32.8744 183.868 33.7227 184.018 34.6096C184.18 35.5072 184.619 36.2764 185.334 36.9172C186.43 37.8998 187.658 38.2917 189.018 38.0928L190.408 40.2094C189.343 40.6301 188.18 40.6936 186.917 40.3999C185.678 40.105 184.605 39.5517 183.7 38.7399C182.33 37.5117 181.601 35.9991 181.514 34.2023C181.44 32.4162 182.006 30.85 183.213 29.5038C184.43 28.1457 185.943 27.4173 187.75 27.3187ZM185.969 30.4921L191.58 35.5226C192.027 34.7844 192.187 33.9712 192.059 33.0831C191.954 32.1937 191.538 31.4233 190.811 30.7718C190.084 30.1203 189.267 29.7853 188.36 29.7668C187.463 29.7364 186.666 29.9782 185.969 30.4921Z" fill="white"/>
<path d="M198.419 34.9913L200.115 37.1687L198.79 38.201C200.387 38.1943 201.696 38.8474 202.719 40.1601C203.613 41.3088 204.008 42.5834 203.902 43.984C203.819 45.3873 203.165 46.5659 201.941 47.5195L195.787 52.3125L194.091 50.1351L199.658 45.7993C200.453 45.1799 200.897 44.4484 200.991 43.605C201.107 42.7644 200.894 41.9969 200.354 41.3026C199.734 40.5074 198.938 40.0834 197.964 40.0308C197.012 39.9809 196.107 40.2903 195.249 40.9588L190.08 44.9849L188.384 42.8075L198.419 34.9913Z" fill="white"/>
<path d="M204.825 47.606L206.927 46.4467L208.086 48.5482L210.755 47.076L212.758 49.0681L209.396 50.9228L211.285 54.3482L209.184 55.5075L207.294 52.0821L201.872 55.0729C201.186 55.4516 200.867 55.8834 200.915 56.3685C200.971 56.8675 201.088 57.2781 201.266 57.6003C201.544 58.1047 201.992 58.6523 202.611 59.2431L200.278 60.5299C199.65 59.8893 199.163 59.2538 198.815 58.6233C198.359 57.7967 198.134 56.8248 198.138 55.7074C198.157 54.5823 198.958 53.5831 200.542 52.7098L205.984 49.7074L204.825 47.606Z" fill="white"/>
<path d="M208.835 57.5865C209.958 57.165 211.006 57.293 211.978 57.9707C212.965 58.6428 213.726 59.6904 214.26 61.1135C214.895 62.8063 215.059 64.4963 214.752 66.1837L212.258 67.1196C212.61 65.0053 212.535 63.2815 212.035 61.9483C211.788 61.2891 211.458 60.7976 211.046 60.4737C210.654 60.1592 210.257 60.0778 209.852 60.2296C209.717 60.2802 209.598 60.3504 209.495 60.4403C209.413 60.5396 209.349 60.666 209.304 60.8196C209.265 60.9881 209.238 61.1436 209.223 61.2859C209.214 61.4432 209.217 61.6557 209.232 61.9235C209.262 62.1857 209.285 62.4076 209.302 62.5892C209.334 62.7653 209.371 63.0246 209.414 63.3673C209.463 63.725 209.502 64.0096 209.53 64.2212C209.717 65.723 209.627 66.8935 209.258 67.7325C208.895 68.5865 208.282 69.184 207.418 69.525C206.61 69.8285 205.832 69.8296 205.087 69.5283C204.347 69.2419 203.736 68.7963 203.252 68.1915C202.784 67.5811 202.395 66.864 202.086 66.0401C201.451 64.3473 201.35 62.5056 201.782 60.5149L204.411 59.5284C204.149 60.2419 203.993 61.1465 203.942 62.242C203.892 63.3375 204.03 64.3197 204.356 65.1885C204.575 65.7727 204.876 66.2324 205.258 66.5676C205.66 66.912 206.057 67.0112 206.446 66.8651C206.851 66.7133 207.087 66.3425 207.157 65.7526C207.241 65.1571 207.191 64.2956 207.007 63.1683C206.756 61.5879 206.76 60.3472 207.02 59.4464C207.301 58.555 207.906 57.935 208.835 57.5865Z" fill="white"/>
<circle cx="59.6692" cy="101.459" r="2.55392" fill="white"/>
<circle cx="213.103" cy="78.7616" r="2.55392" fill="white"/>
</g>
<defs>
<clipPath id="clip0_305_590">
<rect width="277" height="185" fill="white"/>
</clipPath>
<clipPath id="clip1_305_590">
<rect width="1440" height="85" fill="white" transform="translate(-582 100)"/>
</clipPath>
</defs>
</svg>
